<svg xmlns="http://www.w3.org/2000/svg" xmlns:xlink="http://www.w3.org/1999/xlink" viewBox="0 0 1300 525"><defs><style>.cls-1,.cls-19,.cls-21,.cls-24,.cls-26,.cls-29,.cls-35,.cls-38,.cls-40,.cls-44,.cls-51,.cls-52,.cls-53,.cls-54,.cls-55,.cls-56,.cls-57,.cls-58,.cls-63,.cls-64,.cls-65,.cls-66,.cls-67,.cls-68,.cls-75,.cls-76,.cls-78,.cls-79,.cls-86,.cls-90,.cls-91,.cls-93,.cls-96{fill:none;}.cls-2{clip-path:url(#clip-path);}.cls-3{clip-path:url(#clip-path-2);}.cls-4{fill:#414042;}.cls-5{clip-path:url(#clip-path-3);}.cls-6{clip-path:url(#clip-path-4);}.cls-7{clip-path:url(#clip-path-5);}.cls-8{clip-path:url(#clip-path-6);}.cls-9{clip-path:url(#clip-path-7);}.cls-10{clip-path:url(#clip-path-8);}.cls-11{clip-path:url(#clip-path-9);}.cls-12{clip-path:url(#clip-path-10);}.cls-13{clip-path:url(#clip-path-11);}.cls-14{clip-path:url(#clip-path-12);}.cls-15{clip-path:url(#clip-path-13);}.cls-16{clip-path:url(#clip-path-14);}.cls-17{fill:#c3dbac;}.cls-18,.cls-28,.cls-97{fill:#b9d1ef;}.cls-19,.cls-23,.cls-24,.cls-25,.cls-28,.cls-29,.cls-31,.cls-33,.cls-34,.cls-36,.cls-44,.cls-45,.cls-47,.cls-51,.cls-52,.cls-53,.cls-57,.cls-58,.cls-59,.cls-61,.cls-96,.cls-97,.cls-98{stroke:#414042;}.cls-19,.cls-21,.cls-24,.cls-26,.cls-27,.cls-28,.cls-34,.cls-35,.cls-38,.cls-40,.cls-41,.cls-42,.cls-43,.cls-44,.cls-45,.cls-47,.cls-52,.cls-54,.cls-55,.cls-56,.cls-58,.cls-60,.cls-61,.cls-62,.cls-65,.cls-66,.cls-67,.cls-70,.cls-72,.cls-73,.cls-76,.cls-78,.cls-79,.cls-83,.cls-84,.cls-87,.cls-88,.cls-90,.cls-91{stroke-linecap:round;}.cls-19,.cls-21,.cls-24,.cls-29,.cls-33,.cls-34,.cls-35,.cls-36,.cls-46,.cls-48,.cls-50,.cls-51,.cls-54,.cls-55,.cls-56,.cls-65,.cls-66,.cls-67,.cls-68,.cls-73,.cls-75,.cls-79,.cls-85,.cls-86,.cls-90,.cls-91,.cls-93{stroke-miterlimit:10;}.cls-19,.cls-21,.cls-35,.cls-36,.cls-38,.cls-43,.cls-44,.cls-45,.cls-47,.cls-50,.cls-51,.cls-54,.cls-60,.cls-62,.cls-65,.cls-93,.cls-96,.cls-97{stroke-width:2px;}.cls-20{fill:#84c69f;}.cls-21{stroke:#414141;}.cls-22,.cls-85{fill:#c8dfae;}.cls-23,.cls-27,.cls-32,.cls-33,.cls-34,.cls-41,.cls-43,.cls-47,.cls-50,.cls-60,.cls-61,.cls-70,.cls-80,.cls-89{fill:#fff;}.cls-23,.cls-25,.cls-26,.cls-27,.cls-28,.cls-31,.cls-38,.cls-40,.cls-41,.cls-42,.cls-43,.cls-44,.cls-45,.cls-47,.cls-52,.cls-53,.cls-57,.cls-58,.cls-59,.cls-60,.cls-61,.cls-62,.cls-63,.cls-64,.cls-70,.cls-72,.cls-76,.cls-78,.cls-80,.cls-81,.cls-82,.cls-83,.cls-84,.cls-87,.cls-88,.cls-89,.cls-96,.cls-97,.cls-98{stroke-linejoin:round;}.cls-25,.cls-37,.cls-45,.cls-46,.cls-48{fill:url(#New_Pattern_2);}.cls-26,.cls-27,.cls-62,.cls-88,.cls-89,.cls-90{stroke:#4d4d4d;}.cls-30,.cls-59,.cls-73{fill:#fcc062;}.cls-31,.cls-36,.cls-98,.cls-99{fill:#722c36;}.cls-31,.cls-57,.cls-58,.cls-59,.cls-63{stroke-width:1.4px;}.cls-35,.cls-55,.cls-56{stroke:#00468b;}.cls-38,.cls-50,.cls-60,.cls-68,.cls-70,.cls-72,.cls-73,.cls-75,.cls-76,.cls-78,.cls-79,.cls-80,.cls-81,.cls-82,.cls-83,.cls-84,.cls-85,.cls-86,.cls-87{stroke:#333;}.cls-39{fill:#fbb03b;}.cls-40,.cls-41,.cls-43,.cls-63,.cls-64{stroke:#000;}.cls-42,.cls-72{fill:#8eb9db;}.cls-42{stroke:#8eb9db;}.cls-45,.cls-46{opacity:0.5;}.cls-46,.cls-48{stroke:url(#New_Pattern_3);}.cls-49{fill:url(#New_Pattern_3);}.cls-54,.cls-91{stroke:#024b87;}.cls-55,.cls-66,.cls-75,.cls-78,.cls-90,.cls-91{stroke-width:3px;}.cls-56{stroke-width:2.5px;}.cls-62,.cls-87,.cls-88{fill:#e6e7e8;}.cls-64{stroke-width:1.5px;}.cls-65,.cls-66,.cls-67{stroke:#b9d1ef;}.cls-68,.cls-70,.cls-72,.cls-73,.cls-76,.cls-79,.cls-80,.cls-81,.cls-82,.cls-83,.cls-84{stroke-width:1.4px;}.cls-69{fill:url(#New_Pattern_2-21);}.cls-71{fill:url(#New_Pattern_2-23);}.cls-74{fill:#333;}.cls-77{fill:url(#New_Pattern_2-25);}.cls-81{fill:url(#New_Pattern_2-27);}.cls-82{fill:url(#New_Pattern_2-29);}.cls-83{fill:url(#New_Pattern_2-31);}.cls-84{fill:url(#New_Pattern_2-33);}.cls-92{opacity:0.75;fill:url(#New_Gradient_Swatch);}.cls-93{stroke:#020202;}.cls-94{fill:url(#linear-gradient);}.cls-95{fill:url(#linear-gradient-2);}.cls-100{fill:#87c4b3;}.cls-101{fill:#193057;}.cls-102{fill:#00468b;}</style><clipPath id="clip-path"><circle class="cls-1" cx="4.5" cy="8" r="1"/></clipPath><clipPath id="clip-path-2"><rect class="cls-1" x="1.5" y="5" width="6" height="8"/></clipPath><clipPath id="clip-path-3"><circle class="cls-1" cx="1.5" cy="8" r="1"/></clipPath><clipPath id="clip-path-4"><rect class="cls-1" x="-1.5" y="5" width="6" height="8"/></clipPath><clipPath id="clip-path-5"><circle class="cls-1" cx="6" cy="4" r="1"/></clipPath><clipPath id="clip-path-6"><rect class="cls-1" x="3" y="1" width="6" height="8"/></clipPath><clipPath id="clip-path-7"><circle class="cls-1" cx="3" cy="4" r="1"/></clipPath><clipPath id="clip-path-8"><rect class="cls-1" y="1" width="6" height="8"/></clipPath><clipPath id="clip-path-9"><circle class="cls-1" cy="4" r="1"/></clipPath><clipPath id="clip-path-10"><rect class="cls-1" x="-3" y="1" width="6" height="8"/></clipPath><clipPath id="clip-path-11"><circle class="cls-1" cx="4.5" r="1"/></clipPath><clipPath id="clip-path-12"><rect class="cls-1" x="1.5" y="-3" width="6" height="8"/></clipPath><clipPath id="clip-path-13"><circle class="cls-1" cx="1.5" r="1"/></clipPath><clipPath id="clip-path-14"><rect class="cls-1" x="-1.5" y="-3" width="6" height="8"/></clipPath><pattern id="New_Pattern_2" data-name="New Pattern 2" width="6" height="8" patternTransform="translate(3 6)" patternUnits="userSpaceOnUse" viewBox="0 0 6 8"><rect class="cls-1" width="6" height="8"/><g class="cls-2"><g class="cls-3"><circle class="cls-4" cx="6" cy="5" r="1"/><circle class="cls-4" cx="3" cy="5" r="1"/></g></g><g class="cls-5"><g class="cls-6"><circle class="cls-4" cx="3" cy="5" r="1"/><circle class="cls-4" cy="5" r="1"/></g></g><g class="cls-7"><g class="cls-8"><circle class="cls-4" cx="6" cy="5" r="1"/><circle class="cls-4" cx="3" cy="5" r="1"/><circle class="cls-4" cx="4.5" cy="1" r="1"/></g></g><g class="cls-9"><g class="cls-10"><circle class="cls-4" cx="4.5" cy="9" r="1"/><circle class="cls-4" cx="1.5" cy="9" r="1"/><circle class="cls-4" cx="6" cy="5" r="1"/><circle class="cls-4" cx="3" cy="5" r="1"/><circle class="cls-4" cy="5" r="1"/><circle class="cls-4" cx="4.5" cy="1" r="1"/><circle class="cls-4" cx="1.5" cy="1" r="1"/></g></g><g class="cls-11"><g class="cls-12"><circle class="cls-4" cx="3" cy="5" r="1"/><circle class="cls-4" cy="5" r="1"/><circle class="cls-4" cx="1.5" cy="1" r="1"/></g></g><g class="cls-13"><g class="cls-14"><circle class="cls-4" cx="6" cy="5" r="1"/><circle class="cls-4" cx="3" cy="5" r="1"/><circle class="cls-4" cx="4.5" cy="1" r="1"/><circle class="cls-4" cx="1.5" cy="1" r="1"/></g></g><g class="cls-15"><g class="cls-16"><circle class="cls-4" cx="3" cy="5" r="1"/><circle class="cls-4" cy="5" r="1"/><circle class="cls-4" cx="4.5" cy="1" r="1"/><circle class="cls-4" cx="1.5" cy="1" r="1"/></g></g></pattern><pattern id="New_Pattern_3" data-name="New Pattern 3" width="8" height="8" patternTransform="translate(3 6)" patternUnits="userSpaceOnUse" viewBox="0 0 8 8"><rect class="cls-1" width="8" height="8"/><circle class="cls-4" cx="6" cy="8" r="1"/><circle class="cls-4" cx="2" cy="8" r="1"/><circle class="cls-4" cx="8" cy="4" r="1"/><circle class="cls-4" cx="4" cy="4" r="1"/><circle class="cls-4" cy="4" r="1"/><circle class="cls-4" cx="6" r="1"/><circle class="cls-4" cx="2" r="1"/></pattern><pattern id="New_Pattern_2-21" data-name="New Pattern 2" width="6" height="8" patternTransform="translate(-6.91 16.68) scale(0.43 0.53)" patternUnits="userSpaceOnUse" viewBox="0 0 6 8"><rect class="cls-1" width="6" height="8"/><g class="cls-2"><g class="cls-3"><circle class="cls-4" cx="6" cy="5" r="1"/><circle class="cls-4" cx="3" cy="5" r="1"/></g></g><g class="cls-5"><g class="cls-6"><circle class="cls-4" cx="3" cy="5" r="1"/><circle class="cls-4" cy="5" r="1"/></g></g><g class="cls-7"><g class="cls-8"><circle class="cls-4" cx="6" cy="5" r="1"/><circle class="cls-4" cx="3" cy="5" r="1"/><circle class="cls-4" cx="4.5" cy="1" r="1"/></g></g><g class="cls-9"><g class="cls-10"><circle class="cls-4" cx="4.5" cy="9" r="1"/><circle class="cls-4" cx="1.5" cy="9" r="1"/><circle class="cls-4" cx="6" cy="5" r="1"/><circle class="cls-4" cx="3" cy="5" r="1"/><circle class="cls-4" cy="5" r="1"/><circle class="cls-4" cx="4.5" cy="1" r="1"/><circle class="cls-4" cx="1.5" cy="1" r="1"/></g></g><g class="cls-11"><g class="cls-12"><circle class="cls-4" cx="3" cy="5" r="1"/><circle class="cls-4" cy="5" r="1"/><circle class="cls-4" cx="1.5" cy="1" r="1"/></g></g><g class="cls-13"><g class="cls-14"><circle class="cls-4" cx="6" cy="5" r="1"/><circle class="cls-4" cx="3" cy="5" r="1"/><circle class="cls-4" cx="4.5" cy="1" r="1"/><circle class="cls-4" cx="1.5" cy="1" r="1"/></g></g><g class="cls-15"><g class="cls-16"><circle class="cls-4" cx="3" cy="5" r="1"/><circle class="cls-4" cy="5" r="1"/><circle class="cls-4" cx="4.5" cy="1" r="1"/><circle class="cls-4" cx="1.5" cy="1" r="1"/></g></g></pattern><pattern id="New_Pattern_2-23" data-name="New Pattern 2" width="6" height="8" patternTransform="translate(-3.06 10.32) scale(0.59)" patternUnits="userSpaceOnUse" viewBox="0 0 6 8"><rect class="cls-1" width="6" height="8"/><g class="cls-2"><g class="cls-3"><circle class="cls-4" cx="6" cy="5" r="1"/><circle class="cls-4" cx="3" cy="5" r="1"/></g></g><g class="cls-5"><g class="cls-6"><circle class="cls-4" cx="3" cy="5" r="1"/><circle class="cls-4" cy="5" r="1"/></g></g><g class="cls-7"><g class="cls-8"><circle class="cls-4" cx="6" cy="5" r="1"/><circle class="cls-4" cx="3" cy="5" r="1"/><circle class="cls-4" cx="4.5" cy="1" r="1"/></g></g><g class="cls-9"><g class="cls-10"><circle class="cls-4" cx="4.5" cy="9" r="1"/><circle class="cls-4" cx="1.5" cy="9" r="1"/><circle class="cls-4" cx="6" cy="5" r="1"/><circle class="cls-4" cx="3" cy="5" r="1"/><circle class="cls-4" cy="5" r="1"/><circle class="cls-4" cx="4.5" cy="1" r="1"/><circle class="cls-4" cx="1.5" cy="1" r="1"/></g></g><g class="cls-11"><g class="cls-12"><circle class="cls-4" cx="3" cy="5" r="1"/><circle class="cls-4" cy="5" r="1"/><circle class="cls-4" cx="1.5" cy="1" r="1"/></g></g><g class="cls-13"><g class="cls-14"><circle class="cls-4" cx="6" cy="5" r="1"/><circle class="cls-4" cx="3" cy="5" r="1"/><circle class="cls-4" cx="4.5" cy="1" r="1"/><circle class="cls-4" cx="1.5" cy="1" r="1"/></g></g><g class="cls-15"><g class="cls-16"><circle class="cls-4" cx="3" cy="5" r="1"/><circle class="cls-4" cy="5" r="1"/><circle class="cls-4" cx="4.5" cy="1" r="1"/><circle class="cls-4" cx="1.5" cy="1" r="1"/></g></g></pattern><pattern id="New_Pattern_2-25" data-name="New Pattern 2" width="6" height="8" patternTransform="translate(-3.36 10.38) scale(0.68 0.64)" patternUnits="userSpaceOnUse" viewBox="0 0 6 8"><rect class="cls-1" width="6" height="8"/><g class="cls-2"><g class="cls-3"><circle class="cls-4" cx="6" cy="5" r="1"/><circle class="cls-4" cx="3" cy="5" r="1"/></g></g><g class="cls-5"><g class="cls-6"><circle class="cls-4" cx="3" cy="5" r="1"/><circle class="cls-4" cy="5" r="1"/></g></g><g class="cls-7"><g class="cls-8"><circle class="cls-4" cx="6" cy="5" r="1"/><circle class="cls-4" cx="3" cy="5" r="1"/><circle class="cls-4" cx="4.5" cy="1" r="1"/></g></g><g class="cls-9"><g class="cls-10"><circle class="cls-4" cx="4.5" cy="9" r="1"/><circle class="cls-4" cx="1.5" cy="9" r="1"/><circle class="cls-4" cx="6" cy="5" r="1"/><circle class="cls-4" cx="3" cy="5" r="1"/><circle class="cls-4" cy="5" r="1"/><circle class="cls-4" cx="4.5" cy="1" r="1"/><circle class="cls-4" cx="1.5" cy="1" r="1"/></g></g><g class="cls-11"><g class="cls-12"><circle class="cls-4" cx="3" cy="5" r="1"/><circle class="cls-4" cy="5" r="1"/><circle class="cls-4" cx="1.5" cy="1" r="1"/></g></g><g class="cls-13"><g class="cls-14"><circle class="cls-4" cx="6" cy="5" r="1"/><circle class="cls-4" cx="3" cy="5" r="1"/><circle class="cls-4" cx="4.5" cy="1" r="1"/><circle class="cls-4" cx="1.5" cy="1" r="1"/></g></g><g class="cls-15"><g class="cls-16"><circle class="cls-4" cx="3" cy="5" r="1"/><circle class="cls-4" cy="5" r="1"/><circle class="cls-4" cx="4.5" cy="1" r="1"/><circle class="cls-4" cx="1.5" cy="1" r="1"/></g></g></pattern><pattern id="New_Pattern_2-27" data-name="New Pattern 2" width="6" height="8" patternTransform="translate(-10.25 13.67) scale(0.44 0.51)" patternUnits="userSpaceOnUse" viewBox="0 0 6 8"><rect class="cls-1" width="6" height="8"/><g class="cls-2"><g class="cls-3"><circle class="cls-4" cx="6" cy="5" r="1"/><circle class="cls-4" cx="3" cy="5" r="1"/></g></g><g class="cls-5"><g class="cls-6"><circle class="cls-4" cx="3" cy="5" r="1"/><circle class="cls-4" cy="5" r="1"/></g></g><g class="cls-7"><g class="cls-8"><circle class="cls-4" cx="6" cy="5" r="1"/><circle class="cls-4" cx="3" cy="5" r="1"/><circle class="cls-4" cx="4.5" cy="1" r="1"/></g></g><g class="cls-9"><g class="cls-10"><circle class="cls-4" cx="4.5" cy="9" r="1"/><circle class="cls-4" cx="1.5" cy="9" r="1"/><circle class="cls-4" cx="6" cy="5" r="1"/><circle class="cls-4" cx="3" cy="5" r="1"/><circle class="cls-4" cy="5" r="1"/><circle class="cls-4" cx="4.5" cy="1" r="1"/><circle class="cls-4" cx="1.5" cy="1" r="1"/></g></g><g class="cls-11"><g class="cls-12"><circle class="cls-4" cx="3" cy="5" r="1"/><circle class="cls-4" cy="5" r="1"/><circle class="cls-4" cx="1.5" cy="1" r="1"/></g></g><g class="cls-13"><g class="cls-14"><circle class="cls-4" cx="6" cy="5" r="1"/><circle class="cls-4" cx="3" cy="5" r="1"/><circle class="cls-4" cx="4.5" cy="1" r="1"/><circle class="cls-4" cx="1.5" cy="1" r="1"/></g></g><g class="cls-15"><g class="cls-16"><circle class="cls-4" cx="3" cy="5" r="1"/><circle class="cls-4" cy="5" r="1"/><circle class="cls-4" cx="4.5" cy="1" r="1"/><circle class="cls-4" cx="1.5" cy="1" r="1"/></g></g></pattern><pattern id="New_Pattern_2-29" data-name="New Pattern 2" width="6" height="8" patternTransform="translate(-9.66 15.41) scale(0.44 0.55)" patternUnits="userSpaceOnUse" viewBox="0 0 6 8"><rect class="cls-1" width="6" height="8"/><g class="cls-2"><g class="cls-3"><circle class="cls-4" cx="6" cy="5" r="1"/><circle class="cls-4" cx="3" cy="5" r="1"/></g></g><g class="cls-5"><g class="cls-6"><circle class="cls-4" cx="3" cy="5" r="1"/><circle class="cls-4" cy="5" r="1"/></g></g><g class="cls-7"><g class="cls-8"><circle class="cls-4" cx="6" cy="5" r="1"/><circle class="cls-4" cx="3" cy="5" r="1"/><circle class="cls-4" cx="4.5" cy="1" r="1"/></g></g><g class="cls-9"><g class="cls-10"><circle class="cls-4" cx="4.5" cy="9" r="1"/><circle class="cls-4" cx="1.5" cy="9" r="1"/><circle class="cls-4" cx="6" cy="5" r="1"/><circle class="cls-4" cx="3" cy="5" r="1"/><circle class="cls-4" cy="5" r="1"/><circle class="cls-4" cx="4.5" cy="1" r="1"/><circle class="cls-4" cx="1.5" cy="1" r="1"/></g></g><g class="cls-11"><g class="cls-12"><circle class="cls-4" cx="3" cy="5" r="1"/><circle class="cls-4" cy="5" r="1"/><circle class="cls-4" cx="1.5" cy="1" r="1"/></g></g><g class="cls-13"><g class="cls-14"><circle class="cls-4" cx="6" cy="5" r="1"/><circle class="cls-4" cx="3" cy="5" r="1"/><circle class="cls-4" cx="4.5" cy="1" r="1"/><circle class="cls-4" cx="1.5" cy="1" r="1"/></g></g><g class="cls-15"><g class="cls-16"><circle class="cls-4" cx="3" cy="5" r="1"/><circle class="cls-4" cy="5" r="1"/><circle class="cls-4" cx="4.5" cy="1" r="1"/><circle class="cls-4" cx="1.5" cy="1" r="1"/></g></g></pattern><pattern id="New_Pattern_2-31" data-name="New Pattern 2" width="6" height="8" patternTransform="translate(-5.07 7.2) scale(0.65)" patternUnits="userSpaceOnUse" viewBox="0 0 6 8"><rect class="cls-1" width="6" height="8"/><g class="cls-2"><g class="cls-3"><circle class="cls-4" cx="6" cy="5" r="1"/><circle class="cls-4" cx="3" cy="5" r="1"/></g></g><g class="cls-5"><g class="cls-6"><circle class="cls-4" cx="3" cy="5" r="1"/><circle class="cls-4" cy="5" r="1"/></g></g><g class="cls-7"><g class="cls-8"><circle class="cls-4" cx="6" cy="5" r="1"/><circle class="cls-4" cx="3" cy="5" r="1"/><circle class="cls-4" cx="4.5" cy="1" r="1"/></g></g><g class="cls-9"><g class="cls-10"><circle class="cls-4" cx="4.5" cy="9" r="1"/><circle class="cls-4" cx="1.5" cy="9" r="1"/><circle class="cls-4" cx="6" cy="5" r="1"/><circle class="cls-4" cx="3" cy="5" r="1"/><circle class="cls-4" cy="5" r="1"/><circle class="cls-4" cx="4.5" cy="1" r="1"/><circle class="cls-4" cx="1.5" cy="1" r="1"/></g></g><g class="cls-11"><g class="cls-12"><circle class="cls-4" cx="3" cy="5" r="1"/><circle class="cls-4" cy="5" r="1"/><circle class="cls-4" cx="1.5" cy="1" r="1"/></g></g><g class="cls-13"><g class="cls-14"><circle class="cls-4" cx="6" cy="5" r="1"/><circle class="cls-4" cx="3" cy="5" r="1"/><circle class="cls-4" cx="4.5" cy="1" r="1"/><circle class="cls-4" cx="1.5" cy="1" r="1"/></g></g><g class="cls-15"><g class="cls-16"><circle class="cls-4" cx="3" cy="5" r="1"/><circle class="cls-4" cy="5" r="1"/><circle class="cls-4" cx="4.5" cy="1" r="1"/><circle class="cls-4" cx="1.5" cy="1" r="1"/></g></g></pattern><pattern id="New_Pattern_2-33" data-name="New Pattern 2" width="6" height="8" patternTransform="translate(20.46 7.2) scale(0.65)" patternUnits="userSpaceOnUse" viewBox="0 0 6 8"><rect class="cls-1" width="6" height="8"/><g class="cls-2"><g class="cls-3"><circle class="cls-4" cx="6" cy="5" r="1"/><circle class="cls-4" cx="3" cy="5" r="1"/></g></g><g class="cls-5"><g class="cls-6"><circle class="cls-4" cx="3" cy="5" r="1"/><circle class="cls-4" cy="5" r="1"/></g></g><g class="cls-7"><g class="cls-8"><circle class="cls-4" cx="6" cy="5" r="1"/><circle class="cls-4" cx="3" cy="5" r="1"/><circle class="cls-4" cx="4.5" cy="1" r="1"/></g></g><g class="cls-9"><g class="cls-10"><circle class="cls-4" cx="4.5" cy="9" r="1"/><circle class="cls-4" cx="1.5" cy="9" r="1"/><circle class="cls-4" cx="6" cy="5" r="1"/><circle class="cls-4" cx="3" cy="5" r="1"/><circle class="cls-4" cy="5" r="1"/><circle class="cls-4" cx="4.5" cy="1" r="1"/><circle class="cls-4" cx="1.5" cy="1" r="1"/></g></g><g class="cls-11"><g class="cls-12"><circle class="cls-4" cx="3" cy="5" r="1"/><circle class="cls-4" cy="5" r="1"/><circle class="cls-4" cx="1.5" cy="1" r="1"/></g></g><g class="cls-13"><g class="cls-14"><circle class="cls-4" cx="6" cy="5" r="1"/><circle class="cls-4" cx="3" cy="5" r="1"/><circle class="cls-4" cx="4.5" cy="1" r="1"/><circle class="cls-4" cx="1.5" cy="1" r="1"/></g></g><g class="cls-15"><g class="cls-16"><circle class="cls-4" cx="3" cy="5" r="1"/><circle class="cls-4" cy="5" r="1"/><circle class="cls-4" cx="4.5" cy="1" r="1"/><circle class="cls-4" cx="1.5" cy="1" r="1"/></g></g></pattern><linearGradient id="New_Gradient_Swatch" x1="923.9" y1="457.86" x2="927.9" y2="325.97" gradientUnits="userSpaceOnUse"><stop offset="0.17" stop-color="#1b1464"/><stop offset="0.66" stop-color="#f25b45"/><stop offset="0.7" stop-color="#f46d43"/><stop offset="0.78" stop-color="#f78a3f"/><stop offset="0.85" stop-color="#f99f3d"/><stop offset="0.93" stop-color="#fbac3b"/><stop offset="1" stop-color="#fbb03b"/></linearGradient><linearGradient id="linear-gradient" y1="262.5" x2="26" y2="262.5" gradientUnits="userSpaceOnUse"><stop offset="0.69" stop-color="#fff"/><stop offset="0.72" stop-color="#fff" stop-opacity="0.98"/><stop offset="0.76" stop-color="#fff" stop-opacity="0.93"/><stop offset="0.8" stop-color="#fff" stop-opacity="0.84"/><stop offset="0.84" stop-color="#fff" stop-opacity="0.71"/><stop offset="0.89" stop-color="#fff" stop-opacity="0.55"/><stop offset="0.93" stop-color="#fff" stop-opacity="0.35"/><stop offset="0.98" stop-color="#fff" stop-opacity="0.12"/><stop offset="1" stop-color="#fff" stop-opacity="0"/></linearGradient><linearGradient id="linear-gradient-2" x1="1366" y1="262.5" x2="1392" y2="262.5" gradientTransform="matrix(1, 0, 0, -1, -92, 525)" xlink:href="#linear-gradient"/></defs><title>homeprocess</title><g id="Layer_2" data-name="Layer 2"><g id="Home_Page" data-name="Home Page"><path class="cls-17" d="M1230.8,298.94c8.83-2.3,30-6.39,30.14-6.42,8.47-1.5,17.44-2.89,26.78-4.18l.25,0c1.58-.22,3.88-.43,5.48-.64l-.17,28.85h-32.72l-77-.67"/><path class="cls-18" d="M232.68,42.06H229.3A17.57,17.57,0,0,0,195,36.74a11.71,11.71,0,1,0-3.52,22.88h41.21A8.36,8.36,0,0,0,241,51.29v-.9A8.36,8.36,0,0,0,232.68,42.06Z"/><path class="cls-18" d="M487.21,157.26h-3.38a17.57,17.57,0,0,0-34.31-5.31A11.71,11.71,0,1,0,446,174.83h41.21a8.36,8.36,0,0,0,8.33-8.33v-.9A8.36,8.36,0,0,0,487.21,157.26Z"/><path class="cls-18" d="M1001,180.76s-7.65-1.77-7.06-10.6,7.06-10,7.06-10,7.65-2.35,11.19,1.77c0,0,5.3-10,14.72-2.35,0,0,4.1-9.42,14.72-9.42,11.19,0,14.72,10,14.72,10s9.42-5.3,12.36,3.53c0,0,7.06-1.18,8.24,3.53,0,0,2.94-5.3,8.24-5.3s8.24,3.53,8.24,7.06c0,0,5.3-1.77,7.65-.59a5.66,5.66,0,0,1,3.53,5.3c0,2.35-1.18,6.48-3.53,7.65S1001,180.76,1001,180.76Z"/><line class="cls-19" x1="1017.48" y1="181.93" x2="1020.42" y2="181.93"/><line class="cls-19" x1="1024.54" y1="181.93" x2="1031.02" y2="181.93"/><line class="cls-19" x1="1034.55" y1="181.93" x2="1066.93" y2="181.93"/><line class="cls-19" x1="1070.47" y1="181.93" x2="1073.69" y2="181.93"/><path class="cls-19" d="M1060.45,186.64h8.24"/><line class="cls-19" x1="865.46" y1="283.43" x2="871.94" y2="283.43"/><line class="cls-19" x1="875.47" y1="283.43" x2="907.85" y2="283.43"/><line class="cls-19" x1="455.95" y1="176.17" x2="458.89" y2="176.17"/><line class="cls-19" x1="187.99" y1="60.25" x2="198.47" y2="60.25"/><line class="cls-19" x1="204.65" y1="60.25" x2="228.85" y2="60.25"/><line class="cls-19" x1="210.39" y1="65.47" x2="213.33" y2="65.47"/><line class="cls-19" x1="216.75" y1="65.47" x2="233.24" y2="65.47"/><line class="cls-20" x1="1234.92" y1="314.49" x2="1234.92" y2="280.62"/><path class="cls-20" d="M1254.21,315.6"/><line class="cls-19" x1="464.22" y1="176.17" x2="488.41" y2="176.17"/><path class="cls-18" d="M1154,43.12h-3.38a17.57,17.57,0,0,0-34.31-5.31,11.71,11.71,0,1,0-3.52,22.88H1154a8.36,8.36,0,0,0,8.33-8.33v-.9A8.36,8.36,0,0,0,1154,43.12Z"/><line class="cls-21" x1="1109.29" y1="61.31" x2="1119.76" y2="61.31"/><line class="cls-21" x1="1125.94" y1="61.31" x2="1150.14" y2="61.31"/><line class="cls-21" x1="1131.68" y1="66.53" x2="1134.63" y2="66.53"/><line class="cls-21" x1="1138.04" y1="66.53" x2="1154.53" y2="66.53"/><path class="cls-22" d="M325.81,339.09c-7.9-2.3-10.11-2.26-10.27-2.29-7.57-1.5-15.59-2.89-23.94-4.18l-.22,0c-92-14.18-282.87-16.07-282.87-16.07v44.28H291.72l17.66.17v-4.84l8.47.32"/><polygon class="cls-23" points="95.05 323.28 95.05 361.41 58.74 361.41 58.74 323.42 95.05 323.28"/><polygon class="cls-23" points="13.34 323.43 58.93 323.53 77.06 300.21 31.33 300.11 13.73 322.86 13.34 323.43"/><polygon class="cls-23" points="58.81 323.28 58.81 361.41 14.05 361.41 14.05 323.42 58.81 323.28"/><polygon class="cls-23" points="76.93 300.3 58.81 323.28 95.05 323.28 76.93 300.3"/><path class="cls-24" d="M38.14,324.14"/><path class="cls-24" d="M38.14,324.14"/><polygon class="cls-25" points="13.34 323.43 58.93 323.53 77.06 300.21 31.33 300.11 13.73 322.86 13.34 323.43"/><rect class="cls-18" x="42" y="330.05" width="6.63" height="14.59" transform="translate(90.63 674.69) rotate(-180)"/><g id="window"><polyline class="cls-26" points="39.72 345.65 39.72 330.06 48.62 330.06 48.62 348.52 39.01 348.52"/><line class="cls-26" x1="45.06" y1="345.65" x2="37.22" y2="345.65"/></g><line class="cls-27" x1="48.5" y1="336.53" x2="40.1" y2="336.53"/><line class="cls-27" x1="43.84" y1="336.53" x2="43.84" y2="330.01"/><path class="cls-28" d="M70.61,318.94a6.56,6.56,0,0,1,13.12,0Z"/><rect class="cls-18" x="68.05" y="329.34" width="22.03" height="23.54" transform="translate(158.13 682.23) rotate(-180)"/><line class="cls-29" x1="83.54" y1="329.51" x2="83.54" y2="354.92"/><line class="cls-29" x1="72.63" y1="329.51" x2="72.63" y2="351.14"/><path class="cls-30" d="M72.67,329.79H66.53L66,353.95h6.62s-2.45-10.3-5.29-15C67.34,339,72,339.74,72.67,329.79Z"/><path class="cls-30" d="M83.77,329.79h6.14l.53,24.16H83.81s2.45-10.3,5.29-15C89.1,339,84.48,339.74,83.77,329.79Z"/><rect class="cls-24" x="65.92" y="329.51" width="24.13" height="26.24"/><rect class="cls-18" x="26" y="330.05" width="6.63" height="14.59" transform="translate(58.63 674.69) rotate(-180)"/><g id="window-2" data-name="window"><polyline class="cls-26" points="23.72 345.65 23.72 330.06 32.62 330.06 32.62 348.52 23 348.52"/><line class="cls-26" x1="29.06" y1="345.65" x2="21.22" y2="345.65"/></g><line class="cls-27" x1="32.5" y1="336.53" x2="24.1" y2="336.53"/><line class="cls-27" x1="27.84" y1="336.53" x2="27.84" y2="330.01"/><path class="cls-31" d="M418.49,355.06c.3-.76-39.35-82.78-39.35-82.78l-38.89,83.38"/><polygon class="cls-32" points="374.58 281.52 408.39 355.72 339.92 355.72 374.58 281.52"/><path class="cls-33" d="M1235.94,300.47h-8.07a.54.54,0,0,1-.52-.67l.84-3.34,2.36-9.41.75-3a.54.54,0,0,1,1,0l4.12,15.74A.54.54,0,0,1,1235.94,300.47Z"/><line class="cls-34" x1="1231.9" y1="302.28" x2="1231.9" y2="304.96"/><line class="cls-24" x1="1229.33" y1="291.88" x2="1230.89" y2="291.88"/><line class="cls-24" x1="1231.56" y1="296.46" x2="1228.18" y2="296.46"/><rect class="cls-18" x="370.29" y="307.18" width="7.89" height="14.89"/><rect class="cls-18" x="370.29" y="348.32" width="7.89" height="3.58"/><rect class="cls-18" x="383.97" y="348.32" width="6.57" height="3.58"/><rect class="cls-18" x="383.97" y="327.71" width="6.57" height="18.05"/><polygon class="cls-18" points="384.42 324.42 384.42 311.39 389.64 324.42 384.42 324.42"/><polygon class="cls-18" points="366.6 322.6 366.6 309.57 361.38 322.6 366.6 322.6"/><rect class="cls-18" x="370.29" y="327.54" width="7.89" height="15.95"/><line class="cls-35" x1="496.81" y1="349.33" x2="514.49" y2="349.33"/><path class="cls-36" d="M579.29,342.49c-2.91-1.11-9.92-.43-9.92-.43-32.09,5-43.65,28.72-43.65,28.72h21.9c0-.91-5.47-5.47-5.47-5.47C564.83,341.14,579.29,342.49,579.29,342.49Z"/><rect class="cls-37" x="595.81" y="315.43" width="9.44" height="68.43"/><path class="cls-38" d="M326.28,148.67"/><circle class="cls-39" cx="930.21" cy="297.47" r="36.58"/><polyline class="cls-40" points="1189.42 231.1 1183.12 231.1 1184.57 235.46 1258.65 235.46 1260.58 231.1 1197.16 231.1"/><line class="cls-40" x1="1260.58" y1="249.61" x2="1182.64" y2="249.61"/><line class="cls-40" x1="1199.58" y1="246.89" x2="1262.07" y2="246.89"/><path class="cls-41" d="M1178.28,242.89l5.81,7.08v65.32h23.72V278.15a13.79,13.79,0,0,1,13.56-12.94c7,0,12.83,5.9,13.56,12.94v36.77l-26.71.37h50.44V250l5.81-7.08Z"/><line class="cls-40" x1="1234.92" y1="315.83" x2="1234.92" y2="280.62"/><path class="cls-40" d="M1203.62,310.91c0-4.57,0-10.7,0-16.39"/><path class="cls-40" d="M1203.57,293.61"/><path class="cls-40" d="M1203.57,288.59c0,1.28,0,2.62,0,4"/><path class="cls-40" d="M1203.57,288.59"/><path class="cls-40" d="M1204.17,275.5a15.84,15.84,0,0,0-.52,3.6c0,1.53-.07,4.22-.08,7.49"/><path class="cls-40" d="M1206.56,270.36a18.18,18.18,0,0,1,13.58-7.64"/><path class="cls-40" d="M1223.88,262.85q-.85-.12-1.72-.16"/><path class="cls-40" d="M1224.36,262.93"/><path class="cls-40" d="M1239.23,296.42c0-7.07,0-14,0-17.33-.08-7.66-6.26-14.18-13.76-15.94"/><path class="cls-40" d="M1239.23,297.37"/><path class="cls-40" d="M1239.23,298.93"/><path class="cls-40" d="M1239.2,315.29s0-7,0-16.35"/><line class="cls-40" x1="1192.32" y1="275.19" x2="1183.61" y2="275.19"/><line class="cls-40" x1="1196.14" y1="275.19" x2="1194.2" y2="275.19"/><line class="cls-40" x1="1195.65" y1="293.32" x2="1188.39" y2="293.32"/><line class="cls-40" x1="1187" y1="293.31" x2="1184.57" y2="293.31"/><line class="cls-40" x1="1194.74" y1="281.02" x2="1184.57" y2="281.02"/><line class="cls-40" x1="1194.74" y1="285.13" x2="1184.09" y2="285.13"/><line class="cls-40" x1="1194.74" y1="304.05" x2="1182.63" y2="304.05"/><line class="cls-40" x1="1192.81" y1="306.22" x2="1180.7" y2="306.22"/><line class="cls-40" x1="1184.57" y1="235.46" x2="1184.57" y2="244.17"/><line class="cls-40" x1="1258.65" y1="235.46" x2="1258.65" y2="244.17"/><line class="cls-40" x1="1184.57" y1="246.89" x2="1194.26" y2="246.89"/><line class="cls-40" x1="1192.32" y1="260.34" x2="1182.15" y2="260.34"/><line class="cls-40" x1="1195.23" y1="264.45" x2="1184.57" y2="264.45"/><line class="cls-40" x1="1192.8" y1="253.97" x2="1184.09" y2="253.97"/><line class="cls-40" x1="1195.71" y1="253.97" x2="1209.29" y2="253.97"/><line class="cls-40" x1="1261.91" y1="276.83" x2="1250.42" y2="276.83"/><line class="cls-40" x1="1249.45" y1="275.19" x2="1258.16" y2="275.19"/><line class="cls-40" x1="1245.63" y1="275.19" x2="1247.57" y2="275.19"/><line class="cls-40" x1="1246.12" y1="293.32" x2="1253.38" y2="293.32"/><line class="cls-40" x1="1254.77" y1="293.31" x2="1257.19" y2="293.31"/><line class="cls-40" x1="1247.03" y1="281.02" x2="1257.19" y2="281.02"/><line class="cls-40" x1="1247.03" y1="285.13" x2="1257.68" y2="285.13"/><line class="cls-40" x1="1247.03" y1="304.05" x2="1259.14" y2="304.05"/><line class="cls-40" x1="1248.95" y1="306.22" x2="1261.07" y2="306.22"/><line class="cls-40" x1="1248.48" y1="260.34" x2="1258.65" y2="260.34"/><line class="cls-40" x1="1247.51" y1="264.45" x2="1258.16" y2="264.45"/><line class="cls-40" x1="1248.96" y1="253.97" x2="1257.68" y2="253.97"/><line class="cls-40" x1="1244.23" y1="253.97" x2="1246.17" y2="253.97"/><path class="cls-42" d="M1204.91,287.17"/><path class="cls-42" d="M1201,287.17"/><path class="cls-42" d="M1201,293.11"/><path class="cls-42" d="M1218.84,311.68"/><rect class="cls-40" x="1186.45" y="237.63" width="8.77" height="5.33"/><line class="cls-40" x1="1190.91" y1="240.46" x2="1183.12" y2="240.46"/><rect class="cls-40" x="1247.03" y="237.63" width="9.16" height="5.33" transform="translate(2503.22 480.6) rotate(180)"/><line class="cls-40" x1="1250.95" y1="240.14" x2="1260.1" y2="240.14"/><path class="cls-43" d="M532.49,396.2"/><rect class="cls-18" x="778.91" y="319.9" width="5.67" height="12.76"/><rect class="cls-18" x="778.91" y="350.42" width="5.67" height="22.07"/><rect class="cls-44" x="595.9" y="314.02" width="47.99" height="69.8"/><polyline class="cls-44" points="642.41 299.86 694.25 254.24 717.76 254.24 754.55 289.07"/><path class="cls-45" d="M642.13,300.13,694,254.52H718.4l36.53,35s-1.66,4.94-5.87,4.89v5.26"/><path class="cls-46" d="M645.79,186.89,616,250.06h63.15l-29.76-63.17A2,2,0,0,0,645.79,186.89Z"/><rect class="cls-18" x="711.55" y="319.9" width="5.67" height="12.76"/><rect class="cls-18" x="734.75" y="319.9" width="5.67" height="12.76"/><rect class="cls-18" x="734.75" y="350.42" width="5.67" height="22.07"/><rect class="cls-18" x="712.47" y="350.42" width="5.67" height="22.07"/><rect class="cls-18" x="688.89" y="350.42" width="5.67" height="22.07"/><rect class="cls-18" x="688.13" y="319.9" width="5.67" height="12.76"/><path class="cls-45" d="M591.69,294.38V314h56.41V294.38h0a6.29,6.29,0,0,1-5.65-3.52L618.69,251.5a1.42,1.42,0,0,0-2.65,0l-19.25,39.63a5.62,5.62,0,0,1-5.09,3.24Z"/><path class="cls-44" d="M591.69,294.38V314h56.41V294.38h0a6.29,6.29,0,0,1-5.65-3.52L618.69,251.5a1.42,1.42,0,0,0-2.65,0l-19.25,39.63a5.62,5.62,0,0,1-5.09,3.24Z"/><rect class="cls-47" x="612.24" y="263.73" width="70.73" height="25.52"/><rect class="cls-47" x="608.87" y="250.22" width="77.46" height="13.51"/><path class="cls-44" d="M645.79,186.89,616,250.06h63.15l-29.76-63.17A2,2,0,0,0,645.79,186.89Z"/><path class="cls-47" d="M648.15,214.64l-7.23,11a.35.35,0,0,0,.29.54h14.45a.35.35,0,0,0,.29-.54l-7.23-11A.35.35,0,0,0,648.15,214.64Z"/><rect class="cls-47" x="643.39" y="226.2" width="10.1" height="14.26"/><line class="cls-44" x1="678.62" y1="299.77" x2="749.77" y2="299.77"/><path class="cls-47" d="M713.69,266.31l-7.23,11a.35.35,0,0,0,.29.54h14.45a.35.35,0,0,0,.29-.54l-7.23-11A.35.35,0,0,0,713.69,266.31Z"/><rect class="cls-47" x="708.93" y="277.87" width="10.1" height="14.26"/><path class="cls-45" d="M705.86,202.43l-11,28a.35.35,0,0,0,.33.48h22a.35.35,0,0,0,.33-.48l-11-28A.35.35,0,0,0,705.86,202.43Z"/><rect class="cls-45" x="696.51" y="231.62" width="19.37" height="22.52"/><path class="cls-44" d="M705.86,202.43l-11,28a.35.35,0,0,0,.33.48h22a.35.35,0,0,0,.33-.48l-11-28A.35.35,0,0,0,705.86,202.43Z"/><rect class="cls-44" x="696.51" y="231.62" width="19.37" height="22.52"/><polyline class="cls-44" points="696.66 332.64 696.66 319.65 688.44 319.65 688.44 335.04 697.32 335.04"/><line class="cls-44" x1="691.73" y1="332.64" x2="698.96" y2="332.64"/><polyline class="cls-44" points="720.24 332.64 720.24 319.65 712.01 319.65 712.01 335.04 720.89 335.04"/><line class="cls-44" x1="715.3" y1="332.64" x2="722.54" y2="332.64"/><polyline class="cls-44" points="742.97 332.64 742.97 319.65 734.75 319.65 734.75 335.04 743.63 335.04"/><line class="cls-44" x1="738.04" y1="332.64" x2="745.27" y2="332.64"/><polyline class="cls-44" points="696.66 372.42 696.66 350.42 688.44 350.42 688.44 374.82 697.32 374.82"/><line class="cls-44" x1="691.73" y1="372.42" x2="698.96" y2="372.42"/><polyline class="cls-44" points="720.24 372.42 720.24 350.42 712.01 350.42 712.01 374.82 720.89 374.82"/><line class="cls-44" x1="715.3" y1="372.42" x2="722.54" y2="372.42"/><polyline class="cls-44" points="742.97 372.42 742.97 350.42 734.75 350.42 734.75 374.82 743.63 374.82"/><line class="cls-44" x1="738.04" y1="372.42" x2="745.27" y2="372.42"/><line class="cls-44" x1="748.18" y1="282.55" x2="757.27" y2="282.55"/><rect class="cls-44" x="753.27" y="314.02" width="47.99" height="69.8"/><path class="cls-45" d="M749.06,294.38V314h56.41V294.38h0a6.29,6.29,0,0,1-5.65-3.52L777.88,246a1.42,1.42,0,0,0-2.65,0l-21.08,45.11a5.62,5.62,0,0,1-5.09,3.24Z"/><path class="cls-44" d="M749.06,294.38V314h56.41V294.38h0a6.29,6.29,0,0,1-5.65-3.52L777.88,246a1.42,1.42,0,0,0-2.65,0l-21.08,45.11a5.62,5.62,0,0,1-5.09,3.24Z"/><polyline class="cls-44" points="787.59 332.64 787.59 319.65 779.37 319.65 779.37 335.04 788.25 335.04"/><line class="cls-44" x1="782.66" y1="332.64" x2="789.9" y2="332.64"/><polyline class="cls-44" points="787.59 372.42 787.59 350.42 779.37 350.42 779.37 374.82 788.25 374.82"/><line class="cls-44" x1="782.66" y1="372.42" x2="789.9" y2="372.42"/><circle class="cls-29" cx="656.23" cy="322.02"/><polyline class="cls-47" points="601.16 332.64 601.16 319.65 595.78 319.65 595.78 335.04 601.82 335.04"/><line class="cls-47" x1="596.23" y1="332.64" x2="603.47" y2="332.64"/><polyline class="cls-47" points="601.16 372.42 601.16 350.42 595.78 350.42 595.78 374.82 601.82 374.82"/><line class="cls-47" x1="596.23" y1="372.42" x2="603.47" y2="372.42"/><path class="cls-48" d="M645,190.2l24.44,59.86h9.69l-29.92-63.51C648.6,185.15,645.7,188.8,645,190.2Z"/><path class="cls-49" d="M702.7,207.54l8.5,23.4h6l-10.34-27.05C706.25,202.49,703.36,206.14,702.7,207.54Z"/><path class="cls-49" d="M710.46,231.26l.74,23.4h4.22l-.75-27.05C714,226.21,711.12,229.86,710.46,231.26Z"/><path class="cls-49" d="M772.37,249.27,791.07,293h9.09l-21.09-45.59C777.88,246,776.49,243.76,772.37,249.27Z"/><path class="cls-49" d="M796.12,296.09l.43,17.93H806l-.52-19.64C804.29,293,797.3,294.7,796.12,296.09Z"/><rect class="cls-50" x="617.24" y="290" width="60.73" height="93.82"/><rect class="cls-18" x="642.06" y="339.04" width="7.09" height="19.85"/><polyline class="cls-44" points="652.65 358.69 652.65 338.41 642.13 338.41 642.13 361.89 654.48 361.89"/><line class="cls-44" x1="646.76" y1="359.05" x2="656.02" y2="359.05"/><rect class="cls-18" x="642.06" y="300.05" width="7.09" height="14.89"/><polyline class="cls-44" points="652.65 314.39 652.65 300.13 642.13 300.13 642.13 317.02 653.5 317.02"/><line class="cls-44" x1="646.34" y1="314.4" x2="655.6" y2="314.4"/><line class="cls-51" x1="624.34" y1="327.19" x2="634.97" y2="327.19"/><line class="cls-51" x1="628.59" y1="329.82" x2="641.35" y2="329.82"/><line class="cls-51" x1="626.46" y1="332.65" x2="641.35" y2="332.65"/><line class="cls-51" x1="624.34" y1="329.82" x2="627.17" y2="329.82"/><line class="cls-51" x1="635.68" y1="327.18" x2="639.22" y2="327.18"/><line class="cls-51" x1="654.11" y1="372.56" x2="664.74" y2="372.56"/><line class="cls-51" x1="658.36" y1="375.19" x2="671.12" y2="375.19"/><line class="cls-51" x1="656.23" y1="378.02" x2="671.12" y2="378.02"/><line class="cls-51" x1="654.11" y1="375.19" x2="656.94" y2="375.19"/><line class="cls-51" x1="665.45" y1="372.55" x2="668.99" y2="372.55"/><path class="cls-52" d="M1291.58,316.68H1172.94c-15.72,0-28.58,3.86-28.58,8.58v6.09c0,1.07-3.69,4.15-10.14,4.15h-12c-12.91,0-18.44,2.21-18.44,6.37h0c0,4.72,1,8.58,16.72,8.58h173"/><path class="cls-51" d="M595.78,351.16c-11.16-11.41-26.4-9.1-26.4-9.1-32.09,5-43.65,28.72-43.65,28.72h21.9c0-.91-4.56-5.47-4.56-5.47H530.4"/><path class="cls-51" d="M577.74,342.49s-15.51,1.82-35.59,22.81"/><path class="cls-51" d="M553.86,329.44c-25.26,8.11-38.63,25.37-38.63,25.37v15.51h10"/><path class="cls-51" d="M595.53,326.52a89.21,89.21,0,0,0-41.67,2.92"/><polyline class="cls-51" points="501.09 352.52 503.63 352.52 516.14 352.52"/><line class="cls-51" x1="502.91" y1="372.14" x2="502.91" y2="352.98"/><path class="cls-29" d="M532.29,361.88c-.18-.23,13,.23,13.26,0"/><line class="cls-29" x1="534.4" y1="359.39" x2="548.01" y2="359.57"/><line class="cls-29" x1="537.01" y1="356.93" x2="550.69" y2="357.22"/><line class="cls-29" x1="540.01" y1="354.44" x2="553.45" y2="354.95"/><line class="cls-29" x1="543.56" y1="351.9" x2="556.67" y2="352.52"/><line class="cls-29" x1="546.29" y1="350.18" x2="559.23" y2="350.75"/><line class="cls-29" x1="549.69" y1="348.32" x2="561.94" y2="349.04"/><line class="cls-29" x1="553.8" y1="346.42" x2="564.83" y2="347.37"/><line class="cls-29" x1="558.67" y1="344.61" x2="567.64" y2="345.94"/><line class="cls-29" x1="564.14" y1="343.37" x2="570.28" y2="344.61"/><rect class="cls-23" x="506.17" y="344.68" width="5.73" height="5.73"/><path class="cls-53" d="M506.17,350.41"/><polygon class="cls-29" points="504.74 344.68 513.33 344.68 511.9 343.25 506.17 343.25 504.74 344.68"/><line class="cls-19" x1="119.69" y1="330.85" x2="119.83" y2="330.85"/><line class="cls-19" x1="119.69" y1="330.85" x2="119.69" y2="360.43"/><path class="cls-19" d="M103.24,330.81"/><path class="cls-19" d="M103.24,330.81"/><path class="cls-19" d="M95,330.79"/><path class="cls-19" d="M95,330.79"/><circle cx="71.64" cy="352.22" r="1.16" transform="translate(-242.87 178.22) rotate(-49.55)"/><path class="cls-33" d="M272,330.26h-7a.54.54,0,0,1-.53-.66l.74-3.21,2.09-9.09.61-2.63a.54.54,0,0,1,1,0l3.58,14.93A.54.54,0,0,1,272,330.26Z"/><line class="cls-34" x1="268.45" y1="332" x2="268.45" y2="334.59"/><line class="cls-24" x1="266.17" y1="321.96" x2="267.55" y2="321.96"/><line class="cls-24" x1="268.14" y1="326.39" x2="265.15" y2="326.39"/><path class="cls-33" d="M307.66,354.57H297.51a.54.54,0,0,1-.53-.65l1.08-5.16,2.87-13.65,1-4.84a.54.54,0,0,1,1.05,0l5.18,23.66A.54.54,0,0,1,307.66,354.57Z"/><line class="cls-34" x1="302.59" y1="357.19" x2="302.59" y2="361.08"/><line class="cls-24" x1="299.47" y1="342.11" x2="301.36" y2="342.11"/><line class="cls-24" x1="302.17" y1="348.76" x2="298.07" y2="348.76"/><line class="cls-24" x1="506.17" y1="341.72" x2="511.9" y2="341.72"/><line class="cls-54" x1="562.85" y1="363.08" x2="567.42" y2="363.08"/><line class="cls-54" x1="569.95" y1="363.08" x2="587.55" y2="363.08"/><line class="cls-35" x1="899.35" y1="375.5" x2="929.47" y2="375.5"/><line class="cls-35" x1="936.77" y1="375.5" x2="947.72" y2="375.5"/><line class="cls-35" x1="953.19" y1="375.5" x2="958.67" y2="375.5"/><line class="cls-35" x1="923.08" y1="357.8" x2="934.94" y2="357.8"/><line class="cls-35" x1="920.8" y1="364.8" x2="934.48" y2="364.8"/><line class="cls-35" x1="943.61" y1="364.8" x2="952.73" y2="364.8"/><line class="cls-54" x1="1143.33" y1="359.34" x2="1155.2" y2="359.34"/><line class="cls-54" x1="1175.27" y1="359.34" x2="1188.96" y2="359.34"/><line class="cls-54" x1="1198.08" y1="359.34" x2="1207.21" y2="359.34"/><line class="cls-55" x1="256.81" y1="418.31" x2="267.76" y2="418.31"/><line class="cls-55" x1="275.97" y1="418.31" x2="291.48" y2="418.31"/><line class="cls-55" x1="816.39" y1="493.28" x2="823.69" y2="493.28"/><line class="cls-55" x1="834.64" y1="493.28" x2="899.43" y2="493.28"/><line class="cls-55" x1="308.25" y1="480.09" x2="318.29" y2="480.09"/><line class="cls-55" x1="324.67" y1="480.09" x2="330.15" y2="480.09"/><line class="cls-55" x1="977.08" y1="473.19" x2="990.34" y2="473.19"/><line class="cls-55" x1="997.48" y1="473.19" x2="1000.55" y2="473.19"/><line class="cls-55" x1="921.13" y1="419.44" x2="932.99" y2="419.44"/><line class="cls-55" x1="939.38" y1="419.44" x2="942.12" y2="419.44"/><line class="cls-55" x1="1005.65" y1="473.19" x2="1008.71" y2="473.19"/><line class="cls-55" x1="915.63" y1="411.3" x2="927.49" y2="411.3"/><line class="cls-55" x1="933.88" y1="411.3" x2="936.62" y2="411.3"/><line class="cls-55" x1="941.18" y1="411.3" x2="943.92" y2="411.3"/><line class="cls-55" x1="944.93" y1="491.05" x2="969.42" y2="491.05"/><line class="cls-55" x1="974.52" y1="491.05" x2="977.59" y2="491.05"/><line class="cls-55" x1="982.69" y1="491.05" x2="1003.1" y2="491.05"/><line class="cls-55" x1="1008.2" y1="491.05" x2="1011.26" y2="491.05"/><line class="cls-55" x1="39.71" y1="431.28" x2="51.57" y2="431.28"/><line class="cls-55" x1="55.22" y1="431.28" x2="59.79" y2="431.28"/><line class="cls-55" x1="64.35" y1="431.28" x2="72.56" y2="431.28"/><line class="cls-55" x1="65.26" y1="441.32" x2="69.82" y2="441.32"/><line class="cls-55" x1="74.39" y1="441.32" x2="96.28" y2="441.32"/><line class="cls-55" x1="715.99" y1="451.86" x2="730.59" y2="451.86"/><line class="cls-55" x1="726.02" y1="460.98" x2="729.67" y2="460.98"/><line class="cls-55" x1="123.66" y1="431.28" x2="130.96" y2="431.28"/><line class="cls-54" x1="1012.79" y1="480.47" x2="1024.01" y2="480.47"/><line class="cls-54" x1="1027.08" y1="480.47" x2="1030.14" y2="480.47"/><line class="cls-54" x1="1032.18" y1="480.47" x2="1045.44" y2="480.47"/><line class="cls-55" x1="467.41" y1="474.39" x2="489.31" y2="474.39"/><line class="cls-55" x1="493.88" y1="474.39" x2="496.61" y2="474.39"/><line class="cls-55" x1="501.18" y1="474.39" x2="519.43" y2="474.39"/><line class="cls-55" x1="523.99" y1="474.39" x2="526.73" y2="474.39"/><line class="cls-55" x1="528.09" y1="467.38" x2="538.13" y2="467.38"/><line class="cls-55" x1="540.87" y1="467.38" x2="543.61" y2="467.38"/><line class="cls-55" x1="545.43" y1="467.38" x2="557.29" y2="467.38"/><line class="cls-55" x1="623.14" y1="498.33" x2="645.04" y2="498.33"/><line class="cls-55" x1="649.6" y1="498.33" x2="652.34" y2="498.33"/><line class="cls-55" x1="656.9" y1="498.33" x2="675.15" y2="498.33"/><line class="cls-35" x1="881.76" y1="384.29" x2="918.85" y2="384.29"/><line class="cls-35" x1="926.15" y1="384.29" x2="937.1" y2="384.29"/><line class="cls-35" x1="942.57" y1="384.29" x2="948.05" y2="384.29"/><line class="cls-35" x1="950.96" y1="384.29" x2="961.91" y2="384.29"/><line class="cls-56" x1="891.55" y1="391.83" x2="928.64" y2="391.83"/><line class="cls-56" x1="935.94" y1="391.83" x2="946.89" y2="391.83"/><line class="cls-56" x1="952.37" y1="391.83" x2="957.84" y2="391.83"/><line class="cls-56" x1="960.75" y1="391.83" x2="971.7" y2="391.83"/><line class="cls-55" x1="891.14" y1="401.26" x2="913.04" y2="401.26"/><line class="cls-55" x1="917.6" y1="401.26" x2="920.34" y2="401.26"/><line class="cls-55" x1="924.9" y1="401.26" x2="943.15" y2="401.26"/><line class="cls-55" x1="947.72" y1="401.26" x2="950.45" y2="401.26"/><line class="cls-55" x1="134.56" y1="494.32" x2="159.05" y2="494.32"/><line class="cls-55" x1="164.15" y1="494.32" x2="167.21" y2="494.32"/><line class="cls-55" x1="172.31" y1="494.32" x2="192.72" y2="494.32"/><line class="cls-55" x1="197.82" y1="494.32" x2="200.88" y2="494.32"/><line class="cls-55" x1="202.41" y1="486.48" x2="213.64" y2="486.48"/><line class="cls-19" x1="505.65" y1="361.81" x2="505.65" y2="371.07"/><path class="cls-44" d="M146.2,333.26"/><polyline class="cls-57" points="359.47 273.79 362.8 267.89 381.11 267.89 423.33 355.66 426.36 355.66 426.36 357.63 430.6 357.63 430.6 360.96 309.38 360.96 309.38 355.21 317.56 355.21 349.94 291.95"/><line class="cls-58" x1="421.67" y1="355.66" x2="317.85" y2="355.66"/><line class="cls-58" x1="368.41" y1="354.61" x2="353.38" y2="354.61"/><rect class="cls-57" x="384.3" y="327.71" width="7.67" height="17.89" transform="translate(776.27 673.3) rotate(-180)"/><rect class="cls-57" x="383.82" y="348.17" width="8.15" height="5.61" transform="translate(775.79 701.95) rotate(-180)"/><rect class="cls-57" x="370.99" y="327.71" width="9.39" height="17.89" transform="translate(751.36 673.3) rotate(-180)"/><rect class="cls-57" x="370.41" y="348.17" width="9.97" height="5.61" transform="translate(750.78 701.95) rotate(-180)"/><rect class="cls-59" x="355.05" y="327.71" width="12.04" height="26.07" transform="translate(722.13 681.49) rotate(-180)"/><line class="cls-57" x1="409.06" y1="355.66" x2="374.88" y2="281.43"/><polygon class="cls-57" points="384.42 324.42 384.42 307.75 391.09 324.42 384.42 324.42"/><polyline class="cls-58" points="380.38 322.33 380.38 306.26 370.29 306.26 370.29 321.15"/><polyline class="cls-58" points="366.88 321.17 366.88 305.44 366.63 305.35 357.63 324.15 382.2 324.15"/><line class="cls-58" x1="363.73" y1="322.28" x2="382.2" y2="322.28"/><circle class="cls-4" cx="363.99" cy="342.21" r="1.28"/><path class="cls-29" d="M599.2,413.16H794.86c12,0,21.77-3.23,21.77-7.19V392.06c0-4-9.8-7.19-21.77-7.19H604.12c-12,0-21.77,3.23-21.77,7.19v3.71c0,.9-2.95,4.64-7.86,4.64l-9,.23c-9.83,0-14,1.85-14,5.33h0c0,4,9.8,7.19,21.77,7.19H768.88"/><polygon class="cls-60" points="1176.75 327.76 1161.07 327.76 1168.91 291.92 1176.75 327.76"/><line class="cls-38" x1="1168.91" y1="309.04" x2="1168.91" y2="335.6"/><line class="cls-38" x1="1168.71" y1="317.06" x2="1167.29" y2="314.75"/><line class="cls-38" x1="1168.91" y1="321.81" x2="1172.04" y2="316.65"/><line class="cls-38" x1="1168.71" y1="325.14" x2="1165.58" y2="319.98"/><line class="cls-52" x1="1134.21" y1="335.49" x2="1208.71" y2="335.49"/><polygon class="cls-61" points="296.97 353.98 281.3 353.98 289.13 318.14 296.97 353.98"/><line class="cls-52" x1="289.13" y1="335.26" x2="289.13" y2="361.82"/><line class="cls-52" x1="288.93" y1="343.28" x2="287.51" y2="340.97"/><line class="cls-52" x1="289.13" y1="348.04" x2="292.26" y2="342.88"/><line class="cls-52" x1="288.93" y1="351.37" x2="285.8" y2="346.21"/><path class="cls-38" d="M840.15,347.8v-57c61.16,34.26,164.13,34.95,228.28.8a.57.57,0,0,1,.85.41V347.8"/><path class="cls-38" d="M801.5,310.88c18.41-4.89,34.33-14.19,38.65-20.07"/><line class="cls-38" x1="801.26" y1="322.8" x2="1144.86" y2="322.8"/><line class="cls-38" x1="801.47" y1="327.31" x2="1143.95" y2="327.31"/><line class="cls-38" x1="824.02" y1="302.26" x2="824.02" y2="322.8"/><line class="cls-38" x1="807.66" y1="309.25" x2="807.66" y2="322.8"/><path class="cls-38" d="M791.09,322.8"/><path class="cls-38" d="M791.09,312.79"/><line class="cls-38" x1="856.62" y1="300.13" x2="856.62" y2="321"/><line class="cls-38" x1="840.26" y1="307.21" x2="840.26" y2="317.22"/><line class="cls-38" x1="872.98" y1="305.65" x2="872.98" y2="321"/><line class="cls-38" x1="889.55" y1="310.8" x2="889.55" y2="320.82"/><line class="cls-38" x1="922.27" y1="315.66" x2="922.27" y2="321"/><line class="cls-38" x1="905.91" y1="314.91" x2="905.91" y2="322.85"/><line class="cls-38" x1="938.84" y1="317.22" x2="938.84" y2="321.05"/><line class="cls-38" x1="971.77" y1="317.79" x2="971.77" y2="322.23"/><line class="cls-38" x1="955.2" y1="317.22" x2="955.2" y2="322.23"/><line class="cls-38" x1="1004.48" y1="312.45" x2="1004.48" y2="322.89"/><line class="cls-38" x1="988.13" y1="315.81" x2="988.13" y2="322.47"/><line class="cls-38" x1="1021.06" y1="310.1" x2="1021.06" y2="322.23"/><line class="cls-38" x1="1053.77" y1="300.13" x2="1053.77" y2="322.22"/><line class="cls-38" x1="1037.41" y1="305.11" x2="1037.41" y2="322.22"/><path class="cls-38" d="M1069.67,347.8v-57c24,13.46,57.54,23.74,89.6,26.76"/><line class="cls-38" x1="1085.36" y1="299.35" x2="1085.36" y2="322.04"/><line class="cls-38" x1="1101.72" y1="304.86" x2="1101.72" y2="322.04"/><line class="cls-38" x1="1118.29" y1="309.55" x2="1118.29" y2="321.6"/><line class="cls-38" x1="1151" y1="316.44" x2="1151" y2="319.22"/><line class="cls-38" x1="1134.65" y1="314.12" x2="1134.65" y2="322.07"/><line class="cls-40" x1="1194.74" y1="295.62" x2="1184.57" y2="295.62"/><line class="cls-40" x1="1194.74" y1="299.73" x2="1184.09" y2="299.73"/><line class="cls-40" x1="1192.8" y1="268.56" x2="1184.09" y2="268.56"/><line class="cls-40" x1="1195.71" y1="268.56" x2="1193.77" y2="268.56"/><line class="cls-40" x1="1194.74" y1="256.85" x2="1184.09" y2="256.85"/><line class="cls-40" x1="1213.05" y1="253.97" x2="1241.22" y2="253.97"/><line class="cls-40" x1="1247.03" y1="267.34" x2="1257.19" y2="267.34"/><line class="cls-40" x1="1247.03" y1="272.36" x2="1257.68" y2="272.36"/><line class="cls-40" x1="1249.45" y1="288.88" x2="1258.16" y2="288.88"/><line class="cls-40" x1="1245.63" y1="288.88" x2="1247.57" y2="288.88"/><line class="cls-40" x1="1248.48" y1="295.93" x2="1258.65" y2="295.93"/><line class="cls-40" x1="1247.51" y1="300.04" x2="1258.16" y2="300.04"/><line class="cls-55" x1="808.66" y1="423.78" x2="818.7" y2="423.78"/><line class="cls-55" x1="825.08" y1="423.78" x2="830.56" y2="423.78"/><line class="cls-55" x1="818.7" y1="433.82" x2="825.08" y2="433.82"/><line class="cls-55" x1="829.65" y1="433.82" x2="835.12" y2="433.82"/><line class="cls-55" x1="634.97" y1="438.01" x2="659.46" y2="438.01"/><line class="cls-55" x1="664.56" y1="438.01" x2="667.62" y2="438.01"/><line class="cls-55" x1="672.72" y1="438.01" x2="693.13" y2="438.01"/><line class="cls-55" x1="698.23" y1="438.01" x2="701.29" y2="438.01"/><line class="cls-55" x1="702.83" y1="430.17" x2="714.05" y2="430.17"/><line class="cls-55" x1="575.66" y1="438.01" x2="600.15" y2="438.01"/><line class="cls-55" x1="605.25" y1="438.01" x2="608.31" y2="438.01"/><line class="cls-55" x1="613.41" y1="438.01" x2="633.82" y2="438.01"/><line class="cls-55" x1="638.92" y1="438.01" x2="641.98" y2="438.01"/><line class="cls-52" x1="577.78" y1="399.97" x2="790.52" y2="399.97"/><rect class="cls-49" x="791.09" y="315.43" width="10.18" height="68.43"/><line class="cls-19" x1="599.85" y1="294.93" x2="616.03" y2="294.93"/><line class="cls-19" x1="757.16" y1="294.93" x2="795.82" y2="294.93"/><polygon class="cls-61" points="494.21 363.38 478.53 363.38 486.37 327.54 494.21 363.38"/><line class="cls-52" x1="486.37" y1="344.67" x2="486.37" y2="371.22"/><line class="cls-52" x1="486.17" y1="352.68" x2="484.74" y2="350.37"/><line class="cls-52" x1="486.37" y1="357.44" x2="489.5" y2="352.28"/><line class="cls-52" x1="486.17" y1="360.77" x2="483.04" y2="355.61"/><path class="cls-17" d="M1196.4,323.87a5.5,5.5,0,0,1,3.14,10,3.54,3.54,0,0,0,.58-1.95,3.6,3.6,0,0,0-3.59-3.59h-1.8a7.12,7.12,0,0,0-1.06-3.75A5.43,5.43,0,0,1,1196.4,323.87Z"/><path class="cls-17" d="M1200.12,331.94a3.54,3.54,0,0,1-.58,1.95,5.5,5.5,0,0,1-6.89-.48,7.15,7.15,0,0,0,2.08-5.05h1.8A3.6,3.6,0,0,1,1200.12,331.94Z"/><path class="cls-20" d="M1199.54,333.89a3.57,3.57,0,0,1-.48.59,3.06,3.06,0,0,1-.42.36,6.09,6.09,0,0,1-6.77-.74,6.82,6.82,0,0,0,.78-.69,5.5,5.5,0,0,0,6.89.48Z"/><path class="cls-20" d="M1198.64,334.83a3.53,3.53,0,0,1-2.11.7h-.72A6,6,0,0,0,1198.64,334.83Z"/><path class="cls-20" d="M1195.81,335.53h-8.26a7.15,7.15,0,0,0,4.32-1.44A6.06,6.06,0,0,0,1195.81,335.53Z"/><path class="cls-17" d="M1194.73,328.35H1191a5.49,5.49,0,0,1,2.68-3.75A7.12,7.12,0,0,1,1194.73,328.35Z"/><path class="cls-17" d="M1191,328.35h3.74a7.15,7.15,0,0,1-2.08,5.05,5.48,5.48,0,0,1-1.76-4A5.34,5.34,0,0,1,1191,328.35Z"/><path class="cls-17" d="M1193.2,323.91a6.14,6.14,0,0,1,.48.69,5.49,5.49,0,0,0-2.68,3.75h-1.19A6.1,6.1,0,0,1,1193.2,323.91Z"/><path class="cls-17" d="M1187.55,321.17a7.16,7.16,0,0,1,5.64,2.74,6.1,6.1,0,0,0-3.39,4.44h-6a4.8,4.8,0,0,0-3.12-2.23A7.18,7.18,0,0,1,1187.55,321.17Z"/><path class="cls-17" d="M1190.9,329.37a5.48,5.48,0,0,0,1.76,4,6.82,6.82,0,0,1-.78.69,6.08,6.08,0,0,1-2.16-4.66,6,6,0,0,1,.1-1.08H1191A5.34,5.34,0,0,0,1190.9,329.37Z"/><path class="cls-17" d="M1189.71,329.43a6.08,6.08,0,0,0,2.16,4.66,7.18,7.18,0,0,1-8.63,0,4.8,4.8,0,0,0,.61-5.74h6A6,6,0,0,0,1189.71,329.43Z"/><path class="cls-20" d="M1187.55,335.53h-6.9a4.76,4.76,0,0,0,2.58-1.44A7.13,7.13,0,0,0,1187.55,335.53Z"/><path class="cls-17" d="M1183.85,328.35a4.8,4.8,0,0,1-.61,5.74l-.33-.27a4.67,4.67,0,0,0,.32-5.47Z"/><path class="cls-17" d="M1183.85,328.35h-.62a4.67,4.67,0,0,0-2.58-2,2.45,2.45,0,0,1,.08-.28A4.8,4.8,0,0,1,1183.85,328.35Z"/><path class="cls-17" d="M1183.23,328.35a4.67,4.67,0,0,1-.32,5.47,7.15,7.15,0,0,1-2.53-5.47Z"/><path class="cls-17" d="M1183.24,334.09a4.76,4.76,0,0,1-2.58,1.44h-1.36a4.66,4.66,0,0,0,3.61-1.71Z"/><path class="cls-17" d="M1183.23,328.35h-2.85a7,7,0,0,1,.27-2A4.67,4.67,0,0,1,1183.23,328.35Z"/><path class="cls-17" d="M1182.91,333.82a4.66,4.66,0,0,1-3.61,1.71h-.37a3.61,3.61,0,0,1-3.22-3.57,3.6,3.6,0,0,1,3.59-3.59h1.08A7.15,7.15,0,0,0,1182.91,333.82Z"/><path class="cls-17" d="M1180.73,326.12a2.45,2.45,0,0,0-.08.28,4.65,4.65,0,0,0-1.35-.2,4.57,4.57,0,0,0-1.72.33,4.74,4.74,0,0,1,2.16-.51A4.8,4.8,0,0,1,1180.73,326.12Z"/><path class="cls-17" d="M1179.29,335.53h1.36a4.83,4.83,0,0,1-2.13-.06l.4,0h.37Z"/><path class="cls-17" d="M1180.64,326.39a7,7,0,0,0-.27,2h-1.08a3.59,3.59,0,0,0-.37,7.16l-.4,0h0a4.8,4.8,0,0,1-.94-8.94,4.57,4.57,0,0,1,1.72-.33A4.65,4.65,0,0,1,1180.64,326.39Z"/><path class="cls-17" d="M1179.07,335.52h0Z"/><path class="cls-51" d="M1178.51,335.46a4.67,4.67,0,0,1-.94-8.94,4.57,4.57,0,0,1,1.72-.33,4.65,4.65,0,0,1,1.35.2"/><path class="cls-51" d="M1178.93,335.51l-.4,0"/><path class="cls-51" d="M1179.29,335.53h-.22"/><path class="cls-51" d="M1180.64,326.39a2.45,2.45,0,0,1,.08-.28,7.18,7.18,0,0,1,12.47-2.2"/><path class="cls-51" d="M1193.2,323.91a6.1,6.1,0,1,1,2.61,11.62"/><path class="cls-51" d="M1179.29,335.53h-.37"/><path class="cls-51" d="M1198.64,334.83a3.53,3.53,0,0,1-2.11.7h-9"/><line class="cls-62" x1="1187.78" y1="329.55" x2="1187.78" y2="335.23"/><line class="cls-62" x1="1187.58" y1="335.21" x2="1186.14" y2="332.89"/><line class="cls-62" x1="1180.65" y1="333.05" x2="1180.63" y2="335.62"/><path class="cls-62" d="M1180.43,335.6"/><line class="cls-62" x1="1195.73" y1="333.09" x2="1195.26" y2="335.62"/><path class="cls-62" d="M1195.07,335.57"/><line class="cls-63" x1="381.11" y1="267.89" x2="379.14" y2="272.28"/><polygon class="cls-63" points="358.31 286.59 351.45 298.59 351.45 270.08 358.31 270.08 358.31 286.59"/><line class="cls-64" x1="358.3" y1="267.2" x2="351.14" y2="267.2"/><path class="cls-37" d="M378.47,268.8H362.63l-3.16,5,0,13.26-8.15,13.83c-.22.36-2.06,2.07-2,1.65l.27-10.19-31.73,62.28,21.72.83L380,268.8Z"/><path class="cls-49" d="M611.85,276,606,292.71H597l12-27.34C610.11,264,612.24,263.73,611.85,276Z"/><path class="cls-49" d="M601,295.77l-.43,17.93h-9.44l.52-19.64C592.84,292.66,599.82,294.38,601,295.77Z"/><rect class="cls-18" x="596.69" y="320.56" width="1.68" height="11.18"/><rect class="cls-18" x="596.65" y="351.34" width="1.71" height="20.18"/><rect class="cls-18" x="660.4" y="269.42" width="5.89" height="11.08"/><rect class="cls-18" x="626.72" y="269.18" width="5.84" height="11.33"/><polyline class="cls-44" points="668.88 280.5 668.88 269.36 660.65 269.36 660.65 282.55 669.53 282.55"/><line class="cls-44" x1="663.94" y1="280.5" x2="671.18" y2="280.5"/><polyline class="cls-44" points="635.2 280.5 635.2 269.36 626.97 269.36 626.97 282.55 635.85 282.55"/><line class="cls-44" x1="630.26" y1="280.5" x2="637.5" y2="280.5"/><rect class="cls-18" x="709.73" y="278.77" width="6.72" height="12.39"/><line class="cls-44" x1="708.93" y1="285" x2="719.04" y2="285"/><rect class="cls-18" x="644.24" y="227.14" width="6.72" height="12.39"/><line class="cls-47" x1="643.39" y1="233.33" x2="653.5" y2="233.33"/><circle class="cls-20" cx="697.17" cy="388.66" r="10.09"/><line class="cls-65" x1="809.57" y1="421.96" x2="819.61" y2="421.96"/><line class="cls-65" x1="826" y1="421.96" x2="831.47" y2="421.96"/><line class="cls-65" x1="819.61" y1="432" x2="826" y2="432"/><line class="cls-65" x1="830.56" y1="432" x2="836.03" y2="432"/><ellipse class="cls-22" cx="614.11" cy="391.15" rx="16.4" ry="8.14"/><path class="cls-17" d="M698.21,393.15a6.09,6.09,0,0,1-1.15,3.56,45.51,45.51,0,0,1-15.84,2.59,46,46,0,0,1-15.53-2.47C672.56,394.58,677,391,677,387h15.09A6.16,6.16,0,0,1,698.21,393.15Z"/><path class="cls-17" d="M697.06,396.7a6.08,6.08,0,0,1-5,2.59H681.22A45.51,45.51,0,0,0,697.06,396.7Z"/><path class="cls-17" d="M681.22,399.29H648.67a55.8,55.8,0,0,0,17-2.47A46,46,0,0,0,681.22,399.29Z"/><path class="cls-17" d="M677,387H657.54c1.37-3.37,6.47-6.18,13.38-7.59C674.71,381.5,677,384.14,677,387Z"/><path class="cls-17" d="M657.54,387H677c0,4-4.42,7.58-11.28,9.82-5.22-1.91-8.54-4.77-8.54-8A4.67,4.67,0,0,1,657.54,387Z"/><path class="cls-17" d="M648.67,374.71c9,0,17.07,1.84,22.25,4.69-6.91,1.42-12,4.23-13.38,7.59H631.61a24.2,24.2,0,0,0-10.18-3.34C624.78,378.49,635.7,374.71,648.67,374.71Z"/><path class="cls-17" d="M657.16,388.85c0,3.2,3.31,6.06,8.54,8a55.8,55.8,0,0,1-17,2.47,54.14,54.14,0,0,1-18.32-2.92c2.59-1.38,4.16-3.14,4.16-5.06,0-1.59-1.06-3.06-2.9-4.3h25.93A4.67,4.67,0,0,0,657.16,388.85Z"/><path class="cls-17" d="M648.67,399.29H616.11c5.73,0,10.86-1.14,14.24-2.92A54.14,54.14,0,0,0,648.67,399.29Z"/><path class="cls-17" d="M631.61,387c1.84,1.24,2.9,2.72,2.9,4.3,0,1.92-1.57,3.69-4.16,5.06-6.11-2.25-10-5.61-10-9.36Z"/><path class="cls-17" d="M631.61,387H620.36a6,6,0,0,1,1.08-3.34A24.2,24.2,0,0,1,631.61,387Z"/><path class="cls-17" d="M630.35,396.37c-3.38,1.79-8.51,2.92-14.24,2.92a33.93,33.93,0,0,1-12.74-2.23A6.14,6.14,0,0,1,608.1,387h12.26C620.36,390.76,624.24,394.12,630.35,396.37Z"/><path class="cls-17" d="M616.11,399.29h-8a6.13,6.13,0,0,1-4.73-2.23A33.93,33.93,0,0,0,616.11,399.29Z"/><path class="cls-51" d="M616.11,399.29a33.93,33.93,0,0,1-12.74-2.23c-3.5-1.45-5.66-3.5-5.66-5.76,0-4.41,8.24-8,18.4-8a39.89,39.89,0,0,1,5.32.34"/><path class="cls-51" d="M621.44,383.66c3.34-5.17,14.27-8.95,27.23-8.95,9,0,17.07,1.84,22.25,4.69"/><path class="cls-51" d="M670.92,379.41a51.21,51.21,0,0,1,10.3-1c13.29,0,24.06,4.68,24.06,10.45,0,3.13-3.18,5.95-8.22,7.86a45.51,45.51,0,0,1-15.84,2.59"/><path class="cls-51" d="M616.11,399.29h-8a6.13,6.13,0,0,1-4.73-2.23"/><path class="cls-51" d="M697.06,396.7a6.08,6.08,0,0,1-5,2.59h-43.4"/><line class="cls-62" x1="649.56" y1="389.06" x2="649.56" y2="398.78"/><line class="cls-62" x1="648.76" y1="398.75" x2="643.09" y2="394.77"/><line class="cls-62" x1="621.46" y1="395.04" x2="621.37" y2="399.45"/><path class="cls-62" d="M620.57,399.42"/><line class="cls-62" x1="680.92" y1="395.11" x2="679.07" y2="399.44"/><path class="cls-62" d="M678.3,399.35"/><ellipse class="cls-22" cx="696.37" cy="388.76" rx="10.88" ry="10.03"/><path class="cls-17" d="M698.17,387a6.14,6.14,0,0,1,4.34,10.48,6.08,6.08,0,0,1-.67.58h0a10.43,10.43,0,0,1-11.62-1.26,12.27,12.27,0,0,0,4.9-9.82Z"/><path class="cls-17" d="M701.82,398.08a6.08,6.08,0,0,1-3.65,1.21h-1.23A10.37,10.37,0,0,0,701.82,398.08Z"/><path class="cls-17" d="M696.94,399.29H682.81a12.24,12.24,0,0,0,7.39-2.47A10.39,10.39,0,0,0,696.94,399.29Z"/><path class="cls-17" d="M695.1,387h-8.44a10.43,10.43,0,0,1,5.81-7.59A12.24,12.24,0,0,1,695.1,387Z"/><path class="cls-17" d="M686.66,387h8.44a12.27,12.27,0,0,1-4.9,9.82,10.4,10.4,0,0,1-3.71-8A10.13,10.13,0,0,1,686.66,387Z"/><path class="cls-17" d="M682.81,374.71a12.27,12.27,0,0,1,9.66,4.69,10.43,10.43,0,0,0-5.81,7.59H675.41a8,8,0,0,0-4.42-3.34A12.28,12.28,0,0,1,682.81,374.71Z"/><path class="cls-17" d="M686.5,388.85a10.4,10.4,0,0,0,3.71,8,12.28,12.28,0,0,1-15.34-.45,8,8,0,0,0,.55-9.36h11.26A10.13,10.13,0,0,0,686.5,388.85Z"/><path class="cls-17" d="M682.81,399.29H668.68a8,8,0,0,0,6.18-2.92A12.23,12.23,0,0,0,682.81,399.29Z"/><path class="cls-17" d="M675.41,387a8,8,0,0,1-.55,9.36,12.24,12.24,0,0,1-4.34-9.36Z"/><path class="cls-17" d="M675.41,387h-4.89a12,12,0,0,1,.47-3.34A8,8,0,0,1,675.41,387Z"/><path class="cls-17" d="M674.86,396.37a8,8,0,0,1-6.18,2.92h-.38l-.25,0a6.14,6.14,0,0,1-3.71-10.45,6.1,6.1,0,0,1,4.34-1.81h1.84A12.24,12.24,0,0,0,674.86,396.37Z"/><path class="cls-17" d="M668.3,399.28h0Z"/><path class="cls-51" d="M668.05,399.26a8,8,0,0,1,.63-15.95,7.76,7.76,0,0,1,2.31.34"/><path class="cls-51" d="M668.68,399.29h-.38"/><path class="cls-51" d="M671,383.66a12.28,12.28,0,0,1,21.48-4.25"/><path class="cls-51" d="M701.82,398.08a10.37,10.37,0,0,1-4.88,1.21"/><path class="cls-51" d="M692.47,379.41a10.44,10.44,0,0,1,9.37,18.66"/><path class="cls-51" d="M701.84,398.07h0a6.08,6.08,0,0,1-3.65,1.21H682.81"/><path class="cls-51" d="M668.68,399.29h-.38l-.25,0"/><line class="cls-62" x1="683.2" y1="389.06" x2="683.2" y2="398.78"/><line class="cls-62" x1="682.85" y1="398.75" x2="680.39" y2="394.77"/><line class="cls-62" x1="671" y1="395.04" x2="670.96" y2="399.45"/><path class="cls-62" d="M670.61,399.42"/><line class="cls-62" x1="696.81" y1="395.11" x2="696.01" y2="399.44"/><path class="cls-62" d="M695.67,399.35"/><line class="cls-55" x1="1000.75" y1="388.63" x2="1014.01" y2="388.63"/><line class="cls-55" x1="1021.16" y1="388.63" x2="1024.22" y2="388.63"/><line class="cls-55" x1="1029.32" y1="388.63" x2="1032.38" y2="388.63"/><line class="cls-66" x1="817.31" y1="490.45" x2="824.61" y2="490.45"/><line class="cls-66" x1="835.56" y1="490.45" x2="900.34" y2="490.45"/><line class="cls-67" x1="563.77" y1="362.16" x2="568.33" y2="362.16"/><line class="cls-67" x1="570.87" y1="362.16" x2="588.46" y2="362.16"/><line class="cls-65" x1="977.99" y1="471.37" x2="991.25" y2="471.37"/><line class="cls-65" x1="998.4" y1="471.37" x2="1001.46" y2="471.37"/><line class="cls-65" x1="1006.56" y1="471.37" x2="1009.62" y2="471.37"/><line class="cls-65" x1="945.85" y1="489.22" x2="970.34" y2="489.22"/><line class="cls-65" x1="975.44" y1="489.22" x2="978.5" y2="489.22"/><line class="cls-65" x1="983.6" y1="489.22" x2="1004.01" y2="489.22"/><line class="cls-65" x1="1009.11" y1="489.22" x2="1012.17" y2="489.22"/><line class="cls-65" x1="1013.7" y1="478.64" x2="1024.93" y2="478.64"/><line class="cls-65" x1="1027.99" y1="478.64" x2="1031.05" y2="478.64"/><line class="cls-65" x1="1033.09" y1="478.64" x2="1046.36" y2="478.64"/><g id="_Group_" data-name="&lt;Group&gt;"><path class="cls-19" d="M435.74,402.15"/><path class="cls-24" d="M457.83,379.09"/><path class="cls-24" d="M457.83,379.09H20.53C8.16,379.09,9,377,9,374.55V362.13c-.48-1.63-.82-.88,11.55-.88H452.76c12.37,0,22.5,2,22.5,4.53v2.34c0,.47,2.16,2.24,5.89,2.76a14.38,14.38,0,0,0,2.24.16l61.31.15c10.17,0,14.52,1.17,14.52,3.36,0,1.25-2.54,2.38-6.61,3.2-3.82.77-61,1.27-66.73,1.32Z"/><path class="cls-24" d="M438.62,398.83"/><path class="cls-24" d="M438.62,405"/></g><line class="cls-54" x1="530.99" y1="387.48" x2="535.55" y2="387.48"/><line class="cls-54" x1="539" y1="387.48" x2="556.59" y2="387.48"/><line class="cls-67" x1="532.83" y1="386.57" x2="537.39" y2="386.57"/><line class="cls-67" x1="539.93" y1="386.57" x2="557.52" y2="386.57"/><line class="cls-68" x1="113.44" y1="310.56" x2="113.44" y2="361.45"/><polygon class="cls-69" points="206.03 300.17 218.35 299.87 248.75 265.26 237.16 266.68 206.03 300.17"/><polyline class="cls-70" points="114.13 310.56 222.36 310.41 222 360.41 114.2 360.6"/><polygon class="cls-71" points="216.47 310.55 132.48 310.25 183.31 265.26 213.7 265.87 226.2 277.93 204.55 300.45 216.47 310.55"/><polygon class="cls-70" points="219.09 360.21 219.61 299.57 248.72 265.63 275.7 306.33 275.18 359.65 219.09 360.21"/><path class="cls-72" d="M224.23,279.44"/><polyline class="cls-73" points="201.32 350.3 201.32 322.29 186.58 322.29 186.58 350.3"/><circle class="cls-74" cx="197.85" cy="340.45" r="1.72"/><polygon class="cls-68" points="205.73 300.17 219.42 299.87 248.23 265.26 236.95 266.68 205.73 300.17"/><line class="cls-75" x1="134.18" y1="310.41" x2="134.18" y2="361.64"/><polyline class="cls-76" points="211.28 353.39 211.28 350.3 123.16 350.3 123.16 353.91"/><polyline class="cls-76" points="215.9 357 215.9 353.91 118.86 353.91 118.86 357"/><line class="cls-76" x1="205.73" y1="349.04" x2="206.34" y2="311.77"/><polygon class="cls-77" points="114.24 310.56 132.17 310.13 182.77 265.26 176.79 265.63 114.24 310.56"/><line class="cls-78" x1="180.34" y1="349.04" x2="180.94" y2="311.77"/><polyline class="cls-79" points="246.41 314.38 246.41 287.2 234.29 287.2 234.29 314.38"/><ellipse class="cls-79" cx="243.56" cy="304.82" rx="1.41" ry="1.67"/><polyline class="cls-79" points="246.41 314.38 246.41 287.2 258.53 287.2 258.53 314.38"/><ellipse class="cls-79" cx="249.26" cy="304.82" rx="1.41" ry="1.67"/><line class="cls-76" x1="219.14" y1="300.29" x2="275.89" y2="300.35"/><line class="cls-76" x1="222.36" y1="298.92" x2="222.36" y2="314.23"/><line class="cls-76" x1="227.23" y1="298.92" x2="227.23" y2="314.23"/><line class="cls-76" x1="232.09" y1="298.92" x2="232.09" y2="314.23"/><line class="cls-76" x1="236.96" y1="298.92" x2="236.96" y2="314.23"/><line class="cls-76" x1="241.83" y1="298.92" x2="241.83" y2="314.23"/><line class="cls-76" x1="246.69" y1="298.92" x2="246.69" y2="314.23"/><line class="cls-76" x1="251.56" y1="298.92" x2="251.56" y2="314.23"/><line class="cls-76" x1="256.43" y1="298.92" x2="256.43" y2="314.23"/><line class="cls-76" x1="261.29" y1="298.92" x2="261.29" y2="314.23"/><line class="cls-76" x1="266.16" y1="298.92" x2="266.16" y2="314.23"/><line class="cls-76" x1="271.02" y1="298.92" x2="271.02" y2="314.23"/><line class="cls-76" x1="217.71" y1="314.33" x2="275.04" y2="314.39"/><line class="cls-76" x1="275.86" y1="298.92" x2="275.86" y2="314.23"/><line class="cls-76" x1="220.21" y1="298.92" x2="220.21" y2="314.23"/><line class="cls-76" x1="219.22" y1="300.29" x2="275.97" y2="300.35"/><line class="cls-76" x1="224.51" y1="298.92" x2="224.51" y2="314.23"/><line class="cls-76" x1="229.37" y1="298.92" x2="229.37" y2="314.23"/><line class="cls-76" x1="234.24" y1="298.92" x2="234.24" y2="314.23"/><line class="cls-76" x1="239.11" y1="298.92" x2="239.11" y2="314.23"/><line class="cls-76" x1="243.97" y1="298.92" x2="243.97" y2="314.23"/><line class="cls-76" x1="248.84" y1="298.92" x2="248.84" y2="314.23"/><line class="cls-76" x1="253.71" y1="298.92" x2="253.71" y2="314.23"/><line class="cls-76" x1="258.57" y1="298.92" x2="258.57" y2="314.23"/><line class="cls-76" x1="263.44" y1="298.92" x2="263.44" y2="314.23"/><line class="cls-76" x1="268.31" y1="298.92" x2="268.31" y2="314.23"/><line class="cls-76" x1="273.17" y1="298.92" x2="273.17" y2="314.23"/><line class="cls-76" x1="219.34" y1="314.33" x2="275.64" y2="314.39"/><polygon class="cls-32" points="179.13 283.85 186.35 283.85 186.35 298.25 179.13 283.85"/><path class="cls-80" d="M192.7,271.73l-6.55,11.33a.35.35,0,0,0,.3.53h13.1a.35.35,0,0,0,.3-.53l-6.55-11.33A.35.35,0,0,0,192.7,271.73Z"/><polygon class="cls-81" points="179.15 283.67 185.84 283.35 192.95 271.42 186.48 272.77 179.15 283.67"/><g id="window-3" data-name="window"><polyline class="cls-70" points="199.83 296.76 199.83 283.8 186.65 283.8 186.65 299.14 200.88 299.14"/><line class="cls-70" x1="190.12" y1="296.76" x2="201.71" y2="296.76"/></g><line class="cls-70" x1="186.82" y1="289.17" x2="199.27" y2="289.17"/><line class="cls-70" x1="193.73" y1="289.17" x2="193.73" y2="283.75"/><rect class="cls-18" x="187.25" y="283.52" width="10.59" height="13.37"/><g id="window-4" data-name="window"><polyline class="cls-76" points="199.83 296.76 199.83 283.8 186.65 283.8 186.65 299.14 200.88 299.14"/><line class="cls-76" x1="190.12" y1="296.76" x2="201.71" y2="296.76"/></g><line class="cls-76" x1="186.82" y1="289.17" x2="199.27" y2="289.17"/><line class="cls-76" x1="193.73" y1="289.17" x2="193.73" y2="283.75"/><line class="cls-82" x1="179.15" y1="283.67" x2="184.95" y2="296.74"/><rect class="cls-18" x="232.87" y="325.5" width="26.2" height="18.58"/><rect class="cls-76" x="233.51" y="324.63" width="27.95" height="22"/><line class="cls-76" x1="241.98" y1="346.63" x2="241.98" y2="324.63"/><line class="cls-76" x1="253.07" y1="346.62" x2="253.07" y2="324.62"/><line class="cls-76" x1="233.24" y1="332.02" x2="241.75" y2="332.02"/><line class="cls-76" x1="252.78" y1="332.23" x2="261.46" y2="332.23"/><line class="cls-76" x1="255.76" y1="324.63" x2="255.76" y2="332.02"/><line class="cls-76" x1="258.86" y1="324.63" x2="258.86" y2="332.02"/><line class="cls-76" x1="236.34" y1="324.63" x2="236.34" y2="332.02"/><line class="cls-76" x1="239.44" y1="324.63" x2="239.44" y2="332.02"/><line class="cls-76" x1="233.24" y1="328.52" x2="241.75" y2="328.52"/><line class="cls-76" x1="252.78" y1="328.73" x2="261.46" y2="328.73"/><rect class="cls-18" x="140.66" y="321.63" width="33.94" height="16.07"/><rect class="cls-76" x="140.4" y="322.29" width="36.16" height="17.62"/><line class="cls-76" x1="150.03" y1="339.91" x2="150.03" y2="322.29"/><line class="cls-76" x1="165.71" y1="339.91" x2="165.71" y2="322.29"/><line class="cls-76" x1="140.05" y1="328.21" x2="149.68" y2="328.21"/><line class="cls-76" x1="165.32" y1="328.38" x2="174.6" y2="328.38"/><line class="cls-83" x1="144.87" y1="322.29" x2="144.87" y2="328.38"/><line class="cls-84" x1="170.95" y1="322.29" x2="170.95" y2="328.38"/><rect class="cls-18" x="118.86" y="322.65" width="6.44" height="15.03"/><g id="window-5" data-name="window"><polyline class="cls-76" points="127.57 337.68 127.57 322.67 118.99 322.67 118.99 340.45 128.25 340.45"/><line class="cls-76" x1="122.42" y1="337.68" x2="129.97" y2="337.68"/></g><line class="cls-70" x1="119.1" y1="328.89" x2="127.21" y2="328.89"/><line class="cls-70" x1="123.6" y1="328.89" x2="123.6" y2="322.62"/><polyline class="cls-76" points="219.09 360.06 219.09 356.97 114.13 356.97 114.13 360.06"/><ellipse class="cls-85" cx="140.36" cy="356.59" rx="4.82" ry="4.44"/><ellipse class="cls-22" cx="129.36" cy="357.52" rx="4.82" ry="3.52"/><path class="cls-22" d="M143.88,358.47v.11a2.66,2.66,0,0,1-1,2.06,4.62,4.62,0,0,1-5.27-.49,5.43,5.43,0,0,0,2.17-4.35h1.42A2.67,2.67,0,0,1,143.88,358.47Z"/><path class="cls-22" d="M142.9,360.65a2.64,2.64,0,0,1-1.68.6h-.6A4.56,4.56,0,0,0,142.9,360.65Z"/><path class="cls-22" d="M140.62,361.25h-6.26a5.42,5.42,0,0,0,3.27-1.09A4.59,4.59,0,0,0,140.62,361.25Z"/><path class="cls-22" d="M139.8,355.81h-3.74a4.62,4.62,0,0,1,2.57-3.36A5.42,5.42,0,0,1,139.8,355.81Z"/><path class="cls-22" d="M136.07,355.81h3.74a5.43,5.43,0,0,1-2.17,4.35,4.6,4.6,0,0,1-1.64-3.53A4.49,4.49,0,0,1,136.07,355.81Z"/><path class="cls-22" d="M134.36,350.37a5.43,5.43,0,0,1,4.28,2.08,4.62,4.62,0,0,0-2.57,3.36h-5a3.52,3.52,0,0,0-2-1.48A5.44,5.44,0,0,1,134.36,350.37Z"/><path class="cls-22" d="M136,356.63a4.6,4.6,0,0,0,1.64,3.53,5.44,5.44,0,0,1-6.79-.2,3.54,3.54,0,0,0,.24-4.15h5A4.49,4.49,0,0,0,136,356.63Z"/><path class="cls-22" d="M134.36,361.25H128.1a3.53,3.53,0,0,0,2.74-1.3A5.41,5.41,0,0,0,134.36,361.25Z"/><path class="cls-22" d="M131.08,355.81a3.54,3.54,0,0,1-.24,4.15,5.42,5.42,0,0,1-1.92-4.15Z"/><path class="cls-22" d="M131.08,355.81h-2.16a5.33,5.33,0,0,1,.21-1.48A3.52,3.52,0,0,1,131.08,355.81Z"/><path class="cls-22" d="M130.84,360a3.53,3.53,0,0,1-2.74,1.3l-.36,0-.13,0a2.67,2.67,0,0,1-2.23-2.63v-.11a2.67,2.67,0,0,1,2.66-2.66h.87A5.42,5.42,0,0,0,130.84,360Z"/><path class="cls-22" d="M128.1,361.25H128l-.3,0Z"/><path class="cls-86" d="M127.62,361.22a3.54,3.54,0,0,1,.49-7,3.44,3.44,0,0,1,1,.15"/><path class="cls-86" d="M128.1,361.25l-.36,0"/><path class="cls-86" d="M129.13,354.33a5.44,5.44,0,0,1,9.51-1.88"/><path class="cls-86" d="M138.64,352.45a4.62,4.62,0,0,1,4.26,8.2"/><path class="cls-86" d="M128.1,361.25H128l-.3,0-.13,0"/><path class="cls-86" d="M142.9,360.65a2.64,2.64,0,0,1-1.68.6h-6.86"/><line class="cls-87" x1="134.53" y1="356.72" x2="134.53" y2="361.03"/><line class="cls-87" x1="134.38" y1="361.01" x2="133.29" y2="359.25"/><line class="cls-87" x1="129.13" y1="359.37" x2="129.11" y2="361.32"/><path class="cls-87" d="M129,361.31"/><line class="cls-87" x1="140.56" y1="359.4" x2="140.2" y2="361.32"/><path class="cls-87" d="M140.05,361.28"/><line class="cls-86" x1="204.72" y1="300.53" x2="215.61" y2="309.83"/><polyline class="cls-86" points="226.2 277.93 213.7 265.26 183.31 265.26"/><polyline class="cls-86" points="113.44 310.3 177.34 265.26 183.37 265.26 131.79 310.3"/><ellipse class="cls-22" cx="222.92" cy="356.26" rx="6.3" ry="3.13"/><path class="cls-17" d="M255.24,356.12v1.81a1.73,1.73,0,0,1,0,.29h0a17,17,0,0,1-6.5,1.16,17.67,17.67,0,0,1-6-.95c2.63-.86,4.34-2.23,4.34-3.77h6.7A1.46,1.46,0,0,1,255.24,356.12Z"/><path class="cls-17" d="M255.21,358.23a1.47,1.47,0,0,1-1.43,1.16h-5.07A17,17,0,0,0,255.21,358.23Z"/><path class="cls-17" d="M248.71,359.39H236.2a21.44,21.44,0,0,0,6.54-.95A17.67,17.67,0,0,0,248.71,359.39Z"/><path class="cls-17" d="M247.08,354.67h-7.47c.53-1.29,2.49-2.37,5.14-2.92C246.21,352.55,247.08,353.57,247.08,354.67Z"/><path class="cls-17" d="M239.61,354.67h7.47c0,1.54-1.7,2.91-4.34,3.77-2-.73-3.28-1.83-3.28-3.07A1.79,1.79,0,0,1,239.61,354.67Z"/><path class="cls-17" d="M236.2,349.94a18.51,18.51,0,0,1,8.55,1.8c-2.65.55-4.61,1.62-5.14,2.92h-10a9.3,9.3,0,0,0-3.91-1.28C227,351.4,231.22,349.94,236.2,349.94Z"/><path class="cls-17" d="M239.46,355.38c0,1.23,1.27,2.33,3.28,3.07a21.44,21.44,0,0,1-6.54.95,20.81,20.81,0,0,1-7-1.12c1-.53,1.6-1.21,1.6-1.95a2.11,2.11,0,0,0-1.12-1.65h10A1.79,1.79,0,0,0,239.46,355.38Z"/><path class="cls-17" d="M236.2,359.39H223.69a12.21,12.21,0,0,0,5.47-1.12A20.81,20.81,0,0,0,236.2,359.39Z"/><path class="cls-17" d="M229.64,354.67a2.11,2.11,0,0,1,1.12,1.65c0,.74-.6,1.42-1.6,1.95-2.35-.86-3.84-2.16-3.84-3.6Z"/><path class="cls-17" d="M229.64,354.67h-4.32a2.3,2.3,0,0,1,.41-1.28A9.3,9.3,0,0,1,229.64,354.67Z"/><path class="cls-17" d="M229.16,358.27a13.91,13.91,0,0,1-10.86,0,1.39,1.39,0,0,1,0-.37v-1.81a1.46,1.46,0,0,1,1.45-1.45h5.62C225.32,356.11,226.81,357.4,229.16,358.27Z"/><path class="cls-17" d="M223.69,359.39h-4a1.46,1.46,0,0,1-1.4-1.08A12.31,12.31,0,0,0,223.69,359.39Z"/><path class="cls-29" d="M223.69,359.39a12.31,12.31,0,0,1-5.39-1.08c-1-.54-1.68-1.23-1.68-2,0-1.7,3.17-3.07,7.07-3.07a15.33,15.33,0,0,1,2,.13"/><path class="cls-29" d="M225.73,353.38c1.28-2,5.48-3.44,10.47-3.44a18.51,18.51,0,0,1,8.55,1.8"/><path class="cls-29" d="M255.21,358.23a17,17,0,0,1-6.5,1.16"/><path class="cls-29" d="M244.75,351.75a19.68,19.68,0,0,1,4-.39c5.11,0,9.25,1.8,9.25,4,0,1.12-1,2.13-2.75,2.85"/><path class="cls-29" d="M255.21,358.23h0a1.47,1.47,0,0,1-1.43,1.16H236.2"/><path class="cls-29" d="M223.69,359.39h-4a1.46,1.46,0,0,1-1.4-1.08"/><line class="cls-88" x1="236.54" y1="355.46" x2="236.54" y2="359.2"/><line class="cls-88" x1="236.23" y1="359.18" x2="234.05" y2="357.65"/><line class="cls-88" x1="225.74" y1="357.76" x2="225.71" y2="359.45"/><path class="cls-88" d="M225.4,359.44"/><line class="cls-88" x1="248.59" y1="357.78" x2="247.88" y2="359.45"/><path class="cls-88" d="M247.58,359.42"/><ellipse class="cls-22" cx="254.53" cy="355.35" rx="4.18" ry="3.85"/><path class="cls-17" d="M257.58,356.12v1.81a1.29,1.29,0,0,1,0,.32,4,4,0,0,1-5.39.19,4.72,4.72,0,0,0,1.88-3.77h2.09A1.46,1.46,0,0,1,257.58,356.12Z"/><path class="cls-17" d="M257.55,358.25a1.45,1.45,0,0,1-1.42,1.14h-1.38A4,4,0,0,0,257.55,358.25Z"/><path class="cls-17" d="M254.75,359.39h-5.43a4.7,4.7,0,0,0,2.84-.95A4,4,0,0,0,254.75,359.39Z"/><path class="cls-17" d="M254,354.67H250.8a4,4,0,0,1,2.23-2.92A4.7,4.7,0,0,1,254,354.67Z"/><path class="cls-17" d="M250.8,354.67H254a4.72,4.72,0,0,1-1.88,3.77,4,4,0,0,1-1.42-3.07A3.89,3.89,0,0,1,250.8,354.67Z"/><path class="cls-17" d="M249.32,349.94a4.71,4.71,0,0,1,3.71,1.8,4,4,0,0,0-2.23,2.92h-4.33a3.05,3.05,0,0,0-1.7-1.28A4.72,4.72,0,0,1,249.32,349.94Z"/><path class="cls-17" d="M250.74,355.38a4,4,0,0,0,1.42,3.07,4.72,4.72,0,0,1-5.9-.17,3.07,3.07,0,0,0,.21-3.6h4.33A3.89,3.89,0,0,0,250.74,355.38Z"/><path class="cls-17" d="M249.32,359.39h-5.43a3.07,3.07,0,0,0,2.38-1.12A4.7,4.7,0,0,0,249.32,359.39Z"/><path class="cls-17" d="M246.47,354.67a3.07,3.07,0,0,1-.21,3.6,4.7,4.7,0,0,1-1.67-3.6Z"/><path class="cls-17" d="M246.47,354.67H244.6a4.63,4.63,0,0,1,.18-1.28A3.05,3.05,0,0,1,246.47,354.67Z"/><path class="cls-17" d="M246.26,358.27a3.07,3.07,0,0,1-4.68.09,1.43,1.43,0,0,1-.06-.42v-1.81a1.46,1.46,0,0,1,1.45-1.45h1.62A4.7,4.7,0,0,0,246.26,358.27Z"/><path class="cls-17" d="M243.89,359.39H243a1.46,1.46,0,0,1-1.39-1A3.06,3.06,0,0,0,243.89,359.39Z"/><path class="cls-29" d="M243.89,359.39a3.07,3.07,0,1,1,0-6.14,3,3,0,0,1,.89.13"/><path class="cls-29" d="M244.78,353.38a4.72,4.72,0,0,1,8.26-1.63"/><path class="cls-29" d="M253,351.75a4,4,0,1,1,1.72,7.64"/><path class="cls-29" d="M243.89,359.39H243a1.46,1.46,0,0,1-1.39-1"/><path class="cls-29" d="M257.55,358.25a1.45,1.45,0,0,1-1.42,1.14h-6.81"/><line class="cls-88" x1="249.47" y1="355.46" x2="249.47" y2="359.2"/><line class="cls-88" x1="249.33" y1="359.18" x2="248.39" y2="357.65"/><line class="cls-88" x1="244.78" y1="357.76" x2="244.76" y2="359.45"/><path class="cls-88" d="M244.63,359.44"/><line class="cls-88" x1="254.7" y1="357.78" x2="254.39" y2="359.45"/><path class="cls-88" d="M254.26,359.42"/><ellipse class="cls-22" cx="45.92" cy="358.26" rx="6.3" ry="3.13"/><path class="cls-17" d="M78.24,358.12v1.81a1.73,1.73,0,0,1,0,.29h0a17,17,0,0,1-6.5,1.16,17.69,17.69,0,0,1-6-.95c2.63-.86,4.34-2.23,4.34-3.77h6.71A1.46,1.46,0,0,1,78.24,358.12Z"/><path class="cls-17" d="M78.21,360.23a1.47,1.47,0,0,1-1.43,1.16H71.71A17,17,0,0,0,78.21,360.23Z"/><path class="cls-17" d="M71.71,361.39H59.2a21.44,21.44,0,0,0,6.54-.95A17.69,17.69,0,0,0,71.71,361.39Z"/><path class="cls-17" d="M70.08,356.67H62.61c.53-1.29,2.49-2.37,5.14-2.92C69.21,354.55,70.08,355.57,70.08,356.67Z"/><path class="cls-17" d="M62.61,356.67h7.47c0,1.54-1.7,2.91-4.34,3.77-2-.73-3.28-1.83-3.28-3.07A1.79,1.79,0,0,1,62.61,356.67Z"/><path class="cls-17" d="M59.2,351.95a18.51,18.51,0,0,1,8.55,1.8c-2.65.55-4.61,1.62-5.14,2.92h-10a9.3,9.3,0,0,0-3.91-1.28C50,353.4,54.22,351.95,59.2,351.95Z"/><path class="cls-17" d="M62.46,357.38c0,1.23,1.27,2.33,3.28,3.07a21.44,21.44,0,0,1-6.54.95,20.76,20.76,0,0,1-7-1.12c1-.53,1.6-1.21,1.6-1.95a2.11,2.11,0,0,0-1.12-1.65h10A1.79,1.79,0,0,0,62.46,357.38Z"/><path class="cls-17" d="M59.2,361.39H46.69a12.21,12.21,0,0,0,5.47-1.12A20.76,20.76,0,0,0,59.2,361.39Z"/><path class="cls-17" d="M52.64,356.67a2.11,2.11,0,0,1,1.12,1.65c0,.74-.6,1.42-1.6,1.95-2.35-.86-3.84-2.16-3.84-3.6Z"/><path class="cls-17" d="M52.64,356.67H48.32a2.3,2.3,0,0,1,.41-1.28A9.3,9.3,0,0,1,52.64,356.67Z"/><path class="cls-17" d="M52.16,360.27a12.21,12.21,0,0,1-5.47,1.12,12.31,12.31,0,0,1-5.39-1.08,1.39,1.39,0,0,1,0-.37v-1.81a1.46,1.46,0,0,1,1.45-1.45h5.62C48.32,358.11,49.81,359.4,52.16,360.27Z"/><path class="cls-17" d="M46.69,361.39h-4a1.46,1.46,0,0,1-1.4-1.08A12.31,12.31,0,0,0,46.69,361.39Z"/><path class="cls-29" d="M46.69,361.39a12.31,12.31,0,0,1-5.39-1.08c-1-.54-1.68-1.23-1.68-2,0-1.7,3.17-3.07,7.07-3.07a15.33,15.33,0,0,1,2,.13"/><path class="cls-29" d="M48.73,355.38c1.28-2,5.48-3.44,10.47-3.44a18.51,18.51,0,0,1,8.55,1.8"/><path class="cls-29" d="M78.21,360.23a17,17,0,0,1-6.5,1.16"/><path class="cls-29" d="M67.75,353.75a19.76,19.76,0,0,1,4-.39c5.11,0,9.25,1.8,9.25,4,0,1.12-1,2.13-2.75,2.85"/><path class="cls-29" d="M46.69,361.39h-4a1.46,1.46,0,0,1-1.4-1.08"/><path class="cls-29" d="M78.21,360.23a1.47,1.47,0,0,1-1.43,1.16H59.2"/><line class="cls-88" x1="59.54" y1="357.46" x2="59.54" y2="361.2"/><line class="cls-88" x1="59.23" y1="361.18" x2="57.05" y2="359.65"/><line class="cls-88" x1="48.74" y1="359.76" x2="48.71" y2="361.45"/><path class="cls-88" d="M48.4,361.44"/><line class="cls-88" x1="71.59" y1="359.78" x2="70.88" y2="361.45"/><path class="cls-88" d="M70.58,361.42"/><ellipse class="cls-22" cx="77.53" cy="357.35" rx="4.18" ry="3.85"/><path class="cls-17" d="M80.58,358.12v1.81a1.29,1.29,0,0,1,0,.32,4,4,0,0,1-5.39.19A4.72,4.72,0,0,0,77,356.67h2.09A1.46,1.46,0,0,1,80.58,358.12Z"/><path class="cls-17" d="M80.55,360.26a1.45,1.45,0,0,1-1.42,1.14H77.75A4,4,0,0,0,80.55,360.26Z"/><path class="cls-17" d="M77.75,361.39H72.32a4.7,4.7,0,0,0,2.84-.95A4,4,0,0,0,77.75,361.39Z"/><path class="cls-17" d="M77,356.67H73.8A4,4,0,0,1,76,353.75,4.7,4.7,0,0,1,77,356.67Z"/><path class="cls-17" d="M73.8,356.67H77a4.72,4.72,0,0,1-1.88,3.77,4,4,0,0,1-1.42-3.07A3.89,3.89,0,0,1,73.8,356.67Z"/><path class="cls-17" d="M72.32,351.95a4.71,4.71,0,0,1,3.71,1.8,4,4,0,0,0-2.23,2.92H69.47a3.05,3.05,0,0,0-1.7-1.28A4.72,4.72,0,0,1,72.32,351.95Z"/><path class="cls-17" d="M73.74,357.38a4,4,0,0,0,1.42,3.07,4.72,4.72,0,0,1-5.9-.17,3.07,3.07,0,0,0,.21-3.6H73.8A3.89,3.89,0,0,0,73.74,357.38Z"/><path class="cls-17" d="M72.32,361.39H66.89a3.07,3.07,0,0,0,2.38-1.12A4.7,4.7,0,0,0,72.32,361.39Z"/><path class="cls-17" d="M69.47,356.67a3.07,3.07,0,0,1-.21,3.6,4.7,4.7,0,0,1-1.67-3.6Z"/><path class="cls-17" d="M69.47,356.67H67.6a4.63,4.63,0,0,1,.18-1.28A3.05,3.05,0,0,1,69.47,356.67Z"/><path class="cls-17" d="M69.26,360.27a3.07,3.07,0,0,1-4.68.09,1.43,1.43,0,0,1-.06-.42v-1.81A1.46,1.46,0,0,1,66,356.67H67.6A4.7,4.7,0,0,0,69.26,360.27Z"/><path class="cls-17" d="M66.89,361.39H66a1.46,1.46,0,0,1-1.39-1A3.06,3.06,0,0,0,66.89,361.39Z"/><path class="cls-29" d="M66.89,361.39a3.07,3.07,0,1,1,0-6.14,3,3,0,0,1,.89.13"/><path class="cls-29" d="M67.78,355.38A4.72,4.72,0,0,1,76,353.75"/><path class="cls-29" d="M76,353.75a4,4,0,1,1,1.72,7.64"/><path class="cls-29" d="M66.89,361.39H66a1.46,1.46,0,0,1-1.39-1"/><path class="cls-29" d="M80.55,360.26a1.45,1.45,0,0,1-1.42,1.14H72.32"/><line class="cls-88" x1="72.47" y1="357.46" x2="72.47" y2="361.2"/><line class="cls-88" x1="72.33" y1="361.18" x2="71.39" y2="359.65"/><line class="cls-88" x1="67.78" y1="359.76" x2="67.76" y2="361.45"/><path class="cls-88" d="M67.63,361.44"/><line class="cls-88" x1="77.7" y1="359.78" x2="77.39" y2="361.45"/><path class="cls-88" d="M77.26,361.42"/><polygon class="cls-89" points="117.53 356.11 103.64 356.11 110.59 324.37 117.53 356.11"/><line class="cls-52" x1="110.59" y1="339.53" x2="110.59" y2="361.23"/><line class="cls-52" x1="110.41" y1="346.63" x2="109.15" y2="344.59"/><line class="cls-52" x1="110.59" y1="350.85" x2="113.36" y2="346.28"/><line class="cls-52" x1="110.41" y1="353.8" x2="107.64" y2="349.23"/><line class="cls-35" x1="463.88" y1="349.55" x2="481.56" y2="349.55"/><line class="cls-35" x1="801.47" y1="349.55" x2="825.93" y2="349.55"/><path class="cls-18" d="M907.72,265.13h-3.38A17.57,17.57,0,0,0,870,259.82a11.71,11.71,0,1,0-3.52,22.88h41.21a8.36,8.36,0,0,0,8.33-8.33v-.9A8.36,8.36,0,0,0,907.72,265.13Z"/><path class="cls-55" d="M394,439.6h42.82"/><line class="cls-55" x1="441.73" y1="439.6" x2="445.24" y2="439.6"/><line class="cls-55" x1="448.05" y1="439.6" x2="478.23" y2="439.6"/><line class="cls-51" x1="625.19" y1="368.6" x2="628.84" y2="368.6"/><line class="cls-35" x1="829.58" y1="349.55" x2="835.97" y2="349.55"/><line class="cls-35" x1="840.53" y1="349.55" x2="842.36" y2="349.55"/><line class="cls-35" x1="848.75" y1="349.55" x2="902.58" y2="349.55"/><line class="cls-35" x1="908.97" y1="349.55" x2="924.48" y2="349.55"/><line class="cls-35" x1="928.59" y1="349.55" x2="950.49" y2="349.55"/><line class="cls-35" x1="955.96" y1="349.55" x2="962.35" y2="349.55"/><line class="cls-35" x1="966.91" y1="349.55" x2="968.74" y2="349.55"/><line class="cls-35" x1="975.13" y1="349.55" x2="1028.96" y2="349.55"/><line class="cls-35" x1="1035.35" y1="349.55" x2="1050.86" y2="349.55"/><line class="cls-54" x1="1056.34" y1="349.55" x2="1107" y2="349.55"/><line class="cls-90" x1="473.58" y1="185.38" x2="500.43" y2="185.38"/><line class="cls-90" x1="506.96" y1="185.38" x2="503.33" y2="185.38"/><line class="cls-90" x1="512.76" y1="185.38" x2="563.56" y2="185.38"/><path class="cls-18" d="M484.92,184.29s-8-5.81,0-15.24,18.87-.73,18.87-.73,2.18-5.81,6.53-6.53,9.43,2.18,9.43,2.18a19.3,19.3,0,0,1,18.14-11.61c13.79,0,19.59,10.16,21,16.69,0,0,10.16-.73,10.89,6.53s-2.9,8.71-2.9,8.71Z"/><line class="cls-91" x1="1248.11" y1="417.31" x2="1262.71" y2="417.31"/><line class="cls-91" x1="1258.15" y1="426.44" x2="1261.8" y2="426.44"/><line class="cls-55" x1="993.54" y1="439.84" x2="1015.44" y2="439.84"/><line class="cls-55" x1="1020" y1="439.84" x2="1022.74" y2="439.84"/><line class="cls-55" x1="1027.3" y1="439.84" x2="1045.55" y2="439.84"/><line class="cls-54" x1="1207.68" y1="388.87" x2="1210.74" y2="388.87"/><line class="cls-91" x1="1167.26" y1="401.13" x2="1191.75" y2="401.13"/><line class="cls-91" x1="1196.85" y1="401.13" x2="1199.91" y2="401.13"/><line class="cls-54" x1="1215.85" y1="388.87" x2="1236.25" y2="388.87"/><line class="cls-54" x1="1241.36" y1="388.87" x2="1244.42" y2="388.87"/><line class="cls-54" x1="1245.95" y1="381.02" x2="1257.17" y2="381.02"/><line class="cls-35" x1="962.91" y1="401.4" x2="967.47" y2="401.4"/><line class="cls-35" x1="971.12" y1="401.4" x2="1010.36" y2="401.4"/><line class="cls-54" x1="1162.72" y1="453.05" x2="1211.56" y2="453.05"/><line class="cls-54" x1="1044.44" y1="453.05" x2="1093.28" y2="453.05"/><line class="cls-54" x1="1103.45" y1="453.05" x2="1109.56" y2="453.05"/><line class="cls-54" x1="1119.73" y1="453.05" x2="1160.43" y2="453.05"/><line class="cls-54" x1="1170.61" y1="453.05" x2="1176.71" y2="453.05"/><path class="cls-92" d="M973.28,373.88H950.8c-3.15-.51-7.18-2-6.6-6.15-.44-3.77,5.73-5.28,8.66-5.88h7.67a6.26,6.26,0,1,0,0-12.52H900.75a6.25,6.25,0,0,0-2.13,12.14h-1.13c3.28.42,7.09,2.88,7.09,6.33,0,3.18-4.83,5.52-6.69,6.09H879.24a6.26,6.26,0,0,0,0,12.52h32.35a6.47,6.47,0,0,1,3.3,5.46c0,3.12-3.65,5.43-5.16,6.05h-9.06a6.26,6.26,0,0,0,0,12.52h50.26a6.26,6.26,0,0,0,1.71-12.27c1.33.1,1.89-.1.33-.1h-.73a6.22,6.22,0,0,0-1.24-.14c-2.45-.54-5.48-2.08-5-6.12-.27-3,2.76-4.58,5.17-5.39h22.15a6.26,6.26,0,1,0,0-12.52Z"/><path class="cls-65" d="M586.31,436.1H645"/><line class="cls-65" x1="651.79" y1="436.1" x2="656.6" y2="436.1"/><line class="cls-65" x1="660.45" y1="436.1" x2="701.86" y2="436.1"/><line class="cls-65" x1="704.71" y1="428.26" x2="714.46" y2="428.26"/><line class="cls-65" x1="1201.41" y1="387.03" x2="1248.07" y2="387.03"/><line class="cls-65" x1="624.66" y1="496.36" x2="630.88" y2="496.36"/><line class="cls-65" x1="635.85" y1="496.36" x2="675.15" y2="496.36"/><path class="cls-47" d="M251.73,81.63S266,80.27,271,87.16a25.25,25.25,0,0,1,18.17-5.64"/><path class="cls-47" d="M225.27,91.67s14.28-1.36,19.26,5.53a25.25,25.25,0,0,1,18.17-5.64"/><line class="cls-65" x1="717.62" y1="449.35" x2="730.9" y2="449.35"/><path class="cls-47" d="M1180.57,99.7s14.28-1.36,19.26,5.53A25.25,25.25,0,0,1,1218,99.59"/><path class="cls-47" d="M1154.1,109.73s14.28-1.36,19.26,5.53a25.25,25.25,0,0,1,18.17-5.64"/><line class="cls-35" x1="1054.21" y1="375.5" x2="1058.78" y2="375.5"/><line class="cls-35" x1="1095.43" y1="375.5" x2="1134.66" y2="375.5"/><line class="cls-65" x1="994.45" y1="438.02" x2="1016.35" y2="438.02"/><line class="cls-65" x1="1020.91" y1="438.02" x2="1023.65" y2="438.02"/><line class="cls-65" x1="1028.21" y1="438.02" x2="1046.46" y2="438.02"/><line class="cls-65" x1="1061.13" y1="431" x2="1071.17" y2="431"/><line class="cls-65" x1="1073.9" y1="431" x2="1076.64" y2="431"/><line class="cls-65" x1="1001.66" y1="386.81" x2="1014.93" y2="386.81"/><line class="cls-65" x1="1022.07" y1="386.81" x2="1025.13" y2="386.81"/><line class="cls-65" x1="1030.23" y1="386.81" x2="1033.29" y2="386.81"/><line class="cls-65" x1="972.03" y1="399.58" x2="1011.27" y2="399.58"/><line class="cls-65" x1="1144.25" y1="357.51" x2="1156.11" y2="357.51"/><line class="cls-65" x1="1176.18" y1="357.51" x2="1189.87" y2="357.51"/><line class="cls-65" x1="1199" y1="357.51" x2="1208.12" y2="357.51"/><line class="cls-65" x1="1246.86" y1="379.2" x2="1258.09" y2="379.2"/><line class="cls-65" x1="1055.13" y1="373.68" x2="1059.69" y2="373.68"/><line class="cls-65" x1="1098.34" y1="373.68" x2="1137.58" y2="373.68"/><line class="cls-65" x1="1249.02" y1="415.49" x2="1263.62" y2="415.49"/><line class="cls-65" x1="1259.06" y1="424.61" x2="1262.71" y2="424.61"/><line class="cls-65" x1="1168.17" y1="399.31" x2="1192.66" y2="399.31"/><line class="cls-65" x1="1197.76" y1="399.31" x2="1200.82" y2="399.31"/><line class="cls-65" x1="36.06" y1="429.45" x2="47.92" y2="429.45"/><line class="cls-65" x1="51.57" y1="429.45" x2="56.14" y2="429.45"/><line class="cls-65" x1="60.7" y1="429.45" x2="68.91" y2="429.45"/><line class="cls-65" x1="61.61" y1="439.49" x2="66.17" y2="439.49"/><line class="cls-65" x1="70.74" y1="439.49" x2="92.63" y2="439.49"/><line class="cls-65" x1="120.01" y1="429.45" x2="127.31" y2="429.45"/><line class="cls-65" x1="251.12" y1="416.21" x2="265.89" y2="416.21"/><line class="cls-65" x1="276.97" y1="416.21" x2="297.89" y2="416.21"/><path class="cls-65" d="M396.27,437.38h37"/><line class="cls-65" x1="439.11" y1="437.71" x2="443.93" y2="437.71"/><line class="cls-65" x1="447.78" y1="437.71" x2="478.23" y2="437.71"/><path class="cls-65" d="M131,492.5H167.9"/><line class="cls-65" x1="172.14" y1="492.5" x2="175.16" y2="492.5"/><line class="cls-65" x1="177.58" y1="492.5" x2="203.57" y2="492.5"/><line class="cls-65" x1="310.66" y1="478.39" x2="312.48" y2="478.39"/><line class="cls-65" x1="316.68" y1="478.39" x2="332.32" y2="478.39"/><line class="cls-65" x1="201.72" y1="483.87" x2="217.36" y2="483.87"/><path class="cls-65" d="M466.57,472.41h27.79"/><line class="cls-65" x1="498.73" y1="472.65" x2="502.35" y2="472.65"/><line class="cls-65" x1="505.24" y1="472.65" x2="528.09" y2="472.65"/><line class="cls-65" x1="528.84" y1="464.44" x2="532.46" y2="464.44"/><line class="cls-65" x1="535.35" y1="464.44" x2="558.21" y2="464.44"/><line class="cls-35" x1="829.58" y1="349.55" x2="835.97" y2="349.55"/><line class="cls-35" x1="421.05" y1="349.55" x2="445.52" y2="349.55"/><line class="cls-35" x1="448.05" y1="349.55" x2="455.04" y2="349.55"/><line class="cls-35" x1="579.73" y1="370.41" x2="590.95" y2="370.41"/><line class="cls-67" x1="581.61" y1="369.42" x2="591.37" y2="369.42"/><path class="cls-55" d="M394,439.6h42.82"/><line class="cls-55" x1="441.73" y1="439.6" x2="445.24" y2="439.6"/><line class="cls-55" x1="448.05" y1="439.6" x2="478.23" y2="439.6"/><path class="cls-65" d="M396.27,437.38h37"/><line class="cls-65" x1="439.11" y1="437.71" x2="443.93" y2="437.71"/><line class="cls-65" x1="447.78" y1="437.71" x2="478.23" y2="437.71"/><path class="cls-35" d="M444.7,396.78h42.82"/><line class="cls-35" x1="492.43" y1="396.78" x2="495.94" y2="396.78"/><line class="cls-35" x1="498.75" y1="396.78" x2="528.94" y2="396.78"/><path class="cls-67" d="M447,395.47h37"/><line class="cls-67" x1="489.82" y1="395.8" x2="494.63" y2="395.8"/><line class="cls-67" x1="498.48" y1="395.8" x2="528.94" y2="395.8"/><line class="cls-93" x1="35.52" y1="137.86" x2="59.72" y2="137.86"/><line class="cls-90" x1="29.66" y1="150.72" x2="56.51" y2="150.72"/><line class="cls-90" x1="63.04" y1="150.72" x2="59.41" y2="150.72"/><line class="cls-90" x1="68.84" y1="150.72" x2="119.64" y2="150.72"/><path class="cls-18" d="M38,149.63s-8-5.81,0-15.24,18.87-.73,18.87-.73,2.18-5.81,6.53-6.53,9.43,2.18,9.43,2.18A19.3,19.3,0,0,1,91,117.7c13.79,0,19.59,10.16,21,16.69,0,0,10.16-.73,10.89,6.53s-2.9,8.71-2.9,8.71Z"/><polygon class="cls-89" points="20.53 355.11 6.64 355.11 13.59 323.37 20.53 355.11"/><line class="cls-52" x1="13.59" y1="338.53" x2="13.59" y2="360.23"/><line class="cls-52" x1="13.41" y1="345.63" x2="12.15" y2="343.59"/><line class="cls-52" x1="13.59" y1="349.85" x2="16.36" y2="345.28"/><line class="cls-52" x1="13.41" y1="352.8" x2="10.64" y2="348.23"/><rect class="cls-94" width="26" height="525"/><rect class="cls-95" x="1274" width="26" height="525" transform="translate(2574 525) rotate(-180)"/><path class="cls-96" d="M1185,451.59v-5.76l8.65-5.76v-4.32H1052.43c.72,4.32,2.88,7.21,7.93,8.65s4.32,8.65,4.32,8.65"/><line class="cls-96" x1="1058.19" y1="431.42" x2="1058.19" y2="435.02"/><line class="cls-96" x1="1071.88" y1="431.42" x2="1071.88" y2="435.02"/><line class="cls-96" x1="1079.09" y1="431.42" x2="1079.09" y2="435.02"/><line class="cls-96" x1="1085.57" y1="431.42" x2="1085.57" y2="435.02"/><line class="cls-96" x1="1058.19" y1="431.42" x2="1058.19" y2="435.02"/><line class="cls-96" x1="1071.88" y1="431.42" x2="1071.88" y2="435.02"/><line class="cls-96" x1="1079.09" y1="431.42" x2="1079.09" y2="435.02"/><line class="cls-96" x1="1085.57" y1="431.42" x2="1085.57" y2="435.02"/><line class="cls-96" x1="1064.67" y1="410.52" x2="1064.67" y2="435.02"/><line class="cls-96" x1="1152.58" y1="410.52" x2="1152.58" y2="435.02"/><line class="cls-96" x1="1127.36" y1="410.52" x2="1127.36" y2="435.02"/><polygon class="cls-96" points="1159.07 406.92 1060.35 406.92 1060.35 410.52 1156.19 410.52 1159.07 406.92"/><line class="cls-96" x1="1079.81" y1="365.58" x2="1079.81" y2="406.2"/><line class="cls-96" x1="1115.84" y1="388.9" x2="1115.84" y2="406.2"/><polyline class="cls-96" points="1148.52 435.02 1148.52 415.56 1135.03 415.56 1135.03 435.02"/><line class="cls-96" x1="1141.78" y1="416.28" x2="1141.78" y2="435.74"/><polyline class="cls-96" points="1079.81 388.9 1118.72 388.9 1121.6 385.3 1079.81 385.3"/><line class="cls-96" x1="1105.03" y1="388.9" x2="1105.03" y2="406.2"/><line class="cls-96" x1="1144.66" y1="401.15" x2="1144.66" y2="406.2"/><line class="cls-96" x1="1137.45" y1="401.15" x2="1137.45" y2="406.2"/><line class="cls-96" x1="1130.25" y1="401.15" x2="1130.25" y2="406.2"/><line class="cls-96" x1="1123.76" y1="401.15" x2="1123.76" y2="406.2"/><line class="cls-96" x1="1109.35" y1="401.15" x2="1109.35" y2="406.2"/><line class="cls-96" x1="1105.03" y1="400.43" x2="1147.54" y2="400.43"/><line class="cls-96" x1="1092.78" y1="431.42" x2="1092.78" y2="435.02"/><line class="cls-96" x1="1099.98" y1="431.42" x2="1099.98" y2="435.02"/><line class="cls-96" x1="1106.47" y1="431.42" x2="1106.47" y2="435.02"/><line class="cls-96" x1="1113.67" y1="431.42" x2="1113.67" y2="435.02"/><line class="cls-96" x1="1120.88" y1="431.42" x2="1120.88" y2="435.02"/><line class="cls-96" x1="1155.47" y1="431.42" x2="1155.47" y2="435.02"/><line class="cls-96" x1="1162.67" y1="431.42" x2="1162.67" y2="435.02"/><line class="cls-96" x1="1176.36" y1="431.42" x2="1176.36" y2="435.02"/><line class="cls-96" x1="1183.57" y1="431.42" x2="1183.57" y2="435.02"/><line class="cls-96" x1="1190.77" y1="431.42" x2="1190.77" y2="435.02"/><rect class="cls-97" x="1084.85" y="392.51" width="6.49" height="10.09"/><rect class="cls-97" x="1094.94" y="392.51" width="6.49" height="10.09"/><line class="cls-96" x1="1084.85" y1="398.99" x2="1090.62" y2="398.99"/><line class="cls-96" x1="1095.66" y1="398.99" x2="1101.42" y2="398.99"/><line class="cls-96" x1="1169.88" y1="431.42" x2="1169.88" y2="435.02"/><circle class="cls-29" cx="1137.45" cy="427.09" r="0.72"/><circle class="cls-29" cx="1146.1" cy="427.09" r="0.72"/><circle class="cls-98" cx="1079.09" cy="419.89" r="6.67"/><circle class="cls-23" cx="1079.09" cy="419.89" r="4.32"/><ellipse class="cls-23" cx="1080.35" cy="420.07" rx="3.06" ry="3.42"/><circle class="cls-98" cx="1101.42" cy="419.89" r="6.67"/><circle class="cls-23" cx="1101.42" cy="419.89" r="4.32"/><ellipse class="cls-23" cx="1102.68" cy="420.07" rx="3.06" ry="3.42"/><polyline class="cls-99" points="1077.98 366.72 1070.78 369.92 1077.98 373.92"/><polyline class="cls-100" points="1077.98 383.14 1069.61 387.46 1077.98 391.79"/><line class="cls-29" x1="1070.78" y1="387.46" x2="1077.98" y2="387.46"/><path class="cls-18" d="M1078,375.36H1071a.11.11,0,0,0-.08.19l2.7,2.7-2.7,2.7a.11.11,0,0,0,.08.19H1078"/><path class="cls-101" d="M1184.1,444.92l8.65-5.76v-2.5H1054.25c.66,5.27,7.59,6.37,8.84,7.73"/><line class="cls-96" x1="1055.31" y1="430.7" x2="1193.66" y2="430.7"/><rect class="cls-102" x="1075.93" y="375.36" width="2.05" height="5.76"/></g></g></svg>