<svg xmlns="http://www.w3.org/2000/svg" viewBox="0 0 256.24 43"><defs><style>.cls-1,.cls-2{fill:#712d37;}.cls-1{opacity:0.3;}.cls-3{fill:none;stroke:#712d37;stroke-linecap:round;stroke-linejoin:round;stroke-width:3px;}</style></defs><title>IT BEGINS HERE_Red</title><g id="Layer_2" data-name="Layer 2"><g id="Home_Page" data-name="Home Page"><circle class="cls-1" cx="21.5" cy="21.5" r="21.5"/><path class="cls-2" d="M60.41,30.13v-16h3.4v16Z"/><path class="cls-2" d="M72.51,30.13V16.95H68V14.14H80.38v2.81H75.9V30.13Z"/><path class="cls-2" d="M91.71,14.14h6.81c2.85,0,4.79,1.44,4.79,3.93a3.39,3.39,0,0,1-2.78,3.5v.15a3.73,3.73,0,0,1,3.57,3.89c0,2.94-2.45,4.52-5.57,4.52H91.71Zm3.36,6.6h2C99,20.73,100,20,100,18.65s-.94-2-2.27-2H95.07Zm0,6.9h2.26c2,0,3.33-.61,3.33-2.26,0-1.5-1-2.34-2.77-2.34H95.07Z"/><path class="cls-2" d="M119.39,30.13H108.95v-16h10.44v2.74h-7.08v3.89H119v2.55h-6.66v4.07h7.08Z"/><path class="cls-2" d="M134,19.3a2.93,2.93,0,0,0-3.14-2.65c-2,0-3.46,1.39-3.46,4.45v2c0,2.64,1,4.55,3.49,4.55,2,0,3.21-1.24,3.21-2.77v-.9H131V21.46h6.35v3.16c0,2.58-1.69,5.81-6.48,5.81S124,27.29,124,23.08v-2c0-4.39,2.57-7.25,6.93-7.25s6.29,2.7,6.4,5.47Z"/><path class="cls-2" d="M142.39,30.13v-16h3.4v16Z"/><path class="cls-2" d="M151.49,30.13v-16h2.78l6.84,10.27h.12V14.14h3.19v16h-2.77L154.79,19.8h-.12V30.13Z"/><path class="cls-2" d="M172.42,25.54c.09,1.18,1.16,2.24,3.19,2.24s2.89-.84,2.89-2.09c0-1.09-.82-1.62-2.44-2l-2.4-.55c-2.25-.48-4.12-1.75-4.12-4.46,0-3.14,2.67-4.89,6.06-4.89,3.57,0,6,2,6,4.79h-3.16c-.08-1.12-1-2.17-2.86-2.17-1.64,0-2.66.77-2.66,2,0,.93.75,1.55,2.18,1.84l2.43.54c2.34.5,4.32,1.64,4.32,4.55,0,3.14-2.45,5.07-6.41,5.07-4.71,0-6.23-2.64-6.28-4.9Z"/><path class="cls-2" d="M203.74,30.13V23.37h-6.45v6.76h-3.4v-16h3.4v6.45h6.45V14.14h3.4v16Z"/><path class="cls-2" d="M223.28,30.13H212.84v-16h10.44v2.74H216.2v3.89h6.66v2.55H216.2v4.07h7.08Z"/><path class="cls-2" d="M240.73,19.25a4.72,4.72,0,0,1-2.89,4.5L241,30.13h-3.77l-2.78-5.88h-2.64v5.88h-3.34v-16H235C238.88,14.14,240.73,16.36,240.73,19.25Zm-6.23,2.52c1.69,0,2.74-.86,2.74-2.46a2.44,2.44,0,0,0-2.7-2.57h-2.68v5Z"/><path class="cls-2" d="M256.24,30.13H245.8v-16h10.44v2.74h-7.08v3.89h6.66v2.55h-6.66v4.07h7.08Z"/><polyline class="cls-3" points="18.5 14.25 26.5 21.25 19 28.75"/></g></g></svg>