<svg xmlns="http://www.w3.org/2000/svg" viewBox="0 0 150 150"><defs><style>.cls-1{fill:#722c36;}.cls-2{fill:#b9d0ec;}.cls-3,.cls-4{fill:none;}.cls-3{stroke:#404041;stroke-linecap:round;stroke-linejoin:round;stroke-width:3px;}</style></defs><title>service 2</title><g id="Layer_2" data-name="Layer 2"><g id="Services_Icon" data-name="Services Icon"><rect class="cls-1" x="22.63" y="39.18" width="105.39" height="16.88"/><rect class="cls-2" x="62.43" y="100.18" width="60.74" height="7.38"/><rect class="cls-2" x="29.63" y="117.23" width="41.09" height="7.38"/><rect class="cls-2" x="43.64" y="83.13" width="60.74" height="7.38"/><path class="cls-3" d="M43.48,45.7s-3.67-1.08-3.67-6.48v-6s1.06-4.07,5.13-4.16A4.68,4.68,0,0,1,49.8,32.5v5.31"/><path class="cls-3" d="M104.67,45.7S101,44.62,101,39.22v-6s1.06-4.07,5.13-4.16A4.68,4.68,0,0,1,111,32.5v5.31"/><line class="cls-3" x1="46.3" y1="39.18" x2="94.49" y2="39.18"/><path class="cls-3" d="M33.62,39.18H26.32s-3.68-.59-3.68,2.72v90.37s-.28,2.28,2.35,2.22,100.29,0,100.29,0,2.74.17,2.74-2V41.71s-.1-2.54-2.4-2.53-18.47,0-18.47,0"/><circle class="cls-3" cx="83.93" cy="120.82" r="0.42"/><circle class="cls-3" cx="100.85" cy="120.69" r="0.42"/><circle class="cls-3" cx="49.98" cy="69.83" r="0.42"/><circle class="cls-3" cx="33.03" cy="69.88" r="0.42"/><circle class="cls-3" cx="66.9" cy="69.96" r="0.42"/><circle class="cls-3" cx="117.86" cy="120.75" r="0.42"/><path class="cls-3" d="M63.47,124.62v-5.38s-.31-1.92,1.92-2,5.33,0,5.33,0"/><path class="cls-3" d="M46.45,124.62v-5.38s-.31-1.92,1.92-2,5.33,0,5.33,0"/><path class="cls-3" d="M29.64,124.62v-5.38s-.31-1.92,1.92-2,5.33,0,5.33,0"/><path class="cls-3" d="M63.47,107.77v-5.38s-.31-1.92,1.92-2,5.33,0,5.33,0"/><path class="cls-3" d="M46.45,107.77v-5.38s-.31-1.92,1.92-2,5.33,0,5.33,0"/><path class="cls-3" d="M29.64,107.77v-5.38s-.31-1.92,1.92-2,5.33,0,5.33,0"/><path class="cls-3" d="M63.47,90.51V85.13s-.31-1.92,1.92-2,5.33,0,5.33,0"/><path class="cls-3" d="M46.45,90.51V85.13s-.31-1.92,1.92-2,5.33,0,5.33,0"/><path class="cls-3" d="M29.64,90.51V85.13s-.31-1.92,1.92-2,5.33,0,5.33,0"/><path class="cls-3" d="M114.15,107.77v-5.38s-.31-1.92,1.92-2,5.33,0,5.33,0"/><path class="cls-3" d="M97.13,107.77v-5.38s-.31-1.92,1.92-2,5.33,0,5.33,0"/><path class="cls-3" d="M80.32,107.77v-5.38s-.31-1.92,1.92-2,5.33,0,5.33,0"/><path class="cls-3" d="M114.15,90.51V85.13s-.31-1.92,1.92-2,5.33,0,5.33,0"/><path class="cls-3" d="M97.13,90.51V85.13s-.31-1.92,1.92-2,5.33,0,5.33,0"/><path class="cls-3" d="M80.32,90.51V85.13s-.31-1.92,1.92-2,5.33,0,5.33,0"/><path class="cls-3" d="M114.15,73.86V68.47s-.31-1.92,1.92-2,5.33,0,5.33,0"/><path class="cls-3" d="M97.13,73.86V68.47s-.31-1.92,1.92-2,5.33,0,5.33,0"/><path class="cls-3" d="M80.32,73.86V68.47s-.31-1.92,1.92-2,5.33,0,5.33,0"/><line class="cls-3" x1="22.63" y1="56.06" x2="128.01" y2="56.06"/><rect class="cls-4" width="150" height="150"/></g></g></svg>