<svg xmlns="http://www.w3.org/2000/svg" viewBox="0 0 150 150"><defs><style>.cls-1,.cls-5,.cls-6,.cls-7{fill:none;}.cls-12,.cls-2{fill:#193057;}.cls-3{fill:#024b87;}.cls-4{fill:#722c36;}.cls-11,.cls-12,.cls-13,.cls-4,.cls-5,.cls-6,.cls-7,.cls-8{stroke:#000;}.cls-11,.cls-12,.cls-13,.cls-4,.cls-5,.cls-7{stroke-linecap:round;}.cls-11,.cls-12,.cls-13,.cls-4,.cls-5{stroke-linejoin:round;}.cls-11,.cls-12,.cls-13,.cls-4,.cls-5,.cls-6,.cls-8{stroke-width:2px;}.cls-6,.cls-7,.cls-8{stroke-miterlimit:10;}.cls-7{stroke-width:3px;}.cls-13,.cls-8{fill:#fff;}.cls-11,.cls-9{fill:#fcc062;}.cls-10{fill:#fbb03b;}</style></defs><title>Service 5</title><g id="Layer_2" data-name="Layer 2"><g id="Services_Icon" data-name="Services Icon"><rect class="cls-1" width="150" height="150"/><path class="cls-2" d="M126.37,96.39C124.75,103,118,108,109.8,108,100.45,108,93,101.5,93,93.53A12.94,12.94,0,0,1,94.72,87"/><path class="cls-3" d="M126.62,93.4a10.62,10.62,0,0,1-.37,2.87"/><path class="cls-3" d="M94.72,86.92"/><path class="cls-4" d="M82.14,108.72l-41.4-.37L37,93.53l-13.55-50H8.26S3.9,44,3.53,39.48a4.35,4.35,0,0,1,3.86-5H27.28l18.27,69"/><path class="cls-5" d="M38.79,93.53H22.71s-4.24-1.25-5.11,4.36-2.87,20.68-2.87,20.68-1,4.86,4.24,4.86H32.81"/><line class="cls-5" x1="26.7" y1="113.46" x2="15.36" y2="113.46"/><line class="cls-5" x1="26.7" y1="103.49" x2="16.73" y2="103.49"/><line class="cls-5" x1="120.39" y1="123.3" x2="63.33" y2="123.3"/><rect class="cls-6" x="57.46" y="64.16" width="59.62" height="35.77" rx="10.99" ry="10.99" transform="translate(174.54 164.1) rotate(-180)"/><line class="cls-7" x1="99.2" y1="75.42" x2="99.2" y2="86.88"/><line class="cls-7" x1="91.25" y1="75.42" x2="91.25" y2="86.88"/><line class="cls-7" x1="83.3" y1="75.42" x2="83.3" y2="86.88"/><line class="cls-7" x1="75.35" y1="75.42" x2="75.35" y2="86.88"/><path class="cls-8" d="M44.54,123h97.38a65.85,65.85,0,0,0-1.49-14.63C139,101.17,136.28,95.13,126,92.76,93.71,85.31,31.84,72.1,31.84,72.1Z"/><line class="cls-5" x1="61.56" y1="89.66" x2="37.66" y2="89.66"/><line class="cls-5" x1="40.16" y1="97.76" x2="66.49" y2="97.76"/><circle class="cls-9" cx="134.71" cy="123.43" r="12.33"/><circle class="cls-10" cx="48" cy="123.3" r="13.95"/><circle class="cls-11" cx="48" cy="123.55" r="14.95"/><ellipse class="cls-5" cx="134.46" cy="123.55" rx="12.58" ry="12.46"/><path class="cls-12" d="M102.61,88.52S100.3,103.23,83.71,101s-13-19.72-13-19.72"/><circle class="cls-13" cx="47.79" cy="123.55" r="6.39"/><ellipse class="cls-13" cx="134.39" cy="123.55" rx="5.38" ry="5.33"/></g></g></svg>