<svg xmlns="http://www.w3.org/2000/svg" viewBox="0 0 150 150"><defs><style>.cls-1{fill:#b9d1ef;}.cls-1,.cls-2,.cls-3,.cls-4{stroke:#000;stroke-linecap:round;stroke-miterlimit:10;stroke-width:2px;}.cls-2,.cls-6{fill:none;}.cls-3{fill:#fff;}.cls-4{fill:#722c36;}.cls-5{fill:#fcc062;}</style></defs><title>Service 1</title><g id="Layer_2" data-name="Layer 2"><g id="Services_Icon" data-name="Services Icon"><circle class="cls-1" cx="113.42" cy="115.74" r="17.95"/><line class="cls-2" x1="20.13" y1="133.66" x2="72.76" y2="133.66"/><path class="cls-2" d="M28.78,133.66s.33-6.32,5.64-6.32H57.63s6.63-.45,5.8,6.32"/><path class="cls-2" d="M41.29,127.33s-.35-65.85,0-87.59c.07-4.23,2-11.34,10.77-13H66.23S79,26.38,79,38V67.73s.42,7.53,10.55,5.39"/><path class="cls-2" d="M50.65,127.33V42.47s-.3-6,4.47-6.85h9.77s6,.6,5.42,6l0,28.24s-.19,11.59,13.13,12.49"/><line class="cls-2" x1="45.64" y1="91.79" x2="41.97" y2="91.79"/><line class="cls-2" x1="45.64" y1="88.48" x2="41.97" y2="88.48"/><line class="cls-2" x1="45.64" y1="84.91" x2="41.97" y2="84.91"/><line class="cls-2" x1="76.06" y1="52.15" x2="78.15" y2="52.15"/><line class="cls-2" x1="76.06" y1="55.58" x2="78.15" y2="55.58"/><line class="cls-2" x1="76.06" y1="58.8" x2="78.15" y2="58.8"/><circle class="cls-2" cx="105.52" cy="76.65" r="3.53"/><line class="cls-2" x1="120.15" y1="76.65" x2="109.35" y2="76.65"/><path class="cls-2" d="M112.4,133.66H97.91S80.2,135,75.61,120.22a26.62,26.62,0,0,1-.85-10.15C75.91,96.82,84,82.59,84,82.59l8.5-13.1a15.83,15.83,0,0,1,10.59-4.88c6.41-.14,11.15,0,11.15,0a8.19,8.19,0,0,1,6.69,5.57V99.12"/><line class="cls-2" x1="82.23" y1="110.49" x2="74.76" y2="110.49"/><line class="cls-2" x1="83.98" y1="105.87" x2="75.61" y2="105.87"/><line class="cls-2" x1="85.93" y1="101.46" x2="76.79" y2="101.46"/><circle class="cls-2" cx="113.42" cy="115.74" r="17.95"/><circle class="cls-3" cx="113.67" cy="115.76" r="5.27"/><path class="cls-4" d="M28.78,133.66s.33-6.32,5.64-6.32H57.63s6.63-.45,5.8,6.32"/><circle class="cls-5" cx="105.52" cy="76.65" r="3.53"/><rect class="cls-6" width="150" height="150"/></g></g></svg>