<svg xmlns="http://www.w3.org/2000/svg" viewBox="0 0 150 150"><defs><style>.cls-1,.cls-4{fill:none;}.cls-2{fill:#722c36;}.cls-3{fill:#b9d0ec;}.cls-4{stroke:#3b312f;stroke-linecap:round;stroke-linejoin:round;stroke-width:3px;}</style></defs><title>Service 4</title><g id="Layer_2" data-name="Layer 2"><g id="Services_Icon" data-name="Services Icon"><rect class="cls-1" width="150" height="150"/><path class="cls-2" d="M69.41,66.38s-1-9.74-6.08-12.37c-1.85-1,.15-8.33.15-8.33L76.42,40.5l10.73,6.34S89.31,51.15,88.3,52c-4.73,4-7.56,15.25-7.56,15.25"/><path class="cls-3" d="M34.76,118.6,26,126.47l.09,2.1h5.81c4.86,0,11.72,1.14,14.58-2.79,2.3-3.17,2.36-4.57,3-7.19"/><path class="cls-3" d="M66.48,68.66s-22.33-.31-32,16.08a11.64,11.64,0,0,0-1.58,5.92v18.4H48.33s-.31-17.21,1-22.68C51.69,76.62,66.48,68.66,66.48,68.66Z"/><path class="cls-4" d="M23.66,135.5H125.9v-8.79S119,127,117.11,119H32.71s-1.6,8-9.05,8.25Z"/><path class="cls-4" d="M43.36,127.25s5.06-.27,5.32-8.25"/><line class="cls-4" x1="63.33" y1="127.25" x2="65.99" y2="127.25"/><line class="cls-4" x1="75.28" y1="127.25" x2="83.57" y2="127.25"/><line class="cls-4" x1="92.62" y1="127.25" x2="125.9" y2="127.25"/><path class="cls-4" d="M35.91,81.72s-3.73,6.39-3.73,10.92v17.57h85.73V92.37s1.33-19.17-34.35-24.49c0,0-11.71-3.19-30.35,2.93"/><path class="cls-4" d="M50.9,85.49a25.4,25.4,0,0,1,6.92-10.92"/><line class="cls-4" x1="49.34" y1="92.73" x2="49.34" y2="109.06"/><path class="cls-4" d="M41.67,82.2s1.32-6.54,7.67-7.62c0,0-7-1.23-7.67-7.54,0,0-1.68,7.43-7.29,7.58C34.37,74.62,41.53,76.3,41.67,82.2Z"/><path class="cls-4" d="M68.28,67.44s1-8.49-3.61-13.27"/><path class="cls-4" d="M75,54.16H88.3V47.73c-13.61-15-26.17,0-26.17,0v6.43h6.24"/><path class="cls-4" d="M82,67s-.69-9.14,4.39-12.88"/></g></g></svg>