<svg xmlns="http://www.w3.org/2000/svg" xmlns:xlink="http://www.w3.org/1999/xlink" viewBox="0 0 1296.16 527"><defs><style>.cls-1,.cls-103,.cls-19,.cls-21,.cls-24,.cls-26,.cls-29,.cls-35,.cls-38,.cls-40,.cls-44,.cls-51,.cls-52,.cls-53,.cls-54,.cls-55,.cls-56,.cls-57,.cls-58,.cls-63,.cls-64,.cls-65,.cls-66,.cls-67,.cls-68,.cls-75,.cls-76,.cls-78,.cls-79,.cls-86,.cls-90,.cls-91,.cls-93,.cls-96{fill:none;}.cls-2{clip-path:url(#clip-path);}.cls-3{clip-path:url(#clip-path-2);}.cls-4{fill:#414042;}.cls-5{clip-path:url(#clip-path-3);}.cls-6{clip-path:url(#clip-path-4);}.cls-7{clip-path:url(#clip-path-5);}.cls-8{clip-path:url(#clip-path-6);}.cls-9{clip-path:url(#clip-path-7);}.cls-10{clip-path:url(#clip-path-8);}.cls-11{clip-path:url(#clip-path-9);}.cls-12{clip-path:url(#clip-path-10);}.cls-13{clip-path:url(#clip-path-11);}.cls-14{clip-path:url(#clip-path-12);}.cls-15{clip-path:url(#clip-path-13);}.cls-16{clip-path:url(#clip-path-14);}.cls-17{fill:#c3dbac;}.cls-18,.cls-28,.cls-97{fill:#b9d1ef;}.cls-19,.cls-23,.cls-24,.cls-25,.cls-28,.cls-29,.cls-31,.cls-33,.cls-34,.cls-36,.cls-44,.cls-45,.cls-47,.cls-51,.cls-52,.cls-53,.cls-57,.cls-58,.cls-59,.cls-61,.cls-96,.cls-97,.cls-98{stroke:#414042;}.cls-103,.cls-19,.cls-21,.cls-24,.cls-26,.cls-27,.cls-28,.cls-34,.cls-35,.cls-38,.cls-40,.cls-41,.cls-42,.cls-43,.cls-44,.cls-45,.cls-47,.cls-52,.cls-54,.cls-55,.cls-56,.cls-58,.cls-60,.cls-61,.cls-62,.cls-65,.cls-66,.cls-67,.cls-70,.cls-72,.cls-73,.cls-76,.cls-78,.cls-79,.cls-83,.cls-84,.cls-87,.cls-88,.cls-90,.cls-91{stroke-linecap:round;}.cls-103,.cls-19,.cls-21,.cls-24,.cls-29,.cls-33,.cls-34,.cls-35,.cls-36,.cls-46,.cls-48,.cls-50,.cls-51,.cls-54,.cls-55,.cls-56,.cls-65,.cls-66,.cls-67,.cls-68,.cls-73,.cls-75,.cls-79,.cls-85,.cls-86,.cls-90,.cls-91,.cls-93{stroke-miterlimit:10;}.cls-19,.cls-21,.cls-35,.cls-36,.cls-38,.cls-43,.cls-44,.cls-45,.cls-47,.cls-50,.cls-51,.cls-54,.cls-60,.cls-62,.cls-65,.cls-93,.cls-96,.cls-97{stroke-width:2px;}.cls-20{fill:#84c69f;}.cls-21{stroke:#414141;}.cls-22,.cls-85{fill:#c8dfae;}.cls-23,.cls-27,.cls-32,.cls-33,.cls-34,.cls-41,.cls-43,.cls-47,.cls-50,.cls-60,.cls-61,.cls-70,.cls-80,.cls-89{fill:#fff;}.cls-23,.cls-25,.cls-26,.cls-27,.cls-28,.cls-31,.cls-38,.cls-40,.cls-41,.cls-42,.cls-43,.cls-44,.cls-45,.cls-47,.cls-52,.cls-53,.cls-57,.cls-58,.cls-59,.cls-60,.cls-61,.cls-62,.cls-63,.cls-64,.cls-70,.cls-72,.cls-76,.cls-78,.cls-80,.cls-81,.cls-82,.cls-83,.cls-84,.cls-87,.cls-88,.cls-89,.cls-96,.cls-97,.cls-98{stroke-linejoin:round;}.cls-25,.cls-37,.cls-45,.cls-46,.cls-48{fill:url(#New_Pattern_2);}.cls-103,.cls-26,.cls-27,.cls-62,.cls-88,.cls-89,.cls-90{stroke:#4d4d4d;}.cls-30,.cls-59,.cls-73{fill:#fcc062;}.cls-31,.cls-36,.cls-98,.cls-99{fill:#722c36;}.cls-31,.cls-57,.cls-58,.cls-59,.cls-63{stroke-width:1.4px;}.cls-35,.cls-55,.cls-56{stroke:#00468b;}.cls-38,.cls-50,.cls-60,.cls-68,.cls-70,.cls-72,.cls-73,.cls-75,.cls-76,.cls-78,.cls-79,.cls-80,.cls-81,.cls-82,.cls-83,.cls-84,.cls-85,.cls-86,.cls-87{stroke:#333;}.cls-39{fill:#fbb03b;}.cls-40,.cls-41,.cls-43,.cls-63,.cls-64{stroke:#000;}.cls-42,.cls-72{fill:#8eb9db;}.cls-42{stroke:#8eb9db;}.cls-45,.cls-46{opacity:0.5;}.cls-46,.cls-48{stroke:url(#New_Pattern_3);}.cls-49{fill:url(#New_Pattern_3);}.cls-54,.cls-91{stroke:#024b87;}.cls-55,.cls-66,.cls-75,.cls-78,.cls-90,.cls-91{stroke-width:3px;}.cls-56{stroke-width:2.5px;}.cls-62,.cls-87,.cls-88{fill:#e6e7e8;}.cls-64{stroke-width:1.5px;}.cls-65,.cls-66,.cls-67{stroke:#b9d1ef;}.cls-68,.cls-70,.cls-72,.cls-73,.cls-76,.cls-79,.cls-80,.cls-81,.cls-82,.cls-83,.cls-84{stroke-width:1.4px;}.cls-69{fill:url(#New_Pattern_2-21);}.cls-71{fill:url(#New_Pattern_2-23);}.cls-74{fill:#333;}.cls-77{fill:url(#New_Pattern_2-25);}.cls-81{fill:url(#New_Pattern_2-27);}.cls-82{fill:url(#New_Pattern_2-29);}.cls-83{fill:url(#New_Pattern_2-31);}.cls-84{fill:url(#New_Pattern_2-33);}.cls-92{opacity:0.75;fill:url(#New_Gradient_Swatch);}.cls-93{stroke:#020202;}.cls-94{fill:url(#linear-gradient);}.cls-95{fill:url(#linear-gradient-2);}.cls-100{fill:#87c4b3;}.cls-101{fill:#193057;}.cls-102{fill:#00468b;}.cls-103{stroke-width:1.28px;}</style><clipPath id="clip-path"><circle class="cls-1" cx="4.5" cy="8" r="1"/></clipPath><clipPath id="clip-path-2"><rect class="cls-1" x="1.5" y="5" width="6" height="8"/></clipPath><clipPath id="clip-path-3"><circle class="cls-1" cx="1.5" cy="8" r="1"/></clipPath><clipPath id="clip-path-4"><rect class="cls-1" x="-1.5" y="5" width="6" height="8"/></clipPath><clipPath id="clip-path-5"><circle class="cls-1" cx="6" cy="4" r="1"/></clipPath><clipPath id="clip-path-6"><rect class="cls-1" x="3" y="1" width="6" height="8"/></clipPath><clipPath id="clip-path-7"><circle class="cls-1" cx="3" cy="4" r="1"/></clipPath><clipPath id="clip-path-8"><rect class="cls-1" y="1" width="6" height="8"/></clipPath><clipPath id="clip-path-9"><circle class="cls-1" cy="4" r="1"/></clipPath><clipPath id="clip-path-10"><rect class="cls-1" x="-3" y="1" width="6" height="8"/></clipPath><clipPath id="clip-path-11"><circle class="cls-1" cx="4.5" r="1"/></clipPath><clipPath id="clip-path-12"><rect class="cls-1" x="1.5" y="-3" width="6" height="8"/></clipPath><clipPath id="clip-path-13"><circle class="cls-1" cx="1.5" r="1"/></clipPath><clipPath id="clip-path-14"><rect class="cls-1" x="-1.5" y="-3" width="6" height="8"/></clipPath><pattern id="New_Pattern_2" data-name="New Pattern 2" width="6" height="8" patternTransform="translate(3 6)" patternUnits="userSpaceOnUse" viewBox="0 0 6 8"><rect class="cls-1" width="6" height="8"/><g class="cls-2"><g class="cls-3"><circle class="cls-4" cx="6" cy="5" r="1"/><circle class="cls-4" cx="3" cy="5" r="1"/></g></g><g class="cls-5"><g class="cls-6"><circle class="cls-4" cx="3" cy="5" r="1"/><circle class="cls-4" cy="5" r="1"/></g></g><g class="cls-7"><g class="cls-8"><circle class="cls-4" cx="6" cy="5" r="1"/><circle class="cls-4" cx="3" cy="5" r="1"/><circle class="cls-4" cx="4.5" cy="1" r="1"/></g></g><g class="cls-9"><g class="cls-10"><circle class="cls-4" cx="4.5" cy="9" r="1"/><circle class="cls-4" cx="1.5" cy="9" r="1"/><circle class="cls-4" cx="6" cy="5" r="1"/><circle class="cls-4" cx="3" cy="5" r="1"/><circle class="cls-4" cy="5" r="1"/><circle class="cls-4" cx="4.5" cy="1" r="1"/><circle class="cls-4" cx="1.5" cy="1" r="1"/></g></g><g class="cls-11"><g class="cls-12"><circle class="cls-4" cx="3" cy="5" r="1"/><circle class="cls-4" cy="5" r="1"/><circle class="cls-4" cx="1.5" cy="1" r="1"/></g></g><g class="cls-13"><g class="cls-14"><circle class="cls-4" cx="6" cy="5" r="1"/><circle class="cls-4" cx="3" cy="5" r="1"/><circle class="cls-4" cx="4.5" cy="1" r="1"/><circle class="cls-4" cx="1.5" cy="1" r="1"/></g></g><g class="cls-15"><g class="cls-16"><circle class="cls-4" cx="3" cy="5" r="1"/><circle class="cls-4" cy="5" r="1"/><circle class="cls-4" cx="4.5" cy="1" r="1"/><circle class="cls-4" cx="1.5" cy="1" r="1"/></g></g></pattern><pattern id="New_Pattern_3" data-name="New Pattern 3" width="8" height="8" patternTransform="translate(3 6)" patternUnits="userSpaceOnUse" viewBox="0 0 8 8"><rect class="cls-1" width="8" height="8"/><circle class="cls-4" cx="6" cy="8" r="1"/><circle class="cls-4" cx="2" cy="8" r="1"/><circle class="cls-4" cx="8" cy="4" r="1"/><circle class="cls-4" cx="4" cy="4" r="1"/><circle class="cls-4" cy="4" r="1"/><circle class="cls-4" cx="6" r="1"/><circle class="cls-4" cx="2" r="1"/></pattern><pattern id="New_Pattern_2-21" data-name="New Pattern 2" width="6" height="8" patternTransform="translate(-6.91 16.68) scale(0.43 0.53)" patternUnits="userSpaceOnUse" viewBox="0 0 6 8"><rect class="cls-1" width="6" height="8"/><g class="cls-2"><g class="cls-3"><circle class="cls-4" cx="6" cy="5" r="1"/><circle class="cls-4" cx="3" cy="5" r="1"/></g></g><g class="cls-5"><g class="cls-6"><circle class="cls-4" cx="3" cy="5" r="1"/><circle class="cls-4" cy="5" r="1"/></g></g><g class="cls-7"><g class="cls-8"><circle class="cls-4" cx="6" cy="5" r="1"/><circle class="cls-4" cx="3" cy="5" r="1"/><circle class="cls-4" cx="4.5" cy="1" r="1"/></g></g><g class="cls-9"><g class="cls-10"><circle class="cls-4" cx="4.5" cy="9" r="1"/><circle class="cls-4" cx="1.5" cy="9" r="1"/><circle class="cls-4" cx="6" cy="5" r="1"/><circle class="cls-4" cx="3" cy="5" r="1"/><circle class="cls-4" cy="5" r="1"/><circle class="cls-4" cx="4.5" cy="1" r="1"/><circle class="cls-4" cx="1.5" cy="1" r="1"/></g></g><g class="cls-11"><g class="cls-12"><circle class="cls-4" cx="3" cy="5" r="1"/><circle class="cls-4" cy="5" r="1"/><circle class="cls-4" cx="1.5" cy="1" r="1"/></g></g><g class="cls-13"><g class="cls-14"><circle class="cls-4" cx="6" cy="5" r="1"/><circle class="cls-4" cx="3" cy="5" r="1"/><circle class="cls-4" cx="4.5" cy="1" r="1"/><circle class="cls-4" cx="1.5" cy="1" r="1"/></g></g><g class="cls-15"><g class="cls-16"><circle class="cls-4" cx="3" cy="5" r="1"/><circle class="cls-4" cy="5" r="1"/><circle class="cls-4" cx="4.5" cy="1" r="1"/><circle class="cls-4" cx="1.5" cy="1" r="1"/></g></g></pattern><pattern id="New_Pattern_2-23" data-name="New Pattern 2" width="6" height="8" patternTransform="translate(-3.06 10.32) scale(0.59)" patternUnits="userSpaceOnUse" viewBox="0 0 6 8"><rect class="cls-1" width="6" height="8"/><g class="cls-2"><g class="cls-3"><circle class="cls-4" cx="6" cy="5" r="1"/><circle class="cls-4" cx="3" cy="5" r="1"/></g></g><g class="cls-5"><g class="cls-6"><circle class="cls-4" cx="3" cy="5" r="1"/><circle class="cls-4" cy="5" r="1"/></g></g><g class="cls-7"><g class="cls-8"><circle class="cls-4" cx="6" cy="5" r="1"/><circle class="cls-4" cx="3" cy="5" r="1"/><circle class="cls-4" cx="4.5" cy="1" r="1"/></g></g><g class="cls-9"><g class="cls-10"><circle class="cls-4" cx="4.5" cy="9" r="1"/><circle class="cls-4" cx="1.5" cy="9" r="1"/><circle class="cls-4" cx="6" cy="5" r="1"/><circle class="cls-4" cx="3" cy="5" r="1"/><circle class="cls-4" cy="5" r="1"/><circle class="cls-4" cx="4.5" cy="1" r="1"/><circle class="cls-4" cx="1.5" cy="1" r="1"/></g></g><g class="cls-11"><g class="cls-12"><circle class="cls-4" cx="3" cy="5" r="1"/><circle class="cls-4" cy="5" r="1"/><circle class="cls-4" cx="1.5" cy="1" r="1"/></g></g><g class="cls-13"><g class="cls-14"><circle class="cls-4" cx="6" cy="5" r="1"/><circle class="cls-4" cx="3" cy="5" r="1"/><circle class="cls-4" cx="4.5" cy="1" r="1"/><circle class="cls-4" cx="1.5" cy="1" r="1"/></g></g><g class="cls-15"><g class="cls-16"><circle class="cls-4" cx="3" cy="5" r="1"/><circle class="cls-4" cy="5" r="1"/><circle class="cls-4" cx="4.5" cy="1" r="1"/><circle class="cls-4" cx="1.5" cy="1" r="1"/></g></g></pattern><pattern id="New_Pattern_2-25" data-name="New Pattern 2" width="6" height="8" patternTransform="translate(-3.36 10.38) scale(0.68 0.64)" patternUnits="userSpaceOnUse" viewBox="0 0 6 8"><rect class="cls-1" width="6" height="8"/><g class="cls-2"><g class="cls-3"><circle class="cls-4" cx="6" cy="5" r="1"/><circle class="cls-4" cx="3" cy="5" r="1"/></g></g><g class="cls-5"><g class="cls-6"><circle class="cls-4" cx="3" cy="5" r="1"/><circle class="cls-4" cy="5" r="1"/></g></g><g class="cls-7"><g class="cls-8"><circle class="cls-4" cx="6" cy="5" r="1"/><circle class="cls-4" cx="3" cy="5" r="1"/><circle class="cls-4" cx="4.5" cy="1" r="1"/></g></g><g class="cls-9"><g class="cls-10"><circle class="cls-4" cx="4.5" cy="9" r="1"/><circle class="cls-4" cx="1.5" cy="9" r="1"/><circle class="cls-4" cx="6" cy="5" r="1"/><circle class="cls-4" cx="3" cy="5" r="1"/><circle class="cls-4" cy="5" r="1"/><circle class="cls-4" cx="4.5" cy="1" r="1"/><circle class="cls-4" cx="1.5" cy="1" r="1"/></g></g><g class="cls-11"><g class="cls-12"><circle class="cls-4" cx="3" cy="5" r="1"/><circle class="cls-4" cy="5" r="1"/><circle class="cls-4" cx="1.5" cy="1" r="1"/></g></g><g class="cls-13"><g class="cls-14"><circle class="cls-4" cx="6" cy="5" r="1"/><circle class="cls-4" cx="3" cy="5" r="1"/><circle class="cls-4" cx="4.5" cy="1" r="1"/><circle class="cls-4" cx="1.5" cy="1" r="1"/></g></g><g class="cls-15"><g class="cls-16"><circle class="cls-4" cx="3" cy="5" r="1"/><circle class="cls-4" cy="5" r="1"/><circle class="cls-4" cx="4.5" cy="1" r="1"/><circle class="cls-4" cx="1.5" cy="1" r="1"/></g></g></pattern><pattern id="New_Pattern_2-27" data-name="New Pattern 2" width="6" height="8" patternTransform="translate(-10.25 13.67) scale(0.44 0.51)" patternUnits="userSpaceOnUse" viewBox="0 0 6 8"><rect class="cls-1" width="6" height="8"/><g class="cls-2"><g class="cls-3"><circle class="cls-4" cx="6" cy="5" r="1"/><circle class="cls-4" cx="3" cy="5" r="1"/></g></g><g class="cls-5"><g class="cls-6"><circle class="cls-4" cx="3" cy="5" r="1"/><circle class="cls-4" cy="5" r="1"/></g></g><g class="cls-7"><g class="cls-8"><circle class="cls-4" cx="6" cy="5" r="1"/><circle class="cls-4" cx="3" cy="5" r="1"/><circle class="cls-4" cx="4.5" cy="1" r="1"/></g></g><g class="cls-9"><g class="cls-10"><circle class="cls-4" cx="4.5" cy="9" r="1"/><circle class="cls-4" cx="1.5" cy="9" r="1"/><circle class="cls-4" cx="6" cy="5" r="1"/><circle class="cls-4" cx="3" cy="5" r="1"/><circle class="cls-4" cy="5" r="1"/><circle class="cls-4" cx="4.5" cy="1" r="1"/><circle class="cls-4" cx="1.5" cy="1" r="1"/></g></g><g class="cls-11"><g class="cls-12"><circle class="cls-4" cx="3" cy="5" r="1"/><circle class="cls-4" cy="5" r="1"/><circle class="cls-4" cx="1.5" cy="1" r="1"/></g></g><g class="cls-13"><g class="cls-14"><circle class="cls-4" cx="6" cy="5" r="1"/><circle class="cls-4" cx="3" cy="5" r="1"/><circle class="cls-4" cx="4.5" cy="1" r="1"/><circle class="cls-4" cx="1.5" cy="1" r="1"/></g></g><g class="cls-15"><g class="cls-16"><circle class="cls-4" cx="3" cy="5" r="1"/><circle class="cls-4" cy="5" r="1"/><circle class="cls-4" cx="4.5" cy="1" r="1"/><circle class="cls-4" cx="1.5" cy="1" r="1"/></g></g></pattern><pattern id="New_Pattern_2-29" data-name="New Pattern 2" width="6" height="8" patternTransform="translate(-9.66 15.41) scale(0.44 0.55)" patternUnits="userSpaceOnUse" viewBox="0 0 6 8"><rect class="cls-1" width="6" height="8"/><g class="cls-2"><g class="cls-3"><circle class="cls-4" cx="6" cy="5" r="1"/><circle class="cls-4" cx="3" cy="5" r="1"/></g></g><g class="cls-5"><g class="cls-6"><circle class="cls-4" cx="3" cy="5" r="1"/><circle class="cls-4" cy="5" r="1"/></g></g><g class="cls-7"><g class="cls-8"><circle class="cls-4" cx="6" cy="5" r="1"/><circle class="cls-4" cx="3" cy="5" r="1"/><circle class="cls-4" cx="4.5" cy="1" r="1"/></g></g><g class="cls-9"><g class="cls-10"><circle class="cls-4" cx="4.5" cy="9" r="1"/><circle class="cls-4" cx="1.5" cy="9" r="1"/><circle class="cls-4" cx="6" cy="5" r="1"/><circle class="cls-4" cx="3" cy="5" r="1"/><circle class="cls-4" cy="5" r="1"/><circle class="cls-4" cx="4.5" cy="1" r="1"/><circle class="cls-4" cx="1.5" cy="1" r="1"/></g></g><g class="cls-11"><g class="cls-12"><circle class="cls-4" cx="3" cy="5" r="1"/><circle class="cls-4" cy="5" r="1"/><circle class="cls-4" cx="1.5" cy="1" r="1"/></g></g><g class="cls-13"><g class="cls-14"><circle class="cls-4" cx="6" cy="5" r="1"/><circle class="cls-4" cx="3" cy="5" r="1"/><circle class="cls-4" cx="4.5" cy="1" r="1"/><circle class="cls-4" cx="1.5" cy="1" r="1"/></g></g><g class="cls-15"><g class="cls-16"><circle class="cls-4" cx="3" cy="5" r="1"/><circle class="cls-4" cy="5" r="1"/><circle class="cls-4" cx="4.5" cy="1" r="1"/><circle class="cls-4" cx="1.5" cy="1" r="1"/></g></g></pattern><pattern id="New_Pattern_2-31" data-name="New Pattern 2" width="6" height="8" patternTransform="translate(-5.07 7.2) scale(0.65)" patternUnits="userSpaceOnUse" viewBox="0 0 6 8"><rect class="cls-1" width="6" height="8"/><g class="cls-2"><g class="cls-3"><circle class="cls-4" cx="6" cy="5" r="1"/><circle class="cls-4" cx="3" cy="5" r="1"/></g></g><g class="cls-5"><g class="cls-6"><circle class="cls-4" cx="3" cy="5" r="1"/><circle class="cls-4" cy="5" r="1"/></g></g><g class="cls-7"><g class="cls-8"><circle class="cls-4" cx="6" cy="5" r="1"/><circle class="cls-4" cx="3" cy="5" r="1"/><circle class="cls-4" cx="4.5" cy="1" r="1"/></g></g><g class="cls-9"><g class="cls-10"><circle class="cls-4" cx="4.5" cy="9" r="1"/><circle class="cls-4" cx="1.5" cy="9" r="1"/><circle class="cls-4" cx="6" cy="5" r="1"/><circle class="cls-4" cx="3" cy="5" r="1"/><circle class="cls-4" cy="5" r="1"/><circle class="cls-4" cx="4.5" cy="1" r="1"/><circle class="cls-4" cx="1.5" cy="1" r="1"/></g></g><g class="cls-11"><g class="cls-12"><circle class="cls-4" cx="3" cy="5" r="1"/><circle class="cls-4" cy="5" r="1"/><circle class="cls-4" cx="1.5" cy="1" r="1"/></g></g><g class="cls-13"><g class="cls-14"><circle class="cls-4" cx="6" cy="5" r="1"/><circle class="cls-4" cx="3" cy="5" r="1"/><circle class="cls-4" cx="4.5" cy="1" r="1"/><circle class="cls-4" cx="1.5" cy="1" r="1"/></g></g><g class="cls-15"><g class="cls-16"><circle class="cls-4" cx="3" cy="5" r="1"/><circle class="cls-4" cy="5" r="1"/><circle class="cls-4" cx="4.5" cy="1" r="1"/><circle class="cls-4" cx="1.5" cy="1" r="1"/></g></g></pattern><pattern id="New_Pattern_2-33" data-name="New Pattern 2" width="6" height="8" patternTransform="translate(20.46 7.2) scale(0.65)" patternUnits="userSpaceOnUse" viewBox="0 0 6 8"><rect class="cls-1" width="6" height="8"/><g class="cls-2"><g class="cls-3"><circle class="cls-4" cx="6" cy="5" r="1"/><circle class="cls-4" cx="3" cy="5" r="1"/></g></g><g class="cls-5"><g class="cls-6"><circle class="cls-4" cx="3" cy="5" r="1"/><circle class="cls-4" cy="5" r="1"/></g></g><g class="cls-7"><g class="cls-8"><circle class="cls-4" cx="6" cy="5" r="1"/><circle class="cls-4" cx="3" cy="5" r="1"/><circle class="cls-4" cx="4.5" cy="1" r="1"/></g></g><g class="cls-9"><g class="cls-10"><circle class="cls-4" cx="4.5" cy="9" r="1"/><circle class="cls-4" cx="1.5" cy="9" r="1"/><circle class="cls-4" cx="6" cy="5" r="1"/><circle class="cls-4" cx="3" cy="5" r="1"/><circle class="cls-4" cy="5" r="1"/><circle class="cls-4" cx="4.5" cy="1" r="1"/><circle class="cls-4" cx="1.5" cy="1" r="1"/></g></g><g class="cls-11"><g class="cls-12"><circle class="cls-4" cx="3" cy="5" r="1"/><circle class="cls-4" cy="5" r="1"/><circle class="cls-4" cx="1.5" cy="1" r="1"/></g></g><g class="cls-13"><g class="cls-14"><circle class="cls-4" cx="6" cy="5" r="1"/><circle class="cls-4" cx="3" cy="5" r="1"/><circle class="cls-4" cx="4.5" cy="1" r="1"/><circle class="cls-4" cx="1.5" cy="1" r="1"/></g></g><g class="cls-15"><g class="cls-16"><circle class="cls-4" cx="3" cy="5" r="1"/><circle class="cls-4" cy="5" r="1"/><circle class="cls-4" cx="4.5" cy="1" r="1"/><circle class="cls-4" cx="1.5" cy="1" r="1"/></g></g></pattern><linearGradient id="New_Gradient_Swatch" x1="921.9" y1="454.86" x2="925.9" y2="322.97" gradientUnits="userSpaceOnUse"><stop offset="0.17" stop-color="#1b1464"/><stop offset="0.66" stop-color="#f25b45"/><stop offset="0.7" stop-color="#f46d43"/><stop offset="0.78" stop-color="#f78a3f"/><stop offset="0.85" stop-color="#f99f3d"/><stop offset="0.93" stop-color="#fbac3b"/><stop offset="1" stop-color="#fbb03b"/></linearGradient><linearGradient id="linear-gradient" y1="263.5" x2="27" y2="263.5" gradientUnits="userSpaceOnUse"><stop offset="0.69" stop-color="#fff"/><stop offset="0.72" stop-color="#fff" stop-opacity="0.98"/><stop offset="0.76" stop-color="#fff" stop-opacity="0.93"/><stop offset="0.8" stop-color="#fff" stop-opacity="0.84"/><stop offset="0.84" stop-color="#fff" stop-opacity="0.71"/><stop offset="0.89" stop-color="#fff" stop-opacity="0.55"/><stop offset="0.93" stop-color="#fff" stop-opacity="0.35"/><stop offset="0.98" stop-color="#fff" stop-opacity="0.12"/><stop offset="1" stop-color="#fff" stop-opacity="0"/></linearGradient><linearGradient id="linear-gradient-2" x1="1365.84" x2="1388" gradientTransform="matrix(1, 0, 0, -1, -91.84, 527)" xlink:href="#linear-gradient"/></defs><title>HomeBanner</title><g id="Layer_2" data-name="Layer 2"><g id="Home_Page" data-name="Home Page"><path class="cls-17" d="M1228.8,295.94c8.83-2.3,30-6.39,30.14-6.42,8.47-1.5,17.44-2.89,26.78-4.18l.25,0c1.58-.22,3.88-.43,5.48-.64l-.17,28.85h-32.72l-77-.67"/><path class="cls-18" d="M230.68,39.06H227.3A17.57,17.57,0,0,0,193,33.74a11.71,11.71,0,1,0-3.52,22.88h41.21A8.36,8.36,0,0,0,239,48.29v-.9A8.36,8.36,0,0,0,230.68,39.06Z"/><path class="cls-18" d="M485.21,154.26h-3.38a17.57,17.57,0,0,0-34.31-5.31A11.71,11.71,0,1,0,444,171.83h41.21a8.36,8.36,0,0,0,8.33-8.33v-.9A8.36,8.36,0,0,0,485.21,154.26Z"/><path class="cls-18" d="M999,177.76s-7.65-1.77-7.06-10.6,7.06-10,7.06-10,7.65-2.35,11.19,1.77c0,0,5.3-10,14.72-2.35,0,0,4.1-9.42,14.72-9.42,11.19,0,14.72,10,14.72,10s9.42-5.3,12.36,3.53c0,0,7.06-1.18,8.24,3.53,0,0,2.94-5.3,8.24-5.3s8.24,3.53,8.24,7.06c0,0,5.3-1.77,7.65-.59a5.66,5.66,0,0,1,3.53,5.3c0,2.35-1.18,6.48-3.53,7.65S999,177.76,999,177.76Z"/><line class="cls-19" x1="1015.48" y1="178.93" x2="1018.42" y2="178.93"/><line class="cls-19" x1="1022.54" y1="178.93" x2="1029.02" y2="178.93"/><line class="cls-19" x1="1032.55" y1="178.93" x2="1064.93" y2="178.93"/><line class="cls-19" x1="1068.47" y1="178.93" x2="1071.69" y2="178.93"/><path class="cls-19" d="M1058.45,183.64h8.24"/><line class="cls-19" x1="863.46" y1="280.43" x2="869.94" y2="280.43"/><line class="cls-19" x1="873.47" y1="280.43" x2="905.85" y2="280.43"/><line class="cls-19" x1="453.95" y1="173.17" x2="456.89" y2="173.17"/><line class="cls-19" x1="185.99" y1="57.25" x2="196.47" y2="57.25"/><line class="cls-19" x1="202.65" y1="57.25" x2="226.85" y2="57.25"/><line class="cls-19" x1="208.39" y1="62.47" x2="211.33" y2="62.47"/><line class="cls-19" x1="214.75" y1="62.47" x2="231.24" y2="62.47"/><line class="cls-20" x1="1232.92" y1="311.49" x2="1232.92" y2="277.62"/><path class="cls-20" d="M1252.21,312.6"/><line class="cls-19" x1="462.22" y1="173.17" x2="486.41" y2="173.17"/><path class="cls-18" d="M1152,40.12h-3.38a17.57,17.57,0,0,0-34.31-5.31,11.71,11.71,0,1,0-3.52,22.88H1152a8.36,8.36,0,0,0,8.33-8.33v-.9A8.36,8.36,0,0,0,1152,40.12Z"/><line class="cls-21" x1="1107.29" y1="58.31" x2="1117.76" y2="58.31"/><line class="cls-21" x1="1123.94" y1="58.31" x2="1148.14" y2="58.31"/><line class="cls-21" x1="1129.68" y1="63.53" x2="1132.63" y2="63.53"/><line class="cls-21" x1="1136.04" y1="63.53" x2="1152.53" y2="63.53"/><path class="cls-22" d="M323.81,336.09c-7.9-2.3-10.11-2.26-10.27-2.29-7.57-1.5-15.59-2.89-23.94-4.18l-.22,0c-92-14.18-282.87-16.07-282.87-16.07v44.28H289.72l17.66.17v-4.84l8.47.32"/><polygon class="cls-23" points="93.05 320.28 93.05 358.41 56.74 358.41 56.74 320.42 93.05 320.28"/><polygon class="cls-23" points="11.34 320.43 56.93 320.53 75.06 297.21 29.33 297.11 11.73 319.86 11.34 320.43"/><polygon class="cls-23" points="56.81 320.28 56.81 358.41 12.05 358.41 12.05 320.42 56.81 320.28"/><polygon class="cls-23" points="74.93 297.3 56.81 320.28 93.05 320.28 74.93 297.3"/><path class="cls-24" d="M36.14,321.14"/><path class="cls-24" d="M36.14,321.14"/><polygon class="cls-25" points="11.34 320.43 56.93 320.53 75.06 297.21 29.33 297.11 11.73 319.86 11.34 320.43"/><rect class="cls-18" x="40" y="327.05" width="6.63" height="14.59" transform="translate(86.63 668.69) rotate(-180)"/><g id="window"><polyline class="cls-26" points="37.72 342.65 37.72 327.06 46.62 327.06 46.62 345.52 37.01 345.52"/><line class="cls-26" x1="43.06" y1="342.65" x2="35.22" y2="342.65"/></g><line class="cls-27" x1="46.5" y1="333.53" x2="38.1" y2="333.53"/><line class="cls-27" x1="41.84" y1="333.53" x2="41.84" y2="327.01"/><path class="cls-28" d="M68.61,315.94a6.56,6.56,0,0,1,13.12,0Z"/><rect class="cls-18" x="66.05" y="326.34" width="22.03" height="23.54" transform="translate(154.13 676.23) rotate(-180)"/><line class="cls-29" x1="81.54" y1="326.51" x2="81.54" y2="351.92"/><line class="cls-29" x1="70.63" y1="326.51" x2="70.63" y2="348.14"/><path class="cls-30" d="M70.67,326.79H64.53L64,350.95h6.62s-2.45-10.3-5.29-15C65.34,336,70,336.74,70.67,326.79Z"/><path class="cls-30" d="M81.77,326.79h6.14l.53,24.16H81.81s2.45-10.3,5.29-15C87.1,336,82.48,336.74,81.77,326.79Z"/><rect class="cls-24" x="63.92" y="326.51" width="24.13" height="26.24"/><rect class="cls-18" x="24" y="327.05" width="6.63" height="14.59" transform="translate(54.63 668.69) rotate(-180)"/><g id="window-2" data-name="window"><polyline class="cls-26" points="21.72 342.65 21.72 327.06 30.62 327.06 30.62 345.52 21 345.52"/><line class="cls-26" x1="27.06" y1="342.65" x2="19.22" y2="342.65"/></g><line class="cls-27" x1="30.5" y1="333.53" x2="22.1" y2="333.53"/><line class="cls-27" x1="25.84" y1="333.53" x2="25.84" y2="327.01"/><path class="cls-31" d="M416.49,352.06c.3-.76-39.35-82.78-39.35-82.78l-38.89,83.38"/><polygon class="cls-32" points="372.58 278.52 406.39 352.72 337.92 352.72 372.58 278.52"/><path class="cls-33" d="M1233.94,297.47h-8.07a.54.54,0,0,1-.52-.67l.84-3.34,2.36-9.41.75-3a.54.54,0,0,1,1,0l4.12,15.74A.54.54,0,0,1,1233.94,297.47Z"/><line class="cls-34" x1="1229.9" y1="299.28" x2="1229.9" y2="301.96"/><line class="cls-24" x1="1227.33" y1="288.88" x2="1228.89" y2="288.88"/><line class="cls-24" x1="1229.56" y1="293.46" x2="1226.18" y2="293.46"/><rect class="cls-18" x="368.29" y="304.18" width="7.89" height="14.89"/><rect class="cls-18" x="368.29" y="345.32" width="7.89" height="3.58"/><rect class="cls-18" x="381.97" y="345.32" width="6.57" height="3.58"/><rect class="cls-18" x="381.97" y="324.71" width="6.57" height="18.05"/><polygon class="cls-18" points="382.42 321.42 382.42 308.39 387.64 321.42 382.42 321.42"/><polygon class="cls-18" points="364.6 319.6 364.6 306.57 359.38 319.6 364.6 319.6"/><rect class="cls-18" x="368.29" y="324.54" width="7.89" height="15.95"/><line class="cls-35" x1="494.81" y1="346.33" x2="512.49" y2="346.33"/><path class="cls-36" d="M577.29,339.49c-2.91-1.11-9.92-.43-9.92-.43-32.09,5-43.65,28.72-43.65,28.72h21.9c0-.91-5.47-5.47-5.47-5.47C562.83,338.14,577.29,339.49,577.29,339.49Z"/><rect class="cls-37" x="593.81" y="312.43" width="9.44" height="68.43"/><path class="cls-38" d="M324.28,145.67"/><circle class="cls-39" cx="928.21" cy="294.47" r="36.58"/><polyline class="cls-40" points="1187.42 228.1 1181.12 228.1 1182.57 232.46 1256.65 232.46 1258.58 228.1 1195.16 228.1"/><line class="cls-40" x1="1258.58" y1="246.61" x2="1180.64" y2="246.61"/><line class="cls-40" x1="1197.58" y1="243.89" x2="1260.07" y2="243.89"/><path class="cls-41" d="M1176.28,239.89l5.81,7.08v65.32h23.72V275.15a13.79,13.79,0,0,1,13.56-12.94c7,0,12.83,5.9,13.56,12.94v36.77l-26.71.37h50.44V247l5.81-7.08Z"/><line class="cls-40" x1="1232.92" y1="312.83" x2="1232.92" y2="277.62"/><path class="cls-40" d="M1201.62,307.91c0-4.57,0-10.7,0-16.39"/><path class="cls-40" d="M1201.57,290.61"/><path class="cls-40" d="M1201.57,285.59c0,1.28,0,2.62,0,4"/><path class="cls-40" d="M1201.57,285.59"/><path class="cls-40" d="M1202.17,272.5a15.84,15.84,0,0,0-.52,3.6c0,1.53-.07,4.22-.08,7.49"/><path class="cls-40" d="M1204.56,267.36a18.18,18.18,0,0,1,13.58-7.64"/><path class="cls-40" d="M1221.88,259.85q-.85-.12-1.72-.16"/><path class="cls-40" d="M1222.36,259.93"/><path class="cls-40" d="M1237.23,293.42c0-7.07,0-14,0-17.33-.08-7.66-6.26-14.18-13.76-15.94"/><path class="cls-40" d="M1237.23,294.37"/><path class="cls-40" d="M1237.23,295.93"/><path class="cls-40" d="M1237.2,312.29s0-7,0-16.35"/><line class="cls-40" x1="1190.32" y1="272.19" x2="1181.61" y2="272.19"/><line class="cls-40" x1="1194.14" y1="272.19" x2="1192.2" y2="272.19"/><line class="cls-40" x1="1193.65" y1="290.32" x2="1186.39" y2="290.32"/><line class="cls-40" x1="1185" y1="290.31" x2="1182.57" y2="290.31"/><line class="cls-40" x1="1192.74" y1="278.02" x2="1182.57" y2="278.02"/><line class="cls-40" x1="1192.74" y1="282.13" x2="1182.09" y2="282.13"/><line class="cls-40" x1="1192.74" y1="301.05" x2="1180.63" y2="301.05"/><line class="cls-40" x1="1190.81" y1="303.22" x2="1178.7" y2="303.22"/><line class="cls-40" x1="1182.57" y1="232.46" x2="1182.57" y2="241.17"/><line class="cls-40" x1="1256.65" y1="232.46" x2="1256.65" y2="241.17"/><line class="cls-40" x1="1182.57" y1="243.89" x2="1192.26" y2="243.89"/><line class="cls-40" x1="1190.32" y1="257.34" x2="1180.15" y2="257.34"/><line class="cls-40" x1="1193.23" y1="261.45" x2="1182.57" y2="261.45"/><line class="cls-40" x1="1190.8" y1="250.97" x2="1182.09" y2="250.97"/><line class="cls-40" x1="1193.71" y1="250.97" x2="1207.29" y2="250.97"/><line class="cls-40" x1="1259.91" y1="273.83" x2="1248.42" y2="273.83"/><line class="cls-40" x1="1247.45" y1="272.19" x2="1256.16" y2="272.19"/><line class="cls-40" x1="1243.63" y1="272.19" x2="1245.57" y2="272.19"/><line class="cls-40" x1="1244.12" y1="290.32" x2="1251.38" y2="290.32"/><line class="cls-40" x1="1252.77" y1="290.31" x2="1255.19" y2="290.31"/><line class="cls-40" x1="1245.03" y1="278.02" x2="1255.19" y2="278.02"/><line class="cls-40" x1="1245.03" y1="282.13" x2="1255.68" y2="282.13"/><line class="cls-40" x1="1245.03" y1="301.05" x2="1257.14" y2="301.05"/><line class="cls-40" x1="1246.95" y1="303.22" x2="1259.07" y2="303.22"/><line class="cls-40" x1="1246.48" y1="257.34" x2="1256.65" y2="257.34"/><line class="cls-40" x1="1245.51" y1="261.45" x2="1256.16" y2="261.45"/><line class="cls-40" x1="1246.96" y1="250.97" x2="1255.68" y2="250.97"/><line class="cls-40" x1="1242.23" y1="250.97" x2="1244.17" y2="250.97"/><path class="cls-42" d="M1202.91,284.17"/><path class="cls-42" d="M1199,284.17"/><path class="cls-42" d="M1199,290.11"/><path class="cls-42" d="M1216.84,308.68"/><rect class="cls-40" x="1184.45" y="234.63" width="8.77" height="5.33"/><line class="cls-40" x1="1188.91" y1="237.46" x2="1181.12" y2="237.46"/><rect class="cls-40" x="1245.03" y="234.63" width="9.16" height="5.33" transform="translate(2499.22 474.6) rotate(180)"/><line class="cls-40" x1="1248.95" y1="237.14" x2="1258.1" y2="237.14"/><path class="cls-43" d="M530.49,393.2"/><rect class="cls-18" x="776.91" y="316.9" width="5.67" height="12.76"/><rect class="cls-18" x="776.91" y="347.42" width="5.67" height="22.07"/><rect class="cls-44" x="593.9" y="311.02" width="47.99" height="69.8"/><polyline class="cls-44" points="640.41 296.86 692.25 251.24 715.76 251.24 752.55 286.07"/><path class="cls-45" d="M640.13,297.13,692,251.52H716.4l36.53,35s-1.66,4.94-5.87,4.89v5.26"/><path class="cls-46" d="M643.79,183.89,614,247.06h63.15l-29.76-63.17A2,2,0,0,0,643.79,183.89Z"/><rect class="cls-18" x="709.55" y="316.9" width="5.67" height="12.76"/><rect class="cls-18" x="732.75" y="316.9" width="5.67" height="12.76"/><rect class="cls-18" x="732.75" y="347.42" width="5.67" height="22.07"/><rect class="cls-18" x="710.47" y="347.42" width="5.67" height="22.07"/><rect class="cls-18" x="686.89" y="347.42" width="5.67" height="22.07"/><rect class="cls-18" x="686.13" y="316.9" width="5.67" height="12.76"/><path class="cls-45" d="M589.69,291.38V311h56.41V291.38h0a6.29,6.29,0,0,1-5.65-3.52L616.69,248.5a1.42,1.42,0,0,0-2.65,0l-19.25,39.63a5.62,5.62,0,0,1-5.09,3.24Z"/><path class="cls-44" d="M589.69,291.38V311h56.41V291.38h0a6.29,6.29,0,0,1-5.65-3.52L616.69,248.5a1.42,1.42,0,0,0-2.65,0l-19.25,39.63a5.62,5.62,0,0,1-5.09,3.24Z"/><rect class="cls-47" x="610.24" y="260.73" width="70.73" height="25.52"/><rect class="cls-47" x="606.87" y="247.22" width="77.46" height="13.51"/><path class="cls-44" d="M643.79,183.89,614,247.06h63.15l-29.76-63.17A2,2,0,0,0,643.79,183.89Z"/><path class="cls-47" d="M646.15,211.64l-7.23,11a.35.35,0,0,0,.29.54h14.45a.35.35,0,0,0,.29-.54l-7.23-11A.35.35,0,0,0,646.15,211.64Z"/><rect class="cls-47" x="641.39" y="223.2" width="10.1" height="14.26"/><line class="cls-44" x1="676.62" y1="296.77" x2="747.77" y2="296.77"/><path class="cls-47" d="M711.69,263.31l-7.23,11a.35.35,0,0,0,.29.54h14.45a.35.35,0,0,0,.29-.54l-7.23-11A.35.35,0,0,0,711.69,263.31Z"/><rect class="cls-47" x="706.93" y="274.87" width="10.1" height="14.26"/><path class="cls-45" d="M703.86,199.43l-11,28a.35.35,0,0,0,.33.48h22a.35.35,0,0,0,.33-.48l-11-28A.35.35,0,0,0,703.86,199.43Z"/><rect class="cls-45" x="694.51" y="228.62" width="19.37" height="22.52"/><path class="cls-44" d="M703.86,199.43l-11,28a.35.35,0,0,0,.33.48h22a.35.35,0,0,0,.33-.48l-11-28A.35.35,0,0,0,703.86,199.43Z"/><rect class="cls-44" x="694.51" y="228.62" width="19.37" height="22.52"/><polyline class="cls-44" points="694.66 329.64 694.66 316.65 686.44 316.65 686.44 332.04 695.32 332.04"/><line class="cls-44" x1="689.73" y1="329.64" x2="696.96" y2="329.64"/><polyline class="cls-44" points="718.24 329.64 718.24 316.65 710.01 316.65 710.01 332.04 718.89 332.04"/><line class="cls-44" x1="713.3" y1="329.64" x2="720.54" y2="329.64"/><polyline class="cls-44" points="740.97 329.64 740.97 316.65 732.75 316.65 732.75 332.04 741.63 332.04"/><line class="cls-44" x1="736.04" y1="329.64" x2="743.27" y2="329.64"/><polyline class="cls-44" points="694.66 369.42 694.66 347.42 686.44 347.42 686.44 371.82 695.32 371.82"/><line class="cls-44" x1="689.73" y1="369.42" x2="696.96" y2="369.42"/><polyline class="cls-44" points="718.24 369.42 718.24 347.42 710.01 347.42 710.01 371.82 718.89 371.82"/><line class="cls-44" x1="713.3" y1="369.42" x2="720.54" y2="369.42"/><polyline class="cls-44" points="740.97 369.42 740.97 347.42 732.75 347.42 732.75 371.82 741.63 371.82"/><line class="cls-44" x1="736.04" y1="369.42" x2="743.27" y2="369.42"/><line class="cls-44" x1="746.18" y1="279.55" x2="755.27" y2="279.55"/><rect class="cls-44" x="751.27" y="311.02" width="47.99" height="69.8"/><path class="cls-45" d="M747.06,291.38V311h56.41V291.38h0a6.29,6.29,0,0,1-5.65-3.52L775.88,243a1.42,1.42,0,0,0-2.65,0l-21.08,45.11a5.62,5.62,0,0,1-5.09,3.24Z"/><path class="cls-44" d="M747.06,291.38V311h56.41V291.38h0a6.29,6.29,0,0,1-5.65-3.52L775.88,243a1.42,1.42,0,0,0-2.65,0l-21.08,45.11a5.62,5.62,0,0,1-5.09,3.24Z"/><polyline class="cls-44" points="785.59 329.64 785.59 316.65 777.37 316.65 777.37 332.04 786.25 332.04"/><line class="cls-44" x1="780.66" y1="329.64" x2="787.9" y2="329.64"/><polyline class="cls-44" points="785.59 369.42 785.59 347.42 777.37 347.42 777.37 371.82 786.25 371.82"/><line class="cls-44" x1="780.66" y1="369.42" x2="787.9" y2="369.42"/><circle class="cls-29" cx="654.23" cy="319.02"/><polyline class="cls-47" points="599.16 329.64 599.16 316.65 593.78 316.65 593.78 332.04 599.82 332.04"/><line class="cls-47" x1="594.23" y1="329.64" x2="601.47" y2="329.64"/><polyline class="cls-47" points="599.16 369.42 599.16 347.42 593.78 347.42 593.78 371.82 599.82 371.82"/><line class="cls-47" x1="594.23" y1="369.42" x2="601.47" y2="369.42"/><path class="cls-48" d="M643,187.2l24.44,59.86h9.69l-29.92-63.51C646.6,182.15,643.7,185.8,643,187.2Z"/><path class="cls-49" d="M700.7,204.54l8.5,23.4h6l-10.34-27.05C704.25,199.49,701.36,203.14,700.7,204.54Z"/><path class="cls-49" d="M708.46,228.26l.74,23.4h4.22l-.75-27.05C712,223.21,709.12,226.86,708.46,228.26Z"/><path class="cls-49" d="M770.37,246.27,789.07,290h9.09l-21.09-45.59C775.88,243,774.49,240.76,770.37,246.27Z"/><path class="cls-49" d="M794.12,293.09l.43,17.93H804l-.52-19.64C802.29,290,795.3,291.7,794.12,293.09Z"/><rect class="cls-50" x="615.24" y="287" width="60.73" height="93.82"/><rect class="cls-18" x="640.06" y="336.04" width="7.09" height="19.85"/><polyline class="cls-44" points="650.65 355.69 650.65 335.41 640.13 335.41 640.13 358.89 652.48 358.89"/><line class="cls-44" x1="644.76" y1="356.05" x2="654.02" y2="356.05"/><rect class="cls-18" x="640.06" y="297.05" width="7.09" height="14.89"/><polyline class="cls-44" points="650.65 311.39 650.65 297.13 640.13 297.13 640.13 314.02 651.5 314.02"/><line class="cls-44" x1="644.34" y1="311.4" x2="653.6" y2="311.4"/><line class="cls-51" x1="622.34" y1="324.19" x2="632.97" y2="324.19"/><line class="cls-51" x1="626.59" y1="326.82" x2="639.35" y2="326.82"/><line class="cls-51" x1="624.46" y1="329.65" x2="639.35" y2="329.65"/><line class="cls-51" x1="622.34" y1="326.82" x2="625.17" y2="326.82"/><line class="cls-51" x1="633.68" y1="324.18" x2="637.22" y2="324.18"/><line class="cls-51" x1="652.11" y1="369.56" x2="662.74" y2="369.56"/><line class="cls-51" x1="656.36" y1="372.19" x2="669.12" y2="372.19"/><line class="cls-51" x1="654.23" y1="375.02" x2="669.12" y2="375.02"/><line class="cls-51" x1="652.11" y1="372.19" x2="654.94" y2="372.19"/><line class="cls-51" x1="663.45" y1="369.55" x2="666.99" y2="369.55"/><path class="cls-52" d="M1289.58,313.68H1170.94c-15.72,0-28.58,3.86-28.58,8.58v6.09c0,1.07-3.69,4.15-10.14,4.15h-12c-12.91,0-18.44,2.21-18.44,6.37h0c0,4.72,1,8.58,16.72,8.58h173"/><path class="cls-51" d="M593.78,348.16c-11.16-11.41-26.4-9.1-26.4-9.1-32.09,5-43.65,28.72-43.65,28.72h21.9c0-.91-4.56-5.47-4.56-5.47H528.4"/><path class="cls-51" d="M575.74,339.49s-15.51,1.82-35.59,22.81"/><path class="cls-51" d="M551.86,326.44c-25.26,8.11-38.63,25.37-38.63,25.37v15.51h10"/><path class="cls-51" d="M593.53,323.52a89.21,89.21,0,0,0-41.67,2.92"/><polyline class="cls-51" points="499.09 349.52 501.63 349.52 514.14 349.52"/><line class="cls-51" x1="500.91" y1="369.14" x2="500.91" y2="349.98"/><path class="cls-29" d="M530.29,358.88c-.18-.23,13,.23,13.26,0"/><line class="cls-29" x1="532.4" y1="356.39" x2="546.01" y2="356.57"/><line class="cls-29" x1="535.01" y1="353.93" x2="548.69" y2="354.22"/><line class="cls-29" x1="538.01" y1="351.44" x2="551.45" y2="351.95"/><line class="cls-29" x1="541.56" y1="348.9" x2="554.67" y2="349.52"/><line class="cls-29" x1="544.29" y1="347.18" x2="557.23" y2="347.75"/><line class="cls-29" x1="547.69" y1="345.32" x2="559.94" y2="346.04"/><line class="cls-29" x1="551.8" y1="343.42" x2="562.83" y2="344.37"/><line class="cls-29" x1="556.67" y1="341.61" x2="565.64" y2="342.94"/><line class="cls-29" x1="562.14" y1="340.37" x2="568.28" y2="341.61"/><rect class="cls-23" x="504.17" y="341.68" width="5.73" height="5.73"/><path class="cls-53" d="M504.17,347.41"/><polygon class="cls-29" points="502.74 341.68 511.33 341.68 509.9 340.25 504.17 340.25 502.74 341.68"/><line class="cls-19" x1="117.69" y1="327.85" x2="117.83" y2="327.85"/><line class="cls-19" x1="117.69" y1="327.85" x2="117.69" y2="357.43"/><path class="cls-19" d="M101.24,327.81"/><path class="cls-19" d="M101.24,327.81"/><path class="cls-19" d="M93,327.79"/><path class="cls-19" d="M93,327.79"/><circle cx="69.64" cy="349.22" r="1.16" transform="translate(-241.29 175.65) rotate(-49.55)"/><path class="cls-33" d="M270,327.26h-7a.54.54,0,0,1-.53-.66l.74-3.21,2.09-9.09.61-2.63a.54.54,0,0,1,1,0l3.58,14.93A.54.54,0,0,1,270,327.26Z"/><line class="cls-34" x1="266.45" y1="329" x2="266.45" y2="331.59"/><line class="cls-24" x1="264.17" y1="318.96" x2="265.55" y2="318.96"/><line class="cls-24" x1="266.14" y1="323.39" x2="263.15" y2="323.39"/><path class="cls-33" d="M305.66,351.57H295.51a.54.54,0,0,1-.53-.65l1.08-5.16,2.87-13.65,1-4.84a.54.54,0,0,1,1.05,0l5.18,23.66A.54.54,0,0,1,305.66,351.57Z"/><line class="cls-34" x1="300.59" y1="354.19" x2="300.59" y2="358.08"/><line class="cls-24" x1="297.47" y1="339.11" x2="299.36" y2="339.11"/><line class="cls-24" x1="300.17" y1="345.76" x2="296.07" y2="345.76"/><line class="cls-24" x1="504.17" y1="338.72" x2="509.9" y2="338.72"/><line class="cls-54" x1="560.85" y1="360.08" x2="565.42" y2="360.08"/><line class="cls-54" x1="567.95" y1="360.08" x2="585.55" y2="360.08"/><line class="cls-35" x1="897.35" y1="372.5" x2="927.47" y2="372.5"/><line class="cls-35" x1="934.77" y1="372.5" x2="945.72" y2="372.5"/><line class="cls-35" x1="951.19" y1="372.5" x2="956.67" y2="372.5"/><line class="cls-35" x1="921.08" y1="354.8" x2="932.94" y2="354.8"/><line class="cls-35" x1="918.8" y1="361.8" x2="932.48" y2="361.8"/><line class="cls-35" x1="941.61" y1="361.8" x2="950.73" y2="361.8"/><line class="cls-54" x1="1141.33" y1="356.34" x2="1153.2" y2="356.34"/><line class="cls-54" x1="1173.27" y1="356.34" x2="1186.96" y2="356.34"/><line class="cls-54" x1="1196.08" y1="356.34" x2="1205.21" y2="356.34"/><line class="cls-55" x1="254.81" y1="415.31" x2="265.76" y2="415.31"/><line class="cls-55" x1="273.97" y1="415.31" x2="289.48" y2="415.31"/><line class="cls-55" x1="814.39" y1="490.28" x2="821.69" y2="490.28"/><line class="cls-55" x1="832.64" y1="490.28" x2="897.43" y2="490.28"/><line class="cls-55" x1="306.25" y1="477.09" x2="316.29" y2="477.09"/><line class="cls-55" x1="322.67" y1="477.09" x2="328.15" y2="477.09"/><line class="cls-55" x1="975.08" y1="470.19" x2="988.34" y2="470.19"/><line class="cls-55" x1="995.48" y1="470.19" x2="998.55" y2="470.19"/><line class="cls-55" x1="919.13" y1="416.44" x2="930.99" y2="416.44"/><line class="cls-55" x1="937.38" y1="416.44" x2="940.12" y2="416.44"/><line class="cls-55" x1="1003.65" y1="470.19" x2="1006.71" y2="470.19"/><line class="cls-55" x1="913.63" y1="408.3" x2="925.49" y2="408.3"/><line class="cls-55" x1="931.88" y1="408.3" x2="934.62" y2="408.3"/><line class="cls-55" x1="939.18" y1="408.3" x2="941.92" y2="408.3"/><line class="cls-55" x1="942.93" y1="488.05" x2="967.42" y2="488.05"/><line class="cls-55" x1="972.52" y1="488.05" x2="975.59" y2="488.05"/><line class="cls-55" x1="980.69" y1="488.05" x2="1001.1" y2="488.05"/><line class="cls-55" x1="1006.2" y1="488.05" x2="1009.26" y2="488.05"/><line class="cls-55" x1="37.71" y1="428.28" x2="49.57" y2="428.28"/><line class="cls-55" x1="53.22" y1="428.28" x2="57.79" y2="428.28"/><line class="cls-55" x1="62.35" y1="428.28" x2="70.56" y2="428.28"/><line class="cls-55" x1="63.26" y1="438.32" x2="67.82" y2="438.32"/><line class="cls-55" x1="72.39" y1="438.32" x2="94.28" y2="438.32"/><line class="cls-55" x1="713.99" y1="448.86" x2="728.59" y2="448.86"/><line class="cls-55" x1="724.02" y1="457.98" x2="727.67" y2="457.98"/><line class="cls-55" x1="121.66" y1="428.28" x2="128.96" y2="428.28"/><line class="cls-54" x1="1010.79" y1="477.47" x2="1022.01" y2="477.47"/><line class="cls-54" x1="1025.08" y1="477.47" x2="1028.14" y2="477.47"/><line class="cls-54" x1="1030.18" y1="477.47" x2="1043.44" y2="477.47"/><line class="cls-55" x1="465.41" y1="471.39" x2="487.31" y2="471.39"/><line class="cls-55" x1="491.88" y1="471.39" x2="494.61" y2="471.39"/><line class="cls-55" x1="499.18" y1="471.39" x2="517.43" y2="471.39"/><line class="cls-55" x1="521.99" y1="471.39" x2="524.73" y2="471.39"/><line class="cls-55" x1="526.09" y1="464.38" x2="536.13" y2="464.38"/><line class="cls-55" x1="538.87" y1="464.38" x2="541.61" y2="464.38"/><line class="cls-55" x1="543.43" y1="464.38" x2="555.29" y2="464.38"/><line class="cls-55" x1="621.14" y1="495.33" x2="643.04" y2="495.33"/><line class="cls-55" x1="647.6" y1="495.33" x2="650.34" y2="495.33"/><line class="cls-55" x1="654.9" y1="495.33" x2="673.15" y2="495.33"/><line class="cls-35" x1="879.76" y1="381.29" x2="916.85" y2="381.29"/><line class="cls-35" x1="924.15" y1="381.29" x2="935.1" y2="381.29"/><line class="cls-35" x1="940.57" y1="381.29" x2="946.05" y2="381.29"/><line class="cls-35" x1="948.96" y1="381.29" x2="959.91" y2="381.29"/><line class="cls-56" x1="889.55" y1="388.83" x2="926.64" y2="388.83"/><line class="cls-56" x1="933.94" y1="388.83" x2="944.89" y2="388.83"/><line class="cls-56" x1="950.37" y1="388.83" x2="955.84" y2="388.83"/><line class="cls-56" x1="958.75" y1="388.83" x2="969.7" y2="388.83"/><line class="cls-55" x1="889.14" y1="398.26" x2="911.04" y2="398.26"/><line class="cls-55" x1="915.6" y1="398.26" x2="918.34" y2="398.26"/><line class="cls-55" x1="922.9" y1="398.26" x2="941.15" y2="398.26"/><line class="cls-55" x1="945.72" y1="398.26" x2="948.45" y2="398.26"/><line class="cls-55" x1="132.56" y1="491.32" x2="157.05" y2="491.32"/><line class="cls-55" x1="162.15" y1="491.32" x2="165.21" y2="491.32"/><line class="cls-55" x1="170.31" y1="491.32" x2="190.72" y2="491.32"/><line class="cls-55" x1="195.82" y1="491.32" x2="198.88" y2="491.32"/><line class="cls-55" x1="200.41" y1="483.48" x2="211.64" y2="483.48"/><line class="cls-19" x1="503.65" y1="358.81" x2="503.65" y2="368.07"/><path class="cls-44" d="M144.2,330.26"/><polyline class="cls-57" points="357.47 270.79 360.8 264.89 379.11 264.89 421.33 352.66 424.36 352.66 424.36 354.63 428.6 354.63 428.6 357.96 307.38 357.96 307.38 352.21 315.56 352.21 347.94 288.95"/><line class="cls-58" x1="419.67" y1="352.66" x2="315.85" y2="352.66"/><line class="cls-58" x1="366.41" y1="351.61" x2="351.38" y2="351.61"/><rect class="cls-57" x="382.3" y="324.71" width="7.67" height="17.89" transform="translate(772.27 667.3) rotate(-180)"/><rect class="cls-57" x="381.82" y="345.17" width="8.15" height="5.61" transform="translate(771.79 695.95) rotate(-180)"/><rect class="cls-57" x="368.99" y="324.71" width="9.39" height="17.89" transform="translate(747.36 667.3) rotate(-180)"/><rect class="cls-57" x="368.41" y="345.17" width="9.97" height="5.61" transform="translate(746.78 695.95) rotate(-180)"/><rect class="cls-59" x="353.05" y="324.71" width="12.04" height="26.07" transform="translate(718.13 675.49) rotate(-180)"/><line class="cls-57" x1="407.06" y1="352.66" x2="372.88" y2="278.43"/><polygon class="cls-57" points="382.42 321.42 382.42 304.75 389.09 321.42 382.42 321.42"/><polyline class="cls-58" points="378.38 319.33 378.38 303.26 368.29 303.26 368.29 318.15"/><polyline class="cls-58" points="364.88 318.17 364.88 302.44 364.63 302.35 355.63 321.15 380.2 321.15"/><line class="cls-58" x1="361.73" y1="319.28" x2="380.2" y2="319.28"/><circle class="cls-4" cx="361.99" cy="339.21" r="1.28"/><path class="cls-29" d="M597.2,410.16H792.86c12,0,21.77-3.23,21.77-7.19V389.06c0-4-9.8-7.19-21.77-7.19H602.12c-12,0-21.77,3.23-21.77,7.19v3.71c0,.9-2.95,4.64-7.86,4.64l-9,.23c-9.83,0-14,1.85-14,5.33h0c0,4,9.8,7.19,21.77,7.19H766.88"/><polygon class="cls-60" points="1174.75 324.76 1159.07 324.76 1166.91 288.92 1174.75 324.76"/><line class="cls-38" x1="1166.91" y1="306.04" x2="1166.91" y2="332.6"/><line class="cls-38" x1="1166.71" y1="314.06" x2="1165.29" y2="311.75"/><line class="cls-38" x1="1166.91" y1="318.81" x2="1170.04" y2="313.65"/><line class="cls-38" x1="1166.71" y1="322.14" x2="1163.58" y2="316.98"/><line class="cls-52" x1="1132.21" y1="332.49" x2="1206.71" y2="332.49"/><polygon class="cls-61" points="294.97 350.98 279.3 350.98 287.13 315.14 294.97 350.98"/><line class="cls-52" x1="287.13" y1="332.26" x2="287.13" y2="358.82"/><line class="cls-52" x1="286.93" y1="340.28" x2="285.51" y2="337.97"/><line class="cls-52" x1="287.13" y1="345.04" x2="290.26" y2="339.88"/><line class="cls-52" x1="286.93" y1="348.37" x2="283.8" y2="343.21"/><path class="cls-38" d="M838.15,344.8v-57c61.16,34.26,164.13,34.95,228.28.8a.57.57,0,0,1,.85.41V344.8"/><path class="cls-38" d="M799.5,307.88c18.41-4.89,34.33-14.19,38.65-20.07"/><line class="cls-38" x1="799.26" y1="319.8" x2="1142.86" y2="319.8"/><line class="cls-38" x1="799.47" y1="324.31" x2="1141.95" y2="324.31"/><line class="cls-38" x1="822.02" y1="299.26" x2="822.02" y2="319.8"/><line class="cls-38" x1="805.66" y1="306.25" x2="805.66" y2="319.8"/><path class="cls-38" d="M789.09,319.8"/><path class="cls-38" d="M789.09,309.79"/><line class="cls-38" x1="854.62" y1="297.13" x2="854.62" y2="318"/><line class="cls-38" x1="838.26" y1="304.21" x2="838.26" y2="314.22"/><line class="cls-38" x1="870.98" y1="302.65" x2="870.98" y2="318"/><line class="cls-38" x1="887.55" y1="307.8" x2="887.55" y2="317.82"/><line class="cls-38" x1="920.27" y1="312.66" x2="920.27" y2="318"/><line class="cls-38" x1="903.91" y1="311.91" x2="903.91" y2="319.85"/><line class="cls-38" x1="936.84" y1="314.22" x2="936.84" y2="318.05"/><line class="cls-38" x1="969.77" y1="314.79" x2="969.77" y2="319.23"/><line class="cls-38" x1="953.2" y1="314.22" x2="953.2" y2="319.23"/><line class="cls-38" x1="1002.48" y1="309.45" x2="1002.48" y2="319.89"/><line class="cls-38" x1="986.13" y1="312.81" x2="986.13" y2="319.47"/><line class="cls-38" x1="1019.06" y1="307.1" x2="1019.06" y2="319.23"/><line class="cls-38" x1="1051.77" y1="297.13" x2="1051.77" y2="319.22"/><line class="cls-38" x1="1035.41" y1="302.11" x2="1035.41" y2="319.22"/><path class="cls-38" d="M1067.67,344.8v-57c24,13.46,57.54,23.74,89.6,26.76"/><line class="cls-38" x1="1083.36" y1="296.35" x2="1083.36" y2="319.04"/><line class="cls-38" x1="1099.72" y1="301.86" x2="1099.72" y2="319.04"/><line class="cls-38" x1="1116.29" y1="306.55" x2="1116.29" y2="318.6"/><line class="cls-38" x1="1149" y1="313.44" x2="1149" y2="316.22"/><line class="cls-38" x1="1132.65" y1="311.12" x2="1132.65" y2="319.07"/><line class="cls-40" x1="1192.74" y1="292.62" x2="1182.57" y2="292.62"/><line class="cls-40" x1="1192.74" y1="296.73" x2="1182.09" y2="296.73"/><line class="cls-40" x1="1190.8" y1="265.56" x2="1182.09" y2="265.56"/><line class="cls-40" x1="1193.71" y1="265.56" x2="1191.77" y2="265.56"/><line class="cls-40" x1="1192.74" y1="253.85" x2="1182.09" y2="253.85"/><line class="cls-40" x1="1211.05" y1="250.97" x2="1239.22" y2="250.97"/><line class="cls-40" x1="1245.03" y1="264.34" x2="1255.19" y2="264.34"/><line class="cls-40" x1="1245.03" y1="269.36" x2="1255.68" y2="269.36"/><line class="cls-40" x1="1247.45" y1="285.88" x2="1256.16" y2="285.88"/><line class="cls-40" x1="1243.63" y1="285.88" x2="1245.57" y2="285.88"/><line class="cls-40" x1="1246.48" y1="292.93" x2="1256.65" y2="292.93"/><line class="cls-40" x1="1245.51" y1="297.04" x2="1256.16" y2="297.04"/><line class="cls-55" x1="806.66" y1="420.78" x2="816.7" y2="420.78"/><line class="cls-55" x1="823.08" y1="420.78" x2="828.56" y2="420.78"/><line class="cls-55" x1="816.7" y1="430.82" x2="823.08" y2="430.82"/><line class="cls-55" x1="827.65" y1="430.82" x2="833.12" y2="430.82"/><line class="cls-55" x1="632.97" y1="435.01" x2="657.46" y2="435.01"/><line class="cls-55" x1="662.56" y1="435.01" x2="665.62" y2="435.01"/><line class="cls-55" x1="670.72" y1="435.01" x2="691.13" y2="435.01"/><line class="cls-55" x1="696.23" y1="435.01" x2="699.29" y2="435.01"/><line class="cls-55" x1="700.83" y1="427.17" x2="712.05" y2="427.17"/><line class="cls-55" x1="573.66" y1="435.01" x2="598.15" y2="435.01"/><line class="cls-55" x1="603.25" y1="435.01" x2="606.31" y2="435.01"/><line class="cls-55" x1="611.41" y1="435.01" x2="631.82" y2="435.01"/><line class="cls-55" x1="636.92" y1="435.01" x2="639.98" y2="435.01"/><line class="cls-52" x1="575.78" y1="396.97" x2="788.52" y2="396.97"/><rect class="cls-49" x="789.09" y="312.43" width="10.18" height="68.43"/><line class="cls-19" x1="597.85" y1="291.93" x2="614.03" y2="291.93"/><line class="cls-19" x1="755.16" y1="291.93" x2="793.82" y2="291.93"/><polygon class="cls-61" points="492.21 360.38 476.53 360.38 484.37 324.54 492.21 360.38"/><line class="cls-52" x1="484.37" y1="341.67" x2="484.37" y2="368.22"/><line class="cls-52" x1="484.17" y1="349.68" x2="482.74" y2="347.37"/><line class="cls-52" x1="484.37" y1="354.44" x2="487.5" y2="349.28"/><line class="cls-52" x1="484.17" y1="357.77" x2="481.04" y2="352.61"/><path class="cls-17" d="M1194.4,320.87a5.5,5.5,0,0,1,3.14,10,3.54,3.54,0,0,0,.58-1.95,3.6,3.6,0,0,0-3.59-3.59h-1.8a7.12,7.12,0,0,0-1.06-3.75A5.43,5.43,0,0,1,1194.4,320.87Z"/><path class="cls-17" d="M1198.12,328.94a3.54,3.54,0,0,1-.58,1.95,5.5,5.5,0,0,1-6.89-.48,7.15,7.15,0,0,0,2.08-5.05h1.8A3.6,3.6,0,0,1,1198.12,328.94Z"/><path class="cls-20" d="M1197.54,330.89a3.57,3.57,0,0,1-.48.59,3.06,3.06,0,0,1-.42.36,6.09,6.09,0,0,1-6.77-.74,6.82,6.82,0,0,0,.78-.69,5.5,5.5,0,0,0,6.89.48Z"/><path class="cls-20" d="M1196.64,331.83a3.53,3.53,0,0,1-2.11.7h-.72A6,6,0,0,0,1196.64,331.83Z"/><path class="cls-20" d="M1193.81,332.53h-8.26a7.15,7.15,0,0,0,4.32-1.44A6.06,6.06,0,0,0,1193.81,332.53Z"/><path class="cls-17" d="M1192.73,325.35H1189a5.49,5.49,0,0,1,2.68-3.75A7.12,7.12,0,0,1,1192.73,325.35Z"/><path class="cls-17" d="M1189,325.35h3.74a7.15,7.15,0,0,1-2.08,5.05,5.48,5.48,0,0,1-1.76-4A5.34,5.34,0,0,1,1189,325.35Z"/><path class="cls-17" d="M1191.2,320.91a6.14,6.14,0,0,1,.48.69,5.49,5.49,0,0,0-2.68,3.75h-1.19A6.1,6.1,0,0,1,1191.2,320.91Z"/><path class="cls-17" d="M1185.55,318.17a7.16,7.16,0,0,1,5.64,2.74,6.1,6.1,0,0,0-3.39,4.44h-6a4.8,4.8,0,0,0-3.12-2.23A7.18,7.18,0,0,1,1185.55,318.17Z"/><path class="cls-17" d="M1188.9,326.37a5.48,5.48,0,0,0,1.76,4,6.82,6.82,0,0,1-.78.69,6.08,6.08,0,0,1-2.16-4.66,6,6,0,0,1,.1-1.08H1189A5.34,5.34,0,0,0,1188.9,326.37Z"/><path class="cls-17" d="M1187.71,326.43a6.08,6.08,0,0,0,2.16,4.66,7.18,7.18,0,0,1-8.63,0,4.8,4.8,0,0,0,.61-5.74h6A6,6,0,0,0,1187.71,326.43Z"/><path class="cls-20" d="M1185.55,332.53h-6.9a4.76,4.76,0,0,0,2.58-1.44A7.13,7.13,0,0,0,1185.55,332.53Z"/><path class="cls-17" d="M1181.85,325.35a4.8,4.8,0,0,1-.61,5.74l-.33-.27a4.67,4.67,0,0,0,.32-5.47Z"/><path class="cls-17" d="M1181.85,325.35h-.62a4.67,4.67,0,0,0-2.58-2,2.45,2.45,0,0,1,.08-.28A4.8,4.8,0,0,1,1181.85,325.35Z"/><path class="cls-17" d="M1181.23,325.35a4.67,4.67,0,0,1-.32,5.47,7.15,7.15,0,0,1-2.53-5.47Z"/><path class="cls-17" d="M1181.24,331.09a4.76,4.76,0,0,1-2.58,1.44h-1.36a4.66,4.66,0,0,0,3.61-1.71Z"/><path class="cls-17" d="M1181.23,325.35h-2.85a7,7,0,0,1,.27-2A4.67,4.67,0,0,1,1181.23,325.35Z"/><path class="cls-17" d="M1180.91,330.82a4.66,4.66,0,0,1-3.61,1.71h-.37a3.61,3.61,0,0,1-3.22-3.57,3.6,3.6,0,0,1,3.59-3.59h1.08A7.15,7.15,0,0,0,1180.91,330.82Z"/><path class="cls-17" d="M1178.73,323.12a2.45,2.45,0,0,0-.08.28,4.65,4.65,0,0,0-1.35-.2,4.57,4.57,0,0,0-1.72.33,4.74,4.74,0,0,1,2.16-.51A4.8,4.8,0,0,1,1178.73,323.12Z"/><path class="cls-17" d="M1177.29,332.53h1.36a4.83,4.83,0,0,1-2.13-.06l.4,0h.37Z"/><path class="cls-17" d="M1178.64,323.39a7,7,0,0,0-.27,2h-1.08a3.59,3.59,0,0,0-.37,7.16l-.4,0h0a4.8,4.8,0,0,1-.94-8.94,4.57,4.57,0,0,1,1.72-.33A4.65,4.65,0,0,1,1178.64,323.39Z"/><path class="cls-17" d="M1177.07,332.52h0Z"/><path class="cls-51" d="M1176.51,332.46a4.67,4.67,0,0,1-.94-8.94,4.57,4.57,0,0,1,1.72-.33,4.65,4.65,0,0,1,1.35.2"/><path class="cls-51" d="M1176.93,332.51l-.4,0"/><path class="cls-51" d="M1177.29,332.53h-.22"/><path class="cls-51" d="M1178.64,323.39a2.45,2.45,0,0,1,.08-.28,7.18,7.18,0,0,1,12.47-2.2"/><path class="cls-51" d="M1191.2,320.91a6.1,6.1,0,1,1,2.61,11.62"/><path class="cls-51" d="M1177.29,332.53h-.37"/><path class="cls-51" d="M1196.64,331.83a3.53,3.53,0,0,1-2.11.7h-9"/><line class="cls-62" x1="1185.78" y1="326.55" x2="1185.78" y2="332.23"/><line class="cls-62" x1="1185.58" y1="332.21" x2="1184.14" y2="329.89"/><line class="cls-62" x1="1178.65" y1="330.05" x2="1178.63" y2="332.62"/><path class="cls-62" d="M1178.43,332.6"/><line class="cls-62" x1="1193.73" y1="330.09" x2="1193.26" y2="332.62"/><path class="cls-62" d="M1193.07,332.57"/><line class="cls-63" x1="379.11" y1="264.89" x2="377.14" y2="269.28"/><polygon class="cls-63" points="356.31 283.59 349.45 295.59 349.45 267.08 356.31 267.08 356.31 283.59"/><line class="cls-64" x1="356.3" y1="264.2" x2="349.14" y2="264.2"/><path class="cls-37" d="M376.47,265.8H360.63l-3.16,5,0,13.26-8.15,13.83c-.22.36-2.06,2.07-2,1.65l.27-10.19-31.73,62.28,21.72.83L378,265.8Z"/><path class="cls-49" d="M609.85,273,604,289.71H595l12-27.34C608.11,261,610.24,260.73,609.85,273Z"/><path class="cls-49" d="M599,292.77l-.43,17.93h-9.44l.52-19.64C590.84,289.66,597.82,291.38,599,292.77Z"/><rect class="cls-18" x="594.69" y="317.56" width="1.68" height="11.18"/><rect class="cls-18" x="594.65" y="348.34" width="1.71" height="20.18"/><rect class="cls-18" x="658.4" y="266.42" width="5.89" height="11.08"/><rect class="cls-18" x="624.72" y="266.18" width="5.84" height="11.33"/><polyline class="cls-44" points="666.88 277.5 666.88 266.36 658.65 266.36 658.65 279.55 667.53 279.55"/><line class="cls-44" x1="661.94" y1="277.5" x2="669.18" y2="277.5"/><polyline class="cls-44" points="633.2 277.5 633.2 266.36 624.97 266.36 624.97 279.55 633.85 279.55"/><line class="cls-44" x1="628.26" y1="277.5" x2="635.5" y2="277.5"/><rect class="cls-18" x="707.73" y="275.77" width="6.72" height="12.39"/><line class="cls-44" x1="706.93" y1="282" x2="717.04" y2="282"/><rect class="cls-18" x="642.24" y="224.14" width="6.72" height="12.39"/><line class="cls-47" x1="641.39" y1="230.33" x2="651.5" y2="230.33"/><circle class="cls-20" cx="695.17" cy="385.66" r="10.09"/><line class="cls-65" x1="807.57" y1="418.96" x2="817.61" y2="418.96"/><line class="cls-65" x1="824" y1="418.96" x2="829.47" y2="418.96"/><line class="cls-65" x1="817.61" y1="429" x2="824" y2="429"/><line class="cls-65" x1="828.56" y1="429" x2="834.03" y2="429"/><ellipse class="cls-22" cx="612.11" cy="388.15" rx="16.4" ry="8.14"/><path class="cls-17" d="M696.21,390.15a6.09,6.09,0,0,1-1.15,3.56,45.51,45.51,0,0,1-15.84,2.59,46,46,0,0,1-15.53-2.47C670.56,391.58,675,388,675,384h15.09A6.16,6.16,0,0,1,696.21,390.15Z"/><path class="cls-17" d="M695.06,393.7a6.08,6.08,0,0,1-5,2.59H679.22A45.51,45.51,0,0,0,695.06,393.7Z"/><path class="cls-17" d="M679.22,396.29H646.67a55.8,55.8,0,0,0,17-2.47A46,46,0,0,0,679.22,396.29Z"/><path class="cls-17" d="M675,384H655.54c1.37-3.37,6.47-6.18,13.38-7.59C672.71,378.5,675,381.14,675,384Z"/><path class="cls-17" d="M655.54,384H675c0,4-4.42,7.58-11.28,9.82-5.22-1.91-8.54-4.77-8.54-8A4.67,4.67,0,0,1,655.54,384Z"/><path class="cls-17" d="M646.67,371.71c9,0,17.07,1.84,22.25,4.69-6.91,1.42-12,4.23-13.38,7.59H629.61a24.2,24.2,0,0,0-10.18-3.34C622.78,375.49,633.7,371.71,646.67,371.71Z"/><path class="cls-17" d="M655.16,385.85c0,3.2,3.31,6.06,8.54,8a55.8,55.8,0,0,1-17,2.47,54.14,54.14,0,0,1-18.32-2.92c2.59-1.38,4.16-3.14,4.16-5.06,0-1.59-1.06-3.06-2.9-4.3h25.93A4.67,4.67,0,0,0,655.16,385.85Z"/><path class="cls-17" d="M646.67,396.29H614.11c5.73,0,10.86-1.14,14.24-2.92A54.14,54.14,0,0,0,646.67,396.29Z"/><path class="cls-17" d="M629.61,384c1.84,1.24,2.9,2.72,2.9,4.3,0,1.92-1.57,3.69-4.16,5.06-6.11-2.25-10-5.61-10-9.36Z"/><path class="cls-17" d="M629.61,384H618.36a6,6,0,0,1,1.08-3.34A24.2,24.2,0,0,1,629.61,384Z"/><path class="cls-17" d="M628.35,393.37c-3.38,1.79-8.51,2.92-14.24,2.92a33.93,33.93,0,0,1-12.74-2.23A6.14,6.14,0,0,1,606.1,384h12.26C618.36,387.76,622.24,391.12,628.35,393.37Z"/><path class="cls-17" d="M614.11,396.29h-8a6.13,6.13,0,0,1-4.73-2.23A33.93,33.93,0,0,0,614.11,396.29Z"/><path class="cls-51" d="M614.11,396.29a33.93,33.93,0,0,1-12.74-2.23c-3.5-1.45-5.66-3.5-5.66-5.76,0-4.41,8.24-8,18.4-8a39.89,39.89,0,0,1,5.32.34"/><path class="cls-51" d="M619.44,380.66c3.34-5.17,14.27-8.95,27.23-8.95,9,0,17.07,1.84,22.25,4.69"/><path class="cls-51" d="M668.92,376.41a51.21,51.21,0,0,1,10.3-1c13.29,0,24.06,4.68,24.06,10.45,0,3.13-3.18,5.95-8.22,7.86a45.51,45.51,0,0,1-15.84,2.59"/><path class="cls-51" d="M614.11,396.29h-8a6.13,6.13,0,0,1-4.73-2.23"/><path class="cls-51" d="M695.06,393.7a6.08,6.08,0,0,1-5,2.59h-43.4"/><line class="cls-62" x1="647.56" y1="386.06" x2="647.56" y2="395.78"/><line class="cls-62" x1="646.76" y1="395.75" x2="641.09" y2="391.77"/><line class="cls-62" x1="619.46" y1="392.04" x2="619.37" y2="396.45"/><path class="cls-62" d="M618.57,396.42"/><line class="cls-62" x1="678.92" y1="392.11" x2="677.07" y2="396.44"/><path class="cls-62" d="M676.3,396.35"/><ellipse class="cls-22" cx="694.37" cy="385.76" rx="10.88" ry="10.03"/><path class="cls-17" d="M696.17,384a6.14,6.14,0,0,1,4.34,10.48,6.08,6.08,0,0,1-.67.58h0a10.43,10.43,0,0,1-11.62-1.26,12.27,12.27,0,0,0,4.9-9.82Z"/><path class="cls-17" d="M699.82,395.08a6.08,6.08,0,0,1-3.65,1.21h-1.23A10.37,10.37,0,0,0,699.82,395.08Z"/><path class="cls-17" d="M694.94,396.29H680.81a12.24,12.24,0,0,0,7.39-2.47A10.39,10.39,0,0,0,694.94,396.29Z"/><path class="cls-17" d="M693.1,384h-8.44a10.43,10.43,0,0,1,5.81-7.59A12.24,12.24,0,0,1,693.1,384Z"/><path class="cls-17" d="M684.66,384h8.44a12.27,12.27,0,0,1-4.9,9.82,10.4,10.4,0,0,1-3.71-8A10.13,10.13,0,0,1,684.66,384Z"/><path class="cls-17" d="M680.81,371.71a12.27,12.27,0,0,1,9.66,4.69,10.43,10.43,0,0,0-5.81,7.59H673.41a8,8,0,0,0-4.42-3.34A12.28,12.28,0,0,1,680.81,371.71Z"/><path class="cls-17" d="M684.5,385.85a10.4,10.4,0,0,0,3.71,8,12.28,12.28,0,0,1-15.34-.45,8,8,0,0,0,.55-9.36h11.26A10.13,10.13,0,0,0,684.5,385.85Z"/><path class="cls-17" d="M680.81,396.29H666.68a8,8,0,0,0,6.18-2.92A12.23,12.23,0,0,0,680.81,396.29Z"/><path class="cls-17" d="M673.41,384a8,8,0,0,1-.55,9.36,12.24,12.24,0,0,1-4.34-9.36Z"/><path class="cls-17" d="M673.41,384h-4.89a12,12,0,0,1,.47-3.34A8,8,0,0,1,673.41,384Z"/><path class="cls-17" d="M672.86,393.37a8,8,0,0,1-6.18,2.92h-.38l-.25,0a6.14,6.14,0,0,1-3.71-10.45,6.1,6.1,0,0,1,4.34-1.81h1.84A12.24,12.24,0,0,0,672.86,393.37Z"/><path class="cls-17" d="M666.3,396.28h0Z"/><path class="cls-51" d="M666.05,396.26a8,8,0,0,1,.63-15.95,7.76,7.76,0,0,1,2.31.34"/><path class="cls-51" d="M666.68,396.29h-.38"/><path class="cls-51" d="M669,380.66a12.28,12.28,0,0,1,21.48-4.25"/><path class="cls-51" d="M699.82,395.08a10.37,10.37,0,0,1-4.88,1.21"/><path class="cls-51" d="M690.47,376.41a10.44,10.44,0,0,1,9.37,18.66"/><path class="cls-51" d="M699.84,395.07h0a6.08,6.08,0,0,1-3.65,1.21H680.81"/><path class="cls-51" d="M666.68,396.29h-.38l-.25,0"/><line class="cls-62" x1="681.2" y1="386.06" x2="681.2" y2="395.78"/><line class="cls-62" x1="680.85" y1="395.75" x2="678.39" y2="391.77"/><line class="cls-62" x1="669" y1="392.04" x2="668.96" y2="396.45"/><path class="cls-62" d="M668.61,396.42"/><line class="cls-62" x1="694.81" y1="392.11" x2="694.01" y2="396.44"/><path class="cls-62" d="M693.67,396.35"/><line class="cls-55" x1="998.75" y1="385.63" x2="1012.01" y2="385.63"/><line class="cls-55" x1="1019.16" y1="385.63" x2="1022.22" y2="385.63"/><line class="cls-55" x1="1027.32" y1="385.63" x2="1030.38" y2="385.63"/><line class="cls-66" x1="815.31" y1="488.45" x2="822.61" y2="488.45"/><line class="cls-66" x1="833.56" y1="488.45" x2="898.34" y2="488.45"/><line class="cls-67" x1="561.77" y1="359.16" x2="566.33" y2="359.16"/><line class="cls-67" x1="568.87" y1="359.16" x2="586.46" y2="359.16"/><line class="cls-65" x1="975.99" y1="468.37" x2="989.25" y2="468.37"/><line class="cls-65" x1="996.4" y1="468.37" x2="999.46" y2="468.37"/><line class="cls-65" x1="1004.56" y1="468.37" x2="1007.62" y2="468.37"/><line class="cls-65" x1="943.85" y1="486.22" x2="968.34" y2="486.22"/><line class="cls-65" x1="973.44" y1="486.22" x2="976.5" y2="486.22"/><line class="cls-65" x1="981.6" y1="486.22" x2="1002.01" y2="486.22"/><line class="cls-65" x1="1007.11" y1="486.22" x2="1010.17" y2="486.22"/><line class="cls-65" x1="1011.7" y1="475.64" x2="1022.93" y2="475.64"/><line class="cls-65" x1="1025.99" y1="475.64" x2="1029.05" y2="475.64"/><line class="cls-65" x1="1031.09" y1="475.64" x2="1044.36" y2="475.64"/><g id="_Group_" data-name="&lt;Group&gt;"><path class="cls-19" d="M433.74,399.15"/><path class="cls-24" d="M455.83,376.09"/><path class="cls-24" d="M455.83,376.09H18.53C6.16,376.09,7,374,7,371.55V359.13c-.48-1.63-.82-.88,11.55-.88H450.76c12.37,0,22.5,2,22.5,4.53v2.34c0,.47,2.16,2.24,5.89,2.76a14.38,14.38,0,0,0,2.24.16l61.31.15c10.17,0,14.52,1.17,14.52,3.36,0,1.25-2.54,2.38-6.61,3.2-3.82.77-61,1.27-66.73,1.32Z"/><path class="cls-24" d="M436.62,395.83"/><path class="cls-24" d="M436.62,402"/></g><line class="cls-54" x1="528.99" y1="384.48" x2="533.55" y2="384.48"/><line class="cls-54" x1="537" y1="384.48" x2="554.59" y2="384.48"/><line class="cls-67" x1="530.83" y1="383.57" x2="535.39" y2="383.57"/><line class="cls-67" x1="537.93" y1="383.57" x2="555.52" y2="383.57"/><line class="cls-68" x1="111.44" y1="307.56" x2="111.44" y2="358.45"/><polygon class="cls-69" points="204.03 297.17 216.35 296.87 246.75 262.26 235.16 263.68 204.03 297.17"/><polyline class="cls-70" points="112.13 307.56 220.36 307.41 220 357.41 112.2 357.6"/><polygon class="cls-71" points="214.47 307.55 130.48 307.25 181.31 262.26 211.7 262.87 224.2 274.93 202.55 297.45 214.47 307.55"/><polygon class="cls-70" points="217.09 357.21 217.61 296.57 246.72 262.63 273.7 303.33 273.18 356.65 217.09 357.21"/><path class="cls-72" d="M222.23,276.44"/><polyline class="cls-73" points="199.32 347.3 199.32 319.29 184.58 319.29 184.58 347.3"/><circle class="cls-74" cx="195.85" cy="337.45" r="1.72"/><polygon class="cls-68" points="203.73 297.17 217.42 296.87 246.23 262.26 234.95 263.68 203.73 297.17"/><line class="cls-75" x1="132.18" y1="307.41" x2="132.18" y2="358.64"/><polyline class="cls-76" points="209.28 350.39 209.28 347.3 121.16 347.3 121.16 350.91"/><polyline class="cls-76" points="213.9 354 213.9 350.91 116.86 350.91 116.86 354"/><line class="cls-76" x1="203.73" y1="346.04" x2="204.34" y2="308.77"/><polygon class="cls-77" points="112.24 307.56 130.17 307.13 180.77 262.26 174.79 262.63 112.24 307.56"/><line class="cls-78" x1="178.34" y1="346.04" x2="178.94" y2="308.77"/><polyline class="cls-79" points="244.41 311.38 244.41 284.2 232.29 284.2 232.29 311.38"/><ellipse class="cls-79" cx="241.56" cy="301.82" rx="1.41" ry="1.67"/><polyline class="cls-79" points="244.41 311.38 244.41 284.2 256.53 284.2 256.53 311.38"/><ellipse class="cls-79" cx="247.26" cy="301.82" rx="1.41" ry="1.67"/><line class="cls-76" x1="217.14" y1="297.29" x2="273.89" y2="297.35"/><line class="cls-76" x1="220.36" y1="295.92" x2="220.36" y2="311.23"/><line class="cls-76" x1="225.23" y1="295.92" x2="225.23" y2="311.23"/><line class="cls-76" x1="230.09" y1="295.92" x2="230.09" y2="311.23"/><line class="cls-76" x1="234.96" y1="295.92" x2="234.96" y2="311.23"/><line class="cls-76" x1="239.83" y1="295.92" x2="239.83" y2="311.23"/><line class="cls-76" x1="244.69" y1="295.92" x2="244.69" y2="311.23"/><line class="cls-76" x1="249.56" y1="295.92" x2="249.56" y2="311.23"/><line class="cls-76" x1="254.43" y1="295.92" x2="254.43" y2="311.23"/><line class="cls-76" x1="259.29" y1="295.92" x2="259.29" y2="311.23"/><line class="cls-76" x1="264.16" y1="295.92" x2="264.16" y2="311.23"/><line class="cls-76" x1="269.02" y1="295.92" x2="269.02" y2="311.23"/><line class="cls-76" x1="215.71" y1="311.33" x2="273.04" y2="311.39"/><line class="cls-76" x1="273.86" y1="295.92" x2="273.86" y2="311.23"/><line class="cls-76" x1="218.21" y1="295.92" x2="218.21" y2="311.23"/><line class="cls-76" x1="217.22" y1="297.29" x2="273.97" y2="297.35"/><line class="cls-76" x1="222.51" y1="295.92" x2="222.51" y2="311.23"/><line class="cls-76" x1="227.37" y1="295.92" x2="227.37" y2="311.23"/><line class="cls-76" x1="232.24" y1="295.92" x2="232.24" y2="311.23"/><line class="cls-76" x1="237.11" y1="295.92" x2="237.11" y2="311.23"/><line class="cls-76" x1="241.97" y1="295.92" x2="241.97" y2="311.23"/><line class="cls-76" x1="246.84" y1="295.92" x2="246.84" y2="311.23"/><line class="cls-76" x1="251.71" y1="295.92" x2="251.71" y2="311.23"/><line class="cls-76" x1="256.57" y1="295.92" x2="256.57" y2="311.23"/><line class="cls-76" x1="261.44" y1="295.92" x2="261.44" y2="311.23"/><line class="cls-76" x1="266.31" y1="295.92" x2="266.31" y2="311.23"/><line class="cls-76" x1="271.17" y1="295.92" x2="271.17" y2="311.23"/><line class="cls-76" x1="217.34" y1="311.33" x2="273.64" y2="311.39"/><polygon class="cls-32" points="177.13 280.85 184.35 280.85 184.35 295.25 177.13 280.85"/><path class="cls-80" d="M190.7,268.73l-6.55,11.33a.35.35,0,0,0,.3.53h13.1a.35.35,0,0,0,.3-.53l-6.55-11.33A.35.35,0,0,0,190.7,268.73Z"/><polygon class="cls-81" points="177.15 280.67 183.84 280.35 190.95 268.42 184.48 269.77 177.15 280.67"/><g id="window-3" data-name="window"><polyline class="cls-70" points="197.83 293.76 197.83 280.8 184.65 280.8 184.65 296.14 198.88 296.14"/><line class="cls-70" x1="188.12" y1="293.76" x2="199.71" y2="293.76"/></g><line class="cls-70" x1="184.82" y1="286.17" x2="197.27" y2="286.17"/><line class="cls-70" x1="191.73" y1="286.17" x2="191.73" y2="280.75"/><rect class="cls-18" x="185.25" y="280.52" width="10.59" height="13.37"/><g id="window-4" data-name="window"><polyline class="cls-76" points="197.83 293.76 197.83 280.8 184.65 280.8 184.65 296.14 198.88 296.14"/><line class="cls-76" x1="188.12" y1="293.76" x2="199.71" y2="293.76"/></g><line class="cls-76" x1="184.82" y1="286.17" x2="197.27" y2="286.17"/><line class="cls-76" x1="191.73" y1="286.17" x2="191.73" y2="280.75"/><line class="cls-82" x1="177.15" y1="280.67" x2="182.95" y2="293.74"/><rect class="cls-18" x="230.87" y="322.5" width="26.2" height="18.58"/><rect class="cls-76" x="231.51" y="321.63" width="27.95" height="22"/><line class="cls-76" x1="239.98" y1="343.63" x2="239.98" y2="321.63"/><line class="cls-76" x1="251.07" y1="343.62" x2="251.07" y2="321.62"/><line class="cls-76" x1="231.24" y1="329.02" x2="239.75" y2="329.02"/><line class="cls-76" x1="250.78" y1="329.23" x2="259.46" y2="329.23"/><line class="cls-76" x1="253.76" y1="321.63" x2="253.76" y2="329.02"/><line class="cls-76" x1="256.86" y1="321.63" x2="256.86" y2="329.02"/><line class="cls-76" x1="234.34" y1="321.63" x2="234.34" y2="329.02"/><line class="cls-76" x1="237.44" y1="321.63" x2="237.44" y2="329.02"/><line class="cls-76" x1="231.24" y1="325.52" x2="239.75" y2="325.52"/><line class="cls-76" x1="250.78" y1="325.73" x2="259.46" y2="325.73"/><rect class="cls-18" x="138.66" y="318.63" width="33.94" height="16.07"/><rect class="cls-76" x="138.4" y="319.29" width="36.16" height="17.62"/><line class="cls-76" x1="148.03" y1="336.91" x2="148.03" y2="319.29"/><line class="cls-76" x1="163.71" y1="336.91" x2="163.71" y2="319.29"/><line class="cls-76" x1="138.05" y1="325.21" x2="147.68" y2="325.21"/><line class="cls-76" x1="163.32" y1="325.38" x2="172.6" y2="325.38"/><line class="cls-83" x1="142.87" y1="319.29" x2="142.87" y2="325.38"/><line class="cls-84" x1="168.95" y1="319.29" x2="168.95" y2="325.38"/><rect class="cls-18" x="116.86" y="319.65" width="6.44" height="15.03"/><g id="window-5" data-name="window"><polyline class="cls-76" points="125.57 334.68 125.57 319.67 116.99 319.67 116.99 337.45 126.25 337.45"/><line class="cls-76" x1="120.42" y1="334.68" x2="127.97" y2="334.68"/></g><line class="cls-70" x1="117.1" y1="325.89" x2="125.21" y2="325.89"/><line class="cls-70" x1="121.6" y1="325.89" x2="121.6" y2="319.62"/><polyline class="cls-76" points="217.09 357.06 217.09 353.97 112.13 353.97 112.13 357.06"/><ellipse class="cls-85" cx="138.36" cy="353.59" rx="4.82" ry="4.44"/><ellipse class="cls-22" cx="127.36" cy="354.52" rx="4.82" ry="3.52"/><path class="cls-22" d="M141.88,355.47v.11a2.66,2.66,0,0,1-1,2.06,4.62,4.62,0,0,1-5.27-.49,5.43,5.43,0,0,0,2.17-4.35h1.42A2.67,2.67,0,0,1,141.88,355.47Z"/><path class="cls-22" d="M140.9,357.65a2.64,2.64,0,0,1-1.68.6h-.6A4.56,4.56,0,0,0,140.9,357.65Z"/><path class="cls-22" d="M138.62,358.25h-6.26a5.42,5.42,0,0,0,3.27-1.09A4.59,4.59,0,0,0,138.62,358.25Z"/><path class="cls-22" d="M137.8,352.81h-3.74a4.62,4.62,0,0,1,2.57-3.36A5.42,5.42,0,0,1,137.8,352.81Z"/><path class="cls-22" d="M134.07,352.81h3.74a5.43,5.43,0,0,1-2.17,4.35,4.6,4.6,0,0,1-1.64-3.53A4.49,4.49,0,0,1,134.07,352.81Z"/><path class="cls-22" d="M132.36,347.37a5.43,5.43,0,0,1,4.28,2.08,4.62,4.62,0,0,0-2.57,3.36h-5a3.52,3.52,0,0,0-2-1.48A5.44,5.44,0,0,1,132.36,347.37Z"/><path class="cls-22" d="M134,353.63a4.6,4.6,0,0,0,1.64,3.53,5.44,5.44,0,0,1-6.79-.2,3.54,3.54,0,0,0,.24-4.15h5A4.49,4.49,0,0,0,134,353.63Z"/><path class="cls-22" d="M132.36,358.25H126.1a3.53,3.53,0,0,0,2.74-1.3A5.41,5.41,0,0,0,132.36,358.25Z"/><path class="cls-22" d="M129.08,352.81a3.54,3.54,0,0,1-.24,4.15,5.42,5.42,0,0,1-1.92-4.15Z"/><path class="cls-22" d="M129.08,352.81h-2.16a5.33,5.33,0,0,1,.21-1.48A3.52,3.52,0,0,1,129.08,352.81Z"/><path class="cls-22" d="M128.84,357a3.53,3.53,0,0,1-2.74,1.3l-.36,0-.13,0a2.67,2.67,0,0,1-2.23-2.63v-.11a2.67,2.67,0,0,1,2.66-2.66h.87A5.42,5.42,0,0,0,128.84,357Z"/><path class="cls-22" d="M126.1,358.25H126l-.3,0Z"/><path class="cls-86" d="M125.62,358.22a3.54,3.54,0,0,1,.49-7,3.44,3.44,0,0,1,1,.15"/><path class="cls-86" d="M126.1,358.25l-.36,0"/><path class="cls-86" d="M127.13,351.33a5.44,5.44,0,0,1,9.51-1.88"/><path class="cls-86" d="M136.64,349.45a4.62,4.62,0,0,1,4.26,8.2"/><path class="cls-86" d="M126.1,358.25H126l-.3,0-.13,0"/><path class="cls-86" d="M140.9,357.65a2.64,2.64,0,0,1-1.68.6h-6.86"/><line class="cls-87" x1="132.53" y1="353.72" x2="132.53" y2="358.03"/><line class="cls-87" x1="132.38" y1="358.01" x2="131.29" y2="356.25"/><line class="cls-87" x1="127.13" y1="356.37" x2="127.11" y2="358.32"/><path class="cls-87" d="M127,358.31"/><line class="cls-87" x1="138.56" y1="356.4" x2="138.2" y2="358.32"/><path class="cls-87" d="M138.05,358.28"/><line class="cls-86" x1="202.72" y1="297.53" x2="213.61" y2="306.83"/><polyline class="cls-86" points="224.2 274.93 211.7 262.26 181.31 262.26"/><polyline class="cls-86" points="111.44 307.3 175.34 262.26 181.37 262.26 129.79 307.3"/><ellipse class="cls-22" cx="220.92" cy="353.26" rx="6.3" ry="3.13"/><path class="cls-17" d="M253.24,353.12v1.81a1.73,1.73,0,0,1,0,.29h0a17,17,0,0,1-6.5,1.16,17.67,17.67,0,0,1-6-.95c2.63-.86,4.34-2.23,4.34-3.77h6.7A1.46,1.46,0,0,1,253.24,353.12Z"/><path class="cls-17" d="M246.71,356.39a17,17,0,0,0,6.5-1.16,1.47,1.47,0,0,1-1.43,1.16Z"/><path class="cls-17" d="M234.2,356.39a21.44,21.44,0,0,0,6.54-.95,17.67,17.67,0,0,0,6,.95Z"/><path class="cls-17" d="M245.08,351.67h-7.47c.53-1.29,2.49-2.37,5.14-2.92C244.21,349.55,245.08,350.57,245.08,351.67Z"/><path class="cls-17" d="M237.61,351.67h7.47c0,1.54-1.7,2.91-4.34,3.77-2-.73-3.28-1.83-3.28-3.07A1.79,1.79,0,0,1,237.61,351.67Z"/><path class="cls-17" d="M237.46,352.38c0,1.23,1.27,2.33,3.28,3.07a21.44,21.44,0,0,1-6.54.95,20.81,20.81,0,0,1-7-1.12c1-.53,1.6-1.21,1.6-1.95a2.11,2.11,0,0,0-1.12-1.65h10A1.79,1.79,0,0,0,237.46,352.38Z"/><path class="cls-17" d="M227.64,351.67a9.3,9.3,0,0,0-3.91-1.28c1.28-2,5.48-3.44,10.47-3.44a18.51,18.51,0,0,1,8.55,1.8c-2.65.55-4.61,1.62-5.14,2.92Z"/><path class="cls-17" d="M234.2,356.39H221.69a12.21,12.21,0,0,0,5.47-1.12A20.81,20.81,0,0,0,234.2,356.39Z"/><path class="cls-17" d="M227.64,351.67a2.11,2.11,0,0,1,1.12,1.65c0,.74-.6,1.42-1.6,1.95-2.35-.86-3.84-2.16-3.84-3.6Z"/><path class="cls-17" d="M223.32,351.67a2.3,2.3,0,0,1,.41-1.28,9.3,9.3,0,0,1,3.91,1.28Z"/><path class="cls-17" d="M217.7,356.39a1.46,1.46,0,0,1-1.4-1.08,12.31,12.31,0,0,0,5.39,1.08Z"/><path class="cls-17" d="M216.25,354.94v-1.81a1.46,1.46,0,0,1,1.45-1.45h5.62c0,1.44,1.49,2.73,3.84,3.6a13.91,13.91,0,0,1-10.86,0A1.39,1.39,0,0,1,216.25,354.94Z"/><path class="cls-29" d="M221.69,356.39a12.31,12.31,0,0,1-5.39-1.08c-1-.54-1.68-1.23-1.68-2,0-1.7,3.17-3.07,7.07-3.07a15.33,15.33,0,0,1,2,.13"/><path class="cls-29" d="M223.73,350.38c1.28-2,5.48-3.44,10.47-3.44a18.51,18.51,0,0,1,8.55,1.8"/><path class="cls-29" d="M253.21,355.23a17,17,0,0,1-6.5,1.16"/><path class="cls-29" d="M242.75,348.75a19.68,19.68,0,0,1,4-.39c5.11,0,9.25,1.8,9.25,4,0,1.12-1,2.13-2.75,2.85"/><path class="cls-29" d="M253.21,355.23h0a1.47,1.47,0,0,1-1.43,1.16H234.2"/><path class="cls-29" d="M221.69,356.39h-4a1.46,1.46,0,0,1-1.4-1.08"/><line class="cls-88" x1="234.54" y1="352.46" x2="234.54" y2="356.2"/><line class="cls-88" x1="234.23" y1="356.18" x2="232.05" y2="354.65"/><line class="cls-88" x1="223.74" y1="354.76" x2="223.71" y2="356.45"/><path class="cls-88" d="M223.4,356.44"/><line class="cls-88" x1="246.59" y1="354.78" x2="245.88" y2="356.45"/><path class="cls-88" d="M245.58,356.42"/><ellipse class="cls-22" cx="252.53" cy="352.35" rx="4.18" ry="3.85"/><path class="cls-17" d="M255.58,353.12v1.81a1.29,1.29,0,0,1,0,.32,4,4,0,0,1-5.39.19,4.72,4.72,0,0,0,1.88-3.77h2.09A1.46,1.46,0,0,1,255.58,353.12Z"/><path class="cls-17" d="M254.13,356.39h-1.38a4,4,0,0,0,2.8-1.14A1.45,1.45,0,0,1,254.13,356.39Z"/><path class="cls-17" d="M252.75,356.39h-5.43a4.7,4.7,0,0,0,2.84-.95A4,4,0,0,0,252.75,356.39Z"/><path class="cls-17" d="M252,351.67H248.8a4,4,0,0,1,2.23-2.92A4.7,4.7,0,0,1,252,351.67Z"/><path class="cls-17" d="M248.8,351.67H252a4.72,4.72,0,0,1-1.88,3.77,4,4,0,0,1-1.42-3.07A3.89,3.89,0,0,1,248.8,351.67Z"/><path class="cls-17" d="M248.74,352.38a4,4,0,0,0,1.42,3.07,4.72,4.72,0,0,1-5.9-.17,3.07,3.07,0,0,0,.21-3.6h4.33A3.89,3.89,0,0,0,248.74,352.38Z"/><path class="cls-17" d="M248.8,351.67h-4.33a3.05,3.05,0,0,0-1.7-1.28,4.72,4.72,0,0,1,8.26-1.63A4,4,0,0,0,248.8,351.67Z"/><path class="cls-17" d="M247.32,356.39h-5.43a3.07,3.07,0,0,0,2.38-1.12A4.7,4.7,0,0,0,247.32,356.39Z"/><path class="cls-17" d="M244.47,351.67a3.07,3.07,0,0,1-.21,3.6,4.7,4.7,0,0,1-1.67-3.6Z"/><path class="cls-17" d="M244.47,351.67H242.6a4.63,4.63,0,0,1,.18-1.28A3.05,3.05,0,0,1,244.47,351.67Z"/><path class="cls-17" d="M241,356.39a1.46,1.46,0,0,1-1.39-1,3.06,3.06,0,0,0,2.3,1Z"/><path class="cls-17" d="M239.53,354.94v-1.81a1.46,1.46,0,0,1,1.45-1.45h1.62a4.7,4.7,0,0,0,1.67,3.6,3.07,3.07,0,0,1-4.68.09A1.43,1.43,0,0,1,239.53,354.94Z"/><path class="cls-29" d="M241.89,356.39a3.07,3.07,0,1,1,0-6.14,3,3,0,0,1,.89.13"/><path class="cls-29" d="M242.78,350.38a4.72,4.72,0,0,1,8.26-1.63"/><path class="cls-29" d="M251,348.75a4,4,0,1,1,1.72,7.64"/><path class="cls-29" d="M241.89,356.39H241a1.46,1.46,0,0,1-1.39-1"/><path class="cls-29" d="M255.55,355.25a1.45,1.45,0,0,1-1.42,1.14h-6.81"/><line class="cls-88" x1="247.47" y1="352.46" x2="247.47" y2="356.2"/><line class="cls-88" x1="247.33" y1="356.18" x2="246.39" y2="354.65"/><line class="cls-88" x1="242.78" y1="354.76" x2="242.76" y2="356.45"/><path class="cls-88" d="M242.63,356.44"/><line class="cls-88" x1="252.7" y1="354.78" x2="252.39" y2="356.45"/><path class="cls-88" d="M252.26,356.42"/><ellipse class="cls-22" cx="43.92" cy="355.26" rx="6.3" ry="3.13"/><path class="cls-17" d="M76.24,355.12v1.81a1.73,1.73,0,0,1,0,.29h0a17,17,0,0,1-6.5,1.16,17.69,17.69,0,0,1-6-.95c2.63-.86,4.34-2.23,4.34-3.77h6.71A1.46,1.46,0,0,1,76.24,355.12Z"/><path class="cls-17" d="M76.21,357.23a1.47,1.47,0,0,1-1.43,1.16H69.71A17,17,0,0,0,76.21,357.23Z"/><path class="cls-17" d="M69.71,358.39H57.2a21.44,21.44,0,0,0,6.54-.95A17.69,17.69,0,0,0,69.71,358.39Z"/><path class="cls-17" d="M68.08,353.67H60.61c.53-1.29,2.49-2.37,5.14-2.92C67.21,351.55,68.08,352.57,68.08,353.67Z"/><path class="cls-17" d="M60.61,353.67h7.47c0,1.54-1.7,2.91-4.34,3.77-2-.73-3.28-1.83-3.28-3.07A1.79,1.79,0,0,1,60.61,353.67Z"/><path class="cls-17" d="M57.2,348.95a18.51,18.51,0,0,1,8.55,1.8c-2.65.55-4.61,1.62-5.14,2.92h-10a9.3,9.3,0,0,0-3.91-1.28C48,350.4,52.22,348.95,57.2,348.95Z"/><path class="cls-17" d="M60.46,354.38c0,1.23,1.27,2.33,3.28,3.07a21.44,21.44,0,0,1-6.54.95,20.76,20.76,0,0,1-7-1.12c1-.53,1.6-1.21,1.6-1.95a2.11,2.11,0,0,0-1.12-1.65h10A1.79,1.79,0,0,0,60.46,354.38Z"/><path class="cls-17" d="M57.2,358.39H44.69a12.21,12.21,0,0,0,5.47-1.12A20.76,20.76,0,0,0,57.2,358.39Z"/><path class="cls-17" d="M50.64,353.67a2.11,2.11,0,0,1,1.12,1.65c0,.74-.6,1.42-1.6,1.95-2.35-.86-3.84-2.16-3.84-3.6Z"/><path class="cls-17" d="M50.64,353.67H46.32a2.3,2.3,0,0,1,.41-1.28A9.3,9.3,0,0,1,50.64,353.67Z"/><path class="cls-17" d="M50.16,357.27a12.21,12.21,0,0,1-5.47,1.12,12.31,12.31,0,0,1-5.39-1.08,1.39,1.39,0,0,1,0-.37v-1.81a1.46,1.46,0,0,1,1.45-1.45h5.62C46.32,355.11,47.81,356.4,50.16,357.27Z"/><path class="cls-17" d="M44.69,358.39h-4a1.46,1.46,0,0,1-1.4-1.08A12.31,12.31,0,0,0,44.69,358.39Z"/><path class="cls-29" d="M44.69,358.39a12.31,12.31,0,0,1-5.39-1.08c-1-.54-1.68-1.23-1.68-2,0-1.7,3.17-3.07,7.07-3.07a15.33,15.33,0,0,1,2,.13"/><path class="cls-29" d="M46.73,352.38c1.28-2,5.48-3.44,10.47-3.44a18.51,18.51,0,0,1,8.55,1.8"/><path class="cls-29" d="M76.21,357.23a17,17,0,0,1-6.5,1.16"/><path class="cls-29" d="M65.75,350.75a19.76,19.76,0,0,1,4-.39c5.11,0,9.25,1.8,9.25,4,0,1.12-1,2.13-2.75,2.85"/><path class="cls-29" d="M44.69,358.39h-4a1.46,1.46,0,0,1-1.4-1.08"/><path class="cls-29" d="M76.21,357.23a1.47,1.47,0,0,1-1.43,1.16H57.2"/><line class="cls-88" x1="57.54" y1="354.46" x2="57.54" y2="358.2"/><line class="cls-88" x1="57.23" y1="358.18" x2="55.05" y2="356.65"/><line class="cls-88" x1="46.74" y1="356.76" x2="46.71" y2="358.45"/><path class="cls-88" d="M46.4,358.44"/><line class="cls-88" x1="69.59" y1="356.78" x2="68.88" y2="358.45"/><path class="cls-88" d="M68.58,358.42"/><ellipse class="cls-22" cx="75.53" cy="354.35" rx="4.18" ry="3.85"/><path class="cls-17" d="M78.58,355.12v1.81a1.29,1.29,0,0,1,0,.32,4,4,0,0,1-5.39.19A4.72,4.72,0,0,0,75,353.67h2.09A1.46,1.46,0,0,1,78.58,355.12Z"/><path class="cls-17" d="M78.55,357.26a1.45,1.45,0,0,1-1.42,1.14H75.75A4,4,0,0,0,78.55,357.26Z"/><path class="cls-17" d="M75.75,358.39H70.32a4.7,4.7,0,0,0,2.84-.95A4,4,0,0,0,75.75,358.39Z"/><path class="cls-17" d="M75,353.67H71.8A4,4,0,0,1,74,350.75,4.7,4.7,0,0,1,75,353.67Z"/><path class="cls-17" d="M71.8,353.67H75a4.72,4.72,0,0,1-1.88,3.77,4,4,0,0,1-1.42-3.07A3.89,3.89,0,0,1,71.8,353.67Z"/><path class="cls-17" d="M70.32,348.95a4.71,4.71,0,0,1,3.71,1.8,4,4,0,0,0-2.23,2.92H67.47a3.05,3.05,0,0,0-1.7-1.28A4.72,4.72,0,0,1,70.32,348.95Z"/><path class="cls-17" d="M71.74,354.38a4,4,0,0,0,1.42,3.07,4.72,4.72,0,0,1-5.9-.17,3.07,3.07,0,0,0,.21-3.6H71.8A3.89,3.89,0,0,0,71.74,354.38Z"/><path class="cls-17" d="M70.32,358.39H64.89a3.07,3.07,0,0,0,2.38-1.12A4.7,4.7,0,0,0,70.32,358.39Z"/><path class="cls-17" d="M67.47,353.67a3.07,3.07,0,0,1-.21,3.6,4.7,4.7,0,0,1-1.67-3.6Z"/><path class="cls-17" d="M67.47,353.67H65.6a4.63,4.63,0,0,1,.18-1.28A3.05,3.05,0,0,1,67.47,353.67Z"/><path class="cls-17" d="M67.26,357.27a3.07,3.07,0,0,1-4.68.09,1.43,1.43,0,0,1-.06-.42v-1.81A1.46,1.46,0,0,1,64,353.67H65.6A4.7,4.7,0,0,0,67.26,357.27Z"/><path class="cls-17" d="M64.89,358.39H64a1.46,1.46,0,0,1-1.39-1A3.06,3.06,0,0,0,64.89,358.39Z"/><path class="cls-29" d="M64.89,358.39a3.07,3.07,0,1,1,0-6.14,3,3,0,0,1,.89.13"/><path class="cls-29" d="M65.78,352.38A4.72,4.72,0,0,1,74,350.75"/><path class="cls-29" d="M74,350.75a4,4,0,1,1,1.72,7.64"/><path class="cls-29" d="M64.89,358.39H64a1.46,1.46,0,0,1-1.39-1"/><path class="cls-29" d="M78.55,357.26a1.45,1.45,0,0,1-1.42,1.14H70.32"/><line class="cls-88" x1="70.47" y1="354.46" x2="70.47" y2="358.2"/><line class="cls-88" x1="70.33" y1="358.18" x2="69.39" y2="356.65"/><line class="cls-88" x1="65.78" y1="356.76" x2="65.76" y2="358.45"/><path class="cls-88" d="M65.63,358.44"/><line class="cls-88" x1="75.7" y1="356.78" x2="75.39" y2="358.45"/><path class="cls-88" d="M75.26,358.42"/><polygon class="cls-89" points="115.53 353.11 101.64 353.11 108.59 321.37 115.53 353.11"/><line class="cls-52" x1="108.59" y1="336.53" x2="108.59" y2="358.23"/><line class="cls-52" x1="108.41" y1="343.63" x2="107.15" y2="341.59"/><line class="cls-52" x1="108.59" y1="347.85" x2="111.36" y2="343.28"/><line class="cls-52" x1="108.41" y1="350.8" x2="105.64" y2="346.23"/><line class="cls-35" x1="461.88" y1="346.55" x2="479.56" y2="346.55"/><line class="cls-35" x1="799.47" y1="346.55" x2="823.93" y2="346.55"/><path class="cls-18" d="M905.72,262.13h-3.38A17.57,17.57,0,0,0,868,256.82a11.71,11.71,0,1,0-3.52,22.88h41.21a8.36,8.36,0,0,0,8.33-8.33v-.9A8.36,8.36,0,0,0,905.72,262.13Z"/><path class="cls-55" d="M392,436.6h42.82"/><line class="cls-55" x1="439.73" y1="436.6" x2="443.24" y2="436.6"/><line class="cls-55" x1="446.05" y1="436.6" x2="476.23" y2="436.6"/><line class="cls-51" x1="623.19" y1="365.6" x2="626.84" y2="365.6"/><line class="cls-35" x1="827.58" y1="346.55" x2="833.97" y2="346.55"/><line class="cls-35" x1="838.53" y1="346.55" x2="840.36" y2="346.55"/><line class="cls-35" x1="846.75" y1="346.55" x2="900.58" y2="346.55"/><line class="cls-35" x1="906.97" y1="346.55" x2="922.48" y2="346.55"/><line class="cls-35" x1="926.59" y1="346.55" x2="948.49" y2="346.55"/><line class="cls-35" x1="953.96" y1="346.55" x2="960.35" y2="346.55"/><line class="cls-35" x1="964.91" y1="346.55" x2="966.74" y2="346.55"/><line class="cls-35" x1="973.13" y1="346.55" x2="1026.96" y2="346.55"/><line class="cls-35" x1="1033.35" y1="346.55" x2="1048.86" y2="346.55"/><line class="cls-54" x1="1054.34" y1="346.55" x2="1105" y2="346.55"/><line class="cls-90" x1="471.58" y1="182.38" x2="498.43" y2="182.38"/><line class="cls-90" x1="504.96" y1="182.38" x2="501.33" y2="182.38"/><line class="cls-90" x1="510.76" y1="182.38" x2="561.56" y2="182.38"/><path class="cls-18" d="M482.92,181.29s-8-5.81,0-15.24,18.87-.73,18.87-.73,2.18-5.81,6.53-6.53,9.43,2.18,9.43,2.18a19.3,19.3,0,0,1,18.14-11.61c13.79,0,19.59,10.16,21,16.69,0,0,10.16-.73,10.89,6.53s-2.9,8.71-2.9,8.71Z"/><line class="cls-91" x1="1246.11" y1="414.31" x2="1260.71" y2="414.31"/><line class="cls-91" x1="1256.15" y1="423.44" x2="1259.8" y2="423.44"/><line class="cls-55" x1="997.54" y1="436.84" x2="1019.44" y2="436.84"/><line class="cls-55" x1="1024" y1="436.84" x2="1026.74" y2="436.84"/><line class="cls-55" x1="1031.3" y1="436.84" x2="1049.55" y2="436.84"/><line class="cls-54" x1="1165.09" y1="385.87" x2="1189.58" y2="385.87"/><line class="cls-54" x1="1194.68" y1="385.87" x2="1197.74" y2="385.87"/><line class="cls-91" x1="1165.26" y1="398.13" x2="1189.75" y2="398.13"/><line class="cls-91" x1="1194.85" y1="398.13" x2="1197.91" y2="398.13"/><line class="cls-54" x1="1202.85" y1="385.87" x2="1223.25" y2="385.87"/><line class="cls-54" x1="1228.36" y1="385.87" x2="1231.42" y2="385.87"/><line class="cls-54" x1="1232.95" y1="378.02" x2="1244.17" y2="378.02"/><line class="cls-54" x1="1105.78" y1="385.87" x2="1130.27" y2="385.87"/><line class="cls-54" x1="1135.37" y1="385.87" x2="1138.43" y2="385.87"/><line class="cls-54" x1="1143.53" y1="385.87" x2="1163.94" y2="385.87"/><line class="cls-19" x1="1169.04" y1="385.87" x2="1172.11" y2="385.87"/><line class="cls-35" x1="960.91" y1="398.4" x2="965.47" y2="398.4"/><line class="cls-35" x1="969.12" y1="398.4" x2="1008.36" y2="398.4"/><line class="cls-54" x1="1160.72" y1="450.05" x2="1209.56" y2="450.05"/><line class="cls-54" x1="1042.44" y1="450.05" x2="1091.28" y2="450.05"/><line class="cls-54" x1="1101.45" y1="450.05" x2="1107.56" y2="450.05"/><line class="cls-54" x1="1117.73" y1="450.05" x2="1158.43" y2="450.05"/><line class="cls-54" x1="1168.61" y1="450.05" x2="1174.71" y2="450.05"/><path class="cls-92" d="M971.28,370.88H948.8c-3.15-.51-7.18-2-6.6-6.15-.44-3.77,5.73-5.28,8.66-5.88h7.67a6.26,6.26,0,1,0,0-12.52H898.75a6.25,6.25,0,0,0-2.13,12.14h-1.13c3.28.42,7.09,2.88,7.09,6.33,0,3.18-4.83,5.52-6.69,6.09H877.24a6.26,6.26,0,0,0,0,12.52h32.35a6.47,6.47,0,0,1,3.3,5.46c0,3.12-3.65,5.43-5.16,6.05h-9.06a6.26,6.26,0,0,0,0,12.52h50.26a6.26,6.26,0,0,0,1.71-12.27c1.33.1,1.89-.1.33-.1h-.73a6.22,6.22,0,0,0-1.24-.14c-2.45-.54-5.48-2.08-5-6.12-.27-3,2.76-4.58,5.17-5.39h22.15a6.26,6.26,0,1,0,0-12.52Z"/><path class="cls-65" d="M584.31,433.1H643"/><line class="cls-65" x1="649.79" y1="433.1" x2="654.6" y2="433.1"/><line class="cls-65" x1="658.45" y1="433.1" x2="699.86" y2="433.1"/><line class="cls-65" x1="702.71" y1="425.26" x2="712.46" y2="425.26"/><path class="cls-65" d="M1124,384h50.7"/><line class="cls-65" x1="1179.56" y1="384.03" x2="1184.98" y2="384.03"/><line class="cls-65" x1="1188.41" y1="384.03" x2="1235.07" y2="384.03"/><line class="cls-65" x1="622.66" y1="493.36" x2="628.88" y2="493.36"/><line class="cls-65" x1="633.85" y1="493.36" x2="673.15" y2="493.36"/><path class="cls-47" d="M249.73,78.63S264,77.27,269,84.16a25.25,25.25,0,0,1,18.17-5.64"/><path class="cls-47" d="M223.27,88.67s14.28-1.36,19.26,5.53a25.25,25.25,0,0,1,18.17-5.64"/><line class="cls-65" x1="715.62" y1="446.35" x2="728.9" y2="446.35"/><path class="cls-47" d="M1178.57,96.7s14.28-1.36,19.26,5.53A25.25,25.25,0,0,1,1216,96.59"/><path class="cls-47" d="M1152.1,106.73s14.28-1.36,19.26,5.53a25.25,25.25,0,0,1,18.17-5.64"/><line class="cls-35" x1="1070.21" y1="372.5" x2="1074.78" y2="372.5"/><line class="cls-35" x1="1078.43" y1="372.5" x2="1117.66" y2="372.5"/><line class="cls-65" x1="998.45" y1="435.02" x2="1020.35" y2="435.02"/><line class="cls-65" x1="1024.91" y1="435.02" x2="1027.65" y2="435.02"/><line class="cls-65" x1="1032.21" y1="435.02" x2="1050.46" y2="435.02"/><line class="cls-65" x1="1059.13" y1="428" x2="1069.17" y2="428"/><line class="cls-65" x1="1071.9" y1="428" x2="1074.64" y2="428"/><line class="cls-65" x1="999.66" y1="383.81" x2="1012.93" y2="383.81"/><line class="cls-65" x1="1020.07" y1="383.81" x2="1023.13" y2="383.81"/><line class="cls-65" x1="1028.23" y1="383.81" x2="1031.29" y2="383.81"/><line class="cls-65" x1="970.03" y1="396.58" x2="1009.27" y2="396.58"/><line class="cls-65" x1="1142.25" y1="354.51" x2="1154.11" y2="354.51"/><line class="cls-65" x1="1174.18" y1="354.51" x2="1187.87" y2="354.51"/><line class="cls-65" x1="1197" y1="354.51" x2="1206.12" y2="354.51"/><line class="cls-65" x1="1233.86" y1="376.2" x2="1245.09" y2="376.2"/><line class="cls-65" x1="1071.13" y1="370.68" x2="1075.69" y2="370.68"/><line class="cls-65" x1="1079.34" y1="370.68" x2="1118.58" y2="370.68"/><line class="cls-65" x1="1247.02" y1="412.49" x2="1261.62" y2="412.49"/><line class="cls-65" x1="1257.06" y1="421.61" x2="1260.71" y2="421.61"/><line class="cls-65" x1="1166.17" y1="396.31" x2="1190.66" y2="396.31"/><line class="cls-65" x1="1195.76" y1="396.31" x2="1198.82" y2="396.31"/><line class="cls-65" x1="34.06" y1="426.45" x2="45.92" y2="426.45"/><line class="cls-65" x1="49.57" y1="426.45" x2="54.14" y2="426.45"/><line class="cls-65" x1="58.7" y1="426.45" x2="66.91" y2="426.45"/><line class="cls-65" x1="59.61" y1="436.49" x2="64.17" y2="436.49"/><line class="cls-65" x1="68.74" y1="436.49" x2="90.63" y2="436.49"/><line class="cls-65" x1="118.01" y1="426.45" x2="125.31" y2="426.45"/><line class="cls-65" x1="249.12" y1="413.21" x2="263.89" y2="413.21"/><line class="cls-65" x1="274.97" y1="413.21" x2="295.89" y2="413.21"/><path class="cls-65" d="M394.27,434.38h37"/><line class="cls-65" x1="437.11" y1="434.71" x2="441.93" y2="434.71"/><line class="cls-65" x1="445.78" y1="434.71" x2="476.23" y2="434.71"/><path class="cls-65" d="M129,489.5H165.9"/><line class="cls-65" x1="170.14" y1="489.5" x2="173.16" y2="489.5"/><line class="cls-65" x1="175.58" y1="489.5" x2="201.57" y2="489.5"/><line class="cls-65" x1="308.66" y1="475.39" x2="310.48" y2="475.39"/><line class="cls-65" x1="314.68" y1="475.39" x2="330.32" y2="475.39"/><line class="cls-65" x1="199.72" y1="480.87" x2="215.36" y2="480.87"/><path class="cls-65" d="M464.57,469.41h27.79"/><line class="cls-65" x1="496.73" y1="469.65" x2="500.35" y2="469.65"/><line class="cls-65" x1="503.24" y1="469.65" x2="526.09" y2="469.65"/><line class="cls-65" x1="526.84" y1="461.44" x2="530.46" y2="461.44"/><line class="cls-65" x1="533.35" y1="461.44" x2="556.21" y2="461.44"/><line class="cls-35" x1="827.58" y1="346.55" x2="833.97" y2="346.55"/><line class="cls-35" x1="419.05" y1="346.55" x2="443.52" y2="346.55"/><line class="cls-35" x1="446.05" y1="346.55" x2="453.04" y2="346.55"/><line class="cls-35" x1="577.73" y1="367.41" x2="588.95" y2="367.41"/><line class="cls-67" x1="579.61" y1="366.42" x2="589.37" y2="366.42"/><path class="cls-55" d="M392,436.6h42.82"/><line class="cls-55" x1="439.73" y1="436.6" x2="443.24" y2="436.6"/><line class="cls-55" x1="446.05" y1="436.6" x2="476.23" y2="436.6"/><path class="cls-65" d="M394.27,434.38h37"/><line class="cls-65" x1="437.11" y1="434.71" x2="441.93" y2="434.71"/><line class="cls-65" x1="445.78" y1="434.71" x2="476.23" y2="434.71"/><path class="cls-35" d="M442.7,393.78h42.82"/><line class="cls-35" x1="490.43" y1="393.78" x2="493.94" y2="393.78"/><line class="cls-35" x1="496.75" y1="393.78" x2="526.94" y2="393.78"/><path class="cls-67" d="M445,392.47h37"/><line class="cls-67" x1="487.82" y1="392.8" x2="492.63" y2="392.8"/><line class="cls-67" x1="496.48" y1="392.8" x2="526.94" y2="392.8"/><line class="cls-93" x1="33.52" y1="134.86" x2="57.72" y2="134.86"/><line class="cls-90" x1="27.66" y1="147.72" x2="54.51" y2="147.72"/><line class="cls-90" x1="61.04" y1="147.72" x2="57.41" y2="147.72"/><line class="cls-90" x1="66.84" y1="147.72" x2="117.64" y2="147.72"/><path class="cls-18" d="M36,146.63s-8-5.81,0-15.24,18.87-.73,18.87-.73,2.18-5.81,6.53-6.53,9.43,2.18,9.43,2.18A19.3,19.3,0,0,1,89,114.7c13.79,0,19.59,10.16,21,16.69,0,0,10.16-.73,10.89,6.53s-2.9,8.71-2.9,8.71Z"/><polygon class="cls-89" points="18.53 352.11 4.64 352.11 11.59 320.37 18.53 352.11"/><line class="cls-52" x1="11.59" y1="335.53" x2="11.59" y2="357.23"/><line class="cls-52" x1="11.41" y1="342.63" x2="10.15" y2="340.59"/><line class="cls-52" x1="11.59" y1="346.85" x2="14.36" y2="342.28"/><line class="cls-52" x1="11.41" y1="349.8" x2="8.64" y2="345.23"/><rect class="cls-94" width="27" height="527"/><rect class="cls-95" x="1274" y="1" width="22.16" height="525" transform="translate(2570.16 527) rotate(-180)"/><path class="cls-96" d="M1183,448.59v-5.76l8.65-5.76v-4.32H1050.43c.72,4.32,2.88,7.21,7.93,8.65s4.32,8.65,4.32,8.65"/><line class="cls-96" x1="1056.19" y1="428.42" x2="1056.19" y2="432.02"/><line class="cls-96" x1="1069.88" y1="428.42" x2="1069.88" y2="432.02"/><line class="cls-96" x1="1077.09" y1="428.42" x2="1077.09" y2="432.02"/><line class="cls-96" x1="1083.57" y1="428.42" x2="1083.57" y2="432.02"/><line class="cls-96" x1="1056.19" y1="428.42" x2="1056.19" y2="432.02"/><line class="cls-96" x1="1069.88" y1="428.42" x2="1069.88" y2="432.02"/><line class="cls-96" x1="1077.09" y1="428.42" x2="1077.09" y2="432.02"/><line class="cls-96" x1="1083.57" y1="428.42" x2="1083.57" y2="432.02"/><line class="cls-96" x1="1062.67" y1="407.52" x2="1062.67" y2="432.02"/><line class="cls-96" x1="1150.58" y1="407.52" x2="1150.58" y2="432.02"/><line class="cls-96" x1="1125.36" y1="407.52" x2="1125.36" y2="432.02"/><polygon class="cls-96" points="1157.07 403.92 1058.35 403.92 1058.35 407.52 1154.19 407.52 1157.07 403.92"/><line class="cls-96" x1="1077.81" y1="362.58" x2="1077.81" y2="403.2"/><line class="cls-96" x1="1113.84" y1="385.9" x2="1113.84" y2="403.2"/><polyline class="cls-96" points="1146.52 432.02 1146.52 412.56 1133.03 412.56 1133.03 432.02"/><line class="cls-96" x1="1139.78" y1="413.28" x2="1139.78" y2="432.74"/><polyline class="cls-96" points="1077.81 385.9 1116.72 385.9 1119.6 382.3 1077.81 382.3"/><line class="cls-96" x1="1103.03" y1="385.9" x2="1103.03" y2="403.2"/><line class="cls-96" x1="1142.66" y1="398.15" x2="1142.66" y2="403.2"/><line class="cls-96" x1="1135.45" y1="398.15" x2="1135.45" y2="403.2"/><line class="cls-96" x1="1128.25" y1="398.15" x2="1128.25" y2="403.2"/><line class="cls-96" x1="1121.76" y1="398.15" x2="1121.76" y2="403.2"/><line class="cls-96" x1="1107.35" y1="398.15" x2="1107.35" y2="403.2"/><line class="cls-96" x1="1103.03" y1="397.43" x2="1145.54" y2="397.43"/><line class="cls-96" x1="1090.78" y1="428.42" x2="1090.78" y2="432.02"/><line class="cls-96" x1="1097.98" y1="428.42" x2="1097.98" y2="432.02"/><line class="cls-96" x1="1104.47" y1="428.42" x2="1104.47" y2="432.02"/><line class="cls-96" x1="1111.67" y1="428.42" x2="1111.67" y2="432.02"/><line class="cls-96" x1="1118.88" y1="428.42" x2="1118.88" y2="432.02"/><line class="cls-96" x1="1153.47" y1="428.42" x2="1153.47" y2="432.02"/><line class="cls-96" x1="1160.67" y1="428.42" x2="1160.67" y2="432.02"/><line class="cls-96" x1="1174.36" y1="428.42" x2="1174.36" y2="432.02"/><line class="cls-96" x1="1181.57" y1="428.42" x2="1181.57" y2="432.02"/><line class="cls-96" x1="1188.77" y1="428.42" x2="1188.77" y2="432.02"/><rect class="cls-97" x="1082.85" y="389.51" width="6.49" height="10.09"/><rect class="cls-97" x="1092.94" y="389.51" width="6.49" height="10.09"/><line class="cls-96" x1="1082.85" y1="395.99" x2="1088.62" y2="395.99"/><line class="cls-96" x1="1093.66" y1="395.99" x2="1099.42" y2="395.99"/><line class="cls-96" x1="1167.88" y1="428.42" x2="1167.88" y2="432.02"/><circle class="cls-29" cx="1135.45" cy="424.09" r="0.72"/><circle class="cls-29" cx="1144.1" cy="424.09" r="0.72"/><circle class="cls-98" cx="1077.09" cy="416.89" r="6.67"/><circle class="cls-23" cx="1077.09" cy="416.89" r="4.32"/><ellipse class="cls-23" cx="1078.35" cy="417.07" rx="3.06" ry="3.42"/><circle class="cls-98" cx="1099.42" cy="416.89" r="6.67"/><circle class="cls-23" cx="1099.42" cy="416.89" r="4.32"/><ellipse class="cls-23" cx="1100.68" cy="417.07" rx="3.06" ry="3.42"/><polyline class="cls-99" points="1075.98 363.72 1068.78 366.92 1075.98 370.92"/><polyline class="cls-100" points="1075.98 380.14 1067.61 384.46 1075.98 388.79"/><line class="cls-29" x1="1068.78" y1="384.46" x2="1075.98" y2="384.46"/><path class="cls-18" d="M1076,372.36H1069a.11.11,0,0,0-.08.19l2.7,2.7-2.7,2.7a.11.11,0,0,0,.08.19H1076"/><path class="cls-101" d="M1182.1,441.92l8.65-5.76v-2.5H1052.25c.66,5.27,7.59,6.37,8.84,7.73"/><line class="cls-96" x1="1053.31" y1="427.7" x2="1191.66" y2="427.7"/><rect class="cls-102" x="1073.93" y="372.36" width="2.05" height="5.76"/></g><g id="Trail_Elements" data-name="Trail Elements"><line class="cls-103" x1="900.86" y1="329.7" x2="1140.4" y2="329.7"/></g></g></svg>