<svg xmlns="http://www.w3.org/2000/svg" viewBox="0 0 218.43 43"><defs><style>.cls-1,.cls-3{fill:#3b312f;}.cls-1{opacity:0.1;}.cls-2{fill:none;stroke:#3b312f;stroke-linecap:round;stroke-linejoin:round;stroke-width:3px;}</style></defs><title>LEARN MORE button</title><g id="Layer_2" data-name="Layer 2"><g id="Home_Page" data-name="Home Page"><circle class="cls-1" cx="21.5" cy="21.5" r="21.5"/><polyline class="cls-2" points="18.5 14.25 26.5 21.25 19 28.75"/><path class="cls-3" d="M70.39,29.88H60.32v-16h3.4V27h6.67Z"/><path class="cls-3" d="M85.23,29.88H74.79v-16H85.23v2.74H78.15v3.89h6.66v2.55H78.15v4.07h7.08Z"/><path class="cls-3" d="M89,29.88l5.3-16h4l5.27,16H99.94l-1.18-4h-5.2l-1.2,4Zm7.13-12.81-1.87,6.34H98.1l-1.85-6.34Z"/><path class="cls-3" d="M120,19a4.72,4.72,0,0,1-2.89,4.5l3.21,6.39h-3.77L113.74,24H111.1v5.88h-3.34v-16h6.52C118.12,13.88,120,16.11,120,19Zm-6.23,2.52c1.69,0,2.74-.86,2.74-2.46a2.44,2.44,0,0,0-2.7-2.57H111.1v5Z"/><path class="cls-3" d="M125,29.88v-16h2.78l6.84,10.27h.12V13.88H138v16h-2.77l-6.86-10.34h-.12V29.88Z"/><path class="cls-3" d="M150.82,29.88v-16h3.47l4.42,9.91h.11l4.42-9.91h3.45v16h-3.06V19.52h-.14l-3.68,8.23h-2.12L154,19.52h-.14V29.88Z"/><path class="cls-3" d="M171.76,20.93c0-4.55,2.6-7.36,6.95-7.36s6.94,2.84,6.94,7.36v2c0,4.51-2.6,7.25-7,7.25s-6.93-2.74-6.93-7.25Zm3.45,2c0,3,1.45,4.43,3.49,4.43s3.49-1.44,3.49-4.43v-2c0-3-1.44-4.52-3.49-4.52s-3.49,1.55-3.49,4.52Z"/><path class="cls-3" d="M202.92,19a4.72,4.72,0,0,1-2.89,4.5l3.21,6.39h-3.77L196.68,24H194v5.88h-3.34v-16h6.52C201.07,13.88,202.92,16.11,202.92,19Zm-6.23,2.52c1.69,0,2.74-.86,2.74-2.46a2.44,2.44,0,0,0-2.7-2.57H194v5Z"/><path class="cls-3" d="M218.43,29.88H208v-16h10.44v2.74h-7.08v3.89H218v2.55h-6.66v4.07h7.08Z"/></g></g></svg>