<svg xmlns="http://www.w3.org/2000/svg" viewBox="0 0 150 150"><defs><style>.cls-1,.cls-2,.cls-5,.cls-6{fill:none;}.cls-2,.cls-5{stroke:#3b312f;}.cls-2,.cls-5,.cls-6{stroke-linecap:round;stroke-miterlimit:10;}.cls-2{stroke-width:2px;}.cls-3{fill:#722c36;}.cls-4{fill:#b9d1ef;}.cls-5,.cls-6{stroke-width:3px;}.cls-6{stroke:#fff;}</style></defs><title>Service 6</title><g id="Layer_2" data-name="Layer 2"><g id="Services_Icon" data-name="Services Icon"><rect class="cls-1" width="150" height="150"/><line class="cls-2" x1="101.8" y1="66.32" x2="107.72" y2="66.32"/><line class="cls-2" x1="109.54" y1="66.32" x2="111.82" y2="66.32"/><line class="cls-2" x1="114.1" y1="66.32" x2="118.2" y2="66.32"/><rect class="cls-3" x="20.04" y="72.72" width="16.53" height="59.12"/><circle class="cls-4" cx="78.88" cy="95.97" r="23.53"/><g id="Layer_2-2" data-name="Layer 2"><g id="Layer_1-2" data-name="Layer 1-2"><path class="cls-5" d="M26.69,61.89s-6.61-.23-6.83,5.29,0,63.51,0,63.51-.09,5.51,4.31,5.72,99.17,0,99.17,0,6.2.39,6.43-4.2,0-66.58,0-66.58-.69-3.59-3.91-3.75-22.73,0-22.73,0L91.45,47.5h-26L54.69,61.63H44.81V54.31H26.68Z"/><line class="cls-5" x1="32.97" y1="62.02" x2="38.9" y2="62.02"/><polyline class="cls-5" points="19.8 72.33 37.3 72.33 37.3 130.74"/><path class="cls-6" d="M78.28,79.74s15.91-.45,16.36,15.9"/><polyline class="cls-5" points="111.58 118.85 115.82 118.85 115.82 114.36"/><polyline class="cls-5" points="69.45 53.98 69.45 58.55 88.14 58.55"/><polyline class="cls-5" points="108.55 56.27 108.55 51.13 119.42 51.13 119.42 56.27"/><line class="cls-5" x1="114.51" y1="79.74" x2="129.83" y2="79.74"/><circle class="cls-5" cx="78.72" cy="95.89" r="23.84"/><circle class="cls-5" cx="79.4" cy="95.46" r="31.79"/></g></g></g></g></svg>