<svg xmlns="http://www.w3.org/2000/svg" viewBox="0 0 150 150"><defs><style>.cls-1,.cls-10,.cls-14,.cls-3,.cls-7,.cls-8{fill:none;}.cls-16,.cls-17,.cls-19,.cls-2,.cls-22,.cls-5{fill:#fff;}.cls-12,.cls-15,.cls-2,.cls-21,.cls-22,.cls-3,.cls-9{stroke:#333;}.cls-12,.cls-14,.cls-15,.cls-16,.cls-2,.cls-3,.cls-7,.cls-9{stroke-linecap:round;}.cls-12,.cls-15,.cls-16,.cls-19,.cls-2,.cls-20,.cls-3,.cls-7,.cls-9{stroke-linejoin:round;}.cls-10,.cls-12,.cls-15,.cls-16,.cls-17,.cls-18,.cls-19,.cls-2,.cls-20,.cls-21,.cls-22,.cls-3,.cls-7,.cls-8{stroke-width:2px;}.cls-15,.cls-20,.cls-4,.cls-9{fill:#fcc062;}.cls-6{fill:#722c36;}.cls-7,.cls-8{stroke:#404041;}.cls-10,.cls-14,.cls-17,.cls-18,.cls-21,.cls-22,.cls-8{stroke-miterlimit:10;}.cls-9{stroke-width:3px;}.cls-10{stroke:#fcc062;}.cls-11,.cls-12{fill:#cee4f5;}.cls-13,.cls-21{fill:#712d37;}.cls-14,.cls-16,.cls-17,.cls-18,.cls-19,.cls-20{stroke:#3b312f;}.cls-18{fill:#3b312f;}</style></defs><title>Service 3</title><g id="Layer_2" data-name="Layer 2"><g id="Services_Icon" data-name="Services Icon"><rect class="cls-1" width="150" height="150"/><path class="cls-2" d="M93.64,100.76l8-35.62a9.13,9.13,0,0,1,8.25-4.49L114,42.26s6-1.83,9.62,2.15l-4.08,18.24s6.8,3.32,5.46,8.61L117.2,106S105.71,109.49,93.64,100.76Z"/><path class="cls-3" d="M117,45.19l-4.79,21.4c-4.95-.81-6.68,1.52-6.68,1.52L104,74.87,98.37,100"/><polyline class="cls-4" points="112.03 61.39 108.74 66.62 111.1 67.53 113.63 62.59"/><path class="cls-4" d="M112.09,61.44l-5.79,1.19c-.72.2-1.82-.59-1.58-1.29l1.89-7.9,6.45,4.94"/><path class="cls-4" d="M117.47,59.92,124,57.45c.72-.2,1.82.59,1.58,1.29L122.7,66.9l-6.1-4.38"/><path class="cls-5" d="M114.31,63.24a2.39,2.39,0,0,0,2.29-.72l.73.59,1,5.56-1.83-1.33-1,1.8-.94-4.9,1.15,4.27.74-1.39,1.53.55-1.06-4.76-2.48.75Z"/><polygon class="cls-4" points="114.5 64.23 114.35 63.66 114.39 63.65 114.5 64.23"/><polygon class="cls-4" points="117.93 67.66 116.4 67.11 115.66 68.5 114.5 64.23 114.39 63.65 116.87 62.9 117.93 67.66"/><circle class="cls-6" cx="114.94" cy="60.97" r="1.96" transform="translate(30.33 159.81) rotate(-77.38)"/><path class="cls-5" d="M116.91,59.71a2.39,2.39,0,1,1-1.55-1.15A2.38,2.38,0,0,1,116.91,59.71Zm-.06,1.68a2,2,0,1,0-2.34,1.48A2,2,0,0,0,116.85,61.39Z"/><path class="cls-7" d="M116.91,59.71a2.39,2.39,0,1,1-1.55-1.15A2.38,2.38,0,0,1,116.91,59.71Z"/><path class="cls-3" d="M112.18,61.83l-5.65.86a1.56,1.56,0,0,1-2.24-1.56,52.15,52.15,0,0,0,1.53-6.82s.51-1.46,1.49-.87A18.44,18.44,0,0,1,113,58.22"/><polyline class="cls-7" points="114.31 63.24 114.39 63.65 114.5 64.23 115.44 69.13 116.5 67.33 118.32 68.67 117.34 63.11"/><polyline class="cls-7" points="110.75 62.44 108.06 66.18 109.98 65.87 110.78 68.08 113.28 63.93"/><path class="cls-8" d="M116.91,59.72h0c.16-.07,5.82-2.75,7.93-2.41s.79,2.27.79,2.27-1.06,3.09-1.76,5.8-2.44,1-2.44,1l-4.09-3.28-.73-.59"/><path class="cls-9" d="M106,46.2C55.44,9,32.89,80.63,36.81,82.51H29.18c-3.93-1.88,8.19-50.7,55.16-46.78,0,0,14.09,0,22,10"/><polyline class="cls-10" points="78.23 89.44 82.17 85.45 86.38 89.61"/><rect class="cls-2" x="73.59" y="42.71" width="21.13" height="55.31" transform="translate(169.59 139.17) rotate(178.94)"/><rect class="cls-6" x="77.49" y="48.67" width="3.02" height="40.46" transform="translate(159.26 136.34) rotate(178.94)"/><rect class="cls-11" x="83.9" y="57.99" width="1.49" height="20.96" transform="translate(170.55 135.36) rotate(178.94)"/><rect class="cls-12" x="58.19" y="49.28" width="19.21" height="37.98" transform="translate(157.45 103.2) rotate(156.09)"/><rect class="cls-13" x="54.81" y="54.93" width="4.91" height="2.93" transform="translate(132.47 84.73) rotate(156.09)"/><rect class="cls-2" x="54.79" y="63.23" width="21.13" height="37.98" transform="translate(167.95 104.68) rotate(140.82)"/><path class="cls-14" d="M60.19,70.81c.37.49,1.36.36,2.2-.28s1.23-1.56.86-2"/><path class="cls-14" d="M57.14,73.14c.37.49,1.36.36,2.2-.28s1.23-1.56.86-2"/><path class="cls-14" d="M54.08,75.46c.37.49,1.36.36,2.2-.28s1.23-1.56.86-2"/><path class="cls-14" d="M51,77.78c.37.49,1.36.36,2.2-.28s1.23-1.56.86-2"/><path class="cls-14" d="M64.18,73.84c.37.49,1.36.36,2.2-.28s1.23-1.56.86-2"/><path class="cls-14" d="M61.13,76.17c.37.49,1.36.36,2.2-.28s1.23-1.56.86-2"/><path class="cls-14" d="M58.07,78.49c.37.49,1.36.36,2.2-.28s1.23-1.56.86-2"/><path class="cls-14" d="M55,80.81c.37.49,1.36.36,2.2-.28s1.23-1.56.86-2"/><path class="cls-14" d="M67.93,78.72c.37.49,1.36.36,2.2-.28s1.23-1.56.86-2"/><path class="cls-14" d="M64.87,81c.37.49,1.36.36,2.2-.28s1.23-1.56.86-2"/><path class="cls-14" d="M61.82,83.37c.37.49,1.36.36,2.2-.28s1.23-1.56.86-2"/><path class="cls-14" d="M58.76,85.69c.37.49,1.36.36,2.2-.28s1.23-1.56.86-2"/><path class="cls-14" d="M70,86.52c.37.49,1.36.36,2.2-.28s1.23-1.56.86-2"/><path class="cls-14" d="M67,88.84c.37.49,1.36.36,2.2-.28s1.23-1.56.86-2"/><path class="cls-14" d="M63.93,91.17c.37.49,1.36.36,2.2-.28s1.23-1.56.86-2"/><polyline class="cls-2" points="98.8 84.91 99.92 78.75 75.31 73.16 72.22 84.25"/><ellipse class="cls-15" cx="88.1" cy="75.1" rx="4.19" ry="12.59" transform="translate(-5.19 143.64) rotate(-76.75)"/><path class="cls-16" d="M88.55,73c3.35.79,5.85,2.33,5.59,3.45s-3.19,1.38-6.54.59S81.75,74.74,82,73.62c.19-.79,1.71-1.15,3.76-1"/><path class="cls-17" d="M128.18,91.81l-16.7,37.8a7.24,7.24,0,0,1-6.45,4.64H52.63a7.24,7.24,0,0,1-6.45-4.64l-16.7-37.8"/><rect class="cls-18" x="27.01" y="83.42" width="105.61" height="8.88" rx="2.28" ry="2.28"/><path class="cls-19" d="M35.42,84.91s3.88-2.32,6.75,11,6.17,13.92,6.17,13.92l-5.43-.58s-.58,2.77-.19,3.48c.19.35-2.89.35-5.76-13S29.8,85.83,29.8,85.83l5.31-.76Z"/><path class="cls-19" d="M31.86,84.91s-3.88-1.33-6.75,12-6.17,13.92-6.17,13.92l5.43-.58s.58,2.77.19,3.48c-.19.35,2.89.35,5.76-13s7.16-13.92,7.16-13.92l-5.31-2.73Z"/><path class="cls-20" d="M35.42,83.77s3.88-.27,6.75,10.06,6.17,10.78,6.17,10.78l-5.43-.45s-.58,2.14-.19,2.69c.19.27-2.89.27-5.76-10.06S29.8,86,29.8,86l5.31-2.12Z"/><path class="cls-20" d="M31.86,83.77S28,83.5,25.11,93.83s-6.17,10.78-6.17,10.78l5.43-.45s.58,2.14.19,2.69c-.19.27,2.89.27,5.76-10.06S37.48,86,37.48,86l-5.31-2.12Z"/><path class="cls-21" d="M31.83,83.1s-10-5-12.65-1c-1.56,2.36.66,6.07.83,7.2s-1.86,7,.82,8.78c1.77,1.14,7.63-2.33,9-4a28.07,28.07,0,0,0,3-5"/><path class="cls-1" d="M30.39,80.05S26.11,77.38,25,77.2"/><path class="cls-21" d="M35.53,83.1s10-5,12.65-1c1.56,2.36-.66,6.07-.83,7.2s1.86,7-.82,8.78c-1.77,1.14-7.63-2.33-9-4a28.07,28.07,0,0,1-3-5"/><ellipse class="cls-22" cx="33.47" cy="86.66" rx="5.02" ry="3.89"/><line class="cls-7" x1="44.71" y1="98.22" x2="71.86" y2="98.22"/><line class="cls-7" x1="54.08" y1="102.89" x2="87.47" y2="102.89"/><line class="cls-7" x1="76.84" y1="107.99" x2="47.39" y2="107.99"/><line class="cls-7" x1="82.93" y1="107.99" x2="94.63" y2="107.99"/><line class="cls-7" x1="92.65" y1="113.08" x2="66.42" y2="113.08"/><line class="cls-7" x1="60.96" y1="113.08" x2="47.13" y2="113.08"/><line class="cls-7" x1="86.19" y1="118.12" x2="56.74" y2="118.12"/><line class="cls-7" x1="86.44" y1="123.14" x2="99.46" y2="123.14"/><line class="cls-7" x1="60.15" y1="123.14" x2="80.52" y2="123.14"/><line class="cls-7" x1="79.03" y1="128.36" x2="53.23" y2="128.36"/><line class="cls-7" x1="84.37" y1="128.36" x2="90.66" y2="128.36"/><line class="cls-7" x1="114.82" y1="98.22" x2="87.66" y2="98.22"/><line class="cls-7" x1="85.65" y1="107.99" x2="115.1" y2="107.99"/><line class="cls-7" x1="96.6" y1="113.08" x2="113.39" y2="113.08"/><line class="cls-7" x1="92.9" y1="118.12" x2="109.43" y2="118.12"/><line class="cls-7" x1="96.97" y1="128.36" x2="106.3" y2="128.36"/><path class="cls-7" d="M98,128.36"/><path class="cls-7" d="M80.5,128.36"/><line class="cls-7" x1="94.92" y1="102.89" x2="106.22" y2="102.89"/><line class="cls-7" x1="103.51" y1="123.14" x2="109.33" y2="123.14"/><line class="cls-7" x1="51.2" y1="123.14" x2="69.66" y2="123.14"/><line class="cls-7" x1="53.17" y1="118.12" x2="46.87" y2="118.12"/><line class="cls-7" x1="112.39" y1="102.89" x2="117.08" y2="102.89"/></g></g></svg>