<svg xmlns="http://www.w3.org/2000/svg" viewBox="0 0 51.94 64.63"><defs><style>.cls-1{fill:#333;}</style></defs><title>ApplianceTesting</title><g id="Layer_2" data-name="Layer 2"><g id="Layer_1-2" data-name="Layer 1"><path class="cls-1" d="M48.48,26.4a1.12,1.12,0,0,0-.54.15h-11v-23a3.15,3.15,0,0,0-.76-2.42A3.56,3.56,0,0,0,33.47,0h-30A3.28,3.28,0,0,0,0,3.46V61.17a3.28,3.28,0,0,0,3.46,3.46h30a3.56,3.56,0,0,0,2.7-1.1,3.15,3.15,0,0,0,.76-2.42V61a1.12,1.12,0,0,0,.56.17h11a3.37,3.37,0,0,0,3.46-3.46V30A3.45,3.45,0,0,0,48.48,26.4ZM34.46,62a1.33,1.33,0,0,1-1,.33h-30c-.8,0-1.15-.36-1.15-1.15V21.95H34.63V40.43a1.28,1.28,0,0,0-.13.53V54.81a1.28,1.28,0,0,0,.13.53v5.84s0,.08,0,.12A.87.87,0,0,1,34.46,62Zm.17-58.53V19.64H2.31V3.46c0-.8.36-1.15,1.15-1.15h30a1.33,1.33,0,0,1,1,.33.87.87,0,0,1,.17.7S34.63,3.42,34.63,3.46Zm15,54.25a1.06,1.06,0,0,1-1.15,1.15h-11a1.11,1.11,0,0,0-.56.17V56.51a8.8,8.8,0,1,0,0-17.25V35.78h12.7ZM37.1,53.88v-12a6.14,6.14,0,0,1,1.59-.21,6.2,6.2,0,1,1-1.59,12.2ZM49.63,33.47H36.93V28.86H48.83a1.09,1.09,0,0,0,.18,0A1.28,1.28,0,0,1,49.63,30ZM5.77,24.24a1.15,1.15,0,0,0-1.15,1.15V35.78a1.15,1.15,0,0,0,2.31,0V25.39A1.15,1.15,0,0,0,5.77,24.24Zm0-19.62A1.15,1.15,0,0,0,4.62,5.77V16.16a1.15,1.15,0,0,0,2.31,0V5.77A1.15,1.15,0,0,0,5.77,4.62Z"/></g></g></svg>