<svg xmlns="http://www.w3.org/2000/svg" viewBox="0 0 50.45 64.63"><defs><style>.cls-1{fill:#333;}</style></defs><title>CanvasStorage</title><g id="Layer_2" data-name="Layer 2"><g id="Layer_1-2" data-name="Layer 1"><path class="cls-1" d="M45.64,61.92H4.93A5,5,0,0,1,0,57V4.93A5,5,0,0,1,4.93,0H45.52a5,5,0,0,1,4.93,4.93V57A4.77,4.77,0,0,1,45.64,61.92ZM4.93,2.47A2.47,2.47,0,0,0,2.47,4.93V57a2.47,2.47,0,0,0,2.47,2.47H45.52A2.47,2.47,0,0,0,48,57V4.93a2.47,2.47,0,0,0-2.47-2.47Z"/><path class="cls-1" d="M25.29,61.06a1.17,1.17,0,0,1-1.23-1.23V1.23a1.23,1.23,0,0,1,2.47,0V59.7A1.27,1.27,0,0,1,25.29,61.06Z"/><path class="cls-1" d="M13,64.63a1.17,1.17,0,0,1-1.23-1.23V60.69A1.17,1.17,0,0,1,13,59.45a1.17,1.17,0,0,1,1.23,1.23V63.4A1.24,1.24,0,0,1,13,64.63Z"/><path class="cls-1" d="M37.62,64.63a1.17,1.17,0,0,1-1.23-1.23V60.69a1.23,1.23,0,1,1,2.47,0V63.4A1.24,1.24,0,0,1,37.62,64.63Z"/><path class="cls-1" d="M20.23,34.66A1.17,1.17,0,0,1,19,33.43v-6a1.23,1.23,0,0,1,2.47,0v6A1.24,1.24,0,0,1,20.23,34.66Z"/><path class="cls-1" d="M30.22,34.66A1.17,1.17,0,0,1,29,33.43v-6a1.23,1.23,0,0,1,2.47,0v6A1.24,1.24,0,0,1,30.22,34.66Z"/></g></g></svg>