<?xml version="1.0" encoding="utf-8"?>
<!-- Generator: Adobe Illustrator 21.1.0, SVG Export Plug-In . SVG Version: 6.00 Build 0)  -->
<svg version="1.1" id="Layer_1" xmlns="http://www.w3.org/2000/svg" xmlns:xlink="http://www.w3.org/1999/xlink" x="0px" y="0px"
	 viewBox="0 0 43 64.5" style="enable-background:new 0 0 43 64.5;" xml:space="preserve">
<style type="text/css">
	.st0{fill:#333333;}
</style>
<title>Cleaning</title>
<g id="Layer_2">
	<g id="Layer_1-2">
		<path class="st0" d="M36.7,62.6L18.1,0l-1.9,0.5L26,33.7H0v16.9l2.6-1.1l1.1,14.9h21l2.1-28.1l7.8,26.2h-6.2v1.9H43v-1.9H36.7z
			 M2.2,47.5V35.7h6v9.4L2.2,47.5z M22.7,62.5h-17L4.7,48.7l5.6-2.3V35.7h14.4L22.7,62.5z"/>
		<path class="st0" d="M3.6,32.4H4c1.6-0.1,2.9-1.4,2.8-3c-0.1-1.5-1.5-2.7-3.2-2.6c-1.6,0.1-2.9,1.4-2.8,3
			C1,31.2,2.2,32.3,3.6,32.4z M4,28.9h0.1c0.5,0,0.8,0.4,0.8,0.8c0,0.4-0.4,0.7-0.9,0.7c-0.5,0-0.8-0.4-0.8-0.8
			C3.3,29.2,3.6,28.9,4,28.9z"/>
		<path class="st0" d="M8.3,27.2c0.2,0,0.4,0,0.5,0c2.3-0.1,4.1-2,3.9-4.2s-2.1-3.8-4.5-3.6s-4.1,2-3.9,4.2
			C4.5,25.5,6.2,27.1,8.3,27.2z M6.8,23.1c0.1-1,1-1.7,2.1-1.7h0.3c1.1,0.1,1.9,1.1,1.8,2.2c-0.1,1-1.1,1.8-2.3,1.7
			C7.5,25.1,6.7,24.1,6.8,23.1L6.8,23.1z"/>
		<path class="st0" d="M8.6,29.4c-0.1,0.7,0.5,1.4,1.2,1.5H10c0.8,0,1.5-0.6,1.5-1.3c0-0.7-0.6-1.4-1.4-1.4
			C9.3,28.2,8.7,28.7,8.6,29.4z M10.4,29.6c0,0.2-0.2,0.3-0.4,0.3l0,0c-0.2,0-0.4-0.2-0.4-0.4c0,0,0,0,0,0c0-0.2,0.2-0.3,0.4-0.3
			l0,0C10.3,29.2,10.5,29.4,10.4,29.6C10.4,29.6,10.4,29.6,10.4,29.6L10.4,29.6z"/>
	</g>
</g>
</svg>
