<svg xmlns="http://www.w3.org/2000/svg" viewBox="0 0 57.99 96.34"><defs><style>.cls-1{fill:#333;stroke:#fff;stroke-miterlimit:10;}</style></defs><title>HouseLockUp</title><g id="Layer_2" data-name="Layer 2"><g id="Layer_1-2" data-name="Layer 1"><path class="cls-1" d="M29,52.75a8.13,8.13,0,0,0-2,16v9.64a2,2,0,0,0,4,0V68.77a8.13,8.13,0,0,0-2-16ZM29,65a4.14,4.14,0,1,1,4.14-4.14A4.14,4.14,0,0,1,29,65ZM55.49,39H50.56V22.07a21.57,21.57,0,1,0-43.13,0V39H2.5a2,2,0,0,0-2,2v46.5a8.39,8.39,0,0,0,8.38,8.38H49.11a8.39,8.39,0,0,0,8.38-8.38V41A2,2,0,0,0,55.49,39ZM11.43,22.07a17.57,17.57,0,1,1,35.13,0V39H11.43ZM53.49,87.46a4.38,4.38,0,0,1-4.38,4.38H8.88A4.38,4.38,0,0,1,4.5,87.46V43H9.19l.24,0,.24,0H48.32l.24,0,.24,0h4.69v44.5Z"/></g></g></svg>