<svg xmlns="http://www.w3.org/2000/svg" viewBox="0 0 73.3 90"><defs><style>.cls-1{fill:#333;}</style></defs><title>PipeDraining</title><g id="Layer_2" data-name="Layer 2"><g id="Layer_1-2" data-name="Layer 1"><path class="cls-1" d="M70.8,39.2H65.9a2.13,2.13,0,0,0-2,1.5h0a110.83,110.83,0,0,1-13.7,0,4.31,4.31,0,0,1-3.3-1.5,6.67,6.67,0,0,1-1-4.5h.7A2.43,2.43,0,0,0,49,32.3V28.6a2.43,2.43,0,0,0-2.4-2.4H45l-4.2-3.5V13.5a4.74,4.74,0,0,0,1-1l13,1A5.52,5.52,0,0,0,60.7,8a5.39,5.39,0,0,0-5.9-5.4l-12.4,1A7.42,7.42,0,0,0,36,0a7.64,7.64,0,0,0-6.4,3.6l-12.3-1A5.44,5.44,0,0,0,11.4,8a5.52,5.52,0,0,0,5.9,5.5l13.1-1a9.43,9.43,0,0,0,1,1v9.3l-4.2,3.5H25.6a2.43,2.43,0,0,0-2.4,2.4v3.6a2.43,2.43,0,0,0,2.4,2.4h.5c-.9,2.5-2.6,2.9-5.9,3.6A33.09,33.09,0,0,0,8.5,42.8C-.2,48.1,0,64.2,0,64.8a.9.9,0,0,0,.9.9H8.4A39.83,39.83,0,0,1,2.9,76.9c-2.4,3.5-2.3,8.8.3,11A7.88,7.88,0,0,0,8.4,90a6.93,6.93,0,0,0,2-.3c3.3-.9,5.1-3.4,5.5-7.6a19.49,19.49,0,0,0-1.3-8.8l-.3-.7c-.3-.9-.7-1.9-1.1-3-.5-1.3-1.1-2.8-1.5-4h3.7a.9.9,0,0,0,.9-.9c.6-9.4,4-10,6-10.3,1.1-.2,3.3.5,5.6,1.2a28.78,28.78,0,0,0,8.4,1.8,35,35,0,0,0,7.6-1,50.71,50.71,0,0,1,6-1.1,108.77,108.77,0,0,1,14.3-.6,2.16,2.16,0,0,0,2.1,1.6h4.9a2.11,2.11,0,0,0,2.1-2.1v-13A2.67,2.67,0,0,0,70.8,39.2ZM54.7,4.4a3.61,3.61,0,1,1,0,7.2l-12-.9A7.36,7.36,0,0,0,43,5.3ZM17.1,11.6a3.61,3.61,0,1,1,0-7.2l11.6,1a6.82,6.82,0,0,0,.6,5.4ZM32.9,23.9a.91.91,0,0,0,.3-.7V13a1.23,1.23,0,0,0-.4-.8,5.35,5.35,0,0,1-1.3-1.3c-2.4-3.8-.8-5.7-.7-5.8h0l.1-.1A5.71,5.71,0,0,1,36,1.9,5.82,5.82,0,0,1,41.1,5h0a5.85,5.85,0,0,1-.5,6h0a8,8,0,0,1-1.3,1.3.91.91,0,0,0-.4.8V23.2a.91.91,0,0,0,.3.7l2.9,2.4h-12ZM25,32.2V28.6a.58.58,0,0,1,.6-.6h19a.37.37,0,0,0,.3-.1h1.6a.58.58,0,0,1,.6.6v3.7a.58.58,0,0,1-.6.6l-10.3.1H25.6A.73.73,0,0,1,25,32.2ZM12.4,73.3h0l.3.7a18.82,18.82,0,0,1,1.2,8c-.3,3.4-1.6,5.2-4.1,6a5.65,5.65,0,0,1-5.5-1.5c-1.8-1.6-1.8-5.8.1-8.5A44,44,0,0,0,10,66.9c.4,1.1.9,2.3,1.3,3.5C11.7,71.4,12.1,72.4,12.4,73.3ZM49.3,53.6c-2.5.4-4.5.8-6.2,1.2a32.91,32.91,0,0,1-7.2,1A29.52,29.52,0,0,1,28,54.1c-2.6-.8-4.9-1.5-6.4-1.3-3.4.6-6.7,2.4-7.4,11.1H1.7c.1-3.4.9-15.4,7.6-19.5a34.18,34.18,0,0,1,11.2-4.3c3.6-.8,6.3-1.4,7.4-5.4h16a8.36,8.36,0,0,0,1.4,5.6,6.07,6.07,0,0,0,4.6,2.3c2.2.2,4.4.2,6.5.2,3.5,0,6.5-.1,7.3-.2V53A107,107,0,0,0,49.3,53.6Zm21.8.8a.27.27,0,0,1-.3.3H65.9a.27.27,0,0,1-.3-.3v-13a.27.27,0,0,1,.3-.3h4.9a.27.27,0,0,1,.3.3Z"/><path class="cls-1" d="M9.2,84.7a2,2,0,0,1-1.3.4.91.91,0,0,0-.2,1.8h.5a3.49,3.49,0,0,0,2.2-.8c2.2-1.9,2.4-6.5,2.4-7a.9.9,0,1,0-1.8,0C11,80.3,10.6,83.6,9.2,84.7Z"/><path class="cls-1" d="M34.8,13.8h2.4a.9.9,0,1,0,0-1.8H34.8a.9.9,0,0,0-.9.9A.84.84,0,0,0,34.8,13.8Z"/></g></g></svg>