<svg xmlns="http://www.w3.org/2000/svg" viewBox="0 0 67.68 68.31"><defs><style>.cls-1{fill:#333;stroke:#fff;stroke-miterlimit:10;stroke-width:0.5px;}</style></defs><title>RockingChair</title><g id="Layer_2" data-name="Layer 2"><g id="Layer_1-2" data-name="Layer 1"><path class="cls-1" d="M65.83,61.36c-1.5.1-2.9.2-4.2.2v-.2l-2.9-25.6a1.44,1.44,0,0,0,.8-1.3A1.61,1.61,0,0,0,58,33l-27.6.6-6.5-32.1a1.54,1.54,0,0,0-1.7-1.2A1.54,1.54,0,0,0,21,2l.6,2.8A28,28,0,0,1,5.63,8l-.4-1.7a1.54,1.54,0,0,0-1.7-1.2,1.54,1.54,0,0,0-1.2,1.7L11.43,52v10.3c-6.4-2.1-8.4-4.6-8.5-4.7a1.47,1.47,0,1,0-2.4,1.7c.3.4,6.2,8.8,33.3,8.8,3.3,0,6.9-.1,10.8-.4a1.62,1.62,0,0,0,1.4-1.6,1.55,1.55,0,0,0-1.6-1.4c-.6,0-1.2.1-1.8.1l-.1-.8a94.06,94.06,0,0,0,12.7.7c3.3,0,6.9-.1,10.8-.4a1.45,1.45,0,1,0-.2-2.9ZM33,52.46h5.1l.9,8.1a56.72,56.72,0,0,1-6.2-1.5.9.9,0,0,0,.1-.5v-6.1Zm3.7-12.9.7,5.9-4.6.1-1.2-5.8Zm-8,.9c-.7.4-1.6.8-2.5,1.2l-.4-1.9,2.7-.1Zm-3.9,1.7a23.39,23.39,0,0,1-4,1l-.6-3.2,4.1-.1ZM19.73,37l-5-26.5a36.35,36.35,0,0,0,3.9-1.1l5.2,27.5Zm-1.5,0-3.9.1-4.9-26c1.3-.1,2.6-.2,3.8-.4Zm.5,3,.7,3.5a24.33,24.33,0,0,1-3.8.3l-.7-3.7ZM14,43.66c-.4,0-.9-.1-1.3-.1l-.7-3.5h1.3Zm1.6,3.1a31.45,31.45,0,0,0,13.7-3.2l.5,2.4-15.9,3.7-.6-3C14.13,46.66,14.83,46.76,15.63,46.76Zm40.1-10.7,1,9.2-16.4.2-.7-6.1a1.44,1.44,0,0,0,.8-1.3,1.54,1.54,0,0,0-1.5-1.5l-8,.2v-.2Zm-27.7.7-2.7.1L20,8.86a14.72,14.72,0,0,0,2.2-1ZM7.93,11.16l4.9,26h-1.4l-5.2-26.1A9.15,9.15,0,0,0,7.93,11.16ZM39.63,65c-11.6.5-19.7-.5-25.2-1.9V52.46h15.7V58c-4.3-1.8-5.7-3.6-5.7-3.7A1.47,1.47,0,1,0,22,56c.2.3,3.8,5.3,17.6,7.6Zm2.5-4-1-8.8L57,47.86l1.6,13.9A111.19,111.19,0,0,1,42.13,61Z"/></g></g></svg>