<svg xmlns="http://www.w3.org/2000/svg" viewBox="0 0 79.46 88.97"><defs><style>.cls-1{fill:#333;}</style></defs><title>RoomSetUp</title><g id="Layer_2" data-name="Layer 2"><g id="Layer_1-2" data-name="Layer 1"><path class="cls-1" d="M20.58,53.79A14.58,14.58,0,1,0,35.15,68.38,14.59,14.59,0,0,0,20.58,53.79Zm0,27.31A12.73,12.73,0,1,1,33.3,68.38,12.73,12.73,0,0,1,20.58,81.1Z"/><path class="cls-1" d="M66.34,73.53A7.37,7.37,0,0,0,62.45,75a.93.93,0,0,0,1.12,1.48,5.53,5.53,0,0,1,2.77-1.05,6.28,6.28,0,0,1,2.94,1.07.93.93,0,0,0,1.07-1.52,8.09,8.09,0,0,0-4-1.41"/><path class="cls-1" d="M66.34,66.65a7.36,7.36,0,0,0-3.89,1.43.93.93,0,0,0,1.12,1.48,5.56,5.56,0,0,1,2.77-1.05,6.26,6.26,0,0,1,2.94,1.07.93.93,0,0,0,1.07-1.52,8.09,8.09,0,0,0-4-1.41"/><path class="cls-1" d="M66.34,59.78a7.37,7.37,0,0,0-3.89,1.43.93.93,0,0,0,1.12,1.48,5.53,5.53,0,0,1,2.77-1.05,6.28,6.28,0,0,1,2.94,1.07.93.93,0,0,0,1.07-1.52,8.09,8.09,0,0,0-4-1.41"/><path class="cls-1" d="M79.46,61.24a13.27,13.27,0,0,0-4.24-9.72.74.74,0,0,0,0-.08l.23-12.24a.93.93,0,0,0,0-.13c0-.1-1.36-9.56-13.33-12.31V24.1a1.33,1.33,0,0,0,.07-.44c0-1.11-1.24-1.87-3.67-2.25V17.59c1.55-.24,3.07-.73,3.48-1.68l9.4.85.87-4.87h-.17V11l-9.93-.93a1.05,1.05,0,0,0,0-.13c0-1.92-4.39-2.2-7-2.2s-7,.29-7,2.2a1.16,1.16,0,0,0,.07.39v5.08c0,1.31,1.78,1.92,3.59,2.2v3.83c-2.42.39-3.67,1.14-3.67,2.25a1.36,1.36,0,0,0,.07.44v2.58a18.85,18.85,0,0,0-6.47,2.66L44.82,7h.39A.93.93,0,0,0,46.13,6V.93A.93.93,0,0,0,45.21,0H5.14a.93.93,0,0,0-.93.93V6A.93.93,0,0,0,5.14,7h.24L10.64,45.7A20.61,20.61,0,0,0,0,63.73a20.9,20.9,0,0,0,.13,2.33A20.57,20.57,0,0,0,37.59,80c3.07,1.3,9.86,2.14,17.55,2.14h.48A13.3,13.3,0,0,0,79.46,74V63.81a13.28,13.28,0,0,0-.18-2.06.9.9,0,0,0,.18-.51Zm-4.83-7.68a13.29,13.29,0,0,0-17,0,11.41,11.41,0,0,1,17,0Zm-24.53-28a19.91,19.91,0,0,0,10.16,0v3.41a11.85,11.85,0,0,1-5.08.8,11.85,11.85,0,0,1-5.08-.8V25.51ZM69.88,14.76l-7.76-.71v-.91l8,.48-.2,1.14ZM55.19,9.57a21,21,0,0,1,4.09.35,20.87,20.87,0,0,1-4.09.35,20.88,20.88,0,0,1-4.09-.35,21,21,0,0,1,4.09-.35Zm-5.08,2a20,20,0,0,0,5.08.54,20,20,0,0,0,5.08-.54v3.59a11.84,11.84,0,0,1-5.08.8,11.85,11.85,0,0,1-5.08-.8V11.59Zm5.08,6.24c.35,0,.89,0,1.49,0l0,4.22s-.28.26-1.47.26a5.05,5.05,0,0,1-1.54-.21V17.78c.61,0,1.14,0,1.49,0Zm-2.89,5.39a3.81,3.81,0,0,0,2.94.9,3.65,3.65,0,0,0,2.88-.89,8.82,8.82,0,0,1,1.84.45,14.35,14.35,0,0,1-4.76.65,14.36,14.36,0,0,1-4.76-.65,8.85,8.85,0,0,1,1.87-.45ZM6.07,1.86H44.28v3l-.1,0a.9.9,0,0,0-.8.31H6.07V1.86ZM7.26,7H42.94L39.68,31a13.8,13.8,0,0,0-4.15,8.47V49.59A20.52,20.52,0,0,0,12.4,44.84L7.26,7ZM20.58,45a18.76,18.76,0,0,1,17.9,13.24,20.56,20.56,0,0,0-35.8,0A18.76,18.76,0,0,1,20.58,45Zm0,42.13A18.74,18.74,0,1,1,39.31,68.38,18.76,18.76,0,0,1,20.58,87.12Zm18-8.75a20.48,20.48,0,0,0,2.59-10A20.7,20.7,0,0,0,41,66.06a21,21,0,0,0,.13-2.33,20.49,20.49,0,0,0-3.85-12,.91.91,0,0,0,.07-.34V39.54c0-.09.45-8.44,10.86-11v.56c0,2.26,5.31,2.43,6.94,2.43s6.94-.18,6.94-2.43v-.49c9.93,2.47,11.35,9.79,11.48,10.59l-.2,10.84A13.3,13.3,0,0,0,52.82,61.24a.9.9,0,0,0,.18.51,13.39,13.39,0,0,0-.18,2.06V74a13.23,13.23,0,0,0,1.58,6.29c-7.84-.05-13.39-.94-15.83-1.88Zm39-4.41a11.46,11.46,0,0,1-22.93,0V63.81a11.46,11.46,0,1,1,22.93,0V74Z"/></g></g></svg>