<svg xmlns="http://www.w3.org/2000/svg" viewBox="0 0 79.9 62.2"><defs><style>.cls-1{fill:#333;}</style></defs><title>WaterShutOff</title><g id="Layer_2" data-name="Layer 2"><g id="Layer_1-2" data-name="Layer 1"><path class="cls-1" d="M1,54.6a1,1,0,0,0,0,2H29.3v.3a.91.91,0,0,0,.4.8L35.3,62a1.42,1.42,0,0,0,.6.2h8a1.42,1.42,0,0,0,.6-.2l5.6-4.3a1.23,1.23,0,0,0,.4-.8v-.3H78.9a1,1,0,1,0,0-2H50.5V26.3H78.9a1,1,0,0,0,0-2H50.5V24a.91.91,0,0,0-.4-.8l-5.6-4.3a1.42,1.42,0,0,0-.6-.2h-.4V14.5H62.1a4.7,4.7,0,0,0,0-9.4H43.5V3.8a3.8,3.8,0,1,0-7.6,0V5.1H17.1a4.7,4.7,0,0,0,0,9.4h19v4.2h-.3a1.23,1.23,0,0,0-.8.4l-5.3,4.1a1.23,1.23,0,0,0-.4.8v.3H1a1,1,0,0,0,0,2H29.3V54.6ZM42.8,20.7V60.3h-6V20.7Zm5.7,35.8-3.7,2.8V21.6l3.7,2.8ZM38,3.8a1.8,1.8,0,0,1,3.6,0V5.1H38.1V3.8Zm-23.6,6a2.69,2.69,0,0,1,2.7-2.7h45a2.7,2.7,0,0,1,0,5.4h-45A2.69,2.69,0,0,1,14.4,9.8Zm23.7,4.7h3.4v4.2H38.1Zm-6.8,10,3.5-2.7V59.2l-3.5-2.7Z"/><circle class="cls-1" cx="39.9" cy="28" r="1.1"/><circle class="cls-1" cx="39.9" cy="34.4" r="1.1"/><circle class="cls-1" cx="39.9" cy="40.8" r="1.1"/><circle class="cls-1" cx="39.9" cy="47.2" r="1.1"/><circle class="cls-1" cx="39.9" cy="53.6" r="1.1"/></g></g></svg>