<svg xmlns="http://www.w3.org/2000/svg" viewBox="0 0 46.95 67.12"><defs><style>.cls-1{fill:#333;}</style></defs><title>YardCleanUp</title><g id="Layer_2" data-name="Layer 2"><g id="Layer_1-2" data-name="Layer 1"><path class="cls-1" d="M1.12,67a1.13,1.13,0,0,0,1.12-1.12V56c0-5.06,2-7.72,6.25-8.11V65.84a1.12,1.12,0,0,0,2.25,0V47.94C13.81,48.26,17,50,17,56v9.8a1.12,1.12,0,1,0,2.25,0V56c0-6.09-3.17-9.84-8.5-10.32V13.11c4-1.88,4.48-4,4.63-6.1.08-1.14,0-3.1,0-4.67V1.12A1.13,1.13,0,0,0,14.27,0h0C14,0,5.55,0,5.11,0a1.15,1.15,0,0,0-.88.27,1.13,1.13,0,0,0-.38.84V2.34c0,1.77-.05,3.59,0,4.68.14,2.14.66,4.22,4.63,6.1V45.67C3,46.1,0,49.75,0,56v9.8A1.12,1.12,0,0,0,1.12,67Zm5-60.1c-.07-1.07,0-3,0-4.49V2.26c1.83,0,5.25,0,7,0v.12c0,1.53.06,3.42,0,4.49-.1,1.51-.19,2.82-3.5,4.32C6.3,9.68,6.22,8.37,6.12,6.86Z"/><path class="cls-1" d="M35,67.06a1.14,1.14,0,0,0,.34.05,1.18,1.18,0,0,0,.34-.05c2.56-.81,11-4.56,11.29-18.66a1.12,1.12,0,0,0-1.12-1.15H36.45V13.11c4-1.88,4.48-4,4.63-6.1.08-1.14,0-3.1,0-4.68V1.12A1.13,1.13,0,0,0,40,0h0c-.27,0-8.7,0-9.14,0a1.16,1.16,0,0,0-.88.27,1.13,1.13,0,0,0-.39.83V2.34c0,1.58-.06,3.54,0,4.67.14,2.14.66,4.22,4.63,6.1V47.25H24.82a1.12,1.12,0,0,0-1.12,1.15C24,62.52,32.42,66.25,35,67.06ZM31.82,6.86c-.07-1.07,0-3,0-4.49V2.26c1.82,0,5.25,0,7,0v.12c0,1.45.06,3.44,0,4.49-.1,1.51-.19,2.82-3.5,4.32C32,9.68,31.92,8.37,31.82,6.86ZM44.66,49.5C44,60.6,37.77,63.93,35.33,64.8c-2.44-.88-8.68-4.19-9.34-15.3Z"/></g></g></svg>