<svg xmlns="http://www.w3.org/2000/svg" viewBox="0 0 404.03 69.59"><defs><style>.cls-1,.cls-10,.cls-12,.cls-13,.cls-14,.cls-15,.cls-16,.cls-3,.cls-4,.cls-5,.cls-6,.cls-7,.cls-8,.cls-9{fill:none;}.cls-1,.cls-10,.cls-12,.cls-13,.cls-14,.cls-15,.cls-16,.cls-2,.cls-3,.cls-4,.cls-5,.cls-6,.cls-7,.cls-8,.cls-9{stroke:#722c36;}.cls-1,.cls-12,.cls-13,.cls-14,.cls-15,.cls-16,.cls-2,.cls-3,.cls-4,.cls-5,.cls-6,.cls-7,.cls-8,.cls-9{stroke-linecap:round;}.cls-1,.cls-12,.cls-13,.cls-14,.cls-15,.cls-16,.cls-2,.cls-3,.cls-4,.cls-5,.cls-6,.cls-7,.cls-8{stroke-linejoin:round;}.cls-1{stroke-width:0.85px;}.cls-11,.cls-18,.cls-19,.cls-2,.cls-20,.cls-21,.cls-22{fill:#722c36;}.cls-2,.cls-3{stroke-width:1.8px;}.cls-4{stroke-width:1.72px;}.cls-5{stroke-width:1.77px;}.cls-6{stroke-width:2.18px;}.cls-7{stroke-width:2.05px;}.cls-10,.cls-8,.cls-9{stroke-width:0.85px;}.cls-10,.cls-9{stroke-linejoin:bevel;}.cls-12{stroke-width:1.11px;}.cls-13{stroke-width:0.74px;}.cls-14{stroke-width:1.91px;}.cls-15{stroke-width:2.41px;}.cls-16{stroke-width:2.06px;}.cls-17,.cls-18,.cls-19,.cls-20,.cls-21,.cls-22{isolation:isolate;}.cls-18,.cls-19,.cls-20,.cls-21,.cls-22{font-size:41.69px;font-family:Optima-Regular, Optima;}.cls-18{letter-spacing:-0.04em;}.cls-20{letter-spacing:-0.06em;}.cls-21{letter-spacing:-0.02em;}.cls-22{letter-spacing:-0.08em;}</style></defs><title>Navigation Logo</title><g id="Layer_2" data-name="Layer 2"><g id="Layer_1-2" data-name="Layer 1"><g id="Layer_2-2" data-name="Layer 2"><g id="Burgundy_Logo_Solutions" data-name="Burgundy Logo Solutions"><g id="Burgundy_Horizontal_Logo" data-name="Burgundy Horizontal Logo"><g id="black_gazebo" data-name="black gazebo"><line class="cls-1" x1="23.94" y1="49.9" x2="56.24" y2="49.9"/><path class="cls-2" d="M.9,15.27l34-13.91A6.16,6.16,0,0,1,37.23.9h5.7a6.16,6.16,0,0,1,2.38.48L78.38,15.27,56.94,13.63H23.69Z"/><polyline class="cls-3" points="3.04 18.08 23.69 17.02 55.59 17.02 76.1 18.08"/><line class="cls-3" x1="6.66" y1="18.76" x2="6.66" y2="63.54"/><line class="cls-4" x1="24.5" y1="17.55" x2="24.5" y2="62.7"/><line class="cls-4" x1="55.59" y1="17.55" x2="55.59" y2="62.9"/><line class="cls-5" x1="73.42" y1="18.18" x2="73.42" y2="63.54"/><path class="cls-3" d="M24.5,30.75S24.88,18.49,36.1,17.1"/><path class="cls-3" d="M55.55,30.75S55.17,18.49,43.94,17.1"/><line class="cls-6" x1="55.69" y1="26.17" x2="72.71" y2="26.9"/><line class="cls-6" x1="7.04" y1="26.82" x2="24.76" y2="26.17"/><line class="cls-7" x1="11" y1="18.94" x2="11" y2="26.03"/><line class="cls-6" x1="15.4" y1="17.84" x2="15.4" y2="25.97"/><polyline class="cls-8" points="27.49 21.6 27.49 60.39 33.86 49.83 39.98 60.42"/><polyline class="cls-9" points="39.98 49.88 33.61 60.42 27.49 49.83 33.86 49.83 39.98 49.88 52.46 49.88"/><polyline class="cls-9" points="39.98 60.39 46.35 49.83 52.46 60.42 52.46 21.6"/><polyline class="cls-10" points="52.46 49.88 46.1 60.42 39.98 49.83"/><path class="cls-11" d="M27.82,49.75l2.94,5,2.85-5Zm2.85,2.85a1.08,1.08,0,1,1,1.11-1.08,1.08,1.08,0,0,1-1.11,1.08Z"/><path class="cls-11" d="M33.9,49.75l2.94,5,2.85-5Zm2.85,2.85a1.08,1.08,0,1,1,1.11-1.08,1.08,1.08,0,0,1-1.11,1.08Z"/><path class="cls-11" d="M40.23,49.75l2.94,5,2.85-5Zm2.85,2.85a1.08,1.08,0,1,1,1.11-1.08,1.08,1.08,0,0,1-1.11,1.08Z"/><path class="cls-11" d="M46.47,49.75,49.4,54.8l2.85-5Zm2.85,2.85a1.08,1.08,0,1,1,1.11-1.08,1.08,1.08,0,0,1-1.11,1.08Z"/><line class="cls-12" x1="7.22" y1="60.43" x2="73.73" y2="60.43"/><path class="cls-13" d="M27.55,46.79"/><line class="cls-7" x1="69.03" y1="18.94" x2="69.03" y2="26.03"/><line class="cls-6" x1="64.62" y1="17.84" x2="64.62" y2="25.97"/><line class="cls-7" x1="60.07" y1="17.84" x2="60.07" y2="25.87"/><line class="cls-7" x1="19.95" y1="17.84" x2="19.95" y2="25.87"/><line class="cls-14" x1="6.73" y1="49.68" x2="24.01" y2="49.83"/><line class="cls-15" x1="5.13" y1="63.42" x2="75.12" y2="63.42"/><line class="cls-16" x1="1.4" y1="68.56" x2="78.49" y2="68.56"/><path class="cls-11" d="M23.62,59v.11L22.8,56.6h0l.14-.37.69-2.1v.25l.09-.24V48.88L7.32,48.73l.24,4.75.95,2.93-1,3-.48,3,1,.07L9.3,58.73l1.21,3.69,1.59.11,1.39-4,1.33,4,1.52.06,1.33-3.86,1.21,3.74h1.9L22,58.9l1.21,3.68,1,.06L23.94,60ZM9.37,53c-.41,0-.74-.5-.74-1.12s.33-1.12.74-1.12.74.5.74,1.12S9.78,53,9.36,53Zm2.08,6.86h-.24L10.1,56.43l1.37-4,1.24,3.8Zm2-6.87c-.41,0-.74-.5-.74-1.12s.33-1.12.74-1.12.74.5.74,1.12S13.85,53,13.44,53Zm2.26,6.87h-.23l-1.22-3.67,1.3-3.8,1.3,4Zm2-6.87c-.41,0-.74-.5-.74-1.12s.33-1.12.74-1.12.74.5.74,1.12S18.05,53,17.67,53Zm2.41,6.87H19.6l-1.15-3.43,1.4-4,1.37,4.14ZM22,53.11c-.41,0-.74-.5-.74-1.12s.33-1.12.74-1.12.74.5.74,1.12-.32,1.12-.73,1.12Z"/><path class="cls-11" d="M56.18,59.93l-.26,2.67,1-.06,1.21-3.64,1.24,3.62h1.9l1.21-3.74,1.33,3.86,1.52-.06,1.33-4,1.39,4,1.59-.11,1.21-3.69,1.26,3.7,1-.07-.48-3-1-3,.95-2.93.24-4.75-16.38.14v5.22l-.2.11.28-.12.69,2.1.14.37h0l-.84,2.51V59ZM70,51.87c0-.62.33-1.12.74-1.12s.74.5.74,1.12S71.16,53,70.75,53,70,52.49,70,51.87ZM67.4,56.19l1.24-3.8,1.37,4L68.9,59.85h-.24Zm-1.46-4.31c0-.62.33-1.12.74-1.12s.74.5.74,1.12S67.08,53,66.68,53,65.93,52.49,65.93,51.87Zm-2.72,4.58,1.3-4,1.3,3.8L64.6,59.85h-.23ZM61.7,51.87c0-.62.33-1.12.74-1.12s.74.5.74,1.12S62.85,53,62.44,53,61.7,52.49,61.7,51.87ZM58.9,56.55l1.37-4.14,1.4,4-1.16,3.43H60ZM57.38,52c0-.62.33-1.12.74-1.12s.74.5.74,1.12-.33,1.12-.74,1.12-.75-.5-.75-1.12Z"/></g><g class="cls-17"><text class="cls-18" transform="translate(89.06 55.13)">S</text><text class="cls-19" transform="translate(108.24 55.13)">EVEN </text><text class="cls-18" transform="translate(221.76 55.13)">S</text><text class="cls-20" transform="translate(240.93 55.13)">U</text><text class="cls-19" transform="translate(270.87 55.13)">N</text><text class="cls-21" transform="translate(303.3 55.13)">D</text><text class="cls-22" transform="translate(334.91 55.13)">A</text><text class="cls-18" transform="translate(359.38 55.13)">Y</text><text class="cls-19" transform="translate(383.19 55.13)">S</text></g></g></g></g></g></g></svg>