<svg xmlns="http://www.w3.org/2000/svg" viewBox="0 0 98 27"><defs><style>.cls-1{fill:#712d37;}.cls-2{fill:#fff;}</style></defs><title>SIGN UP button</title><g id="Layer_2" data-name="Layer 2"><g id="Home_Page" data-name="Home Page"><rect class="cls-1" width="98" height="27" rx="5" ry="5"/><path class="cls-2" d="M21.2,16c.09.92.87,1.74,2.4,1.74,1.35,0,2.24-.67,2.24-1.74,0-.84-.52-1.3-1.62-1.59L22.6,14a2.5,2.5,0,0,1-2.15-2.41C20.46,9.9,22,9,23.62,9s3.12.83,3.16,2.6h-1A1.9,1.9,0,0,0,23.6,9.9c-1.22,0-2.11.59-2.11,1.65,0,.73.44,1.24,1.39,1.48l1.58.43c1.46.4,2.43,1,2.43,2.52,0,1.8-1.52,2.74-3.42,2.74-2.42,0-3.26-1.5-3.3-2.67Z"/><path class="cls-2" d="M30.12,18.52V9.19h1v9.32Z"/><path class="cls-2" d="M40.55,12a2.23,2.23,0,0,0-2.39-2c-1.44,0-2.64,1-2.64,3.24v1.33c0,2,.9,3.29,2.61,3.29a2.22,2.22,0,0,0,2.46-2.14v-1H38.06v-.93h3.52v1.92a3.13,3.13,0,0,1-3.44,3.07c-2.41,0-3.64-1.64-3.64-4.22V13.16C34.5,10.52,36,9,38.18,9a3.13,3.13,0,0,1,3.37,3Z"/><path class="cls-2" d="M44.93,18.52V9.19h1l4.87,7.57h0V9.19h1v9.32h-1L46,10.94h0v7.57Z"/><path class="cls-2" d="M60.72,15.28a2.46,2.46,0,1,0,4.93,0V9.19h1v6.09a3.48,3.48,0,0,1-7,0V9.19h1Z"/><path class="cls-2" d="M73.56,9.19A2.73,2.73,0,0,1,76.5,12a2.72,2.72,0,0,1-2.94,2.84H71.28v3.63h-1V9.19ZM71.28,14h1.57c1.65,0,2.6-.37,2.6-1.93a1.75,1.75,0,0,0-1.92-1.93H71.28Z"/></g></g></svg>