<svg xmlns="http://www.w3.org/2000/svg" xmlns:xlink="http://www.w3.org/1999/xlink" viewBox="0 0 1305.5 668.5"><defs><style>.cls-1,.cls-10,.cls-12,.cls-13,.cls-15,.cls-17,.cls-24,.cls-28,.cls-29,.cls-3,.cls-30,.cls-32,.cls-33,.cls-34,.cls-36,.cls-37,.cls-38,.cls-4,.cls-42,.cls-43,.cls-44,.cls-46,.cls-5,.cls-6,.cls-7,.cls-9{fill:none;}.cls-2{fill:#414042;}.cls-3{stroke:#00468b;}.cls-10,.cls-11,.cls-12,.cls-13,.cls-15,.cls-17,.cls-24,.cls-25,.cls-26,.cls-27,.cls-29,.cls-3,.cls-33,.cls-38,.cls-4,.cls-43,.cls-5,.cls-6,.cls-9{stroke-linecap:round;}.cls-10,.cls-13,.cls-15,.cls-17,.cls-21,.cls-26,.cls-27,.cls-28,.cls-29,.cls-3,.cls-30,.cls-31,.cls-32,.cls-33,.cls-34,.cls-37,.cls-38,.cls-4,.cls-41,.cls-42,.cls-43,.cls-44,.cls-45,.cls-46,.cls-5,.cls-6,.cls-7,.cls-9{stroke-miterlimit:10;}.cls-3,.cls-38,.cls-43,.cls-5,.cls-9{stroke-width:3px;}.cls-4,.cls-6{stroke:#b9d1ef;}.cls-10,.cls-15,.cls-20,.cls-24,.cls-25,.cls-26,.cls-27,.cls-30,.cls-31,.cls-32,.cls-33,.cls-34,.cls-4,.cls-42,.cls-46{stroke-width:2px;}.cls-33,.cls-5{stroke:#024b87;}.cls-11,.cls-12,.cls-13,.cls-15,.cls-20,.cls-21,.cls-24,.cls-25,.cls-26,.cls-27,.cls-28,.cls-29,.cls-32,.cls-36,.cls-41,.cls-7,.cls-8,.cls-9{stroke:#414042;}.cls-11,.cls-14,.cls-20,.cls-25,.cls-27,.cls-41,.cls-8{fill:#fff;}.cls-11,.cls-12,.cls-20,.cls-24,.cls-25,.cls-36,.cls-8{stroke-linejoin:round;}.cls-28,.cls-29,.cls-36,.cls-37,.cls-8{stroke-width:1.5px;}.cls-10,.cls-34,.cls-37{stroke:#3b312f;}.cls-16{fill:#193057;}.cls-17{stroke:#111;}.cls-18{opacity:0.74;fill:url(#linear-gradient);}.cls-19{fill:#f7931e;}.cls-21{fill:#cee3f6;}.cls-22{fill:#b9d1ef;}.cls-23{fill:#fcc062;}.cls-26{fill:url(#New_Pattern_4);}.cls-30,.cls-31,.cls-43{stroke:#22b573;}.cls-31{fill:#22b573;}.cls-35{fill:#722c36;}.cls-38{stroke:#2e3192;}.cls-39{opacity:0.42;}.cls-39,.cls-40{fill:url(#New_Pattern_4-3);}.cls-40{opacity:0.75;}.cls-42{stroke:#333;}.cls-44,.cls-45,.cls-46{stroke:#c1272d;}.cls-45{fill:#c1272d;}.cls-46{stroke-linecap:square;}.cls-47{fill:url(#linear-gradient-2);}.cls-48{fill:url(#linear-gradient-3);}</style><linearGradient id="linear-gradient" x1="727.48" y1="578.25" x2="732.14" y2="424.45" gradientUnits="userSpaceOnUse"><stop offset="0.44" stop-color="#1b1464"/><stop offset="0.66" stop-color="#f25b45"/><stop offset="0.7" stop-color="#f46d43"/><stop offset="0.78" stop-color="#f78a3f"/><stop offset="0.85" stop-color="#f99f3d"/><stop offset="0.93" stop-color="#fbac3b"/><stop offset="1" stop-color="#fbb03b"/></linearGradient><pattern id="New_Pattern_4" data-name="New Pattern 4" width="4" height="4" patternUnits="userSpaceOnUse" viewBox="0 0 4 4"><rect class="cls-1" width="4" height="4"/><circle class="cls-2" cx="2" cy="2" r="1"/></pattern><pattern id="New_Pattern_4-3" data-name="New Pattern 4" width="4" height="4" patternTransform="translate(3 2)" patternUnits="userSpaceOnUse" viewBox="0 0 4 4"><rect class="cls-1" width="4" height="4"/><circle class="cls-2" cx="2" cy="2" r="1"/></pattern><linearGradient id="linear-gradient-2" y1="325" x2="26" y2="325" gradientUnits="userSpaceOnUse"><stop offset="0.69" stop-color="#fff"/><stop offset="0.72" stop-color="#fff" stop-opacity="0.98"/><stop offset="0.76" stop-color="#fff" stop-opacity="0.93"/><stop offset="0.8" stop-color="#fff" stop-opacity="0.84"/><stop offset="0.84" stop-color="#fff" stop-opacity="0.71"/><stop offset="0.89" stop-color="#fff" stop-opacity="0.55"/><stop offset="0.93" stop-color="#fff" stop-opacity="0.35"/><stop offset="0.98" stop-color="#fff" stop-opacity="0.12"/><stop offset="1" stop-color="#fff" stop-opacity="0"/></linearGradient><linearGradient id="linear-gradient-3" x1="-1284.5" y1="343.5" x2="-1258.5" y2="343.5" gradientTransform="matrix(1, 0, 0, -1, 2564, 687)" xlink:href="#linear-gradient-2"/></defs><title>faq</title><g id="Layer_2" data-name="Layer 2"><g id="Home_Page" data-name="Home Page"><line class="cls-3" x1="230.91" y1="518.89" x2="252.81" y2="518.89"/><line class="cls-3" x1="257.38" y1="518.89" x2="260.11" y2="518.89"/><line class="cls-3" x1="264.68" y1="518.89" x2="282.93" y2="518.89"/><line class="cls-3" x1="287.49" y1="518.89" x2="290.23" y2="518.89"/><line class="cls-3" x1="291.59" y1="511.88" x2="301.63" y2="511.88"/><line class="cls-3" x1="304.37" y1="511.88" x2="307.11" y2="511.88"/><line class="cls-3" x1="308.93" y1="511.88" x2="320.79" y2="511.88"/><path class="cls-3" d="M157.5,484.1h42.82"/><line class="cls-3" x1="205.23" y1="484.1" x2="208.74" y2="484.1"/><line class="cls-3" x1="211.55" y1="484.1" x2="241.73" y2="484.1"/><path class="cls-4" d="M159.77,481.88h37"/><line class="cls-4" x1="202.61" y1="482.21" x2="207.43" y2="482.21"/><line class="cls-4" x1="211.28" y1="482.21" x2="241.73" y2="482.21"/><path class="cls-4" d="M230.07,516.91h27.79"/><line class="cls-4" x1="262.23" y1="517.15" x2="265.85" y2="517.15"/><line class="cls-4" x1="268.74" y1="517.15" x2="291.59" y2="517.15"/><line class="cls-4" x1="292.34" y1="508.94" x2="295.96" y2="508.94"/><line class="cls-4" x1="298.85" y1="508.94" x2="321.71" y2="508.94"/><path class="cls-3" d="M157.5,484.1h42.82"/><line class="cls-3" x1="205.23" y1="484.1" x2="208.74" y2="484.1"/><line class="cls-3" x1="211.55" y1="484.1" x2="241.73" y2="484.1"/><path class="cls-4" d="M159.77,481.88h37"/><line class="cls-4" x1="202.61" y1="482.21" x2="207.43" y2="482.21"/><line class="cls-4" x1="211.28" y1="482.21" x2="241.73" y2="482.21"/></g><g id="Services_Icon" data-name="Services Icon"><line class="cls-3" x1="1132.49" y1="499.36" x2="1147.09" y2="499.36"/><line class="cls-3" x1="1142.52" y1="508.48" x2="1146.17" y2="508.48"/><line class="cls-3" x1="1225.16" y1="471.28" x2="1235.2" y2="471.28"/><line class="cls-3" x1="1241.58" y1="471.28" x2="1247.06" y2="471.28"/><line class="cls-3" x1="1235.2" y1="481.32" x2="1241.58" y2="481.32"/><line class="cls-3" x1="1246.15" y1="481.32" x2="1251.62" y2="481.32"/><line class="cls-3" x1="1051.47" y1="485.51" x2="1075.96" y2="485.51"/><line class="cls-3" x1="1081.06" y1="485.51" x2="1084.12" y2="485.51"/><line class="cls-3" x1="1089.22" y1="485.51" x2="1109.63" y2="485.51"/><line class="cls-3" x1="1114.73" y1="485.51" x2="1117.79" y2="485.51"/><line class="cls-3" x1="1119.33" y1="477.67" x2="1130.55" y2="477.67"/><line class="cls-3" x1="992.16" y1="485.51" x2="1016.65" y2="485.51"/><line class="cls-3" x1="1021.75" y1="485.51" x2="1024.81" y2="485.51"/><line class="cls-3" x1="1029.91" y1="485.51" x2="1050.32" y2="485.51"/><line class="cls-3" x1="1055.42" y1="485.51" x2="1058.48" y2="485.51"/><line class="cls-4" x1="1226.07" y1="469.46" x2="1236.11" y2="469.46"/><line class="cls-4" x1="1242.5" y1="469.46" x2="1247.97" y2="469.46"/><line class="cls-4" x1="1236.11" y1="479.5" x2="1242.5" y2="479.5"/><line class="cls-4" x1="1247.06" y1="479.5" x2="1252.53" y2="479.5"/><path class="cls-4" d="M1002.81,483.6h58.73"/><line class="cls-4" x1="1068.29" y1="483.6" x2="1073.1" y2="483.6"/><line class="cls-4" x1="1076.95" y1="483.6" x2="1118.36" y2="483.6"/><line class="cls-4" x1="1121.21" y1="475.76" x2="1130.96" y2="475.76"/><line class="cls-4" x1="1134.12" y1="496.85" x2="1147.4" y2="496.85"/><line class="cls-5" x1="995.96" y1="534.01" x2="1033.1" y2="534.01"/><line class="cls-5" x1="1199.6" y1="493.3" x2="1231.03" y2="493.3"/><line class="cls-5" x1="1239.6" y1="493.3" x2="1248.17" y2="493.3"/><line class="cls-5" x1="1253.89" y1="493.3" x2="1282.62" y2="493.3"/><line class="cls-4" x1="996.84" y1="532.24" x2="1033.99" y2="532.24"/><line class="cls-6" x1="1200.49" y1="492.42" x2="1231.92" y2="492.42"/><line class="cls-6" x1="1240.49" y1="492.42" x2="1249.06" y2="492.42"/><line class="cls-6" x1="1254.77" y1="492.42" x2="1283.5" y2="492.42"/></g><g id="FAQ"><polygon class="cls-7" points="1087.85 433.49 1087.85 433.17 1084.67 433.17 1084.67 433.49 1084.67 453.53 1087.85 453.53 1087.85 433.49"/><polygon class="cls-7" points="1132.38 433.49 1132.38 433.17 1129.19 433.17 1129.19 433.49 1129.19 453.53 1132.38 453.53 1132.38 433.49"/><polygon class="cls-7" points="1176.9 433.49 1176.9 433.17 1173.72 433.17 1173.72 433.49 1173.72 453.53 1176.9 453.53 1176.9 433.49"/><polygon class="cls-7" points="1221.43 433.49 1221.43 433.17 1218.25 433.17 1218.25 433.49 1218.25 453.53 1221.43 453.53 1221.43 433.49"/><polygon class="cls-7" points="1265.96 433.49 1265.96 433.17 1262.78 433.17 1262.78 433.49 1262.78 453.53 1265.96 453.53 1265.96 433.49"/><polyline class="cls-8" points="1294.5 433.49 1133.73 433.49 1110.6 433.49 1080.53 433.49 1080.53 429.03 1294.5 429.03"/><line class="cls-9" x1="799.09" y1="427.76" x2="834.07" y2="427.76"/><line class="cls-9" x1="842.58" y1="427.76" x2="837.85" y2="427.76"/><line class="cls-9" x1="850.15" y1="427.76" x2="916.34" y2="427.76"/><line class="cls-9" x1="922.01" y1="427.76" x2="924.85" y2="427.76"/><line class="cls-9" x1="930.52" y1="427.76" x2="937.14" y2="427.76"/><line class="cls-10" x1="1108.74" y1="357.35" x2="1110.82" y2="357.35"/><line class="cls-10" x1="1114.99" y1="357.35" x2="1119.86" y2="357.35"/><polygon class="cls-11" points="73 416.6 51.62 416.6 62.31 367.72 73 416.6"/><line class="cls-12" x1="62.31" y1="391.08" x2="62.31" y2="427.29"/><line class="cls-12" x1="62.03" y1="402.01" x2="60.09" y2="398.86"/><line class="cls-12" x1="62.31" y1="408.49" x2="66.57" y2="401.46"/><line class="cls-12" x1="62.03" y1="413.03" x2="57.77" y2="406"/><path class="cls-13" d="M458.11,454.73H28.6c-12.82,0-23.32-2.12-23.32-4.7v-9.09c0-2.58,10.5-4.69,23.32-4.69H452.86c12.82,0,23.32,2.11,23.32,4.69v2.42c0,.49,2.24,2.32,6.1,2.87a14.9,14.9,0,0,0,2.32.17l9.64.15c10.53,0,15,1.21,15,3.48,0,1.3-2.63,2.47-6.85,3.32a85.27,85.27,0,0,1-15.25,1.37H458.11"/><path class="cls-14" d="M435.48,366.91h-.14l-.11,0a1.59,1.59,0,0,0-1.08,1.12l-25.48,68.2-6.91,18.48-7.64,20.45c-.57,1.53.14,3.44,1.29,3.44h50.84"/><path class="cls-14" d="M441.68,478.62H497a2.3,2.3,0,0,0,2-3.44l-11.82-20.46-4.9-8.49L437.13,368a2.26,2.26,0,0,0-1.8-1.13h-.11"/><polyline class="cls-15" points="435.22 361.1 435.22 366.91 435.22 366.93 435.22 436.25 435.22 454.73 435.22 478.63 435.22 487.61"/><path class="cls-15" d="M435.22,478.62"/><path class="cls-15" d="M435.48,366.91h-.14l-.11,0a1.59,1.59,0,0,0-1.08,1.12l-25.48,68.2-6.91,18.48-7.64,20.45c-.57,1.53.14,3.44,1.29,3.44h31.93"/><path class="cls-16" d="M441.68,478.62H497a2.3,2.3,0,0,0,2-3.44l-11.82-20.46-4.9-8.49-44.06-76.31c-.41-.7-.16-.13-.12.19,0,0,0,3.42,0,3.42"/><path class="cls-17" d="M438.21,475.18"/><path class="cls-17" d="M438.21,481.56"/><path class="cls-18" d="M576.43,455.29c-.82,1.13-4.94,7.46,0,13.84a.47.47,0,0,0,.36.18h98.54a6.37,6.37,0,0,1,6,4.17,8.7,8.7,0,0,1,.1,6,6.22,6.22,0,0,1-5.9,4h-42a.43.43,0,0,0-.32.14c-.93,1-6.31,7.34,0,12.53a.47.47,0,0,0,.3.11h36a5.22,5.22,0,0,1,5.1,4.08,14.3,14.3,0,0,1,.13,5.81,5.36,5.36,0,0,1-5.28,4.3h-7a3.43,3.43,0,0,0-3.21,2.22,12.43,12.43,0,0,0-.86,4.42,4.85,4.85,0,0,0,4.89,4.71h69.39a5.13,5.13,0,0,0,5.18-5.21v-.13a5,5,0,0,0-5-4.59H717.26a5.3,5.3,0,0,1-5.08-3.71,11,11,0,0,1,.48-7.53,4.84,4.84,0,0,1,4.5-3h79.17a.44.44,0,0,0,.38-.21c.81-1.33,4.94-8.7,0-13.84a.47.47,0,0,0-.33-.14H760.53a7.6,7.6,0,0,1-7.64-7.56,10.22,10.22,0,0,1,.14-1.48,6.28,6.28,0,0,1,6.23-5.14H884.36a.44.44,0,0,0,.34-.16c1-1.3,7.59-10-1.46-14a.49.49,0,0,0-.19,0H576.79A.43.43,0,0,0,576.43,455.29Z"/><path class="cls-19" d="M635.81,454.47a99.88,99.88,0,1,1,199.77,0"/><path class="cls-20" d="M502.38,511.43V487.81H434a6.65,6.65,0,0,0-2.82.63l-48.33,22.65"/><rect class="cls-21" x="479.71" y="492.46" width="17.07" height="9.31" rx="1.29" ry="1.29" transform="translate(976.49 994.24) rotate(-180)"/><rect class="cls-21" x="454.87" y="492.46" width="17.07" height="9.31" rx="1.29" ry="1.29" transform="translate(926.82 994.24) rotate(-180)"/><rect class="cls-21" x="430.04" y="492.46" width="17.07" height="9.31" rx="1.29" ry="1.29" transform="translate(877.15 994.24) rotate(-180)"/><path class="cls-22" d="M354.46,520"/><path class="cls-23" d="M511,520.16a15.52,15.52,0,0,0,.59-4.26v-3.74a1.29,1.29,0,0,0-1.28-1.29l-160.24-.55h0a28.78,28.78,0,0,0,4.36,9.7"/><path class="cls-22" d="M511,520.16"/><polygon class="cls-24" points="215.9 230.97 236.14 425.46 150.82 425.46 172.74 230.97 215.9 230.97"/><rect class="cls-15" x="172.78" y="158.8" width="43.12" height="72.17"/><line class="cls-24" x1="165.74" y1="294.33" x2="215.9" y2="230.97"/><line class="cls-24" x1="158.7" y1="360.34" x2="221.18" y2="279.37"/><line class="cls-24" x1="158.7" y1="360.34" x2="221.18" y2="279.37"/><line class="cls-24" x1="150.78" y1="425.46" x2="225.58" y2="327.77"/><line class="cls-24" x1="194.78" y1="425.46" x2="230.86" y2="377.94"/><rect class="cls-25" x="199.18" y="376.28" width="8.8" height="16.62"/><rect class="cls-25" x="199.18" y="265.39" width="8.8" height="16.62"/><path class="cls-15" d="M166.62,158.36a27.72,27.72,0,1,1,55.45,0Z"/><polyline class="cls-15" points="235.26 402.58 273.99 402.58 273.99 426.34"/><g id="bottom_railing" data-name="bottom railing"><polyline class="cls-15" points="215.9 219.06 225.58 210.72 225.58 196.64 193.9 196.64 193.02 196.64 163.1 196.64 163.1 210.72 172.78 219.06"/><polyline class="cls-15" points="157.82 196.64 181.32 196.64 230.86 196.64"/><line class="cls-15" x1="163.1" y1="208.96" x2="225.58" y2="208.96"/><line class="cls-15" x1="181.58" y1="218.64" x2="181.58" y2="196.64"/><line class="cls-15" x1="193.9" y1="218.64" x2="193.9" y2="196.64"/><line class="cls-15" x1="207.1" y1="218.64" x2="207.1" y2="196.64"/></g><g id="top_railing" data-name="top railing"><line class="cls-15" x1="167.5" y1="184.32" x2="222.06" y2="184.32"/><line class="cls-15" x1="172.78" y1="158.8" x2="193.9" y2="184.32"/><line class="cls-15" x1="194.78" y1="158.8" x2="215.9" y2="184.32"/><line class="cls-15" x1="215.9" y1="158.8" x2="194.78" y2="184.32"/><line class="cls-15" x1="193.9" y1="158.8" x2="172.78" y2="184.32"/></g><path class="cls-26" d="M232.06,386.24h29.51a3.89,3.89,0,0,1,3,1.45l11.51,14.25a.4.4,0,0,1-.31.65H233.67"/><line class="cls-15" x1="190.38" y1="122.71" x2="197.42" y2="122.71"/><circle class="cls-27" cx="193.9" cy="113.03" r="4.4"/><path class="cls-22" d="M1159.13,356.48h-2.57a13.38,13.38,0,0,0-26.13-4,8.92,8.92,0,1,0-2.68,17.43h31.39a6.37,6.37,0,0,0,6.35-6.35v-.69A6.37,6.37,0,0,0,1159.13,356.48Z"/><path class="cls-22" d="M1130.63,343.28h-2.57a13.38,13.38,0,0,0-26.13-4,8.92,8.92,0,1,0-2.68,17.43h31.39a6.37,6.37,0,0,0,6.35-6.35v-.69A6.37,6.37,0,0,0,1130.63,343.28Z"/><path class="cls-28" d="M41.33,418.5H28.81a.54.54,0,0,1-.53-.65l1.34-6.37L33.08,395l1.33-6.35a.54.54,0,0,1,1.05,0l6.39,29.19A.54.54,0,0,1,41.33,418.5Z"/><line class="cls-29" x1="35.07" y1="421.65" x2="35.07" y2="426.34"/><line class="cls-30" x1="608.15" y1="550.23" x2="604.82" y2="573.05"/><path class="cls-30" d="M617.18,543v-2.18a1.05,1.05,0,0,0-1-1h-4.56a1.05,1.05,0,0,0-1,1V543"/><line class="cls-30" x1="622.88" y1="573.05" x2="619.56" y2="550.23"/><line class="cls-30" x1="605.77" y1="565.93" x2="622.41" y2="565.93"/><line class="cls-30" x1="605.77" y1="565.92" x2="622.88" y2="573.05"/><line class="cls-30" x1="604.8" y1="573.02" x2="621.95" y2="565.96"/><rect class="cls-31" x="602.92" y="573.29" width="21.87" height="6.18" rx="2.72" ry="2.72"/><rect class="cls-31" x="607.2" y="544.05" width="12.84" height="6.18" rx="2.72" ry="2.72"/><rect class="cls-32" x="1038.8" y="420.99" width="5.08" height="32.54"/><path class="cls-22" d="M571.2,399.4s-12.29-2.84-11.35-17S571.2,366.3,571.2,366.3s12.29-3.78,18,2.84c0,0,8.51-16.07,23.64-3.78,0,0,6.59-15.13,23.64-15.13,18,0,23.64,16.07,23.64,16.07s15.13-8.51,19.86,5.67c0,0,11.35-1.89,13.24,5.67,0,0,4.73-8.51,13.24-8.51s13.24,5.67,13.24,11.35c0,0,8.51-2.84,12.29-.95s5.67,4.73,5.67,8.51-1.89,10.4-5.67,12.29S571.2,399.4,571.2,399.4Z"/><line class="cls-9" x1="597.68" y1="401.29" x2="602.41" y2="401.29"/><line class="cls-9" x1="609.03" y1="401.29" x2="619.43" y2="401.29"/><line class="cls-9" x1="625.1" y1="401.29" x2="677.11" y2="401.29"/><line class="cls-9" x1="682.79" y1="401.29" x2="687.97" y2="401.29"/><path class="cls-9" d="M666.71,408.85h13.24"/><path class="cls-22" d="M810,426.34s-10.4-7.56,0-19.86,24.58-.95,24.58-.95,2.84-7.56,8.51-8.51,12.29,2.84,12.29,2.84A25.14,25.14,0,0,1,879,384.74c18,0,25.53,13.24,27.42,21.75,0,0,13.24-.95,14.18,8.51s-3.78,11.35-3.78,11.35Z"/><path class="cls-5" d="M502.5,454.24h64"/><line class="cls-5" x1="573.1" y1="454.24" x2="577.82" y2="454.24"/><line class="cls-5" x1="581.61" y1="454.24" x2="622.27" y2="454.24"/><line class="cls-5" x1="661.98" y1="454.24" x2="629.83" y2="454.24"/><line class="cls-5" x1="669.54" y1="454.24" x2="673.33" y2="454.24"/><line class="cls-5" x1="678.05" y1="454.24" x2="703.58" y2="454.24"/><line class="cls-5" x1="711.15" y1="454.24" x2="728.17" y2="454.24"/><line class="cls-5" x1="734.79" y1="454.24" x2="740.46" y2="454.24"/><line class="cls-5" x1="746.13" y1="454.24" x2="748.97" y2="454.24"/><line class="cls-5" x1="755.59" y1="454.24" x2="783.01" y2="454.24"/><line class="cls-5" x1="787.74" y1="454.24" x2="793.41" y2="454.24"/><line class="cls-5" x1="798.14" y1="454.24" x2="800.98" y2="454.24"/><line class="cls-5" x1="844.47" y1="454.24" x2="808.54" y2="454.24"/><line class="cls-5" x1="852.98" y1="454.24" x2="875.68" y2="454.24"/><line class="cls-5" x1="881.35" y1="454.24" x2="887.97" y2="454.24"/><line class="cls-5" x1="892.7" y1="454.24" x2="894.59" y2="454.24"/><line class="cls-5" x1="901.21" y1="454.24" x2="957" y2="454.24"/><line class="cls-5" x1="963.62" y1="454.24" x2="979.69" y2="454.24"/><line class="cls-5" x1="983.94" y1="454.24" x2="1006.64" y2="454.24"/><line class="cls-5" x1="1012.31" y1="454.24" x2="1018.93" y2="454.24"/><line class="cls-5" x1="1023.66" y1="454.24" x2="1025.55" y2="454.24"/><line class="cls-5" x1="1032.17" y1="454.24" x2="1087.96" y2="454.24"/><line class="cls-5" x1="1094.58" y1="454.24" x2="1110.65" y2="454.24"/><line class="cls-5" x1="1116.32" y1="454.24" x2="1172.11" y2="454.24"/><line class="cls-5" x1="1185.35" y1="454.24" x2="1190.08" y2="454.24"/><line class="cls-5" x1="1193.86" y1="454.24" x2="1234.52" y2="454.24"/><line class="cls-5" x1="1261.47" y1="454.24" x2="1267.14" y2="454.24"/><line class="cls-5" x1="1271.87" y1="454.24" x2="1292.67" y2="454.24"/><line class="cls-33" x1="678.53" y1="465.11" x2="635.98" y2="465.11"/><line class="cls-33" x1="684.2" y1="465.11" x2="688.93" y2="465.11"/><line class="cls-33" x1="692.71" y1="465.11" x2="723.91" y2="465.11"/><line class="cls-33" x1="731.48" y1="465.11" x2="742.83" y2="465.11"/><line class="cls-33" x1="748.5" y1="465.11" x2="754.17" y2="465.11"/><line class="cls-33" x1="762.68" y1="465.11" x2="774.97" y2="465.11"/><line class="cls-33" x1="795.78" y1="465.11" x2="809.96" y2="465.11"/><line class="cls-33" x1="819.42" y1="465.11" x2="828.87" y2="465.11"/><line class="cls-5" x1="663.87" y1="474.1" x2="675.22" y2="474.1"/><line class="cls-5" x1="683.73" y1="474.1" x2="699.8" y2="474.1"/><line class="cls-5" x1="710.2" y1="474.1" x2="713.99" y2="474.1"/><line class="cls-5" x1="750.86" y1="474.1" x2="758.43" y2="474.1"/><line class="cls-5" x1="769.77" y1="474.1" x2="836.91" y2="474.1"/><line class="cls-5" x1="652.52" y1="481.66" x2="662.92" y2="481.66"/><line class="cls-5" x1="669.54" y1="481.66" x2="675.22" y2="481.66"/><line class="cls-5" x1="708.31" y1="481.66" x2="720.6" y2="481.66"/><line class="cls-5" x1="727.22" y1="481.66" x2="730.06" y2="481.66"/><line class="cls-5" x1="734.79" y1="481.66" x2="737.62" y2="481.66"/><line class="cls-5" x1="754.64" y1="481.66" x2="777.34" y2="481.66"/><line class="cls-5" x1="782.07" y1="481.66" x2="784.9" y2="481.66"/><line class="cls-5" x1="789.63" y1="481.66" x2="808.54" y2="481.66"/><line class="cls-5" x1="813.27" y1="481.66" x2="816.11" y2="481.66"/><line class="cls-5" x1="662.92" y1="492.06" x2="669.54" y2="492.06"/><line class="cls-5" x1="674.27" y1="492.06" x2="679.94" y2="492.06"/><line class="cls-5" x1="695.07" y1="501.52" x2="707.37" y2="501.52"/><line class="cls-5" x1="711.15" y1="501.52" x2="715.88" y2="501.52"/><line class="cls-5" x1="720.6" y1="501.52" x2="729.11" y2="501.52"/><line class="cls-5" x1="721.55" y1="511.92" x2="726.28" y2="511.92"/><line class="cls-5" x1="731.01" y1="511.92" x2="753.7" y2="511.92"/><line class="cls-5" x1="784.9" y1="492.06" x2="800.03" y2="492.06"/><line class="cls-5" x1="795.3" y1="501.52" x2="799.09" y2="501.52"/><line class="cls-5" x1="782.07" y1="501.52" x2="789.63" y2="501.52"/><line class="cls-5" x1="900.26" y1="488.28" x2="910.66" y2="488.28"/><line class="cls-5" x1="915.39" y1="488.28" x2="918.23" y2="488.28"/><line class="cls-5" x1="922.96" y1="488.28" x2="935.25" y2="488.28"/><path class="cls-10" d="M1148.7,370.56h9.73"/><line class="cls-10" x1="1096.92" y1="357.35" x2="1104.57" y2="357.35"/><line class="cls-10" x1="1127.51" y1="370.56" x2="1142.1" y2="370.56"/><path class="cls-22" d="M129.65,245.15H125.4a22.14,22.14,0,0,0-43.24-6.7,14.76,14.76,0,1,0-4.44,28.83h51.93a10.53,10.53,0,0,0,10.5-10.5v-1.14A10.53,10.53,0,0,0,129.65,245.15Z"/><path class="cls-9" d="M112.41,268.44h16.1"/><line class="cls-9" x1="77.34" y1="268.44" x2="101.48" y2="268.44"/><line class="cls-29" x1="31.31" y1="403.45" x2="33.58" y2="403.45"/><line class="cls-29" x1="34.56" y1="411.48" x2="29.62" y2="411.48"/><rect class="cls-32" x="1038.8" y="410.3" width="25" height="3.19"/><line class="cls-32" x1="1051.3" y1="410.3" x2="1051.3" y2="356.72"/><circle class="cls-34" cx="1051.26" cy="352.97" r="1.2"/><polygon class="cls-35" points="1034.65 362.79 1048.03 355.07 1048.03 370.52 1034.65 362.79"/><line class="cls-5" x1="1252.39" y1="454.24" x2="1256.74" y2="454.24"/><line class="cls-5" x1="1244.45" y1="454.24" x2="1249.43" y2="454.24"/><polygon class="cls-32" points="1115.06 429.03 1115.06 420.99 1109.98 420.99 1109.98 429.03 1109.98 433.49 1109.98 453.53 1115.06 453.53 1115.06 433.49 1115.06 429.03"/><polygon class="cls-32" points="1186.24 429.03 1186.24 420.99 1181.15 420.99 1181.15 429.03 1181.15 433.49 1181.15 453.53 1186.24 453.53 1186.24 433.49 1186.24 429.03"/><polygon class="cls-32" points="1257.42 429.03 1257.42 420.99 1252.33 420.99 1252.33 429.03 1252.33 433.49 1252.33 453.53 1257.42 453.53 1257.42 433.49 1257.42 429.03"/><polygon class="cls-20" points="1091.33 414.38 1032.19 414.38 1032.19 421.5 1091.33 421.5 1293.14 421.5 1293.14 414.38 1091.33 414.38"/><polygon class="cls-8" points="1098.47 426.68 1098.47 428.5 1084.19 428.5 1084.19 426.68 1091.33 426.68 1098.47 426.68"/><line class="cls-36" x1="1091.33" y1="421.5" x2="1091.33" y2="426.68"/><line class="cls-36" x1="1091.33" y1="396.08" x2="1091.33" y2="414.38"/><circle class="cls-37" cx="1091.31" cy="393.94" r="0.69"/><polygon class="cls-35" points="1081.82 399.55 1089.46 395.14 1089.46 403.96 1081.82 399.55"/><polyline class="cls-24" points="502.38 487.81 511.5 487.81 511.5 510.48 502.38 510.48"/><rect class="cls-25" x="254.63" y="409.05" width="8.8" height="16.62"/><circle class="cls-11" cx="261.08" cy="417.66" r="0.3"/><line class="cls-5" x1="536.93" y1="537.48" x2="547.33" y2="537.48"/><line class="cls-5" x1="551.11" y1="537.48" x2="553.95" y2="537.48"/><line class="cls-5" x1="557.73" y1="537.48" x2="590.35" y2="537.48"/><line class="cls-5" x1="523.22" y1="522.93" x2="533.62" y2="522.93"/><line class="cls-5" x1="537.41" y1="522.93" x2="540.24" y2="522.93"/><line class="cls-5" x1="543.08" y1="522.93" x2="555.37" y2="522.93"/><line class="cls-5" x1="82.65" y1="566.7" x2="93.05" y2="566.7"/><line class="cls-5" x1="96.83" y1="566.7" x2="99.67" y2="566.7"/><line class="cls-5" x1="104.39" y1="566.7" x2="116.69" y2="566.7"/><line class="cls-5" x1="98.76" y1="508.52" x2="109.16" y2="508.52"/><line class="cls-5" x1="113.89" y1="508.52" x2="116.72" y2="508.52"/><line class="cls-5" x1="121.45" y1="508.52" x2="133.74" y2="508.52"/><line class="cls-5" x1="206.05" y1="549.21" x2="230.16" y2="549.21"/><line class="cls-5" x1="236.74" y1="549.21" x2="243.32" y2="549.21"/><line class="cls-38" x1="249.59" y1="549.21" x2="278.08" y2="549.21"/><line class="cls-5" x1="927.76" y1="578.26" x2="961.36" y2="578.26"/><line class="cls-5" x1="970.52" y1="578.26" x2="979.68" y2="578.26"/><line class="cls-5" x1="985.79" y1="578.26" x2="1025.5" y2="578.26"/><line class="cls-5" x1="1203.47" y1="534.75" x2="1237.06" y2="534.75"/><line class="cls-5" x1="1246.22" y1="534.75" x2="1255.39" y2="534.75"/><line class="cls-5" x1="1261.49" y1="534.75" x2="1292.2" y2="534.75"/><path class="cls-10" d="M193.9,104.53s8.59-1,8.67,8.51"/><line class="cls-5" x1="358.84" y1="529.84" x2="417.86" y2="529.84"/><line class="cls-5" x1="433.96" y1="529.84" x2="450.06" y2="529.84"/><line class="cls-5" x1="460.79" y1="529.84" x2="530.55" y2="529.84"/><line class="cls-5" x1="602.92" y1="579.98" x2="607.32" y2="579.98"/><line class="cls-5" x1="611.21" y1="579.98" x2="630.3" y2="579.98"/><polygon class="cls-35" points="159.96 355.19 219.53 278.6 214.8 234.16 166.57 294.67 159.96 355.19"/><polygon class="cls-35" points="193.05 423.27 228.98 376.94 224.25 331.55 154.28 424.22 193.05 423.27"/><polygon class="cls-39" points="152.39 423.27 160.9 423.27 182.65 230.38 174.14 230.38 152.39 423.27"/><polygon class="cls-40" points="159.96 355.19 170.36 341.01 176.98 281.44 166.57 294.67 159.96 355.19"/><polygon class="cls-40" points="160.9 424.22 160.9 424.22 162.79 412.87 154.28 424.22 160.9 424.22"/><path class="cls-41" d="M298.26,455.66H18c-9,0-16.45-3.35-16.45-7.45V433.79c0-4.1,7.4-7.45,16.45-7.45H294.54c9,0,16.45,3.35,16.45,7.45v3.84c0,.93,2.23,4.81,5.94,4.81l6.79.24c7.43,0,10.61,1.92,10.61,5.53h0c0,4.1-7.4,7.45-16.45,7.45h-303"/><path class="cls-25" d="M347.38,268.39s14.8-1.41,20,5.73a26.17,26.17,0,0,1,18.83-5.84"/><path class="cls-25" d="M320,278.79s14.8-1.41,20,5.73a26.17,26.17,0,0,1,18.83-5.84"/><path class="cls-25" d="M1161.76,311.16s14.8-1.41,20,5.73a26.17,26.17,0,0,1,18.83-5.84"/><path class="cls-15" d="M441.68,478.62H497a2.3,2.3,0,0,0,2-3.44l-11.82-20.46-4.9-8.49L437.13,368a2.26,2.26,0,0,0-1.8-1.13h-.11"/><line class="cls-6" x1="83.59" y1="565.75" x2="93.99" y2="565.75"/><line class="cls-6" x1="97.78" y1="565.75" x2="100.61" y2="565.75"/><line class="cls-6" x1="105.34" y1="565.75" x2="117.63" y2="565.75"/><line class="cls-6" x1="99.7" y1="507.57" x2="110.11" y2="507.57"/><line class="cls-6" x1="114.83" y1="507.57" x2="117.67" y2="507.57"/><line class="cls-6" x1="122.4" y1="507.57" x2="134.69" y2="507.57"/><line class="cls-6" x1="207" y1="548.27" x2="231.11" y2="548.27"/><line class="cls-6" x1="237.69" y1="548.27" x2="244.26" y2="548.27"/><line class="cls-6" x1="250.54" y1="548.27" x2="279.03" y2="548.27"/><line class="cls-5" x1="876.62" y1="561.58" x2="900.73" y2="561.58"/><line class="cls-5" x1="907.3" y1="561.58" x2="913.88" y2="561.58"/><line class="cls-38" x1="920.16" y1="561.58" x2="948.65" y2="561.58"/><line class="cls-4" x1="877.56" y1="559.69" x2="901.67" y2="559.69"/><line class="cls-4" x1="908.25" y1="559.69" x2="914.83" y2="559.69"/><line class="cls-4" x1="921.1" y1="559.69" x2="949.6" y2="559.69"/><line class="cls-4" x1="928.71" y1="576.37" x2="962.3" y2="576.37"/><line class="cls-4" x1="971.47" y1="576.37" x2="980.63" y2="576.37"/><line class="cls-4" x1="986.74" y1="576.37" x2="1026.44" y2="576.37"/><line class="cls-5" x1="1125.27" y1="516.66" x2="1149.38" y2="516.66"/><line class="cls-5" x1="1155.96" y1="516.66" x2="1162.54" y2="516.66"/><line class="cls-38" x1="1168.81" y1="516.66" x2="1197.31" y2="516.66"/><line class="cls-4" x1="1126.22" y1="514.77" x2="1150.33" y2="514.77"/><line class="cls-4" x1="1156.91" y1="514.77" x2="1163.48" y2="514.77"/><line class="cls-4" x1="1169.76" y1="514.77" x2="1198.25" y2="514.77"/><line class="cls-6" x1="901.21" y1="487.33" x2="911.61" y2="487.33"/><line class="cls-6" x1="916.34" y1="487.33" x2="919.17" y2="487.33"/><line class="cls-6" x1="923.9" y1="487.33" x2="936.19" y2="487.33"/><line class="cls-6" x1="1204.41" y1="533.81" x2="1238.01" y2="533.81"/><line class="cls-6" x1="1247.17" y1="533.81" x2="1256.33" y2="533.81"/><line class="cls-6" x1="1262.44" y1="533.81" x2="1293.15" y2="533.81"/><path class="cls-42" d="M503.6,529.14a14.51,14.51,0,0,0,8-13.25v-3.74a1.29,1.29,0,0,0-1.28-1.29l-160.24-.55h0c1.84,8.06,8.38,16.75,16.4,19.38"/><line class="cls-43" x1="606.89" y1="558.89" x2="620.26" y2="558.89"/><line class="cls-44" x1="536.14" y1="485.08" x2="534" y2="499.75"/><path class="cls-44" d="M541.95,480.43V479a.68.68,0,0,0-.67-.67h-2.93a.68.68,0,0,0-.67.67v1.4"/><line class="cls-44" x1="545.62" y1="499.75" x2="543.48" y2="485.08"/><line class="cls-44" x1="534.61" y1="495.17" x2="545.31" y2="495.17"/><line class="cls-44" x1="534.61" y1="495.17" x2="545.62" y2="499.75"/><line class="cls-44" x1="533.99" y1="499.73" x2="545.01" y2="495.19"/><rect class="cls-45" x="532.77" y="499.91" width="14.06" height="3.97" rx="1.73" ry="1.73"/><rect class="cls-45" x="535.53" y="481.1" width="8.26" height="3.97" rx="1.73" ry="1.73"/><line class="cls-46" x1="535.79" y1="490.65" x2="543.66" y2="490.65"/><line class="cls-5" x1="530.68" y1="504.07" x2="533.51" y2="504.07"/><line class="cls-5" x1="537.29" y1="504.07" x2="549.59" y2="504.07"/><line class="cls-6" x1="541.89" y1="536.03" x2="552.29" y2="536.03"/><line class="cls-6" x1="556.07" y1="536.03" x2="558.91" y2="536.03"/><line class="cls-6" x1="562.69" y1="536.03" x2="595.31" y2="536.03"/><line class="cls-6" x1="528.18" y1="521.85" x2="538.58" y2="521.85"/><line class="cls-6" x1="542.36" y1="521.85" x2="545.2" y2="521.85"/><line class="cls-6" x1="548.04" y1="521.85" x2="560.33" y2="521.85"/><rect class="cls-47" width="26" height="650"/><rect class="cls-48" x="1279.5" y="18.5" width="26" height="650" transform="translate(2585 687) rotate(-180)"/></g></g></svg>