<?xml version="1.0" encoding="utf-8"?>
<!-- Generator: Adobe Illustrator 21.1.0, SVG Export Plug-In . SVG Version: 6.00 Build 0)  -->
<svg version="1.1" id="Layer_1" xmlns="http://www.w3.org/2000/svg" xmlns:xlink="http://www.w3.org/1999/xlink" x="0px" y="0px"
	 viewBox="0 0 1299.5 700" style="enable-background:new 0 0 1299.5 700;" xml:space="preserve">
<style type="text/css">
	.st0{fill:none;}
	.st1{fill:#414042;}
	.st2{fill:none;stroke:#00468B;stroke-width:0.75;stroke-linecap:round;stroke-miterlimit:10;}
	.st3{fill:none;stroke:#B9D1EF;stroke-width:0.75;stroke-linecap:round;stroke-miterlimit:10;}
	.st4{fill:none;stroke:#024B87;stroke-width:0.75;stroke-linecap:round;stroke-miterlimit:10;}
	.st5{fill:none;stroke:#414042;stroke-width:0.75;stroke-miterlimit:10;}
	.st6{fill:#FFFFFF;stroke:#414042;stroke-width:0.75;stroke-linejoin:round;}
	.st7{fill:none;stroke:#414042;stroke-width:0.75;stroke-linecap:round;stroke-miterlimit:10;}
	.st8{fill:#FFFFFF;stroke:#414042;stroke-width:0.75;stroke-linecap:round;stroke-linejoin:round;}
	.st9{fill:none;stroke:#414042;stroke-width:0.75;stroke-linecap:round;stroke-linejoin:round;}
	.st10{fill:#FFFFFF;}
	.st11{fill:#193057;}
	.st12{fill:none;stroke:#111111;stroke-width:0.75;stroke-linecap:round;stroke-miterlimit:10;}
	.st13{opacity:0.74;fill:url(#SVGID_1_);enable-background:new    ;}
	.st14{fill:#F7931E;}
	.st15{fill:#CEE3F6;stroke:#414042;stroke-width:0.75;stroke-miterlimit:10;}
	.st16{fill:#B9D1EF;}
	.st17{fill:#FCC062;}
	.st18{fill:url(#SVGID_2_);stroke:#414042;stroke-width:0.75;stroke-linecap:round;stroke-miterlimit:10;}
	.st19{fill:#FFFFFF;stroke:#414042;stroke-width:0.75;stroke-linecap:round;stroke-miterlimit:10;}
	.st20{fill:none;stroke:#22B573;stroke-width:0.75;stroke-miterlimit:10;}
	.st21{fill:#22B573;stroke:#22B573;stroke-width:0.75;stroke-miterlimit:10;}
	.st22{fill:none;stroke:#3B312F;stroke-width:0.75;stroke-miterlimit:10;}
	.st23{fill:#722C36;}
	.st24{fill:none;stroke:#414042;stroke-width:0.75;stroke-linejoin:round;}
	.st25{fill:none;stroke:#2E3192;stroke-width:0.75;stroke-linecap:round;stroke-miterlimit:10;}
	.st26{fill:none;stroke:#3B312F;stroke-width:0.75;stroke-linecap:round;stroke-miterlimit:10;}
	.st27{opacity:0.42;fill:url(#SVGID_3_);enable-background:new    ;}
	.st28{opacity:0.75;fill:url(#SVGID_4_);enable-background:new    ;}
	.st29{opacity:0.75;fill:url(#SVGID_5_);enable-background:new    ;}
	.st30{fill:#FFFFFF;stroke:#414042;stroke-width:0.75;stroke-miterlimit:10;}
	.st31{fill:none;stroke:#333333;stroke-width:0.75;stroke-miterlimit:10;}
	.st32{fill:none;stroke:#22B573;stroke-width:0.75;stroke-linecap:round;stroke-miterlimit:10;}
	.st33{fill:none;stroke:#C1272D;stroke-width:0.75;stroke-miterlimit:10;}
	.st34{fill:#C1272D;stroke:#C1272D;stroke-width:0.75;stroke-miterlimit:10;}
	.st35{fill:none;stroke:#C1272D;stroke-width:0.75;stroke-linecap:square;stroke-miterlimit:10;}
	.st36{fill:url(#SVGID_6_);}
	.st37{fill:url(#SVGID_7_);}
</style>
<pattern  y="700" width="4" height="4" patternUnits="userSpaceOnUse" id="New_Pattern_4" viewBox="0 -4 4 4" style="overflow:visible;">
	<g>
		<rect y="-4" class="st0" width="4" height="4"/>
		<rect y="-4" class="st0" width="4" height="4"/>
		<circle class="st1" cx="2" cy="-2" r="1"/>
	</g>
</pattern>
<pattern  y="700" width="4" height="4" patternUnits="userSpaceOnUse" id="New_Pattern_4-3" viewBox="0 -4 4 4" style="overflow:visible;">
	<g>
		<rect y="-4" class="st0" width="4" height="4"/>
		<rect y="-4" class="st0" width="4" height="4"/>
		<circle class="st1" cx="2" cy="-2" r="1"/>
	</g>
</pattern>
<title>informationals</title>
<g id="Layer_2">
	<g id="Home_Page">
		<line class="st2" x1="232.9" y1="540.4" x2="254.8" y2="540.4"/>
		<line class="st2" x1="259.4" y1="540.4" x2="262.1" y2="540.4"/>
		<line class="st2" x1="266.7" y1="540.4" x2="284.9" y2="540.4"/>
		<line class="st2" x1="289.5" y1="540.4" x2="292.2" y2="540.4"/>
		<line class="st2" x1="293.6" y1="533.4" x2="303.6" y2="533.4"/>
		<line class="st2" x1="306.4" y1="533.4" x2="309.1" y2="533.4"/>
		<line class="st2" x1="310.9" y1="533.4" x2="322.8" y2="533.4"/>
		<path class="st2" d="M159.5,505.6h42.8"/>
		<line class="st2" x1="207.2" y1="505.6" x2="210.7" y2="505.6"/>
		<line class="st2" x1="213.6" y1="505.6" x2="243.7" y2="505.6"/>
		<path class="st3" d="M161.8,503.4h37"/>
		<line class="st3" x1="204.6" y1="503.7" x2="209.4" y2="503.7"/>
		<line class="st3" x1="213.3" y1="503.7" x2="243.7" y2="503.7"/>
		<path class="st3" d="M232.1,538.4h27.8"/>
		<line class="st3" x1="264.2" y1="538.7" x2="267.9" y2="538.7"/>
		<line class="st3" x1="270.7" y1="538.7" x2="293.6" y2="538.7"/>
		<line class="st3" x1="294.3" y1="530.4" x2="298" y2="530.4"/>
		<line class="st3" x1="300.9" y1="530.4" x2="323.7" y2="530.4"/>
		<path class="st2" d="M159.5,505.6h42.8"/>
		<line class="st2" x1="207.2" y1="505.6" x2="210.7" y2="505.6"/>
		<line class="st2" x1="213.6" y1="505.6" x2="243.7" y2="505.6"/>
		<path class="st3" d="M161.8,503.4h37"/>
		<line class="st3" x1="204.6" y1="503.7" x2="209.4" y2="503.7"/>
		<line class="st3" x1="213.3" y1="503.7" x2="243.7" y2="503.7"/>
	</g>
	<g id="Services_Icon">
		<line class="st2" x1="1134.5" y1="520.9" x2="1149.1" y2="520.9"/>
		<line class="st2" x1="1144.5" y1="530" x2="1148.2" y2="530"/>
		<line class="st2" x1="1227.2" y1="492.8" x2="1237.2" y2="492.8"/>
		<line class="st2" x1="1243.6" y1="492.8" x2="1249.1" y2="492.8"/>
		<line class="st2" x1="1237.2" y1="502.8" x2="1243.6" y2="502.8"/>
		<line class="st2" x1="1248.2" y1="502.8" x2="1253.6" y2="502.8"/>
		<line class="st2" x1="1053.5" y1="507" x2="1078" y2="507"/>
		<line class="st2" x1="1083.1" y1="507" x2="1086.1" y2="507"/>
		<line class="st2" x1="1091.2" y1="507" x2="1111.6" y2="507"/>
		<line class="st2" x1="1116.7" y1="507" x2="1119.8" y2="507"/>
		<line class="st2" x1="1121.3" y1="499.2" x2="1132.6" y2="499.2"/>
		<line class="st2" x1="994.2" y1="507" x2="1018.7" y2="507"/>
		<line class="st2" x1="1023.8" y1="507" x2="1026.8" y2="507"/>
		<line class="st2" x1="1031.9" y1="507" x2="1052.3" y2="507"/>
		<line class="st2" x1="1057.4" y1="507" x2="1060.5" y2="507"/>
		<line class="st3" x1="1228.1" y1="491" x2="1238.1" y2="491"/>
		<line class="st3" x1="1244.5" y1="491" x2="1250" y2="491"/>
		<line class="st3" x1="1238.1" y1="501" x2="1244.5" y2="501"/>
		<line class="st3" x1="1249.1" y1="501" x2="1254.5" y2="501"/>
		<path class="st3" d="M1004.8,505.1h58.7"/>
		<line class="st3" x1="1070.3" y1="505.1" x2="1075.1" y2="505.1"/>
		<line class="st3" x1="1078.9" y1="505.1" x2="1120.4" y2="505.1"/>
		<line class="st3" x1="1123.2" y1="497.3" x2="1133" y2="497.3"/>
		<line class="st3" x1="1136.1" y1="518.3" x2="1149.4" y2="518.3"/>
		<line class="st4" x1="998" y1="555.5" x2="1035.1" y2="555.5"/>
		<line class="st4" x1="1201.6" y1="514.8" x2="1233" y2="514.8"/>
		<line class="st4" x1="1241.6" y1="514.8" x2="1250.2" y2="514.8"/>
		<line class="st4" x1="1255.9" y1="514.8" x2="1284.6" y2="514.8"/>
		<line class="st3" x1="998.8" y1="553.7" x2="1036" y2="553.7"/>
		<line class="st3" x1="1202.5" y1="513.9" x2="1233.9" y2="513.9"/>
		<line class="st3" x1="1242.5" y1="513.9" x2="1251.1" y2="513.9"/>
		<line class="st3" x1="1256.8" y1="513.9" x2="1285.5" y2="513.9"/>
	</g>
	<g id="FAQ">
		<polygon class="st5" points="1089.8,455 1089.8,454.7 1086.7,454.7 1086.7,455 1086.7,475 1089.8,475 		"/>
		<polygon class="st5" points="1134.4,455 1134.4,454.7 1131.2,454.7 1131.2,455 1131.2,475 1134.4,475 		"/>
		<polygon class="st5" points="1178.9,455 1178.9,454.7 1175.7,454.7 1175.7,455 1175.7,475 1178.9,475 		"/>
		<polygon class="st5" points="1223.4,455 1223.4,454.7 1220.2,454.7 1220.2,455 1220.2,475 1223.4,475 		"/>
		<polygon class="st5" points="1268,455 1268,454.7 1264.8,454.7 1264.8,455 1264.8,475 1268,475 		"/>
		<polyline class="st6" points="1296.5,455 1135.7,455 1112.6,455 1082.5,455 1082.5,450.5 1296.5,450.5 		"/>
		<line class="st7" x1="801.1" y1="449.3" x2="836.1" y2="449.3"/>
		<line class="st7" x1="844.6" y1="449.3" x2="839.8" y2="449.3"/>
		<line class="st7" x1="852.2" y1="449.3" x2="918.3" y2="449.3"/>
		<line class="st7" x1="924" y1="449.3" x2="926.8" y2="449.3"/>
		<line class="st7" x1="932.5" y1="449.3" x2="939.1" y2="449.3"/>
		<line class="st7" x1="1110.7" y1="378.9" x2="1112.8" y2="378.9"/>
		<line class="st7" x1="1117" y1="378.9" x2="1121.9" y2="378.9"/>
		<polygon class="st8" points="75,438.1 53.6,438.1 64.3,389.2 		"/>
		<line class="st9" x1="64.3" y1="412.6" x2="64.3" y2="448.8"/>
		<line class="st9" x1="64" y1="423.5" x2="62.1" y2="420.4"/>
		<line class="st9" x1="64.3" y1="430" x2="68.6" y2="423"/>
		<line class="st9" x1="64" y1="434.5" x2="59.8" y2="427.5"/>
		<path class="st7" d="M460.1,476.2H30.6c-12.8,0-23.3-2.1-23.3-4.7v-9.1c0-2.6,10.5-4.7,23.3-4.7h424.3c12.8,0,23.3,2.1,23.3,4.7
			v2.4c0,0.5,2.2,2.3,6.1,2.9c0.8,0.1,1.5,0.2,2.3,0.2l9.6,0.1c10.5,0,15,1.2,15,3.5c0,1.3-2.6,2.5-6.9,3.3
			c-5,0.9-10.1,1.4-15.2,1.4L460.1,476.2"/>
		<path class="st10" d="M437.5,388.4h-0.1h-0.1c-0.5,0.2-0.9,0.6-1.1,1.1l-25.5,68.2l-6.9,18.5l-7.6,20.5c-0.6,1.5,0.1,3.4,1.3,3.4
			h50.8"/>
		<path class="st10" d="M443.7,500.1H499c1.3,0,2.3-1,2.3-2.3c0-0.4-0.1-0.8-0.3-1.1l-11.8-20.5l-4.9-8.5l-45.1-78.2
			c-0.4-0.7-1-1.1-1.8-1.1h-0.1"/>
		<polyline class="st7" points="437.2,382.6 437.2,388.4 437.2,388.4 437.2,457.8 437.2,476.2 437.2,500.1 437.2,509.1 		"/>
		<path class="st7" d="M437.2,500.1"/>
		<path class="st7" d="M437.5,388.4h-0.1h-0.1c-0.5,0.2-0.9,0.6-1.1,1.1l-25.5,68.2l-6.9,18.5l-7.6,20.5c-0.6,1.5,0.1,3.4,1.3,3.4
			h31.9"/>
		<path class="st11" d="M443.7,500.1H499c1.3,0,2.3-1,2.3-2.3c0-0.4-0.1-0.8-0.3-1.1l-11.8-20.5l-4.9-8.5l-44.1-76.3
			c-0.4-0.7-0.2-0.1-0.1,0.2v3.4"/>
		<path class="st12" d="M440.2,496.7"/>
		<path class="st12" d="M440.2,503.1"/>
		
			<linearGradient id="SVGID_1_" gradientUnits="userSpaceOnUse" x1="729.4703" y1="100.2503" x2="734.1303" y2="254.0503" gradientTransform="matrix(1 0 0 -1 0 700)">
			<stop  offset="0.44" style="stop-color:#1B1464"/>
			<stop  offset="0.66" style="stop-color:#F25B45"/>
			<stop  offset="0.7" style="stop-color:#F46D43"/>
			<stop  offset="0.78" style="stop-color:#F78A3F"/>
			<stop  offset="0.85" style="stop-color:#F99F3D"/>
			<stop  offset="0.93" style="stop-color:#FBAC3B"/>
			<stop  offset="1" style="stop-color:#FBB03B"/>
		</linearGradient>
		<path class="st13" d="M578.4,476.8c-0.8,1.1-4.9,7.5,0,13.8c0.1,0.1,0.2,0.2,0.4,0.2h98.5c2.7,0,5.1,1.7,6,4.2
			c0.7,1.9,0.8,4.1,0.1,6c-0.9,2.4-3.3,4-5.9,4h-42c-0.1,0-0.2,0.1-0.3,0.1c-0.9,1-6.3,7.3,0,12.5c0.1,0.1,0.2,0.1,0.3,0.1h36
			c2.4,0,4.6,1.7,5.1,4.1c0.4,1.9,0.5,3.9,0.1,5.8c-0.5,2.5-2.7,4.3-5.3,4.3h-7c-1.4,0-2.7,0.9-3.2,2.2c-0.6,1.4-0.8,2.9-0.9,4.4
			c0.1,2.6,2.2,4.7,4.9,4.7h69.4c2.8,0,5.2-2.2,5.2-5.1c0,0,0-0.1,0-0.1V538c-0.2-2.6-2.4-4.6-5-4.6h-15.6c-2.3,0-4.4-1.5-5.1-3.7
			c-0.7-2.5-0.6-5.2,0.5-7.5c0.7-1.8,2.5-3,4.5-3h79.2c0.2,0,0.3-0.1,0.4-0.2c0.8-1.3,4.9-8.7,0-13.8c-0.1-0.1-0.2-0.1-0.3-0.1
			h-35.8c-4.2,0-7.6-3.4-7.6-7.6c0,0,0,0,0,0c0-0.5,0.1-1,0.1-1.5c0.6-3,3.2-5.2,6.2-5.1h125.1c0.1,0,0.3-0.1,0.3-0.2
			c1-1.3,7.6-10-1.5-14c-0.1,0-0.1,0-0.2,0H578.8C578.7,476.6,578.5,476.7,578.4,476.8z"/>
		<path class="st14" d="M637.8,476c0-55.2,44.7-99.9,99.9-99.9s99.9,44.7,99.9,99.9"/>
		<path class="st6" d="M504.4,532.9v-23.6H436c-1,0-1.9,0.2-2.8,0.6l-48.3,22.7"/>
		<path class="st15" d="M497.5,523.3H483c-0.7,0-1.3-0.6-1.3-1.3v-6.7c0-0.7,0.6-1.3,1.3-1.3h14.5c0.7,0,1.3,0.6,1.3,1.3v6.7
			C498.8,522.7,498.2,523.3,497.5,523.3z"/>
		<path class="st15" d="M472.7,523.3h-14.5c-0.7,0-1.3-0.6-1.3-1.3v-6.7c0-0.7,0.6-1.3,1.3-1.3h14.5c0.7,0,1.3,0.6,1.3,1.3v6.7
			C474,522.7,473.4,523.3,472.7,523.3z"/>
		<path class="st15" d="M447.8,523.3h-14.5c-0.7,0-1.3-0.6-1.3-1.3v-6.7c0-0.7,0.6-1.3,1.3-1.3h14.5c0.7,0,1.3,0.6,1.3,1.3v6.7
			C449.1,522.7,448.5,523.3,447.8,523.3z"/>
		<path class="st16" d="M356.5,541.5"/>
		<path class="st17" d="M513,541.7c0.4-1.4,0.6-2.8,0.6-4.3v-3.7c0-0.7-0.6-1.3-1.3-1.3l-160.2-0.5l0,0c0.8,3.5,2.3,6.8,4.4,9.7"/>
		<path class="st16" d="M513,541.7"/>
		<polygon class="st9" points="217.9,252.5 238.1,447 152.8,447 174.7,252.5 		"/>
		<rect x="174.8" y="180.3" class="st7" width="43.1" height="72.2"/>
		<line class="st9" x1="167.7" y1="315.8" x2="217.9" y2="252.5"/>
		<line class="st9" x1="160.7" y1="381.8" x2="223.2" y2="300.9"/>
		<line class="st9" x1="160.7" y1="381.8" x2="223.2" y2="300.9"/>
		<line class="st9" x1="152.8" y1="447" x2="227.6" y2="349.3"/>
		<line class="st9" x1="196.8" y1="447" x2="232.9" y2="399.4"/>
		<rect x="201.2" y="397.8" class="st8" width="8.8" height="16.6"/>
		<rect x="201.2" y="286.9" class="st8" width="8.8" height="16.6"/>
		<path class="st7" d="M168.6,179.9c0-15.3,12.4-27.7,27.7-27.7s27.7,12.4,27.7,27.7H168.6z"/>
		<polyline class="st7" points="237.3,424.1 276,424.1 276,447.8 		"/>
		<g id="bottom_railing">
			<polyline class="st7" points="217.9,240.6 227.6,232.2 227.6,218.1 195.9,218.1 195,218.1 165.1,218.1 165.1,232.2 174.8,240.6 
							"/>
			<polyline class="st7" points="159.8,218.1 183.3,218.1 232.9,218.1 			"/>
			<line class="st7" x1="165.1" y1="230.5" x2="227.6" y2="230.5"/>
			<line class="st7" x1="183.6" y1="240.1" x2="183.6" y2="218.1"/>
			<line class="st7" x1="195.9" y1="240.1" x2="195.9" y2="218.1"/>
			<line class="st7" x1="209.1" y1="240.1" x2="209.1" y2="218.1"/>
		</g>
		<g id="top_railing">
			<line class="st7" x1="169.5" y1="205.8" x2="224.1" y2="205.8"/>
			<line class="st7" x1="174.8" y1="180.3" x2="195.9" y2="205.8"/>
			<line class="st7" x1="196.8" y1="180.3" x2="217.9" y2="205.8"/>
			<line class="st7" x1="217.9" y1="180.3" x2="196.8" y2="205.8"/>
			<line class="st7" x1="195.9" y1="180.3" x2="174.8" y2="205.8"/>
		</g>
		<pattern  id="SVGID_2_" xlink:href="#New_Pattern_4" patternTransform="matrix(1 0 0 -1 -2 -16662)">
		</pattern>
		<path class="st18" d="M234.1,407.7h29.5c1.2,0,2.3,0.5,3,1.5l11.5,14.2c0.1,0.2,0.1,0.4-0.1,0.6c-0.1,0.1-0.2,0.1-0.2,0.1h-42.1"
			/>
		<line class="st7" x1="192.4" y1="144.2" x2="199.4" y2="144.2"/>
		<circle class="st19" cx="195.9" cy="134.5" r="4.4"/>
		<path class="st16" d="M1161.1,378h-2.6c0-7.4-6-13.4-13.4-13.3c-5.8,0-10.9,3.8-12.7,9.3c-4.7-1.5-9.7,1.1-11.2,5.8
			c-1.5,4.7,1.1,9.7,5.8,11.2c0.9,0.3,1.8,0.4,2.7,0.4h31.4c3.5,0,6.3-2.8,6.3-6.4v-0.7C1167.5,380.9,1164.7,378,1161.1,378
			C1161.1,378,1161.1,378,1161.1,378z"/>
		<path class="st16" d="M1132.6,364.8h-2.6c0-7.4-6-13.4-13.4-13.3c-5.8,0-10.9,3.8-12.7,9.3c-4.7-1.5-9.7,1.1-11.2,5.8
			c-1.5,4.7,1.1,9.7,5.8,11.2c0.9,0.3,1.8,0.4,2.7,0.4h31.4c3.5,0,6.3-2.8,6.3-6.4v-0.7C1139,367.7,1136.2,364.8,1132.6,364.8
			C1132.6,364.8,1132.6,364.8,1132.6,364.8z"/>
		<path class="st5" d="M43.3,440H30.8c-0.3,0-0.5-0.2-0.5-0.5c0,0,0-0.1,0-0.1l1.3-6.4l3.5-16.5l1.3-6.4c0.1-0.3,0.4-0.5,0.7-0.4
			c0.2,0,0.4,0.2,0.4,0.4l6.4,29.2C43.9,439.7,43.7,439.9,43.3,440C43.4,440,43.4,440,43.3,440z"/>
		<line class="st7" x1="37.1" y1="443.1" x2="37.1" y2="447.8"/>
		<line class="st20" x1="610.2" y1="571.7" x2="606.8" y2="594.5"/>
		<path class="st20" d="M619.2,564.5v-2.2c0-0.5-0.5-1-1-1h-4.6c-0.5,0-1,0.5-1,1v2.2"/>
		<line class="st20" x1="624.9" y1="594.5" x2="621.6" y2="571.7"/>
		<line class="st20" x1="607.8" y1="587.4" x2="624.4" y2="587.4"/>
		<line class="st20" x1="607.8" y1="587.4" x2="624.9" y2="594.5"/>
		<line class="st20" x1="606.8" y1="594.5" x2="624" y2="587.5"/>
		<path class="st21" d="M607.6,594.8h16.4c1.5,0,2.7,1.2,2.7,2.7v0.7c0,1.5-1.2,2.7-2.7,2.7h-16.4c-1.5,0-2.7-1.2-2.7-2.7v-0.7
			C604.9,596,606.1,594.8,607.6,594.8z"/>
		<path class="st21" d="M611.9,565.5h7.4c1.5,0,2.7,1.2,2.7,2.7v0.7c0,1.5-1.2,2.7-2.7,2.7h-7.4c-1.5,0-2.7-1.2-2.7-2.7v-0.7
			C609.2,566.8,610.4,565.5,611.9,565.5z"/>
		<rect x="1040.8" y="442.5" class="st5" width="5.1" height="32.5"/>
		<path class="st16" d="M573.2,420.9c0,0-12.3-2.8-11.3-17s11.3-16.1,11.3-16.1s12.3-3.8,18,2.8c0,0,8.5-16.1,23.6-3.8
			c0,0,6.6-15.1,23.6-15.1c18,0,23.6,16.1,23.6,16.1s15.1-8.5,19.9,5.7c0,0,11.3-1.9,13.2,5.7c0,0,4.7-8.5,13.2-8.5
			s13.2,5.7,13.2,11.4c0,0,8.5-2.8,12.3-1s5.7,4.7,5.7,8.5s-1.9,10.4-5.7,12.3S573.2,420.9,573.2,420.9z"/>
		<line class="st7" x1="599.7" y1="422.8" x2="604.4" y2="422.8"/>
		<line class="st7" x1="611" y1="422.8" x2="621.4" y2="422.8"/>
		<line class="st7" x1="627.1" y1="422.8" x2="679.1" y2="422.8"/>
		<line class="st7" x1="684.8" y1="422.8" x2="690" y2="422.8"/>
		<path class="st7" d="M668.7,430.4H682"/>
		<path class="st16" d="M812,447.8c0,0-10.4-7.6,0-19.9s24.6-1,24.6-1s2.8-7.6,8.5-8.5s12.3,2.8,12.3,2.8
			c4.1-9.4,13.4-15.3,23.6-15.1c18,0,25.5,13.2,27.4,21.8c0,0,13.2-1,14.2,8.5s-3.8,11.4-3.8,11.4L812,447.8z"/>
		<path class="st4" d="M504.5,475.7h64"/>
		<line class="st4" x1="575.1" y1="475.7" x2="579.8" y2="475.7"/>
		<line class="st4" x1="583.6" y1="475.7" x2="624.3" y2="475.7"/>
		<line class="st4" x1="664" y1="475.7" x2="631.8" y2="475.7"/>
		<line class="st4" x1="671.5" y1="475.7" x2="675.3" y2="475.7"/>
		<line class="st4" x1="680" y1="475.7" x2="705.6" y2="475.7"/>
		<line class="st4" x1="713.2" y1="475.7" x2="730.2" y2="475.7"/>
		<line class="st4" x1="736.8" y1="475.7" x2="742.5" y2="475.7"/>
		<line class="st4" x1="748.1" y1="475.7" x2="751" y2="475.7"/>
		<line class="st4" x1="757.6" y1="475.7" x2="785" y2="475.7"/>
		<line class="st4" x1="789.7" y1="475.7" x2="795.4" y2="475.7"/>
		<line class="st4" x1="800.1" y1="475.7" x2="803" y2="475.7"/>
		<line class="st4" x1="846.5" y1="475.7" x2="810.5" y2="475.7"/>
		<line class="st4" x1="855" y1="475.7" x2="877.7" y2="475.7"/>
		<line class="st4" x1="883.3" y1="475.7" x2="890" y2="475.7"/>
		<line class="st4" x1="894.7" y1="475.7" x2="896.6" y2="475.7"/>
		<line class="st4" x1="903.2" y1="475.7" x2="959" y2="475.7"/>
		<line class="st4" x1="965.6" y1="475.7" x2="981.7" y2="475.7"/>
		<line class="st4" x1="985.9" y1="475.7" x2="1008.6" y2="475.7"/>
		<line class="st4" x1="1014.3" y1="475.7" x2="1020.9" y2="475.7"/>
		<line class="st4" x1="1025.7" y1="475.7" x2="1027.6" y2="475.7"/>
		<line class="st4" x1="1034.2" y1="475.7" x2="1090" y2="475.7"/>
		<line class="st4" x1="1096.6" y1="475.7" x2="1112.7" y2="475.7"/>
		<line class="st4" x1="1118.3" y1="475.7" x2="1174.1" y2="475.7"/>
		<line class="st4" x1="1187.3" y1="475.7" x2="1192.1" y2="475.7"/>
		<line class="st4" x1="1195.9" y1="475.7" x2="1236.5" y2="475.7"/>
		<line class="st4" x1="1263.5" y1="475.7" x2="1269.1" y2="475.7"/>
		<line class="st4" x1="1273.9" y1="475.7" x2="1294.7" y2="475.7"/>
		<line class="st4" x1="680.5" y1="486.6" x2="638" y2="486.6"/>
		<line class="st4" x1="686.2" y1="486.6" x2="690.9" y2="486.6"/>
		<line class="st4" x1="694.7" y1="486.6" x2="725.9" y2="486.6"/>
		<line class="st4" x1="733.5" y1="486.6" x2="744.8" y2="486.6"/>
		<line class="st4" x1="750.5" y1="486.6" x2="756.2" y2="486.6"/>
		<line class="st4" x1="764.7" y1="486.6" x2="777" y2="486.6"/>
		<line class="st4" x1="797.8" y1="486.6" x2="812" y2="486.6"/>
		<line class="st4" x1="821.4" y1="486.6" x2="830.9" y2="486.6"/>
		<line class="st4" x1="665.9" y1="495.6" x2="677.2" y2="495.6"/>
		<line class="st4" x1="685.7" y1="495.6" x2="701.8" y2="495.6"/>
		<line class="st4" x1="712.2" y1="495.6" x2="716" y2="495.6"/>
		<line class="st4" x1="752.9" y1="495.6" x2="760.4" y2="495.6"/>
		<line class="st4" x1="771.8" y1="495.6" x2="838.9" y2="495.6"/>
		<line class="st4" x1="654.5" y1="503.2" x2="664.9" y2="503.2"/>
		<line class="st4" x1="671.5" y1="503.2" x2="677.2" y2="503.2"/>
		<line class="st4" x1="710.3" y1="503.2" x2="722.6" y2="503.2"/>
		<line class="st4" x1="729.2" y1="503.2" x2="732.1" y2="503.2"/>
		<line class="st4" x1="736.8" y1="503.2" x2="739.6" y2="503.2"/>
		<line class="st4" x1="756.6" y1="503.2" x2="779.3" y2="503.2"/>
		<line class="st4" x1="784.1" y1="503.2" x2="786.9" y2="503.2"/>
		<line class="st4" x1="791.6" y1="503.2" x2="810.5" y2="503.2"/>
		<line class="st4" x1="815.3" y1="503.2" x2="818.1" y2="503.2"/>
		<line class="st4" x1="664.9" y1="513.6" x2="671.5" y2="513.6"/>
		<line class="st4" x1="676.3" y1="513.6" x2="681.9" y2="513.6"/>
		<line class="st4" x1="697.1" y1="523" x2="709.4" y2="523"/>
		<line class="st4" x1="713.2" y1="523" x2="717.9" y2="523"/>
		<line class="st4" x1="722.6" y1="523" x2="731.1" y2="523"/>
		<line class="st4" x1="723.5" y1="533.4" x2="728.3" y2="533.4"/>
		<line class="st4" x1="733" y1="533.4" x2="755.7" y2="533.4"/>
		<line class="st4" x1="786.9" y1="513.6" x2="802" y2="513.6"/>
		<line class="st4" x1="797.3" y1="523" x2="801.1" y2="523"/>
		<line class="st4" x1="784.1" y1="523" x2="791.6" y2="523"/>
		<line class="st4" x1="902.3" y1="509.8" x2="912.7" y2="509.8"/>
		<line class="st4" x1="917.4" y1="509.8" x2="920.2" y2="509.8"/>
		<line class="st4" x1="925" y1="509.8" x2="937.2" y2="509.8"/>
		<path class="st7" d="M1150.7,392.1h9.7"/>
		<line class="st7" x1="1098.9" y1="378.9" x2="1106.6" y2="378.9"/>
		<line class="st7" x1="1129.5" y1="392.1" x2="1144.1" y2="392.1"/>
		<path class="st16" d="M131.6,266.6h-4.2c0-12.2-10-22.1-22.2-22.1c-9.6,0-18.1,6.3-21,15.4c-7.8-2.5-16.1,1.8-18.5,9.6
			c-2.5,7.8,1.8,16.1,9.6,18.5c1.4,0.5,3,0.7,4.5,0.7h51.9c5.8,0,10.5-4.7,10.5-10.5v-1.1C142.2,271.4,137.5,266.7,131.6,266.6z"/>
		<path class="st7" d="M114.4,289.9h16.1"/>
		<line class="st7" x1="79.3" y1="289.9" x2="103.5" y2="289.9"/>
		<line class="st7" x1="33.3" y1="425" x2="35.6" y2="425"/>
		<line class="st7" x1="36.6" y1="433" x2="31.6" y2="433"/>
		<rect x="1040.8" y="431.8" class="st5" width="25" height="3.2"/>
		<line class="st5" x1="1053.3" y1="431.8" x2="1053.3" y2="378.2"/>
		<circle class="st22" cx="1053.3" cy="374.5" r="1.2"/>
		<polygon class="st23" points="1036.7,384.3 1050,376.6 1050,392 		"/>
		<line class="st4" x1="1254.4" y1="475.7" x2="1258.7" y2="475.7"/>
		<line class="st4" x1="1246.4" y1="475.7" x2="1251.4" y2="475.7"/>
		<polygon class="st5" points="1117.1,450.5 1117.1,442.5 1112,442.5 1112,450.5 1112,455 1112,475 1117.1,475 1117.1,455 		"/>
		<polygon class="st5" points="1188.2,450.5 1188.2,442.5 1183.2,442.5 1183.2,450.5 1183.2,455 1183.2,475 1188.2,475 1188.2,455 
					"/>
		<polygon class="st5" points="1259.4,450.5 1259.4,442.5 1254.3,442.5 1254.3,450.5 1254.3,455 1254.3,475 1259.4,475 1259.4,455 
					"/>
		<polygon class="st6" points="1093.3,435.9 1034.2,435.9 1034.2,443 1093.3,443 1295.1,443 1295.1,435.9 		"/>
		<polygon class="st6" points="1100.5,448.2 1100.5,450 1086.2,450 1086.2,448.2 1093.3,448.2 		"/>
		<line class="st24" x1="1093.3" y1="443" x2="1093.3" y2="448.2"/>
		<line class="st24" x1="1093.3" y1="417.6" x2="1093.3" y2="435.9"/>
		<circle class="st22" cx="1093.3" cy="415.4" r="0.7"/>
		<polygon class="st23" points="1083.8,421 1091.5,416.6 1091.5,425.5 		"/>
		<polyline class="st9" points="504.4,509.3 513.5,509.3 513.5,532 504.4,532 		"/>
		<rect x="256.6" y="430.5" class="st8" width="8.8" height="16.6"/>
		<circle class="st8" cx="263.1" cy="439.2" r="0.3"/>
		<line class="st4" x1="538.9" y1="559" x2="549.3" y2="559"/>
		<line class="st4" x1="553.1" y1="559" x2="556" y2="559"/>
		<line class="st4" x1="559.7" y1="559" x2="592.3" y2="559"/>
		<line class="st4" x1="525.2" y1="544.4" x2="535.6" y2="544.4"/>
		<line class="st4" x1="539.4" y1="544.4" x2="542.2" y2="544.4"/>
		<line class="st4" x1="545.1" y1="544.4" x2="557.4" y2="544.4"/>
		<line class="st4" x1="84.7" y1="588.2" x2="95.1" y2="588.2"/>
		<line class="st4" x1="98.8" y1="588.2" x2="101.7" y2="588.2"/>
		<line class="st4" x1="106.4" y1="588.2" x2="118.7" y2="588.2"/>
		<line class="st4" x1="100.8" y1="530" x2="111.2" y2="530"/>
		<line class="st4" x1="115.9" y1="530" x2="118.7" y2="530"/>
		<line class="st4" x1="123.4" y1="530" x2="135.7" y2="530"/>
		<line class="st4" x1="208.1" y1="570.7" x2="232.2" y2="570.7"/>
		<line class="st4" x1="238.7" y1="570.7" x2="245.3" y2="570.7"/>
		<line class="st25" x1="251.6" y1="570.7" x2="280.1" y2="570.7"/>
		<line class="st4" x1="929.8" y1="599.8" x2="963.4" y2="599.8"/>
		<line class="st4" x1="972.5" y1="599.8" x2="981.7" y2="599.8"/>
		<line class="st4" x1="987.8" y1="599.8" x2="1027.5" y2="599.8"/>
		<line class="st4" x1="1205.5" y1="556.2" x2="1239.1" y2="556.2"/>
		<line class="st4" x1="1248.2" y1="556.2" x2="1257.4" y2="556.2"/>
		<line class="st4" x1="1263.5" y1="556.2" x2="1294.2" y2="556.2"/>
		<path class="st26" d="M195.9,126c0,0,8.6-1,8.7,8.5"/>
		<line class="st4" x1="360.8" y1="551.3" x2="419.9" y2="551.3"/>
		<line class="st4" x1="436" y1="551.3" x2="452.1" y2="551.3"/>
		<line class="st4" x1="462.8" y1="551.3" x2="532.5" y2="551.3"/>
		<line class="st4" x1="604.9" y1="601.5" x2="609.3" y2="601.5"/>
		<line class="st4" x1="613.2" y1="601.5" x2="632.3" y2="601.5"/>
		<polygon class="st23" points="162,376.7 221.5,300.1 216.8,255.7 168.6,316.2 		"/>
		<polygon class="st23" points="195.1,444.8 231,398.4 226.2,353 156.3,445.7 		"/>
		<pattern  id="SVGID_3_" xlink:href="#New_Pattern_4-3" patternTransform="matrix(1 0 0 -1 1 -16664)">
		</pattern>
		<polygon class="st27" points="154.4,444.8 162.9,444.8 184.6,251.9 176.1,251.9 		"/>
		<pattern  id="SVGID_4_" xlink:href="#New_Pattern_4-3" patternTransform="matrix(1 0 0 -1 1 -16664)">
		</pattern>
		<polygon class="st28" points="162,376.7 172.4,362.5 179,302.9 168.6,316.2 		"/>
		<pattern  id="SVGID_5_" xlink:href="#New_Pattern_4-3" patternTransform="matrix(1 0 0 -1 1 -16664)">
		</pattern>
		<polygon class="st29" points="162.9,445.7 162.9,445.7 164.8,434.4 156.3,445.7 		"/>
		<path class="st30" d="M300.3,477.2H20c-9,0-16.5-3.4-16.5-7.5v-14.4c0-4.1,7.4-7.5,16.5-7.5h276.5c9,0,16.5,3.4,16.5,7.5v3.8
			c0,0.9,2.2,4.8,5.9,4.8l6.8,0.2c7.4,0,10.6,1.9,10.6,5.5l0,0c0,4.1-7.4,7.5-16.5,7.5h-303"/>
		<path class="st8" d="M349.4,289.9c0,0,14.8-1.4,20,5.7c5.3-4.3,12-6.4,18.8-5.8"/>
		<path class="st8" d="M322,300.3c0,0,14.8-1.4,20,5.7c5.3-4.3,12-6.4,18.8-5.8"/>
		<path class="st8" d="M1163.8,332.7c0,0,14.8-1.4,20,5.7c5.3-4.3,12-6.4,18.8-5.8"/>
		<path class="st7" d="M443.7,500.1H499c1.3,0,2.3-1,2.3-2.3c0-0.4-0.1-0.8-0.3-1.1l-11.8-20.5l-4.9-8.5l-45.1-78.2
			c-0.4-0.7-1-1.1-1.8-1.1h-0.1"/>
		<line class="st3" x1="85.6" y1="587.2" x2="96" y2="587.2"/>
		<line class="st3" x1="99.8" y1="587.2" x2="102.6" y2="587.2"/>
		<line class="st3" x1="107.3" y1="587.2" x2="119.6" y2="587.2"/>
		<line class="st3" x1="101.7" y1="529.1" x2="112.1" y2="529.1"/>
		<line class="st3" x1="116.8" y1="529.1" x2="119.7" y2="529.1"/>
		<line class="st3" x1="124.4" y1="529.1" x2="136.7" y2="529.1"/>
		<line class="st3" x1="209" y1="569.8" x2="233.1" y2="569.8"/>
		<line class="st3" x1="239.7" y1="569.8" x2="246.3" y2="569.8"/>
		<line class="st3" x1="252.5" y1="569.8" x2="281" y2="569.8"/>
		<line class="st4" x1="878.6" y1="583.1" x2="902.7" y2="583.1"/>
		<line class="st4" x1="909.3" y1="583.1" x2="915.9" y2="583.1"/>
		<line class="st25" x1="922.2" y1="583.1" x2="950.7" y2="583.1"/>
		<line class="st3" x1="879.6" y1="581.2" x2="903.7" y2="581.2"/>
		<line class="st3" x1="910.2" y1="581.2" x2="916.8" y2="581.2"/>
		<line class="st3" x1="923.1" y1="581.2" x2="951.6" y2="581.2"/>
		<line class="st3" x1="930.7" y1="597.9" x2="964.3" y2="597.9"/>
		<line class="st3" x1="973.5" y1="597.9" x2="982.6" y2="597.9"/>
		<line class="st3" x1="988.7" y1="597.9" x2="1028.4" y2="597.9"/>
		<line class="st4" x1="1127.3" y1="538.2" x2="1151.4" y2="538.2"/>
		<line class="st4" x1="1158" y1="538.2" x2="1164.5" y2="538.2"/>
		<line class="st25" x1="1170.8" y1="538.2" x2="1199.3" y2="538.2"/>
		<line class="st3" x1="1128.2" y1="536.3" x2="1152.3" y2="536.3"/>
		<line class="st3" x1="1158.9" y1="536.3" x2="1165.5" y2="536.3"/>
		<line class="st3" x1="1171.8" y1="536.3" x2="1200.2" y2="536.3"/>
		<line class="st3" x1="903.2" y1="508.8" x2="913.6" y2="508.8"/>
		<line class="st3" x1="918.3" y1="508.8" x2="921.2" y2="508.8"/>
		<line class="st3" x1="925.9" y1="508.8" x2="938.2" y2="508.8"/>
		<line class="st3" x1="1206.4" y1="555.3" x2="1240" y2="555.3"/>
		<line class="st3" x1="1249.2" y1="555.3" x2="1258.3" y2="555.3"/>
		<line class="st3" x1="1264.4" y1="555.3" x2="1295.2" y2="555.3"/>
		<path class="st31" d="M505.6,550.6c5-2.5,8.1-7.7,8-13.2v-3.7c0-0.7-0.6-1.3-1.3-1.3l-160.2-0.5l0,0c1.8,8.1,8.4,16.8,16.4,19.4"
			/>
		<line class="st32" x1="608.9" y1="580.4" x2="622.3" y2="580.4"/>
		<line class="st33" x1="538.1" y1="506.6" x2="536" y2="521.2"/>
		<path class="st33" d="M544,501.9v-1.4c0-0.4-0.3-0.7-0.7-0.7h-2.9c-0.4,0-0.7,0.3-0.7,0.7v1.4"/>
		<line class="st33" x1="547.6" y1="521.2" x2="545.5" y2="506.6"/>
		<line class="st33" x1="536.6" y1="516.7" x2="547.3" y2="516.7"/>
		<line class="st33" x1="536.6" y1="516.7" x2="547.6" y2="521.2"/>
		<line class="st33" x1="536" y1="521.2" x2="547" y2="516.7"/>
		<path class="st34" d="M536.5,521.4h10.6c1,0,1.7,0.8,1.7,1.7v0.5c0,1-0.8,1.7-1.7,1.7h-10.6c-1,0-1.7-0.8-1.7-1.7v-0.5
			C534.8,522.2,535.5,521.4,536.5,521.4z"/>
		<path class="st34" d="M539.3,502.6h4.8c1,0,1.7,0.8,1.7,1.7v0.5c0,1-0.8,1.7-1.7,1.7h-4.8c-1,0-1.7-0.8-1.7-1.7v-0.5
			C537.5,503.4,538.3,502.6,539.3,502.6z"/>
		<line class="st35" x1="537.8" y1="512.2" x2="545.7" y2="512.2"/>
		<line class="st4" x1="532.7" y1="525.6" x2="535.5" y2="525.6"/>
		<line class="st4" x1="539.3" y1="525.6" x2="551.6" y2="525.6"/>
		<line class="st3" x1="543.9" y1="557.5" x2="554.3" y2="557.5"/>
		<line class="st3" x1="558.1" y1="557.5" x2="560.9" y2="557.5"/>
		<line class="st3" x1="564.7" y1="557.5" x2="597.3" y2="557.5"/>
		<line class="st3" x1="530.2" y1="543.3" x2="540.6" y2="543.3"/>
		<line class="st3" x1="544.4" y1="543.3" x2="547.2" y2="543.3"/>
		<line class="st3" x1="550" y1="543.3" x2="562.3" y2="543.3"/>
		
			<linearGradient id="SVGID_6_" gradientUnits="userSpaceOnUse" x1="0" y1="350" x2="26" y2="350" gradientTransform="matrix(1 0 0 -1 0 700)">
			<stop  offset="0.69" style="stop-color:#FFFFFF"/>
			<stop  offset="0.72" style="stop-color:#FFFFFF;stop-opacity:0.98"/>
			<stop  offset="0.76" style="stop-color:#FFFFFF;stop-opacity:0.93"/>
			<stop  offset="0.8" style="stop-color:#FFFFFF;stop-opacity:0.84"/>
			<stop  offset="0.84" style="stop-color:#FFFFFF;stop-opacity:0.71"/>
			<stop  offset="0.89" style="stop-color:#FFFFFF;stop-opacity:0.55"/>
			<stop  offset="0.93" style="stop-color:#FFFFFF;stop-opacity:0.35"/>
			<stop  offset="0.98" style="stop-color:#FFFFFF;stop-opacity:0.12"/>
			<stop  offset="1" style="stop-color:#FFFFFF;stop-opacity:0"/>
		</linearGradient>
		<rect class="st36" width="26" height="700"/>
		
			<linearGradient id="SVGID_7_" gradientUnits="userSpaceOnUse" x1="-406.5" y1="350" x2="-380.5" y2="350" gradientTransform="matrix(-1 0 0 -1 893 700)">
			<stop  offset="0.69" style="stop-color:#FFFFFF"/>
			<stop  offset="0.72" style="stop-color:#FFFFFF;stop-opacity:0.98"/>
			<stop  offset="0.76" style="stop-color:#FFFFFF;stop-opacity:0.93"/>
			<stop  offset="0.8" style="stop-color:#FFFFFF;stop-opacity:0.84"/>
			<stop  offset="0.84" style="stop-color:#FFFFFF;stop-opacity:0.71"/>
			<stop  offset="0.89" style="stop-color:#FFFFFF;stop-opacity:0.55"/>
			<stop  offset="0.93" style="stop-color:#FFFFFF;stop-opacity:0.35"/>
			<stop  offset="0.98" style="stop-color:#FFFFFF;stop-opacity:0.12"/>
			<stop  offset="1" style="stop-color:#FFFFFF;stop-opacity:0"/>
		</linearGradient>
		<rect x="1273.5" class="st37" width="26" height="700"/>
	</g>
</g>
</svg>
