<svg xmlns="http://www.w3.org/2000/svg" viewBox="0 0 100.5 109.96"><defs><style>.cls-1,.cls-4,.cls-5{fill:#fff;}.cls-11,.cls-2,.cls-3,.cls-7,.cls-8{fill:none;}.cls-3,.cls-4,.cls-5,.cls-6,.cls-8{stroke:#333;}.cls-3,.cls-4,.cls-5,.cls-6,.cls-7,.cls-8{stroke-linejoin:round;}.cls-11,.cls-4,.cls-5,.cls-6,.cls-7,.cls-8{stroke-linecap:round;}.cls-4,.cls-7{stroke-width:2px;}.cls-6{fill:#cee4f5;}.cls-7{stroke:#414042;}.cls-9{fill:#fcc062;}.cls-10{fill:#712d37;}.cls-11{stroke:#3b312f;}</style></defs><title>Our Story 5_1</title><g id="Layer_2" data-name="Layer 2"><g id="Trail_Elements" data-name="Trail Elements"><circle class="cls-1" cx="50.5" cy="59.46" r="50"/><rect class="cls-2" x="0.5" y="4.46" width="100" height="100"/><path class="cls-3" d="M33.49,107.39"/><line class="cls-4" x1="68.46" y1="11.64" x2="30.74" y2="11.64"/><line class="cls-5" x1="49.16" y1="11.98" x2="49.16" y2="25.18"/><line class="cls-4" x1="49.16" y1="1" x2="49.16" y2="11.98"/><line class="cls-4" x1="62.32" y1="25.18" x2="36.88" y2="25.18"/><line class="cls-5" x1="63.05" y1="11.66" x2="59.83" y2="25.16"/><line class="cls-5" x1="36.01" y1="11.64" x2="39.08" y2="25.18"/><line class="cls-4" x1="56.83" y1="28.93" x2="63.65" y2="92.03"/><line class="cls-4" x1="41.41" y1="28.93" x2="34.59" y2="92.03"/><line class="cls-4" x1="69.43" y1="94.81" x2="27.84" y2="94.81"/><polyline class="cls-6" points="20.11 104.48 32.68 94.81 64.59 95.06 76.2 104.48"/><line class="cls-7" x1="76.2" y1="14.06" x2="88.82" y2="9.14"/><line class="cls-7" x1="76.2" y1="18.36" x2="93.76" y2="18.36"/><line class="cls-7" x1="76.2" y1="23.9" x2="88.82" y2="28.82"/><line class="cls-8" x1="41.38" y1="39.69" x2="57.82" y2="46.46"/><line class="cls-8" x1="38.48" y1="58.06" x2="60.72" y2="66.76"/><line class="cls-8" x1="37.51" y1="77.4" x2="61.69" y2="87.07"/><polygon class="cls-9" points="50.7 13.42 61.47 13.42 58.98 24.18 50.7 24.18 50.7 13.42"/><polygon class="cls-10" points="42.43 29.15 55.67 32.46 57.33 44.88 41.6 38.14 42.43 29.15"/><polygon class="cls-10" points="39.12 60.61 59.81 68.89 61.47 85.44 37.46 76.34 39.12 60.61"/><path class="cls-11" d="M18.77,98.28a49.68,49.68,0,0,1,9.57-83.11"/><path class="cls-11" d="M67.24,106.44a49.9,49.9,0,0,1-33.08.38"/><path class="cls-11" d="M91.29,31.94A49.68,49.68,0,0,1,80.17,99.37"/></g></g></svg>