<svg xmlns="http://www.w3.org/2000/svg" viewBox="0 0 114.53 101"><defs><style>.cls-1{fill:#fbb03b;}.cls-2{fill:#fff;}.cls-3{fill:none;stroke:#3b312f;stroke-linecap:round;}.cls-4{fill:#722c36;stroke:#333;stroke-miterlimit:10;}.cls-5{fill:#fcc062;}.cls-6{fill:#3b312f;}.cls-7{fill:#0a2a46;}</style></defs><title>Our Story 4</title><g id="Layer_2" data-name="Layer 2"><g id="Services_Icon" data-name="Services Icon"><path class="cls-1" d="M.05,19"/><circle class="cls-2" cx="58.05" cy="50" r="50"/><path class="cls-3" d="M108,53.74C106.5,81.55,84.77,100.5,58.2,100.5a49.93,49.93,0,0,1-49.45-43"/><path class="cls-3" d="M13.26,28.8a49.94,49.94,0,0,1,88.06-3.39"/><path class="cls-4" d="M33.19,30.13c-2.26.45-4.53,1-6.73,1.52-2.89.69-5.88,1.41-8.87,1.92A68.93,68.93,0,0,1,6,34.46c-1.61,0-3.3,0-5.08-.12L7,44.41l-6,9.78q2.59.12,4.94.12a68.79,68.79,0,0,0,11.59-.89c3-.51,6-1.23,8.87-1.92,2.2-.53,4.47-1.07,6.73-1.52l1.88-.39a53.85,53.85,0,0,1,6.84-1.14l.46,0,1.32-.06h.09l1.36,0,1.09,0"/><path class="cls-5" d="M52.19,76.4,60,65.3,57.4,61.65h0l0,0-.71-1a6.42,6.42,0,0,1-7.82.55,9.64,9.64,0,0,0-7.56-1.21A10.86,10.86,0,0,0,34.47,65,10.54,10.54,0,0,0,52.19,76.4ZM43.51,79a8.56,8.56,0,1,1,7.42-4.28A8.56,8.56,0,0,1,43.51,79Z"/><path class="cls-5" d="M81.05,59.92a9.64,9.64,0,0,0-7.56,1.21,6.36,6.36,0,0,1-8.69-1.55l-1.48-2.11a2.63,2.63,0,0,0-4.33,3L70.14,76.4A10.54,10.54,0,0,0,87.86,65,10.86,10.86,0,0,0,81.05,59.92Zm-19.19-.24-.13.11a1,1,0,1,1,.13-.11ZM87.08,72.62A8.57,8.57,0,0,1,78.82,79a8.59,8.59,0,0,1-7.42-4.28A8.56,8.56,0,0,1,78.8,61.85a8.59,8.59,0,0,1,7.42,4.28A8.51,8.51,0,0,1,87.08,72.62Z"/><path class="cls-2" d="M62.37,52.67l2.57,3.67.65.92,18-25.74a6.26,6.26,0,0,0-.77-8.09Z"/><path class="cls-2" d="M44.22,30.2l-4.74-6.76a6.26,6.26,0,0,0-.77,8.09L56.84,57.4a4.6,4.6,0,0,1,4.32-3L46.49,33.44a1,1,0,0,1,.24-1.38L45.6,30.44A1,1,0,0,1,44.22,30.2Z"/><path class="cls-6" d="M51.79,68.19a8.57,8.57,0,0,0-8.26-6.35,8.59,8.59,0,0,0-7.42,4.28A8.56,8.56,0,0,0,43.51,79a8.59,8.59,0,0,0,7.42-4.28A8.51,8.51,0,0,0,51.79,68.19ZM40.22,76.11a6.59,6.59,0,0,1-2.41-9,6.58,6.58,0,0,1,9-2.41,6.59,6.59,0,0,1,2.41,9,6.58,6.58,0,0,1-9,2.41Z"/><path class="cls-6" d="M78.8,61.84a8.56,8.56,0,1,0,7.42,4.28A8.56,8.56,0,0,0,78.8,61.84Zm6.37,10.27A6.59,6.59,0,0,1,78.82,77a6.61,6.61,0,0,1-5.71-3.29,6.59,6.59,0,0,1,5.7-9.88,6.61,6.61,0,0,1,5.71,3.29A6.54,6.54,0,0,1,85.17,72.11Z"/><path class="cls-6" d="M89.57,64a12.84,12.84,0,0,0-8.05-6,11.6,11.6,0,0,0-9.09,1.47,4.44,4.44,0,0,1-5.6-.52L85.23,32.66a8.23,8.23,0,0,0-2-11.47,1,1,0,0,0-1.38.24L61.16,51,48.11,32.31a1,1,0,0,0-1.62,1.13L61.15,54.38a4.6,4.6,0,0,0-4.32,3L38.71,31.52a6.26,6.26,0,0,1,.77-8.09l4.74,6.76a1,1,0,0,0,1.62-1.13l-5.35-7.64a1,1,0,0,0-1.38-.24,8.23,8.23,0,0,0-2,11.47L55.51,58.95a4.44,4.44,0,0,1-5.6.52A11.6,11.6,0,0,0,40.81,58a12.84,12.84,0,0,0-8.05,6,12.51,12.51,0,0,0,21,13.49L61.16,67l7.36,10.51a12.51,12.51,0,0,0,21-13.5Zm-.66,9A10.54,10.54,0,0,1,70.14,76.4L59,60.48a2.63,2.63,0,0,1,4.33-3l1.48,2.11a6.36,6.36,0,0,0,8.69,1.55,9.64,9.64,0,0,1,7.56-1.21A10.86,10.86,0,0,1,87.86,65,10.47,10.47,0,0,1,88.91,73Zm-50.58,6.4A10.54,10.54,0,0,1,34.47,65a10.86,10.86,0,0,1,6.81-5.1,9.64,9.64,0,0,1,7.56,1.21,6.42,6.42,0,0,0,7.82-.55l.71,1,0,0h0L60,65.3,52.19,76.4A10.48,10.48,0,0,1,38.33,79.42Zm45.29-47.9-18,25.74-.64-.92-2.57-3.67L82.84,23.44a6.26,6.26,0,0,1,.77,8.09Z"/><path class="cls-7" d="M61.49,58.06a1,1,0,1,0,.24,1.74l.13-.11a1,1,0,0,0-.38-1.63Z"/><path class="cls-4" d="M62.29,49.9c.36,0,3.52,2.7,6,3.71,2.9,1.18,9.33,1.55,11.62.88,3.73-1.08,14.69-3.29,17.58-3.79a65.17,65.17,0,0,1,11.19-.88c1.56,0,3.19,0,4.9.12l-5.81-8.88,5.67-10.71c-1.67-.08-3.25-.12-4.77-.12a65,65,0,0,0-11.19.88c-2.89.5-5.78,1.21-8.57,1.89-2.12.52-4.32,1.06-6.5,1.5l-1.82.39c-2.18.47-6.9,1.15-7,1.16l-1.28.06h-.09a49.4,49.4,0,0,1-5.84-.29c-2.77-.39-6.88-4.64-10.72-6.28-2.42-1-7.92-1-7.92-1"/></g></g></svg>