<svg xmlns="http://www.w3.org/2000/svg" viewBox="0 0 102.45 110.38"><defs><style>.cls-1{fill:#fff;}.cls-2,.cls-4{fill:#fcc062;}.cls-2,.cls-3,.cls-4,.cls-7{stroke:#3b312f;}.cls-2,.cls-3,.cls-7,.cls-8,.cls-9{stroke-linecap:round;}.cls-2,.cls-3,.cls-4,.cls-8,.cls-9{stroke-linejoin:round;}.cls-3,.cls-6,.cls-7,.cls-8,.cls-9{fill:none;}.cls-3,.cls-9{stroke-width:2px;}.cls-5{fill:#cee4f5;}.cls-6{stroke:#414042;}.cls-6,.cls-7{stroke-miterlimit:10;}.cls-8,.cls-9{stroke:#404041;}</style></defs><title>Our Story 1</title><g id="Layer_2" data-name="Layer 2"><g id="Services_Icon" data-name="Services Icon"><circle class="cls-1" cx="51" cy="59.38" r="50"/><path class="cls-2" d="M12.55,28.86s13.77,7,23.11,6.27,16.81-4,14.8-12.43a46.13,46.13,0,0,0-3-9.31S47,11.72,42.16,4.56,29.82.66,23,7.07,12,28.33,12,28.33Z"/><path class="cls-3" d="M35,18.19c14.44-12.38,43.43-2.3,18.56,47.44-3.83,7.66-6.08,12.95-6.75,21.25"/><path class="cls-4" d="M101.83,49.06s-5.54-10.47-11.7-14.17S77.82,30,75.35,36.13a35.4,35.4,0,0,0-2.26,7.15s-.43,1.26-.58,7.89,6,7.91,13.12,6.92,16.31-8.46,16.31-8.46Z"/><path class="cls-2" d="M33.92,48.11s7.9-1.35,12.43.42S54.08,53.1,51.8,57a24,24,0,0,1-2.9,4.17s-.5.75-4,3.57-6.72,0-9.13-4.18-2.2-12.24-2.2-12.24Z"/><path class="cls-5" d="M92.8,80.92c-6.72,15.66-23,26.7-41.94,26.7-18.72,0-34.78-10.75-41.66-26.06"/><path class="cls-6" d="M12.08,27.89"/><path class="cls-7" d="M11,29.27"/><path class="cls-7" d="M100.44,57.39q.06,1.24.06,2.49A50,50,0,1,1,8.86,32.19"/><path class="cls-7" d="M94.47,36.05"/><path class="cls-7" d="M52.38,9.92a50,50,0,0,1,39.2,21.45"/><path class="cls-3" d="M49.9,74s2.86-15.71-8.5-18.31"/><path class="cls-3" d="M57.71,57.38S72.15,36.75,86,45.09"/><line class="cls-8" x1="70.22" y1="81.38" x2="32.85" y2="81.38"/><line class="cls-8" x1="25.08" y1="81.38" x2="7.59" y2="81.38"/><line class="cls-8" x1="61.02" y1="88.6" x2="19.06" y2="88.6"/><line class="cls-8" x1="52.38" y1="95.77" x2="81" y2="95.77"/><line class="cls-8" x1="53.82" y1="103.24" x2="30" y2="103.24"/><line class="cls-8" x1="61.42" y1="103.24" x2="70.39" y2="103.24"/><path class="cls-8" d="M99.76,81.38"/><line class="cls-8" x1="75.85" y1="81.38" x2="92.8" y2="81.38"/><line class="cls-8" x1="70.58" y1="88.6" x2="86.52" y2="88.6"/><path class="cls-9" d="M77.78,103.24"/><line class="cls-8" x1="18.16" y1="95.77" x2="44.47" y2="95.77"/><path class="cls-8" d="M5,88.6"/><line class="cls-8" x1="13.98" y1="88.6" x2="12.08" y2="88.6"/></g></g></svg>