<svg xmlns="http://www.w3.org/2000/svg" viewBox="0 0 101.37 112.44"><defs><style>.cls-1,.cls-4,.cls-6{fill:#fff;}.cls-2,.cls-5,.cls-7{fill:none;}.cls-2,.cls-4,.cls-5,.cls-6,.cls-7{stroke:#333;}.cls-2,.cls-4,.cls-5{stroke-linecap:round;}.cls-3{fill:#fcc062;}.cls-4{stroke-linejoin:round;}.cls-5,.cls-6,.cls-7{stroke-miterlimit:10;}</style></defs><title>Our Story 3_1</title><g id="Layer_2" data-name="Layer 2"><g id="Trail_Elements" data-name="Trail Elements"><circle class="cls-1" cx="50.37" cy="56.44" r="50"/></g><g id="Services_Icon" data-name="Services Icon"><path class="cls-2" d="M25.7,99.76a50.2,50.2,0,0,1-3.86-84.61"/><path class="cls-2" d="M78.91,97.72a50,50,0,0,1-28.23,8.69"/><path class="cls-2" d="M59.23,6.76a50.2,50.2,0,0,1,33.2,77.33"/><path class="cls-2" d="M29.77,10.59a49.93,49.93,0,0,1,19-4.52"/><path class="cls-3" d="M80.23,51.38,54.94,62S33.44,49.44,38.19,29.74,68.91,11.8,75.93,26,80.23,51.38,80.23,51.38Z"/><polyline class="cls-4" points="59.23 61.89 73.88 96.24 80.75 93.14 82.18 96.35 93.93 98.52 75.64 54.99"/><line class="cls-5" x1="76.98" y1="85.49" x2="66.04" y2="59.45"/><path class="cls-5" d="M61,59.06l-7.13,3A36.34,36.34,0,0,1,37.7,40.81c-4-14.77,8.21-21.59,12.49-23.39s18-5.06,24.55,6.47,4.79,27.37,4.79,27.37l-5.71,2.4"/><circle class="cls-6" cx="56.49" cy="32.4" r="5.42" transform="translate(-8.14 24.42) rotate(-22.79)"/><path class="cls-3" d="M52.28,63.19H24.85S9.9,43.27,21.91,26.95,57.18,22.3,58.16,38.1,52.28,63.19,52.28,63.19Z"/><polyline class="cls-4" points="28.85 64.73 29.05 102.08 36.59 101.88 36.66 105.4 46.65 111.94 46.65 64.73"/><line class="cls-5" x1="36.07" y1="93.37" x2="36.07" y2="65.12"/><path class="cls-5" d="M31.56,62.8H23.82A36.34,36.34,0,0,1,17.17,37c2-15.18,15.93-16.73,20.58-16.73s18.57,2.32,20.12,15.48S51.68,62.8,51.68,62.8H45.49"/><circle class="cls-6" cx="37.75" cy="36.49" r="5.42"/><path class="cls-7" d="M25.7,23.34A17.8,17.8,0,1,1,60.34,15.4"/><path class="cls-7" d="M33,33.16a17.84,17.84,0,0,1-7.28-9.82"/><path class="cls-7" d="M42.78,36.1A17.72,17.72,0,0,1,33,33.16"/><path class="cls-7" d="M56.49,29.65"/><path class="cls-7" d="M58.26,27.09a17.84,17.84,0,0,1-1.77,2.56"/></g></g></svg>