<svg xmlns="http://www.w3.org/2000/svg" viewBox="0 0 110.78 105"><defs><style>.cls-1,.cls-11,.cls-12,.cls-3{fill:none;}.cls-2,.cls-5{fill:#fff;}.cls-3,.cls-4,.cls-5{stroke:#333;stroke-miterlimit:10;}.cls-4{fill:#fcc062;}.cls-6{fill:#712d37;}.cls-7{font-size:12.73px;letter-spacing:0.05em;}.cls-10,.cls-13,.cls-15,.cls-16,.cls-7,.cls-9{font-family:SanFranciscoDisplay-Semibold, San Francisco Display;font-weight:700;}.cls-8{letter-spacing:0.1em;}.cls-9{font-size:6.55px;letter-spacing:0.1em;}.cls-10{font-size:8.09px;letter-spacing:0.1em;}.cls-11{stroke:#3b312f;stroke-linecap:round;}.cls-12{stroke:#000;stroke-width:2px;}.cls-13{font-size:12.73px;letter-spacing:0.05em;}.cls-14{letter-spacing:0.1em;}.cls-15{font-size:6.55px;letter-spacing:0.1em;}.cls-16{font-size:8.09px;letter-spacing:0.1em;}</style></defs><title>Our Story 2_1</title><g id="Layer_2" data-name="Layer 2"><g id="Trail_Elements" data-name="Trail Elements"><rect class="cls-1" x="2.59" width="105" height="105"/><circle class="cls-2" cx="55.59" cy="52.5" r="50"/></g><g id="Services_Icon" data-name="Services Icon"><path class="cls-3" d="M7.81,22.87"/><path class="cls-3" d="M6.59,29.12"/><path class="cls-3" d="M5.77,33.29"/><path class="cls-3" d="M4.55,39.53"/><path class="cls-3" d="M4.15,41.61"/><path class="cls-4" d="M45.88,68.68.59,59.83l.31-1.57.52.11a2.12,2.12,0,1,0,.81-4.16l-.52-.1L2.11,52l.52.1A2.12,2.12,0,1,0,3.45,48l-.52-.1.41-2.08.52.1a2.12,2.12,0,1,0,.81-4.16l-.52-.1.41-2.08.52.1a2.12,2.12,0,1,0,.81-4.16l-.52-.1.41-2.08.52.1a2.12,2.12,0,0,0,.81-4.16l-.52-.1L7,27l.52.1A2.12,2.12,0,0,0,8.33,23l-.52-.11.3-1.56L53.4,30.16l.52.1,45.29,8.85-.31,1.57-.52-.11a2.12,2.12,0,0,0-.81,4.16l.52.1-.41,2.08-.52-.1A2.12,2.12,0,0,0,96.35,51l.52.1-.41,2.08-.52-.1a2.12,2.12,0,1,0-.81,4.16l.52.1-.41,2.08-.52-.1a2.12,2.12,0,1,0-.81,4.16l.52.1L94,65.66l-.52-.1a2.12,2.12,0,0,0-.81,4.16l.52.1-.41,2.08-.52-.1A2.12,2.12,0,0,0,91.47,76l.52.11-.3,1.56L46.4,68.78Z"/><rect class="cls-5" x="14.1" y="35.1" width="71.07" height="28.64" transform="translate(10.4 -8.6) rotate(11.06)"/><line class="cls-3" x1="32.18" y1="31.42" x2="26.69" y2="59.53"/><line class="cls-3" x1="85.33" y1="52.07" x2="30.15" y2="41.29"/><rect class="cls-6" x="32.74" y="38.81" width="51.47" height="7.35" transform="translate(9.23 -10.43) rotate(11.06)"/><text class="cls-7" transform="translate(41.01 56.64) rotate(11.06)">P<tspan class="cls-8" x="7.99" y="0">AR</tspan></text><text class="cls-9" transform="translate(39.82 40.62) rotate(11.06)">1 AUGUST</text><text class="cls-10" transform="translate(22.74 53.77) rotate(-78.94)">MON</text><path class="cls-11" d="M13.08,78.47A49.73,49.73,0,0,1,7.25,65.15"/><path class="cls-12" d="M13.08,77"/><path class="cls-12" d="M24.18,89.5"/><path class="cls-11" d="M87.82,90.15A50,50,0,0,1,24.18,91"/><path class="cls-11" d="M17.46,19.56a50,50,0,0,1,86.38,19.58"/><path class="cls-3" d="M12.06,15.17"/><path class="cls-3" d="M10.46,21.33"/><path class="cls-3" d="M9.39,25.44"/><path class="cls-3" d="M7.78,31.6"/><path class="cls-3" d="M7.25,33.65"/><path class="cls-3" d="M17.46,46.88"/><path class="cls-3" d="M17.46,53.24"/><path class="cls-3" d="M17.46,57.49"/><path class="cls-3" d="M17.46,63.85"/><path class="cls-3" d="M17.46,66"/><path class="cls-4" d="M63.6,84.54H17.46V82.94H18a2.12,2.12,0,1,0,0-4.24h-.53V76.58H18a2.12,2.12,0,1,0,0-4.24h-.53V70.22H18A2.12,2.12,0,1,0,18,66h-.53V63.85H18a2.12,2.12,0,1,0,0-4.24h-.53V57.49H18a2.12,2.12,0,0,0,0-4.24h-.53V51.12H18a2.12,2.12,0,1,0,0-4.24h-.53V45.29h92.82v1.59h-.53a2.12,2.12,0,1,0,0,4.24h.53v2.12h-.53a2.12,2.12,0,1,0,0,4.24h.53v2.12h-.53a2.12,2.12,0,1,0,0,4.24h.53V66h-.53a2.12,2.12,0,1,0,0,4.24h.53v2.12h-.53a2.12,2.12,0,1,0,0,4.24h.53V78.7h-.53a2.12,2.12,0,1,0,0,4.24h.53v1.59H63.6Z"/><rect class="cls-5" x="28.07" y="50.59" width="71.07" height="28.64"/><line class="cls-3" x1="43.02" y1="50.59" x2="43.02" y2="79.23"/><line class="cls-3" x1="99.14" y1="60.67" x2="42.92" y2="60.67"/><rect class="cls-6" x="45.21" y="52.74" width="51.47" height="7.35"/><text class="cls-13" transform="translate(56.56 73.67)">P<tspan class="cls-14" x="7.99" y="0">AR</tspan></text><text class="cls-15" transform="translate(52.32 58.18)">1 AUGUST</text><text class="cls-16" transform="translate(38.08 74.36) rotate(-90)">MON</text></g></g></svg>