<?xml version="1.0" encoding="utf-8"?>
<!-- Generator: Adobe Illustrator 21.0.2, SVG Export Plug-In . SVG Version: 6.00 Build 0)  -->
<svg version="1.1" id="Layer_1" xmlns="http://www.w3.org/2000/svg" xmlns:xlink="http://www.w3.org/1999/xlink" x="0px" y="0px"
	 viewBox="0 0 27 27" style="enable-background:new 0 0 27 27;" xml:space="preserve">
<style type="text/css">
	.st0{fill:none;enable-background:new    ;}
	.st1{fill:#333333;}
</style>
<path class="st0" d="z"/>
<g>
	<g>
		<path class="st1" d="M19.5,0H7.5C3.3,0,0,3.3,0,7.5v12.1C0,23.7,3.3,27,7.5,27h12.1c4.1,0,7.5-3.3,7.5-7.5V7.5
			C27,3.3,23.7,0,19.5,0z M24.6,19.5c0,2.8-2.3,5.1-5.1,5.1H7.5c-2.8,0-5.1-2.3-5.1-5.1V7.5c0-2.8,2.3-5.1,5.1-5.1h12.1
			c2.8,0,5.1,2.3,5.1,5.1L24.6,19.5L24.6,19.5z"/>
		<path class="st1" d="M13.5,6.5c-3.8,0-7,3.1-7,7c0,3.8,3.1,7,7,7s7-3.1,7-7C20.5,9.7,17.3,6.5,13.5,6.5z M13.5,18.1
			c-2.5,0-4.6-2-4.6-4.6c0-2.5,2-4.6,4.6-4.6s4.6,2,4.6,4.6C18.1,16,16,18.1,13.5,18.1z"/>
		<path class="st1" d="M20.7,4.5c-0.5,0-0.9,0.2-1.2,0.5C19.2,5.4,19,5.8,19,6.3c0,0.5,0.2,0.9,0.5,1.2C19.8,7.8,20.3,8,20.7,8
			c0.5,0,0.9-0.2,1.2-0.5c0.3-0.3,0.5-0.8,0.5-1.2c0-0.5-0.2-0.9-0.5-1.2C21.7,4.7,21.2,4.5,20.7,4.5z"/>
	</g>
	<g>
	</g>
	<g>
	</g>
	<g>
	</g>
	<g>
	</g>
	<g>
	</g>
	<g>
	</g>
	<g>
	</g>
	<g>
	</g>
	<g>
	</g>
	<g>
	</g>
	<g>
	</g>
	<g>
	</g>
	<g>
	</g>
	<g>
	</g>
	<g>
	</g>
</g>
</svg>
