<svg xmlns="http://www.w3.org/2000/svg" viewBox="0 0 256.94 215.84"><defs><style>.cls-1{fill:#b9d1ef;}.cls-10,.cls-11,.cls-14,.cls-18,.cls-2,.cls-22,.cls-25,.cls-27,.cls-30,.cls-31,.cls-32,.cls-33,.cls-35,.cls-39,.cls-40,.cls-41,.cls-43,.cls-6,.cls-7,.cls-8,.cls-9{fill:none;}.cls-2,.cls-38{stroke:#333;}.cls-10,.cls-11,.cls-12,.cls-14,.cls-18,.cls-2,.cls-22,.cls-23,.cls-25,.cls-27,.cls-29,.cls-3,.cls-30,.cls-31,.cls-32,.cls-33,.cls-36,.cls-39,.cls-40,.cls-6,.cls-7,.cls-8,.cls-9{stroke-linecap:round;}.cls-10,.cls-11,.cls-2,.cls-22,.cls-23,.cls-25,.cls-27,.cls-3,.cls-30,.cls-31,.cls-33,.cls-36,.cls-39,.cls-42,.cls-6,.cls-7,.cls-8,.cls-9{stroke-linejoin:round;}.cls-2{stroke-width:1.4px;}.cls-3{fill:#fbfcfb;}.cls-3,.cls-35{stroke:#424143;}.cls-4{fill:#006937;}.cls-29,.cls-5{fill:#722c35;}.cls-10,.cls-11,.cls-12,.cls-14,.cls-22,.cls-23,.cls-27,.cls-34,.cls-39,.cls-40,.cls-41,.cls-42,.cls-43,.cls-6,.cls-7,.cls-8,.cls-9{stroke:#414042;}.cls-12,.cls-14,.cls-23,.cls-31,.cls-6{stroke-width:2px;}.cls-7{stroke-width:2.5px;}.cls-8{stroke-width:2.08px;}.cls-9{stroke-width:1.76px;}.cls-10{stroke-width:1.93px;}.cls-11{stroke-width:2.2px;}.cls-12,.cls-13{fill:#e89b34;}.cls-12,.cls-14,.cls-17,.cls-18,.cls-28,.cls-29,.cls-32,.cls-34,.cls-35,.cls-37,.cls-38,.cls-40,.cls-41,.cls-43{stroke-miterlimit:10;}.cls-15{fill:#414042;}.cls-16{fill:#e6e6e6;}.cls-17{fill:#a0acb5;stroke:#a0acb5;}.cls-18,.cls-32{stroke:#414141;}.cls-18{stroke-width:1.97px;}.cls-19{fill:#414141;}.cls-20,.cls-21{font-size:11.21px;font-family:MyriadPro-Regular, Myriad Pro;}.cls-20{fill:#231f20;}.cls-21{opacity:0.75;fill:#bad9da;}.cls-22{stroke-width:3.78px;}.cls-23,.cls-42{fill:#fff;}.cls-24{fill:#cee4f5;}.cls-25,.cls-36{stroke:#4d4e4e;}.cls-25{stroke-width:0.74px;}.cls-26{fill:#b2cce0;opacity:0.39;}.cls-27{stroke-width:3.14px;}.cls-28,.cls-37{fill:#f8faf7;}.cls-28,.cls-29,.cls-33,.cls-37{stroke:#3b312f;}.cls-28{stroke-width:1.11px;}.cls-29{stroke-width:0.15px;}.cls-30,.cls-31{stroke:#4d4d4d;}.cls-30{stroke-width:2.3px;}.cls-32{stroke-width:1.08px;}.cls-33,.cls-34{stroke-width:1.3px;}.cls-34{fill:#3b312f;}.cls-35,.cls-36{stroke-width:0.69px;}.cls-36{fill:#e5e6e7;}.cls-37{stroke-width:0.52px;}.cls-38{fill:#b9d0ed;}.cls-42,.cls-43{stroke-width:1.2px;}</style></defs><title>cottagewatch</title><g id="Layer_2" data-name="Layer 2"><g id="Home_Page" data-name="Home Page"><rect class="cls-1" x="126.33" y="110.94" width="26.2" height="18.58"/><rect class="cls-2" x="126.97" y="110.07" width="27.95" height="22"/><line class="cls-2" x1="135.45" y1="132.07" x2="135.45" y2="110.07"/><line class="cls-2" x1="146.54" y1="132.06" x2="146.54" y2="110.07"/><line class="cls-2" x1="126.71" y1="117.46" x2="135.21" y2="117.46"/><line class="cls-2" x1="146.24" y1="117.68" x2="154.92" y2="117.68"/><line class="cls-2" x1="149.23" y1="110.07" x2="149.23" y2="117.46"/><line class="cls-2" x1="152.33" y1="110.07" x2="152.33" y2="117.46"/><line class="cls-2" x1="129.81" y1="110.07" x2="129.81" y2="117.46"/><line class="cls-2" x1="132.91" y1="110.07" x2="132.91" y2="117.46"/><line class="cls-2" x1="126.71" y1="113.97" x2="135.21" y2="113.97"/><line class="cls-2" x1="146.24" y1="114.18" x2="154.92" y2="114.18"/><path class="cls-3" d="M101.82,85.07S56.93,94.6,70.16,105.31c0,0,16.52-13,20.51-11.91,0,0-11.65,9.44-8.47,17.15C82.2,110.55,105.52,108.76,101.82,85.07Z"/><polygon class="cls-4" points="46.82 141.56 36.56 129.76 87.74 95.4 81.51 104.87 46.82 141.56"/><polygon class="cls-4" points="46.37 164.99 28.97 162.26 35.27 141.56 48.37 143.63 46.37 164.99"/></g><g id="Trail_Elements" data-name="Trail Elements"><polyline class="cls-5" points="190.72 173.38 192.63 184.79 243.42 184.8 246.48 173.31"/><line class="cls-6" x1="253.57" y1="141.07" x2="240.55" y2="141.07"/><line class="cls-6" x1="222.39" y1="141.07" x2="243.22" y2="141.07"/><line class="cls-6" x1="217.49" y1="141.07" x2="215.04" y2="141.07"/><line class="cls-6" x1="211.97" y1="141.07" x2="195.43" y2="141.07"/><line class="cls-6" x1="192.67" y1="141.07" x2="181.64" y2="141.07"/><line class="cls-6" x1="180.31" y1="129.06" x2="176.63" y2="129.06"/><line class="cls-6" x1="64.64" y1="141.07" x2="50.25" y2="141.07"/><line class="cls-6" x1="26.95" y1="141.07" x2="16.53" y2="141.07"/><line class="cls-6" x1="211.67" y1="146.42" x2="239.24" y2="146.42"/><line class="cls-6" x1="207.99" y1="146.42" x2="204.93" y2="146.42"/><line class="cls-6" x1="202.48" y1="146.42" x2="182.26" y2="146.42"/><line class="cls-6" x1="179.85" y1="125.5" x2="175.54" y2="125.5"/><line class="cls-6" x1="192.37" y1="154.56" x2="184.4" y2="154.56"/><line class="cls-6" x1="179.69" y1="119.12" x2="177.85" y2="119.12"/><line class="cls-6" x1="180.09" y1="122.27" x2="178.25" y2="122.27"/><line class="cls-6" x1="64.85" y1="159.73" x2="58.11" y2="159.73"/><line class="cls-6" x1="54.35" y1="159.73" x2="52.51" y2="159.73"/><line class="cls-6" x1="69.29" y1="125.21" x2="58.33" y2="128.45"/><path class="cls-6" d="M67.06,125.84"/><polyline class="cls-6" points="130.14 128.83 94.05 109.14 59.47 128.83"/><path class="cls-7" d="M54.67,128.83"/><line class="cls-8" x1="123.57" y1="125.75" x2="123.57" y2="168.21"/><line class="cls-6" x1="64.51" y1="128.57" x2="64.51" y2="172.57"/><path class="cls-6" d="M64.51,137.89"/><path class="cls-6" d="M64.64,135.65"/><path class="cls-6" d="M67.4,128.73"/><line class="cls-6" x1="180.8" y1="114.43" x2="180.8" y2="174.57"/><line class="cls-6" x1="165.35" y1="91.34" x2="165.35" y2="101.76"/><path class="cls-6" d="M165.35,91.34"/><path class="cls-6" d="M157.71,91.34"/><line class="cls-6" x1="156.62" y1="96.95" x2="156.62" y2="91.34"/><line class="cls-6" x1="164.7" y1="85.07" x2="157.27" y2="85.07"/><polyline class="cls-9" points="145.55 171.11 145.55 143.07 130.68 143.07 130.68 171.11"/><line class="cls-10" x1="145.55" y1="154.52" x2="131.27" y2="154.52"/><line class="cls-6" x1="157.12" y1="163.64" x2="183.37" y2="163.64"/><line class="cls-6" x1="136.7" y1="102.57" x2="117.02" y2="102.57"/><line class="cls-6" x1="77.64" y1="165.64" x2="64.52" y2="165.64"/><path class="cls-11" d="M181.4,176.15c-56.95-11.49-121.78-3.57-169,8.87"/><path class="cls-6" d="M113.74,95.06"/><path class="cls-6" d="M121.55,89.15"/><path class="cls-6" d="M152.1,89.44"/><path class="cls-6" d="M165.14,98.06"/><line class="cls-6" x1="71.44" y1="162.37" x2="64.52" y2="162.37"/><line class="cls-6" x1="166.45" y1="90.53" x2="155.53" y2="90.53"/><path class="cls-6" d="M79.08,114.53"/><line class="cls-6" x1="80.73" y1="113.03" x2="77.99" y2="114.53"/><path class="cls-6" d="M86.37,110.55"/><line class="cls-6" x1="91.87" y1="106.96" x2="85.28" y2="110.55"/><polyline class="cls-6" points="184.9 116.11 138.47 90.79 98.74 112.45"/><line class="cls-6" x1="114.69" y1="99.39" x2="98.74" y2="108.08"/><path class="cls-6" d="M114.69,99.39"/><path class="cls-6" d="M119.15,97"/><line class="cls-6" x1="122.62" y1="95.06" x2="119.15" y2="96.95"/><path class="cls-6" d="M122.62,95.06"/><path class="cls-6" d="M129.45,91.34"/><polyline class="cls-6" points="147.49 91.34 138.47 86.42 129.45 91.34"/><path class="cls-6" d="M147.49,91.34"/><path class="cls-6" d="M155.53,95.72"/><line class="cls-6" x1="178.18" y1="108.08" x2="155.53" y2="95.72"/><line class="cls-6" x1="62.68" y1="147.55" x2="60.85" y2="147.55"/><line class="cls-6" x1="59.62" y1="147.55" x2="51.66" y2="147.55"/><line class="cls-12" x1="181.44" y1="77.41" x2="181.44" y2="71.85"/><line class="cls-12" x1="205.67" y1="61.69" x2="207.04" y2="61.69"/><path class="cls-13" d="M171.25,51.27a12.45,12.45,0,0,0-2.54,7.56,12.33,12.33,0,0,0,.33,2.85,12.54,12.54,0,0,0,24.43,0,12.47,12.47,0,0,0-2.26-10.47,12.48,12.48,0,0,0-9.78-4.92h-.17A12.52,12.52,0,0,0,171.25,51.27Z"/><line class="cls-14" x1="158.41" y1="61.69" x2="157.25" y2="61.69"/><line class="cls-14" x1="159.38" y1="61.69" x2="158.41" y2="61.69"/><line class="cls-14" x1="163" y1="61.69" x2="161.94" y2="61.69"/><line class="cls-14" x1="169.05" y1="61.69" x2="163" y2="61.69"/><line class="cls-14" x1="165.89" y1="76.55" x2="164.07" y2="78.36"/><line class="cls-14" x1="167.57" y1="47.59" x2="164.09" y2="44.12"/><line class="cls-14" x1="168.33" y1="74.1" x2="165.89" y2="76.55"/><line class="cls-14" x1="170.82" y1="61.69" x2="169.05" y2="61.69"/><line class="cls-14" x1="171.25" y1="51.27" x2="170.23" y2="50.25"/><line class="cls-14" x1="173.63" y1="68.8" x2="170.41" y2="72.03"/><line class="cls-14" x1="173.86" y1="68.58" x2="173.63" y2="68.8"/><line class="cls-14" x1="181.44" y1="82.52" x2="181.44" y2="85.4"/><line class="cls-14" x1="181.44" y1="80.24" x2="181.44" y2="82.52"/><line class="cls-14" x1="181.44" y1="37.39" x2="181.44" y2="46.3"/><line class="cls-14" x1="188.82" y1="68.85" x2="188.55" y2="68.58"/><line class="cls-14" x1="193.31" y1="73.33" x2="188.82" y2="68.85"/><line class="cls-14" x1="194.84" y1="47.59" x2="191.22" y2="51.22"/><line class="cls-14" x1="193.48" y1="61.69" x2="191.59" y2="61.69"/><line class="cls-14" x1="202.59" y1="61.69" x2="193.48" y2="61.69"/><line class="cls-14" x1="196.7" y1="76.7" x2="194.84" y2="74.87"/><line class="cls-14" x1="198.51" y1="43.93" x2="196.39" y2="46.05"/><line class="cls-14" x1="198.38" y1="78.36" x2="196.7" y2="76.7"/><line class="cls-14" x1="198.72" y1="43.72" x2="198.51" y2="43.93"/><line class="cls-6" x1="180.65" y1="171.44" x2="173.35" y2="171.44"/><line class="cls-6" x1="180.65" y1="167.14" x2="175.91" y2="167.14"/><line class="cls-6" x1="180.04" y1="115.48" x2="174.66" y2="115.48"/><line class="cls-6" x1="180.65" y1="159.44" x2="173.35" y2="159.44"/><line class="cls-6" x1="180.65" y1="155.59" x2="175.27" y2="155.59"/><line class="cls-6" x1="180.65" y1="151.88" x2="173.99" y2="151.88"/><line class="cls-6" x1="180.65" y1="147.89" x2="173.35" y2="147.89"/><line class="cls-6" x1="180.65" y1="144.04" x2="175.27" y2="144.04"/><line class="cls-6" x1="180.65" y1="140.2" x2="173.99" y2="140.2"/><line class="cls-6" x1="180.65" y1="136.35" x2="173.35" y2="136.35"/><line class="cls-6" x1="180.65" y1="132.5" x2="175.91" y2="132.5"/><line class="cls-6" x1="123.9" y1="167.06" x2="118.52" y2="167.06"/><line class="cls-6" x1="123.9" y1="163.35" x2="117.24" y2="163.35"/><line class="cls-6" x1="123.9" y1="159.36" x2="116.6" y2="159.36"/><line class="cls-6" x1="122.9" y1="155.35" x2="117.89" y2="155.35"/><line class="cls-6" x1="122.9" y1="151.36" x2="115.6" y2="151.36"/><line class="cls-6" x1="123.9" y1="143.97" x2="119.16" y2="143.97"/><line class="cls-6" x1="123.9" y1="140.12" x2="117.24" y2="140.12"/><line class="cls-6" x1="123.9" y1="136.81" x2="118.52" y2="136.81"/><line class="cls-6" x1="123.9" y1="131.81" x2="116.6" y2="131.81"/><line class="cls-6" x1="123.9" y1="128.57" x2="118.52" y2="128.57"/><line class="cls-6" x1="123.9" y1="124.73" x2="116.6" y2="124.73"/><circle class="cls-15" cx="142.57" cy="159.15" r="1.2"/><rect class="cls-16" x="132.3" y="144.82" width="11.87" height="7.2" transform="translate(276.46 296.84) rotate(-180)"/><path class="cls-17" d="M37.12,31.11s-7.65-1.77-7.06-10.6,7.06-10,7.06-10,7.65-2.35,11.19,1.77c0,0,5.3-10,14.72-2.35C63,9.92,67.13.5,77.74.5c11.19,0,14.72,10,14.72,10s9.42-5.3,12.36,3.53c0,0,7.06-1.18,8.24,3.53,0,0,2.94-5.3,8.24-5.3s8.24,3.53,8.24,7.06c0,0,5.3-1.77,7.65-.59a5.66,5.66,0,0,1,3.53,5.3c0,2.35-1.18,6.48-3.53,7.65S37.12,31.11,37.12,31.11Z"/><path class="cls-18" d="M86.17,26s24.06,7.11,39-9.77"/><path class="cls-18" d="M84.72,37.1s24.06,7.11,39-9.77"/><path class="cls-18" d="M126.15,25.39s7.47-6.48,14.76,0"/><path class="cls-18" d="M143.12,28.28s3.11,10.88-8.83,11.07"/><path class="cls-19" d="M135.52,25.69a3.14,3.14,0,0,1-2,2.4S133.05,25.46,135.52,25.69Z"/><path class="cls-19" d="M134.9,25.69c0-.26,0,0,0,.09a2.31,2.31,0,0,1-.2.51,2.83,2.83,0,0,1-1.44,1.26l.91.37c0-.1,0,0,0,0s0-.17,0-.25a2.15,2.15,0,0,1,0-.65c.16-.65.66-.81,1.34-.76s.79-1.17,0-1.23A2.26,2.26,0,0,0,133,26.53a3.47,3.47,0,0,0-.09,1.72.63.63,0,0,0,.91.37,3.77,3.77,0,0,0,2.28-2.93C136.22,24.9,135,24.91,134.9,25.69Z"/><path class="cls-19" d="M134.4,33.87a3.14,3.14,0,0,1-2.66,1.6S132.16,32.83,134.4,33.87Z"/><path class="cls-19" d="M133.87,33.56a2.58,2.58,0,0,1-2.12,1.3l.6.78c.15-.92.72-1.69,1.75-1.24.72.32,1.35-.75.62-1.07a2.31,2.31,0,0,0-2.84.41,3.28,3.28,0,0,0-.72,1.56.63.63,0,0,0,.6.78,3.82,3.82,0,0,0,3.19-1.91C135.28,33.47,134.22,32.84,133.87,33.56Z"/><path class="cls-19" d="M125.16,33.87a3.14,3.14,0,0,1-2.66,1.6S122.91,32.83,125.16,33.87Z"/><path class="cls-19" d="M124.62,33.56a2.58,2.58,0,0,1-2.12,1.3l.6.78c.15-.92.72-1.69,1.75-1.24.72.32,1.35-.75.62-1.07a2.31,2.31,0,0,0-2.84.41,3.28,3.28,0,0,0-.72,1.56.63.63,0,0,0,.6.78,3.82,3.82,0,0,0,3.19-1.91C126,33.47,125,32.84,124.62,33.56Z"/><text class="cls-20" transform="translate(123.45 71.53) scale(1.07 1)">*</text><text class="cls-21" transform="translate(124.46 72.52) scale(1.07 1)">*</text><text class="cls-20" transform="translate(75.14 62.95) scale(1.07 1)">*</text><text class="cls-21" transform="translate(76.14 63.93) scale(1.07 1)">*</text><text class="cls-20" transform="translate(27.69 58.86) scale(1.07 1)">*</text><text class="cls-21" transform="translate(28.69 59.84) scale(1.07 1)">*</text><text class="cls-20" transform="translate(50.25 76.68) scale(1.07 1)">*</text><text class="cls-21" transform="translate(51.25 77.67) scale(1.07 1)">*</text><text class="cls-20" transform="translate(74.61 96.13) scale(1.07 1)">*</text><text class="cls-21" transform="translate(75.62 97.11) scale(1.07 1)">*</text><text class="cls-20" transform="translate(99.22 80.24) scale(1.07 1)">*</text><text class="cls-21" transform="translate(100.23 81.22) scale(1.07 1)">*</text><path class="cls-18" d="M127.49,14.36s18-9.55,21.41,13"/><line class="cls-7" x1="71.9" y1="32.48" x2="45.11" y2="32.48"/><line class="cls-7" x1="40.62" y1="32.48" x2="38.37" y2="32.48"/><line class="cls-22" x1="246.9" y1="62.54" x2="230.2" y2="62.54"/><line class="cls-22" x1="219.92" y1="62.54" x2="222.86" y2="62.54"/><line class="cls-22" x1="215.23" y1="62.54" x2="174.18" y2="62.54"/><path class="cls-17" d="M240.16,61.66s6.45-4.69,0-12.32-15.25-.59-15.25-.59-1.76-4.69-5.28-5.28S212,45.23,212,45.23a15.6,15.6,0,0,0-14.66-9.38c-11.14,0-15.84,8.21-17,13.49,0,0-8.21-.59-8.8,5.28s2.35,7,2.35,7Z"/><text class="cls-20" transform="translate(250.45 90.53) scale(1.07 1)">*</text><text class="cls-21" transform="translate(251.46 91.52) scale(1.07 1)">*</text><text class="cls-20" transform="translate(202.14 81.95) scale(1.07 1)">*</text><text class="cls-21" transform="translate(203.14 82.93) scale(1.07 1)">*</text><text class="cls-20" transform="translate(154.69 77.86) scale(1.07 1)">*</text><text class="cls-21" transform="translate(155.69 78.84) scale(1.07 1)">*</text><text class="cls-20" transform="translate(177.25 95.68) scale(1.07 1)">*</text><text class="cls-21" transform="translate(178.25 96.67) scale(1.07 1)">*</text><text class="cls-20" transform="translate(201.61 115.13) scale(1.07 1)">*</text><text class="cls-21" transform="translate(202.62 116.11) scale(1.07 1)">*</text><text class="cls-20" transform="translate(226.22 99.24) scale(1.07 1)">*</text><text class="cls-21" transform="translate(227.23 100.22) scale(1.07 1)">*</text><circle class="cls-23" cx="233.09" cy="185.65" r="5.45" transform="matrix(0.04, -1, 1, 0.04, 38.54, 411.37)"/><circle class="cls-6" cx="233.09" cy="185.65" r="1.99" transform="translate(38.54 411.37) rotate(-87.78)"/><circle class="cls-23" cx="203.62" cy="187.01" r="5.45" transform="translate(8.86 383.23) rotate(-87.78)"/><circle class="cls-6" cx="203.62" cy="187.01" r="1.99" transform="translate(8.86 383.23) rotate(-87.78)"/><path class="cls-6" d="M195.54,186.88l-5,0-2.06-13,6.91-17a41,41,0,0,1,14-3.07l24-.12s10.47.68,13,1.94c2,1,3.08,16,3.08,16l-3.92,15-4.58,0"/><line class="cls-6" x1="211.62" y1="186.75" x2="224.13" y2="186.83"/><line class="cls-6" x1="204.48" y1="173.83" x2="208.48" y2="173.81"/><line class="cls-6" x1="190.46" y1="170.9" x2="249.46" y2="170.61"/><line class="cls-6" x1="213.26" y1="154.26" x2="213.46" y2="152.27"/><line class="cls-6" x1="232.17" y1="154.13" x2="232.37" y2="152.14"/><path class="cls-24" d="M193.85,167.86S198,157.53,200,157.52l7.28,0a2,2,0,0,1,2.09,2l0,9.27-15.59.08"/><line class="cls-6" x1="211.48" y1="173.8" x2="211.53" y2="183.8"/><line class="cls-6" x1="211.4" y1="157.8" x2="211.45" y2="167.8"/><polyline class="cls-6" points="188.52 181.91 187.52 181.92 185.48 173.93 188.48 173.91"/><polyline class="cls-25" points="67.06 125.84 67.6 131.7 69.58 124.79 71.04 138.65 72.96 122.27"/><polyline class="cls-26" points="66.14 126.14 66.12 131.43 68.11 124.53 69.56 138.38 71.79 123.05"/><polyline class="cls-26" points="162.37 104.11 162.93 112.05 164.4 105.01 167.9 118.72 168.7 107.18 171.16 116.49 172.77 109.6 174.79 117.06 175.88 111.28"/><polyline class="cls-25" points="176.27 111.41 175.5 122.89 172.77 109.6 171.59 116.31 169.22 107.75 168.37 119.92 165.89 106.22 164.42 113.25 163.86 105.31"/><polyline class="cls-6" points="49.82 143.63 47.12 166.55 27.8 162.51 34.15 141.56"/><path class="cls-27" d="M49.82,143.63"/><line class="cls-7" x1="81.51" y1="105.86" x2="45.3" y2="142.28"/><path class="cls-7" d="M81.51,105.86"/><line class="cls-6" x1="36.37" y1="130.47" x2="89.24" y2="93.4"/><line class="cls-6" x1="41.23" y1="146.46" x2="34.64" y2="178.04"/><line class="cls-6" x1="63.92" y1="116.89" x2="39.1" y2="137.79"/><line class="cls-7" x1="44.71" y1="132.73" x2="49.03" y2="126.74"/><line class="cls-6" x1="39.53" y1="138.3" x2="48.37" y2="135.13"/><line class="cls-6" x1="38.87" y1="156.54" x2="38.29" y2="140.04"/><line class="cls-6" x1="59.57" y1="123.07" x2="66.68" y2="121.07"/><path class="cls-28" d="M99.1,107.16s1.93,16.35,10.25,2.24c0,0,4.5-8.38,7.48-8.75,0,0,18,1.71,17.89-6.75,0,0,8.19-2,3.15-5.73C137.88,88.16,109.17,86.37,99.1,107.16Z"/><path class="cls-29" d="M205.06,215.76s0-.5.28-.5"/><line class="cls-29" x1="215.48" y1="214.74" x2="215.48" y2="215.22"/><line class="cls-30" x1="31.63" y1="192.86" x2="255.79" y2="192.86"/><line class="cls-31" x1="124.43" y1="173.54" x2="102.45" y2="188.43"/><line class="cls-31" x1="144.41" y1="174.54" x2="124.43" y2="189.43"/><path class="cls-32" d="M18.43,101.45s12.73,4.05,20.63-5.57"/><path class="cls-32" d="M34.15,105.86a17.16,17.16,0,0,0,4.14-3.67"/><path class="cls-32" d="M39.58,101.08s4-3.7,7.81,0"/><path class="cls-32" d="M48.56,102.73s1.65,6.2-4.67,6.31"/><path class="cls-19" d="M44.54,101.25a1.79,1.79,0,0,1-1,1.37S43.23,101.12,44.54,101.25Z"/><path class="cls-19" d="M44.2,101.25c0-.06,0,0,0,0a2.09,2.09,0,0,1-.1.3,1.54,1.54,0,0,1-.76.72l.5.2c0,.11,0-.07,0-.12a1.77,1.77,0,0,1,0-.33c.07-.4.32-.52.71-.49s.43-.65,0-.68c-1.07-.07-1.53.84-1.37,1.8a.34.34,0,0,0,.5.2,2.14,2.14,0,0,0,1.21-1.66C44.92,100.82,44.25,100.82,44.2,101.25Z"/><path class="cls-19" d="M43.95,105.92a1.67,1.67,0,0,1-1.41.91S42.76,105.32,43.95,105.92Z"/><path class="cls-19" d="M43.66,105.75a1.35,1.35,0,0,1-1.11.75l.33.43c.08-.5.34-1,.91-.71.39.18.74-.41.34-.59a1.3,1.3,0,0,0-1.9,1.12c0,.19.08.45.33.43a2,2,0,0,0,1.7-1.08C44.42,105.69,43.84,105.35,43.66,105.75Z"/><path class="cls-19" d="M39.06,105.92a1.67,1.67,0,0,1-1.41.91S37.87,105.32,39.06,105.92Z"/><path class="cls-19" d="M38.76,105.75a1.35,1.35,0,0,1-1.11.75l.33.43c.08-.5.34-1,.91-.71.39.18.74-.41.34-.59a1.3,1.3,0,0,0-1.9,1.12c0,.19.08.45.33.43a2,2,0,0,0,1.7-1.08C39.53,105.69,38.95,105.35,38.76,105.75Z"/><path class="cls-32" d="M40.29,94.79s9.5-5.44,11.33,7.39"/><path class="cls-32" d="M1.31,111.74s12.73,4.05,20.63-5.57"/><path class="cls-32" d="M.54,118s12.73,4.05,20.63-5.57"/><path class="cls-32" d="M22.46,111.38s4-3.7,7.81,0"/><path class="cls-32" d="M31.44,113s1.65,6.2-4.67,6.31"/><path class="cls-19" d="M27.41,111.55a1.79,1.79,0,0,1-1,1.37S26.11,111.41,27.41,111.55Z"/><path class="cls-19" d="M27.08,111.55c0-.06,0,0,0,0a2.09,2.09,0,0,1-.1.3,1.54,1.54,0,0,1-.76.72l.5.2c0,.11,0-.07,0-.12a1.77,1.77,0,0,1,0-.33c.07-.4.32-.52.71-.49s.43-.65,0-.68c-1.07-.07-1.53.84-1.37,1.8a.34.34,0,0,0,.5.2,2.14,2.14,0,0,0,1.21-1.66C27.8,111.11,27.12,111.12,27.08,111.55Z"/><path class="cls-19" d="M26.82,116.21a1.67,1.67,0,0,1-1.41.91S25.64,115.61,26.82,116.21Z"/><path class="cls-19" d="M26.53,116a1.35,1.35,0,0,1-1.11.75l.33.43c.08-.5.34-1,.91-.71.39.18.74-.41.34-.59a1.3,1.3,0,0,0-1.9,1.12c0,.19.08.45.33.43a2,2,0,0,0,1.7-1.08C27.3,116,26.71,115.64,26.53,116Z"/><path class="cls-19" d="M21.93,116.21a1.67,1.67,0,0,1-1.41.91S20.75,115.61,21.93,116.21Z"/><path class="cls-19" d="M21.64,116a1.35,1.35,0,0,1-1.11.75l.33.43c.08-.5.34-1,.91-.71.39.18.74-.41.34-.59A1.3,1.3,0,0,0,20.2,117c0,.19.08.45.33.43a2,2,0,0,0,1.7-1.08C22.41,116,21.82,115.64,21.64,116Z"/><path class="cls-32" d="M23.17,105.09s9.5-5.44,11.33,7.39"/><rect class="cls-33" x="86.63" y="151.09" width="11.87" height="19.94"/><circle class="cls-34" cx="95.6" cy="162.5" r="0.66"/><path class="cls-4" d="M155,165.46a5.47,5.47,0,0,0,4.13,6.32,5.08,5.08,0,0,0,5.68-4.62,5.47,5.47,0,0,0-4.13-6.32A5.08,5.08,0,0,0,155,165.46Z"/><path class="cls-4" d="M173.62,170.1a4.31,4.31,0,0,0,3.54,4.79,4,4,0,0,0,4.7-3.37,4.31,4.31,0,0,0-3.54-4.79A4,4,0,0,0,173.62,170.1Z"/><path class="cls-4" d="M156.75,166.13l-.51,3.58A6.83,6.83,0,0,0,160.3,172a6.53,6.53,0,0,0,4.08-.56,6.19,6.19,0,0,1-2.14-5.41l-4.39-.76A1,1,0,0,0,156.75,166.13Z"/><path class="cls-4" d="M156.25,169.71l-.07.48a1.06,1.06,0,0,0,.8,1.21l3.32.57A6.83,6.83,0,0,1,156.25,169.71Z"/><path class="cls-4" d="M168.48,173.39a8.17,8.17,0,0,1-4.1-2,6.53,6.53,0,0,1-4.08.56Z"/><path class="cls-4" d="M167.12,166.85a5.7,5.7,0,0,0-2.82-4.39,5.5,5.5,0,0,0-2.06,3.54Z"/><path class="cls-4" d="M167.12,166.85l-4.88-.85a6.19,6.19,0,0,0,2.14,5.41,4.83,4.83,0,0,0,2.71-3.62A4.48,4.48,0,0,0,167.12,166.85Z"/><path class="cls-4" d="M167.09,167.79a4.83,4.83,0,0,1-2.71,3.62,8.17,8.17,0,0,0,4.1,2,7.7,7.7,0,0,0,4.81-.67,3.83,3.83,0,0,1-.69-2.72,3.52,3.52,0,0,1,1-2l-6.52-1.13A4.48,4.48,0,0,1,167.09,167.79Z"/><path class="cls-4" d="M167.12,166.85l6.52,1.13a4.47,4.47,0,0,1,2.79-1.23,7.8,7.8,0,0,0-12.13-4.28A5.7,5.7,0,0,1,167.12,166.85Z"/><path class="cls-4" d="M176.66,174.81a5.17,5.17,0,0,1-3.37-2.08,7.7,7.7,0,0,1-4.81.67Z"/><path class="cls-4" d="M173.64,168a3.52,3.52,0,0,0-1,2,3.83,3.83,0,0,0,.69,2.72,5.68,5.68,0,0,0,3.18-4.26Z"/><path class="cls-4" d="M176.47,168.47a5.39,5.39,0,0,0,0-1.72,4.47,4.47,0,0,0-2.79,1.23Z"/><path class="cls-4" d="M180.42,174l.52-3.66a1.06,1.06,0,0,0-.8-1.21l-3.67-.64a5.68,5.68,0,0,1-3.18,4.26,5.17,5.17,0,0,0,3.37,2.08A4.86,4.86,0,0,0,180.42,174Z"/><path class="cls-4" d="M180.42,174a4.86,4.86,0,0,1-3.76.83l2.61.45a1,1,0,0,0,1.1-.89Z"/><path class="cls-35" d="M176.66,174.81a4.86,4.86,0,0,0,3.76-.83,3.59,3.59,0,0,0,1.43-2.37c.31-2.21-1.5-4.36-4.06-4.8a5.18,5.18,0,0,0-1.36-.06"/><path class="cls-35" d="M176.43,166.75a7.8,7.8,0,0,0-12.13-4.28"/><path class="cls-35" d="M164.3,162.46a7,7,0,0,0-2.52-1c-3.34-.58-6.38,1.3-6.79,4.19a5.11,5.11,0,0,0,1.25,4A6.83,6.83,0,0,0,160.3,172"/><path class="cls-35" d="M176.66,174.81l2.61.45a1,1,0,0,0,1.1-.89l.06-.4"/><path class="cls-35" d="M156.25,169.71l-.07.48a1.06,1.06,0,0,0,.8,1.21l3.32.57,8.18,1.42"/><line class="cls-36" x1="168.98" y1="168.23" x2="168.29" y2="173.1"/><line class="cls-36" x1="168.5" y1="173.12" x2="170.2" y2="171.37"/><line class="cls-36" x1="175.62" y1="172.45" x2="175.33" y2="174.66"/><path class="cls-36" d="M175.53,174.68"/><line class="cls-36" x1="160.67" y1="169.9" x2="160.83" y2="172.15"/><path class="cls-36" d="M161,172.14"/><path class="cls-37" d="M155.91,159s-6.42,13.2,3.94,7.63c0,0,5.94-3.57,7.55-2.11,0,0,7.94,11.76,11.68,5.44,0,0,4.87,3.27,4.1-2.4C183.19,167.58,170.13,149.53,155.91,159Z"/></g><g id="Our_Story_Illustration" data-name="Our Story Illustration"><path class="cls-38" d="M99.44,129.35s.54-7.24-6.33-7.6H93c-6.71.36-6.33,7.6-6.33,7.6"/><rect class="cls-38" x="86.55" y="129.58" width="12.9" height="14.11"/><path class="cls-39" d="M100.94,129.24s.66-8.94-7.81-9.39h-.19c-8.28.44-8,9.23-8,9.23"/><line class="cls-40" x1="84.97" y1="130.53" x2="84.97" y2="145.84"/><line class="cls-40" x1="88.54" y1="134.57" x2="88.54" y2="144.84"/><line class="cls-40" x1="90.32" y1="134.57" x2="90.32" y2="144.84"/><line class="cls-40" x1="92.11" y1="134.57" x2="92.11" y2="144.84"/><line class="cls-40" x1="93.89" y1="134.57" x2="93.89" y2="144.84"/><line class="cls-40" x1="95.67" y1="134.57" x2="95.67" y2="144.84"/><line class="cls-40" x1="97.46" y1="134.57" x2="97.46" y2="144.84"/><line class="cls-40" x1="101.02" y1="130.58" x2="101.02" y2="145.84"/><line class="cls-41" x1="101.27" y1="134.2" x2="84.97" y2="134.2"/><polyline class="cls-42" points="64.81 140.83 64.63 147.18 123.88 147.18 123.88 140.83 121.56 140.83"/><polyline class="cls-42" points="121.56 140.83 65.55 140.83 65.55 146.46"/><line class="cls-43" x1="67.29" y1="140.83" x2="67.29" y2="147.88"/><line class="cls-43" x1="69.56" y1="140.83" x2="69.56" y2="147.88"/><line class="cls-43" x1="71.82" y1="140.83" x2="71.82" y2="147.88"/><line class="cls-43" x1="74.08" y1="140.83" x2="74.08" y2="147.88"/><line class="cls-43" x1="76.35" y1="140.83" x2="76.35" y2="147.88"/><line class="cls-43" x1="78.61" y1="140.83" x2="78.61" y2="147.88"/><line class="cls-43" x1="80.87" y1="140.83" x2="80.87" y2="147.88"/><line class="cls-43" x1="83.14" y1="140.83" x2="83.14" y2="147.88"/><line class="cls-43" x1="85.4" y1="140.83" x2="85.4" y2="147.88"/><line class="cls-43" x1="87.66" y1="140.83" x2="87.66" y2="147.88"/><line class="cls-43" x1="89.93" y1="140.83" x2="89.93" y2="147.88"/><line class="cls-43" x1="92.19" y1="140.83" x2="92.19" y2="147.88"/><line class="cls-43" x1="94.46" y1="140.83" x2="94.46" y2="147.88"/><line class="cls-43" x1="96.72" y1="140.83" x2="96.72" y2="147.88"/><line class="cls-43" x1="98.98" y1="140.83" x2="98.98" y2="147.88"/><line class="cls-43" x1="101.25" y1="140.83" x2="101.25" y2="147.88"/><line class="cls-43" x1="103.51" y1="140.83" x2="103.51" y2="147.88"/><line class="cls-43" x1="105.77" y1="140.83" x2="105.77" y2="147.88"/><line class="cls-43" x1="108.04" y1="140.83" x2="108.04" y2="147.88"/><line class="cls-43" x1="110.3" y1="140.83" x2="110.3" y2="147.88"/><line class="cls-43" x1="112.56" y1="140.83" x2="112.56" y2="147.88"/><line class="cls-43" x1="114.83" y1="140.83" x2="114.83" y2="147.88"/><line class="cls-43" x1="117.09" y1="140.83" x2="117.09" y2="147.88"/><line class="cls-43" x1="119.35" y1="140.83" x2="119.35" y2="147.88"/><line class="cls-43" x1="121.62" y1="140.83" x2="121.62" y2="147.88"/></g></g></svg>