<svg xmlns="http://www.w3.org/2000/svg" viewBox="0 0 121.37 121.21"><defs><style>.cls-1{fill:#fff;stroke-miterlimit:10;}.cls-1,.cls-2{stroke:#231f20;stroke-linecap:round;stroke-width:3px;}.cls-2{fill:none;stroke-linejoin:round;}</style></defs><title>house_1</title><g id="Layer_2" data-name="Layer 2"><g id="Layer_2-2" data-name="Layer 2"><line class="cls-1" x1="1.5" y1="110.94" x2="78.6" y2="110.94"/><polygon class="cls-2" points="4.44 48.87 101.14 48.87 85.78 20.45 52.79 1.5 19.79 19.14 4.44 48.87"/><line class="cls-2" x1="9.99" y1="110.94" x2="9.99" y2="48.87"/><line class="cls-2" x1="16.99" y1="118.03" x2="57.69" y2="118.03"/><line class="cls-2" x1="63.45" y1="118.03" x2="68" y2="118.03"/><path class="cls-2" d="M96.11,71.06c-8.51,8.2-20.46,4.55-20.46,4.55s-12.82,31.15,20.46,44.09c0,0,31.46-10,22-43.18,0,0-16.83,1.46-22-5.47V48.87"/><path class="cls-2" d="M83.11,101.49s-5.47-6.56-2.55-18.76c0,0,5.55,2.56,16-2.82a17.77,17.77,0,0,0,15.35,2.82s2.73,11.11-2.55,19.68"/><polyline class="cls-2" points="90.58 92.92 96.07 100.34 102.97 89.46"/><line class="cls-2" x1="85.66" y1="107.37" x2="87.17" y2="105.85"/><line class="cls-2" x1="91.71" y1="112.27" x2="92.92" y2="110.39"/><line class="cls-2" x1="99.76" y1="112.27" x2="98.97" y2="110.39"/><line class="cls-2" x1="106.24" y1="107.85" x2="104.79" y2="106.21"/><rect class="cls-2" x="25.15" y="63.74" width="20.23" height="20.23" rx="1" ry="1"/><polyline class="cls-2" points="81.26 76.44 81.26 64.28 61.02 64.28 61.02 83.5 72.72 83.5"/><path class="cls-2" d="M41.71,29.11a11.27,11.27,0,0,1-.13-1.75,11.62,11.62,0,0,1,23.24,0,11.27,11.27,0,0,1-.13,1.75"/><line class="cls-2" x1="41.71" y1="29.11" x2="64.69" y2="29.11"/><line class="cls-2" x1="19.36" y1="39.21" x2="19.36" y2="41.29"/><line class="cls-2" x1="51.67" y1="39.21" x2="51.67" y2="41.29"/><line class="cls-2" x1="75.69" y1="39.21" x2="75.69" y2="41.29"/><line class="cls-2" x1="83.89" y1="39.21" x2="83.89" y2="41.29"/><line class="cls-2" x1="67.67" y1="39.21" x2="67.67" y2="41.29"/><line class="cls-2" x1="59.47" y1="39.21" x2="59.47" y2="41.29"/><line class="cls-2" x1="43.69" y1="39.21" x2="43.69" y2="41.29"/><line class="cls-2" x1="35.69" y1="39.21" x2="35.69" y2="41.29"/><line class="cls-2" x1="27.56" y1="39.21" x2="27.56" y2="41.29"/><path class="cls-2" d="M10,96.88c3.16,0,3.16,2,6.32,2s3.16-2,6.32-2,3.16,2,6.32,2,3.16-2,6.32-2,3.16,2,6.32,2,3.16-2,6.32-2,3.16,2,6.32,2,3.16-2,6.32-2,3.16,2,6.33,2,3.16-2,6.33-2"/></g></g></svg>