<svg xmlns="http://www.w3.org/2000/svg" xmlns:xlink="http://www.w3.org/1999/xlink" viewBox="0 0 1300 650"><defs><style>.cls-1,.cls-12,.cls-14,.cls-17,.cls-23,.cls-26,.cls-28,.cls-32,.cls-39,.cls-40,.cls-47,.cls-48,.cls-49,.cls-5,.cls-50,.cls-51,.cls-52,.cls-53,.cls-58,.cls-59,.cls-6,.cls-60,.cls-61,.cls-62,.cls-63,.cls-7,.cls-70,.cls-71,.cls-73,.cls-74,.cls-8,.cls-81,.cls-85,.cls-86{fill:none;}.cls-2{fill:#414042;}.cls-3{fill:#c3dbac;}.cls-16,.cls-4,.cls-41{fill:#b9d1ef;}.cls-5,.cls-8{stroke:#020202;}.cls-12,.cls-14,.cls-15,.cls-16,.cls-22,.cls-23,.cls-26,.cls-28,.cls-29,.cls-30,.cls-31,.cls-32,.cls-33,.cls-35,.cls-39,.cls-48,.cls-49,.cls-5,.cls-50,.cls-51,.cls-53,.cls-55,.cls-56,.cls-57,.cls-6,.cls-60,.cls-61,.cls-62,.cls-65,.cls-67,.cls-68,.cls-71,.cls-73,.cls-74,.cls-78,.cls-79,.cls-82,.cls-83,.cls-86{stroke-linecap:round;}.cls-12,.cls-17,.cls-21,.cls-22,.cls-23,.cls-24,.cls-34,.cls-36,.cls-38,.cls-48,.cls-49,.cls-5,.cls-50,.cls-51,.cls-6,.cls-60,.cls-61,.cls-62,.cls-63,.cls-68,.cls-7,.cls-70,.cls-74,.cls-8,.cls-80,.cls-81,.cls-85,.cls-86{stroke-miterlimit:10;}.cls-23,.cls-24,.cls-26,.cls-31,.cls-32,.cls-33,.cls-35,.cls-38,.cls-40,.cls-41,.cls-48,.cls-49,.cls-5,.cls-55,.cls-57,.cls-6,.cls-60,.cls-7,.cls-8{stroke-width:2px;}.cls-6{stroke:#0c0c0c;}.cls-11,.cls-12,.cls-13,.cls-16,.cls-17,.cls-19,.cls-21,.cls-22,.cls-24,.cls-32,.cls-33,.cls-35,.cls-39,.cls-40,.cls-41,.cls-42,.cls-47,.cls-48,.cls-52,.cls-53,.cls-54,.cls-56,.cls-7{stroke:#414042;}.cls-9{fill:#84c69f;}.cls-10,.cls-80{fill:#c8dfae;}.cls-11,.cls-15,.cls-20,.cls-21,.cls-22,.cls-29,.cls-31,.cls-35,.cls-38,.cls-55,.cls-56,.cls-65,.cls-75,.cls-84{fill:#fff;}.cls-11,.cls-13,.cls-14,.cls-15,.cls-16,.cls-19,.cls-26,.cls-28,.cls-29,.cls-30,.cls-31,.cls-32,.cls-33,.cls-35,.cls-39,.cls-40,.cls-41,.cls-42,.cls-47,.cls-52,.cls-53,.cls-54,.cls-55,.cls-56,.cls-57,.cls-58,.cls-59,.cls-65,.cls-67,.cls-71,.cls-73,.cls-75,.cls-76,.cls-77,.cls-78,.cls-79,.cls-82,.cls-83,.cls-84{stroke-linejoin:round;}.cls-13,.cls-25,.cls-33,.cls-34,.cls-36{fill:url(#New_Pattern_2);}.cls-14,.cls-15,.cls-57,.cls-83,.cls-84,.cls-85{stroke:#4d4d4d;}.cls-18,.cls-54,.cls-68{fill:#fcc062;}.cls-19,.cls-24,.cls-42,.cls-43{fill:#722c36;}.cls-19,.cls-52,.cls-53,.cls-54,.cls-58{stroke-width:1.4px;}.cls-23,.cls-50,.cls-51{stroke:#00468b;}.cls-26,.cls-38,.cls-55,.cls-63,.cls-65,.cls-67,.cls-68,.cls-70,.cls-71,.cls-73,.cls-74,.cls-75,.cls-76,.cls-77,.cls-78,.cls-79,.cls-80,.cls-81,.cls-82{stroke:#333;}.cls-27{fill:#fbb03b;}.cls-28,.cls-29,.cls-31,.cls-58,.cls-59{stroke:#000;}.cls-30,.cls-67{fill:#8eb9db;}.cls-30{stroke:#8eb9db;}.cls-33,.cls-34{opacity:0.5;}.cls-34,.cls-36{stroke:url(#New_Pattern_3);}.cls-37{fill:url(#New_Pattern_3);}.cls-44{fill:#87c4b3;}.cls-45{fill:#193057;}.cls-46{fill:#00468b;}.cls-49,.cls-86{stroke:#024b87;}.cls-50,.cls-61,.cls-70,.cls-73,.cls-85,.cls-86{stroke-width:3px;}.cls-51{stroke-width:2.5px;}.cls-57,.cls-82,.cls-83{fill:#e6e7e8;}.cls-59{stroke-width:1.5px;}.cls-60,.cls-61,.cls-62{stroke:#b9d1ef;}.cls-63,.cls-65,.cls-67,.cls-68,.cls-71,.cls-74,.cls-75,.cls-76,.cls-77,.cls-78,.cls-79{stroke-width:1.4px;}.cls-64{fill:url(#New_Pattern_2-21);}.cls-66{fill:url(#New_Pattern_2-23);}.cls-69{fill:#333;}.cls-72{fill:url(#New_Pattern_2-25);}.cls-76{fill:url(#New_Pattern_2-27);}.cls-77{fill:url(#New_Pattern_2-29);}.cls-78{fill:url(#New_Pattern_2-31);}.cls-79{fill:url(#New_Pattern_2-33);}.cls-87{opacity:0.75;fill:url(#New_Gradient_Swatch);}.cls-88{fill:url(#linear-gradient);}.cls-89{fill:url(#linear-gradient-2);}</style><pattern id="New_Pattern_2" data-name="New Pattern 2" width="6" height="8" patternTransform="translate(3 6)" patternUnits="userSpaceOnUse" viewBox="0 0 6 8"><rect class="cls-1" width="6" height="8"/><circle class="cls-2" cx="4.5" cy="8" r="1"/><circle class="cls-2" cx="1.5" cy="8" r="1"/><circle class="cls-2" cx="6" cy="4" r="1"/><circle class="cls-2" cx="3" cy="4" r="1"/><circle class="cls-2" cy="4" r="1"/><circle class="cls-2" cx="4.5" r="1"/><circle class="cls-2" cx="1.5" r="1"/></pattern><pattern id="New_Pattern_3" data-name="New Pattern 3" width="8" height="8" patternTransform="translate(3 6)" patternUnits="userSpaceOnUse" viewBox="0 0 8 8"><rect class="cls-1" width="8" height="8"/><circle class="cls-2" cx="6" cy="8" r="1"/><circle class="cls-2" cx="2" cy="8" r="1"/><circle class="cls-2" cx="8" cy="4" r="1"/><circle class="cls-2" cx="4" cy="4" r="1"/><circle class="cls-2" cy="4" r="1"/><circle class="cls-2" cx="6" r="1"/><circle class="cls-2" cx="2" r="1"/></pattern><pattern id="New_Pattern_2-21" data-name="New Pattern 2" width="6" height="8" patternTransform="translate(-6.91 16.68) scale(0.43 0.53)" patternUnits="userSpaceOnUse" viewBox="0 0 6 8"><rect class="cls-1" width="6" height="8"/><circle class="cls-2" cx="4.5" cy="8" r="1"/><circle class="cls-2" cx="1.5" cy="8" r="1"/><circle class="cls-2" cx="6" cy="4" r="1"/><circle class="cls-2" cx="3" cy="4" r="1"/><circle class="cls-2" cy="4" r="1"/><circle class="cls-2" cx="4.5" r="1"/><circle class="cls-2" cx="1.5" r="1"/></pattern><pattern id="New_Pattern_2-23" data-name="New Pattern 2" width="6" height="8" patternTransform="translate(-3.06 10.32) scale(0.59)" patternUnits="userSpaceOnUse" viewBox="0 0 6 8"><rect class="cls-1" width="6" height="8"/><circle class="cls-2" cx="4.5" cy="8" r="1"/><circle class="cls-2" cx="1.5" cy="8" r="1"/><circle class="cls-2" cx="6" cy="4" r="1"/><circle class="cls-2" cx="3" cy="4" r="1"/><circle class="cls-2" cy="4" r="1"/><circle class="cls-2" cx="4.5" r="1"/><circle class="cls-2" cx="1.5" r="1"/></pattern><pattern id="New_Pattern_2-25" data-name="New Pattern 2" width="6" height="8" patternTransform="translate(-3.36 10.38) scale(0.68 0.64)" patternUnits="userSpaceOnUse" viewBox="0 0 6 8"><rect class="cls-1" width="6" height="8"/><circle class="cls-2" cx="4.5" cy="8" r="1"/><circle class="cls-2" cx="1.5" cy="8" r="1"/><circle class="cls-2" cx="6" cy="4" r="1"/><circle class="cls-2" cx="3" cy="4" r="1"/><circle class="cls-2" cy="4" r="1"/><circle class="cls-2" cx="4.5" r="1"/><circle class="cls-2" cx="1.5" r="1"/></pattern><pattern id="New_Pattern_2-27" data-name="New Pattern 2" width="6" height="8" patternTransform="translate(-10.25 13.67) scale(0.44 0.51)" patternUnits="userSpaceOnUse" viewBox="0 0 6 8"><rect class="cls-1" width="6" height="8"/><circle class="cls-2" cx="4.5" cy="8" r="1"/><circle class="cls-2" cx="1.5" cy="8" r="1"/><circle class="cls-2" cx="6" cy="4" r="1"/><circle class="cls-2" cx="3" cy="4" r="1"/><circle class="cls-2" cy="4" r="1"/><circle class="cls-2" cx="4.5" r="1"/><circle class="cls-2" cx="1.5" r="1"/></pattern><pattern id="New_Pattern_2-29" data-name="New Pattern 2" width="6" height="8" patternTransform="translate(-9.66 15.41) scale(0.44 0.55)" patternUnits="userSpaceOnUse" viewBox="0 0 6 8"><rect class="cls-1" width="6" height="8"/><circle class="cls-2" cx="4.5" cy="8" r="1"/><circle class="cls-2" cx="1.5" cy="8" r="1"/><circle class="cls-2" cx="6" cy="4" r="1"/><circle class="cls-2" cx="3" cy="4" r="1"/><circle class="cls-2" cy="4" r="1"/><circle class="cls-2" cx="4.5" r="1"/><circle class="cls-2" cx="1.5" r="1"/></pattern><pattern id="New_Pattern_2-31" data-name="New Pattern 2" width="6" height="8" patternTransform="translate(-5.07 7.2) scale(0.65)" patternUnits="userSpaceOnUse" viewBox="0 0 6 8"><rect class="cls-1" width="6" height="8"/><circle class="cls-2" cx="4.5" cy="8" r="1"/><circle class="cls-2" cx="1.5" cy="8" r="1"/><circle class="cls-2" cx="6" cy="4" r="1"/><circle class="cls-2" cx="3" cy="4" r="1"/><circle class="cls-2" cy="4" r="1"/><circle class="cls-2" cx="4.5" r="1"/><circle class="cls-2" cx="1.5" r="1"/></pattern><pattern id="New_Pattern_2-33" data-name="New Pattern 2" width="6" height="8" patternTransform="translate(20.46 7.2) scale(0.65)" patternUnits="userSpaceOnUse" viewBox="0 0 6 8"><rect class="cls-1" width="6" height="8"/><circle class="cls-2" cx="4.5" cy="8" r="1"/><circle class="cls-2" cx="1.5" cy="8" r="1"/><circle class="cls-2" cx="6" cy="4" r="1"/><circle class="cls-2" cx="3" cy="4" r="1"/><circle class="cls-2" cy="4" r="1"/><circle class="cls-2" cx="4.5" r="1"/><circle class="cls-2" cx="1.5" r="1"/></pattern><linearGradient id="New_Gradient_Swatch" x1="921.4" y1="562.36" x2="925.4" y2="430.47" gradientUnits="userSpaceOnUse"><stop offset="0.17" stop-color="#1b1464"/><stop offset="0.66" stop-color="#f25b45"/><stop offset="0.7" stop-color="#f46d43"/><stop offset="0.78" stop-color="#f78a3f"/><stop offset="0.85" stop-color="#f99f3d"/><stop offset="0.93" stop-color="#fbac3b"/><stop offset="1" stop-color="#fbb03b"/></linearGradient><linearGradient id="linear-gradient" y1="325" x2="26" y2="325" gradientUnits="userSpaceOnUse"><stop offset="0.69" stop-color="#fff"/><stop offset="0.72" stop-color="#fff" stop-opacity="0.98"/><stop offset="0.76" stop-color="#fff" stop-opacity="0.93"/><stop offset="0.8" stop-color="#fff" stop-opacity="0.84"/><stop offset="0.84" stop-color="#fff" stop-opacity="0.71"/><stop offset="0.89" stop-color="#fff" stop-opacity="0.55"/><stop offset="0.93" stop-color="#fff" stop-opacity="0.35"/><stop offset="0.98" stop-color="#fff" stop-opacity="0.12"/><stop offset="1" stop-color="#fff" stop-opacity="0"/></linearGradient><linearGradient id="linear-gradient-2" x1="1361" y1="325" x2="1387" y2="325" gradientTransform="matrix(1, 0, 0, -1, -87, 650)" xlink:href="#linear-gradient"/></defs><title>Homepage Header illustration</title><g id="Layer_2" data-name="Layer 2"><g id="Home_Page" data-name="Home Page"><path class="cls-3" d="M1228.3,403.44c8.83-2.3,30-6.39,30.14-6.42,8.47-1.5,17.44-2.89,26.78-4.18l.25,0c1.58-.22,3.88-.43,5.48-.64l-.17,28.85h-32.72l-77-.67"/><path class="cls-4" d="M230.18,146.56H226.8a17.57,17.57,0,0,0-34.31-5.31A11.71,11.71,0,1,0,189,164.12h41.21a8.36,8.36,0,0,0,8.33-8.33v-.9A8.36,8.36,0,0,0,230.18,146.56Z"/><path class="cls-4" d="M484.71,261.76h-3.38A17.57,17.57,0,0,0,447,256.45a11.71,11.71,0,1,0-3.52,22.88h41.21A8.36,8.36,0,0,0,493,271v-.9A8.36,8.36,0,0,0,484.71,261.76Z"/><path class="cls-4" d="M998.49,285.26s-7.65-1.77-7.06-10.6,7.06-10,7.06-10,7.65-2.35,11.19,1.77c0,0,5.3-10,14.72-2.35,0,0,4.1-9.42,14.72-9.42,11.19,0,14.72,10,14.72,10s9.42-5.3,12.36,3.53c0,0,7.06-1.18,8.24,3.53,0,0,2.94-5.3,8.24-5.3s8.24,3.53,8.24,7.06c0,0,5.3-1.77,7.65-.59a5.66,5.66,0,0,1,3.53,5.3c0,2.35-1.18,6.48-3.53,7.65S998.49,285.26,998.49,285.26Z"/><line class="cls-5" x1="1014.98" y1="286.43" x2="1017.92" y2="286.43"/><line class="cls-5" x1="1022.04" y1="286.43" x2="1028.52" y2="286.43"/><line class="cls-5" x1="1032.05" y1="286.43" x2="1064.43" y2="286.43"/><line class="cls-5" x1="1067.97" y1="286.43" x2="1071.19" y2="286.43"/><path class="cls-5" d="M1058,291.14h8.24"/><path class="cls-6" d="M1075,291.14h0Z"/><line class="cls-5" x1="862.96" y1="387.93" x2="869.44" y2="387.93"/><line class="cls-5" x1="872.97" y1="387.93" x2="905.35" y2="387.93"/><line class="cls-7" x1="453.45" y1="280.67" x2="456.39" y2="280.67"/><line class="cls-8" x1="476.94" y1="277.02" x2="501.14" y2="277.02"/><line class="cls-7" x1="185.49" y1="165.75" x2="195.97" y2="165.75"/><line class="cls-7" x1="202.15" y1="165.75" x2="226.35" y2="165.75"/><line class="cls-7" x1="207.89" y1="170.97" x2="210.83" y2="170.97"/><line class="cls-7" x1="214.25" y1="170.97" x2="230.74" y2="170.97"/><line class="cls-9" x1="1232.42" y1="418.99" x2="1232.42" y2="385.12"/><path class="cls-9" d="M1251.71,420.1"/><line class="cls-7" x1="461.72" y1="280.67" x2="485.91" y2="280.67"/><path class="cls-4" d="M1151.48,147.62h-3.38a17.57,17.57,0,0,0-34.31-5.31,11.71,11.71,0,1,0-3.52,22.88h41.21a8.36,8.36,0,0,0,8.33-8.33v-.9A8.36,8.36,0,0,0,1151.48,147.62Z"/><line class="cls-7" x1="1106.79" y1="166.81" x2="1117.26" y2="166.81"/><line class="cls-7" x1="1123.44" y1="166.81" x2="1147.64" y2="166.81"/><line class="cls-7" x1="1129.18" y1="172.03" x2="1132.13" y2="172.03"/><line class="cls-7" x1="1135.54" y1="172.03" x2="1152.03" y2="172.03"/><path class="cls-10" d="M323.31,443.59c-7.9-2.3-10.11-2.26-10.27-2.29-7.57-1.5-15.59-2.89-23.94-4.18l-.22,0C196.84,422.9,6,421,6,421v44.28H289.22l17.66.17v-4.84l8.47.32"/><polygon class="cls-11" points="92.55 427.78 92.55 465.91 56.24 465.91 56.24 427.92 92.55 427.78"/><polygon class="cls-11" points="10.84 427.93 56.43 428.03 74.56 404.71 28.83 404.61 11.23 427.36 10.84 427.93"/><polygon class="cls-11" points="56.31 427.78 56.31 465.91 11.55 465.91 11.55 427.92 56.31 427.78"/><polygon class="cls-11" points="74.43 404.8 56.31 427.78 92.55 427.78 74.43 404.8"/><path class="cls-12" d="M35.64,428.64"/><path class="cls-12" d="M35.64,428.64"/><polygon class="cls-13" points="10.84 427.93 56.43 428.03 74.56 404.71 28.83 404.61 11.23 427.36 10.84 427.93"/><rect class="cls-4" x="39.5" y="434.55" width="6.63" height="14.59" transform="translate(85.63 883.69) rotate(-180)"/><g id="window"><polyline class="cls-14" points="37.22 450.15 37.22 434.56 46.12 434.56 46.12 453.02 36.51 453.02"/><line class="cls-14" x1="42.56" y1="450.15" x2="34.72" y2="450.15"/></g><line class="cls-15" x1="46" y1="441.03" x2="37.6" y2="441.03"/><line class="cls-15" x1="41.34" y1="441.03" x2="41.34" y2="434.51"/><path class="cls-16" d="M68.11,423.44a6.56,6.56,0,0,1,13.12,0Z"/><rect class="cls-4" x="65.55" y="433.84" width="22.03" height="23.54" transform="translate(153.13 891.23) rotate(-180)"/><line class="cls-17" x1="81.04" y1="434.01" x2="81.04" y2="459.42"/><line class="cls-17" x1="70.13" y1="434.01" x2="70.13" y2="455.64"/><path class="cls-18" d="M70.17,434.29H64l-.53,24.16h6.62s-2.45-10.3-5.29-15C64.84,443.48,69.46,444.24,70.17,434.29Z"/><path class="cls-18" d="M81.27,434.29h6.14l.53,24.16H81.31s2.45-10.3,5.29-15C86.6,443.48,82,444.24,81.27,434.29Z"/><rect class="cls-12" x="63.42" y="434.01" width="24.13" height="26.24"/><rect class="cls-4" x="23.5" y="434.55" width="6.63" height="14.59" transform="translate(53.63 883.69) rotate(-180)"/><g id="window-2" data-name="window"><polyline class="cls-14" points="21.22 450.15 21.22 434.56 30.12 434.56 30.12 453.02 20.5 453.02"/><line class="cls-14" x1="26.56" y1="450.15" x2="18.72" y2="450.15"/></g><line class="cls-15" x1="30" y1="441.03" x2="21.6" y2="441.03"/><line class="cls-15" x1="25.34" y1="441.03" x2="25.34" y2="434.51"/><path class="cls-19" d="M416,459.56c.3-.76-39.35-82.78-39.35-82.78l-38.89,83.38"/><polygon class="cls-20" points="372.08 386.02 405.89 460.22 337.42 460.22 372.08 386.02"/><path class="cls-21" d="M1233.44,405h-8.07a.54.54,0,0,1-.52-.67l.84-3.34,2.36-9.41.75-3a.54.54,0,0,1,1,0L1234,404.3A.54.54,0,0,1,1233.44,405Z"/><line class="cls-22" x1="1229.4" y1="406.78" x2="1229.4" y2="409.46"/><line class="cls-12" x1="1226.83" y1="396.38" x2="1228.39" y2="396.38"/><line class="cls-12" x1="1229.06" y1="400.96" x2="1225.68" y2="400.96"/><rect class="cls-4" x="367.79" y="411.68" width="7.89" height="14.89"/><rect class="cls-4" x="367.79" y="452.82" width="7.89" height="3.58"/><rect class="cls-4" x="381.47" y="452.82" width="6.57" height="3.58"/><rect class="cls-4" x="381.47" y="432.21" width="6.57" height="18.05"/><polygon class="cls-4" points="381.92 428.92 381.92 415.89 387.14 428.92 381.92 428.92"/><polygon class="cls-4" points="364.1 427.1 364.1 414.07 358.88 427.1 364.1 427.1"/><rect class="cls-4" x="367.79" y="432.04" width="7.89" height="15.95"/><line class="cls-23" x1="494.31" y1="453.83" x2="511.99" y2="453.83"/><path class="cls-24" d="M576.79,447c-2.91-1.11-9.92-.43-9.92-.43-32.09,5-43.65,28.72-43.65,28.72h21.9c0-.91-5.47-5.47-5.47-5.47C562.33,445.64,576.79,447,576.79,447Z"/><rect class="cls-25" x="593.31" y="419.93" width="9.44" height="68.43"/><path class="cls-26" d="M323.78,253.17"/><circle class="cls-27" cx="927.71" cy="401.97" r="36.58"/><polyline class="cls-28" points="1186.92 335.6 1180.62 335.6 1182.07 339.96 1256.15 339.96 1258.08 335.6 1194.66 335.6"/><line class="cls-28" x1="1258.08" y1="354.11" x2="1180.14" y2="354.11"/><line class="cls-28" x1="1197.08" y1="351.39" x2="1259.57" y2="351.39"/><path class="cls-29" d="M1175.78,347.39l5.81,7.08v65.32h23.72V382.65a13.79,13.79,0,0,1,13.56-12.94c7,0,12.83,5.9,13.56,12.94v36.77l-26.71.37h50.44V354.46l5.81-7.08Z"/><line class="cls-28" x1="1232.42" y1="420.33" x2="1232.42" y2="385.12"/><path class="cls-28" d="M1201.12,415.41c0-4.57,0-10.7,0-16.39"/><path class="cls-28" d="M1219,420.89s0-1.85,0-4.76"/><path class="cls-28" d="M1201.07,398.11"/><path class="cls-28" d="M1201.07,393.09c0,1.28,0,2.62,0,4"/><path class="cls-28" d="M1201.07,393.09"/><path class="cls-28" d="M1201.67,380a15.84,15.84,0,0,0-.52,3.6c0,1.53-.07,4.22-.08,7.49"/><path class="cls-28" d="M1204.06,374.86a18.18,18.18,0,0,1,13.58-7.64"/><path class="cls-28" d="M1221.38,367.35q-.85-.12-1.72-.16"/><path class="cls-28" d="M1221.86,367.43"/><path class="cls-28" d="M1236.73,400.92c0-7.07,0-14,0-17.33-.08-7.66-6.26-14.18-13.76-15.94"/><path class="cls-28" d="M1236.73,401.87"/><path class="cls-28" d="M1236.73,403.43"/><path class="cls-28" d="M1236.7,419.79s0-7,0-16.35"/><line class="cls-28" x1="1189.82" y1="379.69" x2="1181.11" y2="379.69"/><line class="cls-28" x1="1193.64" y1="379.69" x2="1191.7" y2="379.69"/><line class="cls-28" x1="1193.15" y1="397.82" x2="1185.89" y2="397.82"/><line class="cls-28" x1="1184.5" y1="397.81" x2="1182.07" y2="397.81"/><line class="cls-28" x1="1192.24" y1="385.52" x2="1182.07" y2="385.52"/><line class="cls-28" x1="1192.24" y1="389.63" x2="1181.59" y2="389.63"/><line class="cls-28" x1="1192.24" y1="408.55" x2="1180.13" y2="408.55"/><line class="cls-28" x1="1190.31" y1="410.72" x2="1178.2" y2="410.72"/><line class="cls-28" x1="1182.07" y1="339.96" x2="1182.07" y2="348.67"/><line class="cls-28" x1="1256.15" y1="339.96" x2="1256.15" y2="348.67"/><line class="cls-28" x1="1182.07" y1="351.39" x2="1191.76" y2="351.39"/><line class="cls-28" x1="1189.82" y1="364.84" x2="1179.65" y2="364.84"/><line class="cls-28" x1="1192.73" y1="368.95" x2="1182.07" y2="368.95"/><line class="cls-28" x1="1190.3" y1="358.47" x2="1181.59" y2="358.47"/><line class="cls-28" x1="1193.21" y1="358.47" x2="1206.79" y2="358.47"/><line class="cls-28" x1="1259.41" y1="381.33" x2="1247.92" y2="381.33"/><line class="cls-28" x1="1246.95" y1="379.69" x2="1255.66" y2="379.69"/><line class="cls-28" x1="1243.13" y1="379.69" x2="1245.07" y2="379.69"/><line class="cls-28" x1="1243.62" y1="397.82" x2="1250.88" y2="397.82"/><line class="cls-28" x1="1252.27" y1="397.81" x2="1254.69" y2="397.81"/><line class="cls-28" x1="1244.53" y1="385.52" x2="1254.69" y2="385.52"/><line class="cls-28" x1="1244.53" y1="389.63" x2="1255.18" y2="389.63"/><line class="cls-28" x1="1244.53" y1="408.55" x2="1256.64" y2="408.55"/><line class="cls-28" x1="1246.45" y1="410.72" x2="1258.57" y2="410.72"/><line class="cls-28" x1="1245.98" y1="364.84" x2="1256.15" y2="364.84"/><line class="cls-28" x1="1245.01" y1="368.95" x2="1255.66" y2="368.95"/><line class="cls-28" x1="1246.46" y1="358.47" x2="1255.18" y2="358.47"/><line class="cls-28" x1="1241.73" y1="358.47" x2="1243.67" y2="358.47"/><path class="cls-30" d="M1202.41,391.67"/><path class="cls-30" d="M1198.54,391.67"/><path class="cls-30" d="M1198.54,397.61"/><path class="cls-30" d="M1220.21,416.18"/><path class="cls-30" d="M1216.34,416.18"/><rect class="cls-28" x="1183.95" y="342.13" width="8.77" height="5.33"/><line class="cls-28" x1="1188.41" y1="344.96" x2="1180.62" y2="344.96"/><rect class="cls-28" x="1244.53" y="342.13" width="9.16" height="5.33" transform="translate(2498.22 689.6) rotate(180)"/><line class="cls-28" x1="1248.45" y1="344.64" x2="1257.6" y2="344.64"/><path class="cls-31" d="M530,500.7"/><rect class="cls-4" x="776.41" y="424.4" width="5.67" height="12.76"/><rect class="cls-4" x="776.41" y="454.92" width="5.67" height="22.07"/><rect class="cls-32" x="593.4" y="418.52" width="47.99" height="69.8"/><polyline class="cls-32" points="639.91 404.36 691.75 358.74 715.26 358.74 752.05 393.57"/><path class="cls-33" d="M639.63,404.63,691.48,359H715.9l36.53,35s-1.66,4.94-5.87,4.89v5.26"/><path class="cls-34" d="M643.29,291.39l-29.76,63.17h63.15l-29.76-63.17A2,2,0,0,0,643.29,291.39Z"/><rect class="cls-4" x="709.05" y="424.4" width="5.67" height="12.76"/><rect class="cls-4" x="732.25" y="424.4" width="5.67" height="12.76"/><rect class="cls-4" x="732.25" y="454.92" width="5.67" height="22.07"/><rect class="cls-4" x="709.97" y="454.92" width="5.67" height="22.07"/><rect class="cls-4" x="686.39" y="454.92" width="5.67" height="22.07"/><rect class="cls-4" x="685.63" y="424.4" width="5.67" height="12.76"/><path class="cls-33" d="M589.19,398.88v19.64h56.41V398.88h0a6.29,6.29,0,0,1-5.65-3.52L616.19,356a1.42,1.42,0,0,0-2.65,0l-19.25,39.63a5.62,5.62,0,0,1-5.09,3.24Z"/><path class="cls-32" d="M589.19,398.88v19.64h56.41V398.88h0a6.29,6.29,0,0,1-5.65-3.52L616.19,356a1.42,1.42,0,0,0-2.65,0l-19.25,39.63a5.62,5.62,0,0,1-5.09,3.24Z"/><rect class="cls-35" x="609.74" y="368.23" width="70.73" height="25.52"/><rect class="cls-35" x="606.37" y="354.72" width="77.46" height="13.51"/><path class="cls-32" d="M643.29,291.39l-29.76,63.17h63.15l-29.76-63.17A2,2,0,0,0,643.29,291.39Z"/><path class="cls-35" d="M645.65,319.14l-7.23,11a.35.35,0,0,0,.29.54h14.45a.35.35,0,0,0,.29-.54l-7.23-11A.35.35,0,0,0,645.65,319.14Z"/><rect class="cls-35" x="640.89" y="330.7" width="10.1" height="14.26"/><line class="cls-32" x1="676.12" y1="404.27" x2="747.27" y2="404.27"/><path class="cls-35" d="M711.19,370.81l-7.23,11a.35.35,0,0,0,.29.54h14.45a.35.35,0,0,0,.29-.54l-7.23-11A.35.35,0,0,0,711.19,370.81Z"/><rect class="cls-35" x="706.43" y="382.37" width="10.1" height="14.26"/><path class="cls-33" d="M703.36,306.93l-11,28a.35.35,0,0,0,.33.48h22A.35.35,0,0,0,715,335l-11-28A.35.35,0,0,0,703.36,306.93Z"/><rect class="cls-33" x="694.01" y="336.12" width="19.37" height="22.52"/><path class="cls-32" d="M703.36,306.93l-11,28a.35.35,0,0,0,.33.48h22A.35.35,0,0,0,715,335l-11-28A.35.35,0,0,0,703.36,306.93Z"/><rect class="cls-32" x="694.01" y="336.12" width="19.37" height="22.52"/><polyline class="cls-32" points="694.16 437.14 694.16 424.15 685.94 424.15 685.94 439.54 694.82 439.54"/><line class="cls-32" x1="689.23" y1="437.14" x2="696.46" y2="437.14"/><polyline class="cls-32" points="717.74 437.14 717.74 424.15 709.51 424.15 709.51 439.54 718.39 439.54"/><line class="cls-32" x1="712.8" y1="437.14" x2="720.04" y2="437.14"/><polyline class="cls-32" points="740.47 437.14 740.47 424.15 732.25 424.15 732.25 439.54 741.13 439.54"/><line class="cls-32" x1="735.54" y1="437.14" x2="742.77" y2="437.14"/><polyline class="cls-32" points="694.16 476.92 694.16 454.92 685.94 454.92 685.94 479.32 694.82 479.32"/><line class="cls-32" x1="689.23" y1="476.92" x2="696.46" y2="476.92"/><polyline class="cls-32" points="717.74 476.92 717.74 454.92 709.51 454.92 709.51 479.32 718.39 479.32"/><line class="cls-32" x1="712.8" y1="476.92" x2="720.04" y2="476.92"/><polyline class="cls-32" points="740.47 476.92 740.47 454.92 732.25 454.92 732.25 479.32 741.13 479.32"/><line class="cls-32" x1="735.54" y1="476.92" x2="742.77" y2="476.92"/><line class="cls-32" x1="745.68" y1="387.05" x2="754.77" y2="387.05"/><rect class="cls-32" x="750.77" y="418.52" width="47.99" height="69.8"/><path class="cls-33" d="M746.56,398.88v19.64H803V398.88h0a6.29,6.29,0,0,1-5.65-3.52l-21.94-44.83a1.42,1.42,0,0,0-2.65,0l-21.08,45.11a5.62,5.62,0,0,1-5.09,3.24Z"/><path class="cls-32" d="M746.56,398.88v19.64H803V398.88h0a6.29,6.29,0,0,1-5.65-3.52l-21.94-44.83a1.42,1.42,0,0,0-2.65,0l-21.08,45.11a5.62,5.62,0,0,1-5.09,3.24Z"/><polyline class="cls-32" points="785.09 437.14 785.09 424.15 776.87 424.15 776.87 439.54 785.75 439.54"/><line class="cls-32" x1="780.16" y1="437.14" x2="787.4" y2="437.14"/><polyline class="cls-32" points="785.09 476.92 785.09 454.92 776.87 454.92 776.87 479.32 785.75 479.32"/><line class="cls-32" x1="780.16" y1="476.92" x2="787.4" y2="476.92"/><circle class="cls-17" cx="653.73" cy="426.52"/><polyline class="cls-35" points="598.66 437.14 598.66 424.15 593.28 424.15 593.28 439.54 599.32 439.54"/><line class="cls-35" x1="593.73" y1="437.14" x2="600.97" y2="437.14"/><polyline class="cls-35" points="598.66 476.92 598.66 454.92 593.28 454.92 593.28 479.32 599.32 479.32"/><line class="cls-35" x1="593.73" y1="476.92" x2="600.97" y2="476.92"/><path class="cls-36" d="M642.54,294.7,667,354.56h9.69L646.75,291C646.1,289.65,643.2,293.3,642.54,294.7Z"/><path class="cls-37" d="M700.2,312l8.5,23.4h6l-10.34-27.05C703.75,307,700.86,310.64,700.2,312Z"/><path class="cls-37" d="M708,335.76l.74,23.4h4.22l-.75-27.05C711.51,330.71,708.62,334.36,708,335.76Z"/><path class="cls-37" d="M769.87,353.77l18.7,43.76h9.09l-21.09-45.59C775.38,350.55,774,348.26,769.87,353.77Z"/><path class="cls-37" d="M793.62,400.59l.43,17.93h9.44L803,398.88C801.79,397.48,794.8,399.2,793.62,400.59Z"/><rect class="cls-38" x="614.74" y="394.5" width="60.73" height="93.82"/><rect class="cls-4" x="639.56" y="443.54" width="7.09" height="19.85"/><polyline class="cls-32" points="650.15 463.19 650.15 442.91 639.63 442.91 639.63 466.39 651.98 466.39"/><line class="cls-32" x1="644.26" y1="463.55" x2="653.52" y2="463.55"/><rect class="cls-4" x="639.56" y="404.55" width="7.09" height="14.89"/><polyline class="cls-32" points="650.15 418.89 650.15 404.63 639.63 404.63 639.63 421.52 651 421.52"/><line class="cls-32" x1="643.84" y1="418.9" x2="653.1" y2="418.9"/><line class="cls-7" x1="621.84" y1="431.69" x2="632.47" y2="431.69"/><line class="cls-7" x1="626.09" y1="434.32" x2="638.85" y2="434.32"/><line class="cls-7" x1="623.96" y1="437.15" x2="638.85" y2="437.15"/><line class="cls-7" x1="621.84" y1="434.32" x2="624.67" y2="434.32"/><line class="cls-7" x1="633.18" y1="431.68" x2="636.72" y2="431.68"/><line class="cls-7" x1="651.61" y1="477.06" x2="662.24" y2="477.06"/><line class="cls-7" x1="655.86" y1="479.69" x2="668.62" y2="479.69"/><line class="cls-7" x1="653.73" y1="482.52" x2="668.62" y2="482.52"/><line class="cls-7" x1="651.61" y1="479.69" x2="654.44" y2="479.69"/><line class="cls-7" x1="662.95" y1="477.05" x2="666.49" y2="477.05"/><path class="cls-39" d="M1289.08,421.18H1170.44c-15.72,0-28.58,3.86-28.58,8.58v6.09c0,1.07-3.69,4.15-10.14,4.15h-12c-12.91,0-18.44,2.21-18.44,6.37h0c0,4.72,1,8.58,16.72,8.58h173"/><circle cx="399.52" cy="55.18" r="1.17"/><path class="cls-40" d="M1182.51,556.09v-5.76l8.65-5.76v-4.32H1049.93c.72,4.32,2.88,7.21,7.93,8.65s4.32,8.65,4.32,8.65"/><line class="cls-40" x1="1055.69" y1="535.92" x2="1055.69" y2="539.52"/><line class="cls-40" x1="1069.38" y1="535.92" x2="1069.38" y2="539.52"/><line class="cls-40" x1="1076.59" y1="535.92" x2="1076.59" y2="539.52"/><line class="cls-40" x1="1083.07" y1="535.92" x2="1083.07" y2="539.52"/><line class="cls-40" x1="1055.69" y1="535.92" x2="1055.69" y2="539.52"/><line class="cls-40" x1="1069.38" y1="535.92" x2="1069.38" y2="539.52"/><line class="cls-40" x1="1076.59" y1="535.92" x2="1076.59" y2="539.52"/><line class="cls-40" x1="1083.07" y1="535.92" x2="1083.07" y2="539.52"/><line class="cls-40" x1="1062.17" y1="515.02" x2="1062.17" y2="539.52"/><line class="cls-40" x1="1150.08" y1="515.02" x2="1150.08" y2="539.52"/><line class="cls-40" x1="1124.86" y1="515.02" x2="1124.86" y2="539.52"/><polygon class="cls-40" points="1156.57 511.42 1057.85 511.42 1057.85 515.02 1153.69 515.02 1156.57 511.42"/><line class="cls-40" x1="1077.31" y1="470.08" x2="1077.31" y2="510.7"/><line class="cls-40" x1="1113.34" y1="493.4" x2="1113.34" y2="510.7"/><polyline class="cls-40" points="1146.02 539.52 1146.02 520.06 1132.53 520.06 1132.53 539.52"/><line class="cls-40" x1="1139.28" y1="520.78" x2="1139.28" y2="540.24"/><polyline class="cls-40" points="1077.31 493.4 1116.22 493.4 1119.1 489.8 1077.31 489.8"/><line class="cls-40" x1="1102.53" y1="493.4" x2="1102.53" y2="510.7"/><line class="cls-40" x1="1142.16" y1="505.65" x2="1142.16" y2="510.7"/><line class="cls-40" x1="1134.95" y1="505.65" x2="1134.95" y2="510.7"/><line class="cls-40" x1="1127.75" y1="505.65" x2="1127.75" y2="510.7"/><line class="cls-40" x1="1121.26" y1="505.65" x2="1121.26" y2="510.7"/><line class="cls-40" x1="1106.85" y1="505.65" x2="1106.85" y2="510.7"/><line class="cls-40" x1="1102.53" y1="504.93" x2="1145.04" y2="504.93"/><line class="cls-40" x1="1090.28" y1="535.92" x2="1090.28" y2="539.52"/><line class="cls-40" x1="1097.48" y1="535.92" x2="1097.48" y2="539.52"/><line class="cls-40" x1="1103.97" y1="535.92" x2="1103.97" y2="539.52"/><line class="cls-40" x1="1111.17" y1="535.92" x2="1111.17" y2="539.52"/><line class="cls-40" x1="1118.38" y1="535.92" x2="1118.38" y2="539.52"/><line class="cls-40" x1="1152.97" y1="535.92" x2="1152.97" y2="539.52"/><line class="cls-40" x1="1160.17" y1="535.92" x2="1160.17" y2="539.52"/><line class="cls-40" x1="1173.86" y1="535.92" x2="1173.86" y2="539.52"/><line class="cls-40" x1="1181.07" y1="535.92" x2="1181.07" y2="539.52"/><line class="cls-40" x1="1188.27" y1="535.92" x2="1188.27" y2="539.52"/><rect class="cls-41" x="1082.35" y="497.01" width="6.49" height="10.09"/><rect class="cls-41" x="1092.44" y="497.01" width="6.49" height="10.09"/><line class="cls-40" x1="1082.35" y1="503.49" x2="1088.12" y2="503.49"/><line class="cls-40" x1="1093.16" y1="503.49" x2="1098.92" y2="503.49"/><line class="cls-40" x1="1167.38" y1="535.92" x2="1167.38" y2="539.52"/><circle class="cls-17" cx="1134.95" cy="531.59" r="0.72"/><circle class="cls-17" cx="1143.6" cy="531.59" r="0.72"/><circle class="cls-42" cx="1076.59" cy="524.39" r="6.67"/><circle class="cls-11" cx="1076.59" cy="524.39" r="4.32"/><ellipse class="cls-11" cx="1077.85" cy="524.57" rx="3.06" ry="3.42"/><circle class="cls-42" cx="1098.92" cy="524.39" r="6.67"/><circle class="cls-11" cx="1098.92" cy="524.39" r="4.32"/><ellipse class="cls-11" cx="1100.18" cy="524.57" rx="3.06" ry="3.42"/><polyline class="cls-43" points="1075.48 471.22 1068.28 474.42 1075.48 478.42"/><polyline class="cls-44" points="1075.48 487.64 1067.11 491.96 1075.48 496.29"/><line class="cls-17" x1="1068.28" y1="491.96" x2="1075.48" y2="491.96"/><path class="cls-4" d="M1075.48,479.86h-6.94a.11.11,0,0,0-.08.19l2.7,2.7-2.7,2.7a.11.11,0,0,0,.08.19h6.94"/><path class="cls-45" d="M1181.6,549.42l8.65-5.76v-2.5H1051.75c.66,5.27,7.59,6.37,8.84,7.73"/><line class="cls-40" x1="1052.81" y1="535.2" x2="1191.16" y2="535.2"/><rect class="cls-46" x="1073.43" y="479.86" width="2.05" height="5.76"/><path class="cls-7" d="M593.28,455.66c-11.16-11.41-26.4-9.1-26.4-9.1-32.09,5-43.65,28.72-43.65,28.72h21.9c0-.91-4.56-5.47-4.56-5.47H527.9"/><path class="cls-7" d="M575.24,447s-15.51,1.82-35.59,22.81"/><path class="cls-7" d="M551.36,433.94c-25.26,8.11-38.63,25.37-38.63,25.37v15.51h10"/><path class="cls-7" d="M593,431a89.21,89.21,0,0,0-41.67,2.92"/><polyline class="cls-7" points="498.59 457.02 501.13 457.02 513.64 457.02"/><line class="cls-7" x1="500.41" y1="476.64" x2="500.41" y2="457.48"/><path class="cls-17" d="M529.79,466.38c-.18-.23,13,.23,13.26,0"/><line class="cls-17" x1="531.9" y1="463.89" x2="545.51" y2="464.07"/><line class="cls-17" x1="534.51" y1="461.43" x2="548.19" y2="461.72"/><line class="cls-17" x1="537.51" y1="458.94" x2="550.95" y2="459.45"/><line class="cls-17" x1="541.06" y1="456.4" x2="554.17" y2="457.02"/><line class="cls-17" x1="543.79" y1="454.68" x2="556.73" y2="455.25"/><line class="cls-17" x1="547.19" y1="452.82" x2="559.44" y2="453.54"/><line class="cls-17" x1="551.3" y1="450.92" x2="562.33" y2="451.87"/><line class="cls-17" x1="556.17" y1="449.11" x2="565.14" y2="450.44"/><line class="cls-17" x1="561.64" y1="447.87" x2="567.78" y2="449.11"/><rect class="cls-11" x="503.67" y="449.18" width="5.73" height="5.73"/><path class="cls-47" d="M503.67,454.91"/><polygon class="cls-17" points="502.24 449.18 510.83 449.18 509.4 447.75 503.67 447.75 502.24 449.18"/><line class="cls-48" x1="117.19" y1="435.35" x2="117.33" y2="435.35"/><line class="cls-48" x1="117.19" y1="435.35" x2="117.19" y2="464.93"/><path class="cls-48" d="M100.74,435.31"/><path class="cls-48" d="M100.74,435.31"/><path class="cls-48" d="M92.47,435.29"/><path class="cls-48" d="M92.47,435.29"/><circle cx="69.14" cy="456.72" r="1.16" transform="translate(-323.27 213.02) rotate(-49.55)"/><path class="cls-21" d="M269.46,434.76h-7a.54.54,0,0,1-.53-.66l.74-3.21,2.09-9.09.61-2.63a.54.54,0,0,1,1,0L270,434.09A.54.54,0,0,1,269.46,434.76Z"/><line class="cls-22" x1="265.95" y1="436.5" x2="265.95" y2="439.09"/><line class="cls-12" x1="263.67" y1="426.46" x2="265.05" y2="426.46"/><line class="cls-12" x1="265.64" y1="430.89" x2="262.65" y2="430.89"/><path class="cls-21" d="M305.16,459.07H295a.54.54,0,0,1-.53-.65l1.08-5.16,2.87-13.65,1-4.84a.54.54,0,0,1,1.05,0l5.18,23.66A.54.54,0,0,1,305.16,459.07Z"/><line class="cls-22" x1="300.09" y1="461.69" x2="300.09" y2="465.58"/><line class="cls-12" x1="296.97" y1="446.61" x2="298.86" y2="446.61"/><line class="cls-12" x1="299.67" y1="453.26" x2="295.57" y2="453.26"/><line class="cls-12" x1="503.67" y1="446.22" x2="509.4" y2="446.22"/><line class="cls-49" x1="560.35" y1="467.58" x2="564.92" y2="467.58"/><line class="cls-49" x1="567.45" y1="467.58" x2="585.05" y2="467.58"/><line class="cls-23" x1="896.85" y1="480" x2="926.97" y2="480"/><line class="cls-23" x1="934.27" y1="480" x2="945.22" y2="480"/><line class="cls-23" x1="950.69" y1="480" x2="956.17" y2="480"/><line class="cls-23" x1="920.58" y1="462.3" x2="932.44" y2="462.3"/><line class="cls-23" x1="918.3" y1="469.3" x2="931.98" y2="469.3"/><line class="cls-23" x1="941.11" y1="469.3" x2="950.23" y2="469.3"/><line class="cls-49" x1="1140.83" y1="463.84" x2="1152.7" y2="463.84"/><line class="cls-49" x1="1172.77" y1="463.84" x2="1186.46" y2="463.84"/><line class="cls-49" x1="1195.58" y1="463.84" x2="1204.71" y2="463.84"/><line class="cls-50" x1="254.31" y1="522.81" x2="265.26" y2="522.81"/><line class="cls-50" x1="273.47" y1="522.81" x2="288.98" y2="522.81"/><line class="cls-50" x1="813.89" y1="597.78" x2="821.19" y2="597.78"/><line class="cls-50" x1="832.14" y1="597.78" x2="896.93" y2="597.78"/><line class="cls-50" x1="305.75" y1="584.59" x2="315.79" y2="584.59"/><line class="cls-50" x1="322.17" y1="584.59" x2="327.65" y2="584.59"/><line class="cls-50" x1="974.58" y1="577.69" x2="987.84" y2="577.69"/><line class="cls-50" x1="994.98" y1="577.69" x2="998.05" y2="577.69"/><line class="cls-50" x1="918.63" y1="523.94" x2="930.49" y2="523.94"/><line class="cls-50" x1="936.88" y1="523.94" x2="939.62" y2="523.94"/><line class="cls-50" x1="1003.15" y1="577.69" x2="1006.21" y2="577.69"/><line class="cls-50" x1="913.13" y1="515.8" x2="924.99" y2="515.8"/><line class="cls-50" x1="931.38" y1="515.8" x2="934.12" y2="515.8"/><line class="cls-50" x1="938.68" y1="515.8" x2="941.42" y2="515.8"/><line class="cls-50" x1="942.43" y1="595.55" x2="966.92" y2="595.55"/><line class="cls-50" x1="972.02" y1="595.55" x2="975.09" y2="595.55"/><line class="cls-50" x1="980.19" y1="595.55" x2="1000.6" y2="595.55"/><line class="cls-50" x1="1005.7" y1="595.55" x2="1008.76" y2="595.55"/><line class="cls-50" x1="37.21" y1="535.78" x2="49.07" y2="535.78"/><line class="cls-50" x1="52.72" y1="535.78" x2="57.29" y2="535.78"/><line class="cls-50" x1="61.85" y1="535.78" x2="70.06" y2="535.78"/><line class="cls-50" x1="62.76" y1="545.82" x2="67.32" y2="545.82"/><line class="cls-50" x1="71.89" y1="545.82" x2="93.78" y2="545.82"/><line class="cls-50" x1="713.49" y1="556.36" x2="728.09" y2="556.36"/><line class="cls-50" x1="723.52" y1="565.48" x2="727.17" y2="565.48"/><line class="cls-50" x1="121.16" y1="535.78" x2="128.46" y2="535.78"/><line class="cls-49" x1="1010.29" y1="584.97" x2="1021.51" y2="584.97"/><line class="cls-49" x1="1024.58" y1="584.97" x2="1027.64" y2="584.97"/><line class="cls-49" x1="1029.68" y1="584.97" x2="1042.94" y2="584.97"/><line class="cls-50" x1="464.91" y1="578.89" x2="486.81" y2="578.89"/><line class="cls-50" x1="491.38" y1="578.89" x2="494.11" y2="578.89"/><line class="cls-50" x1="498.68" y1="578.89" x2="516.93" y2="578.89"/><line class="cls-50" x1="521.49" y1="578.89" x2="524.23" y2="578.89"/><line class="cls-50" x1="525.59" y1="571.88" x2="535.63" y2="571.88"/><line class="cls-50" x1="538.37" y1="571.88" x2="541.11" y2="571.88"/><line class="cls-50" x1="542.93" y1="571.88" x2="554.79" y2="571.88"/><line class="cls-50" x1="620.64" y1="602.83" x2="642.54" y2="602.83"/><line class="cls-50" x1="647.1" y1="602.83" x2="649.84" y2="602.83"/><line class="cls-50" x1="654.4" y1="602.83" x2="672.65" y2="602.83"/><line class="cls-23" x1="879.26" y1="488.79" x2="916.35" y2="488.79"/><line class="cls-23" x1="923.65" y1="488.79" x2="934.6" y2="488.79"/><line class="cls-23" x1="940.07" y1="488.79" x2="945.55" y2="488.79"/><line class="cls-23" x1="948.46" y1="488.79" x2="959.41" y2="488.79"/><line class="cls-51" x1="889.05" y1="496.33" x2="926.14" y2="496.33"/><line class="cls-51" x1="933.44" y1="496.33" x2="944.39" y2="496.33"/><line class="cls-51" x1="949.87" y1="496.33" x2="955.34" y2="496.33"/><line class="cls-51" x1="958.25" y1="496.33" x2="969.2" y2="496.33"/><line class="cls-50" x1="888.64" y1="505.76" x2="910.54" y2="505.76"/><line class="cls-50" x1="915.1" y1="505.76" x2="917.84" y2="505.76"/><line class="cls-50" x1="922.4" y1="505.76" x2="940.65" y2="505.76"/><line class="cls-50" x1="945.22" y1="505.76" x2="947.95" y2="505.76"/><line class="cls-50" x1="132.06" y1="598.82" x2="156.55" y2="598.82"/><line class="cls-50" x1="161.65" y1="598.82" x2="164.71" y2="598.82"/><line class="cls-50" x1="169.81" y1="598.82" x2="190.22" y2="598.82"/><line class="cls-50" x1="195.32" y1="598.82" x2="198.38" y2="598.82"/><line class="cls-50" x1="199.91" y1="590.98" x2="211.14" y2="590.98"/><line class="cls-48" x1="503.15" y1="466.31" x2="503.15" y2="475.57"/><path class="cls-32" d="M143.7,437.76"/><polyline class="cls-52" points="356.97 378.29 360.3 372.39 378.61 372.39 420.83 460.16 423.86 460.16 423.86 462.13 428.1 462.13 428.1 465.46 306.88 465.46 306.88 459.71 315.06 459.71 347.44 396.45"/><line class="cls-53" x1="419.17" y1="460.16" x2="315.35" y2="460.16"/><line class="cls-53" x1="365.91" y1="459.11" x2="350.88" y2="459.11"/><rect class="cls-52" x="381.8" y="432.21" width="7.67" height="17.89" transform="translate(771.27 882.3) rotate(-180)"/><rect class="cls-52" x="381.32" y="452.67" width="8.15" height="5.61" transform="translate(770.79 910.95) rotate(-180)"/><rect class="cls-52" x="368.49" y="432.21" width="9.39" height="17.89" transform="translate(746.36 882.3) rotate(-180)"/><rect class="cls-52" x="367.91" y="452.67" width="9.97" height="5.61" transform="translate(745.78 910.95) rotate(-180)"/><rect class="cls-54" x="352.55" y="432.21" width="12.04" height="26.07" transform="translate(717.13 890.49) rotate(-180)"/><line class="cls-52" x1="406.56" y1="460.16" x2="372.38" y2="385.93"/><polygon class="cls-52" points="381.92 428.92 381.92 412.25 388.59 428.92 381.92 428.92"/><polyline class="cls-53" points="377.88 426.83 377.88 410.76 367.79 410.76 367.79 425.65"/><polyline class="cls-53" points="364.38 425.67 364.38 409.94 364.13 409.85 355.13 428.65 379.7 428.65"/><line class="cls-53" x1="361.23" y1="426.78" x2="379.7" y2="426.78"/><circle class="cls-2" cx="361.49" cy="446.71" r="1.28"/><path class="cls-17" d="M596.7,517.66H792.36c12,0,21.77-3.23,21.77-7.19V496.56c0-4-9.8-7.19-21.77-7.19H601.62c-12,0-21.77,3.23-21.77,7.19v3.71c0,.9-2.95,4.64-7.86,4.64l-9,.23c-9.83,0-14,1.85-14,5.33h0c0,4,9.8,7.19,21.77,7.19H766.38"/><polygon class="cls-55" points="1174.25 432.26 1158.57 432.26 1166.41 396.42 1174.25 432.26"/><line class="cls-26" x1="1166.41" y1="413.54" x2="1166.41" y2="440.1"/><line class="cls-26" x1="1166.21" y1="421.56" x2="1164.79" y2="419.25"/><line class="cls-26" x1="1166.41" y1="426.31" x2="1169.54" y2="421.15"/><line class="cls-26" x1="1166.21" y1="429.64" x2="1163.08" y2="424.48"/><line class="cls-39" x1="1131.71" y1="439.99" x2="1206.21" y2="439.99"/><polygon class="cls-56" points="294.47 458.48 278.8 458.48 286.63 422.64 294.47 458.48"/><line class="cls-39" x1="286.63" y1="439.76" x2="286.63" y2="466.32"/><line class="cls-39" x1="286.43" y1="447.78" x2="285.01" y2="445.47"/><line class="cls-39" x1="286.63" y1="452.54" x2="289.76" y2="447.38"/><line class="cls-39" x1="286.43" y1="455.87" x2="283.3" y2="450.71"/><path class="cls-26" d="M837.65,452.3v-57c61.16,34.26,164.13,34.95,228.28.8a.57.57,0,0,1,.85.41V452.3"/><path class="cls-26" d="M799,415.38c18.41-4.89,34.33-14.19,38.65-20.07"/><line class="cls-26" x1="798.76" y1="427.3" x2="1139.36" y2="427.3"/><line class="cls-26" x1="798.97" y1="431.81" x2="1138.45" y2="431.81"/><line class="cls-26" x1="821.52" y1="406.76" x2="821.52" y2="427.3"/><line class="cls-26" x1="805.16" y1="413.75" x2="805.16" y2="427.3"/><path class="cls-26" d="M788.59,427.3"/><path class="cls-26" d="M788.59,417.29"/><line class="cls-26" x1="854.12" y1="404.63" x2="854.12" y2="425.5"/><line class="cls-26" x1="837.76" y1="411.71" x2="837.76" y2="421.72"/><line class="cls-26" x1="870.48" y1="410.15" x2="870.48" y2="425.5"/><line class="cls-26" x1="887.05" y1="415.3" x2="887.05" y2="425.32"/><line class="cls-26" x1="919.77" y1="420.16" x2="919.77" y2="425.5"/><line class="cls-26" x1="903.41" y1="419.41" x2="903.41" y2="427.35"/><line class="cls-26" x1="936.34" y1="421.72" x2="936.34" y2="425.55"/><line class="cls-26" x1="969.27" y1="422.29" x2="969.27" y2="426.73"/><line class="cls-26" x1="952.7" y1="421.72" x2="952.7" y2="426.73"/><line class="cls-26" x1="1001.98" y1="416.95" x2="1001.98" y2="427.39"/><line class="cls-26" x1="985.63" y1="420.31" x2="985.63" y2="426.97"/><line class="cls-26" x1="1018.56" y1="414.6" x2="1018.56" y2="426.73"/><line class="cls-26" x1="1051.27" y1="404.63" x2="1051.27" y2="426.72"/><line class="cls-26" x1="1034.91" y1="409.61" x2="1034.91" y2="426.72"/><path class="cls-26" d="M1067.17,452.3v-57c24,13.46,54.54,21.74,86.6,24.76"/><line class="cls-26" x1="1082.86" y1="403.85" x2="1082.86" y2="426.54"/><line class="cls-26" x1="1099.22" y1="409.36" x2="1099.22" y2="426.54"/><line class="cls-26" x1="1115.79" y1="414.05" x2="1115.79" y2="426.1"/><line class="cls-26" x1="1148.5" y1="420.94" x2="1148.5" y2="421.72"/><line class="cls-26" x1="1132.15" y1="418.62" x2="1132.15" y2="426.57"/><line class="cls-28" x1="1192.24" y1="400.12" x2="1182.07" y2="400.12"/><line class="cls-28" x1="1192.24" y1="404.23" x2="1181.59" y2="404.23"/><line class="cls-28" x1="1190.3" y1="373.06" x2="1181.59" y2="373.06"/><line class="cls-28" x1="1193.21" y1="373.06" x2="1191.27" y2="373.06"/><line class="cls-28" x1="1192.24" y1="361.35" x2="1181.59" y2="361.35"/><line class="cls-28" x1="1210.55" y1="358.47" x2="1238.72" y2="358.47"/><line class="cls-28" x1="1244.53" y1="371.84" x2="1254.69" y2="371.84"/><line class="cls-28" x1="1244.53" y1="376.86" x2="1255.18" y2="376.86"/><line class="cls-28" x1="1246.95" y1="393.38" x2="1255.66" y2="393.38"/><line class="cls-28" x1="1243.13" y1="393.38" x2="1245.07" y2="393.38"/><line class="cls-28" x1="1245.98" y1="400.43" x2="1256.15" y2="400.43"/><line class="cls-28" x1="1245.01" y1="404.54" x2="1255.66" y2="404.54"/><line class="cls-50" x1="806.16" y1="528.28" x2="816.2" y2="528.28"/><line class="cls-50" x1="822.58" y1="528.28" x2="828.06" y2="528.28"/><line class="cls-50" x1="816.2" y1="538.32" x2="822.58" y2="538.32"/><line class="cls-50" x1="827.15" y1="538.32" x2="832.62" y2="538.32"/><line class="cls-50" x1="632.47" y1="542.51" x2="656.96" y2="542.51"/><line class="cls-50" x1="662.06" y1="542.51" x2="665.12" y2="542.51"/><line class="cls-50" x1="670.22" y1="542.51" x2="690.63" y2="542.51"/><line class="cls-50" x1="695.73" y1="542.51" x2="698.79" y2="542.51"/><line class="cls-50" x1="700.33" y1="534.67" x2="711.55" y2="534.67"/><line class="cls-50" x1="573.16" y1="542.51" x2="597.65" y2="542.51"/><line class="cls-50" x1="602.75" y1="542.51" x2="605.81" y2="542.51"/><line class="cls-50" x1="610.91" y1="542.51" x2="631.32" y2="542.51"/><line class="cls-50" x1="636.42" y1="542.51" x2="639.48" y2="542.51"/><line class="cls-39" x1="575.28" y1="504.47" x2="788.02" y2="504.47"/><rect class="cls-37" x="788.59" y="419.93" width="10.18" height="68.43"/><line class="cls-48" x1="597.35" y1="399.43" x2="613.53" y2="399.43"/><line class="cls-48" x1="754.66" y1="399.43" x2="793.32" y2="399.43"/><polygon class="cls-56" points="491.71 467.88 476.03 467.88 483.87 432.04 491.71 467.88"/><line class="cls-39" x1="483.87" y1="449.17" x2="483.87" y2="475.72"/><line class="cls-39" x1="483.67" y1="457.18" x2="482.24" y2="454.87"/><line class="cls-39" x1="483.87" y1="461.94" x2="487" y2="456.78"/><line class="cls-39" x1="483.67" y1="465.27" x2="480.54" y2="460.11"/><path class="cls-3" d="M1193.9,428.37a5.5,5.5,0,0,1,3.14,10,3.54,3.54,0,0,0,.58-1.95,3.6,3.6,0,0,0-3.59-3.59h-1.8a7.12,7.12,0,0,0-1.06-3.75A5.43,5.43,0,0,1,1193.9,428.37Z"/><path class="cls-3" d="M1197.62,436.44a3.54,3.54,0,0,1-.58,1.95,5.5,5.5,0,0,1-6.89-.48,7.15,7.15,0,0,0,2.08-5.05h1.8A3.6,3.6,0,0,1,1197.62,436.44Z"/><path class="cls-9" d="M1197,438.39a3.57,3.57,0,0,1-.48.59,3.06,3.06,0,0,1-.42.36,6.09,6.09,0,0,1-6.77-.74,6.82,6.82,0,0,0,.78-.69,5.5,5.5,0,0,0,6.89.48Z"/><path class="cls-9" d="M1196.14,439.33a3.53,3.53,0,0,1-2.11.7h-.72A6,6,0,0,0,1196.14,439.33Z"/><path class="cls-9" d="M1193.31,440h-8.26a7.15,7.15,0,0,0,4.32-1.44A6.06,6.06,0,0,0,1193.31,440Z"/><path class="cls-3" d="M1192.23,432.85h-3.74a5.49,5.49,0,0,1,2.68-3.75A7.12,7.12,0,0,1,1192.23,432.85Z"/><path class="cls-3" d="M1188.49,432.85h3.74a7.15,7.15,0,0,1-2.08,5.05,5.48,5.48,0,0,1-1.76-4A5.34,5.34,0,0,1,1188.49,432.85Z"/><path class="cls-3" d="M1190.7,428.41a6.14,6.14,0,0,1,.48.69,5.49,5.49,0,0,0-2.68,3.75h-1.19A6.1,6.1,0,0,1,1190.7,428.41Z"/><path class="cls-3" d="M1185.05,425.67a7.16,7.16,0,0,1,5.64,2.74,6.1,6.1,0,0,0-3.39,4.44h-6a4.8,4.8,0,0,0-3.12-2.23A7.18,7.18,0,0,1,1185.05,425.67Z"/><path class="cls-3" d="M1188.4,433.87a5.48,5.48,0,0,0,1.76,4,6.82,6.82,0,0,1-.78.69,6.08,6.08,0,0,1-2.16-4.66,6,6,0,0,1,.1-1.08h1.19A5.34,5.34,0,0,0,1188.4,433.87Z"/><path class="cls-3" d="M1187.21,433.93a6.08,6.08,0,0,0,2.16,4.66,7.18,7.18,0,0,1-8.63,0,4.8,4.8,0,0,0,.61-5.74h6A6,6,0,0,0,1187.21,433.93Z"/><path class="cls-9" d="M1185.05,440h-6.9a4.76,4.76,0,0,0,2.58-1.44A7.13,7.13,0,0,0,1185.05,440Z"/><path class="cls-3" d="M1181.35,432.85a4.8,4.8,0,0,1-.61,5.74l-.33-.27a4.67,4.67,0,0,0,.32-5.47Z"/><path class="cls-3" d="M1181.35,432.85h-.62a4.67,4.67,0,0,0-2.58-2,2.45,2.45,0,0,1,.08-.28A4.8,4.8,0,0,1,1181.35,432.85Z"/><path class="cls-3" d="M1180.73,432.85a4.67,4.67,0,0,1-.32,5.47,7.15,7.15,0,0,1-2.53-5.47Z"/><path class="cls-3" d="M1180.74,438.59a4.76,4.76,0,0,1-2.58,1.44h-1.36a4.66,4.66,0,0,0,3.61-1.71Z"/><path class="cls-3" d="M1180.73,432.85h-2.85a7,7,0,0,1,.27-2A4.67,4.67,0,0,1,1180.73,432.85Z"/><path class="cls-3" d="M1180.41,438.32a4.66,4.66,0,0,1-3.61,1.71h-.37a3.61,3.61,0,0,1-3.22-3.57,3.6,3.6,0,0,1,3.59-3.59h1.08A7.15,7.15,0,0,0,1180.41,438.32Z"/><path class="cls-3" d="M1178.23,430.62a2.45,2.45,0,0,0-.08.28,4.65,4.65,0,0,0-1.35-.2,4.57,4.57,0,0,0-1.72.33,4.74,4.74,0,0,1,2.16-.51A4.8,4.8,0,0,1,1178.23,430.62Z"/><path class="cls-3" d="M1176.79,440h1.36A4.83,4.83,0,0,1,1176,440l.4,0h.37Z"/><path class="cls-3" d="M1178.14,430.89a7,7,0,0,0-.27,2h-1.08a3.59,3.59,0,0,0-.37,7.16l-.4,0h0a4.8,4.8,0,0,1-.94-8.94,4.57,4.57,0,0,1,1.72-.33A4.65,4.65,0,0,1,1178.14,430.89Z"/><path class="cls-3" d="M1176.57,440h0Z"/><path class="cls-7" d="M1176,440a4.67,4.67,0,0,1-.94-8.94,4.57,4.57,0,0,1,1.72-.33,4.65,4.65,0,0,1,1.35.2"/><path class="cls-7" d="M1176.43,440l-.4,0"/><path class="cls-7" d="M1176.79,440h-.22"/><path class="cls-7" d="M1178.14,430.89a2.45,2.45,0,0,1,.08-.28,7.18,7.18,0,0,1,12.47-2.2"/><path class="cls-7" d="M1190.7,428.41a6.1,6.1,0,1,1,2.61,11.62"/><path class="cls-7" d="M1176.79,440h-.37"/><path class="cls-7" d="M1196.14,439.33a3.53,3.53,0,0,1-2.11.7h-9"/><line class="cls-57" x1="1185.28" y1="434.05" x2="1185.28" y2="439.73"/><line class="cls-57" x1="1185.08" y1="439.71" x2="1183.64" y2="437.39"/><line class="cls-57" x1="1178.15" y1="437.55" x2="1178.13" y2="440.12"/><path class="cls-57" d="M1177.93,440.1"/><line class="cls-57" x1="1193.23" y1="437.59" x2="1192.76" y2="440.12"/><path class="cls-57" d="M1192.57,440.07"/><line class="cls-58" x1="378.61" y1="372.39" x2="376.64" y2="376.78"/><polygon class="cls-58" points="355.81 391.09 348.95 403.09 348.95 374.58 355.81 374.58 355.81 391.09"/><line class="cls-59" x1="355.8" y1="371.7" x2="348.64" y2="371.7"/><path class="cls-25" d="M376,373.3H360.13l-3.16,5,0,13.26-8.15,13.83c-.22.36-2.06,2.07-2,1.65l.27-10.19-31.73,62.28,21.72.83,40.39-86.64Z"/><path class="cls-37" d="M609.35,380.46l-5.8,16.75h-9.09l12-27.34C607.61,368.48,609.74,368.23,609.35,380.46Z"/><path class="cls-37" d="M598.5,400.27l-.43,17.93h-9.44l.52-19.64C590.34,397.16,597.32,398.88,598.5,400.27Z"/><rect class="cls-4" x="594.19" y="425.06" width="1.68" height="11.18"/><rect class="cls-4" x="594.15" y="455.84" width="1.71" height="20.18"/><rect class="cls-4" x="657.9" y="373.92" width="5.89" height="11.08"/><rect class="cls-4" x="624.22" y="373.68" width="5.84" height="11.33"/><polyline class="cls-32" points="666.38 385 666.38 373.86 658.15 373.86 658.15 387.05 667.03 387.05"/><line class="cls-32" x1="661.44" y1="385" x2="668.68" y2="385"/><polyline class="cls-32" points="632.7 385 632.7 373.86 624.47 373.86 624.47 387.05 633.35 387.05"/><line class="cls-32" x1="627.76" y1="385" x2="635" y2="385"/><rect class="cls-4" x="707.23" y="383.27" width="6.72" height="12.39"/><line class="cls-32" x1="706.43" y1="389.5" x2="716.54" y2="389.5"/><rect class="cls-4" x="641.74" y="331.64" width="6.72" height="12.39"/><line class="cls-35" x1="640.89" y1="337.83" x2="651" y2="337.83"/><circle class="cls-9" cx="694.67" cy="493.16" r="10.09"/><line class="cls-60" x1="807.07" y1="526.46" x2="817.11" y2="526.46"/><line class="cls-60" x1="823.5" y1="526.46" x2="828.97" y2="526.46"/><line class="cls-60" x1="817.11" y1="536.5" x2="823.5" y2="536.5"/><line class="cls-60" x1="828.06" y1="536.5" x2="833.53" y2="536.5"/><ellipse class="cls-10" cx="611.61" cy="495.65" rx="16.4" ry="8.14"/><path class="cls-3" d="M695.71,497.65a6.09,6.09,0,0,1-1.15,3.56,45.51,45.51,0,0,1-15.84,2.59,46,46,0,0,1-15.53-2.47c6.86-2.24,11.28-5.81,11.28-9.82h15.09A6.16,6.16,0,0,1,695.71,497.65Z"/><path class="cls-3" d="M694.56,501.2a6.08,6.08,0,0,1-5,2.59H678.72A45.51,45.51,0,0,0,694.56,501.2Z"/><path class="cls-3" d="M678.72,503.79H646.17a55.8,55.8,0,0,0,17-2.47A46,46,0,0,0,678.72,503.79Z"/><path class="cls-3" d="M674.48,491.5H655c1.37-3.37,6.47-6.18,13.38-7.59C672.21,486,674.48,488.64,674.48,491.5Z"/><path class="cls-3" d="M655,491.5h19.43c0,4-4.42,7.58-11.28,9.82-5.22-1.91-8.54-4.77-8.54-8A4.67,4.67,0,0,1,655,491.5Z"/><path class="cls-3" d="M646.17,479.21c9,0,17.07,1.84,22.25,4.69-6.91,1.42-12,4.23-13.38,7.59H629.11a24.2,24.2,0,0,0-10.18-3.34C622.28,483,633.2,479.21,646.17,479.21Z"/><path class="cls-3" d="M654.66,493.35c0,3.2,3.31,6.06,8.54,8a55.8,55.8,0,0,1-17,2.47,54.14,54.14,0,0,1-18.32-2.92c2.59-1.38,4.16-3.14,4.16-5.06,0-1.59-1.06-3.06-2.9-4.3H655A4.67,4.67,0,0,0,654.66,493.35Z"/><path class="cls-3" d="M646.17,503.79H613.61c5.73,0,10.86-1.14,14.24-2.92A54.14,54.14,0,0,0,646.17,503.79Z"/><path class="cls-3" d="M629.11,491.5c1.84,1.24,2.9,2.72,2.9,4.3,0,1.92-1.57,3.69-4.16,5.06-6.11-2.25-10-5.61-10-9.36Z"/><path class="cls-3" d="M629.11,491.5H617.86a6,6,0,0,1,1.08-3.34A24.2,24.2,0,0,1,629.11,491.5Z"/><path class="cls-3" d="M627.85,500.87c-3.38,1.79-8.51,2.92-14.24,2.92a33.93,33.93,0,0,1-12.74-2.23,6.14,6.14,0,0,1,4.73-10.06h12.26C617.86,495.26,621.74,498.62,627.85,500.87Z"/><path class="cls-3" d="M613.61,503.79h-8a6.13,6.13,0,0,1-4.73-2.23A33.93,33.93,0,0,0,613.61,503.79Z"/><path class="cls-7" d="M613.61,503.79a33.93,33.93,0,0,1-12.74-2.23c-3.5-1.45-5.66-3.5-5.66-5.76,0-4.41,8.24-8,18.4-8a39.89,39.89,0,0,1,5.32.34"/><path class="cls-7" d="M618.94,488.16c3.34-5.17,14.27-8.95,27.23-8.95,9,0,17.07,1.84,22.25,4.69"/><path class="cls-7" d="M668.42,483.91a51.21,51.21,0,0,1,10.3-1c13.29,0,24.06,4.68,24.06,10.45,0,3.13-3.18,5.95-8.22,7.86a45.51,45.51,0,0,1-15.84,2.59"/><path class="cls-7" d="M613.61,503.79h-8a6.13,6.13,0,0,1-4.73-2.23"/><path class="cls-7" d="M694.56,501.2a6.08,6.08,0,0,1-5,2.59h-43.4"/><line class="cls-57" x1="647.06" y1="493.56" x2="647.06" y2="503.28"/><line class="cls-57" x1="646.26" y1="503.25" x2="640.59" y2="499.27"/><line class="cls-57" x1="618.96" y1="499.54" x2="618.87" y2="503.95"/><path class="cls-57" d="M618.07,503.92"/><line class="cls-57" x1="678.42" y1="499.61" x2="676.57" y2="503.94"/><path class="cls-57" d="M675.8,503.85"/><ellipse class="cls-10" cx="693.87" cy="493.26" rx="10.88" ry="10.03"/><path class="cls-3" d="M695.67,491.5A6.14,6.14,0,0,1,700,502a6.08,6.08,0,0,1-.67.58h0a10.43,10.43,0,0,1-11.62-1.26,12.27,12.27,0,0,0,4.9-9.82Z"/><path class="cls-3" d="M699.32,502.58a6.08,6.08,0,0,1-3.65,1.21h-1.23A10.37,10.37,0,0,0,699.32,502.58Z"/><path class="cls-3" d="M694.44,503.79H680.31a12.24,12.24,0,0,0,7.39-2.47A10.39,10.39,0,0,0,694.44,503.79Z"/><path class="cls-3" d="M692.6,491.5h-8.44a10.43,10.43,0,0,1,5.81-7.59A12.24,12.24,0,0,1,692.6,491.5Z"/><path class="cls-3" d="M684.16,491.5h8.44a12.27,12.27,0,0,1-4.9,9.82,10.4,10.4,0,0,1-3.71-8A10.13,10.13,0,0,1,684.16,491.5Z"/><path class="cls-3" d="M680.31,479.21a12.27,12.27,0,0,1,9.66,4.69,10.43,10.43,0,0,0-5.81,7.59H672.91a8,8,0,0,0-4.42-3.34A12.28,12.28,0,0,1,680.31,479.21Z"/><path class="cls-3" d="M684,493.35a10.4,10.4,0,0,0,3.71,8,12.28,12.28,0,0,1-15.34-.45,8,8,0,0,0,.55-9.36h11.26A10.13,10.13,0,0,0,684,493.35Z"/><path class="cls-3" d="M680.31,503.79H666.18a8,8,0,0,0,6.18-2.92A12.23,12.23,0,0,0,680.31,503.79Z"/><path class="cls-3" d="M672.91,491.5a8,8,0,0,1-.55,9.36A12.24,12.24,0,0,1,668,491.5Z"/><path class="cls-3" d="M672.91,491.5H668a12,12,0,0,1,.47-3.34A8,8,0,0,1,672.91,491.5Z"/><path class="cls-3" d="M672.36,500.87a8,8,0,0,1-6.18,2.92h-.38l-.25,0a6.14,6.14,0,0,1-3.71-10.45,6.1,6.1,0,0,1,4.34-1.81H668A12.24,12.24,0,0,0,672.36,500.87Z"/><path class="cls-3" d="M665.8,503.78h0Z"/><path class="cls-7" d="M665.55,503.76a8,8,0,0,1,.63-15.95,7.76,7.76,0,0,1,2.31.34"/><path class="cls-7" d="M666.18,503.79h-.38"/><path class="cls-7" d="M668.49,488.16A12.28,12.28,0,0,1,690,483.91"/><path class="cls-7" d="M699.32,502.58a10.37,10.37,0,0,1-4.88,1.21"/><path class="cls-7" d="M690,483.91a10.44,10.44,0,0,1,9.37,18.66"/><path class="cls-7" d="M699.34,502.57h0a6.08,6.08,0,0,1-3.65,1.21H680.31"/><path class="cls-7" d="M666.18,503.79h-.38l-.25,0"/><line class="cls-57" x1="680.7" y1="493.56" x2="680.7" y2="503.28"/><line class="cls-57" x1="680.35" y1="503.25" x2="677.89" y2="499.27"/><line class="cls-57" x1="668.5" y1="499.54" x2="668.46" y2="503.95"/><path class="cls-57" d="M668.11,503.92"/><line class="cls-57" x1="694.31" y1="499.61" x2="693.51" y2="503.94"/><path class="cls-57" d="M693.17,503.85"/><line class="cls-50" x1="998.25" y1="493.13" x2="1011.51" y2="493.13"/><line class="cls-50" x1="1018.66" y1="493.13" x2="1021.72" y2="493.13"/><line class="cls-50" x1="1026.82" y1="493.13" x2="1029.88" y2="493.13"/><line class="cls-61" x1="814.81" y1="595.95" x2="822.11" y2="595.95"/><line class="cls-61" x1="833.06" y1="595.95" x2="897.84" y2="595.95"/><line class="cls-62" x1="561.27" y1="466.66" x2="565.83" y2="466.66"/><line class="cls-62" x1="568.37" y1="466.66" x2="585.96" y2="466.66"/><line class="cls-60" x1="975.49" y1="575.87" x2="988.75" y2="575.87"/><line class="cls-60" x1="995.9" y1="575.87" x2="998.96" y2="575.87"/><line class="cls-60" x1="1004.06" y1="575.87" x2="1007.12" y2="575.87"/><line class="cls-60" x1="943.35" y1="593.72" x2="967.84" y2="593.72"/><line class="cls-60" x1="972.94" y1="593.72" x2="976" y2="593.72"/><line class="cls-60" x1="981.1" y1="593.72" x2="1001.51" y2="593.72"/><line class="cls-60" x1="1006.61" y1="593.72" x2="1009.67" y2="593.72"/><line class="cls-60" x1="1011.2" y1="583.14" x2="1022.43" y2="583.14"/><line class="cls-60" x1="1025.49" y1="583.14" x2="1028.55" y2="583.14"/><line class="cls-60" x1="1030.59" y1="583.14" x2="1043.86" y2="583.14"/><g id="_Group_" data-name="&lt;Group&gt;"><path class="cls-48" d="M433.24,506.65"/><path class="cls-12" d="M455.33,483.59"/><path class="cls-12" d="M455.33,483.59H18c-12.37,0-11.55-2-11.55-4.54V466.63C6,465,5.66,465.76,18,465.76H450.26c12.37,0,22.5,2,22.5,4.53v2.34c0,.47,2.16,2.24,5.89,2.76a14.38,14.38,0,0,0,2.24.16l61.31.15c10.17,0,14.52,1.17,14.52,3.36,0,1.25-2.54,2.38-6.61,3.2-3.82.77-61,1.27-66.73,1.32Z"/><path class="cls-12" d="M436.12,503.33"/><path class="cls-12" d="M436.12,509.48"/></g><line class="cls-49" x1="528.49" y1="491.98" x2="533.05" y2="491.98"/><line class="cls-49" x1="536.5" y1="491.98" x2="554.09" y2="491.98"/><line class="cls-62" x1="530.33" y1="491.07" x2="534.89" y2="491.07"/><line class="cls-62" x1="537.43" y1="491.07" x2="555.02" y2="491.07"/><line class="cls-63" x1="110.94" y1="415.06" x2="110.94" y2="465.95"/><polygon class="cls-64" points="203.53 404.67 215.85 404.37 246.25 369.76 234.66 371.18 203.53 404.67"/><polyline class="cls-65" points="111.63 415.06 219.86 414.91 219.5 464.91 111.7 465.1"/><polygon class="cls-66" points="213.97 415.05 129.98 414.75 180.81 369.76 211.2 370.37 223.7 382.43 202.05 404.95 213.97 415.05"/><polygon class="cls-65" points="216.59 464.71 217.11 404.07 246.22 370.13 273.2 410.83 272.68 464.15 216.59 464.71"/><path class="cls-67" d="M221.73,383.94"/><polyline class="cls-68" points="198.82 454.8 198.82 426.79 184.08 426.79 184.08 454.8"/><circle class="cls-69" cx="195.35" cy="444.95" r="1.72"/><polygon class="cls-63" points="203.23 404.67 216.92 404.37 245.73 369.76 234.45 371.18 203.23 404.67"/><line class="cls-70" x1="131.68" y1="414.91" x2="131.68" y2="466.14"/><polyline class="cls-71" points="208.78 457.89 208.78 454.8 120.66 454.8 120.66 458.41"/><polyline class="cls-71" points="213.4 461.5 213.4 458.41 116.36 458.41 116.36 461.5"/><line class="cls-71" x1="203.23" y1="453.54" x2="203.84" y2="416.27"/><polygon class="cls-72" points="111.74 415.06 129.67 414.63 180.27 369.76 174.29 370.13 111.74 415.06"/><line class="cls-73" x1="177.84" y1="453.54" x2="178.44" y2="416.27"/><polyline class="cls-74" points="243.91 418.88 243.91 391.7 231.79 391.7 231.79 418.88"/><ellipse class="cls-74" cx="241.06" cy="409.32" rx="1.41" ry="1.67"/><polyline class="cls-74" points="243.91 418.88 243.91 391.7 256.03 391.7 256.03 418.88"/><ellipse class="cls-74" cx="246.76" cy="409.32" rx="1.41" ry="1.67"/><line class="cls-71" x1="216.64" y1="404.79" x2="273.39" y2="404.85"/><line class="cls-71" x1="219.86" y1="403.42" x2="219.86" y2="418.73"/><line class="cls-71" x1="224.73" y1="403.42" x2="224.73" y2="418.73"/><line class="cls-71" x1="229.59" y1="403.42" x2="229.59" y2="418.73"/><line class="cls-71" x1="234.46" y1="403.42" x2="234.46" y2="418.73"/><line class="cls-71" x1="239.33" y1="403.42" x2="239.33" y2="418.73"/><line class="cls-71" x1="244.19" y1="403.42" x2="244.19" y2="418.73"/><line class="cls-71" x1="249.06" y1="403.42" x2="249.06" y2="418.73"/><line class="cls-71" x1="253.93" y1="403.42" x2="253.93" y2="418.73"/><line class="cls-71" x1="258.79" y1="403.42" x2="258.79" y2="418.73"/><line class="cls-71" x1="263.66" y1="403.42" x2="263.66" y2="418.73"/><line class="cls-71" x1="268.52" y1="403.42" x2="268.52" y2="418.73"/><line class="cls-71" x1="215.21" y1="418.83" x2="272.54" y2="418.89"/><line class="cls-71" x1="273.36" y1="403.42" x2="273.36" y2="418.73"/><line class="cls-71" x1="217.71" y1="403.42" x2="217.71" y2="418.73"/><line class="cls-71" x1="216.72" y1="404.79" x2="273.47" y2="404.85"/><line class="cls-71" x1="222.01" y1="403.42" x2="222.01" y2="418.73"/><line class="cls-71" x1="226.87" y1="403.42" x2="226.87" y2="418.73"/><line class="cls-71" x1="231.74" y1="403.42" x2="231.74" y2="418.73"/><line class="cls-71" x1="236.61" y1="403.42" x2="236.61" y2="418.73"/><line class="cls-71" x1="241.47" y1="403.42" x2="241.47" y2="418.73"/><line class="cls-71" x1="246.34" y1="403.42" x2="246.34" y2="418.73"/><line class="cls-71" x1="251.21" y1="403.42" x2="251.21" y2="418.73"/><line class="cls-71" x1="256.07" y1="403.42" x2="256.07" y2="418.73"/><line class="cls-71" x1="260.94" y1="403.42" x2="260.94" y2="418.73"/><line class="cls-71" x1="265.81" y1="403.42" x2="265.81" y2="418.73"/><line class="cls-71" x1="270.67" y1="403.42" x2="270.67" y2="418.73"/><line class="cls-71" x1="216.84" y1="418.83" x2="273.14" y2="418.89"/><polygon class="cls-20" points="176.63 388.35 183.85 388.35 183.85 402.75 176.63 388.35"/><path class="cls-75" d="M190.2,376.23l-6.55,11.33a.35.35,0,0,0,.3.53h13.1a.35.35,0,0,0,.3-.53l-6.55-11.33A.35.35,0,0,0,190.2,376.23Z"/><polygon class="cls-76" points="176.65 388.17 183.34 387.85 190.45 375.92 183.98 377.27 176.65 388.17"/><g id="window-3" data-name="window"><polyline class="cls-65" points="197.33 401.26 197.33 388.3 184.15 388.3 184.15 403.64 198.38 403.64"/><line class="cls-65" x1="187.62" y1="401.26" x2="199.21" y2="401.26"/></g><line class="cls-65" x1="184.32" y1="393.67" x2="196.77" y2="393.67"/><line class="cls-65" x1="191.23" y1="393.67" x2="191.23" y2="388.25"/><rect class="cls-4" x="184.75" y="388.02" width="10.59" height="13.37"/><g id="window-4" data-name="window"><polyline class="cls-71" points="197.33 401.26 197.33 388.3 184.15 388.3 184.15 403.64 198.38 403.64"/><line class="cls-71" x1="187.62" y1="401.26" x2="199.21" y2="401.26"/></g><line class="cls-71" x1="184.32" y1="393.67" x2="196.77" y2="393.67"/><line class="cls-71" x1="191.23" y1="393.67" x2="191.23" y2="388.25"/><line class="cls-77" x1="176.65" y1="388.17" x2="182.45" y2="401.24"/><rect class="cls-4" x="230.37" y="430" width="26.2" height="18.58"/><rect class="cls-71" x="231.01" y="429.13" width="27.95" height="22"/><line class="cls-71" x1="239.48" y1="451.13" x2="239.48" y2="429.13"/><line class="cls-71" x1="250.57" y1="451.12" x2="250.57" y2="429.12"/><line class="cls-71" x1="230.74" y1="436.52" x2="239.25" y2="436.52"/><line class="cls-71" x1="250.28" y1="436.73" x2="258.96" y2="436.73"/><line class="cls-71" x1="253.26" y1="429.13" x2="253.26" y2="436.52"/><line class="cls-71" x1="256.36" y1="429.13" x2="256.36" y2="436.52"/><line class="cls-71" x1="233.84" y1="429.13" x2="233.84" y2="436.52"/><line class="cls-71" x1="236.94" y1="429.13" x2="236.94" y2="436.52"/><line class="cls-71" x1="230.74" y1="433.02" x2="239.25" y2="433.02"/><line class="cls-71" x1="250.28" y1="433.23" x2="258.96" y2="433.23"/><rect class="cls-4" x="138.16" y="426.13" width="33.94" height="16.07"/><rect class="cls-71" x="137.9" y="426.79" width="36.16" height="17.62"/><line class="cls-71" x1="147.53" y1="444.41" x2="147.53" y2="426.79"/><line class="cls-71" x1="163.21" y1="444.41" x2="163.21" y2="426.79"/><line class="cls-71" x1="137.55" y1="432.71" x2="147.18" y2="432.71"/><line class="cls-71" x1="162.82" y1="432.88" x2="172.1" y2="432.88"/><line class="cls-78" x1="142.37" y1="426.79" x2="142.37" y2="432.88"/><line class="cls-79" x1="168.45" y1="426.79" x2="168.45" y2="432.88"/><rect class="cls-4" x="116.36" y="427.15" width="6.44" height="15.03"/><g id="window-5" data-name="window"><polyline class="cls-71" points="125.07 442.18 125.07 427.17 116.49 427.17 116.49 444.95 125.75 444.95"/><line class="cls-71" x1="119.92" y1="442.18" x2="127.47" y2="442.18"/></g><line class="cls-65" x1="116.6" y1="433.39" x2="124.71" y2="433.39"/><line class="cls-65" x1="121.1" y1="433.39" x2="121.1" y2="427.12"/><polyline class="cls-71" points="216.59 464.56 216.59 461.47 111.63 461.47 111.63 464.56"/><ellipse class="cls-80" cx="137.86" cy="461.09" rx="4.82" ry="4.44"/><ellipse class="cls-10" cx="126.86" cy="462.02" rx="4.82" ry="3.52"/><path class="cls-10" d="M141.38,463v.11a2.66,2.66,0,0,1-1,2.06,4.62,4.62,0,0,1-5.27-.49,5.43,5.43,0,0,0,2.17-4.35h1.42A2.67,2.67,0,0,1,141.38,463Z"/><path class="cls-10" d="M140.4,465.15a2.64,2.64,0,0,1-1.68.6h-.6A4.56,4.56,0,0,0,140.4,465.15Z"/><path class="cls-10" d="M138.12,465.75h-6.26a5.42,5.42,0,0,0,3.27-1.09A4.59,4.59,0,0,0,138.12,465.75Z"/><path class="cls-10" d="M137.3,460.31h-3.74a4.62,4.62,0,0,1,2.57-3.36A5.42,5.42,0,0,1,137.3,460.31Z"/><path class="cls-10" d="M133.57,460.31h3.74a5.43,5.43,0,0,1-2.17,4.35,4.6,4.6,0,0,1-1.64-3.53A4.49,4.49,0,0,1,133.57,460.31Z"/><path class="cls-10" d="M131.86,454.87a5.43,5.43,0,0,1,4.28,2.08,4.62,4.62,0,0,0-2.57,3.36h-5a3.52,3.52,0,0,0-2-1.48A5.44,5.44,0,0,1,131.86,454.87Z"/><path class="cls-10" d="M133.49,461.13a4.6,4.6,0,0,0,1.64,3.53,5.44,5.44,0,0,1-6.79-.2,3.54,3.54,0,0,0,.24-4.15h5A4.49,4.49,0,0,0,133.49,461.13Z"/><path class="cls-10" d="M131.86,465.75H125.6a3.53,3.53,0,0,0,2.74-1.3A5.41,5.41,0,0,0,131.86,465.75Z"/><path class="cls-10" d="M128.58,460.31a3.54,3.54,0,0,1-.24,4.15,5.42,5.42,0,0,1-1.92-4.15Z"/><path class="cls-10" d="M128.58,460.31h-2.16a5.33,5.33,0,0,1,.21-1.48A3.52,3.52,0,0,1,128.58,460.31Z"/><path class="cls-10" d="M128.34,464.46a3.53,3.53,0,0,1-2.74,1.3l-.36,0-.13,0a2.67,2.67,0,0,1-2.23-2.63V463a2.67,2.67,0,0,1,2.66-2.66h.87A5.42,5.42,0,0,0,128.34,464.46Z"/><path class="cls-10" d="M125.6,465.75h-.06l-.3,0Z"/><path class="cls-81" d="M125.12,465.72a3.54,3.54,0,0,1,.49-7,3.44,3.44,0,0,1,1,.15"/><path class="cls-81" d="M125.6,465.75l-.36,0"/><path class="cls-81" d="M126.63,458.83a5.44,5.44,0,0,1,9.51-1.88"/><path class="cls-81" d="M136.14,456.95a4.62,4.62,0,0,1,4.26,8.2"/><path class="cls-81" d="M125.6,465.75h-.06l-.3,0-.13,0"/><path class="cls-81" d="M140.4,465.15a2.64,2.64,0,0,1-1.68.6h-6.86"/><line class="cls-82" x1="132.03" y1="461.22" x2="132.03" y2="465.53"/><line class="cls-82" x1="131.88" y1="465.51" x2="130.79" y2="463.75"/><line class="cls-82" x1="126.63" y1="463.87" x2="126.61" y2="465.82"/><path class="cls-82" d="M126.46,465.81"/><line class="cls-82" x1="138.06" y1="463.9" x2="137.7" y2="465.82"/><path class="cls-82" d="M137.55,465.78"/><line class="cls-81" x1="202.22" y1="405.03" x2="213.11" y2="414.33"/><polyline class="cls-81" points="223.7 382.43 211.2 369.76 180.81 369.76"/><polyline class="cls-81" points="110.94 414.8 174.84 369.76 180.87 369.76 129.29 414.8"/><ellipse class="cls-10" cx="220.42" cy="460.76" rx="6.3" ry="3.13"/><path class="cls-3" d="M252.74,460.62v1.81a1.73,1.73,0,0,1,0,.29h0a17,17,0,0,1-6.5,1.16,17.67,17.67,0,0,1-6-.95c2.63-.86,4.34-2.23,4.34-3.77h6.7A1.46,1.46,0,0,1,252.74,460.62Z"/><path class="cls-3" d="M246.21,463.89a17,17,0,0,0,6.5-1.16,1.47,1.47,0,0,1-1.43,1.16Z"/><path class="cls-3" d="M233.7,463.89a21.44,21.44,0,0,0,6.54-.95,17.67,17.67,0,0,0,6,.95Z"/><path class="cls-3" d="M244.58,459.17h-7.47c.53-1.29,2.49-2.37,5.14-2.92C243.71,457.05,244.58,458.07,244.58,459.17Z"/><path class="cls-3" d="M237.11,459.17h7.47c0,1.54-1.7,2.91-4.34,3.77-2-.73-3.28-1.83-3.28-3.07A1.79,1.79,0,0,1,237.11,459.17Z"/><path class="cls-3" d="M237,459.88c0,1.23,1.27,2.33,3.28,3.07a21.44,21.44,0,0,1-6.54.95,20.81,20.81,0,0,1-7-1.12c1-.53,1.6-1.21,1.6-1.95a2.11,2.11,0,0,0-1.12-1.65h10A1.79,1.79,0,0,0,237,459.88Z"/><path class="cls-3" d="M227.14,459.17a9.3,9.3,0,0,0-3.91-1.28c1.28-2,5.48-3.44,10.47-3.44a18.51,18.51,0,0,1,8.55,1.8c-2.65.55-4.61,1.62-5.14,2.92Z"/><path class="cls-3" d="M233.7,463.89H221.19a12.21,12.21,0,0,0,5.47-1.12A20.81,20.81,0,0,0,233.7,463.89Z"/><path class="cls-3" d="M227.14,459.17a2.11,2.11,0,0,1,1.12,1.65c0,.74-.6,1.42-1.6,1.95-2.35-.86-3.84-2.16-3.84-3.6Z"/><path class="cls-3" d="M222.82,459.17a2.3,2.3,0,0,1,.41-1.28,9.3,9.3,0,0,1,3.91,1.28Z"/><path class="cls-3" d="M217.2,463.89a1.46,1.46,0,0,1-1.4-1.08,12.31,12.31,0,0,0,5.39,1.08Z"/><path class="cls-3" d="M215.75,462.44v-1.81a1.46,1.46,0,0,1,1.45-1.45h5.62c0,1.44,1.49,2.73,3.84,3.6a13.91,13.91,0,0,1-10.86,0A1.39,1.39,0,0,1,215.75,462.44Z"/><path class="cls-17" d="M221.19,463.89a12.31,12.31,0,0,1-5.39-1.08c-1-.54-1.68-1.23-1.68-2,0-1.7,3.17-3.07,7.07-3.07a15.33,15.33,0,0,1,2,.13"/><path class="cls-17" d="M223.23,457.88c1.28-2,5.48-3.44,10.47-3.44a18.51,18.51,0,0,1,8.55,1.8"/><path class="cls-17" d="M252.71,462.73a17,17,0,0,1-6.5,1.16"/><path class="cls-17" d="M242.25,456.25a19.68,19.68,0,0,1,4-.39c5.11,0,9.25,1.8,9.25,4,0,1.12-1,2.13-2.75,2.85"/><path class="cls-17" d="M252.71,462.73h0a1.47,1.47,0,0,1-1.43,1.16H233.7"/><path class="cls-17" d="M221.19,463.89h-4a1.46,1.46,0,0,1-1.4-1.08"/><line class="cls-83" x1="234.04" y1="459.96" x2="234.04" y2="463.7"/><line class="cls-83" x1="233.73" y1="463.68" x2="231.55" y2="462.15"/><line class="cls-83" x1="223.24" y1="462.26" x2="223.21" y2="463.95"/><path class="cls-83" d="M222.9,463.94"/><line class="cls-83" x1="246.09" y1="462.28" x2="245.38" y2="463.95"/><path class="cls-83" d="M245.08,463.92"/><ellipse class="cls-10" cx="252.03" cy="459.85" rx="4.18" ry="3.85"/><path class="cls-3" d="M255.08,460.62v1.81a1.29,1.29,0,0,1,0,.32,4,4,0,0,1-5.39.19,4.72,4.72,0,0,0,1.88-3.77h2.09A1.46,1.46,0,0,1,255.08,460.62Z"/><path class="cls-3" d="M253.63,463.89h-1.38a4,4,0,0,0,2.8-1.14A1.45,1.45,0,0,1,253.63,463.89Z"/><path class="cls-3" d="M252.25,463.89h-5.43a4.7,4.7,0,0,0,2.84-.95A4,4,0,0,0,252.25,463.89Z"/><path class="cls-3" d="M251.54,459.17H248.3a4,4,0,0,1,2.23-2.92A4.7,4.7,0,0,1,251.54,459.17Z"/><path class="cls-3" d="M248.3,459.17h3.24a4.72,4.72,0,0,1-1.88,3.77,4,4,0,0,1-1.42-3.07A3.89,3.89,0,0,1,248.3,459.17Z"/><path class="cls-3" d="M248.24,459.88a4,4,0,0,0,1.42,3.07,4.72,4.72,0,0,1-5.9-.17,3.07,3.07,0,0,0,.21-3.6h4.33A3.89,3.89,0,0,0,248.24,459.88Z"/><path class="cls-3" d="M248.3,459.17H244a3.05,3.05,0,0,0-1.7-1.28,4.72,4.72,0,0,1,8.26-1.63A4,4,0,0,0,248.3,459.17Z"/><path class="cls-3" d="M246.82,463.89h-5.43a3.07,3.07,0,0,0,2.38-1.12A4.7,4.7,0,0,0,246.82,463.89Z"/><path class="cls-3" d="M244,459.17a3.07,3.07,0,0,1-.21,3.6,4.7,4.7,0,0,1-1.67-3.6Z"/><path class="cls-3" d="M244,459.17H242.1a4.63,4.63,0,0,1,.18-1.28A3.05,3.05,0,0,1,244,459.17Z"/><path class="cls-3" d="M240.48,463.89a1.46,1.46,0,0,1-1.39-1,3.06,3.06,0,0,0,2.3,1Z"/><path class="cls-3" d="M239,462.44v-1.81a1.46,1.46,0,0,1,1.45-1.45h1.62a4.7,4.7,0,0,0,1.67,3.6,3.07,3.07,0,0,1-4.68.09A1.43,1.43,0,0,1,239,462.44Z"/><path class="cls-17" d="M241.39,463.89a3.07,3.07,0,1,1,0-6.14,3,3,0,0,1,.89.13"/><path class="cls-17" d="M242.28,457.88a4.72,4.72,0,0,1,8.26-1.63"/><path class="cls-17" d="M250.53,456.25a4,4,0,1,1,1.72,7.64"/><path class="cls-17" d="M241.39,463.89h-.91a1.46,1.46,0,0,1-1.39-1"/><path class="cls-17" d="M255,462.75a1.45,1.45,0,0,1-1.42,1.14h-6.81"/><line class="cls-83" x1="246.97" y1="459.96" x2="246.97" y2="463.7"/><line class="cls-83" x1="246.83" y1="463.68" x2="245.89" y2="462.15"/><line class="cls-83" x1="242.28" y1="462.26" x2="242.26" y2="463.95"/><path class="cls-83" d="M242.13,463.94"/><line class="cls-83" x1="252.2" y1="462.28" x2="251.89" y2="463.95"/><path class="cls-83" d="M251.76,463.92"/><ellipse class="cls-10" cx="43.42" cy="462.76" rx="6.3" ry="3.13"/><path class="cls-3" d="M75.74,462.62v1.81a1.73,1.73,0,0,1,0,.29h0a17,17,0,0,1-6.5,1.16,17.69,17.69,0,0,1-6-.95c2.63-.86,4.34-2.23,4.34-3.77h6.71A1.46,1.46,0,0,1,75.74,462.62Z"/><path class="cls-3" d="M75.71,464.73a1.47,1.47,0,0,1-1.43,1.16H69.21A17,17,0,0,0,75.71,464.73Z"/><path class="cls-3" d="M69.21,465.89H56.7a21.44,21.44,0,0,0,6.54-.95A17.69,17.69,0,0,0,69.21,465.89Z"/><path class="cls-3" d="M67.58,461.17H60.11c.53-1.29,2.49-2.37,5.14-2.92C66.71,459.05,67.58,460.07,67.58,461.17Z"/><path class="cls-3" d="M60.11,461.17h7.47c0,1.54-1.7,2.91-4.34,3.77-2-.73-3.28-1.83-3.28-3.07A1.79,1.79,0,0,1,60.11,461.17Z"/><path class="cls-3" d="M56.7,456.45a18.51,18.51,0,0,1,8.55,1.8c-2.65.55-4.61,1.62-5.14,2.92h-10a9.3,9.3,0,0,0-3.91-1.28C47.52,457.9,51.72,456.45,56.7,456.45Z"/><path class="cls-3" d="M60,461.88c0,1.23,1.27,2.33,3.28,3.07a21.44,21.44,0,0,1-6.54.95,20.76,20.76,0,0,1-7-1.12c1-.53,1.6-1.21,1.6-1.95a2.11,2.11,0,0,0-1.12-1.65h10A1.79,1.79,0,0,0,60,461.88Z"/><path class="cls-3" d="M56.7,465.89H44.19a12.21,12.21,0,0,0,5.47-1.12A20.76,20.76,0,0,0,56.7,465.89Z"/><path class="cls-3" d="M50.14,461.17a2.11,2.11,0,0,1,1.12,1.65c0,.74-.6,1.42-1.6,1.95-2.35-.86-3.84-2.16-3.84-3.6Z"/><path class="cls-3" d="M50.14,461.17H45.82a2.3,2.3,0,0,1,.41-1.28A9.3,9.3,0,0,1,50.14,461.17Z"/><path class="cls-3" d="M49.66,464.77a12.21,12.21,0,0,1-5.47,1.12,12.31,12.31,0,0,1-5.39-1.08,1.39,1.39,0,0,1,0-.37v-1.81a1.46,1.46,0,0,1,1.45-1.45h5.62C45.82,462.61,47.31,463.9,49.66,464.77Z"/><path class="cls-3" d="M44.19,465.89h-4a1.46,1.46,0,0,1-1.4-1.08A12.31,12.31,0,0,0,44.19,465.89Z"/><path class="cls-17" d="M44.19,465.89a12.31,12.31,0,0,1-5.39-1.08c-1-.54-1.68-1.23-1.68-2,0-1.7,3.17-3.07,7.07-3.07a15.33,15.33,0,0,1,2,.13"/><path class="cls-17" d="M46.23,459.88c1.28-2,5.48-3.44,10.47-3.44a18.51,18.51,0,0,1,8.55,1.8"/><path class="cls-17" d="M75.71,464.73a17,17,0,0,1-6.5,1.16"/><path class="cls-17" d="M65.25,458.25a19.76,19.76,0,0,1,4-.39c5.11,0,9.25,1.8,9.25,4,0,1.12-1,2.13-2.75,2.85"/><path class="cls-17" d="M44.19,465.89h-4a1.46,1.46,0,0,1-1.4-1.08"/><path class="cls-17" d="M75.71,464.73a1.47,1.47,0,0,1-1.43,1.16H56.7"/><line class="cls-83" x1="57.04" y1="461.96" x2="57.04" y2="465.7"/><line class="cls-83" x1="56.73" y1="465.68" x2="54.55" y2="464.15"/><line class="cls-83" x1="46.24" y1="464.26" x2="46.21" y2="465.95"/><path class="cls-83" d="M45.9,465.94"/><line class="cls-83" x1="69.09" y1="464.28" x2="68.38" y2="465.95"/><path class="cls-83" d="M68.08,465.92"/><ellipse class="cls-10" cx="75.03" cy="461.85" rx="4.18" ry="3.85"/><path class="cls-3" d="M78.08,462.62v1.81a1.29,1.29,0,0,1,0,.32,4,4,0,0,1-5.39.19,4.72,4.72,0,0,0,1.88-3.77h2.09A1.46,1.46,0,0,1,78.08,462.62Z"/><path class="cls-3" d="M78,464.76a1.45,1.45,0,0,1-1.42,1.14H75.25A4,4,0,0,0,78,464.76Z"/><path class="cls-3" d="M75.25,465.89H69.82a4.7,4.7,0,0,0,2.84-.95A4,4,0,0,0,75.25,465.89Z"/><path class="cls-3" d="M74.54,461.17H71.3a4,4,0,0,1,2.23-2.92A4.7,4.7,0,0,1,74.54,461.17Z"/><path class="cls-3" d="M71.3,461.17h3.24a4.72,4.72,0,0,1-1.88,3.77,4,4,0,0,1-1.42-3.07A3.89,3.89,0,0,1,71.3,461.17Z"/><path class="cls-3" d="M69.82,456.45a4.71,4.71,0,0,1,3.71,1.8,4,4,0,0,0-2.23,2.92H67a3.05,3.05,0,0,0-1.7-1.28A4.72,4.72,0,0,1,69.82,456.45Z"/><path class="cls-3" d="M71.24,461.88a4,4,0,0,0,1.42,3.07,4.72,4.72,0,0,1-5.9-.17,3.07,3.07,0,0,0,.21-3.6H71.3A3.89,3.89,0,0,0,71.24,461.88Z"/><path class="cls-3" d="M69.82,465.89H64.39a3.07,3.07,0,0,0,2.38-1.12A4.7,4.7,0,0,0,69.82,465.89Z"/><path class="cls-3" d="M67,461.17a3.07,3.07,0,0,1-.21,3.6,4.7,4.7,0,0,1-1.67-3.6Z"/><path class="cls-3" d="M67,461.17H65.1a4.63,4.63,0,0,1,.18-1.28A3.05,3.05,0,0,1,67,461.17Z"/><path class="cls-3" d="M66.76,464.77a3.07,3.07,0,0,1-4.68.09,1.43,1.43,0,0,1-.06-.42v-1.81a1.46,1.46,0,0,1,1.45-1.45H65.1A4.7,4.7,0,0,0,66.76,464.77Z"/><path class="cls-3" d="M64.39,465.89h-.91a1.46,1.46,0,0,1-1.39-1A3.06,3.06,0,0,0,64.39,465.89Z"/><path class="cls-17" d="M64.39,465.89a3.07,3.07,0,1,1,0-6.14,3,3,0,0,1,.89.13"/><path class="cls-17" d="M65.28,459.88a4.72,4.72,0,0,1,8.26-1.63"/><path class="cls-17" d="M73.53,458.25a4,4,0,1,1,1.72,7.64"/><path class="cls-17" d="M64.39,465.89h-.91a1.46,1.46,0,0,1-1.39-1"/><path class="cls-17" d="M78,464.76a1.45,1.45,0,0,1-1.42,1.14H69.82"/><line class="cls-83" x1="69.97" y1="461.96" x2="69.97" y2="465.7"/><line class="cls-83" x1="69.83" y1="465.68" x2="68.89" y2="464.15"/><line class="cls-83" x1="65.28" y1="464.26" x2="65.26" y2="465.95"/><path class="cls-83" d="M65.13,465.94"/><line class="cls-83" x1="75.2" y1="464.28" x2="74.89" y2="465.95"/><path class="cls-83" d="M74.76,465.92"/><polygon class="cls-84" points="115.03 460.61 101.14 460.61 108.09 428.87 115.03 460.61"/><line class="cls-39" x1="108.09" y1="444.03" x2="108.09" y2="465.73"/><line class="cls-39" x1="107.91" y1="451.13" x2="106.65" y2="449.09"/><line class="cls-39" x1="108.09" y1="455.35" x2="110.86" y2="450.78"/><line class="cls-39" x1="107.91" y1="458.3" x2="105.14" y2="453.73"/><line class="cls-23" x1="461.38" y1="454.05" x2="479.06" y2="454.05"/><line class="cls-23" x1="798.97" y1="454.05" x2="823.43" y2="454.05"/><path class="cls-4" d="M905.22,369.63h-3.38a17.57,17.57,0,0,0-34.31-5.31A11.71,11.71,0,1,0,864,387.2h41.21a8.36,8.36,0,0,0,8.33-8.33V378A8.36,8.36,0,0,0,905.22,369.63Z"/><path class="cls-50" d="M391.5,544.1h42.82"/><line class="cls-50" x1="439.23" y1="544.1" x2="442.74" y2="544.1"/><line class="cls-50" x1="445.55" y1="544.1" x2="475.73" y2="544.1"/><line class="cls-7" x1="622.69" y1="473.1" x2="626.34" y2="473.1"/><line class="cls-23" x1="827.08" y1="454.05" x2="833.47" y2="454.05"/><line class="cls-23" x1="838.03" y1="454.05" x2="839.86" y2="454.05"/><line class="cls-23" x1="846.25" y1="454.05" x2="900.08" y2="454.05"/><line class="cls-23" x1="906.47" y1="454.05" x2="921.98" y2="454.05"/><line class="cls-23" x1="926.09" y1="454.05" x2="947.99" y2="454.05"/><line class="cls-23" x1="953.46" y1="454.05" x2="959.85" y2="454.05"/><line class="cls-23" x1="964.41" y1="454.05" x2="966.24" y2="454.05"/><line class="cls-23" x1="972.63" y1="454.05" x2="1026.46" y2="454.05"/><line class="cls-23" x1="1032.85" y1="454.05" x2="1048.36" y2="454.05"/><line class="cls-49" x1="1053.84" y1="454.05" x2="1107.67" y2="454.05"/><line class="cls-85" x1="471.08" y1="289.88" x2="497.93" y2="289.88"/><line class="cls-85" x1="504.46" y1="289.88" x2="500.83" y2="289.88"/><line class="cls-85" x1="510.26" y1="289.88" x2="561.06" y2="289.88"/><path class="cls-4" d="M479.42,288.79s-8-5.81,0-15.24,18.87-.73,18.87-.73,2.18-5.81,6.53-6.53,9.43,2.18,9.43,2.18a19.3,19.3,0,0,1,18.14-11.61c13.79,0,19.59,10.16,21,16.69,0,0,10.16-.73,10.89,6.53s-2.9,8.71-2.9,8.71Z"/><line class="cls-86" x1="1245.61" y1="521.81" x2="1260.21" y2="521.81"/><line class="cls-86" x1="1255.65" y1="530.94" x2="1259.3" y2="530.94"/><line class="cls-50" x1="997.04" y1="544.34" x2="1018.94" y2="544.34"/><line class="cls-50" x1="1023.5" y1="544.34" x2="1026.24" y2="544.34"/><line class="cls-50" x1="1030.8" y1="544.34" x2="1049.05" y2="544.34"/><line class="cls-49" x1="1057.72" y1="537.33" x2="1067.75" y2="537.33"/><line class="cls-49" x1="1070.49" y1="537.33" x2="1073.23" y2="537.33"/><line class="cls-49" x1="1164.59" y1="493.37" x2="1189.08" y2="493.37"/><line class="cls-49" x1="1194.18" y1="493.37" x2="1197.24" y2="493.37"/><line class="cls-86" x1="1164.76" y1="505.63" x2="1189.25" y2="505.63"/><line class="cls-86" x1="1194.35" y1="505.63" x2="1197.41" y2="505.63"/><line class="cls-49" x1="1202.35" y1="493.37" x2="1222.75" y2="493.37"/><line class="cls-49" x1="1227.86" y1="493.37" x2="1230.92" y2="493.37"/><line class="cls-49" x1="1232.45" y1="485.52" x2="1243.67" y2="485.52"/><line class="cls-49" x1="1105.28" y1="493.37" x2="1129.77" y2="493.37"/><line class="cls-49" x1="1134.87" y1="493.37" x2="1137.93" y2="493.37"/><line class="cls-49" x1="1143.03" y1="493.37" x2="1163.44" y2="493.37"/><line class="cls-48" x1="1168.54" y1="493.37" x2="1171.61" y2="493.37"/><line class="cls-23" x1="960.41" y1="505.9" x2="964.97" y2="505.9"/><line class="cls-23" x1="968.62" y1="505.9" x2="1007.86" y2="505.9"/><line class="cls-49" x1="1160.22" y1="557.55" x2="1209.06" y2="557.55"/><line class="cls-49" x1="1041.94" y1="557.55" x2="1090.78" y2="557.55"/><line class="cls-49" x1="1100.95" y1="557.55" x2="1107.06" y2="557.55"/><line class="cls-49" x1="1117.23" y1="557.55" x2="1157.93" y2="557.55"/><line class="cls-49" x1="1168.11" y1="557.55" x2="1174.21" y2="557.55"/><path class="cls-87" d="M970.78,478.38H948.3c-3.15-.51-7.18-2-6.6-6.15-.44-3.77,5.73-5.28,8.66-5.88H958a6.26,6.26,0,1,0,0-12.52H898.25A6.25,6.25,0,0,0,896.12,466H895c3.28.42,7.09,2.88,7.09,6.33,0,3.18-4.83,5.52-6.69,6.09H876.74a6.26,6.26,0,0,0,0,12.52h32.35a6.47,6.47,0,0,1,3.3,5.46c0,3.12-3.65,5.43-5.16,6.05h-9.06a6.26,6.26,0,0,0,0,12.52h50.26a6.26,6.26,0,0,0,1.71-12.27c1.33.1,1.89-.1.33-.1h-.73a6.22,6.22,0,0,0-1.24-.14c-2.45-.54-5.48-2.08-5-6.12-.27-3,2.76-4.58,5.17-5.39h22.15a6.26,6.26,0,1,0,0-12.52Z"/><path class="cls-60" d="M583.81,540.6h58.73"/><line class="cls-60" x1="649.29" y1="540.6" x2="654.1" y2="540.6"/><line class="cls-60" x1="657.95" y1="540.6" x2="699.36" y2="540.6"/><line class="cls-60" x1="702.21" y1="532.76" x2="711.96" y2="532.76"/><path class="cls-60" d="M1108,491.53h66.19"/><line class="cls-60" x1="1179.06" y1="491.53" x2="1184.48" y2="491.53"/><line class="cls-60" x1="1187.91" y1="491.53" x2="1234.57" y2="491.53"/><line class="cls-60" x1="622.16" y1="600.86" x2="628.38" y2="600.86"/><line class="cls-60" x1="633.35" y1="600.86" x2="672.65" y2="600.86"/><path class="cls-35" d="M249.23,186.13s14.28-1.36,19.26,5.53A25.25,25.25,0,0,1,286.66,186"/><path class="cls-35" d="M222.77,196.17S237,194.81,242,201.7a25.25,25.25,0,0,1,18.17-5.64"/><line class="cls-60" x1="715.12" y1="553.85" x2="728.4" y2="553.85"/><path class="cls-35" d="M1178.07,204.2s14.28-1.36,19.26,5.53a25.25,25.25,0,0,1,18.17-5.64"/><path class="cls-35" d="M1151.6,214.23s14.28-1.36,19.26,5.53a25.25,25.25,0,0,1,18.17-5.64"/><line class="cls-23" x1="1069.71" y1="480" x2="1074.28" y2="480"/><line class="cls-23" x1="1077.93" y1="480" x2="1117.16" y2="480"/><line class="cls-60" x1="997.95" y1="542.52" x2="1019.85" y2="542.52"/><line class="cls-60" x1="1024.41" y1="542.52" x2="1027.15" y2="542.52"/><line class="cls-60" x1="1031.71" y1="542.52" x2="1049.96" y2="542.52"/><line class="cls-60" x1="1058.63" y1="535.5" x2="1068.67" y2="535.5"/><line class="cls-60" x1="1071.4" y1="535.5" x2="1074.14" y2="535.5"/><line class="cls-60" x1="999.16" y1="491.31" x2="1012.43" y2="491.31"/><line class="cls-60" x1="1019.57" y1="491.31" x2="1022.63" y2="491.31"/><line class="cls-60" x1="1027.73" y1="491.31" x2="1030.79" y2="491.31"/><line class="cls-60" x1="969.53" y1="504.08" x2="1008.77" y2="504.08"/><line class="cls-60" x1="1141.75" y1="462.01" x2="1153.61" y2="462.01"/><line class="cls-60" x1="1173.68" y1="462.01" x2="1187.37" y2="462.01"/><line class="cls-60" x1="1196.5" y1="462.01" x2="1205.62" y2="462.01"/><line class="cls-60" x1="1233.36" y1="483.7" x2="1244.59" y2="483.7"/><line class="cls-60" x1="1070.63" y1="478.18" x2="1075.19" y2="478.18"/><line class="cls-60" x1="1078.84" y1="478.18" x2="1118.08" y2="478.18"/><line class="cls-60" x1="1246.52" y1="519.99" x2="1261.12" y2="519.99"/><line class="cls-60" x1="1256.56" y1="529.11" x2="1260.21" y2="529.11"/><line class="cls-60" x1="1165.67" y1="503.81" x2="1190.16" y2="503.81"/><line class="cls-60" x1="1195.26" y1="503.81" x2="1198.32" y2="503.81"/><line class="cls-60" x1="33.56" y1="533.95" x2="45.42" y2="533.95"/><line class="cls-60" x1="49.07" y1="533.95" x2="53.64" y2="533.95"/><line class="cls-60" x1="58.2" y1="533.95" x2="66.41" y2="533.95"/><line class="cls-60" x1="59.11" y1="543.99" x2="63.67" y2="543.99"/><line class="cls-60" x1="68.24" y1="543.99" x2="90.13" y2="543.99"/><line class="cls-60" x1="117.51" y1="533.95" x2="124.81" y2="533.95"/><line class="cls-60" x1="248.62" y1="520.71" x2="263.39" y2="520.71"/><line class="cls-60" x1="274.47" y1="520.71" x2="295.39" y2="520.71"/><path class="cls-60" d="M393.77,541.88h37"/><line class="cls-60" x1="436.61" y1="542.21" x2="441.43" y2="542.21"/><line class="cls-60" x1="445.28" y1="542.21" x2="475.73" y2="542.21"/><path class="cls-60" d="M128.53,597H165.4"/><line class="cls-60" x1="169.64" y1="597" x2="172.66" y2="597"/><line class="cls-60" x1="175.08" y1="597" x2="201.07" y2="597"/><line class="cls-60" x1="308.16" y1="582.89" x2="309.98" y2="582.89"/><line class="cls-60" x1="314.18" y1="582.89" x2="329.82" y2="582.89"/><line class="cls-60" x1="199.22" y1="588.37" x2="214.86" y2="588.37"/><path class="cls-60" d="M464.07,576.91h27.79"/><line class="cls-60" x1="496.23" y1="577.15" x2="499.85" y2="577.15"/><line class="cls-60" x1="502.74" y1="577.15" x2="525.59" y2="577.15"/><line class="cls-60" x1="526.34" y1="568.94" x2="529.96" y2="568.94"/><line class="cls-60" x1="532.85" y1="568.94" x2="555.71" y2="568.94"/><line class="cls-23" x1="827.08" y1="454.05" x2="833.47" y2="454.05"/><line class="cls-23" x1="418.55" y1="454.05" x2="443.02" y2="454.05"/><line class="cls-23" x1="445.55" y1="454.05" x2="452.54" y2="454.05"/><line class="cls-23" x1="577.23" y1="474.91" x2="588.45" y2="474.91"/><line class="cls-62" x1="579.11" y1="473.92" x2="588.87" y2="473.92"/><path class="cls-50" d="M391.5,544.1h42.82"/><line class="cls-50" x1="439.23" y1="544.1" x2="442.74" y2="544.1"/><line class="cls-50" x1="445.55" y1="544.1" x2="475.73" y2="544.1"/><path class="cls-60" d="M393.77,541.88h37"/><line class="cls-60" x1="436.61" y1="542.21" x2="441.43" y2="542.21"/><line class="cls-60" x1="445.28" y1="542.21" x2="475.73" y2="542.21"/><path class="cls-23" d="M442.2,501.28H485"/><line class="cls-23" x1="489.93" y1="501.28" x2="493.44" y2="501.28"/><line class="cls-23" x1="496.25" y1="501.28" x2="526.44" y2="501.28"/><path class="cls-62" d="M444.47,500h37"/><line class="cls-62" x1="487.32" y1="500.3" x2="492.13" y2="500.3"/><line class="cls-62" x1="495.98" y1="500.3" x2="526.44" y2="500.3"/><line class="cls-8" x1="33.02" y1="242.36" x2="57.22" y2="242.36"/><line class="cls-85" x1="27.16" y1="255.22" x2="54.01" y2="255.22"/><line class="cls-85" x1="60.54" y1="255.22" x2="56.91" y2="255.22"/><line class="cls-85" x1="66.34" y1="255.22" x2="117.14" y2="255.22"/><path class="cls-4" d="M35.5,254.13s-8-5.81,0-15.24,18.87-.73,18.87-.73,2.18-5.81,6.53-6.53,9.43,2.18,9.43,2.18A19.3,19.3,0,0,1,88.48,222.2c13.79,0,19.59,10.16,21,16.69,0,0,10.16-.73,10.89,6.53s-2.9,8.71-2.9,8.71Z"/><polygon class="cls-84" points="18.03 459.61 4.14 459.61 11.09 427.87 18.03 459.61"/><line class="cls-39" x1="11.09" y1="443.03" x2="11.09" y2="464.73"/><line class="cls-39" x1="10.91" y1="450.13" x2="9.65" y2="448.09"/><line class="cls-39" x1="11.09" y1="454.35" x2="13.86" y2="449.78"/><line class="cls-39" x1="10.91" y1="457.3" x2="8.14" y2="452.73"/><rect class="cls-88" width="26" height="650"/><rect class="cls-89" x="1274" width="26" height="650" transform="translate(2574 650) rotate(-180)"/></g></g></svg>