<svg xmlns="http://www.w3.org/2000/svg" xmlns:xlink="http://www.w3.org/1999/xlink" viewBox="0 0 270.16 248.25"><defs><style>.cls-1,.cls-11,.cls-12,.cls-14,.cls-4{fill:none;}.cls-2{clip-path:url(#clip-path);}.cls-16,.cls-3,.cls-9{fill:#fff;}.cls-10,.cls-11,.cls-12,.cls-13,.cls-14,.cls-16,.cls-4,.cls-9{stroke:#ccc;}.cls-12,.cls-13,.cls-14,.cls-16,.cls-4{stroke-miterlimit:10;}.cls-4{stroke-width:1.91px;}.cls-5{clip-path:url(#clip-path-2);}.cls-6{fill:#fcc062;}.cls-7{fill:#cee4f5;}.cls-8{fill:#722c36;}.cls-10,.cls-11,.cls-9{stroke-linejoin:round;stroke-width:2px;}.cls-10{fill:#f7df75;}.cls-13{fill:#ccc;}.cls-14{stroke-linecap:round;}.cls-15{clip-path:url(#clip-path-3);}.cls-17{clip-path:url(#clip-path-4);}</style><clipPath id="clip-path"><rect class="cls-1" x="13.74" y="5.7" width="240" height="240" transform="translate(8.04 259.45) rotate(-90)"/></clipPath><clipPath id="clip-path-2"><polygon class="cls-1" points="42.74 83.34 42.74 178.44 227.36 146.74 227.36 109.75 42.74 83.34"/></clipPath><clipPath id="clip-path-3"><polygon class="cls-1" points="49.74 232.7 46.24 210.2 81.24 204.2 83.74 232.7 67.24 231.2 65.24 224.2 60.74 232.7 49.74 232.7"/></clipPath><clipPath id="clip-path-4"><polygon class="cls-1" points="205.74 40.7 202.24 18.2 237.24 12.2 239.74 40.7 223.24 39.2 221.24 32.2 216.74 40.7 205.74 40.7"/></clipPath></defs><title>PricingIllustration</title><g id="Layer_2" data-name="Layer 2"><g id="Services_Icon" data-name="Services Icon"><g class="cls-2"><path class="cls-3" d="M1.15,60.56c11.21.07,11.17,6.07,22.37,6.15S34.77,60.78,46,60.85,57.14,66.93,68.35,67,79.6,61.08,90.8,61.15,102,67.23,113.18,67.3s11.25-5.93,22.45-5.85S146.8,67.53,158,67.6s11.25-5.93,22.46-5.85,11.17,6.07,22.38,6.15S214.1,62,225.31,62s11.17,6.07,22.38,6.15,11.25-5.93,22.46-5.85"/><path class="cls-4" d="M1.15,60.56c11.21.07,11.17,6.07,22.37,6.15S34.77,60.78,46,60.85,57.14,66.93,68.35,67,79.6,61.08,90.8,61.15,102,67.23,113.18,67.3s11.25-5.93,22.45-5.85S146.8,67.53,158,67.6s11.25-5.93,22.46-5.85,11.17,6.07,22.38,6.15S214.1,62,225.31,62s11.17,6.07,22.38,6.15,11.25-5.93,22.46-5.85"/><path class="cls-3" d="M1.07,72.5c11.21.07,11.17,6.07,22.37,6.15s11.25-5.93,22.45-5.85,11.17,6.07,22.38,6.15S79.52,73,90.73,73.09s11.17,6.07,22.37,6.15,11.25-5.93,22.45-5.85,11.17,6.07,22.38,6.15,11.25-5.93,22.46-5.85,11.17,6.07,22.38,6.15S214,73.91,225.23,74s11.17,6.07,22.38,6.15,11.25-5.93,22.46-5.85"/><path class="cls-4" d="M1.07,72.5c11.21.07,11.17,6.07,22.37,6.15s11.25-5.93,22.45-5.85,11.17,6.07,22.38,6.15S79.52,73,90.73,73.09s11.17,6.07,22.37,6.15,11.25-5.93,22.45-5.85,11.17,6.07,22.38,6.15,11.25-5.93,22.46-5.85,11.17,6.07,22.38,6.15S214,73.91,225.23,74s11.17,6.07,22.38,6.15,11.25-5.93,22.46-5.85"/><path class="cls-3" d="M1,84.44c11.21.07,11.17,6.07,22.37,6.15s11.25-5.93,22.45-5.85S57,90.81,68.2,90.88,79.45,85,90.65,85s11.17,6.07,22.37,6.15,11.25-5.93,22.45-5.85,11.17,6.07,22.38,6.15,11.25-5.93,22.46-5.85,11.17,6.07,22.38,6.15,11.25-5.93,22.46-5.85,11.17,6.07,22.38,6.15,11.25-5.93,22.46-5.85"/><path class="cls-4" d="M1,84.44c11.21.07,11.17,6.07,22.37,6.15s11.25-5.93,22.45-5.85S57,90.81,68.2,90.88,79.45,85,90.65,85s11.17,6.07,22.37,6.15,11.25-5.93,22.45-5.85,11.17,6.07,22.38,6.15,11.25-5.93,22.46-5.85,11.17,6.07,22.38,6.15,11.25-5.93,22.46-5.85,11.17,6.07,22.38,6.15,11.25-5.93,22.46-5.85"/><path class="cls-3" d="M.92,96.38c11.21.07,11.17,6.07,22.37,6.15s11.25-5.93,22.45-5.85,11.17,6.07,22.38,6.15S79.37,96.9,90.58,97,101.74,103,113,103.12s11.25-5.93,22.45-5.85,11.17,6.07,22.38,6.15,11.25-5.93,22.46-5.85,11.17,6.07,22.38,6.15,11.25-5.93,22.46-5.85,11.17,6.07,22.38,6.15,11.25-5.93,22.46-5.85"/><path class="cls-4" d="M.92,96.38c11.21.07,11.17,6.07,22.37,6.15s11.25-5.93,22.45-5.85,11.17,6.07,22.38,6.15S79.37,96.9,90.58,97,101.74,103,113,103.12s11.25-5.93,22.45-5.85,11.17,6.07,22.38,6.15,11.25-5.93,22.46-5.85,11.17,6.07,22.38,6.15,11.25-5.93,22.46-5.85,11.17,6.07,22.38,6.15,11.25-5.93,22.46-5.85"/><path class="cls-3" d="M.84,108.32c11.21.07,11.17,6.07,22.37,6.15s11.25-5.93,22.45-5.85,11.17,6.07,22.38,6.15,11.25-5.93,22.45-5.85,11.17,6.07,22.37,6.15,11.25-5.93,22.45-5.85,11.17,6.07,22.38,6.15,11.25-5.93,22.46-5.85,11.17,6.07,22.38,6.15,11.25-5.93,22.46-5.85,11.17,6.07,22.38,6.15,11.25-5.93,22.46-5.85"/><path class="cls-4" d="M.84,108.32c11.21.07,11.17,6.07,22.37,6.15s11.25-5.93,22.45-5.85,11.17,6.07,22.38,6.15,11.25-5.93,22.45-5.85,11.17,6.07,22.37,6.15,11.25-5.93,22.45-5.85,11.17,6.07,22.38,6.15,11.25-5.93,22.46-5.85,11.17,6.07,22.38,6.15,11.25-5.93,22.46-5.85,11.17,6.07,22.38,6.15,11.25-5.93,22.46-5.85"/><path class="cls-3" d="M.77,120.26c11.21.07,11.17,6.07,22.37,6.15s11.25-5.93,22.45-5.85S56.76,126.63,68,126.7s11.25-5.93,22.45-5.85,11.17,6.07,22.37,6.15,11.25-5.93,22.45-5.85,11.17,6.07,22.38,6.15,11.25-5.93,22.46-5.85,11.17,6.07,22.38,6.15,11.25-5.93,22.46-5.85,11.17,6.07,22.38,6.15S258.56,122,269.77,122"/><path class="cls-4" d="M.77,120.26c11.21.07,11.17,6.07,22.37,6.15s11.25-5.93,22.45-5.85S56.76,126.63,68,126.7s11.25-5.93,22.45-5.85,11.17,6.07,22.37,6.15,11.25-5.93,22.45-5.85,11.17,6.07,22.38,6.15,11.25-5.93,22.46-5.85,11.17,6.07,22.38,6.15,11.25-5.93,22.46-5.85,11.17,6.07,22.38,6.15S258.56,122,269.77,122"/><path class="cls-3" d="M.69,132.2c11.21.07,11.17,6.07,22.37,6.15s11.25-5.93,22.45-5.85,11.17,6.07,22.38,6.15,11.25-5.93,22.45-5.85,11.17,6.07,22.37,6.15S124,133,135.18,133.09s11.17,6.07,22.38,6.15,11.25-5.93,22.46-5.85,11.17,6.07,22.38,6.15,11.25-5.93,22.46-5.85,11.17,6.07,22.38,6.15,11.25-5.93,22.46-5.85"/><path class="cls-4" d="M.69,132.2c11.21.07,11.17,6.07,22.37,6.15s11.25-5.93,22.45-5.85,11.17,6.07,22.38,6.15,11.25-5.93,22.45-5.85,11.17,6.07,22.37,6.15S124,133,135.18,133.09s11.17,6.07,22.38,6.15,11.25-5.93,22.46-5.85,11.17,6.07,22.38,6.15,11.25-5.93,22.46-5.85,11.17,6.07,22.38,6.15,11.25-5.93,22.46-5.85"/><path class="cls-3" d="M.62,144.14c11.21.07,11.17,6.07,22.37,6.15s11.25-5.93,22.45-5.85,11.17,6.07,22.38,6.15,11.25-5.93,22.45-5.85,11.17,6.07,22.37,6.15S123.89,145,135.1,145s11.17,6.07,22.38,6.15,11.25-5.93,22.46-5.85,11.17,6.07,22.38,6.15,11.25-5.93,22.46-5.85,11.17,6.07,22.38,6.15,11.25-5.93,22.46-5.85"/><path class="cls-4" d="M.62,144.14c11.21.07,11.17,6.07,22.37,6.15s11.25-5.93,22.45-5.85,11.17,6.07,22.38,6.15,11.25-5.93,22.45-5.85,11.17,6.07,22.37,6.15S123.89,145,135.1,145s11.17,6.07,22.38,6.15,11.25-5.93,22.46-5.85,11.17,6.07,22.38,6.15,11.25-5.93,22.46-5.85,11.17,6.07,22.38,6.15,11.25-5.93,22.46-5.85"/><path class="cls-3" d="M.54,156.08c11.21.07,11.17,6.07,22.37,6.15s11.25-5.93,22.45-5.85,11.17,6.07,22.38,6.15S79,156.6,90.19,156.67s11.17,6.07,22.37,6.15S123.82,156.9,135,157s11.17,6.07,22.38,6.15,11.25-5.93,22.46-5.85,11.17,6.07,22.38,6.15,11.25-5.93,22.46-5.85,11.17,6.07,22.38,6.15,11.25-5.93,22.46-5.85"/><path class="cls-4" d="M.54,156.08c11.21.07,11.17,6.07,22.37,6.15s11.25-5.93,22.45-5.85,11.17,6.07,22.38,6.15S79,156.6,90.19,156.67s11.17,6.07,22.37,6.15S123.82,156.9,135,157s11.17,6.07,22.38,6.15,11.25-5.93,22.46-5.85,11.17,6.07,22.38,6.15,11.25-5.93,22.46-5.85,11.17,6.07,22.38,6.15,11.25-5.93,22.46-5.85"/><path class="cls-3" d="M.46,168c11.21.07,11.17,6.07,22.37,6.15s11.25-5.93,22.45-5.85,11.17,6.07,22.38,6.15,11.25-5.93,22.45-5.85,11.17,6.07,22.37,6.15,11.25-5.93,22.45-5.85,11.17,6.07,22.38,6.15,11.25-5.93,22.46-5.85,11.17,6.07,22.38,6.15,11.25-5.93,22.46-5.85,11.17,6.07,22.38,6.15,11.25-5.93,22.46-5.85"/><path class="cls-4" d="M.46,168c11.21.07,11.17,6.07,22.37,6.15s11.25-5.93,22.45-5.85,11.17,6.07,22.38,6.15,11.25-5.93,22.45-5.85,11.17,6.07,22.37,6.15,11.25-5.93,22.45-5.85,11.17,6.07,22.38,6.15,11.25-5.93,22.46-5.85,11.17,6.07,22.38,6.15,11.25-5.93,22.46-5.85,11.17,6.07,22.38,6.15,11.25-5.93,22.46-5.85"/><path class="cls-3" d="M.39,180c11.21.07,11.17,6.07,22.37,6.15s11.25-5.93,22.45-5.85,11.17,6.07,22.38,6.15,11.25-5.93,22.45-5.85,11.17,6.07,22.37,6.15,11.25-5.93,22.45-5.85S146,186.93,157.25,187s11.25-5.93,22.46-5.85,11.17,6.07,22.38,6.15,11.25-5.93,22.46-5.85,11.17,6.07,22.38,6.15,11.25-5.93,22.46-5.85"/><path class="cls-4" d="M.39,180c11.21.07,11.17,6.07,22.37,6.15s11.25-5.93,22.45-5.85,11.17,6.07,22.38,6.15,11.25-5.93,22.45-5.85,11.17,6.07,22.37,6.15,11.25-5.93,22.45-5.85S146,186.93,157.25,187s11.25-5.93,22.46-5.85,11.17,6.07,22.38,6.15,11.25-5.93,22.46-5.85,11.17,6.07,22.38,6.15,11.25-5.93,22.46-5.85"/><path class="cls-3" d="M.31,191.9C11.52,192,11.48,198,22.69,198s11.25-5.93,22.45-5.85,11.17,6.07,22.38,6.15,11.25-5.93,22.45-5.85,11.17,6.07,22.37,6.15,11.25-5.93,22.45-5.85,11.17,6.07,22.38,6.15,11.25-5.93,22.46-5.85,11.17,6.07,22.38,6.15,11.25-5.93,22.46-5.85,11.17,6.07,22.38,6.15,11.25-5.93,22.46-5.85"/><path class="cls-4" d="M.31,191.9C11.52,192,11.48,198,22.69,198s11.25-5.93,22.45-5.85,11.17,6.07,22.38,6.15,11.25-5.93,22.45-5.85,11.17,6.07,22.37,6.15,11.25-5.93,22.45-5.85,11.17,6.07,22.38,6.15,11.25-5.93,22.46-5.85,11.17,6.07,22.38,6.15,11.25-5.93,22.46-5.85,11.17,6.07,22.38,6.15,11.25-5.93,22.46-5.85"/><path class="cls-3" d="M.23,203.84c11.21.07,11.17,6.07,22.37,6.15s11.25-5.93,22.45-5.85,11.17,6.07,22.38,6.15,11.25-5.93,22.45-5.85,11.17,6.07,22.37,6.15,11.25-5.93,22.45-5.85,11.17,6.07,22.38,6.15S168.35,205,179.55,205s11.17,6.07,22.38,6.15,11.25-5.93,22.46-5.85,11.17,6.07,22.38,6.15,11.25-5.93,22.46-5.85"/><path class="cls-4" d="M.23,203.84c11.21.07,11.17,6.07,22.37,6.15s11.25-5.93,22.45-5.85,11.17,6.07,22.38,6.15,11.25-5.93,22.45-5.85,11.17,6.07,22.37,6.15,11.25-5.93,22.45-5.85,11.17,6.07,22.38,6.15S168.35,205,179.55,205s11.17,6.07,22.38,6.15,11.25-5.93,22.46-5.85,11.17,6.07,22.38,6.15,11.25-5.93,22.46-5.85"/><path class="cls-3" d="M.16,215.78c11.21.07,11.17,6.07,22.37,6.15S33.78,216,45,216.07s11.17,6.07,22.38,6.15,11.25-5.93,22.45-5.85,11.17,6.07,22.37,6.15,11.25-5.93,22.45-5.85,11.17,6.07,22.38,6.15,11.25-5.93,22.46-5.85,11.17,6.07,22.38,6.15,11.25-5.93,22.46-5.85,11.17,6.07,22.38,6.15,11.25-5.93,22.46-5.85"/><path class="cls-4" d="M.16,215.78c11.21.07,11.17,6.07,22.37,6.15S33.78,216,45,216.07s11.17,6.07,22.38,6.15,11.25-5.93,22.45-5.85,11.17,6.07,22.37,6.15,11.25-5.93,22.45-5.85,11.17,6.07,22.38,6.15,11.25-5.93,22.46-5.85,11.17,6.07,22.38,6.15,11.25-5.93,22.46-5.85,11.17,6.07,22.38,6.15,11.25-5.93,22.46-5.85"/><path class="cls-3" d="M.08,227.72c11.21.07,11.17,6.07,22.37,6.15S33.7,227.94,44.91,228s11.17,6.07,22.38,6.15,11.25-5.93,22.45-5.85,11.17,6.07,22.37,6.15,11.25-5.93,22.45-5.85,11.17,6.07,22.38,6.15,11.25-5.93,22.46-5.85,11.17,6.07,22.38,6.15,11.25-5.93,22.46-5.85,11.17,6.07,22.38,6.15,11.25-5.93,22.46-5.85"/><path class="cls-4" d="M.08,227.72c11.21.07,11.17,6.07,22.37,6.15S33.7,227.94,44.91,228s11.17,6.07,22.38,6.15,11.25-5.93,22.45-5.85,11.17,6.07,22.37,6.15,11.25-5.93,22.45-5.85,11.17,6.07,22.38,6.15,11.25-5.93,22.46-5.85,11.17,6.07,22.38,6.15,11.25-5.93,22.46-5.85,11.17,6.07,22.38,6.15,11.25-5.93,22.46-5.85"/><path class="cls-3" d="M0,239.66c11.21.07,11.17,6.07,22.37,6.15s11.25-5.93,22.45-5.85S56,246,67.21,246.1s11.25-5.93,22.45-5.85,11.17,6.07,22.37,6.15,11.25-5.93,22.45-5.85,11.17,6.07,22.38,6.15,11.25-5.93,22.46-5.85,11.17,6.07,22.38,6.15,11.25-5.93,22.46-5.85,11.17,6.07,22.38,6.15,11.25-5.93,22.46-5.85"/><path class="cls-4" d="M0,239.66c11.21.07,11.17,6.07,22.37,6.15s11.25-5.93,22.45-5.85S56,246,67.21,246.1s11.25-5.93,22.45-5.85,11.17,6.07,22.37,6.15,11.25-5.93,22.45-5.85,11.17,6.07,22.38,6.15,11.25-5.93,22.46-5.85,11.17,6.07,22.38,6.15,11.25-5.93,22.46-5.85,11.17,6.07,22.38,6.15,11.25-5.93,22.46-5.85"/><path class="cls-3" d="M.48,1C11.69,1,11.65,7,22.86,7.11S34.1,1.18,45.31,1.25,56.48,7.33,67.69,7.4,78.93,1.48,90.14,1.55s11.17,6.07,22.37,6.15S123.76,1.78,135,1.85,146.14,7.93,157.35,8s11.25-5.93,22.46-5.85S191,8.22,202.18,8.3s11.25-5.93,22.46-5.85S235.81,8.52,247,8.6s11.25-5.93,22.46-5.85"/><path class="cls-4" d="M.48,1C11.69,1,11.65,7,22.86,7.11S34.1,1.18,45.31,1.25,56.48,7.33,67.69,7.4,78.93,1.48,90.14,1.55s11.17,6.07,22.37,6.15S123.76,1.78,135,1.85,146.14,7.93,157.35,8s11.25-5.93,22.46-5.85S191,8.22,202.18,8.3s11.25-5.93,22.46-5.85S235.81,8.52,247,8.6s11.25-5.93,22.46-5.85"/><path class="cls-3" d="M.41,12.9C11.62,13,11.58,19,22.78,19S34,13.12,45.23,13.19s11.17,6.07,22.38,6.15,11.25-5.93,22.45-5.85,11.17,6.07,22.37,6.15,11.25-5.93,22.45-5.85,11.17,6.07,22.38,6.15,11.25-5.93,22.46-5.85,11.17,6.07,22.38,6.15,11.25-5.93,22.46-5.85,11.17,6.07,22.38,6.15,11.25-5.93,22.46-5.85"/><path class="cls-4" d="M.41,12.9C11.62,13,11.58,19,22.78,19S34,13.12,45.23,13.19s11.17,6.07,22.38,6.15,11.25-5.93,22.45-5.85,11.17,6.07,22.37,6.15,11.25-5.93,22.45-5.85,11.17,6.07,22.38,6.15,11.25-5.93,22.46-5.85,11.17,6.07,22.38,6.15,11.25-5.93,22.46-5.85,11.17,6.07,22.38,6.15,11.25-5.93,22.46-5.85"/><path class="cls-3" d="M.33,24.84c11.21.07,11.17,6.07,22.37,6.15S34,25.06,45.16,25.13s11.17,6.07,22.38,6.15S78.78,25.36,90,25.43s11.17,6.07,22.37,6.15,11.25-5.93,22.45-5.85,11.17,6.07,22.38,6.15S168.44,26,179.65,26,190.82,32.1,202,32.18s11.25-5.93,22.46-5.85,11.17,6.07,22.38,6.15,11.25-5.93,22.46-5.85"/><path class="cls-4" d="M.33,24.84c11.21.07,11.17,6.07,22.37,6.15S34,25.06,45.16,25.13s11.17,6.07,22.38,6.15S78.78,25.36,90,25.43s11.17,6.07,22.37,6.15,11.25-5.93,22.45-5.85,11.17,6.07,22.38,6.15S168.44,26,179.65,26,190.82,32.1,202,32.18s11.25-5.93,22.46-5.85,11.17,6.07,22.38,6.15,11.25-5.93,22.46-5.85"/><path class="cls-3" d="M.26,36.78c11.21.07,11.17,6.07,22.37,6.15S33.88,37,45.08,37.07s11.17,6.07,22.38,6.15S78.7,37.3,89.91,37.37s11.17,6.07,22.37,6.15,11.25-5.93,22.45-5.85,11.17,6.07,22.38,6.15,11.25-5.93,22.46-5.85S190.74,44,202,44.12s11.25-5.93,22.46-5.85,11.17,6.07,22.38,6.15,11.25-5.93,22.46-5.85"/><path class="cls-4" d="M.26,36.78c11.21.07,11.17,6.07,22.37,6.15S33.88,37,45.08,37.07s11.17,6.07,22.38,6.15S78.7,37.3,89.91,37.37s11.17,6.07,22.37,6.15,11.25-5.93,22.45-5.85,11.17,6.07,22.38,6.15,11.25-5.93,22.46-5.85S190.74,44,202,44.12s11.25-5.93,22.46-5.85,11.17,6.07,22.38,6.15,11.25-5.93,22.46-5.85"/><path class="cls-3" d="M.18,48.72c11.21.07,11.17,6.07,22.37,6.15S33.8,48.94,45,49s11.17,6.07,22.38,6.15,11.25-5.93,22.45-5.85,11.17,6.07,22.37,6.15,11.25-5.93,22.45-5.85,11.17,6.07,22.38,6.15,11.25-5.93,22.46-5.85,11.17,6.07,22.38,6.15,11.25-5.93,22.46-5.85,11.17,6.07,22.38,6.15S258,50.43,269.18,50.5"/><path class="cls-4" d="M.18,48.72c11.21.07,11.17,6.07,22.37,6.15S33.8,48.94,45,49s11.17,6.07,22.38,6.15,11.25-5.93,22.45-5.85,11.17,6.07,22.37,6.15,11.25-5.93,22.45-5.85,11.17,6.07,22.38,6.15,11.25-5.93,22.46-5.85,11.17,6.07,22.38,6.15,11.25-5.93,22.46-5.85,11.17,6.07,22.38,6.15S258,50.43,269.18,50.5"/><path class="cls-3" d="M.1,60.66c11.21.07,11.17,6.07,22.37,6.15S33.72,60.88,44.93,61,56.1,67,67.31,67.1s11.25-5.93,22.45-5.85,11.17,6.07,22.37,6.15,11.25-5.93,22.45-5.85S145.76,67.63,157,67.7s11.25-5.93,22.46-5.85S190.59,67.92,201.8,68s11.25-5.93,22.46-5.85,11.17,6.07,22.38,6.15,11.25-5.93,22.46-5.85"/><path class="cls-4" d="M.1,60.66c11.21.07,11.17,6.07,22.37,6.15S33.72,60.88,44.93,61,56.1,67,67.31,67.1s11.25-5.93,22.45-5.85,11.17,6.07,22.37,6.15,11.25-5.93,22.45-5.85S145.76,67.63,157,67.7s11.25-5.93,22.46-5.85S190.59,67.92,201.8,68s11.25-5.93,22.46-5.85,11.17,6.07,22.38,6.15,11.25-5.93,22.46-5.85"/><g class="cls-5"><rect class="cls-6" x="-29.47" y="91.22" width="212.59" height="68.16" transform="translate(-48.47 202.12) rotate(-90)"/><rect class="cls-7" x="87.37" y="91.22" width="212.59" height="68.16" transform="translate(68.37 318.96) rotate(-90)"/><rect class="cls-8" x="27.45" y="97.29" width="212.59" height="56" transform="translate(8.45 259.04) rotate(-90)"/></g><path class="cls-9" d="M62,179a4.51,4.51,0,0,0,1.77-3.63v-1.14a.39.39,0,0,0-.39-.39l-46.61-.23h0a8.73,8.73,0,0,0,4.2,5.57"/><path class="cls-10" d="M42.87,170.91H60.69a1.05,1.05,0,0,0,.91-1.58L43.25,137.55a1,1,0,0,0-1.09-.51"/><path class="cls-9" d="M42.73,136.91c-.16,0-.32.11-.4.35l-12.18,32.6c-.17.47,0,1,.39,1H42.87"/><path class="cls-9" d="M42.87,170.91H61.45a.7.7,0,0,0,.6-1l-18.82-32.6a.69.69,0,0,0-.58-.35"/><path class="cls-9" d="M248,207a4.51,4.51,0,0,0,1.77-3.63v-1.14a.39.39,0,0,0-.39-.39l-46.61-.23h0a8.73,8.73,0,0,0,4.2,5.57"/><path class="cls-10" d="M228.87,198.91h17.82a1.05,1.05,0,0,0,.91-1.58l-18.35-31.78a1,1,0,0,0-1.09-.51"/><path class="cls-9" d="M228.73,164.91c-.16,0-.32.11-.4.35l-12.18,32.6c-.17.47,0,1,.39,1h12.34"/><path class="cls-9" d="M228.87,198.91h18.58a.7.7,0,0,0,.6-1l-18.82-32.6a.69.69,0,0,0-.58-.35"/><path class="cls-11" d="M176,61a4.51,4.51,0,0,0,1.77-3.63V56.23a.39.39,0,0,0-.39-.39l-46.61-.23h0a8.73,8.73,0,0,0,4.2,5.57"/><path class="cls-10" d="M156.87,52.91h17.82a1.05,1.05,0,0,0,.91-1.58L157.25,19.55a1,1,0,0,0-1.09-.51"/><path class="cls-9" d="M156.73,18.91c-.16,0-.32.11-.4.35l-12.18,32.6c-.17.47,0,1,.39,1h12.34"/><path class="cls-9" d="M156.87,52.91h18.58a.7.7,0,0,0,.6-1l-18.82-32.6a.69.69,0,0,0-.58-.35"/><line class="cls-12" x1="212.39" y1="85.96" x2="210.71" y2="97.42"/><path class="cls-12" d="M216.92,82.32v-1.1a.53.53,0,0,0-.53-.53h-2.29a.53.53,0,0,0-.53.53v1.1"/><line class="cls-12" x1="219.79" y1="97.42" x2="218.12" y2="85.96"/><line class="cls-12" x1="211.19" y1="93.84" x2="219.55" y2="93.84"/><line class="cls-12" x1="211.19" y1="93.84" x2="219.79" y2="97.42"/><line class="cls-12" x1="210.71" y1="97.4" x2="219.32" y2="93.85"/><rect class="cls-13" x="209.76" y="97.54" width="10.99" height="3.1" rx="1.55" ry="1.55"/><rect class="cls-13" x="211.91" y="82.85" width="6.45" height="3.1" rx="1.55" ry="1.55"/><line class="cls-14" x1="211.76" y1="90.31" x2="218.47" y2="90.31"/><line class="cls-12" x1="42.39" y1="33.96" x2="40.71" y2="45.42"/><path class="cls-12" d="M46.92,30.32v-1.1a.53.53,0,0,0-.53-.53H44.11a.53.53,0,0,0-.53.53v1.1"/><line class="cls-12" x1="49.79" y1="45.42" x2="48.12" y2="33.96"/><line class="cls-12" x1="41.19" y1="41.84" x2="49.55" y2="41.84"/><line class="cls-12" x1="41.19" y1="41.84" x2="49.79" y2="45.42"/><line class="cls-12" x1="40.71" y1="45.4" x2="49.32" y2="41.85"/><rect class="cls-13" x="39.76" y="45.54" width="10.99" height="3.1" rx="1.55" ry="1.55"/><rect class="cls-13" x="41.91" y="30.85" width="6.45" height="3.1" rx="1.55" ry="1.55"/><line class="cls-14" x1="41.76" y1="38.31" x2="48.47" y2="38.31"/><g class="cls-15"><path class="cls-16" d="M67.49,212.7A14.25,14.25,0,1,0,81.74,227,14.25,14.25,0,0,0,67.49,212.7Zm0,23A8.72,8.72,0,1,1,76.21,227,8.72,8.72,0,0,1,67.49,235.67Z"/><polygon class="cls-13" points="81.21 230.82 75.66 229.33 73.89 232.56 78.29 236.25 81.21 230.82"/><polygon class="cls-13" points="71.91 219.68 74.78 214.7 79.27 218.93 74.57 222.22 71.91 219.68"/><polygon class="cls-13" points="59.56 223.87 54.17 221.9 57.55 216.74 61.61 220.8 59.56 223.87"/><polygon class="cls-13" points="62.46 233.81 59.17 238.52 55.06 233.91 60.03 231.04 62.46 233.81"/></g><g class="cls-17"><path class="cls-16" d="M223.49,20.7A14.25,14.25,0,1,0,237.74,35,14.25,14.25,0,0,0,223.49,20.7Zm0,23A8.72,8.72,0,1,1,232.21,35,8.72,8.72,0,0,1,223.49,43.67Z"/><polygon class="cls-13" points="237.21 38.82 231.66 37.33 229.89 40.56 234.29 44.25 237.21 38.82"/><polygon class="cls-13" points="227.91 27.68 230.78 22.7 235.27 26.93 230.57 30.22 227.91 27.68"/><polygon class="cls-13" points="215.56 31.87 210.17 29.9 213.55 24.74 217.61 28.8 215.56 31.87"/><polygon class="cls-13" points="218.46 41.81 215.17 46.52 211.06 41.91 216.03 39.04 218.46 41.81"/></g><line class="cls-12" x1="226.39" y1="210.96" x2="224.71" y2="222.42"/><path class="cls-12" d="M230.92,207.32v-1.1a.53.53,0,0,0-.53-.53h-2.29a.53.53,0,0,0-.53.53v1.1"/><line class="cls-12" x1="233.79" y1="222.42" x2="232.12" y2="210.96"/><line class="cls-12" x1="225.19" y1="218.84" x2="233.55" y2="218.84"/><line class="cls-12" x1="225.19" y1="218.84" x2="233.79" y2="222.42"/><line class="cls-12" x1="224.71" y1="222.4" x2="233.32" y2="218.85"/><rect class="cls-13" x="223.76" y="222.54" width="10.99" height="3.1" rx="1.55" ry="1.55"/><rect class="cls-13" x="225.91" y="207.85" width="6.45" height="3.1" rx="1.55" ry="1.55"/><line class="cls-14" x1="225.76" y1="215.31" x2="232.47" y2="215.31"/></g></g></g></svg>