<svg xmlns="http://www.w3.org/2000/svg" xmlns:xlink="http://www.w3.org/1999/xlink" viewBox="0 0 236.8 236.8"><defs><style>.cls-1,.cls-12,.cls-14,.cls-19,.cls-22,.cls-23,.cls-25,.cls-5,.cls-6{fill:none;}.cls-2{fill:#3b312f;}.cls-15,.cls-18,.cls-3,.cls-7{fill:#fff;}.cls-18,.cls-23,.cls-3,.cls-4,.cls-6{stroke:#4d4d4d;}.cls-10,.cls-11,.cls-12,.cls-13,.cls-14,.cls-15,.cls-18,.cls-19,.cls-20,.cls-22,.cls-23,.cls-25,.cls-3,.cls-4,.cls-5,.cls-6{stroke-linecap:round;stroke-width:2px;}.cls-12,.cls-13,.cls-3,.cls-4,.cls-6{stroke-linejoin:round;}.cls-4{fill:#e6e7e8;}.cls-10,.cls-11,.cls-12,.cls-13,.cls-15,.cls-5{stroke:#3b312f;}.cls-10,.cls-11,.cls-14,.cls-15,.cls-18,.cls-19,.cls-20,.cls-22,.cls-23,.cls-25,.cls-5{stroke-miterlimit:10;}.cls-8{fill:#193057;}.cls-9{fill:#4d4d4d;}.cls-10{fill:url(#New_Pattern);}.cls-11{fill:#1a3156;}.cls-13,.cls-16{fill:#cee4f5;}.cls-14,.cls-20{stroke:#414042;}.cls-17{fill:#722c36;}.cls-19{stroke:#fff;}.cls-20{fill:#6d6e71;}.cls-21{fill:#fcc062;}.cls-22{stroke:#333;}.cls-24{fill:#cee3f6;}.cls-25{stroke:#28160c;}</style><pattern id="New_Pattern" data-name="New Pattern" width="3" height="4.5" patternTransform="translate(-16 -33)" patternUnits="userSpaceOnUse" viewBox="0 0 3 4.5"><rect class="cls-1" width="3" height="4.5"/><circle class="cls-2" cx="3" cy="4.5" r="0.75"/><circle class="cls-2" cy="4.5" r="0.75"/><circle class="cls-2" cx="1.5" cy="2.25" r="0.75"/><circle class="cls-2" cx="3" r="0.75"/><circle class="cls-2" r="0.75"/></pattern></defs><title>Trail illustration 1</title><g id="Layer_2" data-name="Layer 2"><g id="Trail_Elements" data-name="Trail Elements"><polyline class="cls-3" points="144.87 146.28 150.06 119.7 160.6 167.9 157.26 167.9"/><path class="cls-4" d="M153.26,182.44"/><path class="cls-4" d="M153.26,164.91"/><line class="cls-4" x1="155.2" y1="153.6" x2="157.6" y2="164.8"/><path class="cls-4" d="M148.78,161.45"/><line class="cls-5" x1="140.33" y1="167.53" x2="150" y2="177.61"/><line class="cls-5" x1="145.4" y1="151.7" x2="150" y2="157.71"/><line class="cls-6" x1="93.53" y1="186.22" x2="228" y2="186.22"/><line class="cls-6" x1="6.4" y1="186.22" x2="82.33" y2="186.22"/><line class="cls-6" x1="51.97" y1="202.42" x2="220.8" y2="202.42"/><rect class="cls-7" x="202.54" y="182.42" width="9.36" height="15.6"/><rect class="cls-7" x="187.34" y="182.42" width="9.36" height="15.6"/><path class="cls-8" d="M182.24,179.6H167.91a2,2,0,0,0-2,2v14.84a2,2,0,0,0,2,2h14.33a2,2,0,0,0,2-2V181.59A2,2,0,0,0,182.24,179.6Z"/><circle class="cls-8" cx="168.88" cy="201.01" r="1.69"/><circle class="cls-8" cx="181.18" cy="201.01" r="1.69"/><path class="cls-8" d="M183.36,177.65c-.3-.07-1.68-.13-9.71-.1h-.76a59.87,59.87,0,0,0-6.18.1,3.78,3.78,0,0,0-2.91,3.77.66.66,0,0,0,.66.65h0a.66.66,0,0,0,.65-.68,2.47,2.47,0,0,1,1.87-2.45c.33-.06,2.31-.09,5.89-.07h.77c7.27,0,9.14,0,9.41.07a2.55,2.55,0,0,1,1.92,2.47.66.66,0,0,0,.66.66h0a.66.66,0,0,0,.66-.66A3.84,3.84,0,0,0,183.36,177.65Z"/><path class="cls-8" d="M171.55,171.27h1.16v4.8a.66.66,0,1,0,1.33,0v-4.8h2.09v4.8a.66.66,0,1,0,1.33,0v-4.8h1.12a.66.66,0,1,0,0-1.33h-7a.66.66,0,1,0,0,1.33Z"/><path class="cls-9" d="M210.62,181.59H188.24a1.92,1.92,0,0,0-1.92,1.92v13.38a1.92,1.92,0,0,0,1.92,1.92h22.38a1.92,1.92,0,0,0,1.92-1.92V183.51A1.92,1.92,0,0,0,210.62,181.59Zm.8,1.92v10.37l-3.8,3.8H204v-15h6.59A.8.8,0,0,1,211.42,183.51Zm-8.51,14.17h-7v-15h7Zm-14.67-15h6.59v15h-3.61l-3.77-3.77v-10.4A.8.8,0,0,1,188.24,182.71Zm-.8,14.17V195.5l2.18,2.18h-1.39A.8.8,0,0,1,187.44,196.89Zm23.18.8H209.2l2.21-2.21v1.42A.8.8,0,0,1,210.62,197.68Z"/><path class="cls-9" d="M189.62,192.43a.56.56,0,0,0,.79,0l1.93-1.73a.56.56,0,0,0,0-.79l-.78-.87a.56.56,0,0,0-.79,0l-1.93,1.73a.56.56,0,0,0,0,.79Z"/><path class="cls-9" d="M208.47,187.11a.56.56,0,0,0,.79,0l.8-.86a.56.56,0,0,0,0-.79l-1.89-1.77a.56.56,0,0,0-.79,0l-.8.86a.56.56,0,0,0,0,.79Z"/><path class="cls-9" d="M207,194.61a1.67,1.67,0,1,0-1.67-1.67A1.67,1.67,0,0,0,207,194.61Zm0-2.22a.55.55,0,1,1-.55.55A.55.55,0,0,1,207,192.39Z"/><circle class="cls-9" cx="191.98" cy="200.61" r="1.12"/><circle class="cls-9" cx="206.88" cy="200.61" r="1.12"/><path class="cls-9" d="M201.84,181.21a.56.56,0,0,0,.56-.56v-1.23a.56.56,0,0,0-.56-.56H197a.56.56,0,0,0-.56.56v1.23a.56.56,0,0,0,1.12,0V180h3.72v.67A.56.56,0,0,0,201.84,181.21Z"/><path class="cls-9" d="M196.81,178.4H202a.56.56,0,0,0,0-1.12h-5.22a.56.56,0,0,0,0,1.12Z"/><rect class="cls-5" x="17.74" y="115.37" width="54.35" height="70.85"/><rect class="cls-10" x="20.17" y="109.55" width="51.92" height="5.82"/><rect class="cls-11" x="24.05" y="105.18" width="44.16" height="4.37"/><rect class="cls-10" x="68.21" y="102.76" width="54.35" height="5.82"/><rect class="cls-11" x="72.09" y="96.93" width="45.62" height="5.82"/><polyline class="cls-5" points="87.73 186.22 72.09 186.22 72.09 108.58 117.7 108.58 117.7 186.22 91.73 186.22"/><rect class="cls-8" x="67.72" y="144.98" width="54.84" height="5.82"/><path class="cls-12" d="M40.36,122.87"/><rect class="cls-13" x="23.1" y="122.87" width="43.16" height="15.8"/><line class="cls-13" x1="34.6" y1="138.67" x2="34.6" y2="122.87"/><line class="cls-12" x1="53.32" y1="138.66" x2="53.32" y2="122.86"/><line class="cls-12" x1="22.7" y1="128.18" x2="34.19" y2="128.18"/><line class="cls-12" x1="52.86" y1="128.33" x2="60.04" y2="128.33"/><rect class="cls-12" x="24.07" y="157.32" width="14.46" height="28.9"/><rect class="cls-13" x="48.34" y="157.32" width="19.38" height="15.8"/><line class="cls-13" x1="57.87" y1="171.18" x2="57.87" y2="157.32"/><rect class="cls-13" x="79.4" y="117.53" width="11.62" height="15.8"/><line class="cls-12" x1="77.61" y1="125.42" x2="89.56" y2="125.42"/><rect class="cls-13" x="99.29" y="117.53" width="11.62" height="15.8"/><line class="cls-12" x1="97.51" y1="125.42" x2="109.45" y2="125.42"/><polyline class="cls-12" points="95.71 157.11 80.37 157.11 80.37 185.6"/><line class="cls-5" x1="88.1" y1="164.39" x2="80.37" y2="164.39"/><line class="cls-5" x1="94.18" y1="164.39" x2="92.98" y2="164.39"/><line class="cls-5" x1="111.4" y1="164.39" x2="107.51" y2="164.39"/><line class="cls-5" x1="110.91" y1="169.72" x2="92.98" y2="169.72"/><line class="cls-5" x1="85.19" y1="169.72" x2="80.37" y2="169.72"/><line class="cls-5" x1="87.87" y1="175.55" x2="82.79" y2="175.55"/><line class="cls-5" x1="110.91" y1="175.55" x2="102.66" y2="175.55"/><line class="cls-5" x1="105.57" y1="180.89" x2="93.93" y2="180.89"/><line class="cls-5" x1="86.33" y1="180.89" x2="80.34" y2="180.89"/><line class="cls-5" x1="108" y1="83.35" x2="108" y2="96.93"/><line class="cls-5" x1="111.4" y1="86.26" x2="102.18" y2="86.26"/><line class="cls-5" x1="114.31" y1="90.14" x2="105.09" y2="90.14"/><line class="cls-5" x1="9.91" y1="186.22" x2="9.91" y2="178.46"/><rect class="cls-8" x="6.03" y="173.61" width="7.28" height="4.85"/><rect class="cls-8" x="194.94" y="182.42" width="9.36" height="15.6"/><polygon class="cls-3" points="226.77 177.03 210 177.03 218.38 138.71 226.77 177.03"/><line class="cls-4" x1="218.38" y1="157.02" x2="218.38" y2="185.41"/><line class="cls-4" x1="218.17" y1="165.59" x2="216.64" y2="163.12"/><line class="cls-4" x1="218.38" y1="170.67" x2="221.73" y2="165.16"/><line class="cls-4" x1="218.17" y1="174.23" x2="214.82" y2="168.72"/><line class="cls-6" x1="72.22" y1="189.39" x2="60.19" y2="197.63"/><line class="cls-6" x1="24.07" y1="189.39" x2="9.6" y2="199.2"/><line class="cls-6" x1="37.38" y1="189.39" x2="19.64" y2="200.79"/><path class="cls-14" d="M54.76,185.72a3.24,3.24,0,1,1,.94-6.34"/><path class="cls-14" d="M55.7,179.38a5,5,0,0,1,8.71-1.72"/><path class="cls-14" d="M64.4,177.66a4.23,4.23,0,1,1,1.81,8.06"/><path class="cls-14" d="M54.76,185.72H54.6a2.32,2.32,0,0,1-.84-.16"/><path class="cls-14" d="M68.51,185a2.32,2.32,0,0,1-1.64.68H60.49"/><line class="cls-4" x1="60.65" y1="181.57" x2="60.65" y2="185.51"/><line class="cls-4" x1="60.51" y1="185.5" x2="59.51" y2="183.88"/><line class="cls-4" x1="55.7" y1="184" x2="55.69" y2="185.78"/><path class="cls-4" d="M55.55,185.77"/><line class="cls-4" x1="66.16" y1="184.02" x2="65.84" y2="185.78"/><path class="cls-4" d="M65.7,185.74"/><polyline class="cls-5" points="106.99 192.43 106.99 202.24 95.72 202.24 95.72 192.43"/><polyline class="cls-5" points="152.06 192.43 152.06 202.24 140.8 202.24 140.8 192.43"/><path class="cls-15" d="M96.19,166.41,100.33,152a4,4,0,0,1,3.87-3.12h40.39a4,4,0,0,1,3.87,3.12l3.5,14.45"/><path class="cls-16" d="M97.59,168.37l3.93-13.73a3.76,3.76,0,0,1,3.67-3h38.37a3.76,3.76,0,0,1,3.67,3l3.32,13.73"/><polygon class="cls-17" points="92.5 169.12 90.24 174.17 90.24 192.33 157.86 192.33 157.86 174.17 154.24 166.6 93.86 166.6 92.5 169.12"/><rect class="cls-18" x="93.59" y="175.37" width="10.14" height="11.15"/><rect class="cls-18" x="144.03" y="175.37" width="10.14" height="11.15"/><line class="cls-19" x1="90.76" y1="189.68" x2="157.45" y2="189.68"/><line class="cls-5" x1="117.61" y1="154.13" x2="106.53" y2="166.29"/><path class="cls-15" d="M127.26,167a7.51,7.51,0,0,1,15,0"/><line class="cls-20" x1="155.49" y1="80.45" x2="155.49" y2="74.96"/><line class="cls-20" x1="179.42" y1="64.92" x2="180.78" y2="64.92"/><path class="cls-21" d="M143.25,64.92a12.39,12.39,0,0,0,24.13,0,12.32,12.32,0,0,0-2.23-10.35,12.33,12.33,0,0,0-9.67-4.86h-.17A12.41,12.41,0,0,0,142.92,62.1,12.18,12.18,0,0,0,143.25,64.92Z"/><line class="cls-22" x1="132.74" y1="64.92" x2="131.6" y2="64.92"/><line class="cls-22" x1="133.7" y1="64.92" x2="132.74" y2="64.92"/><line class="cls-22" x1="137.28" y1="64.92" x2="136.23" y2="64.92"/><line class="cls-22" x1="143.25" y1="64.92" x2="137.28" y2="64.92"/><line class="cls-22" x1="140.13" y1="79.59" x2="138.34" y2="81.39"/><line class="cls-22" x1="141.79" y1="51" x2="138.36" y2="47.57"/><line class="cls-22" x1="142.55" y1="77.18" x2="140.13" y2="79.59"/><line class="cls-22" x1="145" y1="64.92" x2="143.25" y2="64.92"/><line class="cls-22" x1="145.43" y1="54.64" x2="144.41" y2="53.62"/><line class="cls-22" x1="147.78" y1="71.95" x2="144.59" y2="75.13"/><line class="cls-22" x1="148" y1="71.72" x2="147.78" y2="71.95"/><line class="cls-22" x1="155.48" y1="85.49" x2="155.48" y2="88.34"/><line class="cls-22" x1="155.48" y1="83.24" x2="155.48" y2="85.49"/><line class="cls-22" x1="155.48" y1="40.92" x2="155.48" y2="49.72"/><line class="cls-22" x1="162.78" y1="71.99" x2="162.52" y2="71.72"/><line class="cls-22" x1="167.21" y1="76.42" x2="162.78" y2="71.99"/><line class="cls-22" x1="168.73" y1="51" x2="165.15" y2="54.57"/><line class="cls-22" x1="167.38" y1="64.92" x2="165.52" y2="64.92"/><line class="cls-22" x1="176.38" y1="64.92" x2="167.38" y2="64.92"/><line class="cls-22" x1="170.57" y1="79.75" x2="168.73" y2="77.93"/><line class="cls-22" x1="172.35" y1="47.38" x2="170.26" y2="49.47"/><line class="cls-22" x1="172.22" y1="81.39" x2="170.57" y2="79.75"/><line class="cls-22" x1="172.56" y1="47.17" x2="172.35" y2="47.38"/><line class="cls-23" x1="228" y1="117.42" x2="209.36" y2="117.42"/><line class="cls-23" x1="204.82" y1="117.42" x2="207.34" y2="117.42"/><line class="cls-23" x1="200.79" y1="117.42" x2="165.52" y2="117.42"/><path class="cls-24" d="M222.21,116.66s5.54-4,0-10.58-13.1-.5-13.1-.5-1.51-4-4.53-4.53-6.55,1.51-6.55,1.51a13.4,13.4,0,0,0-12.6-8.06,14.48,14.48,0,0,0-14.61,11.59s-7.05-.5-7.56,4.53,2,6,2,6Z"/><line class="cls-25" x1="100.41" y1="79.06" x2="81.77" y2="79.06"/><line class="cls-25" x1="77.23" y1="79.06" x2="79.75" y2="79.06"/><line class="cls-25" x1="73.2" y1="79.06" x2="37.93" y2="79.06"/><line class="cls-25" x1="34.91" y1="79.06" x2="33.4" y2="79.06"/><line class="cls-25" x1="30.37" y1="79.06" x2="26.85" y2="79.06"/><path class="cls-24" d="M94.61,78.3s5.54-4,0-10.58-13.1-.5-13.1-.5S80,63.19,77,62.68s-6.55,1.51-6.55,1.51a13.4,13.4,0,0,0-12.6-8.06A14.48,14.48,0,0,0,43.22,67.72s-7.05-.5-7.56,4.53,2,6,2,6Z"/><circle class="cls-2" cx="35.8" cy="173.87" r="0.95"/><rect class="cls-1" width="236.8" height="236.8"/></g></g></svg>