<svg xmlns="http://www.w3.org/2000/svg" xmlns:xlink="http://www.w3.org/1999/xlink" viewBox="0 0 238.9 236.8"><defs><style>.cls-1,.cls-10,.cls-15,.cls-16,.cls-18,.cls-22,.cls-23,.cls-24,.cls-25,.cls-29,.cls-5,.cls-6,.cls-7,.cls-8{fill:none;}.cls-13,.cls-17,.cls-2,.cls-20,.cls-26,.cls-27,.cls-28,.cls-30,.cls-4{fill:#fff;}.cls-10,.cls-2,.cls-23,.cls-5{stroke:#231f20;}.cls-16,.cls-17,.cls-18,.cls-2,.cls-20,.cls-21,.cls-22,.cls-23,.cls-24,.cls-25,.cls-26,.cls-27,.cls-28,.cls-29,.cls-3,.cls-30,.cls-8,.cls-9{stroke-linejoin:round;}.cls-3{fill:url(#New_Pattern_5);stroke:url(#New_Pattern_5);}.cls-13,.cls-14,.cls-15,.cls-16,.cls-17,.cls-18,.cls-20,.cls-22,.cls-23,.cls-24,.cls-25,.cls-26,.cls-27,.cls-28,.cls-29,.cls-30,.cls-5,.cls-6,.cls-7,.cls-8,.cls-9{stroke-linecap:round;}.cls-10,.cls-13,.cls-14,.cls-15,.cls-5,.cls-6,.cls-7{stroke-miterlimit:10;}.cls-24,.cls-26,.cls-27,.cls-28,.cls-29,.cls-6,.cls-8,.cls-9{stroke:#414042;}.cls-13,.cls-14,.cls-15,.cls-16,.cls-17,.cls-6,.cls-7{stroke-width:2px;}.cls-13,.cls-14,.cls-16,.cls-17,.cls-22,.cls-25,.cls-30,.cls-7{stroke:#3b312f;}.cls-9{fill:#cee4f5;}.cls-11{fill:#e6e6e6;}.cls-12{fill:#722c36;}.cls-14{fill:#e6e7e8;}.cls-15,.cls-18,.cls-20,.cls-21{stroke:#000;}.cls-19{fill:#f7931e;}.cls-21{fill:#ffce26;}.cls-24,.cls-25,.cls-26{stroke-width:1.8px;}.cls-28,.cls-29{stroke-width:1.1px;}</style><pattern id="New_Pattern_5" data-name="New Pattern 5" width="45" height="67.5" patternTransform="matrix(1, 0, 0, -1, 32, 740.15)" patternUnits="userSpaceOnUse" viewBox="0 0 45 67.5"><rect class="cls-1" width="45" height="67.5"/><rect class="cls-1" width="45" height="67.5"/><polyline class="cls-2" points="45.85 0.85 45 2.67 44.15 0.85"/><polyline class="cls-2" points="44.15 0.85 42.33 0 44.15 -0.85"/><polyline class="cls-2" points="0.85 0.85 0 2.67 -0.85 0.85"/><polyline class="cls-2" points="0.85 -0.85 2.67 0 0.85 0.85"/><polyline class="cls-2" points="23.35 34.6 22.5 36.42 21.65 34.6"/><polyline class="cls-2" points="21.65 32.9 22.5 31.08 23.35 32.9"/><polyline class="cls-2" points="21.65 34.6 19.83 33.75 21.65 32.9"/><polyline class="cls-2" points="23.35 32.9 25.17 33.75 23.35 34.6"/><polyline class="cls-2" points="44.15 66.65 45 64.83 45.85 66.65"/><polyline class="cls-2" points="44.15 68.35 42.33 67.5 44.15 66.65"/><polyline class="cls-2" points="-0.85 66.65 0 64.83 0.85 66.65"/><polyline class="cls-2" points="0.85 66.65 2.67 67.5 0.85 68.35"/></pattern></defs><title>Trail illustration 7</title><g id="Layer_2" data-name="Layer 2"><g id="Trail_Elements" data-name="Trail Elements"><rect class="cls-3" x="0.5" y="33.11" width="236.8" height="94.09"/><ellipse class="cls-4" cx="186.1" cy="109.2" rx="5.2" ry="4"/><path class="cls-5" d="M160.4,133.3A146.66,146.66,0,0,0,146,137"/><path class="cls-5" d="M172.5,131.29q-2.11.26-4.24.59"/><path class="cls-5" d="M235.27,138.1c-11.78-5.6-30.91-9.11-52.8-7.69"/><path class="cls-5" d="M118,136l2.13.29"/><path class="cls-5" d="M97.37,135.1a133.93,133.93,0,0,1,17.48.58"/><path class="cls-5" d="M42.3,146.81c2.74-1.07,4-1.33,7.09-2.35"/><path class="cls-5" d="M34.9,149.91q1.74-.8,3.61-1.6"/><line class="cls-6" x1="34.38" y1="154" x2="6.72" y2="154"/><line class="cls-6" x1="40.88" y1="154" x2="44.14" y2="154"/><line class="cls-6" x1="48.2" y1="154" x2="70.17" y2="154"/><line class="cls-6" x1="76.68" y1="154" x2="91.32" y2="154"/><line class="cls-6" x1="97.02" y1="154" x2="101.9" y2="154"/><line class="cls-6" x1="106.79" y1="154" x2="109.23" y2="154"/><line class="cls-7" x1="114.92" y1="154" x2="138.52" y2="154"/><line class="cls-6" x1="142.58" y1="154" x2="147.46" y2="154"/><line class="cls-6" x1="151.53" y1="154" x2="153.97" y2="154"/><line class="cls-6" x1="191.4" y1="154" x2="160.48" y2="154"/><line class="cls-6" x1="198.72" y1="154" x2="218.24" y2="154"/><line class="cls-6" x1="223.12" y1="154" x2="228.82" y2="154"/><line class="cls-6" x1="232.89" y1="154" x2="234.52" y2="154"/><line class="cls-6" x1="48.61" y1="163.35" x2="12" y2="163.35"/><line class="cls-6" x1="53.49" y1="163.35" x2="57.56" y2="163.35"/><line class="cls-6" x1="60.82" y1="163.35" x2="87.67" y2="163.35"/><line class="cls-6" x1="94.17" y1="163.35" x2="103.94" y2="163.35"/><line class="cls-6" x1="108.82" y1="163.35" x2="113.7" y2="163.35"/><line class="cls-6" x1="121.02" y1="163.35" x2="131.6" y2="163.35"/><line class="cls-6" x1="149.5" y1="163.35" x2="161.7" y2="163.35"/><line class="cls-6" x1="169.84" y1="163.35" x2="177.97" y2="163.35"/><line class="cls-6" x1="36" y1="171.08" x2="45.76" y2="171.08"/><line class="cls-6" x1="53.09" y1="171.08" x2="66.92" y2="171.08"/><line class="cls-6" x1="75.87" y1="171.08" x2="79.12" y2="171.08"/><line class="cls-6" x1="110.85" y1="171.08" x2="117.36" y2="171.08"/><line class="cls-6" x1="127.12" y1="171.08" x2="184.88" y2="171.08"/><line class="cls-6" x1="26.24" y1="177.59" x2="35.19" y2="177.59"/><line class="cls-6" x1="40.88" y1="177.59" x2="45.76" y2="177.59"/><line class="cls-6" x1="74.24" y1="177.59" x2="84.82" y2="177.59"/><line class="cls-6" x1="90.52" y1="177.59" x2="92.96" y2="177.59"/><line class="cls-6" x1="97.02" y1="177.59" x2="99.46" y2="177.59"/><line class="cls-6" x1="114.11" y1="177.59" x2="133.64" y2="177.59"/><line class="cls-6" x1="144.21" y1="177.59" x2="160.48" y2="177.59"/><line class="cls-6" x1="164.55" y1="177.59" x2="166.99" y2="177.59"/><line class="cls-6" x1="35.19" y1="186.54" x2="40.88" y2="186.54"/><line class="cls-6" x1="44.96" y1="186.54" x2="49.84" y2="186.54"/><line class="cls-6" x1="62.85" y1="194.68" x2="73.43" y2="194.68"/><line class="cls-6" x1="76.68" y1="194.68" x2="80.75" y2="194.68"/><line class="cls-6" x1="84.82" y1="194.68" x2="92.14" y2="194.68"/><line class="cls-6" x1="140.14" y1="186.54" x2="153.16" y2="186.54"/><line class="cls-6" x1="149.09" y1="194.68" x2="152.35" y2="194.68"/><line class="cls-6" x1="137.7" y1="194.68" x2="144.21" y2="194.68"/><line class="cls-6" x1="205.02" y1="163.29" x2="213.97" y2="163.29"/><line class="cls-6" x1="216.41" y1="163.29" x2="218.85" y2="163.29"/><line class="cls-6" x1="220.48" y1="163.29" x2="231.06" y2="163.29"/><polyline class="cls-8" points="196.28 118.67 206.33 113.18 216.39 118.67"/><path class="cls-8" d="M217.3,118.67"/><line class="cls-8" x1="184.69" y1="113.18" x2="195.36" y2="113.18"/><line class="cls-8" x1="188.97" y1="115.02" x2="198.11" y2="115.02"/><line class="cls-8" x1="198.11" y1="118.67" x2="198.11" y2="129.64"/><line class="cls-8" x1="214.56" y1="118.67" x2="214.56" y2="132.67"/><line class="cls-8" x1="184.4" y1="114.1" x2="184.4" y2="130.86"/><line class="cls-8" x1="186.48" y1="108.22" x2="186.48" y2="111.13"/><path class="cls-8" d="M186.48,108.22"/><path class="cls-8" d="M188.6,108.22"/><line class="cls-8" x1="188.91" y1="109.79" x2="188.91" y2="108.22"/><line class="cls-8" x1="186.65" y1="106.48" x2="188.72" y2="106.48"/><polyline class="cls-9" points="191.71 129.89 191.71 120.5 196.48 120.5 196.48 129.89"/><line class="cls-8" x1="191.71" y1="124.15" x2="196.3" y2="124.15"/><path class="cls-8" d="M206.33,120.5"/><rect class="cls-9" x="202.68" y="120.5" width="9.14" height="3.66"/><line class="cls-8" x1="205.12" y1="124.15" x2="205.12" y2="120.5"/><line class="cls-8" x1="209.08" y1="124.15" x2="209.08" y2="120.5"/><line class="cls-8" x1="199.94" y1="116.84" x2="199.94" y2="125.06"/><line class="cls-8" x1="202.68" y1="127.81" x2="197.2" y2="127.81"/><line class="cls-8" x1="191.71" y1="127.81" x2="184.4" y2="127.81"/><line class="cls-8" x1="193.54" y1="112.27" x2="195.36" y2="112.27"/><line class="cls-8" x1="196.28" y1="112.27" x2="201.08" y2="112.27"/><line class="cls-8" x1="194.45" y1="111.35" x2="199.94" y2="111.35"/><line class="cls-8" x1="191.71" y1="116.84" x2="193.54" y2="116.84"/><line class="cls-8" x1="210.9" y1="127.81" x2="214.56" y2="127.81"/><path class="cls-8" d="M200.85,109.26"/><path class="cls-8" d="M198.68,107.62"/><path class="cls-8" d="M190.16,107.7"/><path class="cls-8" d="M186.53,110.1"/><line class="cls-8" x1="212.63" y1="126.9" x2="214.56" y2="126.9"/><line class="cls-8" x1="202.6" y1="121.73" x2="205.03" y2="121.73"/><line class="cls-8" x1="208.98" y1="121.76" x2="210.5" y2="121.76"/><line class="cls-8" x1="186.17" y1="108" x2="189.21" y2="108"/><line class="cls-8" x1="213.9" y1="116.38" x2="217" y2="118.06"/><path class="cls-8" d="M210.5,114.69"/><line class="cls-8" x1="210.04" y1="114.27" x2="210.8" y2="114.69"/><path class="cls-8" d="M208.5,113.6"/><line class="cls-8" x1="206.94" y1="112.58" x2="208.78" y2="113.58"/><polyline class="cls-8" points="182.9 114.11 193.96 108.07 205.03 114.11"/><line class="cls-8" x1="200.59" y1="110.47" x2="205.03" y2="112.89"/><path class="cls-8" d="M200.59,110.47"/><path class="cls-8" d="M199.34,109.79"/><line class="cls-8" x1="198.37" y1="109.26" x2="199.34" y2="109.79"/><path class="cls-8" d="M198.37,109.26"/><path class="cls-8" d="M196.5,108.22"/><polyline class="cls-8" points="191.45 108.22 193.96 106.86 196.48 108.22"/><path class="cls-8" d="M191.45,108.22"/><path class="cls-8" d="M189.21,109.45"/><line class="cls-8" x1="182.9" y1="112.89" x2="189.21" y2="109.45"/><line class="cls-8" x1="184.44" y1="129.98" x2="186.48" y2="129.98"/><line class="cls-8" x1="184.44" y1="128.78" x2="185.76" y2="128.78"/><line class="cls-8" x1="184.44" y1="127.71" x2="185.94" y2="127.71"/><line class="cls-8" x1="184.44" y1="126.64" x2="186.48" y2="126.64"/><line class="cls-8" x1="184.44" y1="125.57" x2="185.94" y2="125.57"/><line class="cls-8" x1="184.44" y1="124.54" x2="186.3" y2="124.54"/><line class="cls-8" x1="184.44" y1="123.42" x2="186.48" y2="123.42"/><line class="cls-8" x1="184.44" y1="122.35" x2="185.94" y2="122.35"/><line class="cls-8" x1="184.44" y1="121.28" x2="186.3" y2="121.28"/><line class="cls-8" x1="184.44" y1="120.21" x2="186.48" y2="120.21"/><line class="cls-8" x1="184.44" y1="119.14" x2="185.76" y2="119.14"/><line class="cls-8" x1="184.44" y1="118.06" x2="186.3" y2="118.06"/><line class="cls-8" x1="184.44" y1="117.14" x2="185.94" y2="117.14"/><line class="cls-8" x1="184.44" y1="115.74" x2="186.48" y2="115.74"/><line class="cls-8" x1="184.44" y1="114.85" x2="185.94" y2="114.85"/><line class="cls-8" x1="184.44" y1="113.78" x2="186.48" y2="113.78"/><line class="cls-8" x1="198.02" y1="129.32" x2="199.52" y2="129.32"/><line class="cls-8" x1="198.02" y1="128.29" x2="199.88" y2="128.29"/><line class="cls-8" x1="198.02" y1="127.18" x2="200.05" y2="127.18"/><line class="cls-8" x1="198.02" y1="126.1" x2="199.52" y2="126.1"/><line class="cls-8" x1="198.02" y1="125.03" x2="199.88" y2="125.03"/><line class="cls-8" x1="198.02" y1="123.96" x2="200.05" y2="123.96"/><line class="cls-8" x1="198.02" y1="122.89" x2="199.34" y2="122.89"/><line class="cls-8" x1="198.02" y1="121.82" x2="199.88" y2="121.82"/><line class="cls-8" x1="198.02" y1="120.89" x2="199.52" y2="120.89"/><line class="cls-8" x1="198.02" y1="119.5" x2="200.05" y2="119.5"/><line class="cls-8" x1="198.02" y1="118.6" x2="199.52" y2="118.6"/><line class="cls-8" x1="198.02" y1="117.53" x2="200.05" y2="117.53"/><path class="cls-5" d="M180.08,141.76c7.41,1.25,14.15,4,18.4,7.35"/><path class="cls-5" d="M166.5,141.34a44.65,44.65,0,0,1,6-.29"/><path class="cls-5" d="M156,144.23a32.54,32.54,0,0,1,7.2-2.35"/><path class="cls-10" d="M156,144.23"/><path class="cls-11" d="M131.48,77a6.49,6.49,0,1,1,5.6-9.8,9.65,9.65,0,1,0,0,6.62A6.48,6.48,0,0,1,131.48,77Z"/><path class="cls-10" d="M131.91,78.53a7.2,7.2,0,1,1,6.19-10.9,10.73,10.73,0,1,0,0,7.36A7.2,7.2,0,0,1,131.91,78.53Z"/><polygon class="cls-12" points="76.03 135.38 76.22 147.94 106.71 147.46 106.6 141.01 89.66 135.18 76.03 135.38"/><polygon class="cls-12" points="74.34 135.77 74.53 148.3 52.18 148.65 52.06 140.86 57.07 136.03 74.34 135.77"/><circle class="cls-13" cx="61.63" cy="146.81" r="6.02" transform="translate(-2.25 0.96) rotate(-0.88)"/><circle class="cls-14" cx="61.63" cy="146.81" r="2.2" transform="translate(-2.25 0.96) rotate(-0.88)"/><circle class="cls-13" cx="96.52" cy="146.27" r="6.02" transform="translate(-2.24 1.5) rotate(-0.88)"/><circle class="cls-14" cx="96.52" cy="146.27" r="2.2" transform="translate(-2.24 1.5) rotate(-0.88)"/><path class="cls-7" d="M78.76,125.2l6.61-.1a2.78,2.78,0,0,1,2.49,1.46l3.38,6.25,15.44,5.07A4.86,4.86,0,0,1,110,142.4l.08,5.35-4.06.06"/><path class="cls-15" d="M78.76,125.2"/><path class="cls-15" d="M76.89,125.22"/><line class="cls-15" x1="74.76" y1="125.26" x2="76.89" y2="125.22"/><path class="cls-15" d="M74.76,125.26"/><path class="cls-15" d="M72.86,125.29"/><path class="cls-7" d="M52.18,148.65h-2.4l-.12-9.45,4.28-3.78a3.62,3.62,0,0,0,.67-.8l4.65-7.48a3.56,3.56,0,0,1,3-1.68l10.62-.16"/><line class="cls-7" x1="59.89" y1="121.42" x2="88" y2="120.99"/><path class="cls-1" d="M63.44,121.37"/><line class="cls-7" x1="63.51" y1="125.43" x2="63.44" y2="121.37"/><line class="cls-7" x1="84.68" y1="125.45" x2="84.62" y2="121.38"/><line class="cls-7" x1="70.81" y1="148.36" x2="87.4" y2="148.1"/><line class="cls-7" x1="58.08" y1="135.34" x2="72.64" y2="135.12"/><line class="cls-7" x1="77.04" y1="135.05" x2="90.25" y2="134.85"/><line class="cls-7" x1="77.1" y1="138.78" x2="80.15" y2="138.73"/><line class="cls-7" x1="69.64" y1="138.89" x2="72.69" y2="138.84"/><path class="cls-16" d="M127.32,150.12,144,144.84a.3.3,0,0,1,.37.19h0l.8,2.65a.3.3,0,0,1-.19.37h0l-9,2.84"/><path class="cls-16" d="M131.36,150.74l-9.11-4.42a.3.3,0,0,1-.14-.4h0l1.21-2.5a.3.3,0,0,1,.4-.14h0l13,6.32"/><rect class="cls-17" x="120.23" y="148.46" width="25.14" height="3.38" rx="0.38" ry="0.38"/><path class="cls-18" d="M129.3,144.69s-6.09-4.14-1.07-11.3c0,0,.45,2.31,1.31,2.4s.48-6.35,6.21-9.22c0,0,.36,4.66,3.94,7.2.58.4,1.43-2.5,1.43-2.5s6.28,7-2.52,14.08"/><path class="cls-19" d="M129.84,144.61s-5.48-3.72-1-10.17c0,0,.4,2.08,1.18,2.17s.43-5.71,5.6-8.3c0,0,.32,4.19,3.54,6.45.51.36,1.29-2.26,1.29-2.26s5.66,6.33-2.27,12.67"/><path class="cls-20" d="M132.87,146.64s-2.3-1.14-.72-4.3c.36-.72,1,1.35,1.43,1.07,1.07-.72,1.43-3.2,1.07-3.58s4.3,1.79,2.15,6.45"/><polyline class="cls-21" points="134.66 137.69 136.45 135.18 137.52 136.97"/><polyline class="cls-21" points="128.57 127.38 129.29 126.31 130.36 128.1"/><line class="cls-22" x1="120.1" y1="150.6" x2="125.38" y2="150.6"/><line class="cls-23" x1="128.02" y1="149.64" x2="131.1" y2="149.64"/><line class="cls-22" x1="131.54" y1="150.6" x2="139.03" y2="150.6"/><line class="cls-23" x1="138.15" y1="148.84" x2="139.91" y2="148.84"/><line class="cls-22" x1="142.99" y1="150.6" x2="144.75" y2="150.6"/><path class="cls-5" d="M50,122.51q-6.4,1.92-13.12,4.5"/><path class="cls-5" d="M80,116.61a156.89,156.89,0,0,0-26.7,5"/><path class="cls-5" d="M153.7,129.11s-28.13-16-70.71-12.8"/><line class="cls-6" x1="189.74" y1="177.74" x2="202.76" y2="177.74"/><line class="cls-6" x1="198.69" y1="185.88" x2="201.95" y2="185.88"/><line class="cls-6" x1="187.3" y1="185.88" x2="193.81" y2="185.88"/><line class="cls-24" x1="137.78" y1="105.91" x2="135.7" y2="105.91"/><path class="cls-25" d="M132.84,105.91s-6.34,0-6.34,6.7c0,6,6.34,6.34,6.34,6.34h5.6a3.2,3.2,0,0,1,2.82,3.2,2.76,2.76,0,0,1-2.7,2.82h-.11"/><line class="cls-24" x1="135.62" y1="96.31" x2="137.7" y2="96.31"/><path class="cls-25" d="M140.56,96.31s6.34,0,6.34,6.7c0,6-6.34,6.34-6.34,6.34H135a3.2,3.2,0,0,0-2.82,3.2,2.76,2.76,0,0,0,2.7,2.82H135"/><path class="cls-26" d="M177.68,145"/><polyline class="cls-24" points="182.1 140.71 177.84 137.75 174.1 140.71"/><path class="cls-24" d="M164.88,138.65"/><polyline class="cls-24" points="169.3 130.31 165.04 127.35 161.3 130.31"/><polyline class="cls-24" points="169.3 134.31 165.04 131.35 161.3 134.31"/><path class="cls-26" d="M40.39,140"/><path class="cls-27" d="M51.7,121.16"/><path class="cls-27" d="M81.17,115.13"/><polyline class="cls-28" points="116.56 138.9 116.56 116.54 115.13 117.96"/><path class="cls-28" d="M116.5,134.71"/><line class="cls-29" x1="117.99" y1="117.82" x2="116.7" y2="116.54"/><polyline class="cls-29" points="114.99 120.39 116.48 118.84 117.99 120.39"/><polyline class="cls-29" points="118.24 122.96 116.48 121.22 114.8 122.96"/><polyline class="cls-29" points="118.84 125.1 116.56 123.52 114.56 125.1"/><polyline class="cls-29" points="118.84 127.67 116.56 126.09 114.56 127.67"/><polyline class="cls-29" points="118.84 130.25 116.56 128.66 114.56 130.25"/><polyline class="cls-29" points="118.84 132.39 116.56 130.8 114.56 132.39"/><polygon class="cls-17" points="183.7 147.82 171.7 147.82 177.7 120.39 183.7 147.82"/><line class="cls-17" x1="177.7" y1="133.5" x2="177.7" y2="153.82"/><line class="cls-17" x1="177.55" y1="139.63" x2="176.45" y2="137.87"/><line class="cls-17" x1="177.7" y1="143.27" x2="180.09" y2="139.32"/><line class="cls-17" x1="177.55" y1="145.82" x2="175.15" y2="141.87"/><polygon class="cls-30" points="170.9 137.42 158.9 137.42 164.9 109.99 170.9 137.42"/><line class="cls-30" x1="164.9" y1="123.1" x2="164.9" y2="143.42"/><line class="cls-30" x1="164.75" y1="129.23" x2="163.65" y2="127.47"/><line class="cls-30" x1="164.9" y1="132.87" x2="167.29" y2="128.92"/><line class="cls-30" x1="164.75" y1="135.42" x2="162.35" y2="131.47"/><polygon class="cls-17" points="46.9 141.43 34.9 141.43 40.9 110.4 46.9 141.43"/><line class="cls-17" x1="40.9" y1="125.23" x2="40.9" y2="148.22"/><line class="cls-17" x1="40.75" y1="132.17" x2="39.65" y2="130.17"/><line class="cls-17" x1="40.9" y1="136.29" x2="43.29" y2="131.82"/><line class="cls-17" x1="40.75" y1="139.17" x2="38.35" y2="134.7"/><polygon class="cls-30" points="121.3 134.62 111.7 134.62 116.5 112.68 121.3 134.62"/><line class="cls-30" x1="116.5" y1="123.16" x2="116.5" y2="139.42"/><line class="cls-30" x1="116.38" y1="128.07" x2="115.5" y2="126.66"/><line class="cls-30" x1="116.5" y1="130.98" x2="118.42" y2="127.82"/><line class="cls-30" x1="116.38" y1="133.02" x2="114.46" y2="129.86"/><polygon class="cls-30" points="85.3 113.9 77.47 113.9 81.38 96 85.3 113.9"/><line class="cls-30" x1="81.38" y1="104.56" x2="81.38" y2="117.82"/><line class="cls-30" x1="81.28" y1="108.56" x2="80.57" y2="107.41"/><line class="cls-30" x1="81.38" y1="110.94" x2="82.95" y2="108.36"/><line class="cls-30" x1="81.28" y1="112.6" x2="79.72" y2="110.02"/><rect class="cls-1" x="2.1" width="236.8" height="236.8"/><circle class="cls-4" cx="6.1" cy="56.8" r="5.6"/><circle class="cls-4" cx="222.9" cy="56.8" r="5.6"/></g></g></svg>