<svg xmlns="http://www.w3.org/2000/svg" viewBox="0 0 239.04 236.8"><defs><style>.cls-1,.cls-12,.cls-13,.cls-3,.cls-8{fill:none;}.cls-1,.cls-10,.cls-12,.cls-3,.cls-4,.cls-7,.cls-8{stroke:#414042;}.cls-1,.cls-10,.cls-12,.cls-3,.cls-4,.cls-7{stroke-linecap:round;}.cls-1,.cls-3,.cls-4,.cls-7{stroke-linejoin:round;}.cls-1,.cls-10,.cls-12,.cls-4,.cls-7{stroke-width:2px;}.cls-2{fill:#193057;}.cls-3{stroke-width:3px;}.cls-4,.cls-6{fill:#cee4f5;}.cls-5{fill:#722c36;}.cls-7{fill:#fff;}.cls-10,.cls-12,.cls-8{stroke-miterlimit:10;}.cls-9{fill:#cee3f6;}.cls-10,.cls-11{fill:#fcc062;}.cls-14{fill:#414042;}.cls-15{fill:#e6e6e6;}</style></defs><title>Trail illustration 3</title><g id="Layer_2" data-name="Layer 2"><g id="Trail_Elements" data-name="Trail Elements"><polygon class="cls-1" points="24.69 186.23 4.95 186.23 14.82 141.12 24.69 186.23"/><line class="cls-1" x1="14.82" y1="162.67" x2="14.82" y2="196.1"/><line class="cls-1" x1="14.57" y1="172.76" x2="12.77" y2="169.86"/><line class="cls-1" x1="14.82" y1="178.75" x2="18.76" y2="172.25"/><line class="cls-1" x1="14.57" y1="182.94" x2="10.63" y2="176.45"/><path class="cls-2" d="M37.54,159.74l-.23-2.18A1.93,1.93,0,0,1,39,155.44L43.4,155a1.93,1.93,0,0,1,2.11,1.71l.23,2.18"/><path class="cls-2" d="M52.11,158.21,51.88,156a1.93,1.93,0,0,1,1.71-2.11l4.37-.46a1.93,1.93,0,0,1,2.11,1.71l.23,2.18"/><path class="cls-2" d="M43.24,154.4l-.2-1.93c-.1-.93,1-1.8,2.35-1.95l5.78-.6c1.39-.15,2.61.49,2.7,1.42l.2,1.93"/><line class="cls-1" x1="1" y1="137.12" x2="14.02" y2="137.12"/><line class="cls-1" x1="32.19" y1="137.12" x2="11.36" y2="137.12"/><line class="cls-1" x1="37.09" y1="137.12" x2="39.54" y2="137.12"/><line class="cls-1" x1="42.6" y1="137.12" x2="59.14" y2="137.12"/><line class="cls-1" x1="64.05" y1="137.12" x2="75.07" y2="137.12"/><line class="cls-1" x1="79.36" y1="137.12" x2="83.04" y2="137.12"/><line class="cls-1" x1="189.93" y1="137.12" x2="223.34" y2="137.12"/><line class="cls-1" x1="227.63" y1="137.12" x2="238.04" y2="137.12"/><line class="cls-1" x1="42.91" y1="142.47" x2="15.34" y2="142.47"/><line class="cls-1" x1="46.58" y1="142.47" x2="49.65" y2="142.47"/><line class="cls-1" x1="52.1" y1="142.47" x2="72.32" y2="142.47"/><line class="cls-1" x1="77.22" y1="142.47" x2="81.53" y2="142.47"/><line class="cls-3" x1="63.43" y1="146.89" x2="65.88" y2="146.89"/><line class="cls-3" x1="62.21" y1="150.6" x2="70.17" y2="150.6"/><line class="cls-3" x1="74.46" y1="150.6" x2="76.3" y2="150.6"/><line class="cls-3" x1="79.36" y1="150.6" x2="81.2" y2="150.6"/><line class="cls-1" x1="189.73" y1="155.78" x2="196.47" y2="155.78"/><line class="cls-1" x1="200.23" y1="155.78" x2="202.07" y2="155.78"/><line class="cls-1" x1="201.37" y1="160.27" x2="209.33" y2="160.27"/><polyline class="cls-1" points="124.44 124.88 160.53 105.19 196.62 124.88"/><path class="cls-1" d="M199.9,124.88"/><line class="cls-1" x1="82.81" y1="105.19" x2="121.15" y2="105.19"/><line class="cls-1" x1="98.18" y1="111.76" x2="130.99" y2="111.76"/><line class="cls-1" x1="131" y1="124.88" x2="131" y2="164.26"/><line class="cls-1" x1="190.06" y1="124.88" x2="190.06" y2="175.16"/><line class="cls-1" x1="81.78" y1="108.48" x2="81.78" y2="168.62"/><line class="cls-1" x1="89.22" y1="87.39" x2="89.22" y2="97.81"/><path class="cls-1" d="M89.22,87.39"/><path class="cls-1" d="M96.86,87.39"/><line class="cls-1" x1="97.96" y1="93" x2="97.96" y2="87.39"/><line class="cls-1" x1="89.87" y1="81.12" x2="97.3" y2="81.12"/><polyline class="cls-1" points="108.03 165.16 108.03 131.44 125.15 131.44 125.15 165.16"/><line class="cls-1" x1="108.03" y1="144.57" x2="124.51" y2="144.57"/><path class="cls-1" d="M160.53,131.44"/><rect class="cls-4" x="147.41" y="131.44" width="32.81" height="13.12"/><line class="cls-4" x1="156.14" y1="144.57" x2="156.14" y2="131.44"/><line class="cls-1" x1="170.37" y1="144.56" x2="170.37" y2="131.44"/><line class="cls-1" x1="137.56" y1="118.32" x2="137.56" y2="147.85"/><line class="cls-1" x1="147.41" y1="157.69" x2="127.72" y2="157.69"/><line class="cls-1" x1="108.03" y1="157.69" x2="81.78" y2="157.69"/><line class="cls-1" x1="114.59" y1="101.91" x2="121.15" y2="101.91"/><line class="cls-1" x1="124.43" y1="101.91" x2="141.64" y2="101.91"/><line class="cls-1" x1="117.87" y1="98.62" x2="137.56" y2="98.62"/><line class="cls-1" x1="108.03" y1="118.32" x2="114.59" y2="118.32"/><line class="cls-1" x1="176.93" y1="157.69" x2="190.06" y2="157.69"/><path class="cls-1" d="M72.45,171.24c46.61-14.37,125.39-5,160.46,30.48"/><path class="cls-1" d="M140.84,91.11"/><path class="cls-1" d="M133,85.2"/><path class="cls-1" d="M102.47,85.49"/><path class="cls-1" d="M89.44,94.11"/><line class="cls-1" x1="183.13" y1="154.42" x2="190.06" y2="154.42"/><line class="cls-1" x1="147.1" y1="135.85" x2="155.83" y2="135.85"/><line class="cls-1" x1="170.03" y1="135.98" x2="175.49" y2="135.98"/><line class="cls-1" x1="88.13" y1="86.58" x2="99.05" y2="86.58"/><line class="cls-1" x1="187.69" y1="116.63" x2="198.81" y2="122.7"/><path class="cls-1" d="M175.49,110.58"/><line class="cls-1" x1="173.84" y1="109.08" x2="176.59" y2="110.58"/><path class="cls-1" d="M168.21,106.6"/><line class="cls-1" x1="162.71" y1="103.01" x2="169.3" y2="106.6"/><polyline class="cls-1" points="76.39 108.5 116.11 86.84 155.83 108.5"/><line class="cls-1" x1="139.88" y1="95.44" x2="155.83" y2="104.13"/><path class="cls-1" d="M139.88,95.44"/><path class="cls-1" d="M135.42,93"/><line class="cls-1" x1="131.95" y1="91.11" x2="135.42" y2="93"/><path class="cls-1" d="M132,91.11"/><path class="cls-1" d="M125.13,87.39"/><polyline class="cls-1" points="107.09 87.39 116.11 82.47 125.13 87.39"/><path class="cls-1" d="M107.09,87.39"/><path class="cls-1" d="M99,91.77"/><line class="cls-1" x1="76.39" y1="104.13" x2="99.05" y2="91.77"/><path class="cls-1" d="M10.63,198.18c21-8.69,77.19-25.93,129.25,10.51"/><path class="cls-1" d="M10.63,198.18"/><polygon class="cls-5" points="50.96 173.32 52.03 184.62 79.47 182.03 78.92 176.21 63.23 172.16 50.96 173.32"/><polygon class="cls-5" points="49.47 173.79 50.53 185.07 30.41 186.98 29.74 179.96 33.91 175.26 49.47 173.79"/><path class="cls-6" d="M34.33,174.66l2.8-5.88a2,2,0,0,1,1.9-1.38l18.67-1.6a2,2,0,0,1,2.11,1l3.43,5.34"/><circle class="cls-7" cx="38.8" cy="184.64" r="5.45" transform="translate(-17.22 4.48) rotate(-5.41)"/><circle class="cls-1" cx="38.8" cy="184.64" r="1.99" transform="translate(-17.22 4.48) rotate(-5.41)"/><circle class="cls-7" cx="70.21" cy="181.67" r="5.45" transform="translate(-16.8 7.42) rotate(-5.41)"/><circle class="cls-1" cx="70.21" cy="181.67" r="1.99" transform="translate(-16.8 7.42) rotate(-5.41)"/><path class="cls-1" d="M52.69,163.95l6-.56A2.52,2.52,0,0,1,61,164.52l3.49,5.39,14.28,3.47a4.39,4.39,0,0,1,3.33,3.85l.46,4.82-3.66.35"/><path class="cls-1" d="M52.69,163.95"/><path class="cls-1" d="M51,164.1"/><line class="cls-1" x1="49.09" y1="164.29" x2="51.01" y2="164.1"/><path class="cls-1" d="M49.09,164.29"/><path class="cls-1" d="M47.38,164.45"/><path class="cls-1" d="M30.41,187l-2.13.2-.81-8.54,3.59-3.72a3.27,3.27,0,0,0,.55-.77l3.65-7.07a3.22,3.22,0,0,1,2.56-1.73l9.56-.9"/><line class="cls-1" x1="35.42" y1="161.89" x2="60.73" y2="159.49"/><path class="cls-8" d="M38.62,161.59"/><line class="cls-1" x1="38.96" y1="165.24" x2="38.62" y2="161.59"/><line class="cls-1" x1="58.05" y1="163.75" x2="57.71" y2="160.09"/><path class="cls-1" d="M36.43,159.56l-.23-2.4a2.11,2.11,0,0,1,1.9-2.3l4.8-.45a2.11,2.11,0,0,1,2.3,1.9l.23,2.4"/><path class="cls-1" d="M50.45,158.23l-.23-2.4a2.11,2.11,0,0,1,1.9-2.3l4.8-.45a2.11,2.11,0,0,1,2.3,1.9l.23,2.4"/><path class="cls-1" d="M41.49,154.54l-.2-2.11c-.1-1,1.07-2,2.6-2.11l6.34-.6c1.53-.14,2.85.57,3,1.59l.2,2.11"/><line class="cls-1" x1="47.18" y1="185.39" x2="62.12" y2="183.98"/><line class="cls-1" x1="34.77" y1="174.56" x2="47.88" y2="173.32"/><line class="cls-1" x1="51.85" y1="172.95" x2="63.74" y2="171.82"/><line class="cls-1" x1="52.16" y1="176.3" x2="54.91" y2="176.04"/><line class="cls-1" x1="45.46" y1="176.94" x2="48.2" y2="176.68"/><line class="cls-1" x1="191.89" y1="143.6" x2="193.73" y2="143.6"/><line class="cls-1" x1="194.95" y1="143.6" x2="202.92" y2="143.6"/><line class="cls-3" x1="4.43" y1="117.05" x2="21.63" y2="117.05"/><line class="cls-3" x1="25.81" y1="117.05" x2="23.49" y2="117.05"/><line class="cls-3" x1="29.53" y1="117.05" x2="62.07" y2="117.05"/><line class="cls-3" x1="64.86" y1="117.05" x2="66.26" y2="117.05"/><line class="cls-3" x1="69.05" y1="117.05" x2="72.3" y2="117.05"/><path class="cls-9" d="M9.78,116.35s-5.11-3.72,0-9.76,12.09-.46,12.09-.46,1.39-3.72,4.18-4.18,6,1.39,6,1.39A12.36,12.36,0,0,1,43.71,95.9a13.36,13.36,0,0,1,13.48,10.69s6.51-.46,7,4.18-1.86,5.58-1.86,5.58Z"/><line class="cls-3" x1="159.38" y1="96.53" x2="176.58" y2="96.53"/><line class="cls-3" x1="180.76" y1="96.53" x2="178.44" y2="96.53"/><line class="cls-3" x1="184.48" y1="96.53" x2="217.02" y2="96.53"/><line class="cls-3" x1="219.81" y1="96.53" x2="221.2" y2="96.53"/><path class="cls-9" d="M164.72,95.83s-5.11-3.72,0-9.76,12.09-.46,12.09-.46,1.39-3.72,4.18-4.18,6,1.39,6,1.39a12.36,12.36,0,0,1,11.62-7.44,13.36,13.36,0,0,1,13.48,10.69s6.51-.46,7,4.18-1.86,5.58-1.86,5.58Z"/><polygon class="cls-7" points="218.43 174.35 198.69 174.35 208.56 129.24 218.43 174.35"/><line class="cls-7" x1="208.56" y1="150.8" x2="208.56" y2="184.22"/><line class="cls-7" x1="208.3" y1="160.88" x2="206.51" y2="157.98"/><line class="cls-7" x1="208.56" y1="166.87" x2="212.5" y2="160.38"/><line class="cls-7" x1="208.3" y1="171.06" x2="204.37" y2="164.57"/><polygon class="cls-1" points="234.5 187.98 220.21 187.98 227.35 172.22 234.5 187.98"/><line class="cls-1" x1="227.35" y1="188.89" x2="227.35" y2="195.13"/><line class="cls-1" x1="222.96" y1="186.24" x2="226.62" y2="178.16"/><line class="cls-10" x1="73.14" y1="73.46" x2="73.14" y2="67.9"/><line class="cls-10" x1="48.91" y1="57.74" x2="47.53" y2="57.74"/><path class="cls-11" d="M63.35,47.26a12.5,12.5,0,0,1,9.79-4.91h.17A12.56,12.56,0,0,1,85.87,54.89a12.33,12.33,0,0,1-.33,2.85,12.55,12.55,0,0,1-24.44,0,12.48,12.48,0,0,1,2.26-10.48Z"/><line class="cls-12" x1="96.17" y1="57.74" x2="97.32" y2="57.74"/><line class="cls-12" x1="95.2" y1="57.74" x2="96.17" y2="57.74"/><line class="cls-12" x1="91.57" y1="57.74" x2="92.63" y2="57.74"/><line class="cls-12" x1="85.53" y1="57.74" x2="91.57" y2="57.74"/><line class="cls-12" x1="88.68" y1="72.6" x2="90.5" y2="74.41"/><line class="cls-12" x1="87.01" y1="43.64" x2="90.48" y2="40.17"/><line class="cls-12" x1="86.24" y1="70.15" x2="88.68" y2="72.6"/><line class="cls-12" x1="83.76" y1="57.74" x2="85.53" y2="57.74"/><line class="cls-12" x1="83.33" y1="47.32" x2="84.35" y2="46.3"/><line class="cls-12" x1="80.94" y1="64.86" x2="84.17" y2="68.08"/><line class="cls-12" x1="80.72" y1="64.62" x2="80.94" y2="64.86"/><line class="cls-12" x1="73.14" y1="78.57" x2="73.14" y2="81.46"/><line class="cls-12" x1="73.14" y1="76.29" x2="73.14" y2="78.57"/><line class="cls-12" x1="73.14" y1="33.44" x2="73.14" y2="42.35"/><line class="cls-12" x1="65.74" y1="64.9" x2="66.02" y2="64.62"/><line class="cls-12" x1="61.27" y1="69.38" x2="65.74" y2="64.9"/><line class="cls-12" x1="59.73" y1="43.64" x2="63.35" y2="47.26"/><line class="cls-12" x1="61.09" y1="57.74" x2="62.98" y2="57.74"/><line class="cls-12" x1="51.99" y1="57.74" x2="61.09" y2="57.74"/><line class="cls-12" x1="57.87" y1="72.75" x2="59.73" y2="70.92"/><line class="cls-12" x1="56.07" y1="39.98" x2="58.19" y2="42.1"/><line class="cls-12" x1="56.19" y1="74.41" x2="57.87" y2="72.75"/><line class="cls-12" x1="55.85" y1="39.77" x2="56.07" y2="39.98"/><line class="cls-1" x1="81.93" y1="165.49" x2="89.23" y2="165.49"/><line class="cls-1" x1="81.93" y1="161.19" x2="86.66" y2="161.19"/><line class="cls-1" x1="81.93" y1="157.34" x2="87.3" y2="157.34"/><line class="cls-1" x1="81.93" y1="153.49" x2="89.23" y2="153.49"/><line class="cls-1" x1="81.93" y1="149.64" x2="87.3" y2="149.64"/><line class="cls-1" x1="81.93" y1="145.93" x2="88.59" y2="145.93"/><line class="cls-1" x1="81.93" y1="141.94" x2="89.23" y2="141.94"/><line class="cls-1" x1="81.93" y1="138.09" x2="87.3" y2="138.09"/><line class="cls-1" x1="81.93" y1="134.25" x2="88.59" y2="134.25"/><line class="cls-1" x1="81.93" y1="130.4" x2="89.23" y2="130.4"/><line class="cls-1" x1="81.93" y1="126.55" x2="86.66" y2="126.55"/><line class="cls-1" x1="81.93" y1="122.7" x2="88.59" y2="122.7"/><line class="cls-1" x1="81.93" y1="119.39" x2="87.3" y2="119.39"/><line class="cls-1" x1="81.93" y1="114.39" x2="89.23" y2="114.39"/><line class="cls-1" x1="81.93" y1="111.15" x2="87.3" y2="111.15"/><line class="cls-1" x1="81.93" y1="107.3" x2="89.23" y2="107.3"/><line class="cls-1" x1="130.68" y1="163.11" x2="136.05" y2="163.11"/><line class="cls-1" x1="130.68" y1="159.4" x2="137.33" y2="159.4"/><line class="cls-1" x1="130.68" y1="155.41" x2="137.98" y2="155.41"/><line class="cls-1" x1="130.68" y1="151.56" x2="136.05" y2="151.56"/><line class="cls-1" x1="130.68" y1="147.72" x2="137.33" y2="147.72"/><line class="cls-1" x1="130.68" y1="143.87" x2="137.98" y2="143.87"/><line class="cls-1" x1="130.68" y1="140.02" x2="135.41" y2="140.02"/><line class="cls-1" x1="130.68" y1="136.17" x2="137.33" y2="136.17"/><line class="cls-1" x1="130.68" y1="132.86" x2="136.05" y2="132.86"/><line class="cls-1" x1="130.68" y1="127.86" x2="137.98" y2="127.86"/><line class="cls-1" x1="130.68" y1="124.62" x2="136.05" y2="124.62"/><line class="cls-1" x1="130.68" y1="120.78" x2="137.98" y2="120.78"/><rect class="cls-13" x="1" width="236.8" height="236.8"/><circle class="cls-14" cx="111" cy="149.2" r="1.2"/><rect class="cls-15" x="110.6" y="134.4" width="12.8" height="7.2"/></g></g></svg>