<svg xmlns="http://www.w3.org/2000/svg" viewBox="0 0 97.4 97.4"><defs><style>.cls-1{fill:#414042;}</style></defs><title>Instagram Icon</title><g id="Layer_2" data-name="Layer 2"><g id="Capa_1" data-name="Capa 1"><path class="cls-1" d="M12.5,0H84.9A12.2,12.2,0,0,1,97.4,12.5V84.9A12.2,12.2,0,0,1,84.9,97.4H12.5A12.2,12.2,0,0,1,0,84.9V12.5A12.2,12.2,0,0,1,12.5,0ZM70.9,10.8a4.44,4.44,0,0,0-4.4,4.4V25.7a4.44,4.44,0,0,0,4.4,4.4h11a4.44,4.44,0,0,0,4.4-4.4V15.2a4.44,4.44,0,0,0-4.4-4.4ZM86.4,41.2H77.8A28.91,28.91,0,0,1,79,49.6c0,16.2-13.6,29.3-30.3,29.3S18.4,65.8,18.4,49.6a29.41,29.41,0,0,1,1.2-8.4H10.7V82.3a3.9,3.9,0,0,0,3.9,3.9H82.4a3.9,3.9,0,0,0,3.9-3.9l.1-41.1ZM48.8,29.5c-10.8,0-19.6,8.5-19.6,19s8.8,19,19.6,19,19.6-8.5,19.6-19S59.6,29.5,48.8,29.5Z"/></g></g></svg>