<svg xmlns="http://www.w3.org/2000/svg" xmlns:xlink="http://www.w3.org/1999/xlink" viewBox="0 0 349 343"><defs><style>.cls-1,.cls-5,.cls-6,.cls-8{fill:none;}.cls-11,.cls-14,.cls-2,.cls-3{fill:#fff;}.cls-2{stroke:#fff;}.cls-14,.cls-2,.cls-5,.cls-6,.cls-7,.cls-8{stroke-miterlimit:10;}.cls-4{clip-path:url(#clip-path);}.cls-11,.cls-12,.cls-14,.cls-5,.cls-6,.cls-7,.cls-8{stroke:#ccc;}.cls-5,.cls-8{stroke-linecap:round;}.cls-11,.cls-12,.cls-5{stroke-width:2px;}.cls-7{fill:#ccc;}.cls-9{fill:#722c36;}.cls-10{fill:#fcc062;}.cls-11,.cls-12{stroke-linejoin:round;}.cls-12{fill:#f7df75;}.cls-13{clip-path:url(#clip-path-2);}.cls-15{clip-path:url(#clip-path-3);}.cls-16{font-size:18px;fill:#414042;font-family:SanFranciscoDisplay-Semibold, San Francisco Display;font-weight:700;letter-spacing:0.1em;}.cls-17{letter-spacing:0.09em;}.cls-18{letter-spacing:0.09em;}</style><clipPath id="clip-path"><rect class="cls-1" x="74" y="26.5" width="240" height="240" transform="translate(47.5 340.5) rotate(-90)"/></clipPath><clipPath id="clip-path-2"><polygon class="cls-1" points="155 248.5 151.5 226 186.5 220 189 248.5 172.5 247 170.5 240 166 248.5 155 248.5"/></clipPath><clipPath id="clip-path-3"><polygon class="cls-1" points="266 66.5 262.5 44 297.5 38 300 66.5 283.5 65 281.5 58 277 66.5 266 66.5"/></clipPath></defs><title>Card 1</title><g id="Layer_2" data-name="Layer 2"><g id="Services_Icon" data-name="Services Icon"><rect class="cls-2" x="38" y="0.5" width="310" height="342"/><rect class="cls-3" x="39" y="0.5" width="310" height="342"/><g class="cls-4"><line class="cls-5" x1="33.2" y1="52.02" x2="49.81" y2="52.02"/><line class="cls-5" x1="62.27" y1="52.02" x2="85.8" y2="52.02"/><line class="cls-5" x1="101.03" y1="52.02" x2="106.56" y2="52.02"/><line class="cls-5" x1="126" y1="48.85" x2="169.92" y2="48.85"/><line class="cls-5" x1="188.23" y1="52.02" x2="286.51" y2="52.02"/><line class="cls-5" x1="16.59" y1="58.06" x2="31.81" y2="58.06"/><line class="cls-5" x1="41.5" y1="58.06" x2="49.81" y2="58.06"/><line class="cls-5" x1="98.26" y1="58.06" x2="116.25" y2="58.06"/><line class="cls-5" x1="125.94" y1="58.06" x2="130.09" y2="58.06"/><line class="cls-5" x1="137.02" y1="58.06" x2="141.17" y2="58.06"/><line class="cls-5" x1="166.08" y1="58.06" x2="199.31" y2="58.06"/><line class="cls-5" x1="217.3" y1="58.06" x2="244.99" y2="58.06"/><line class="cls-5" x1="251.91" y1="58.06" x2="256.06" y2="58.06"/><line class="cls-5" x1="31.81" y1="66.35" x2="41.5" y2="66.35"/><line class="cls-5" x1="48.43" y1="66.35" x2="56.73" y2="66.35"/><line class="cls-5" x1="78.88" y1="73.9" x2="96.87" y2="73.9"/><line class="cls-5" x1="102.41" y1="73.9" x2="109.33" y2="73.9"/><line class="cls-5" x1="116.25" y1="73.9" x2="128.71" y2="73.9"/><line class="cls-5" x1="210.38" y1="66.35" x2="232.53" y2="66.35"/><line class="cls-5" x1="225.61" y1="73.9" x2="231.14" y2="73.9"/><line class="cls-5" x1="206.23" y1="73.9" x2="217.3" y2="73.9"/><line class="cls-5" x1="294.77" y1="58.19" x2="316.92" y2="58.19"/><line class="cls-5" x1="310" y1="65.74" x2="315.53" y2="65.74"/><line class="cls-5" x1="290.62" y1="65.74" x2="301.69" y2="65.74"/><line class="cls-5" x1="52.7" y1="23.34" x2="1" y2="23.34"/><line class="cls-5" x1="59.6" y1="23.34" x2="65.34" y2="23.34"/><line class="cls-5" x1="69.94" y1="23.34" x2="107.85" y2="23.34"/><line class="cls-5" x1="117.05" y1="23.34" x2="130.83" y2="23.34"/><line class="cls-5" x1="137.73" y1="23.34" x2="144.62" y2="23.34"/><line class="cls-5" x1="154.96" y1="23.34" x2="169.9" y2="23.34"/><line class="cls-5" x1="195.18" y1="23.34" x2="212.41" y2="23.34"/><line class="cls-5" x1="223.9" y1="23.34" x2="235.39" y2="23.34"/><line class="cls-5" x1="34.89" y1="30.51" x2="48.68" y2="30.51"/><line class="cls-5" x1="59.02" y1="30.51" x2="78.56" y2="30.51"/><line class="cls-5" x1="91.19" y1="30.51" x2="95.79" y2="30.51"/><line class="cls-5" x1="140.6" y1="30.51" x2="149.79" y2="30.51"/><line class="cls-5" x1="163.58" y1="30.51" x2="245.16" y2="30.51"/><line class="cls-5" x1="21.11" y1="36.54" x2="33.75" y2="36.54"/><line class="cls-5" x1="41.79" y1="36.54" x2="48.68" y2="36.54"/><line class="cls-5" x1="88.9" y1="36.54" x2="103.83" y2="36.54"/><line class="cls-5" x1="111.88" y1="36.54" x2="115.32" y2="36.54"/><line class="cls-5" x1="121.07" y1="36.54" x2="124.51" y2="36.54"/><line class="cls-5" x1="145.2" y1="36.54" x2="172.77" y2="36.54"/><line class="cls-5" x1="187.71" y1="36.54" x2="210.69" y2="36.54"/><line class="cls-5" x1="216.43" y1="36.54" x2="219.88" y2="36.54"/><line class="cls-5" x1="33.75" y1="44.84" x2="41.79" y2="44.84"/><line class="cls-5" x1="47.53" y1="44.84" x2="54.43" y2="44.84"/><line class="cls-5" x1="181.96" y1="44.84" x2="200.35" y2="44.84"/><line class="cls-5" x1="273.59" y1="23.28" x2="286.23" y2="23.28"/><line class="cls-5" x1="289.68" y1="23.28" x2="293.13" y2="23.28"/><line class="cls-5" x1="295.43" y1="23.28" x2="310.36" y2="23.28"/><line class="cls-5" x1="252.01" y1="36.68" x2="270.4" y2="36.68"/><line class="cls-5" x1="264.65" y1="44.23" x2="269.25" y2="44.23"/><line class="cls-5" x1="248.56" y1="44.23" x2="257.76" y2="44.23"/><line class="cls-5" x1="34.33" y1="83.18" x2="50.94" y2="83.18"/><line class="cls-5" x1="63.4" y1="83.18" x2="86.93" y2="83.18"/><line class="cls-5" x1="102.16" y1="83.18" x2="107.69" y2="83.18"/><line class="cls-5" x1="127.13" y1="80" x2="171.05" y2="80"/><line class="cls-5" x1="189.36" y1="83.18" x2="287.64" y2="83.18"/><line class="cls-5" x1="17.72" y1="89.21" x2="32.94" y2="89.21"/><line class="cls-5" x1="42.63" y1="89.21" x2="50.94" y2="89.21"/><line class="cls-5" x1="99.39" y1="89.21" x2="117.38" y2="89.21"/><line class="cls-5" x1="127.07" y1="89.21" x2="131.22" y2="89.21"/><line class="cls-5" x1="138.15" y1="89.21" x2="142.3" y2="89.21"/><line class="cls-5" x1="167.21" y1="89.21" x2="200.44" y2="89.21"/><line class="cls-5" x1="218.43" y1="89.21" x2="246.11" y2="89.21"/><line class="cls-5" x1="253.04" y1="89.21" x2="257.19" y2="89.21"/><line class="cls-5" x1="32.94" y1="97.51" x2="42.63" y2="97.51"/><line class="cls-5" x1="49.55" y1="97.51" x2="57.86" y2="97.51"/><line class="cls-5" x1="80.01" y1="105.05" x2="98" y2="105.05"/><line class="cls-5" x1="103.54" y1="105.05" x2="110.46" y2="105.05"/><line class="cls-5" x1="117.38" y1="105.05" x2="129.84" y2="105.05"/><line class="cls-5" x1="211.51" y1="97.51" x2="233.66" y2="97.51"/><line class="cls-5" x1="226.74" y1="105.05" x2="232.27" y2="105.05"/><line class="cls-5" x1="207.36" y1="105.05" x2="218.43" y2="105.05"/><line class="cls-5" x1="295.9" y1="89.35" x2="318.05" y2="89.35"/><line class="cls-5" x1="311.13" y1="96.89" x2="316.66" y2="96.89"/><line class="cls-5" x1="291.75" y1="96.89" x2="302.82" y2="96.89"/><line class="cls-5" x1="34.88" y1="76" x2="42.92" y2="76"/><line class="cls-5" x1="48.66" y1="76" x2="55.56" y2="76"/><line class="cls-5" x1="154.85" y1="70.06" x2="173.23" y2="70.06"/><line class="cls-5" x1="273.69" y1="70.19" x2="278.28" y2="70.19"/><line class="cls-5" x1="257.6" y1="70.19" x2="266.79" y2="70.19"/><line class="cls-5" x1="36.28" y1="113.95" x2="52.89" y2="113.95"/><line class="cls-5" x1="65.35" y1="113.95" x2="88.88" y2="113.95"/><line class="cls-5" x1="104.11" y1="113.95" x2="109.65" y2="113.95"/><line class="cls-5" x1="129.08" y1="110.78" x2="173" y2="110.78"/><line class="cls-5" x1="191.31" y1="113.95" x2="289.59" y2="113.95"/><line class="cls-5" x1="19.67" y1="119.98" x2="34.9" y2="119.98"/><line class="cls-5" x1="44.59" y1="119.98" x2="52.89" y2="119.98"/><line class="cls-5" x1="101.34" y1="119.98" x2="119.33" y2="119.98"/><line class="cls-5" x1="129.02" y1="119.98" x2="133.18" y2="119.98"/><line class="cls-5" x1="140.1" y1="119.98" x2="144.25" y2="119.98"/><line class="cls-5" x1="169.17" y1="119.98" x2="202.39" y2="119.98"/><line class="cls-5" x1="220.38" y1="119.98" x2="248.07" y2="119.98"/><line class="cls-5" x1="254.99" y1="119.98" x2="259.14" y2="119.98"/><line class="cls-5" x1="34.9" y1="128.28" x2="44.59" y2="128.28"/><line class="cls-5" x1="51.51" y1="128.28" x2="59.81" y2="128.28"/><line class="cls-5" x1="81.96" y1="135.83" x2="99.96" y2="135.83"/><line class="cls-5" x1="105.49" y1="135.83" x2="112.41" y2="135.83"/><line class="cls-5" x1="119.33" y1="135.83" x2="131.79" y2="135.83"/><line class="cls-5" x1="213.46" y1="128.28" x2="235.61" y2="128.28"/><line class="cls-5" x1="228.69" y1="135.83" x2="234.23" y2="135.83"/><line class="cls-5" x1="209.31" y1="135.83" x2="220.38" y2="135.83"/><line class="cls-5" x1="297.85" y1="120.12" x2="320" y2="120.12"/><line class="cls-5" x1="313.08" y1="127.67" x2="318.62" y2="127.67"/><line class="cls-5" x1="293.7" y1="127.67" x2="304.77" y2="127.67"/><line class="cls-5" x1="36.83" y1="106.77" x2="44.87" y2="106.77"/><line class="cls-5" x1="50.62" y1="106.77" x2="57.51" y2="106.77"/><line class="cls-5" x1="156.8" y1="100.83" x2="175.18" y2="100.83"/><line class="cls-5" x1="275.64" y1="100.96" x2="280.24" y2="100.96"/><line class="cls-5" x1="259.56" y1="100.96" x2="268.75" y2="100.96"/><line class="cls-5" x1="54.17" y1="172.02" x2="69.22" y2="172.02"/><line class="cls-5" x1="80.51" y1="172.02" x2="101.82" y2="172.02"/><line class="cls-5" x1="115.62" y1="172.02" x2="120.63" y2="172.02"/><line class="cls-5" x1="138.24" y1="168.85" x2="178.03" y2="168.85"/><line class="cls-5" x1="194.62" y1="172.02" x2="283.66" y2="172.02"/><line class="cls-5" x1="39.12" y1="178.06" x2="52.92" y2="178.06"/><line class="cls-5" x1="61.69" y1="178.06" x2="69.22" y2="178.06"/><line class="cls-5" x1="113.11" y1="178.06" x2="129.41" y2="178.06"/><line class="cls-5" x1="138.19" y1="178.06" x2="141.95" y2="178.06"/><line class="cls-5" x1="148.22" y1="178.06" x2="151.99" y2="178.06"/><line class="cls-5" x1="174.56" y1="178.06" x2="204.66" y2="178.06"/><line class="cls-5" x1="220.96" y1="178.06" x2="246.04" y2="178.06"/><line class="cls-5" x1="252.31" y1="178.06" x2="256.07" y2="178.06"/><line class="cls-5" x1="52.92" y1="186.35" x2="61.69" y2="186.35"/><line class="cls-5" x1="67.96" y1="186.35" x2="75.49" y2="186.35"/><line class="cls-5" x1="95.55" y1="193.9" x2="111.86" y2="193.9"/><line class="cls-5" x1="116.87" y1="193.9" x2="123.14" y2="193.9"/><line class="cls-5" x1="129.41" y1="193.9" x2="140.7" y2="193.9"/><line class="cls-5" x1="214.69" y1="186.35" x2="234.75" y2="186.35"/><line class="cls-5" x1="228.48" y1="193.9" x2="233.5" y2="193.9"/><line class="cls-5" x1="210.93" y1="193.9" x2="220.96" y2="193.9"/><line class="cls-5" x1="291.14" y1="178.19" x2="311.21" y2="178.19"/><line class="cls-5" x1="304.94" y1="185.74" x2="309.95" y2="185.74"/><line class="cls-5" x1="287.38" y1="185.74" x2="297.41" y2="185.74"/><line class="cls-5" x1="71.84" y1="143.34" x2="25" y2="143.34"/><line class="cls-5" x1="78.09" y1="143.34" x2="83.29" y2="143.34"/><line class="cls-5" x1="87.46" y1="143.34" x2="121.81" y2="143.34"/><line class="cls-5" x1="130.13" y1="143.34" x2="142.62" y2="143.34"/><line class="cls-5" x1="148.87" y1="143.34" x2="155.11" y2="143.34"/><line class="cls-5" x1="164.48" y1="143.34" x2="178.02" y2="143.34"/><line class="cls-5" x1="200.92" y1="143.34" x2="216.53" y2="143.34"/><line class="cls-5" x1="226.94" y1="143.34" x2="237.35" y2="143.34"/><line class="cls-5" x1="55.71" y1="150.51" x2="68.2" y2="150.51"/><line class="cls-5" x1="77.57" y1="150.51" x2="95.26" y2="150.51"/><line class="cls-5" x1="106.71" y1="150.51" x2="110.88" y2="150.51"/><line class="cls-5" x1="151.47" y1="150.51" x2="159.8" y2="150.51"/><line class="cls-5" x1="172.29" y1="150.51" x2="246.2" y2="150.51"/><line class="cls-5" x1="43.22" y1="156.54" x2="54.67" y2="156.54"/><line class="cls-5" x1="61.95" y1="156.54" x2="68.2" y2="156.54"/><line class="cls-5" x1="104.63" y1="156.54" x2="118.16" y2="156.54"/><line class="cls-5" x1="125.45" y1="156.54" x2="128.57" y2="156.54"/><line class="cls-5" x1="133.78" y1="156.54" x2="136.9" y2="156.54"/><line class="cls-5" x1="155.64" y1="156.54" x2="180.62" y2="156.54"/><line class="cls-5" x1="194.15" y1="156.54" x2="214.97" y2="156.54"/><line class="cls-5" x1="220.17" y1="156.54" x2="223.3" y2="156.54"/><line class="cls-5" x1="54.67" y1="164.84" x2="61.95" y2="164.84"/><line class="cls-5" x1="67.16" y1="164.84" x2="73.4" y2="164.84"/><line class="cls-5" x1="188.94" y1="164.84" x2="205.6" y2="164.84"/><line class="cls-5" x1="271.96" y1="143.28" x2="283.41" y2="143.28"/><line class="cls-5" x1="286.53" y1="143.28" x2="289.65" y2="143.28"/><line class="cls-5" x1="291.74" y1="143.28" x2="305.27" y2="143.28"/><line class="cls-5" x1="252.41" y1="156.68" x2="269.06" y2="156.68"/><line class="cls-5" x1="263.86" y1="164.23" x2="268.02" y2="164.23"/><line class="cls-5" x1="249.28" y1="164.23" x2="257.61" y2="164.23"/><line class="cls-5" x1="55.19" y1="203.18" x2="70.24" y2="203.18"/><line class="cls-5" x1="81.53" y1="203.18" x2="102.85" y2="203.18"/><line class="cls-5" x1="116.64" y1="203.18" x2="121.66" y2="203.18"/><line class="cls-5" x1="139.27" y1="200" x2="179.06" y2="200"/><line class="cls-5" x1="195.65" y1="203.18" x2="284.68" y2="203.18"/><line class="cls-5" x1="40.15" y1="209.21" x2="53.94" y2="209.21"/><line class="cls-5" x1="62.72" y1="209.21" x2="70.24" y2="209.21"/><line class="cls-5" x1="114.13" y1="209.21" x2="130.44" y2="209.21"/><line class="cls-5" x1="139.22" y1="209.21" x2="142.98" y2="209.21"/><line class="cls-5" x1="149.25" y1="209.21" x2="153.01" y2="209.21"/><line class="cls-5" x1="175.58" y1="209.21" x2="205.68" y2="209.21"/><line class="cls-5" x1="221.98" y1="209.21" x2="247.06" y2="209.21"/><line class="cls-5" x1="253.33" y1="209.21" x2="257.1" y2="209.21"/><line class="cls-5" x1="53.94" y1="217.51" x2="62.72" y2="217.51"/><line class="cls-5" x1="68.99" y1="217.51" x2="76.51" y2="217.51"/><line class="cls-5" x1="96.58" y1="225.05" x2="112.88" y2="225.05"/><line class="cls-5" x1="117.9" y1="225.05" x2="124.17" y2="225.05"/><line class="cls-5" x1="130.44" y1="225.05" x2="141.72" y2="225.05"/><line class="cls-5" x1="215.71" y1="217.51" x2="235.78" y2="217.51"/><line class="cls-5" x1="229.51" y1="225.05" x2="234.52" y2="225.05"/><line class="cls-5" x1="211.95" y1="225.05" x2="221.98" y2="225.05"/><line class="cls-5" x1="292.17" y1="209.35" x2="312.23" y2="209.35"/><line class="cls-5" x1="305.96" y1="216.89" x2="310.98" y2="216.89"/><line class="cls-5" x1="288.4" y1="216.89" x2="298.44" y2="216.89"/><line class="cls-5" x1="55.69" y1="196" x2="62.98" y2="196"/><line class="cls-5" x1="68.18" y1="196" x2="74.43" y2="196"/><line class="cls-5" x1="164.38" y1="190.06" x2="181.03" y2="190.06"/><line class="cls-5" x1="272.04" y1="190.19" x2="276.21" y2="190.19"/><line class="cls-5" x1="257.47" y1="190.19" x2="265.8" y2="190.19"/><line class="cls-5" x1="56.96" y1="233.95" x2="72.01" y2="233.95"/><line class="cls-5" x1="83.3" y1="233.95" x2="104.62" y2="233.95"/><line class="cls-5" x1="118.41" y1="233.95" x2="123.43" y2="233.95"/><line class="cls-5" x1="141.03" y1="230.78" x2="180.83" y2="230.78"/><line class="cls-5" x1="197.42" y1="233.95" x2="286.45" y2="233.95"/><line class="cls-5" x1="41.91" y1="239.98" x2="55.71" y2="239.98"/><line class="cls-5" x1="64.49" y1="239.98" x2="72.01" y2="239.98"/><line class="cls-5" x1="115.9" y1="239.98" x2="132.21" y2="239.98"/><line class="cls-5" x1="140.98" y1="239.98" x2="144.75" y2="239.98"/><line class="cls-5" x1="151.02" y1="239.98" x2="154.78" y2="239.98"/><line class="cls-5" x1="177.35" y1="239.98" x2="207.45" y2="239.98"/><line class="cls-5" x1="223.75" y1="239.98" x2="248.83" y2="239.98"/><line class="cls-5" x1="255.1" y1="239.98" x2="258.86" y2="239.98"/><line class="cls-5" x1="55.71" y1="248.28" x2="64.49" y2="248.28"/><line class="cls-5" x1="70.76" y1="248.28" x2="78.28" y2="248.28"/><line class="cls-5" x1="98.35" y1="255.83" x2="114.65" y2="255.83"/><line class="cls-5" x1="119.67" y1="255.83" x2="125.94" y2="255.83"/><line class="cls-5" x1="132.21" y1="255.83" x2="143.49" y2="255.83"/><line class="cls-5" x1="217.48" y1="248.28" x2="237.55" y2="248.28"/><line class="cls-5" x1="231.28" y1="255.83" x2="236.29" y2="255.83"/><line class="cls-5" x1="213.72" y1="255.83" x2="223.75" y2="255.83"/><line class="cls-5" x1="293.94" y1="240.12" x2="314" y2="240.12"/><line class="cls-5" x1="307.73" y1="247.67" x2="312.75" y2="247.67"/><line class="cls-5" x1="290.17" y1="247.67" x2="300.21" y2="247.67"/><line class="cls-5" x1="57.46" y1="226.77" x2="64.75" y2="226.77"/><line class="cls-5" x1="69.95" y1="226.77" x2="76.2" y2="226.77"/><line class="cls-5" x1="166.15" y1="220.83" x2="182.8" y2="220.83"/><line class="cls-5" x1="273.81" y1="220.96" x2="277.98" y2="220.96"/><line class="cls-5" x1="259.24" y1="220.96" x2="267.57" y2="220.96"/><line class="cls-5" x1="163.87" y1="248.78" x2="190.83" y2="248.78"/><path class="cls-5" d="M163.87,248.78"/><path class="cls-5" d="M157.4,248.78"/><line class="cls-5" x1="151.03" y1="248.78" x2="157.4" y2="248.78"/><line class="cls-6" x1="291.64" y1="225.75" x2="289.97" y2="237.22"/><path class="cls-6" d="M296.18,222.12V221a.53.53,0,0,0-.53-.53h-2.29a.53.53,0,0,0-.53.53v1.1"/><line class="cls-6" x1="299.04" y1="237.22" x2="297.37" y2="225.75"/><line class="cls-6" x1="290.45" y1="233.64" x2="298.81" y2="233.64"/><line class="cls-6" x1="290.45" y1="233.63" x2="299.04" y2="237.22"/><line class="cls-6" x1="289.96" y1="237.2" x2="298.57" y2="233.65"/><rect class="cls-7" x="289.01" y="237.34" width="10.99" height="3.1" rx="1.55" ry="1.55"/><rect class="cls-7" x="291.16" y="222.65" width="6.45" height="3.1" rx="1.55" ry="1.55"/><line class="cls-8" x1="291.01" y1="230.1" x2="297.73" y2="230.1"/><rect class="cls-9" x="128" y="86.5" width="131.02" height="131.02"/><circle class="cls-10" cx="193.51" cy="152.01" r="20.69"/><path class="cls-11" d="M137.23,217.79a4.51,4.51,0,0,0,1.77-3.63V213a.39.39,0,0,0-.39-.39L92,212.4h0A8.73,8.73,0,0,0,96.2,218"/><path class="cls-12" d="M118.12,209.71h17.82a1.05,1.05,0,0,0,.91-1.58l-18.35-31.78a1,1,0,0,0-1.09-.51"/><path class="cls-11" d="M118,175.71c-.16,0-.32.11-.4.35l-12.18,32.6c-.17.47,0,1,.39,1h12.34"/><path class="cls-11" d="M118.12,209.71h18.58a.7.7,0,0,0,.6-1l-18.82-32.6a.69.69,0,0,0-.58-.35"/><path class="cls-11" d="M298.23,155.79a4.51,4.51,0,0,0,1.77-3.63V151a.39.39,0,0,0-.39-.39L253,150.4h0a8.73,8.73,0,0,0,4.2,5.57"/><path class="cls-12" d="M279.12,147.71h17.82a1.05,1.05,0,0,0,.91-1.58l-18.35-31.78a1,1,0,0,0-1.09-.51"/><path class="cls-11" d="M279,113.71c-.16,0-.32.11-.4.35l-12.18,32.6c-.17.47,0,1,.39,1h12.34"/><path class="cls-11" d="M279.12,147.71h18.58a.7.7,0,0,0,.6-1l-18.82-32.6a.69.69,0,0,0-.58-.35"/><path class="cls-11" d="M122.23,60.79A4.51,4.51,0,0,0,124,57.17V56a.39.39,0,0,0-.39-.39L77,55.4h0A8.73,8.73,0,0,0,81.2,61"/><path class="cls-12" d="M103.12,52.71h17.82a1.05,1.05,0,0,0,.91-1.58L103.51,19.35a1,1,0,0,0-1.09-.51"/><path class="cls-11" d="M103,18.71c-.16,0-.32.11-.4.35L90.39,51.66c-.17.47,0,1,.39,1h12.34"/><path class="cls-11" d="M103.12,52.71h18.58a.7.7,0,0,0,.6-1l-18.82-32.6a.69.69,0,0,0-.58-.35"/><line class="cls-6" x1="105.64" y1="110.75" x2="103.97" y2="122.22"/><path class="cls-6" d="M110.18,107.12V106a.53.53,0,0,0-.53-.53h-2.29a.53.53,0,0,0-.53.53v1.1"/><line class="cls-6" x1="113.04" y1="122.22" x2="111.37" y2="110.75"/><line class="cls-6" x1="104.45" y1="118.64" x2="112.81" y2="118.64"/><line class="cls-6" x1="104.45" y1="118.63" x2="113.04" y2="122.22"/><line class="cls-6" x1="103.96" y1="122.2" x2="112.57" y2="118.65"/><rect class="cls-7" x="103.01" y="122.34" width="10.99" height="3.1" rx="1.55" ry="1.55"/><rect class="cls-7" x="105.16" y="107.65" width="6.45" height="3.1" rx="1.55" ry="1.55"/><line class="cls-8" x1="105.01" y1="115.1" x2="111.73" y2="115.1"/><line class="cls-6" x1="222.64" y1="48.75" x2="220.97" y2="60.22"/><path class="cls-6" d="M227.18,45.12V44a.53.53,0,0,0-.53-.53h-2.29a.53.53,0,0,0-.53.53v1.1"/><line class="cls-6" x1="230.04" y1="60.22" x2="228.37" y2="48.75"/><line class="cls-6" x1="221.45" y1="56.64" x2="229.81" y2="56.64"/><line class="cls-6" x1="221.45" y1="56.63" x2="230.04" y2="60.22"/><line class="cls-6" x1="220.96" y1="60.2" x2="229.57" y2="56.65"/><rect class="cls-7" x="220.01" y="60.34" width="10.99" height="3.1" rx="1.55" ry="1.55"/><rect class="cls-7" x="222.16" y="45.65" width="6.45" height="3.1" rx="1.55" ry="1.55"/><line class="cls-8" x1="222.01" y1="53.1" x2="228.73" y2="53.1"/><g class="cls-13"><path class="cls-14" d="M172.75,228.5A14.25,14.25,0,1,0,187,242.75,14.25,14.25,0,0,0,172.75,228.5Zm0,23a8.72,8.72,0,1,1,8.72-8.72A8.72,8.72,0,0,1,172.75,251.47Z"/><polygon class="cls-7" points="186.47 246.62 180.92 245.13 179.15 248.36 183.55 252.05 186.47 246.62"/><polygon class="cls-7" points="177.16 235.47 180.04 230.5 184.53 234.73 179.82 238.02 177.16 235.47"/><polygon class="cls-7" points="164.82 239.67 159.42 237.7 162.81 232.54 166.87 236.6 164.82 239.67"/><polygon class="cls-7" points="167.72 249.61 164.42 254.32 160.32 249.71 165.29 246.84 167.72 249.61"/></g><g class="cls-15"><path class="cls-14" d="M283.75,46.5A14.25,14.25,0,1,0,298,60.75,14.25,14.25,0,0,0,283.75,46.5Zm0,23a8.72,8.72,0,1,1,8.72-8.72A8.72,8.72,0,0,1,283.75,69.47Z"/><polygon class="cls-7" points="297.47 64.62 291.92 63.13 290.15 66.36 294.55 70.05 297.47 64.62"/><polygon class="cls-7" points="288.17 53.48 291.04 48.5 295.53 52.73 290.82 56.02 288.17 53.48"/><polygon class="cls-7" points="275.82 57.67 270.42 55.7 273.81 50.54 277.87 54.6 275.82 57.67"/><polygon class="cls-7" points="278.72 67.61 275.42 72.32 271.32 67.71 276.29 64.84 278.72 67.61"/></g></g><text class="cls-16" transform="translate(140.18 298.03)">S<tspan class="cls-17" x="12.27" y="0">T</tspan><tspan x="23.23" y="0">O</tspan><tspan class="cls-18" x="36.79" y="0">R</tspan><tspan x="49.35" y="0">YBOOK</tspan></text></g></g></svg>