<svg xmlns="http://www.w3.org/2000/svg" xmlns:xlink="http://www.w3.org/1999/xlink" viewBox="0 0 310 342"><defs><style>.cls-1,.cls-6,.cls-8{fill:none;}.cls-12,.cls-2,.cls-5,.cls-9{fill:#fff;}.cls-3{font-size:18px;fill:#414042;font-family:SanFranciscoDisplay-Semibold, San Francisco Display;font-weight:700;letter-spacing:0.1em;}.cls-4{clip-path:url(#clip-path);}.cls-10,.cls-12,.cls-5,.cls-6,.cls-7,.cls-8,.cls-9{stroke:#ccc;}.cls-12,.cls-5,.cls-6,.cls-7,.cls-8{stroke-miterlimit:10;}.cls-10,.cls-5,.cls-9{stroke-width:2px;}.cls-7{fill:#ccc;}.cls-8{stroke-linecap:round;}.cls-10,.cls-9{stroke-linejoin:round;}.cls-10{fill:#f7df75;}.cls-11{clip-path:url(#clip-path-2);}.cls-13{fill:#fcc062;}.cls-14{fill:#cee4f5;}.cls-15{fill:#722c36;}.cls-16{clip-path:url(#clip-path-3);}</style><clipPath id="clip-path"><rect class="cls-1" x="33" y="27" width="240" height="240" transform="translate(6 300) rotate(-90)"/></clipPath><clipPath id="clip-path-2"><polyline class="cls-1" points="85 250 82 244 69 241 67 248 62 252 55.5 220.5 90.5 214.5 93 250 89.28 247.97"/></clipPath><clipPath id="clip-path-3"><polyline class="cls-1" points="251 71 248 65 235 62 233 69 228 73 221.5 41.5 256.5 35.5 259 71 255.28 68.97"/></clipPath></defs><title>Card 6</title><g id="Layer_2" data-name="Layer 2"><g id="Services_Icon" data-name="Services Icon"><rect class="cls-2" width="310" height="342"/><text class="cls-3" transform="translate(102.18 297.53)">INSURANCE</text><g class="cls-4"><path class="cls-5" d="M207.34,107.88a6.88,6.88,0,1,1,13.75-.13"/><path class="cls-5" d="M207.34,107.88a6.88,6.88,0,1,1-13.75.13"/><path class="cls-5" d="M179.84,108.13a6.88,6.88,0,1,1,13.75-.13"/><path class="cls-5" d="M179.84,108.13a6.88,6.88,0,0,1-13.75.13"/><path class="cls-5" d="M152.34,108.39a6.88,6.88,0,0,1,13.75-.13"/><path class="cls-5" d="M152.34,108.39a6.88,6.88,0,0,1-13.75.13"/><path class="cls-5" d="M124.84,108.65a6.88,6.88,0,0,1,13.75-.13"/><path class="cls-5" d="M124.84,108.65a6.88,6.88,0,1,1-13.75.13"/><path class="cls-5" d="M262.34,107.37a6.88,6.88,0,0,1,13.75-.13"/><path class="cls-5" d="M262.34,107.37a6.88,6.88,0,1,1-13.75.13"/><path class="cls-5" d="M234.84,107.62a6.88,6.88,0,0,1,13.75-.13"/><path class="cls-5" d="M234.84,107.62a6.88,6.88,0,1,1-13.75.13"/><path class="cls-5" d="M96.88,108.9a6.88,6.88,0,1,1,13.75-.13"/><path class="cls-5" d="M96.88,108.9a6.88,6.88,0,0,1-13.75.13"/><path class="cls-5" d="M69.38,109.16A6.88,6.88,0,0,1,83.13,109"/><path class="cls-5" d="M69.38,109.16a6.88,6.88,0,0,1-13.75.13"/><path class="cls-5" d="M41.88,109.42a6.88,6.88,0,0,1,13.75-.13"/><path class="cls-5" d="M41.88,109.42a6.88,6.88,0,0,1-13.75.13"/><path class="cls-5" d="M207.21,94.2A6.88,6.88,0,0,1,221,94.08"/><path class="cls-5" d="M207.21,94.2a6.88,6.88,0,0,1-13.75.13"/><path class="cls-5" d="M179.71,94.46a6.88,6.88,0,1,1,13.75-.13"/><path class="cls-5" d="M179.71,94.46a6.88,6.88,0,1,1-13.75.13"/><path class="cls-5" d="M152.21,94.72A6.88,6.88,0,1,1,166,94.59"/><path class="cls-5" d="M152.21,94.72a6.88,6.88,0,1,1-13.75.13"/><path class="cls-5" d="M124.71,95a6.88,6.88,0,1,1,13.75-.13"/><path class="cls-5" d="M124.71,95A6.88,6.88,0,0,1,111,95.1"/><path class="cls-5" d="M262.21,93.69A6.88,6.88,0,1,1,276,93.56"/><path class="cls-5" d="M262.21,93.69a6.88,6.88,0,1,1-13.75.13"/><path class="cls-5" d="M234.71,93.95a6.88,6.88,0,1,1,13.75-.13"/><path class="cls-5" d="M234.71,93.95a6.88,6.88,0,0,1-13.75.13"/><path class="cls-5" d="M96.76,95.23a6.88,6.88,0,0,1,13.75-.13"/><path class="cls-5" d="M96.76,95.23A6.88,6.88,0,0,1,83,95.36"/><path class="cls-5" d="M69.26,95.49A6.88,6.88,0,0,1,83,95.36"/><path class="cls-5" d="M69.26,95.49a6.88,6.88,0,1,1-13.75.13"/><path class="cls-5" d="M41.76,95.74a6.88,6.88,0,1,1,13.75-.13"/><path class="cls-5" d="M41.76,95.74A6.88,6.88,0,1,1,28,95.87"/><path class="cls-5" d="M207.09,80.53a6.88,6.88,0,1,1,13.75-.13"/><path class="cls-5" d="M207.09,80.53a6.88,6.88,0,1,1-13.75.13"/><path class="cls-5" d="M179.59,80.79a6.88,6.88,0,1,1,13.75-.13"/><path class="cls-5" d="M179.59,80.79a6.88,6.88,0,1,1-13.75.13"/><path class="cls-5" d="M152.09,81a6.88,6.88,0,1,1,13.75-.13"/><path class="cls-5" d="M152.09,81a6.88,6.88,0,0,1-13.75.13"/><path class="cls-5" d="M124.59,81.3a6.88,6.88,0,1,1,13.75-.13"/><path class="cls-5" d="M124.59,81.3a6.88,6.88,0,1,1-13.75.13"/><path class="cls-5" d="M262.09,80a6.88,6.88,0,1,1,13.75-.13"/><path class="cls-5" d="M262.09,80a6.88,6.88,0,1,1-13.75.13"/><path class="cls-5" d="M234.59,80.27a6.88,6.88,0,0,1,13.75-.13"/><path class="cls-5" d="M234.59,80.27a6.88,6.88,0,1,1-13.75.13"/><path class="cls-5" d="M96.63,81.56a6.88,6.88,0,1,1,13.75-.13"/><path class="cls-5" d="M96.63,81.56a6.88,6.88,0,0,1-13.75.13"/><path class="cls-5" d="M69.13,81.81a6.88,6.88,0,0,1,13.75-.13"/><path class="cls-5" d="M69.13,81.81a6.88,6.88,0,0,1-13.75.13"/><path class="cls-5" d="M41.63,82.07a6.88,6.88,0,1,1,13.75-.13"/><path class="cls-5" d="M41.63,82.07a6.88,6.88,0,1,1-13.75.13"/><path class="cls-5" d="M207,66.86a6.88,6.88,0,1,1,13.75-.13"/><path class="cls-5" d="M207,66.86a6.88,6.88,0,1,1-13.75.13"/><path class="cls-5" d="M179.46,67.11A6.88,6.88,0,0,1,193.21,67"/><path class="cls-5" d="M179.46,67.11a6.88,6.88,0,1,1-13.75.13"/><path class="cls-5" d="M152,67.37a6.88,6.88,0,1,1,13.75-.13"/><path class="cls-5" d="M152,67.37a6.88,6.88,0,1,1-13.75.13"/><path class="cls-5" d="M124.46,67.62a6.88,6.88,0,1,1,13.75-.13"/><path class="cls-5" d="M124.46,67.62a6.88,6.88,0,1,1-13.75.13"/><path class="cls-5" d="M262,66.34a6.88,6.88,0,1,1,13.75-.13"/><path class="cls-5" d="M262,66.34a6.88,6.88,0,1,1-13.75.13"/><path class="cls-5" d="M234.46,66.6a6.88,6.88,0,1,1,13.75-.13"/><path class="cls-5" d="M234.46,66.6a6.88,6.88,0,1,1-13.75.13"/><path class="cls-5" d="M96.5,67.88a6.88,6.88,0,1,1,13.75-.13"/><path class="cls-5" d="M96.5,67.88A6.88,6.88,0,0,1,82.75,68"/><path class="cls-5" d="M69,68.14A6.88,6.88,0,1,1,82.75,68"/><path class="cls-5" d="M69,68.14a6.88,6.88,0,1,1-13.75.13"/><path class="cls-5" d="M41.5,68.39a6.88,6.88,0,0,1,13.75-.13"/><path class="cls-5" d="M41.5,68.39a6.88,6.88,0,1,1-13.75.13"/><path class="cls-5" d="M206.83,53.18a6.88,6.88,0,0,1,13.75-.13"/><path class="cls-5" d="M206.83,53.18a6.88,6.88,0,1,1-13.75.13"/><path class="cls-5" d="M179.33,53.44a6.88,6.88,0,1,1,13.75-.13"/><path class="cls-5" d="M179.33,53.44a6.88,6.88,0,1,1-13.75.13"/><path class="cls-5" d="M151.83,53.69a6.88,6.88,0,1,1,13.75-.13"/><path class="cls-5" d="M151.83,53.69a6.88,6.88,0,1,1-13.75.13"/><path class="cls-5" d="M124.33,53.95a6.88,6.88,0,1,1,13.75-.13"/><path class="cls-5" d="M124.33,53.95a6.88,6.88,0,0,1-13.75.13"/><path class="cls-5" d="M261.83,52.67a6.88,6.88,0,1,1,13.75-.13"/><path class="cls-5" d="M261.83,52.67a6.88,6.88,0,1,1-13.75.13"/><path class="cls-5" d="M234.33,52.93a6.88,6.88,0,1,1,13.75-.13"/><path class="cls-5" d="M234.33,52.93a6.88,6.88,0,0,1-13.75.13"/><path class="cls-5" d="M96.37,54.21a6.88,6.88,0,0,1,13.75-.13"/><path class="cls-5" d="M96.37,54.21a6.88,6.88,0,0,1-13.75.13"/><path class="cls-5" d="M68.87,54.46a6.88,6.88,0,1,1,13.75-.13"/><path class="cls-5" d="M68.87,54.46a6.88,6.88,0,0,1-13.75.13"/><path class="cls-5" d="M41.37,54.72a6.88,6.88,0,1,1,13.75-.13"/><path class="cls-5" d="M41.37,54.72a6.88,6.88,0,1,1-13.75.13"/><path class="cls-5" d="M206.7,39.51a6.88,6.88,0,1,1,13.75-.13"/><path class="cls-5" d="M206.7,39.51a6.88,6.88,0,1,1-13.75.13"/><path class="cls-5" d="M179.2,39.76A6.88,6.88,0,1,1,193,39.64"/><path class="cls-5" d="M179.2,39.76a6.88,6.88,0,1,1-13.75.13"/><path class="cls-5" d="M151.7,40a6.88,6.88,0,0,1,13.75-.13"/><path class="cls-5" d="M151.7,40a6.88,6.88,0,1,1-13.75.13"/><path class="cls-5" d="M124.2,40.27A6.88,6.88,0,1,1,138,40.15"/><path class="cls-5" d="M124.2,40.27a6.88,6.88,0,1,1-13.75.13"/><path class="cls-5" d="M261.7,39a6.88,6.88,0,1,1,13.75-.13"/><path class="cls-5" d="M261.7,39a6.88,6.88,0,0,1-13.75.13"/><path class="cls-5" d="M234.2,39.25A6.88,6.88,0,1,1,248,39.12"/><path class="cls-5" d="M234.2,39.25a6.88,6.88,0,1,1-13.75.13"/><path class="cls-5" d="M96.25,40.53A6.88,6.88,0,1,1,110,40.41"/><path class="cls-5" d="M96.25,40.53a6.88,6.88,0,1,1-13.75.13"/><path class="cls-5" d="M68.75,40.79a6.88,6.88,0,0,1,13.75-.13"/><path class="cls-5" d="M68.75,40.79A6.88,6.88,0,0,1,55,40.92"/><path class="cls-5" d="M41.25,41A6.88,6.88,0,0,1,55,40.92"/><path class="cls-5" d="M41.25,41a6.88,6.88,0,1,1-13.75.13"/><path class="cls-5" d="M206.58,25.83a6.88,6.88,0,1,1,13.75-.13"/><path class="cls-5" d="M206.58,25.83a6.88,6.88,0,0,1-13.75.13"/><path class="cls-5" d="M179.08,26.09A6.88,6.88,0,0,1,192.83,26"/><path class="cls-5" d="M179.08,26.09a6.88,6.88,0,1,1-13.75.13"/><path class="cls-5" d="M151.58,26.34a6.88,6.88,0,1,1,13.75-.13"/><path class="cls-5" d="M151.58,26.34a6.88,6.88,0,1,1-13.75.13"/><path class="cls-5" d="M124.08,26.6a6.88,6.88,0,1,1,13.75-.13"/><path class="cls-5" d="M124.08,26.6a6.88,6.88,0,1,1-13.75.13"/><path class="cls-5" d="M261.58,25.32a6.88,6.88,0,1,1,13.75-.13"/><path class="cls-5" d="M261.58,25.32a6.88,6.88,0,1,1-13.75.13"/><path class="cls-5" d="M234.08,25.58a6.88,6.88,0,1,1,13.75-.13"/><path class="cls-5" d="M234.08,25.58a6.88,6.88,0,1,1-13.75.13"/><path class="cls-5" d="M96.12,26.86a6.88,6.88,0,0,1,13.75-.13"/><path class="cls-5" d="M96.12,26.86A6.88,6.88,0,1,1,82.37,27"/><path class="cls-5" d="M68.62,27.12A6.88,6.88,0,1,1,82.37,27"/><path class="cls-5" d="M68.62,27.12a6.88,6.88,0,1,1-13.75.13"/><path class="cls-5" d="M41.12,27.37a6.88,6.88,0,1,1,13.75-.13"/><path class="cls-5" d="M41.12,27.37a6.88,6.88,0,0,1-13.75.13"/><path class="cls-5" d="M206.45,12.16A6.88,6.88,0,1,1,220.2,12"/><path class="cls-5" d="M206.45,12.16a6.88,6.88,0,1,1-13.75.13"/><path class="cls-5" d="M178.95,12.42a6.88,6.88,0,1,1,13.75-.13"/><path class="cls-5" d="M178.95,12.42a6.88,6.88,0,1,1-13.75.13"/><path class="cls-5" d="M151.45,12.67a6.88,6.88,0,1,1,13.75-.13"/><path class="cls-5" d="M151.45,12.67a6.88,6.88,0,1,1-13.75.13"/><path class="cls-5" d="M123.95,12.93a6.88,6.88,0,0,1,13.75-.13"/><path class="cls-5" d="M123.95,12.93a6.88,6.88,0,1,1-13.75.13"/><path class="cls-5" d="M261.45,11.65a6.88,6.88,0,1,1,13.75-.13"/><path class="cls-5" d="M261.45,11.65a6.88,6.88,0,1,1-13.75.13"/><path class="cls-5" d="M233.95,11.9a6.88,6.88,0,1,1,13.75-.13"/><path class="cls-5" d="M233.95,11.9A6.88,6.88,0,0,1,220.2,12"/><path class="cls-5" d="M96,13.19a6.88,6.88,0,0,1,13.75-.13"/><path class="cls-5" d="M96,13.19a6.88,6.88,0,1,1-13.75.13"/><path class="cls-5" d="M68.49,13.44a6.88,6.88,0,0,1,13.75-.13"/><path class="cls-5" d="M68.49,13.44a6.88,6.88,0,1,1-13.75.13"/><path class="cls-5" d="M41,13.7a6.88,6.88,0,0,1,13.75-.13"/><path class="cls-5" d="M41,13.7a6.88,6.88,0,0,1-13.75.13"/><path class="cls-5" d="M207.34,217.06a6.88,6.88,0,1,1,13.75-.13"/><path class="cls-5" d="M207.34,217.06a6.88,6.88,0,1,1-13.75.13"/><path class="cls-5" d="M179.84,217.31a6.88,6.88,0,0,1,13.75-.13"/><path class="cls-5" d="M179.84,217.31a6.88,6.88,0,0,1-13.75.13"/><path class="cls-5" d="M152.34,217.57a6.88,6.88,0,0,1,13.75-.13"/><path class="cls-5" d="M152.34,217.57a6.88,6.88,0,0,1-13.75.13"/><path class="cls-5" d="M124.84,217.82a6.88,6.88,0,0,1,13.75-.13"/><path class="cls-5" d="M124.84,217.82a6.88,6.88,0,1,1-13.75.13"/><path class="cls-5" d="M262.34,216.54a6.88,6.88,0,0,1,13.75-.13"/><path class="cls-5" d="M262.34,216.54a6.88,6.88,0,1,1-13.75.13"/><path class="cls-5" d="M234.84,216.8a6.88,6.88,0,1,1,13.75-.13"/><path class="cls-5" d="M234.84,216.8a6.88,6.88,0,1,1-13.75.13"/><path class="cls-5" d="M96.88,218.08a6.88,6.88,0,1,1,13.75-.13"/><path class="cls-5" d="M96.88,218.08a6.88,6.88,0,0,1-13.75.13"/><path class="cls-5" d="M69.38,218.34a6.88,6.88,0,0,1,13.75-.13"/><path class="cls-5" d="M69.38,218.34a6.88,6.88,0,0,1-13.75.13"/><path class="cls-5" d="M41.88,218.59a6.88,6.88,0,0,1,13.75-.13"/><path class="cls-5" d="M41.88,218.59a6.88,6.88,0,1,1-13.75.13"/><path class="cls-5" d="M207.21,203.38a6.88,6.88,0,0,1,13.75-.13"/><path class="cls-5" d="M207.21,203.38a6.88,6.88,0,0,1-13.75.13"/><path class="cls-5" d="M179.71,203.64a6.88,6.88,0,0,1,13.75-.13"/><path class="cls-5" d="M179.71,203.64a6.88,6.88,0,1,1-13.75.13"/><path class="cls-5" d="M152.21,203.89a6.88,6.88,0,0,1,13.75-.13"/><path class="cls-5" d="M152.21,203.89a6.88,6.88,0,1,1-13.75.13"/><path class="cls-5" d="M124.71,204.15a6.88,6.88,0,0,1,13.75-.13"/><path class="cls-5" d="M124.71,204.15a6.88,6.88,0,0,1-13.75.13"/><path class="cls-5" d="M262.21,202.87a6.88,6.88,0,1,1,13.75-.13"/><path class="cls-5" d="M262.21,202.87a6.88,6.88,0,1,1-13.75.13"/><path class="cls-5" d="M234.71,203.13a6.88,6.88,0,0,1,13.75-.13"/><path class="cls-5" d="M234.71,203.13a6.88,6.88,0,0,1-13.75.13"/><path class="cls-5" d="M96.76,204.41a6.88,6.88,0,0,1,13.75-.13"/><path class="cls-5" d="M96.76,204.41a6.88,6.88,0,0,1-13.75.13"/><path class="cls-5" d="M69.26,204.66A6.88,6.88,0,0,1,83,204.54"/><path class="cls-5" d="M69.26,204.66a6.88,6.88,0,1,1-13.75.13"/><path class="cls-5" d="M41.76,204.92a6.88,6.88,0,0,1,13.75-.13"/><path class="cls-5" d="M41.76,204.92A6.88,6.88,0,0,1,28,205"/><path class="cls-5" d="M207.09,189.71a6.88,6.88,0,0,1,13.75-.13"/><path class="cls-5" d="M207.09,189.71a6.88,6.88,0,1,1-13.75.13"/><path class="cls-5" d="M179.59,190a6.88,6.88,0,0,1,13.75-.13"/><path class="cls-5" d="M179.59,190a6.88,6.88,0,1,1-13.75.13"/><path class="cls-5" d="M152.09,190.22a6.88,6.88,0,1,1,13.75-.13"/><path class="cls-5" d="M152.09,190.22a6.88,6.88,0,0,1-13.75.13"/><path class="cls-5" d="M124.59,190.47a6.88,6.88,0,0,1,13.75-.13"/><path class="cls-5" d="M124.59,190.47a6.88,6.88,0,1,1-13.75.13"/><path class="cls-5" d="M262.09,189.2a6.88,6.88,0,0,1,13.75-.13"/><path class="cls-5" d="M262.09,189.2a6.88,6.88,0,0,1-13.75.13"/><path class="cls-5" d="M234.59,189.45a6.88,6.88,0,0,1,13.75-.13"/><path class="cls-5" d="M234.59,189.45a6.88,6.88,0,1,1-13.75.13"/><path class="cls-5" d="M96.63,190.73a6.88,6.88,0,1,1,13.75-.13"/><path class="cls-5" d="M96.63,190.73a6.88,6.88,0,0,1-13.75.13"/><path class="cls-5" d="M69.13,191a6.88,6.88,0,1,1,13.75-.13"/><path class="cls-5" d="M69.13,191a6.88,6.88,0,0,1-13.75.13"/><path class="cls-5" d="M41.63,191.25a6.88,6.88,0,1,1,13.75-.13"/><path class="cls-5" d="M41.63,191.25a6.88,6.88,0,0,1-13.75.13"/><path class="cls-5" d="M207,176a6.88,6.88,0,1,1,13.75-.13"/><path class="cls-5" d="M207,176a6.88,6.88,0,0,1-13.75.13"/><path class="cls-5" d="M179.46,176.29a6.88,6.88,0,0,1,13.75-.13"/><path class="cls-5" d="M179.46,176.29a6.88,6.88,0,1,1-13.75.13"/><path class="cls-5" d="M152,176.54a6.88,6.88,0,0,1,13.75-.13"/><path class="cls-5" d="M152,176.54a6.88,6.88,0,0,1-13.75.13"/><path class="cls-5" d="M124.46,176.8a6.88,6.88,0,0,1,13.75-.13"/><path class="cls-5" d="M124.46,176.8a6.88,6.88,0,1,1-13.75.13"/><path class="cls-5" d="M262,175.52a6.88,6.88,0,0,1,13.75-.13"/><path class="cls-5" d="M262,175.52a6.88,6.88,0,1,1-13.75.13"/><path class="cls-5" d="M234.46,175.78a6.88,6.88,0,0,1,13.75-.13"/><path class="cls-5" d="M234.46,175.78a6.88,6.88,0,1,1-13.75.13"/><path class="cls-5" d="M96.5,177.06a6.88,6.88,0,1,1,13.75-.13"/><path class="cls-5" d="M96.5,177.06a6.88,6.88,0,0,1-13.75.13"/><path class="cls-5" d="M69,177.32a6.88,6.88,0,0,1,13.75-.13"/><path class="cls-5" d="M69,177.32a6.88,6.88,0,0,1-13.75.13"/><path class="cls-5" d="M41.5,177.57a6.88,6.88,0,0,1,13.75-.13"/><path class="cls-5" d="M41.5,177.57a6.88,6.88,0,0,1-13.75.13"/><path class="cls-5" d="M206.83,162.36a6.88,6.88,0,0,1,13.75-.13"/><path class="cls-5" d="M206.83,162.36a6.88,6.88,0,0,1-13.75.13"/><path class="cls-5" d="M179.33,162.61a6.88,6.88,0,0,1,13.75-.13"/><path class="cls-5" d="M179.33,162.61a6.88,6.88,0,1,1-13.75.13"/><path class="cls-5" d="M151.83,162.87a6.88,6.88,0,0,1,13.75-.13"/><path class="cls-5" d="M151.83,162.87a6.88,6.88,0,1,1-13.75.13"/><path class="cls-5" d="M124.33,163.13a6.88,6.88,0,0,1,13.75-.13"/><path class="cls-5" d="M124.33,163.13a6.88,6.88,0,0,1-13.75.13"/><path class="cls-5" d="M261.83,161.85a6.88,6.88,0,1,1,13.75-.13"/><path class="cls-5" d="M261.83,161.85a6.88,6.88,0,1,1-13.75.13"/><path class="cls-5" d="M234.33,162.1a6.88,6.88,0,1,1,13.75-.13"/><path class="cls-5" d="M234.33,162.1a6.88,6.88,0,0,1-13.75.13"/><path class="cls-5" d="M96.37,163.39a6.88,6.88,0,0,1,13.75-.13"/><path class="cls-5" d="M96.37,163.39a6.88,6.88,0,0,1-13.75.13"/><path class="cls-5" d="M68.87,163.64a6.88,6.88,0,0,1,13.75-.13"/><path class="cls-5" d="M68.87,163.64a6.88,6.88,0,1,1-13.75.13"/><path class="cls-5" d="M41.37,163.9a6.88,6.88,0,0,1,13.75-.13"/><path class="cls-5" d="M41.37,163.9a6.88,6.88,0,1,1-13.75.13"/><path class="cls-5" d="M206.7,148.69a6.88,6.88,0,0,1,13.75-.13"/><path class="cls-5" d="M206.7,148.69a6.88,6.88,0,1,1-13.75.13"/><path class="cls-5" d="M179.2,148.94a6.88,6.88,0,0,1,13.75-.13"/><path class="cls-5" d="M179.2,148.94a6.88,6.88,0,0,1-13.75.13"/><path class="cls-5" d="M151.7,149.2a6.88,6.88,0,0,1,13.75-.13"/><path class="cls-5" d="M151.7,149.2a6.88,6.88,0,1,1-13.75.13"/><path class="cls-5" d="M124.2,149.45a6.88,6.88,0,1,1,13.75-.13"/><path class="cls-5" d="M124.2,149.45a6.88,6.88,0,1,1-13.75.13"/><path class="cls-5" d="M261.7,148.17a6.88,6.88,0,0,1,13.75-.13"/><path class="cls-5" d="M261.7,148.17a6.88,6.88,0,0,1-13.75.13"/><path class="cls-5" d="M234.2,148.43A6.88,6.88,0,0,1,248,148.3"/><path class="cls-5" d="M234.2,148.43a6.88,6.88,0,1,1-13.75.13"/><path class="cls-5" d="M96.25,149.71a6.88,6.88,0,1,1,13.75-.13"/><path class="cls-5" d="M96.25,149.71a6.88,6.88,0,1,1-13.75.13"/><path class="cls-5" d="M68.75,150a6.88,6.88,0,0,1,13.75-.13"/><path class="cls-5" d="M68.75,150A6.88,6.88,0,0,1,55,150.1"/><path class="cls-5" d="M41.25,150.22A6.88,6.88,0,1,1,55,150.1"/><path class="cls-5" d="M41.25,150.22a6.88,6.88,0,0,1-13.75.13"/><path class="cls-5" d="M206.58,135a6.88,6.88,0,1,1,13.75-.13"/><path class="cls-5" d="M206.58,135a6.88,6.88,0,0,1-13.75.13"/><path class="cls-5" d="M179.08,135.27a6.88,6.88,0,0,1,13.75-.13"/><path class="cls-5" d="M179.08,135.27a6.88,6.88,0,1,1-13.75.13"/><path class="cls-5" d="M151.58,135.52a6.88,6.88,0,0,1,13.75-.13"/><path class="cls-5" d="M151.58,135.52a6.88,6.88,0,1,1-13.75.13"/><path class="cls-5" d="M124.08,135.78a6.88,6.88,0,0,1,13.75-.13"/><path class="cls-5" d="M124.08,135.78a6.88,6.88,0,1,1-13.75.13"/><path class="cls-5" d="M261.58,134.5a6.88,6.88,0,0,1,13.75-.13"/><path class="cls-5" d="M261.58,134.5a6.88,6.88,0,1,1-13.75.13"/><path class="cls-5" d="M234.08,134.76a6.88,6.88,0,0,1,13.75-.13"/><path class="cls-5" d="M234.08,134.76a6.88,6.88,0,1,1-13.75.13"/><path class="cls-5" d="M96.12,136a6.88,6.88,0,1,1,13.75-.13"/><path class="cls-5" d="M96.12,136a6.88,6.88,0,0,1-13.75.13"/><path class="cls-5" d="M68.62,136.29a6.88,6.88,0,1,1,13.75-.13"/><path class="cls-5" d="M68.62,136.29a6.88,6.88,0,0,1-13.75.13"/><path class="cls-5" d="M41.12,136.55a6.88,6.88,0,0,1,13.75-.13"/><path class="cls-5" d="M41.12,136.55a6.88,6.88,0,0,1-13.75.13"/><path class="cls-5" d="M206.45,121.34a6.88,6.88,0,0,1,13.75-.13"/><path class="cls-5" d="M206.45,121.34a6.88,6.88,0,1,1-13.75.13"/><path class="cls-5" d="M178.95,121.59a6.88,6.88,0,0,1,13.75-.13"/><path class="cls-5" d="M178.95,121.59a6.88,6.88,0,0,1-13.75.13"/><path class="cls-5" d="M151.45,121.85a6.88,6.88,0,0,1,13.75-.13"/><path class="cls-5" d="M151.45,121.85a6.88,6.88,0,1,1-13.75.13"/><path class="cls-5" d="M123.95,122.1A6.88,6.88,0,0,1,137.7,122"/><path class="cls-5" d="M123.95,122.1a6.88,6.88,0,1,1-13.75.13"/><path class="cls-5" d="M261.45,120.83a6.88,6.88,0,1,1,13.75-.13"/><path class="cls-5" d="M261.45,120.83a6.88,6.88,0,1,1-13.75.13"/><path class="cls-5" d="M233.95,121.08A6.88,6.88,0,1,1,247.7,121"/><path class="cls-5" d="M233.95,121.08a6.88,6.88,0,0,1-13.75.13"/><path class="cls-5" d="M96,122.36a6.88,6.88,0,0,1,13.75-.13"/><path class="cls-5" d="M96,122.36a6.88,6.88,0,0,1-13.75.13"/><path class="cls-5" d="M68.49,122.62a6.88,6.88,0,0,1,13.75-.13"/><path class="cls-5" d="M68.49,122.62a6.88,6.88,0,1,1-13.75.13"/><path class="cls-5" d="M41,122.88a6.88,6.88,0,0,1,13.75-.13"/><path class="cls-5" d="M41,122.88a6.88,6.88,0,1,1-13.75.13"/><path class="cls-5" d="M207.34,325.37a6.88,6.88,0,1,1,13.75-.13"/><path class="cls-5" d="M207.34,325.37a6.88,6.88,0,1,1-13.75.13"/><path class="cls-5" d="M179.84,325.63a6.88,6.88,0,1,1,13.75-.13"/><path class="cls-5" d="M179.84,325.63a6.88,6.88,0,0,1-13.75.13"/><path class="cls-5" d="M152.34,325.88a6.88,6.88,0,1,1,13.75-.13"/><path class="cls-5" d="M152.34,325.88a6.88,6.88,0,1,1-13.75.13"/><path class="cls-5" d="M124.84,326.14a6.88,6.88,0,0,1,13.75-.13"/><path class="cls-5" d="M124.84,326.14a6.88,6.88,0,1,1-13.75.13"/><path class="cls-5" d="M262.34,324.86a6.88,6.88,0,0,1,13.75-.13"/><path class="cls-5" d="M262.34,324.86a6.88,6.88,0,1,1-13.75.13"/><path class="cls-5" d="M234.84,325.12a6.88,6.88,0,0,1,13.75-.13"/><path class="cls-5" d="M234.84,325.12a6.88,6.88,0,1,1-13.75.13"/><path class="cls-5" d="M96.88,326.4a6.88,6.88,0,0,1,13.75-.13"/><path class="cls-5" d="M96.88,326.4a6.88,6.88,0,0,1-13.75.13"/><path class="cls-5" d="M69.38,326.66a6.88,6.88,0,1,1,13.75-.13"/><path class="cls-5" d="M69.38,326.66a6.88,6.88,0,0,1-13.75.13"/><path class="cls-5" d="M41.88,326.91a6.88,6.88,0,0,1,13.75-.13"/><path class="cls-5" d="M41.88,326.91a6.88,6.88,0,0,1-13.75.13"/><path class="cls-5" d="M207.21,311.7a6.88,6.88,0,0,1,13.75-.13"/><path class="cls-5" d="M207.21,311.7a6.88,6.88,0,1,1-13.75.13"/><path class="cls-5" d="M179.71,312a6.88,6.88,0,0,1,13.75-.13"/><path class="cls-5" d="M179.71,312a6.88,6.88,0,1,1-13.75.13"/><path class="cls-5" d="M152.21,312.21a6.88,6.88,0,0,1,13.75-.13"/><path class="cls-5" d="M152.21,312.21a6.88,6.88,0,0,1-13.75.13"/><path class="cls-5" d="M124.71,312.47a6.88,6.88,0,0,1,13.75-.13"/><path class="cls-5" d="M124.71,312.47a6.88,6.88,0,1,1-13.75.13"/><path class="cls-5" d="M262.21,311.19a6.88,6.88,0,0,1,13.75-.13"/><path class="cls-5" d="M262.21,311.19a6.88,6.88,0,1,1-13.75.13"/><path class="cls-5" d="M234.71,311.44a6.88,6.88,0,1,1,13.75-.13"/><path class="cls-5" d="M234.71,311.44a6.88,6.88,0,0,1-13.75.13"/><path class="cls-5" d="M96.76,312.73a6.88,6.88,0,1,1,13.75-.13"/><path class="cls-5" d="M96.76,312.73a6.88,6.88,0,0,1-13.75.13"/><path class="cls-5" d="M69.26,313A6.88,6.88,0,0,1,83,312.85"/><path class="cls-5" d="M69.26,313a6.88,6.88,0,0,1-13.75.13"/><path class="cls-5" d="M41.76,313.24a6.88,6.88,0,0,1,13.75-.13"/><path class="cls-5" d="M41.76,313.24a6.88,6.88,0,1,1-13.75.13"/><path class="cls-5" d="M207.09,298a6.88,6.88,0,0,1,13.75-.13"/><path class="cls-5" d="M207.09,298a6.88,6.88,0,0,1-13.75.13"/><path class="cls-5" d="M179.59,298.28a6.88,6.88,0,1,1,13.75-.13"/><path class="cls-5" d="M179.59,298.28a6.88,6.88,0,1,1-13.75.13"/><path class="cls-5" d="M152.09,298.54a6.88,6.88,0,0,1,13.75-.13"/><path class="cls-5" d="M152.09,298.54a6.88,6.88,0,0,1-13.75.13"/><path class="cls-5" d="M124.59,298.79a6.88,6.88,0,1,1,13.75-.13"/><path class="cls-5" d="M124.59,298.79a6.88,6.88,0,1,1-13.75.13"/><path class="cls-5" d="M262.09,297.51a6.88,6.88,0,1,1,13.75-.13"/><path class="cls-5" d="M262.09,297.51a6.88,6.88,0,0,1-13.75.13"/><path class="cls-5" d="M234.59,297.77a6.88,6.88,0,0,1,13.75-.13"/><path class="cls-5" d="M234.59,297.77a6.88,6.88,0,0,1-13.75.13"/><path class="cls-5" d="M96.63,299.05a6.88,6.88,0,1,1,13.75-.13"/><path class="cls-5" d="M96.63,299.05a6.88,6.88,0,1,1-13.75.13"/><path class="cls-5" d="M69.13,299.31a6.88,6.88,0,0,1,13.75-.13"/><path class="cls-5" d="M69.13,299.31a6.88,6.88,0,1,1-13.75.13"/><path class="cls-5" d="M41.63,299.56a6.88,6.88,0,0,1,13.75-.13"/><path class="cls-5" d="M41.63,299.56a6.88,6.88,0,0,1-13.75.13"/><path class="cls-5" d="M207,284.35a6.88,6.88,0,0,1,13.75-.13"/><path class="cls-5" d="M207,284.35a6.88,6.88,0,0,1-13.75.13"/><path class="cls-5" d="M179.46,284.61a6.88,6.88,0,0,1,13.75-.13"/><path class="cls-5" d="M179.46,284.61a6.88,6.88,0,1,1-13.75.13"/><path class="cls-5" d="M152,284.86a6.88,6.88,0,1,1,13.75-.13"/><path class="cls-5" d="M152,284.86a6.88,6.88,0,1,1-13.75.13"/><path class="cls-5" d="M124.46,285.12a6.88,6.88,0,0,1,13.75-.13"/><path class="cls-5" d="M124.46,285.12a6.88,6.88,0,1,1-13.75.13"/><path class="cls-5" d="M262,283.84a6.88,6.88,0,0,1,13.75-.13"/><path class="cls-5" d="M262,283.84a6.88,6.88,0,0,1-13.75.13"/><path class="cls-5" d="M234.46,284.1a6.88,6.88,0,0,1,13.75-.13"/><path class="cls-5" d="M234.46,284.1a6.88,6.88,0,1,1-13.75.13"/><path class="cls-5" d="M96.5,285.38a6.88,6.88,0,0,1,13.75-.13"/><path class="cls-5" d="M96.5,285.38a6.88,6.88,0,0,1-13.75.13"/><path class="cls-5" d="M69,285.63a6.88,6.88,0,1,1,13.75-.13"/><path class="cls-5" d="M69,285.63a6.88,6.88,0,0,1-13.75.13"/><path class="cls-5" d="M41.5,285.89a6.88,6.88,0,1,1,13.75-.13"/><path class="cls-5" d="M41.5,285.89a6.88,6.88,0,0,1-13.75.13"/><path class="cls-5" d="M206.83,270.68a6.88,6.88,0,0,1,13.75-.13"/><path class="cls-5" d="M206.83,270.68a6.88,6.88,0,0,1-13.75.13"/><path class="cls-5" d="M179.33,270.93a6.88,6.88,0,0,1,13.75-.13"/><path class="cls-5" d="M179.33,270.93a6.88,6.88,0,1,1-13.75.13"/><path class="cls-5" d="M151.83,271.19a6.88,6.88,0,0,1,13.75-.13"/><path class="cls-5" d="M151.83,271.19a6.88,6.88,0,0,1-13.75.13"/><path class="cls-5" d="M124.33,271.44a6.88,6.88,0,0,1,13.75-.13"/><path class="cls-5" d="M124.33,271.44a6.88,6.88,0,1,1-13.75.13"/><path class="cls-5" d="M261.83,270.17a6.88,6.88,0,1,1,13.75-.13"/><path class="cls-5" d="M261.83,270.17a6.88,6.88,0,1,1-13.75.13"/><path class="cls-5" d="M234.33,270.42a6.88,6.88,0,0,1,13.75-.13"/><path class="cls-5" d="M234.33,270.42a6.88,6.88,0,0,1-13.75.13"/><path class="cls-5" d="M96.37,271.7a6.88,6.88,0,1,1,13.75-.13"/><path class="cls-5" d="M96.37,271.7a6.88,6.88,0,0,1-13.75.13"/><path class="cls-5" d="M68.87,272a6.88,6.88,0,0,1,13.75-.13"/><path class="cls-5" d="M68.87,272a6.88,6.88,0,0,1-13.75.13"/><path class="cls-5" d="M41.37,272.22a6.88,6.88,0,0,1,13.75-.13"/><path class="cls-5" d="M41.37,272.22a6.88,6.88,0,0,1-13.75.13"/><path class="cls-5" d="M206.7,257a6.88,6.88,0,0,1,13.75-.13"/><path class="cls-5" d="M206.7,257a6.88,6.88,0,0,1-13.75.13"/><path class="cls-5" d="M179.2,257.26a6.88,6.88,0,0,1,13.75-.13"/><path class="cls-5" d="M179.2,257.26a6.88,6.88,0,1,1-13.75.13"/><path class="cls-5" d="M151.7,257.51a6.88,6.88,0,0,1,13.75-.13"/><path class="cls-5" d="M151.7,257.51a6.88,6.88,0,1,1-13.75.13"/><path class="cls-5" d="M124.2,257.77a6.88,6.88,0,0,1,13.75-.13"/><path class="cls-5" d="M124.2,257.77a6.88,6.88,0,1,1-13.75.13"/><path class="cls-5" d="M261.7,256.49a6.88,6.88,0,1,1,13.75-.13"/><path class="cls-5" d="M261.7,256.49a6.88,6.88,0,0,1-13.75.13"/><path class="cls-5" d="M234.2,256.75a6.88,6.88,0,0,1,13.75-.13"/><path class="cls-5" d="M234.2,256.75a6.88,6.88,0,1,1-13.75.13"/><path class="cls-5" d="M96.25,258A6.88,6.88,0,1,1,110,257.9"/><path class="cls-5" d="M96.25,258a6.88,6.88,0,0,1-13.75.13"/><path class="cls-5" d="M68.75,258.29a6.88,6.88,0,0,1,13.75-.13"/><path class="cls-5" d="M68.75,258.29a6.88,6.88,0,1,1-13.75.13"/><path class="cls-5" d="M41.25,258.54A6.88,6.88,0,0,1,55,258.41"/><path class="cls-5" d="M41.25,258.54a6.88,6.88,0,0,1-13.75.13"/><path class="cls-5" d="M206.58,243.33a6.88,6.88,0,0,1,13.75-.13"/><path class="cls-5" d="M206.58,243.33a6.88,6.88,0,1,1-13.75.13"/><path class="cls-5" d="M179.08,243.58a6.88,6.88,0,0,1,13.75-.13"/><path class="cls-5" d="M179.08,243.58a6.88,6.88,0,1,1-13.75.13"/><path class="cls-5" d="M151.58,243.84a6.88,6.88,0,1,1,13.75-.13"/><path class="cls-5" d="M151.58,243.84a6.88,6.88,0,1,1-13.75.13"/><path class="cls-5" d="M124.08,244.1a6.88,6.88,0,0,1,13.75-.13"/><path class="cls-5" d="M124.08,244.1a6.88,6.88,0,1,1-13.75.13"/><path class="cls-5" d="M261.58,242.82a6.88,6.88,0,0,1,13.75-.13"/><path class="cls-5" d="M261.58,242.82a6.88,6.88,0,0,1-13.75.13"/><path class="cls-5" d="M234.08,243.07a6.88,6.88,0,0,1,13.75-.13"/><path class="cls-5" d="M234.08,243.07a6.88,6.88,0,1,1-13.75.13"/><path class="cls-5" d="M96.12,244.36a6.88,6.88,0,0,1,13.75-.13"/><path class="cls-5" d="M96.12,244.36a6.88,6.88,0,0,1-13.75.13"/><path class="cls-5" d="M68.62,244.61a6.88,6.88,0,1,1,13.75-.13"/><path class="cls-5" d="M68.62,244.61a6.88,6.88,0,0,1-13.75.13"/><path class="cls-5" d="M41.12,244.87a6.88,6.88,0,1,1,13.75-.13"/><path class="cls-5" d="M41.12,244.87a6.88,6.88,0,0,1-13.75.13"/><path class="cls-5" d="M206.45,229.65a6.88,6.88,0,1,1,13.75-.13"/><path class="cls-5" d="M206.45,229.65a6.88,6.88,0,1,1-13.75.13"/><path class="cls-5" d="M178.95,229.91a6.88,6.88,0,1,1,13.75-.13"/><path class="cls-5" d="M178.95,229.91a6.88,6.88,0,1,1-13.75.13"/><path class="cls-5" d="M151.45,230.17A6.88,6.88,0,0,1,165.2,230"/><path class="cls-5" d="M151.45,230.17a6.88,6.88,0,0,1-13.75.13"/><path class="cls-5" d="M123.95,230.42a6.88,6.88,0,0,1,13.75-.13"/><path class="cls-5" d="M123.95,230.42a6.88,6.88,0,1,1-13.75.13"/><path class="cls-5" d="M261.45,229.14A6.88,6.88,0,0,1,275.2,229"/><path class="cls-5" d="M261.45,229.14a6.88,6.88,0,1,1-13.75.13"/><path class="cls-5" d="M233.95,229.4a6.88,6.88,0,0,1,13.75-.13"/><path class="cls-5" d="M233.95,229.4a6.88,6.88,0,0,1-13.75.13"/><path class="cls-5" d="M96,230.68a6.88,6.88,0,1,1,13.75-.13"/><path class="cls-5" d="M96,230.68a6.88,6.88,0,0,1-13.75.13"/><path class="cls-5" d="M68.49,230.94a6.88,6.88,0,0,1,13.75-.13"/><path class="cls-5" d="M68.49,230.94a6.88,6.88,0,0,1-13.75.13"/><path class="cls-5" d="M41,231.19a6.88,6.88,0,0,1,13.75-.13"/><path class="cls-5" d="M41,231.19a6.88,6.88,0,0,1-13.75.13"/><line class="cls-6" x1="169.64" y1="234.25" x2="167.97" y2="245.72"/><path class="cls-6" d="M174.18,230.62v-1.1a.53.53,0,0,0-.53-.53h-2.29a.53.53,0,0,0-.53.53v1.1"/><line class="cls-6" x1="177.04" y1="245.72" x2="175.37" y2="234.25"/><line class="cls-6" x1="168.45" y1="242.14" x2="176.81" y2="242.14"/><line class="cls-6" x1="168.45" y1="242.13" x2="177.04" y2="245.72"/><line class="cls-6" x1="167.96" y1="245.7" x2="176.57" y2="242.15"/><rect class="cls-7" x="167.01" y="245.84" width="10.99" height="3.1" rx="1.55" ry="1.55"/><rect class="cls-7" x="169.16" y="231.15" width="6.45" height="3.1" rx="1.55" ry="1.55"/><line class="cls-8" x1="169.01" y1="238.6" x2="175.73" y2="238.6"/><path class="cls-9" d="M207.23,63.29A4.51,4.51,0,0,0,209,59.67V58.53a.39.39,0,0,0-.39-.39L162,57.9h0a8.73,8.73,0,0,0,4.2,5.57"/><path class="cls-10" d="M188.12,55.21h17.82a1.05,1.05,0,0,0,.91-1.58L188.51,21.85a1,1,0,0,0-1.09-.51"/><path class="cls-9" d="M188,21.21c-.16,0-.32.11-.4.35l-12.18,32.6c-.17.47,0,1,.39,1h12.34"/><path class="cls-9" d="M188.12,55.21h18.58a.7.7,0,0,0,.6-1l-18.82-32.6a.69.69,0,0,0-.58-.35"/><line class="cls-6" x1="238.64" y1="114.25" x2="236.97" y2="125.72"/><path class="cls-6" d="M243.18,110.62v-1.1a.53.53,0,0,0-.53-.53h-2.29a.53.53,0,0,0-.53.53v1.1"/><line class="cls-6" x1="246.04" y1="125.72" x2="244.37" y2="114.25"/><line class="cls-6" x1="237.45" y1="122.14" x2="245.81" y2="122.14"/><line class="cls-6" x1="237.45" y1="122.13" x2="246.04" y2="125.72"/><line class="cls-6" x1="236.96" y1="125.7" x2="245.57" y2="122.15"/><rect class="cls-7" x="236.01" y="125.84" width="10.99" height="3.1" rx="1.55" ry="1.55"/><rect class="cls-7" x="238.16" y="111.15" width="6.45" height="3.1" rx="1.55" ry="1.55"/><line class="cls-8" x1="238.01" y1="118.6" x2="244.73" y2="118.6"/><line class="cls-6" x1="86.64" y1="46.25" x2="84.97" y2="57.72"/><path class="cls-6" d="M91.18,42.62v-1.1a.53.53,0,0,0-.53-.53H88.36a.53.53,0,0,0-.53.53v1.1"/><line class="cls-6" x1="94.04" y1="57.72" x2="92.37" y2="46.25"/><line class="cls-6" x1="85.45" y1="54.14" x2="93.81" y2="54.14"/><line class="cls-6" x1="85.45" y1="54.13" x2="94.04" y2="57.72"/><line class="cls-6" x1="84.96" y1="57.7" x2="93.57" y2="54.15"/><rect class="cls-7" x="84.01" y="57.84" width="10.99" height="3.1" rx="1.55" ry="1.55"/><rect class="cls-7" x="86.16" y="43.15" width="6.45" height="3.1" rx="1.55" ry="1.55"/><line class="cls-8" x1="86.01" y1="50.6" x2="92.73" y2="50.6"/><g class="cls-11"><path class="cls-12" d="M76.75,223A14.25,14.25,0,1,0,91,237.25,14.25,14.25,0,0,0,76.75,223Zm0,23a8.72,8.72,0,1,1,8.72-8.72A8.72,8.72,0,0,1,76.75,246Z"/><polygon class="cls-7" points="90.47 241.12 84.92 239.63 83.15 242.86 87.55 246.55 90.47 241.12"/><polygon class="cls-7" points="81.17 229.97 84.04 225 88.53 229.23 83.83 232.52 81.17 229.97"/><polygon class="cls-7" points="68.82 234.17 63.42 232.2 66.81 227.04 70.87 231.1 68.82 234.17"/><polygon class="cls-7" points="71.72 244.11 68.42 248.82 64.32 244.21 69.29 241.34 71.72 244.11"/></g><rect class="cls-13" x="86" y="82.5" width="131" height="26.41"/><rect class="cls-14" x="86" y="108.34" width="131" height="26.41"/><rect class="cls-15" x="86" y="135.33" width="131" height="26.41"/><rect class="cls-14" x="86" y="161.17" width="131" height="26.41"/><rect class="cls-13" x="86" y="187.59" width="131" height="26.41"/><path class="cls-9" d="M250.23,215.29a4.51,4.51,0,0,0,1.77-3.63v-1.14a.39.39,0,0,0-.39-.39L205,209.9h0a8.73,8.73,0,0,0,4.2,5.57"/><path class="cls-10" d="M231.12,207.21h17.82a1.05,1.05,0,0,0,.91-1.58l-18.35-31.78a1,1,0,0,0-1.09-.51"/><path class="cls-9" d="M231,173.21c-.16,0-.32.11-.4.35l-12.18,32.6c-.17.47,0,1,.39,1h12.34"/><path class="cls-9" d="M231.12,207.21h18.58a.7.7,0,0,0,.6-1l-18.82-32.6a.69.69,0,0,0-.58-.35"/><path class="cls-9" d="M83,161c2,0,10,0,11-6.33v-1.14a.39.39,0,0,0-.39-.39L47,152.9h0a8.73,8.73,0,0,0,4.2,5.57"/><path class="cls-10" d="M73.12,150.21H90.95a1.05,1.05,0,0,0,.91-1.58L73.51,116.85a1,1,0,0,0-1.09-.51"/><path class="cls-9" d="M73,116.21c-.16,0-.32.11-.4.35l-12.18,32.6c-.17.47,0,1,.39,1H73.12"/><path class="cls-9" d="M73.12,150.21H91.71a.7.7,0,0,0,.6-1l-18.82-32.6a.69.69,0,0,0-.58-.35"/></g><g class="cls-16"><path class="cls-12" d="M242.75,44A14.25,14.25,0,1,0,257,58.25,14.25,14.25,0,0,0,242.75,44Zm0,23a8.72,8.72,0,1,1,8.72-8.72A8.72,8.72,0,0,1,242.75,67Z"/><polygon class="cls-7" points="256.47 62.12 250.92 60.63 249.15 63.86 253.55 67.55 256.47 62.12"/><polygon class="cls-7" points="247.16 50.98 250.04 46 254.53 50.23 249.82 53.52 247.16 50.98"/><polygon class="cls-7" points="234.82 55.17 229.42 53.2 232.81 48.04 236.87 52.1 234.82 55.17"/><polygon class="cls-7" points="237.72 65.11 234.42 69.82 230.32 65.21 235.29 62.34 237.72 65.11"/></g></g></g></svg>