<svg xmlns="http://www.w3.org/2000/svg" xmlns:xlink="http://www.w3.org/1999/xlink" viewBox="0 0 310 437.23"><defs><style>.cls-1,.cls-10,.cls-12,.cls-5{fill:none;}.cls-14,.cls-2,.cls-8{fill:#fff;}.cls-3{font-size:18px;fill:#414042;font-family:SanFranciscoDisplay-Semibold, San Francisco Display;font-weight:700;}.cls-4{clip-path:url(#clip-path);}.cls-10,.cls-11,.cls-12,.cls-14,.cls-5,.cls-8,.cls-9{stroke:#ccc;}.cls-10,.cls-11,.cls-12,.cls-14,.cls-5{stroke-miterlimit:10;}.cls-5,.cls-8,.cls-9{stroke-width:2px;}.cls-6{fill:#722c36;}.cls-7{fill:#cee4f5;}.cls-8,.cls-9{stroke-linejoin:round;}.cls-9{fill:#f7df75;}.cls-11{fill:#ccc;}.cls-12{stroke-linecap:round;}.cls-13{clip-path:url(#clip-path-2);}.cls-15{clip-path:url(#clip-path-3);}</style><clipPath id="clip-path"><rect class="cls-1" x="36" y="125.23" width="240" height="240" transform="translate(-89.23 401.23) rotate(-90)"/></clipPath><clipPath id="clip-path-2"><polygon class="cls-1" points="73 351.23 69.5 328.73 104.5 322.73 107 351.23 90.5 349.73 88.5 342.73 84 351.23 73 351.23"/></clipPath><clipPath id="clip-path-3"><polygon class="cls-1" points="228 165.23 224.5 142.73 259.5 136.73 262 165.23 245.5 163.73 243.5 156.73 239 165.23 228 165.23"/></clipPath></defs><title>Card 3</title><g id="Layer_2" data-name="Layer 2"><g id="Services_Icon" data-name="Services Icon"><rect class="cls-2" y="95.23" width="310" height="342"/><text class="cls-3" transform="translate(107.18 392.76)">MARKETING</text><g class="cls-4"><path class="cls-2" d="M5,180c12.24.08,12.2,6.08,24.44,6.16s12.28-5.92,24.52-5.84,12.2,6.08,24.44,6.16,12.28-5.92,24.52-5.84,12.2,6.08,24.44,6.16,12.28-5.92,24.52-5.84,12.2,6.08,24.45,6.16,12.28-5.92,24.53-5.84,12.2,6.08,24.45,6.16,12.28-5.92,24.53-5.84,12.21,6.08,24.45,6.16,12.29-5.92,24.53-5.84"/><path class="cls-5" d="M5,180c12.24.08,12.2,6.08,24.44,6.16s12.28-5.92,24.52-5.84,12.2,6.08,24.44,6.16,12.28-5.92,24.52-5.84,12.2,6.08,24.44,6.16,12.28-5.92,24.52-5.84,12.2,6.08,24.45,6.16,12.28-5.92,24.53-5.84,12.2,6.08,24.45,6.16,12.28-5.92,24.53-5.84,12.21,6.08,24.45,6.16,12.29-5.92,24.53-5.84"/><path class="cls-2" d="M5,191.94c12.24.08,12.2,6.08,24.44,6.16s12.28-5.92,24.52-5.84,12.2,6.08,24.44,6.16,12.28-5.92,24.52-5.84,12.2,6.08,24.44,6.16,12.28-5.92,24.52-5.84,12.2,6.08,24.45,6.16,12.28-5.92,24.53-5.84,12.2,6.08,24.45,6.16,12.28-5.92,24.53-5.84,12.21,6.08,24.45,6.16,12.29-5.92,24.53-5.84"/><path class="cls-5" d="M5,191.94c12.24.08,12.2,6.08,24.44,6.16s12.28-5.92,24.52-5.84,12.2,6.08,24.44,6.16,12.28-5.92,24.52-5.84,12.2,6.08,24.44,6.16,12.28-5.92,24.52-5.84,12.2,6.08,24.45,6.16,12.28-5.92,24.53-5.84,12.2,6.08,24.45,6.16,12.28-5.92,24.53-5.84,12.21,6.08,24.45,6.16,12.29-5.92,24.53-5.84"/><path class="cls-2" d="M4.89,203.88C17.13,204,17.09,210,29.34,210s12.28-5.92,24.52-5.84,12.2,6.08,24.44,6.16,12.28-5.92,24.52-5.84,12.2,6.08,24.44,6.16,12.28-5.92,24.52-5.84,12.2,6.08,24.45,6.16,12.28-5.92,24.53-5.84,12.2,6.08,24.45,6.16,12.28-5.92,24.53-5.84,12.21,6.08,24.45,6.16,12.29-5.92,24.53-5.84"/><path class="cls-5" d="M4.89,203.88C17.13,204,17.09,210,29.34,210s12.28-5.92,24.52-5.84,12.2,6.08,24.44,6.16,12.28-5.92,24.52-5.84,12.2,6.08,24.44,6.16,12.28-5.92,24.52-5.84,12.2,6.08,24.45,6.16,12.28-5.92,24.53-5.84,12.2,6.08,24.45,6.16,12.28-5.92,24.53-5.84,12.21,6.08,24.45,6.16,12.29-5.92,24.53-5.84"/><path class="cls-2" d="M4.82,215.82c12.24.08,12.2,6.08,24.44,6.16s12.28-5.92,24.52-5.84,12.2,6.08,24.44,6.16,12.28-5.92,24.52-5.84,12.2,6.08,24.44,6.16,12.28-5.92,24.52-5.84,12.2,6.08,24.45,6.16,12.28-5.92,24.53-5.84,12.2,6.08,24.45,6.16,12.28-5.92,24.53-5.84,12.21,6.08,24.45,6.16,12.29-5.92,24.53-5.84"/><path class="cls-5" d="M4.82,215.82c12.24.08,12.2,6.08,24.44,6.16s12.28-5.92,24.52-5.84,12.2,6.08,24.44,6.16,12.28-5.92,24.52-5.84,12.2,6.08,24.44,6.16,12.28-5.92,24.52-5.84,12.2,6.08,24.45,6.16,12.28-5.92,24.53-5.84,12.2,6.08,24.45,6.16,12.28-5.92,24.53-5.84,12.21,6.08,24.45,6.16,12.29-5.92,24.53-5.84"/><path class="cls-2" d="M4.74,227.76c12.24.08,12.2,6.08,24.44,6.16s12.28-5.92,24.52-5.84,12.2,6.08,24.44,6.16,12.28-5.92,24.52-5.84,12.2,6.08,24.44,6.16,12.28-5.92,24.52-5.84,12.2,6.08,24.45,6.16,12.28-5.92,24.53-5.84,12.2,6.08,24.45,6.16,12.28-5.92,24.53-5.84,12.21,6.08,24.45,6.16,12.29-5.92,24.53-5.84"/><path class="cls-5" d="M4.74,227.76c12.24.08,12.2,6.08,24.44,6.16s12.28-5.92,24.52-5.84,12.2,6.08,24.44,6.16,12.28-5.92,24.52-5.84,12.2,6.08,24.44,6.16,12.28-5.92,24.52-5.84,12.2,6.08,24.45,6.16,12.28-5.92,24.53-5.84,12.2,6.08,24.45,6.16,12.28-5.92,24.53-5.84,12.21,6.08,24.45,6.16,12.29-5.92,24.53-5.84"/><path class="cls-2" d="M4.66,239.7c12.24.08,12.2,6.08,24.44,6.16s12.28-5.92,24.52-5.84,12.2,6.08,24.44,6.16,12.28-5.92,24.52-5.84,12.2,6.08,24.44,6.16,12.28-5.92,24.52-5.84,12.2,6.08,24.45,6.16,12.28-5.92,24.53-5.84,12.2,6.08,24.45,6.16,12.28-5.92,24.53-5.84,12.21,6.08,24.45,6.16,12.29-5.92,24.53-5.84"/><path class="cls-5" d="M4.66,239.7c12.24.08,12.2,6.08,24.44,6.16s12.28-5.92,24.52-5.84,12.2,6.08,24.44,6.16,12.28-5.92,24.52-5.84,12.2,6.08,24.44,6.16,12.28-5.92,24.52-5.84,12.2,6.08,24.45,6.16,12.28-5.92,24.53-5.84,12.2,6.08,24.45,6.16,12.28-5.92,24.53-5.84,12.21,6.08,24.45,6.16,12.29-5.92,24.53-5.84"/><path class="cls-2" d="M4.59,251.64c12.24.08,12.2,6.08,24.44,6.16s12.28-5.92,24.52-5.84S65.76,258,78,258.13s12.28-5.92,24.52-5.84,12.2,6.08,24.44,6.16,12.28-5.92,24.52-5.84,12.2,6.08,24.45,6.16,12.28-5.92,24.53-5.84,12.2,6.08,24.45,6.16,12.28-5.92,24.53-5.84,12.21,6.08,24.45,6.16,12.29-5.92,24.53-5.84"/><path class="cls-5" d="M4.59,251.64c12.24.08,12.2,6.08,24.44,6.16s12.28-5.92,24.52-5.84S65.76,258,78,258.13s12.28-5.92,24.52-5.84,12.2,6.08,24.44,6.16,12.28-5.92,24.52-5.84,12.2,6.08,24.45,6.16,12.28-5.92,24.53-5.84,12.2,6.08,24.45,6.16,12.28-5.92,24.53-5.84,12.21,6.08,24.45,6.16,12.29-5.92,24.53-5.84"/><path class="cls-2" d="M4.51,263.58c12.24.08,12.2,6.08,24.44,6.16s12.28-5.92,24.52-5.84,12.2,6.08,24.44,6.16,12.28-5.92,24.52-5.84,12.2,6.08,24.44,6.16,12.28-5.92,24.52-5.84,12.2,6.08,24.45,6.16,12.28-5.92,24.53-5.84,12.2,6.08,24.45,6.16,12.28-5.92,24.53-5.84,12.21,6.08,24.45,6.16,12.29-5.92,24.53-5.84"/><path class="cls-5" d="M4.51,263.58c12.24.08,12.2,6.08,24.44,6.16s12.28-5.92,24.52-5.84,12.2,6.08,24.44,6.16,12.28-5.92,24.52-5.84,12.2,6.08,24.44,6.16,12.28-5.92,24.52-5.84,12.2,6.08,24.45,6.16,12.28-5.92,24.53-5.84,12.2,6.08,24.45,6.16,12.28-5.92,24.53-5.84,12.21,6.08,24.45,6.16,12.29-5.92,24.53-5.84"/><path class="cls-2" d="M4.43,275.52c12.24.08,12.2,6.08,24.44,6.16s12.28-5.92,24.52-5.84,12.2,6.08,24.44,6.16,12.28-5.92,24.52-5.84,12.2,6.08,24.44,6.16,12.28-5.92,24.52-5.84,12.2,6.08,24.45,6.16,12.28-5.92,24.53-5.84,12.2,6.08,24.45,6.16,12.28-5.92,24.53-5.84,12.21,6.08,24.45,6.16,12.29-5.92,24.53-5.84"/><path class="cls-5" d="M4.43,275.52c12.24.08,12.2,6.08,24.44,6.16s12.28-5.92,24.52-5.84,12.2,6.08,24.44,6.16,12.28-5.92,24.52-5.84,12.2,6.08,24.44,6.16,12.28-5.92,24.52-5.84,12.2,6.08,24.45,6.16,12.28-5.92,24.53-5.84,12.2,6.08,24.45,6.16,12.28-5.92,24.53-5.84,12.21,6.08,24.45,6.16,12.29-5.92,24.53-5.84"/><path class="cls-2" d="M4.36,287.46c12.24.08,12.2,6.08,24.44,6.16s12.28-5.92,24.52-5.84,12.2,6.08,24.44,6.16,12.28-5.92,24.52-5.84,12.2,6.08,24.44,6.16,12.28-5.92,24.52-5.84,12.2,6.08,24.45,6.16,12.28-5.92,24.53-5.84,12.2,6.08,24.45,6.16S237,289,249.2,289.08s12.21,6.08,24.45,6.16,12.29-5.92,24.53-5.84"/><path class="cls-5" d="M4.36,287.46c12.24.08,12.2,6.08,24.44,6.16s12.28-5.92,24.52-5.84,12.2,6.08,24.44,6.16,12.28-5.92,24.52-5.84,12.2,6.08,24.44,6.16,12.28-5.92,24.52-5.84,12.2,6.08,24.45,6.16,12.28-5.92,24.53-5.84,12.2,6.08,24.45,6.16S237,289,249.2,289.08s12.21,6.08,24.45,6.16,12.29-5.92,24.53-5.84"/><path class="cls-2" d="M4.28,299.4c12.24.08,12.2,6.08,24.44,6.16s12.28-5.92,24.52-5.84,12.2,6.08,24.44,6.16S90,300,102.21,300s12.2,6.08,24.44,6.16,12.28-5.92,24.52-5.84,12.2,6.08,24.45,6.16,12.28-5.92,24.53-5.84,12.2,6.08,24.45,6.16,12.28-5.92,24.53-5.84,12.21,6.08,24.45,6.16,12.29-5.92,24.53-5.84"/><path class="cls-5" d="M4.28,299.4c12.24.08,12.2,6.08,24.44,6.16s12.28-5.92,24.52-5.84,12.2,6.08,24.44,6.16S90,300,102.21,300s12.2,6.08,24.44,6.16,12.28-5.92,24.52-5.84,12.2,6.08,24.45,6.16,12.28-5.92,24.53-5.84,12.2,6.08,24.45,6.16,12.28-5.92,24.53-5.84,12.21,6.08,24.45,6.16,12.29-5.92,24.53-5.84"/><path class="cls-2" d="M4.21,311.34c12.24.08,12.2,6.08,24.44,6.16s12.28-5.92,24.52-5.84,12.2,6.08,24.44,6.16,12.28-5.92,24.52-5.84,12.2,6.08,24.44,6.16,12.28-5.92,24.52-5.84,12.2,6.08,24.45,6.16,12.28-5.92,24.53-5.84,12.2,6.08,24.45,6.16,12.28-5.92,24.53-5.84,12.21,6.08,24.45,6.16,12.29-5.92,24.53-5.84"/><path class="cls-5" d="M4.21,311.34c12.24.08,12.2,6.08,24.44,6.16s12.28-5.92,24.52-5.84,12.2,6.08,24.44,6.16,12.28-5.92,24.52-5.84,12.2,6.08,24.44,6.16,12.28-5.92,24.52-5.84,12.2,6.08,24.45,6.16,12.28-5.92,24.53-5.84,12.2,6.08,24.45,6.16,12.28-5.92,24.53-5.84,12.21,6.08,24.45,6.16,12.29-5.92,24.53-5.84"/><path class="cls-2" d="M4.13,323.28c12.24.08,12.2,6.08,24.44,6.16s12.28-5.92,24.52-5.84,12.2,6.08,24.44,6.16,12.28-5.92,24.52-5.84,12.2,6.08,24.44,6.16,12.28-5.92,24.52-5.84,12.2,6.08,24.45,6.16,12.28-5.92,24.53-5.84,12.2,6.08,24.45,6.16,12.28-5.92,24.53-5.84,12.21,6.08,24.45,6.16,12.29-5.92,24.53-5.84"/><path class="cls-5" d="M4.13,323.28c12.24.08,12.2,6.08,24.44,6.16s12.28-5.92,24.52-5.84,12.2,6.08,24.44,6.16,12.28-5.92,24.52-5.84,12.2,6.08,24.44,6.16,12.28-5.92,24.52-5.84,12.2,6.08,24.45,6.16,12.28-5.92,24.53-5.84,12.2,6.08,24.45,6.16,12.28-5.92,24.53-5.84,12.21,6.08,24.45,6.16,12.29-5.92,24.53-5.84"/><path class="cls-2" d="M4.05,335.22c12.24.08,12.2,6.08,24.44,6.16s12.28-5.92,24.52-5.84,12.2,6.08,24.44,6.16,12.28-5.92,24.52-5.84,12.2,6.08,24.44,6.16,12.28-5.92,24.52-5.84,12.2,6.08,24.45,6.16,12.28-5.92,24.53-5.84,12.2,6.08,24.45,6.16,12.28-5.92,24.53-5.84,12.21,6.08,24.45,6.16,12.29-5.92,24.53-5.84"/><path class="cls-5" d="M4.05,335.22c12.24.08,12.2,6.08,24.44,6.16s12.28-5.92,24.52-5.84,12.2,6.08,24.44,6.16,12.28-5.92,24.52-5.84,12.2,6.08,24.44,6.16,12.28-5.92,24.52-5.84,12.2,6.08,24.45,6.16,12.28-5.92,24.53-5.84,12.2,6.08,24.45,6.16,12.28-5.92,24.53-5.84,12.21,6.08,24.45,6.16,12.29-5.92,24.53-5.84"/><path class="cls-2" d="M4,347.16c12.24.08,12.2,6.08,24.44,6.16s12.28-5.92,24.52-5.84,12.2,6.08,24.44,6.16,12.28-5.92,24.52-5.84,12.2,6.08,24.44,6.16,12.28-5.92,24.52-5.84,12.2,6.08,24.45,6.16,12.28-5.92,24.53-5.84,12.2,6.08,24.45,6.16,12.28-5.92,24.53-5.84,12.21,6.08,24.45,6.16,12.29-5.92,24.53-5.84"/><path class="cls-5" d="M4,347.16c12.24.08,12.2,6.08,24.44,6.16s12.28-5.92,24.52-5.84,12.2,6.08,24.44,6.16,12.28-5.92,24.52-5.84,12.2,6.08,24.44,6.16,12.28-5.92,24.52-5.84,12.2,6.08,24.45,6.16,12.28-5.92,24.53-5.84,12.2,6.08,24.45,6.16,12.28-5.92,24.53-5.84,12.21,6.08,24.45,6.16,12.29-5.92,24.53-5.84"/><path class="cls-2" d="M3.9,359.1c12.24.08,12.2,6.08,24.44,6.16s12.28-5.92,24.52-5.84,12.2,6.08,24.44,6.16,12.28-5.92,24.52-5.84,12.2,6.08,24.44,6.16,12.28-5.92,24.52-5.84,12.2,6.08,24.45,6.16,12.28-5.92,24.53-5.84,12.2,6.08,24.45,6.16,12.28-5.92,24.53-5.84,12.21,6.08,24.45,6.16S285.48,361,297.73,361"/><path class="cls-5" d="M3.9,359.1c12.24.08,12.2,6.08,24.44,6.16s12.28-5.92,24.52-5.84,12.2,6.08,24.44,6.16,12.28-5.92,24.52-5.84,12.2,6.08,24.44,6.16,12.28-5.92,24.52-5.84,12.2,6.08,24.45,6.16,12.28-5.92,24.53-5.84,12.2,6.08,24.45,6.16,12.28-5.92,24.53-5.84,12.21,6.08,24.45,6.16S285.48,361,297.73,361"/><path class="cls-2" d="M5,1c12.24.08,12.2,6.08,24.44,6.16S41.77,1.24,54,1.32s12.2,6.08,24.44,6.16S90.74,1.57,103,1.65s12.2,6.08,24.44,6.16S139.7,1.89,151.94,2s12.2,6.08,24.45,6.16,12.28-5.92,24.53-5.84,12.2,6.08,24.45,6.16,12.28-5.92,24.53-5.84S262.1,8.7,274.34,8.78s12.29-5.92,24.53-5.84"/><path class="cls-5" d="M5,1c12.24.08,12.2,6.08,24.44,6.16S41.77,1.24,54,1.32s12.2,6.08,24.44,6.16S90.74,1.57,103,1.65s12.2,6.08,24.44,6.16S139.7,1.89,151.94,2s12.2,6.08,24.45,6.16,12.28-5.92,24.53-5.84,12.2,6.08,24.45,6.16,12.28-5.92,24.53-5.84S262.1,8.7,274.34,8.78s12.29-5.92,24.53-5.84"/><path class="cls-2" d="M5,12.94C17.21,13,17.17,19,29.41,19.1s12.28-5.92,24.52-5.84,12.2,6.08,24.44,6.16,12.28-5.92,24.52-5.84,12.2,6.08,24.44,6.16,12.28-5.92,24.52-5.84,12.2,6.08,24.45,6.16,12.28-5.92,24.53-5.84,12.2,6.08,24.45,6.16,12.28-5.92,24.53-5.84,12.21,6.08,24.45,6.16,12.29-5.92,24.53-5.84"/><path class="cls-5" d="M5,12.94C17.21,13,17.17,19,29.41,19.1s12.28-5.92,24.52-5.84,12.2,6.08,24.44,6.16,12.28-5.92,24.52-5.84,12.2,6.08,24.44,6.16,12.28-5.92,24.52-5.84,12.2,6.08,24.45,6.16,12.28-5.92,24.53-5.84,12.2,6.08,24.45,6.16,12.28-5.92,24.53-5.84,12.21,6.08,24.45,6.16,12.29-5.92,24.53-5.84"/><path class="cls-2" d="M4.89,24.88C17.13,25,17.09,31,29.34,31s12.28-5.92,24.52-5.84,12.2,6.08,24.44,6.16,12.28-5.92,24.52-5.84,12.2,6.08,24.44,6.16,12.28-5.92,24.52-5.84S164,31.93,176.24,32s12.28-5.92,24.53-5.84,12.2,6.08,24.45,6.16,12.28-5.92,24.53-5.84,12.21,6.08,24.45,6.16,12.29-5.92,24.53-5.84"/><path class="cls-5" d="M4.89,24.88C17.13,25,17.09,31,29.34,31s12.28-5.92,24.52-5.84,12.2,6.08,24.44,6.16,12.28-5.92,24.52-5.84,12.2,6.08,24.44,6.16,12.28-5.92,24.52-5.84S164,31.93,176.24,32s12.28-5.92,24.53-5.84,12.2,6.08,24.45,6.16,12.28-5.92,24.53-5.84,12.21,6.08,24.45,6.16,12.29-5.92,24.53-5.84"/><path class="cls-2" d="M4.82,36.82C17.06,36.9,17,42.9,29.26,43s12.28-5.92,24.52-5.84S66,43.23,78.23,43.31s12.28-5.92,24.52-5.84,12.2,6.08,24.44,6.16,12.28-5.92,24.52-5.84,12.2,6.08,24.45,6.16,12.28-5.92,24.53-5.84,12.2,6.08,24.45,6.16,12.28-5.92,24.53-5.84,12.21,6.08,24.45,6.16,12.29-5.92,24.53-5.84"/><path class="cls-5" d="M4.82,36.82C17.06,36.9,17,42.9,29.26,43s12.28-5.92,24.52-5.84S66,43.23,78.23,43.31s12.28-5.92,24.52-5.84,12.2,6.08,24.44,6.16,12.28-5.92,24.52-5.84,12.2,6.08,24.45,6.16,12.28-5.92,24.53-5.84,12.2,6.08,24.45,6.16,12.28-5.92,24.53-5.84,12.21,6.08,24.45,6.16,12.29-5.92,24.53-5.84"/><path class="cls-2" d="M4.74,48.76c12.24.08,12.2,6.08,24.44,6.16S41.47,49,53.71,49.08s12.2,6.08,24.44,6.16,12.28-5.92,24.52-5.84,12.2,6.08,24.44,6.16,12.28-5.92,24.52-5.84,12.2,6.08,24.45,6.16,12.28-5.92,24.53-5.84,12.2,6.08,24.45,6.16,12.28-5.92,24.53-5.84,12.21,6.08,24.45,6.16,12.29-5.92,24.53-5.84"/><path class="cls-5" d="M4.74,48.76c12.24.08,12.2,6.08,24.44,6.16S41.47,49,53.71,49.08s12.2,6.08,24.44,6.16,12.28-5.92,24.52-5.84,12.2,6.08,24.44,6.16,12.28-5.92,24.52-5.84,12.2,6.08,24.45,6.16,12.28-5.92,24.53-5.84,12.2,6.08,24.45,6.16,12.28-5.92,24.53-5.84,12.21,6.08,24.45,6.16,12.29-5.92,24.53-5.84"/><path class="cls-2" d="M4.66,60.7c12.24.08,12.2,6.08,24.44,6.16S41.39,60.94,53.63,61s12.2,6.08,24.44,6.16,12.28-5.92,24.52-5.84,12.2,6.08,24.44,6.16,12.28-5.92,24.52-5.84,12.2,6.08,24.45,6.16,12.28-5.92,24.53-5.84,12.2,6.08,24.45,6.16,12.28-5.92,24.53-5.84S261.71,68.4,274,68.48s12.29-5.92,24.53-5.84"/><path class="cls-5" d="M4.66,60.7c12.24.08,12.2,6.08,24.44,6.16S41.39,60.94,53.63,61s12.2,6.08,24.44,6.16,12.28-5.92,24.52-5.84,12.2,6.08,24.44,6.16,12.28-5.92,24.52-5.84,12.2,6.08,24.45,6.16,12.28-5.92,24.53-5.84,12.2,6.08,24.45,6.16,12.28-5.92,24.53-5.84S261.71,68.4,274,68.48s12.29-5.92,24.53-5.84"/><path class="cls-2" d="M4.59,72.64c12.24.08,12.2,6.08,24.44,6.16S41.31,72.88,53.55,73,65.76,79,78,79.13s12.28-5.92,24.52-5.84,12.2,6.08,24.44,6.16,12.28-5.92,24.52-5.84,12.2,6.08,24.45,6.16,12.28-5.92,24.53-5.84,12.2,6.08,24.45,6.16,12.28-5.92,24.53-5.84,12.21,6.08,24.45,6.16,12.29-5.92,24.53-5.84"/><path class="cls-5" d="M4.59,72.64c12.24.08,12.2,6.08,24.44,6.16S41.31,72.88,53.55,73,65.76,79,78,79.13s12.28-5.92,24.52-5.84,12.2,6.08,24.44,6.16,12.28-5.92,24.52-5.84,12.2,6.08,24.45,6.16,12.28-5.92,24.53-5.84,12.2,6.08,24.45,6.16,12.28-5.92,24.53-5.84,12.21,6.08,24.45,6.16,12.29-5.92,24.53-5.84"/><path class="cls-2" d="M4.51,84.58c12.24.08,12.2,6.08,24.44,6.16s12.28-5.92,24.52-5.84S65.68,91,77.92,91.07s12.28-5.92,24.52-5.84,12.2,6.08,24.44,6.16,12.28-5.92,24.52-5.84,12.2,6.08,24.45,6.16,12.28-5.92,24.53-5.84S212.59,92,224.83,92s12.28-5.92,24.53-5.84,12.21,6.08,24.45,6.16,12.29-5.92,24.53-5.84"/><path class="cls-5" d="M4.51,84.58c12.24.08,12.2,6.08,24.44,6.16s12.28-5.92,24.52-5.84S65.68,91,77.92,91.07s12.28-5.92,24.52-5.84,12.2,6.08,24.44,6.16,12.28-5.92,24.52-5.84,12.2,6.08,24.45,6.16,12.28-5.92,24.53-5.84S212.59,92,224.83,92s12.28-5.92,24.53-5.84,12.21,6.08,24.45,6.16,12.29-5.92,24.53-5.84"/><path class="cls-2" d="M4.43,96.52c12.24.08,12.2,6.08,24.44,6.16s12.28-5.92,24.52-5.84,12.2,6.08,24.44,6.16,12.28-5.92,24.52-5.84,12.2,6.08,24.44,6.16,12.28-5.92,24.52-5.84,12.2,6.08,24.45,6.16,12.28-5.92,24.53-5.84,12.2,6.08,24.45,6.16,12.28-5.92,24.53-5.84,12.21,6.08,24.45,6.16,12.29-5.92,24.53-5.84"/><path class="cls-5" d="M4.43,96.52c12.24.08,12.2,6.08,24.44,6.16s12.28-5.92,24.52-5.84,12.2,6.08,24.44,6.16,12.28-5.92,24.52-5.84,12.2,6.08,24.44,6.16,12.28-5.92,24.52-5.84,12.2,6.08,24.45,6.16,12.28-5.92,24.53-5.84,12.2,6.08,24.45,6.16,12.28-5.92,24.53-5.84,12.21,6.08,24.45,6.16,12.29-5.92,24.53-5.84"/><path class="cls-2" d="M4.36,108.46c12.24.08,12.2,6.08,24.44,6.16s12.28-5.92,24.52-5.84,12.2,6.08,24.44,6.16,12.28-5.92,24.52-5.84,12.2,6.08,24.44,6.16,12.28-5.92,24.52-5.84,12.2,6.08,24.45,6.16,12.28-5.92,24.53-5.84,12.2,6.08,24.45,6.16S237,110,249.2,110.08s12.21,6.08,24.45,6.16,12.29-5.92,24.53-5.84"/><path class="cls-5" d="M4.36,108.46c12.24.08,12.2,6.08,24.44,6.16s12.28-5.92,24.52-5.84,12.2,6.08,24.44,6.16,12.28-5.92,24.52-5.84,12.2,6.08,24.44,6.16,12.28-5.92,24.52-5.84,12.2,6.08,24.45,6.16,12.28-5.92,24.53-5.84,12.2,6.08,24.45,6.16S237,110,249.2,110.08s12.21,6.08,24.45,6.16,12.29-5.92,24.53-5.84"/><path class="cls-2" d="M4.28,120.4c12.24.08,12.2,6.08,24.44,6.16s12.28-5.92,24.52-5.84,12.2,6.08,24.44,6.16S90,121,102.21,121s12.2,6.08,24.44,6.16,12.28-5.92,24.52-5.84,12.2,6.08,24.45,6.16,12.28-5.92,24.53-5.84,12.2,6.08,24.45,6.16,12.28-5.92,24.53-5.84,12.21,6.08,24.45,6.16,12.29-5.92,24.53-5.84"/><path class="cls-5" d="M4.28,120.4c12.24.08,12.2,6.08,24.44,6.16s12.28-5.92,24.52-5.84,12.2,6.08,24.44,6.16S90,121,102.21,121s12.2,6.08,24.44,6.16,12.28-5.92,24.52-5.84,12.2,6.08,24.45,6.16,12.28-5.92,24.53-5.84,12.2,6.08,24.45,6.16,12.28-5.92,24.53-5.84,12.21,6.08,24.45,6.16,12.29-5.92,24.53-5.84"/><path class="cls-2" d="M4.21,132.34c12.24.08,12.2,6.08,24.44,6.16s12.28-5.92,24.52-5.84,12.2,6.08,24.44,6.16,12.28-5.92,24.52-5.84,12.2,6.08,24.44,6.16,12.28-5.92,24.52-5.84,12.2,6.08,24.45,6.16,12.28-5.92,24.53-5.84,12.2,6.08,24.45,6.16,12.28-5.92,24.53-5.84,12.21,6.08,24.45,6.16,12.29-5.92,24.53-5.84"/><path class="cls-5" d="M4.21,132.34c12.24.08,12.2,6.08,24.44,6.16s12.28-5.92,24.52-5.84,12.2,6.08,24.44,6.16,12.28-5.92,24.52-5.84,12.2,6.08,24.44,6.16,12.28-5.92,24.52-5.84,12.2,6.08,24.45,6.16,12.28-5.92,24.53-5.84,12.2,6.08,24.45,6.16,12.28-5.92,24.53-5.84,12.21,6.08,24.45,6.16,12.29-5.92,24.53-5.84"/><path class="cls-2" d="M4.13,144.28c12.24.08,12.2,6.08,24.44,6.16s12.28-5.92,24.52-5.84,12.2,6.08,24.44,6.16,12.28-5.92,24.52-5.84,12.2,6.08,24.44,6.16,12.28-5.92,24.52-5.84,12.2,6.08,24.45,6.16,12.28-5.92,24.53-5.84,12.2,6.08,24.45,6.16,12.28-5.92,24.53-5.84,12.21,6.08,24.45,6.16,12.29-5.92,24.53-5.84"/><path class="cls-5" d="M4.13,144.28c12.24.08,12.2,6.08,24.44,6.16s12.28-5.92,24.52-5.84,12.2,6.08,24.44,6.16,12.28-5.92,24.52-5.84,12.2,6.08,24.44,6.16,12.28-5.92,24.52-5.84,12.2,6.08,24.45,6.16,12.28-5.92,24.53-5.84,12.2,6.08,24.45,6.16,12.28-5.92,24.53-5.84,12.21,6.08,24.45,6.16,12.29-5.92,24.53-5.84"/><path class="cls-2" d="M4.05,156.22c12.24.08,12.2,6.08,24.44,6.16s12.28-5.92,24.52-5.84,12.2,6.08,24.44,6.16,12.28-5.92,24.52-5.84,12.2,6.08,24.44,6.16,12.28-5.92,24.52-5.84,12.2,6.08,24.45,6.16,12.28-5.92,24.53-5.84,12.2,6.08,24.45,6.16,12.28-5.92,24.53-5.84,12.21,6.08,24.45,6.16,12.29-5.92,24.53-5.84"/><path class="cls-5" d="M4.05,156.22c12.24.08,12.2,6.08,24.44,6.16s12.28-5.92,24.52-5.84,12.2,6.08,24.44,6.16,12.28-5.92,24.52-5.84,12.2,6.08,24.44,6.16,12.28-5.92,24.52-5.84,12.2,6.08,24.45,6.16,12.28-5.92,24.53-5.84,12.2,6.08,24.45,6.16,12.28-5.92,24.53-5.84,12.21,6.08,24.45,6.16,12.29-5.92,24.53-5.84"/><path class="cls-2" d="M4,168.16c12.24.08,12.2,6.08,24.44,6.16s12.28-5.92,24.52-5.84,12.2,6.08,24.44,6.16,12.28-5.92,24.52-5.84,12.2,6.08,24.44,6.16,12.28-5.92,24.52-5.84,12.2,6.08,24.45,6.16,12.28-5.92,24.53-5.84,12.2,6.08,24.45,6.16,12.28-5.92,24.53-5.84,12.21,6.08,24.45,6.16,12.29-5.92,24.53-5.84"/><path class="cls-5" d="M4,168.16c12.24.08,12.2,6.08,24.44,6.16s12.28-5.92,24.52-5.84,12.2,6.08,24.44,6.16,12.28-5.92,24.52-5.84,12.2,6.08,24.44,6.16,12.28-5.92,24.52-5.84,12.2,6.08,24.45,6.16,12.28-5.92,24.53-5.84,12.2,6.08,24.45,6.16,12.28-5.92,24.53-5.84,12.21,6.08,24.45,6.16,12.29-5.92,24.53-5.84"/><path class="cls-2" d="M3.9,180.1c12.24.08,12.2,6.08,24.44,6.16s12.28-5.92,24.52-5.84,12.2,6.08,24.44,6.16,12.28-5.92,24.52-5.84,12.2,6.08,24.44,6.16,12.28-5.92,24.52-5.84,12.2,6.08,24.45,6.16,12.28-5.92,24.53-5.84,12.2,6.08,24.45,6.16,12.28-5.92,24.53-5.84,12.21,6.08,24.45,6.16S285.48,182,297.73,182"/><path class="cls-5" d="M3.9,180.1c12.24.08,12.2,6.08,24.44,6.16s12.28-5.92,24.52-5.84,12.2,6.08,24.44,6.16,12.28-5.92,24.52-5.84,12.2,6.08,24.44,6.16,12.28-5.92,24.52-5.84,12.2,6.08,24.45,6.16,12.28-5.92,24.53-5.84,12.2,6.08,24.45,6.16,12.28-5.92,24.53-5.84,12.21,6.08,24.45,6.16S285.48,182,297.73,182"/><rect class="cls-6" x="90" y="181.23" width="131.02" height="131.02"/><rect class="cls-7" x="156" y="181.23" width="65" height="131"/><path class="cls-8" d="M93.23,255.52A4.51,4.51,0,0,0,95,251.9v-1.14a.39.39,0,0,0-.39-.39L48,250.13h0a8.73,8.73,0,0,0,4.2,5.57"/><path class="cls-9" d="M74.12,247.44H91.95a1.05,1.05,0,0,0,.91-1.58L74.51,214.08a1,1,0,0,0-1.09-.51"/><path class="cls-8" d="M74,213.44c-.16,0-.32.11-.4.35l-12.18,32.6c-.17.47,0,1,.39,1H74.12"/><path class="cls-8" d="M74.12,247.44H92.71a.7.7,0,0,0,.6-1l-18.82-32.6a.69.69,0,0,0-.58-.35"/><path class="cls-8" d="M270.23,326.52A4.51,4.51,0,0,0,272,322.9v-1.14a.39.39,0,0,0-.39-.39L225,321.13h0a8.73,8.73,0,0,0,4.2,5.57"/><path class="cls-9" d="M251.12,318.44h17.82a1.05,1.05,0,0,0,.91-1.58l-18.35-31.78a1,1,0,0,0-1.09-.51"/><path class="cls-8" d="M251,284.44c-.16,0-.32.11-.4.35l-12.18,32.6c-.17.47,0,1,.39,1h12.34"/><path class="cls-8" d="M251.12,318.44h18.58a.7.7,0,0,0,.6-1l-18.82-32.6a.69.69,0,0,0-.58-.35"/><path class="cls-8" d="M210.23,161.52A4.51,4.51,0,0,0,212,157.9v-1.14a.39.39,0,0,0-.39-.39L165,156.13h0a8.73,8.73,0,0,0,4.2,5.57"/><path class="cls-9" d="M191.12,153.44h17.82a1.05,1.05,0,0,0,.91-1.58l-18.35-31.78a1,1,0,0,0-1.09-.51"/><path class="cls-8" d="M191,119.44c-.16,0-.32.11-.4.35l-12.18,32.6c-.17.47,0,1,.39,1h12.34"/><path class="cls-8" d="M191.12,153.44h18.58a.7.7,0,0,0,.6-1l-18.82-32.6a.69.69,0,0,0-.58-.35"/><line class="cls-10" x1="234.64" y1="205.48" x2="232.97" y2="216.95"/><path class="cls-10" d="M239.18,201.85v-1.1a.53.53,0,0,0-.53-.53h-2.29a.53.53,0,0,0-.53.53v1.1"/><line class="cls-10" x1="242.04" y1="216.95" x2="240.37" y2="205.48"/><line class="cls-10" x1="233.45" y1="213.37" x2="241.81" y2="213.37"/><line class="cls-10" x1="233.45" y1="213.36" x2="242.04" y2="216.95"/><line class="cls-10" x1="232.96" y1="216.93" x2="241.57" y2="213.38"/><rect class="cls-11" x="232.01" y="217.07" width="10.99" height="3.1" rx="1.55" ry="1.55"/><rect class="cls-11" x="234.16" y="202.38" width="6.45" height="3.1" rx="1.55" ry="1.55"/><line class="cls-12" x1="234.01" y1="209.83" x2="240.73" y2="209.83"/><line class="cls-10" x1="87.64" y1="133.48" x2="85.97" y2="144.95"/><path class="cls-10" d="M92.18,129.85v-1.1a.53.53,0,0,0-.53-.53H89.36a.53.53,0,0,0-.53.53v1.1"/><line class="cls-10" x1="95.04" y1="144.95" x2="93.37" y2="133.48"/><line class="cls-10" x1="86.45" y1="141.37" x2="94.81" y2="141.37"/><line class="cls-10" x1="86.45" y1="141.36" x2="95.04" y2="144.95"/><line class="cls-10" x1="85.96" y1="144.93" x2="94.57" y2="141.38"/><rect class="cls-11" x="85.01" y="145.07" width="10.99" height="3.1" rx="1.55" ry="1.55"/><rect class="cls-11" x="87.16" y="130.38" width="6.45" height="3.1" rx="1.55" ry="1.55"/><line class="cls-12" x1="87.01" y1="137.83" x2="93.73" y2="137.83"/><g class="cls-13"><path class="cls-14" d="M90.75,331.23A14.25,14.25,0,1,0,105,345.48,14.25,14.25,0,0,0,90.75,331.23Zm0,23a8.72,8.72,0,1,1,8.72-8.72A8.72,8.72,0,0,1,90.75,354.2Z"/><polygon class="cls-11" points="104.47 349.35 98.92 347.86 97.15 351.09 101.55 354.78 104.47 349.35"/><polygon class="cls-11" points="95.17 338.2 98.04 333.23 102.53 337.46 97.83 340.75 95.17 338.2"/><polygon class="cls-11" points="82.82 342.4 77.42 340.43 80.81 335.27 84.87 339.33 82.82 342.4"/><polygon class="cls-11" points="85.72 352.34 82.42 357.05 78.32 352.44 83.29 349.57 85.72 352.34"/></g><g class="cls-15"><path class="cls-14" d="M245.75,145.23A14.25,14.25,0,1,0,260,159.48,14.25,14.25,0,0,0,245.75,145.23Zm0,23a8.72,8.72,0,1,1,8.72-8.72A8.72,8.72,0,0,1,245.75,168.2Z"/><polygon class="cls-11" points="259.47 163.35 253.92 161.86 252.15 165.09 256.55 168.78 259.47 163.35"/><polygon class="cls-11" points="250.16 152.21 253.04 147.23 257.53 151.46 252.82 154.75 250.16 152.21"/><polygon class="cls-11" points="237.82 156.4 232.42 154.43 235.81 149.27 239.87 153.33 237.82 156.4"/><polygon class="cls-11" points="240.72 166.34 237.42 171.05 233.32 166.44 238.29 163.57 240.72 166.34"/></g><line class="cls-10" x1="248.64" y1="330.48" x2="246.97" y2="341.95"/><path class="cls-10" d="M253.18,326.85v-1.1a.53.53,0,0,0-.53-.53h-2.29a.53.53,0,0,0-.53.53v1.1"/><line class="cls-10" x1="256.04" y1="341.95" x2="254.37" y2="330.48"/><line class="cls-10" x1="247.45" y1="338.37" x2="255.81" y2="338.37"/><line class="cls-10" x1="247.45" y1="338.36" x2="256.04" y2="341.95"/><line class="cls-10" x1="246.96" y1="341.93" x2="255.57" y2="338.38"/><rect class="cls-11" x="246.01" y="342.07" width="10.99" height="3.1" rx="1.55" ry="1.55"/><rect class="cls-11" x="248.16" y="327.38" width="6.45" height="3.1" rx="1.55" ry="1.55"/><line class="cls-12" x1="248.01" y1="334.83" x2="254.73" y2="334.83"/></g></g></g></svg>