<svg xmlns="http://www.w3.org/2000/svg" xmlns:xlink="http://www.w3.org/1999/xlink" viewBox="0 0 310 342"><defs><style>.cls-1,.cls-5,.cls-6,.cls-8{fill:none;}.cls-12,.cls-2,.cls-9{fill:#fff;}.cls-3{font-size:18px;fill:#414042;font-family:SanFranciscoDisplay-Semibold, San Francisco Display;font-weight:700;}.cls-4{clip-path:url(#clip-path);}.cls-10,.cls-12,.cls-5,.cls-6,.cls-7,.cls-8,.cls-9{stroke:#ccc;}.cls-5,.cls-8{stroke-linecap:round;}.cls-12,.cls-5,.cls-6,.cls-7,.cls-8{stroke-miterlimit:10;}.cls-10,.cls-5,.cls-9{stroke-width:2px;}.cls-7{fill:#ccc;}.cls-10,.cls-9{stroke-linejoin:round;}.cls-10{fill:#f7df75;}.cls-11{clip-path:url(#clip-path-2);}.cls-13{clip-path:url(#clip-path-3);}.cls-14{clip-path:url(#clip-path-4);}.cls-15{fill:#cee4f5;}.cls-16{fill:#fcc062;}</style><clipPath id="clip-path"><rect class="cls-1" x="35" y="26" width="240" height="240" transform="translate(9 301) rotate(-90)"/></clipPath><clipPath id="clip-path-2"><polygon class="cls-1" points="116 248 112.5 225.5 147.5 219.5 150 248 133.5 246.5 131.5 239.5 127 248 116 248"/></clipPath><clipPath id="clip-path-3"><polygon class="cls-1" points="227 66 223.5 43.5 258.5 37.5 261 68 244.5 64.5 242 67 237 68 227 66"/></clipPath><clipPath id="clip-path-4"><polygon class="cls-1" points="86 89.76 234.63 89.76 199.24 146.38 234.63 203 86 203 86 89.76"/></clipPath></defs><title>Card 2</title><g id="Layer_2" data-name="Layer 2"><g id="Services_Icon" data-name="Services Icon"><rect class="cls-2" width="310" height="342"/><text class="cls-3" transform="translate(105.18 297.53)">CONCIERGE</text><g class="cls-4"><path class="cls-5" d="M41,32.5c0,3-4.25,5.5-9.5,5.5S22,35.54,22,32.5"/><path class="cls-5" d="M60,32.5c0,3-4.25,5.5-9.5,5.5S41,35.54,41,32.5"/><path class="cls-5" d="M79,32.5c0,3-4.25,5.5-9.5,5.5S60,35.54,60,32.5"/><path class="cls-5" d="M98,32.5c0,3-4.25,5.5-9.5,5.5S79,35.54,79,32.5"/><path class="cls-5" d="M117,32.5c0,3-4.25,5.5-9.5,5.5S98,35.54,98,32.5"/><path class="cls-5" d="M136,32.5c0,3-4.25,5.5-9.5,5.5s-9.5-2.46-9.5-5.5"/><path class="cls-5" d="M155,32.5c0,3-4.25,5.5-9.5,5.5s-9.5-2.46-9.5-5.5"/><path class="cls-5" d="M174,32.5c0,3-4.25,5.5-9.5,5.5s-9.5-2.46-9.5-5.5"/><path class="cls-5" d="M193,32.5c0,3-4.25,5.5-9.5,5.5s-9.5-2.46-9.5-5.5"/><path class="cls-5" d="M212,32.5c0,3-4.25,5.5-9.5,5.5s-9.5-2.46-9.5-5.5"/><path class="cls-5" d="M231,32.5c0,3-4.25,5.5-9.5,5.5s-9.5-2.46-9.5-5.5"/><path class="cls-5" d="M250,32.5c0,3-4.25,5.5-9.5,5.5s-9.5-2.46-9.5-5.5"/><path class="cls-5" d="M269,32.5c0,3-4.25,5.5-9.5,5.5s-9.5-2.46-9.5-5.5"/><path class="cls-5" d="M288,32.5c0,3-4.25,5.5-9.5,5.5s-9.5-2.46-9.5-5.5"/><path class="cls-5" d="M41,47.5c0,3-4.25,5.5-9.5,5.5S22,50.54,22,47.5"/><path class="cls-5" d="M60,47.5c0,3-4.25,5.5-9.5,5.5S41,50.54,41,47.5"/><path class="cls-5" d="M79,47.5c0,3-4.25,5.5-9.5,5.5S60,50.54,60,47.5"/><path class="cls-5" d="M98,47.5c0,3-4.25,5.5-9.5,5.5S79,50.54,79,47.5"/><path class="cls-5" d="M117,47.5c0,3-4.25,5.5-9.5,5.5S98,50.54,98,47.5"/><path class="cls-5" d="M136,47.5c0,3-4.25,5.5-9.5,5.5s-9.5-2.46-9.5-5.5"/><path class="cls-5" d="M155,47.5c0,3-4.25,5.5-9.5,5.5s-9.5-2.46-9.5-5.5"/><path class="cls-5" d="M174,47.5c0,3-4.25,5.5-9.5,5.5s-9.5-2.46-9.5-5.5"/><path class="cls-5" d="M193,47.5c0,3-4.25,5.5-9.5,5.5s-9.5-2.46-9.5-5.5"/><path class="cls-5" d="M212,47.5c0,3-4.25,5.5-9.5,5.5s-9.5-2.46-9.5-5.5"/><path class="cls-5" d="M231,47.5c0,3-4.25,5.5-9.5,5.5s-9.5-2.46-9.5-5.5"/><path class="cls-5" d="M250,47.5c0,3-4.25,5.5-9.5,5.5s-9.5-2.46-9.5-5.5"/><path class="cls-5" d="M269,47.5c0,3-4.25,5.5-9.5,5.5s-9.5-2.46-9.5-5.5"/><path class="cls-5" d="M288,47.5c0,3-4.25,5.5-9.5,5.5s-9.5-2.46-9.5-5.5"/><path class="cls-5" d="M41,62.5c0,3-4.25,5.5-9.5,5.5S22,65.54,22,62.5"/><path class="cls-5" d="M60,62.5c0,3-4.25,5.5-9.5,5.5S41,65.54,41,62.5"/><path class="cls-5" d="M79,62.5c0,3-4.25,5.5-9.5,5.5S60,65.54,60,62.5"/><path class="cls-5" d="M98,62.5c0,3-4.25,5.5-9.5,5.5S79,65.54,79,62.5"/><path class="cls-5" d="M117,62.5c0,3-4.25,5.5-9.5,5.5S98,65.54,98,62.5"/><path class="cls-5" d="M136,62.5c0,3-4.25,5.5-9.5,5.5s-9.5-2.46-9.5-5.5"/><path class="cls-5" d="M155,62.5c0,3-4.25,5.5-9.5,5.5s-9.5-2.46-9.5-5.5"/><path class="cls-5" d="M174,62.5c0,3-4.25,5.5-9.5,5.5s-9.5-2.46-9.5-5.5"/><path class="cls-5" d="M193,62.5c0,3-4.25,5.5-9.5,5.5s-9.5-2.46-9.5-5.5"/><path class="cls-5" d="M212,62.5c0,3-4.25,5.5-9.5,5.5s-9.5-2.46-9.5-5.5"/><path class="cls-5" d="M231,62.5c0,3-4.25,5.5-9.5,5.5s-9.5-2.46-9.5-5.5"/><path class="cls-5" d="M250,62.5c0,3-4.25,5.5-9.5,5.5s-9.5-2.46-9.5-5.5"/><path class="cls-5" d="M269,62.5c0,3-4.25,5.5-9.5,5.5s-9.5-2.46-9.5-5.5"/><path class="cls-5" d="M288,62.5c0,3-4.25,5.5-9.5,5.5s-9.5-2.46-9.5-5.5"/><path class="cls-5" d="M41,77.5c0,3-4.25,5.5-9.5,5.5S22,80.54,22,77.5"/><path class="cls-5" d="M60,77.5c0,3-4.25,5.5-9.5,5.5S41,80.54,41,77.5"/><path class="cls-5" d="M79,77.5c0,3-4.25,5.5-9.5,5.5S60,80.54,60,77.5"/><path class="cls-5" d="M98,77.5c0,3-4.25,5.5-9.5,5.5S79,80.54,79,77.5"/><path class="cls-5" d="M117,77.5c0,3-4.25,5.5-9.5,5.5S98,80.54,98,77.5"/><path class="cls-5" d="M136,77.5c0,3-4.25,5.5-9.5,5.5s-9.5-2.46-9.5-5.5"/><path class="cls-5" d="M155,77.5c0,3-4.25,5.5-9.5,5.5s-9.5-2.46-9.5-5.5"/><path class="cls-5" d="M174,77.5c0,3-4.25,5.5-9.5,5.5s-9.5-2.46-9.5-5.5"/><path class="cls-5" d="M193,77.5c0,3-4.25,5.5-9.5,5.5s-9.5-2.46-9.5-5.5"/><path class="cls-5" d="M212,77.5c0,3-4.25,5.5-9.5,5.5s-9.5-2.46-9.5-5.5"/><path class="cls-5" d="M231,77.5c0,3-4.25,5.5-9.5,5.5s-9.5-2.46-9.5-5.5"/><path class="cls-5" d="M250,77.5c0,3-4.25,5.5-9.5,5.5s-9.5-2.46-9.5-5.5"/><path class="cls-5" d="M269,77.5c0,3-4.25,5.5-9.5,5.5s-9.5-2.46-9.5-5.5"/><path class="cls-5" d="M288,77.5c0,3-4.25,5.5-9.5,5.5s-9.5-2.46-9.5-5.5"/><path class="cls-5" d="M41,92.5c0,3-4.25,5.5-9.5,5.5S22,95.54,22,92.5"/><path class="cls-5" d="M60,92.5c0,3-4.25,5.5-9.5,5.5S41,95.54,41,92.5"/><path class="cls-5" d="M79,92.5c0,3-4.25,5.5-9.5,5.5S60,95.54,60,92.5"/><path class="cls-5" d="M98,92.5c0,3-4.25,5.5-9.5,5.5S79,95.54,79,92.5"/><path class="cls-5" d="M117,92.5c0,3-4.25,5.5-9.5,5.5S98,95.54,98,92.5"/><path class="cls-5" d="M136,92.5c0,3-4.25,5.5-9.5,5.5s-9.5-2.46-9.5-5.5"/><path class="cls-5" d="M155,92.5c0,3-4.25,5.5-9.5,5.5s-9.5-2.46-9.5-5.5"/><path class="cls-5" d="M174,92.5c0,3-4.25,5.5-9.5,5.5s-9.5-2.46-9.5-5.5"/><path class="cls-5" d="M193,92.5c0,3-4.25,5.5-9.5,5.5s-9.5-2.46-9.5-5.5"/><path class="cls-5" d="M212,92.5c0,3-4.25,5.5-9.5,5.5s-9.5-2.46-9.5-5.5"/><path class="cls-5" d="M231,92.5c0,3-4.25,5.5-9.5,5.5s-9.5-2.46-9.5-5.5"/><path class="cls-5" d="M250,92.5c0,3-4.25,5.5-9.5,5.5s-9.5-2.46-9.5-5.5"/><path class="cls-5" d="M269,92.5c0,3-4.25,5.5-9.5,5.5s-9.5-2.46-9.5-5.5"/><path class="cls-5" d="M288,92.5c0,3-4.25,5.5-9.5,5.5s-9.5-2.46-9.5-5.5"/><path class="cls-5" d="M41,107.5c0,3-4.25,5.5-9.5,5.5s-9.5-2.46-9.5-5.5"/><path class="cls-5" d="M60,107.5c0,3-4.25,5.5-9.5,5.5s-9.5-2.46-9.5-5.5"/><path class="cls-5" d="M79,107.5c0,3-4.25,5.5-9.5,5.5s-9.5-2.46-9.5-5.5"/><path class="cls-5" d="M98,107.5c0,3-4.25,5.5-9.5,5.5s-9.5-2.46-9.5-5.5"/><path class="cls-5" d="M117,107.5c0,3-4.25,5.5-9.5,5.5s-9.5-2.46-9.5-5.5"/><path class="cls-5" d="M136,107.5c0,3-4.25,5.5-9.5,5.5s-9.5-2.46-9.5-5.5"/><path class="cls-5" d="M155,107.5c0,3-4.25,5.5-9.5,5.5s-9.5-2.46-9.5-5.5"/><path class="cls-5" d="M174,107.5c0,3-4.25,5.5-9.5,5.5s-9.5-2.46-9.5-5.5"/><path class="cls-5" d="M193,107.5c0,3-4.25,5.5-9.5,5.5s-9.5-2.46-9.5-5.5"/><path class="cls-5" d="M212,107.5c0,3-4.25,5.5-9.5,5.5s-9.5-2.46-9.5-5.5"/><path class="cls-5" d="M231,107.5c0,3-4.25,5.5-9.5,5.5s-9.5-2.46-9.5-5.5"/><path class="cls-5" d="M250,107.5c0,3-4.25,5.5-9.5,5.5s-9.5-2.46-9.5-5.5"/><path class="cls-5" d="M269,107.5c0,3-4.25,5.5-9.5,5.5s-9.5-2.46-9.5-5.5"/><path class="cls-5" d="M288,107.5c0,3-4.25,5.5-9.5,5.5s-9.5-2.46-9.5-5.5"/><path class="cls-5" d="M41,122.5c0,3-4.25,5.5-9.5,5.5s-9.5-2.46-9.5-5.5"/><path class="cls-5" d="M60,122.5c0,3-4.25,5.5-9.5,5.5s-9.5-2.46-9.5-5.5"/><path class="cls-5" d="M79,122.5c0,3-4.25,5.5-9.5,5.5s-9.5-2.46-9.5-5.5"/><path class="cls-5" d="M98,122.5c0,3-4.25,5.5-9.5,5.5s-9.5-2.46-9.5-5.5"/><path class="cls-5" d="M117,122.5c0,3-4.25,5.5-9.5,5.5s-9.5-2.46-9.5-5.5"/><path class="cls-5" d="M136,122.5c0,3-4.25,5.5-9.5,5.5s-9.5-2.46-9.5-5.5"/><path class="cls-5" d="M155,122.5c0,3-4.25,5.5-9.5,5.5s-9.5-2.46-9.5-5.5"/><path class="cls-5" d="M174,122.5c0,3-4.25,5.5-9.5,5.5s-9.5-2.46-9.5-5.5"/><path class="cls-5" d="M193,122.5c0,3-4.25,5.5-9.5,5.5s-9.5-2.46-9.5-5.5"/><path class="cls-5" d="M212,122.5c0,3-4.25,5.5-9.5,5.5s-9.5-2.46-9.5-5.5"/><path class="cls-5" d="M231,122.5c0,3-4.25,5.5-9.5,5.5s-9.5-2.46-9.5-5.5"/><path class="cls-5" d="M250,122.5c0,3-4.25,5.5-9.5,5.5s-9.5-2.46-9.5-5.5"/><path class="cls-5" d="M269,122.5c0,3-4.25,5.5-9.5,5.5s-9.5-2.46-9.5-5.5"/><path class="cls-5" d="M288,122.5c0,3-4.25,5.5-9.5,5.5s-9.5-2.46-9.5-5.5"/><path class="cls-5" d="M41,137.5c0,3-4.25,5.5-9.5,5.5s-9.5-2.46-9.5-5.5"/><path class="cls-5" d="M60,137.5c0,3-4.25,5.5-9.5,5.5s-9.5-2.46-9.5-5.5"/><path class="cls-5" d="M79,137.5c0,3-4.25,5.5-9.5,5.5s-9.5-2.46-9.5-5.5"/><path class="cls-5" d="M98,137.5c0,3-4.25,5.5-9.5,5.5s-9.5-2.46-9.5-5.5"/><path class="cls-5" d="M117,137.5c0,3-4.25,5.5-9.5,5.5s-9.5-2.46-9.5-5.5"/><path class="cls-5" d="M136,137.5c0,3-4.25,5.5-9.5,5.5s-9.5-2.46-9.5-5.5"/><path class="cls-5" d="M155,137.5c0,3-4.25,5.5-9.5,5.5s-9.5-2.46-9.5-5.5"/><path class="cls-5" d="M174,137.5c0,3-4.25,5.5-9.5,5.5s-9.5-2.46-9.5-5.5"/><path class="cls-5" d="M193,137.5c0,3-4.25,5.5-9.5,5.5s-9.5-2.46-9.5-5.5"/><path class="cls-5" d="M212,137.5c0,3-4.25,5.5-9.5,5.5s-9.5-2.46-9.5-5.5"/><path class="cls-5" d="M231,137.5c0,3-4.25,5.5-9.5,5.5s-9.5-2.46-9.5-5.5"/><path class="cls-5" d="M250,137.5c0,3-4.25,5.5-9.5,5.5s-9.5-2.46-9.5-5.5"/><path class="cls-5" d="M269,137.5c0,3-4.25,5.5-9.5,5.5s-9.5-2.46-9.5-5.5"/><path class="cls-5" d="M288,137.5c0,3-4.25,5.5-9.5,5.5s-9.5-2.46-9.5-5.5"/><path class="cls-5" d="M41,152.5c0,3-4.25,5.5-9.5,5.5s-9.5-2.46-9.5-5.5"/><path class="cls-5" d="M60,152.5c0,3-4.25,5.5-9.5,5.5s-9.5-2.46-9.5-5.5"/><path class="cls-5" d="M79,152.5c0,3-4.25,5.5-9.5,5.5s-9.5-2.46-9.5-5.5"/><path class="cls-5" d="M98,152.5c0,3-4.25,5.5-9.5,5.5s-9.5-2.46-9.5-5.5"/><path class="cls-5" d="M117,152.5c0,3-4.25,5.5-9.5,5.5s-9.5-2.46-9.5-5.5"/><path class="cls-5" d="M136,152.5c0,3-4.25,5.5-9.5,5.5s-9.5-2.46-9.5-5.5"/><path class="cls-5" d="M155,152.5c0,3-4.25,5.5-9.5,5.5s-9.5-2.46-9.5-5.5"/><path class="cls-5" d="M174,152.5c0,3-4.25,5.5-9.5,5.5s-9.5-2.46-9.5-5.5"/><path class="cls-5" d="M193,152.5c0,3-4.25,5.5-9.5,5.5s-9.5-2.46-9.5-5.5"/><path class="cls-5" d="M212,152.5c0,3-4.25,5.5-9.5,5.5s-9.5-2.46-9.5-5.5"/><path class="cls-5" d="M231,152.5c0,3-4.25,5.5-9.5,5.5s-9.5-2.46-9.5-5.5"/><path class="cls-5" d="M250,152.5c0,3-4.25,5.5-9.5,5.5s-9.5-2.46-9.5-5.5"/><path class="cls-5" d="M269,152.5c0,3-4.25,5.5-9.5,5.5s-9.5-2.46-9.5-5.5"/><path class="cls-5" d="M288,152.5c0,3-4.25,5.5-9.5,5.5s-9.5-2.46-9.5-5.5"/><path class="cls-5" d="M41,167.5c0,3-4.25,5.5-9.5,5.5s-9.5-2.46-9.5-5.5"/><path class="cls-5" d="M60,167.5c0,3-4.25,5.5-9.5,5.5s-9.5-2.46-9.5-5.5"/><path class="cls-5" d="M79,167.5c0,3-4.25,5.5-9.5,5.5s-9.5-2.46-9.5-5.5"/><path class="cls-5" d="M98,167.5c0,3-4.25,5.5-9.5,5.5s-9.5-2.46-9.5-5.5"/><path class="cls-5" d="M117,167.5c0,3-4.25,5.5-9.5,5.5s-9.5-2.46-9.5-5.5"/><path class="cls-5" d="M136,167.5c0,3-4.25,5.5-9.5,5.5s-9.5-2.46-9.5-5.5"/><path class="cls-5" d="M155,167.5c0,3-4.25,5.5-9.5,5.5s-9.5-2.46-9.5-5.5"/><path class="cls-5" d="M174,167.5c0,3-4.25,5.5-9.5,5.5s-9.5-2.46-9.5-5.5"/><path class="cls-5" d="M193,167.5c0,3-4.25,5.5-9.5,5.5s-9.5-2.46-9.5-5.5"/><path class="cls-5" d="M212,167.5c0,3-4.25,5.5-9.5,5.5s-9.5-2.46-9.5-5.5"/><path class="cls-5" d="M231,167.5c0,3-4.25,5.5-9.5,5.5s-9.5-2.46-9.5-5.5"/><path class="cls-5" d="M250,167.5c0,3-4.25,5.5-9.5,5.5s-9.5-2.46-9.5-5.5"/><path class="cls-5" d="M269,167.5c0,3-4.25,5.5-9.5,5.5s-9.5-2.46-9.5-5.5"/><path class="cls-5" d="M288,167.5c0,3-4.25,5.5-9.5,5.5s-9.5-2.46-9.5-5.5"/><path class="cls-5" d="M41,182.5c0,3-4.25,5.5-9.5,5.5s-9.5-2.46-9.5-5.5"/><path class="cls-5" d="M60,182.5c0,3-4.25,5.5-9.5,5.5s-9.5-2.46-9.5-5.5"/><path class="cls-5" d="M79,182.5c0,3-4.25,5.5-9.5,5.5s-9.5-2.46-9.5-5.5"/><path class="cls-5" d="M98,182.5c0,3-4.25,5.5-9.5,5.5s-9.5-2.46-9.5-5.5"/><path class="cls-5" d="M117,182.5c0,3-4.25,5.5-9.5,5.5s-9.5-2.46-9.5-5.5"/><path class="cls-5" d="M136,182.5c0,3-4.25,5.5-9.5,5.5s-9.5-2.46-9.5-5.5"/><path class="cls-5" d="M155,182.5c0,3-4.25,5.5-9.5,5.5s-9.5-2.46-9.5-5.5"/><path class="cls-5" d="M174,182.5c0,3-4.25,5.5-9.5,5.5s-9.5-2.46-9.5-5.5"/><path class="cls-5" d="M193,182.5c0,3-4.25,5.5-9.5,5.5s-9.5-2.46-9.5-5.5"/><path class="cls-5" d="M212,182.5c0,3-4.25,5.5-9.5,5.5s-9.5-2.46-9.5-5.5"/><path class="cls-5" d="M231,182.5c0,3-4.25,5.5-9.5,5.5s-9.5-2.46-9.5-5.5"/><path class="cls-5" d="M250,182.5c0,3-4.25,5.5-9.5,5.5s-9.5-2.46-9.5-5.5"/><path class="cls-5" d="M269,182.5c0,3-4.25,5.5-9.5,5.5s-9.5-2.46-9.5-5.5"/><path class="cls-5" d="M288,182.5c0,3-4.25,5.5-9.5,5.5s-9.5-2.46-9.5-5.5"/><path class="cls-5" d="M41,197.5c0,3-4.25,5.5-9.5,5.5s-9.5-2.46-9.5-5.5"/><path class="cls-5" d="M60,197.5c0,3-4.25,5.5-9.5,5.5s-9.5-2.46-9.5-5.5"/><path class="cls-5" d="M79,197.5c0,3-4.25,5.5-9.5,5.5s-9.5-2.46-9.5-5.5"/><path class="cls-5" d="M98,197.5c0,3-4.25,5.5-9.5,5.5s-9.5-2.46-9.5-5.5"/><path class="cls-5" d="M117,197.5c0,3-4.25,5.5-9.5,5.5s-9.5-2.46-9.5-5.5"/><path class="cls-5" d="M136,197.5c0,3-4.25,5.5-9.5,5.5s-9.5-2.46-9.5-5.5"/><path class="cls-5" d="M155,197.5c0,3-4.25,5.5-9.5,5.5s-9.5-2.46-9.5-5.5"/><path class="cls-5" d="M174,197.5c0,3-4.25,5.5-9.5,5.5s-9.5-2.46-9.5-5.5"/><path class="cls-5" d="M193,197.5c0,3-4.25,5.5-9.5,5.5s-9.5-2.46-9.5-5.5"/><path class="cls-5" d="M212,197.5c0,3-4.25,5.5-9.5,5.5s-9.5-2.46-9.5-5.5"/><path class="cls-5" d="M231,197.5c0,3-4.25,5.5-9.5,5.5s-9.5-2.46-9.5-5.5"/><path class="cls-5" d="M250,197.5c0,3-4.25,5.5-9.5,5.5s-9.5-2.46-9.5-5.5"/><path class="cls-5" d="M269,197.5c0,3-4.25,5.5-9.5,5.5s-9.5-2.46-9.5-5.5"/><path class="cls-5" d="M288,197.5c0,3-4.25,5.5-9.5,5.5s-9.5-2.46-9.5-5.5"/><path class="cls-5" d="M41,212.5c0,3-4.25,5.5-9.5,5.5s-9.5-2.46-9.5-5.5"/><path class="cls-5" d="M60,212.5c0,3-4.25,5.5-9.5,5.5s-9.5-2.46-9.5-5.5"/><path class="cls-5" d="M79,212.5c0,3-4.25,5.5-9.5,5.5s-9.5-2.46-9.5-5.5"/><path class="cls-5" d="M98,212.5c0,3-4.25,5.5-9.5,5.5s-9.5-2.46-9.5-5.5"/><path class="cls-5" d="M117,212.5c0,3-4.25,5.5-9.5,5.5s-9.5-2.46-9.5-5.5"/><path class="cls-5" d="M136,212.5c0,3-4.25,5.5-9.5,5.5s-9.5-2.46-9.5-5.5"/><path class="cls-5" d="M155,212.5c0,3-4.25,5.5-9.5,5.5s-9.5-2.46-9.5-5.5"/><path class="cls-5" d="M174,212.5c0,3-4.25,5.5-9.5,5.5s-9.5-2.46-9.5-5.5"/><path class="cls-5" d="M193,212.5c0,3-4.25,5.5-9.5,5.5s-9.5-2.46-9.5-5.5"/><path class="cls-5" d="M212,212.5c0,3-4.25,5.5-9.5,5.5s-9.5-2.46-9.5-5.5"/><path class="cls-5" d="M231,212.5c0,3-4.25,5.5-9.5,5.5s-9.5-2.46-9.5-5.5"/><path class="cls-5" d="M250,212.5c0,3-4.25,5.5-9.5,5.5s-9.5-2.46-9.5-5.5"/><path class="cls-5" d="M269,212.5c0,3-4.25,5.5-9.5,5.5s-9.5-2.46-9.5-5.5"/><path class="cls-5" d="M288,212.5c0,3-4.25,5.5-9.5,5.5s-9.5-2.46-9.5-5.5"/><path class="cls-5" d="M41,227.5c0,3-4.25,5.5-9.5,5.5s-9.5-2.46-9.5-5.5"/><path class="cls-5" d="M60,227.5c0,3-4.25,5.5-9.5,5.5s-9.5-2.46-9.5-5.5"/><path class="cls-5" d="M79,227.5c0,3-4.25,5.5-9.5,5.5s-9.5-2.46-9.5-5.5"/><path class="cls-5" d="M98,227.5c0,3-4.25,5.5-9.5,5.5s-9.5-2.46-9.5-5.5"/><path class="cls-5" d="M117,227.5c0,3-4.25,5.5-9.5,5.5s-9.5-2.46-9.5-5.5"/><path class="cls-5" d="M136,227.5c0,3-4.25,5.5-9.5,5.5s-9.5-2.46-9.5-5.5"/><path class="cls-5" d="M155,227.5c0,3-4.25,5.5-9.5,5.5s-9.5-2.46-9.5-5.5"/><path class="cls-5" d="M174,227.5c0,3-4.25,5.5-9.5,5.5s-9.5-2.46-9.5-5.5"/><path class="cls-5" d="M193,227.5c0,3-4.25,5.5-9.5,5.5s-9.5-2.46-9.5-5.5"/><path class="cls-5" d="M212,227.5c0,3-4.25,5.5-9.5,5.5s-9.5-2.46-9.5-5.5"/><path class="cls-5" d="M231,227.5c0,3-4.25,5.5-9.5,5.5s-9.5-2.46-9.5-5.5"/><path class="cls-5" d="M240.5,233c-5.25,0-9.5-2.46-9.5-5.5"/><path class="cls-5" d="M269,227.5c0,3-4.25,5.5-9.5,5.5"/><path class="cls-5" d="M288,227.5c0,3-4.25,5.5-9.5,5.5s-9.5-2.46-9.5-5.5"/><path class="cls-5" d="M41,242.5c0,3-4.25,5.5-9.5,5.5s-9.5-2.46-9.5-5.5"/><path class="cls-5" d="M60,242.5c0,3-4.25,5.5-9.5,5.5s-9.5-2.46-9.5-5.5"/><path class="cls-5" d="M79,242.5c0,3-4.25,5.5-9.5,5.5s-9.5-2.46-9.5-5.5"/><path class="cls-5" d="M98,242.5c0,3-4.25,5.5-9.5,5.5s-9.5-2.46-9.5-5.5"/><path class="cls-5" d="M117,242.5c0,3-4.25,5.5-9.5,5.5s-9.5-2.46-9.5-5.5"/><path class="cls-5" d="M136,242.5c0,3-4.25,5.5-9.5,5.5s-9.5-2.46-9.5-5.5"/><path class="cls-5" d="M155,242.5c0,3-4.25,5.5-9.5,5.5s-9.5-2.46-9.5-5.5"/><path class="cls-5" d="M174,242.5c0,3-4.25,5.5-9.5,5.5s-9.5-2.46-9.5-5.5"/><path class="cls-5" d="M193,242.5c0,3-4.25,5.5-9.5,5.5s-9.5-2.46-9.5-5.5"/><path class="cls-5" d="M212,242.5c0,3-4.25,5.5-9.5,5.5s-9.5-2.46-9.5-5.5"/><path class="cls-5" d="M231,242.5c0,3-4.25,5.5-9.5,5.5s-9.5-2.46-9.5-5.5"/><path class="cls-5" d="M250,242.5c0,3-4.25,5.5-9.5,5.5s-9.5-2.46-9.5-5.5"/><path class="cls-5" d="M269,242.5c0,3-4.25,5.5-9.5,5.5s-9.5-2.46-9.5-5.5"/><path class="cls-5" d="M288,242.5c0,3-4.25,5.5-9.5,5.5s-9.5-2.46-9.5-5.5"/><path class="cls-5" d="M41,257.5c0,3-4.25,5.5-9.5,5.5s-9.5-2.46-9.5-5.5"/><path class="cls-5" d="M60,257.5c0,3-4.25,5.5-9.5,5.5s-9.5-2.46-9.5-5.5"/><path class="cls-5" d="M79,257.5c0,3-4.25,5.5-9.5,5.5s-9.5-2.46-9.5-5.5"/><path class="cls-5" d="M98,257.5c0,3-4.25,5.5-9.5,5.5s-9.5-2.46-9.5-5.5"/><path class="cls-5" d="M117,257.5c0,3-4.25,5.5-9.5,5.5s-9.5-2.46-9.5-5.5"/><path class="cls-5" d="M136,257.5c0,3-4.25,5.5-9.5,5.5s-9.5-2.46-9.5-5.5"/><path class="cls-5" d="M155,257.5c0,3-4.25,5.5-9.5,5.5s-9.5-2.46-9.5-5.5"/><path class="cls-5" d="M174,257.5c0,3-4.25,5.5-9.5,5.5s-9.5-2.46-9.5-5.5"/><path class="cls-5" d="M193,257.5c0,3-4.25,5.5-9.5,5.5s-9.5-2.46-9.5-5.5"/><path class="cls-5" d="M212,257.5c0,3-4.25,5.5-9.5,5.5s-9.5-2.46-9.5-5.5"/><path class="cls-5" d="M231,257.5c0,3-4.25,5.5-9.5,5.5s-9.5-2.46-9.5-5.5"/><path class="cls-5" d="M250,257.5c0,3-4.25,5.5-9.5,5.5s-9.5-2.46-9.5-5.5"/><path class="cls-5" d="M269,257.5c0,3-4.25,5.5-9.5,5.5s-9.5-2.46-9.5-5.5"/><path class="cls-5" d="M288,257.5c0,3-4.25,5.5-9.5,5.5s-9.5-2.46-9.5-5.5"/><line class="cls-6" x1="247.64" y1="231.25" x2="245.97" y2="242.72"/><path class="cls-6" d="M252.18,227.62v-1.1a.53.53,0,0,0-.53-.53h-2.29a.53.53,0,0,0-.53.53v1.1"/><line class="cls-6" x1="255.04" y1="242.72" x2="253.37" y2="231.25"/><line class="cls-6" x1="246.45" y1="239.14" x2="254.81" y2="239.14"/><line class="cls-6" x1="246.45" y1="239.13" x2="255.04" y2="242.72"/><line class="cls-6" x1="245.96" y1="242.7" x2="254.57" y2="239.15"/><rect class="cls-7" x="245.01" y="242.84" width="10.99" height="3.1" rx="1.55" ry="1.55"/><rect class="cls-7" x="247.16" y="228.15" width="6.45" height="3.1" rx="1.55" ry="1.55"/><line class="cls-8" x1="247.01" y1="235.6" x2="253.73" y2="235.6"/><path class="cls-9" d="M256.23,155.29a4.51,4.51,0,0,0,1.77-3.63v-1.14a.39.39,0,0,0-.39-.39L211,149.9h0a8.73,8.73,0,0,0,4.2,5.57"/><path class="cls-10" d="M237.12,147.21h17.82a1.05,1.05,0,0,0,.91-1.58l-18.35-31.78a1,1,0,0,0-1.09-.51"/><path class="cls-9" d="M237,113.21c-.16,0-.32.11-.4.35l-12.18,32.6c-.17.47,0,1,.39,1h12.34"/><path class="cls-9" d="M237.12,147.21h18.58a.7.7,0,0,0,.6-1l-18.82-32.6a.69.69,0,0,0-.58-.35"/><path class="cls-9" d="M80.23,62.29A4.51,4.51,0,0,0,82,58.67V57.53a.39.39,0,0,0-.39-.39L35,56.9h0a8.73,8.73,0,0,0,4.2,5.57"/><path class="cls-10" d="M61.12,54.21H78.95a1.05,1.05,0,0,0,.91-1.58L61.51,20.85a1,1,0,0,0-1.09-.51"/><path class="cls-9" d="M61,20.21c-.16,0-.32.11-.4.35L48.39,53.16c-.17.47,0,1,.39,1H61.12"/><path class="cls-9" d="M61.12,54.21H79.71a.7.7,0,0,0,.6-1L61.49,20.56a.69.69,0,0,0-.58-.35"/><line class="cls-6" x1="51.64" y1="112.25" x2="49.97" y2="123.72"/><path class="cls-6" d="M56.18,108.62v-1.1a.53.53,0,0,0-.53-.53H53.36a.53.53,0,0,0-.53.53v1.1"/><line class="cls-6" x1="59.04" y1="123.72" x2="57.37" y2="112.25"/><line class="cls-6" x1="50.45" y1="120.14" x2="58.81" y2="120.14"/><line class="cls-6" x1="50.45" y1="120.13" x2="59.04" y2="123.72"/><line class="cls-6" x1="49.96" y1="123.7" x2="58.57" y2="120.15"/><rect class="cls-7" x="49.01" y="123.84" width="10.99" height="3.1" rx="1.55" ry="1.55"/><rect class="cls-7" x="51.16" y="109.15" width="6.45" height="3.1" rx="1.55" ry="1.55"/><line class="cls-8" x1="51.01" y1="116.6" x2="57.73" y2="116.6"/><line class="cls-6" x1="176.64" y1="52.25" x2="174.97" y2="63.72"/><path class="cls-6" d="M181.18,48.62v-1.1a.53.53,0,0,0-.53-.53h-2.29a.53.53,0,0,0-.53.53v1.1"/><line class="cls-6" x1="184.04" y1="63.72" x2="182.37" y2="52.25"/><line class="cls-6" x1="175.45" y1="60.14" x2="183.81" y2="60.14"/><line class="cls-6" x1="175.45" y1="60.13" x2="184.04" y2="63.72"/><line class="cls-6" x1="174.96" y1="63.7" x2="183.57" y2="60.15"/><rect class="cls-7" x="174.01" y="63.84" width="10.99" height="3.1" rx="1.55" ry="1.55"/><rect class="cls-7" x="176.16" y="49.15" width="6.45" height="3.1" rx="1.55" ry="1.55"/><line class="cls-8" x1="176.01" y1="56.6" x2="182.73" y2="56.6"/><g class="cls-11"><path class="cls-12" d="M133.75,228A14.25,14.25,0,1,0,148,242.25,14.25,14.25,0,0,0,133.75,228Zm0,23a8.72,8.72,0,1,1,8.72-8.72A8.72,8.72,0,0,1,133.75,251Z"/><polygon class="cls-7" points="147.47 246.12 141.92 244.63 140.15 247.86 144.55 251.55 147.47 246.12"/><polygon class="cls-7" points="138.16 234.97 141.04 230 145.53 234.23 140.82 237.52 138.16 234.97"/><polygon class="cls-7" points="125.82 239.17 120.42 237.2 123.81 232.04 127.87 236.1 125.82 239.17"/><polygon class="cls-7" points="128.72 249.11 125.42 253.82 121.32 249.21 126.29 246.34 128.72 249.11"/></g><g class="cls-13"><path class="cls-12" d="M244.75,46A14.25,14.25,0,1,0,259,60.25,14.25,14.25,0,0,0,244.75,46Zm0,23a8.72,8.72,0,1,1,8.72-8.72A8.72,8.72,0,0,1,244.75,69Z"/><polygon class="cls-7" points="258.47 64.12 252.92 62.63 251.15 65.86 255.55 69.55 258.47 64.12"/><polygon class="cls-7" points="249.16 52.98 252.04 48 256.53 52.23 251.82 55.52 249.16 52.98"/><polygon class="cls-7" points="236.82 57.17 231.42 55.2 234.81 50.04 238.87 54.1 236.82 57.17"/><polygon class="cls-7" points="239.72 67.11 236.42 71.82 232.32 67.21 237.29 64.34 239.72 67.11"/></g></g><g class="cls-14"><rect class="cls-15" x="75.38" y="75.61" width="176.93" height="28.31"/><rect class="cls-15" x="75.38" y="188.85" width="176.93" height="28.31"/><rect class="cls-16" x="75.38" y="103.92" width="176.93" height="84.93"/></g><path class="cls-9" d="M95.23,215.29A4.51,4.51,0,0,0,97,211.67v-1.14a.39.39,0,0,0-.39-.39L50,209.9h0a8.73,8.73,0,0,0,4.2,5.57"/><path class="cls-9" d="M76.12,207.21H93.95a1.05,1.05,0,0,0,.91-1.58L76.51,173.85a1,1,0,0,0-1.09-.51"/><path class="cls-9" d="M76,173.21c-.16,0-.32.11-.4.35l-12.18,32.6c-.17.47,0,1,.39,1H76.12"/><path class="cls-9" d="M76.12,207.21H94.71a.7.7,0,0,0,.6-1l-18.82-32.6a.69.69,0,0,0-.58-.35"/></g></g></svg>