<svg xmlns="http://www.w3.org/2000/svg" xmlns:xlink="http://www.w3.org/1999/xlink" viewBox="0 0 310 342"><defs><style>.cls-1,.cls-4,.cls-5,.cls-7{fill:none;}.cls-11,.cls-2,.cls-8{fill:#fff;}.cls-3{clip-path:url(#clip-path);}.cls-11,.cls-4,.cls-5,.cls-6,.cls-7,.cls-8,.cls-9{stroke:#ccc;}.cls-4,.cls-7{stroke-linecap:round;}.cls-11,.cls-4,.cls-5,.cls-6,.cls-7{stroke-miterlimit:10;}.cls-4,.cls-8,.cls-9{stroke-width:2px;}.cls-6{fill:#ccc;}.cls-8,.cls-9{stroke-linejoin:round;}.cls-9{fill:#f7df75;}.cls-10{clip-path:url(#clip-path-2);}.cls-12{clip-path:url(#clip-path-3);}.cls-13{font-size:18px;fill:#414042;font-family:SanFranciscoDisplay-Semibold, San Francisco Display;font-weight:700;}.cls-14{fill:#fcc062;}.cls-15{fill:#722c36;}</style><clipPath id="clip-path"><rect class="cls-1" x="35" y="32" width="240" height="240" transform="translate(3 307) rotate(-90)"/></clipPath><clipPath id="clip-path-2"><polygon class="cls-1" points="116 254 112.5 231.5 147.5 225.5 150 254 133.5 252.5 131.5 245.5 127 254 116 254"/></clipPath><clipPath id="clip-path-3"><polygon class="cls-1" points="227 72 223.5 49.5 258.5 43.5 261 74 244.5 70.5 242 73 237 74 227 72"/></clipPath></defs><title>Card 4</title><g id="Layer_2" data-name="Layer 2"><g id="Services_Icon" data-name="Services Icon"><rect class="cls-2" width="310" height="342"/><g class="cls-3"><path class="cls-4" d="M41,38.5c0,3-4.25,5.5-9.5,5.5S22,41.54,22,38.5"/><path class="cls-4" d="M60,38.5c0,3-4.25,5.5-9.5,5.5S41,41.54,41,38.5"/><path class="cls-4" d="M79,38.5c0,3-4.25,5.5-9.5,5.5S60,41.54,60,38.5"/><path class="cls-4" d="M98,38.5c0,3-4.25,5.5-9.5,5.5S79,41.54,79,38.5"/><path class="cls-4" d="M117,38.5c0,3-4.25,5.5-9.5,5.5S98,41.54,98,38.5"/><path class="cls-4" d="M136,38.5c0,3-4.25,5.5-9.5,5.5s-9.5-2.46-9.5-5.5"/><path class="cls-4" d="M155,38.5c0,3-4.25,5.5-9.5,5.5s-9.5-2.46-9.5-5.5"/><path class="cls-4" d="M174,38.5c0,3-4.25,5.5-9.5,5.5s-9.5-2.46-9.5-5.5"/><path class="cls-4" d="M193,38.5c0,3-4.25,5.5-9.5,5.5s-9.5-2.46-9.5-5.5"/><path class="cls-4" d="M212,38.5c0,3-4.25,5.5-9.5,5.5s-9.5-2.46-9.5-5.5"/><path class="cls-4" d="M231,38.5c0,3-4.25,5.5-9.5,5.5s-9.5-2.46-9.5-5.5"/><path class="cls-4" d="M250,38.5c0,3-4.25,5.5-9.5,5.5s-9.5-2.46-9.5-5.5"/><path class="cls-4" d="M269,38.5c0,3-4.25,5.5-9.5,5.5s-9.5-2.46-9.5-5.5"/><path class="cls-4" d="M288,38.5c0,3-4.25,5.5-9.5,5.5s-9.5-2.46-9.5-5.5"/><path class="cls-4" d="M41,53.5c0,3-4.25,5.5-9.5,5.5S22,56.54,22,53.5"/><path class="cls-4" d="M60,53.5c0,3-4.25,5.5-9.5,5.5S41,56.54,41,53.5"/><path class="cls-4" d="M79,53.5c0,3-4.25,5.5-9.5,5.5S60,56.54,60,53.5"/><path class="cls-4" d="M98,53.5c0,3-4.25,5.5-9.5,5.5S79,56.54,79,53.5"/><path class="cls-4" d="M117,53.5c0,3-4.25,5.5-9.5,5.5S98,56.54,98,53.5"/><path class="cls-4" d="M136,53.5c0,3-4.25,5.5-9.5,5.5s-9.5-2.46-9.5-5.5"/><path class="cls-4" d="M155,53.5c0,3-4.25,5.5-9.5,5.5s-9.5-2.46-9.5-5.5"/><path class="cls-4" d="M174,53.5c0,3-4.25,5.5-9.5,5.5s-9.5-2.46-9.5-5.5"/><path class="cls-4" d="M193,53.5c0,3-4.25,5.5-9.5,5.5s-9.5-2.46-9.5-5.5"/><path class="cls-4" d="M212,53.5c0,3-4.25,5.5-9.5,5.5s-9.5-2.46-9.5-5.5"/><path class="cls-4" d="M231,53.5c0,3-4.25,5.5-9.5,5.5s-9.5-2.46-9.5-5.5"/><path class="cls-4" d="M250,53.5c0,3-4.25,5.5-9.5,5.5s-9.5-2.46-9.5-5.5"/><path class="cls-4" d="M269,53.5c0,3-4.25,5.5-9.5,5.5s-9.5-2.46-9.5-5.5"/><path class="cls-4" d="M288,53.5c0,3-4.25,5.5-9.5,5.5s-9.5-2.46-9.5-5.5"/><path class="cls-4" d="M41,68.5c0,3-4.25,5.5-9.5,5.5S22,71.54,22,68.5"/><path class="cls-4" d="M60,68.5c0,3-4.25,5.5-9.5,5.5S41,71.54,41,68.5"/><path class="cls-4" d="M79,68.5c0,3-4.25,5.5-9.5,5.5S60,71.54,60,68.5"/><path class="cls-4" d="M98,68.5c0,3-4.25,5.5-9.5,5.5S79,71.54,79,68.5"/><path class="cls-4" d="M117,68.5c0,3-4.25,5.5-9.5,5.5S98,71.54,98,68.5"/><path class="cls-4" d="M136,68.5c0,3-4.25,5.5-9.5,5.5s-9.5-2.46-9.5-5.5"/><path class="cls-4" d="M155,68.5c0,3-4.25,5.5-9.5,5.5s-9.5-2.46-9.5-5.5"/><path class="cls-4" d="M174,68.5c0,3-4.25,5.5-9.5,5.5s-9.5-2.46-9.5-5.5"/><path class="cls-4" d="M193,68.5c0,3-4.25,5.5-9.5,5.5s-9.5-2.46-9.5-5.5"/><path class="cls-4" d="M212,68.5c0,3-4.25,5.5-9.5,5.5s-9.5-2.46-9.5-5.5"/><path class="cls-4" d="M231,68.5c0,3-4.25,5.5-9.5,5.5s-9.5-2.46-9.5-5.5"/><path class="cls-4" d="M250,68.5c0,3-4.25,5.5-9.5,5.5s-9.5-2.46-9.5-5.5"/><path class="cls-4" d="M269,68.5c0,3-4.25,5.5-9.5,5.5s-9.5-2.46-9.5-5.5"/><path class="cls-4" d="M288,68.5c0,3-4.25,5.5-9.5,5.5s-9.5-2.46-9.5-5.5"/><path class="cls-4" d="M41,83.5c0,3-4.25,5.5-9.5,5.5S22,86.54,22,83.5"/><path class="cls-4" d="M60,83.5c0,3-4.25,5.5-9.5,5.5S41,86.54,41,83.5"/><path class="cls-4" d="M79,83.5c0,3-4.25,5.5-9.5,5.5S60,86.54,60,83.5"/><path class="cls-4" d="M98,83.5c0,3-4.25,5.5-9.5,5.5S79,86.54,79,83.5"/><path class="cls-4" d="M117,83.5c0,3-4.25,5.5-9.5,5.5S98,86.54,98,83.5"/><path class="cls-4" d="M136,83.5c0,3-4.25,5.5-9.5,5.5s-9.5-2.46-9.5-5.5"/><path class="cls-4" d="M155,83.5c0,3-4.25,5.5-9.5,5.5s-9.5-2.46-9.5-5.5"/><path class="cls-4" d="M174,83.5c0,3-4.25,5.5-9.5,5.5s-9.5-2.46-9.5-5.5"/><path class="cls-4" d="M193,83.5c0,3-4.25,5.5-9.5,5.5s-9.5-2.46-9.5-5.5"/><path class="cls-4" d="M212,83.5c0,3-4.25,5.5-9.5,5.5s-9.5-2.46-9.5-5.5"/><path class="cls-4" d="M231,83.5c0,3-4.25,5.5-9.5,5.5s-9.5-2.46-9.5-5.5"/><path class="cls-4" d="M250,83.5c0,3-4.25,5.5-9.5,5.5s-9.5-2.46-9.5-5.5"/><path class="cls-4" d="M269,83.5c0,3-4.25,5.5-9.5,5.5s-9.5-2.46-9.5-5.5"/><path class="cls-4" d="M288,83.5c0,3-4.25,5.5-9.5,5.5s-9.5-2.46-9.5-5.5"/><path class="cls-4" d="M41,98.5c0,3-4.25,5.5-9.5,5.5S22,101.54,22,98.5"/><path class="cls-4" d="M60,98.5c0,3-4.25,5.5-9.5,5.5S41,101.54,41,98.5"/><path class="cls-4" d="M79,98.5c0,3-4.25,5.5-9.5,5.5S60,101.54,60,98.5"/><path class="cls-4" d="M98,98.5c0,3-4.25,5.5-9.5,5.5S79,101.54,79,98.5"/><path class="cls-4" d="M117,98.5c0,3-4.25,5.5-9.5,5.5S98,101.54,98,98.5"/><path class="cls-4" d="M136,98.5c0,3-4.25,5.5-9.5,5.5s-9.5-2.46-9.5-5.5"/><path class="cls-4" d="M155,98.5c0,3-4.25,5.5-9.5,5.5s-9.5-2.46-9.5-5.5"/><path class="cls-4" d="M174,98.5c0,3-4.25,5.5-9.5,5.5s-9.5-2.46-9.5-5.5"/><path class="cls-4" d="M193,98.5c0,3-4.25,5.5-9.5,5.5s-9.5-2.46-9.5-5.5"/><path class="cls-4" d="M212,98.5c0,3-4.25,5.5-9.5,5.5s-9.5-2.46-9.5-5.5"/><path class="cls-4" d="M231,98.5c0,3-4.25,5.5-9.5,5.5s-9.5-2.46-9.5-5.5"/><path class="cls-4" d="M250,98.5c0,3-4.25,5.5-9.5,5.5s-9.5-2.46-9.5-5.5"/><path class="cls-4" d="M269,98.5c0,3-4.25,5.5-9.5,5.5s-9.5-2.46-9.5-5.5"/><path class="cls-4" d="M288,98.5c0,3-4.25,5.5-9.5,5.5s-9.5-2.46-9.5-5.5"/><path class="cls-4" d="M41,113.5c0,3-4.25,5.5-9.5,5.5s-9.5-2.46-9.5-5.5"/><path class="cls-4" d="M60,113.5c0,3-4.25,5.5-9.5,5.5s-9.5-2.46-9.5-5.5"/><path class="cls-4" d="M79,113.5c0,3-4.25,5.5-9.5,5.5s-9.5-2.46-9.5-5.5"/><path class="cls-4" d="M98,113.5c0,3-4.25,5.5-9.5,5.5s-9.5-2.46-9.5-5.5"/><path class="cls-4" d="M117,113.5c0,3-4.25,5.5-9.5,5.5s-9.5-2.46-9.5-5.5"/><path class="cls-4" d="M136,113.5c0,3-4.25,5.5-9.5,5.5s-9.5-2.46-9.5-5.5"/><path class="cls-4" d="M155,113.5c0,3-4.25,5.5-9.5,5.5s-9.5-2.46-9.5-5.5"/><path class="cls-4" d="M174,113.5c0,3-4.25,5.5-9.5,5.5s-9.5-2.46-9.5-5.5"/><path class="cls-4" d="M193,113.5c0,3-4.25,5.5-9.5,5.5s-9.5-2.46-9.5-5.5"/><path class="cls-4" d="M212,113.5c0,3-4.25,5.5-9.5,5.5s-9.5-2.46-9.5-5.5"/><path class="cls-4" d="M231,113.5c0,3-4.25,5.5-9.5,5.5s-9.5-2.46-9.5-5.5"/><path class="cls-4" d="M250,113.5c0,3-4.25,5.5-9.5,5.5s-9.5-2.46-9.5-5.5"/><path class="cls-4" d="M269,113.5c0,3-4.25,5.5-9.5,5.5s-9.5-2.46-9.5-5.5"/><path class="cls-4" d="M288,113.5c0,3-4.25,5.5-9.5,5.5s-9.5-2.46-9.5-5.5"/><path class="cls-4" d="M41,128.5c0,3-4.25,5.5-9.5,5.5s-9.5-2.46-9.5-5.5"/><path class="cls-4" d="M60,128.5c0,3-4.25,5.5-9.5,5.5s-9.5-2.46-9.5-5.5"/><path class="cls-4" d="M79,128.5c0,3-4.25,5.5-9.5,5.5s-9.5-2.46-9.5-5.5"/><path class="cls-4" d="M98,128.5c0,3-4.25,5.5-9.5,5.5s-9.5-2.46-9.5-5.5"/><path class="cls-4" d="M117,128.5c0,3-4.25,5.5-9.5,5.5s-9.5-2.46-9.5-5.5"/><path class="cls-4" d="M136,128.5c0,3-4.25,5.5-9.5,5.5s-9.5-2.46-9.5-5.5"/><path class="cls-4" d="M155,128.5c0,3-4.25,5.5-9.5,5.5s-9.5-2.46-9.5-5.5"/><path class="cls-4" d="M174,128.5c0,3-4.25,5.5-9.5,5.5s-9.5-2.46-9.5-5.5"/><path class="cls-4" d="M193,128.5c0,3-4.25,5.5-9.5,5.5s-9.5-2.46-9.5-5.5"/><path class="cls-4" d="M212,128.5c0,3-4.25,5.5-9.5,5.5s-9.5-2.46-9.5-5.5"/><path class="cls-4" d="M231,128.5c0,3-4.25,5.5-9.5,5.5s-9.5-2.46-9.5-5.5"/><path class="cls-4" d="M250,128.5c0,3-4.25,5.5-9.5,5.5s-9.5-2.46-9.5-5.5"/><path class="cls-4" d="M269,128.5c0,3-4.25,5.5-9.5,5.5s-9.5-2.46-9.5-5.5"/><path class="cls-4" d="M288,128.5c0,3-4.25,5.5-9.5,5.5s-9.5-2.46-9.5-5.5"/><path class="cls-4" d="M41,143.5c0,3-4.25,5.5-9.5,5.5s-9.5-2.46-9.5-5.5"/><path class="cls-4" d="M60,143.5c0,3-4.25,5.5-9.5,5.5s-9.5-2.46-9.5-5.5"/><path class="cls-4" d="M79,143.5c0,3-4.25,5.5-9.5,5.5s-9.5-2.46-9.5-5.5"/><path class="cls-4" d="M98,143.5c0,3-4.25,5.5-9.5,5.5s-9.5-2.46-9.5-5.5"/><path class="cls-4" d="M117,143.5c0,3-4.25,5.5-9.5,5.5s-9.5-2.46-9.5-5.5"/><path class="cls-4" d="M136,143.5c0,3-4.25,5.5-9.5,5.5s-9.5-2.46-9.5-5.5"/><path class="cls-4" d="M155,143.5c0,3-4.25,5.5-9.5,5.5s-9.5-2.46-9.5-5.5"/><path class="cls-4" d="M174,143.5c0,3-4.25,5.5-9.5,5.5s-9.5-2.46-9.5-5.5"/><path class="cls-4" d="M193,143.5c0,3-4.25,5.5-9.5,5.5s-9.5-2.46-9.5-5.5"/><path class="cls-4" d="M212,143.5c0,3-4.25,5.5-9.5,5.5s-9.5-2.46-9.5-5.5"/><path class="cls-4" d="M231,143.5c0,3-4.25,5.5-9.5,5.5s-9.5-2.46-9.5-5.5"/><path class="cls-4" d="M250,143.5c0,3-4.25,5.5-9.5,5.5s-9.5-2.46-9.5-5.5"/><path class="cls-4" d="M269,143.5c0,3-4.25,5.5-9.5,5.5s-9.5-2.46-9.5-5.5"/><path class="cls-4" d="M288,143.5c0,3-4.25,5.5-9.5,5.5s-9.5-2.46-9.5-5.5"/><path class="cls-4" d="M41,158.5c0,3-4.25,5.5-9.5,5.5s-9.5-2.46-9.5-5.5"/><path class="cls-4" d="M60,158.5c0,3-4.25,5.5-9.5,5.5s-9.5-2.46-9.5-5.5"/><path class="cls-4" d="M79,158.5c0,3-4.25,5.5-9.5,5.5s-9.5-2.46-9.5-5.5"/><path class="cls-4" d="M98,158.5c0,3-4.25,5.5-9.5,5.5s-9.5-2.46-9.5-5.5"/><path class="cls-4" d="M117,158.5c0,3-4.25,5.5-9.5,5.5s-9.5-2.46-9.5-5.5"/><path class="cls-4" d="M136,158.5c0,3-4.25,5.5-9.5,5.5s-9.5-2.46-9.5-5.5"/><path class="cls-4" d="M155,158.5c0,3-4.25,5.5-9.5,5.5s-9.5-2.46-9.5-5.5"/><path class="cls-4" d="M174,158.5c0,3-4.25,5.5-9.5,5.5s-9.5-2.46-9.5-5.5"/><path class="cls-4" d="M193,158.5c0,3-4.25,5.5-9.5,5.5s-9.5-2.46-9.5-5.5"/><path class="cls-4" d="M212,158.5c0,3-4.25,5.5-9.5,5.5s-9.5-2.46-9.5-5.5"/><path class="cls-4" d="M231,158.5c0,3-4.25,5.5-9.5,5.5s-9.5-2.46-9.5-5.5"/><path class="cls-4" d="M250,158.5c0,3-4.25,5.5-9.5,5.5s-9.5-2.46-9.5-5.5"/><path class="cls-4" d="M269,158.5c0,3-4.25,5.5-9.5,5.5s-9.5-2.46-9.5-5.5"/><path class="cls-4" d="M288,158.5c0,3-4.25,5.5-9.5,5.5s-9.5-2.46-9.5-5.5"/><path class="cls-4" d="M41,173.5c0,3-4.25,5.5-9.5,5.5s-9.5-2.46-9.5-5.5"/><path class="cls-4" d="M60,173.5c0,3-4.25,5.5-9.5,5.5s-9.5-2.46-9.5-5.5"/><path class="cls-4" d="M79,173.5c0,3-4.25,5.5-9.5,5.5s-9.5-2.46-9.5-5.5"/><path class="cls-4" d="M98,173.5c0,3-4.25,5.5-9.5,5.5s-9.5-2.46-9.5-5.5"/><path class="cls-4" d="M117,173.5c0,3-4.25,5.5-9.5,5.5s-9.5-2.46-9.5-5.5"/><path class="cls-4" d="M136,173.5c0,3-4.25,5.5-9.5,5.5s-9.5-2.46-9.5-5.5"/><path class="cls-4" d="M155,173.5c0,3-4.25,5.5-9.5,5.5s-9.5-2.46-9.5-5.5"/><path class="cls-4" d="M174,173.5c0,3-4.25,5.5-9.5,5.5s-9.5-2.46-9.5-5.5"/><path class="cls-4" d="M193,173.5c0,3-4.25,5.5-9.5,5.5s-9.5-2.46-9.5-5.5"/><path class="cls-4" d="M212,173.5c0,3-4.25,5.5-9.5,5.5s-9.5-2.46-9.5-5.5"/><path class="cls-4" d="M231,173.5c0,3-4.25,5.5-9.5,5.5s-9.5-2.46-9.5-5.5"/><path class="cls-4" d="M250,173.5c0,3-4.25,5.5-9.5,5.5s-9.5-2.46-9.5-5.5"/><path class="cls-4" d="M269,173.5c0,3-4.25,5.5-9.5,5.5s-9.5-2.46-9.5-5.5"/><path class="cls-4" d="M288,173.5c0,3-4.25,5.5-9.5,5.5s-9.5-2.46-9.5-5.5"/><path class="cls-4" d="M41,188.5c0,3-4.25,5.5-9.5,5.5s-9.5-2.46-9.5-5.5"/><path class="cls-4" d="M60,188.5c0,3-4.25,5.5-9.5,5.5s-9.5-2.46-9.5-5.5"/><path class="cls-4" d="M79,188.5c0,3-4.25,5.5-9.5,5.5s-9.5-2.46-9.5-5.5"/><path class="cls-4" d="M98,188.5c0,3-4.25,5.5-9.5,5.5s-9.5-2.46-9.5-5.5"/><path class="cls-4" d="M117,188.5c0,3-4.25,5.5-9.5,5.5s-9.5-2.46-9.5-5.5"/><path class="cls-4" d="M136,188.5c0,3-4.25,5.5-9.5,5.5s-9.5-2.46-9.5-5.5"/><path class="cls-4" d="M155,188.5c0,3-4.25,5.5-9.5,5.5s-9.5-2.46-9.5-5.5"/><path class="cls-4" d="M174,188.5c0,3-4.25,5.5-9.5,5.5s-9.5-2.46-9.5-5.5"/><path class="cls-4" d="M193,188.5c0,3-4.25,5.5-9.5,5.5s-9.5-2.46-9.5-5.5"/><path class="cls-4" d="M212,188.5c0,3-4.25,5.5-9.5,5.5s-9.5-2.46-9.5-5.5"/><path class="cls-4" d="M231,188.5c0,3-4.25,5.5-9.5,5.5s-9.5-2.46-9.5-5.5"/><path class="cls-4" d="M250,188.5c0,3-4.25,5.5-9.5,5.5s-9.5-2.46-9.5-5.5"/><path class="cls-4" d="M269,188.5c0,3-4.25,5.5-9.5,5.5s-9.5-2.46-9.5-5.5"/><path class="cls-4" d="M288,188.5c0,3-4.25,5.5-9.5,5.5s-9.5-2.46-9.5-5.5"/><path class="cls-4" d="M41,203.5c0,3-4.25,5.5-9.5,5.5s-9.5-2.46-9.5-5.5"/><path class="cls-4" d="M60,203.5c0,3-4.25,5.5-9.5,5.5s-9.5-2.46-9.5-5.5"/><path class="cls-4" d="M79,203.5c0,3-4.25,5.5-9.5,5.5s-9.5-2.46-9.5-5.5"/><path class="cls-4" d="M98,203.5c0,3-4.25,5.5-9.5,5.5s-9.5-2.46-9.5-5.5"/><path class="cls-4" d="M117,203.5c0,3-4.25,5.5-9.5,5.5s-9.5-2.46-9.5-5.5"/><path class="cls-4" d="M136,203.5c0,3-4.25,5.5-9.5,5.5s-9.5-2.46-9.5-5.5"/><path class="cls-4" d="M155,203.5c0,3-4.25,5.5-9.5,5.5s-9.5-2.46-9.5-5.5"/><path class="cls-4" d="M174,203.5c0,3-4.25,5.5-9.5,5.5s-9.5-2.46-9.5-5.5"/><path class="cls-4" d="M193,203.5c0,3-4.25,5.5-9.5,5.5s-9.5-2.46-9.5-5.5"/><path class="cls-4" d="M212,203.5c0,3-4.25,5.5-9.5,5.5s-9.5-2.46-9.5-5.5"/><path class="cls-4" d="M231,203.5c0,3-4.25,5.5-9.5,5.5s-9.5-2.46-9.5-5.5"/><path class="cls-4" d="M250,203.5c0,3-4.25,5.5-9.5,5.5s-9.5-2.46-9.5-5.5"/><path class="cls-4" d="M269,203.5c0,3-4.25,5.5-9.5,5.5s-9.5-2.46-9.5-5.5"/><path class="cls-4" d="M288,203.5c0,3-4.25,5.5-9.5,5.5s-9.5-2.46-9.5-5.5"/><path class="cls-4" d="M41,218.5c0,3-4.25,5.5-9.5,5.5s-9.5-2.46-9.5-5.5"/><path class="cls-4" d="M60,218.5c0,3-4.25,5.5-9.5,5.5s-9.5-2.46-9.5-5.5"/><path class="cls-4" d="M79,218.5c0,3-4.25,5.5-9.5,5.5s-9.5-2.46-9.5-5.5"/><path class="cls-4" d="M98,218.5c0,3-4.25,5.5-9.5,5.5s-9.5-2.46-9.5-5.5"/><path class="cls-4" d="M117,218.5c0,3-4.25,5.5-9.5,5.5s-9.5-2.46-9.5-5.5"/><path class="cls-4" d="M136,218.5c0,3-4.25,5.5-9.5,5.5s-9.5-2.46-9.5-5.5"/><path class="cls-4" d="M155,218.5c0,3-4.25,5.5-9.5,5.5s-9.5-2.46-9.5-5.5"/><path class="cls-4" d="M174,218.5c0,3-4.25,5.5-9.5,5.5s-9.5-2.46-9.5-5.5"/><path class="cls-4" d="M193,218.5c0,3-4.25,5.5-9.5,5.5s-9.5-2.46-9.5-5.5"/><path class="cls-4" d="M212,218.5c0,3-4.25,5.5-9.5,5.5s-9.5-2.46-9.5-5.5"/><path class="cls-4" d="M231,218.5c0,3-4.25,5.5-9.5,5.5s-9.5-2.46-9.5-5.5"/><path class="cls-4" d="M250,218.5c0,3-4.25,5.5-9.5,5.5s-9.5-2.46-9.5-5.5"/><path class="cls-4" d="M269,218.5c0,3-4.25,5.5-9.5,5.5s-9.5-2.46-9.5-5.5"/><path class="cls-4" d="M288,218.5c0,3-4.25,5.5-9.5,5.5s-9.5-2.46-9.5-5.5"/><path class="cls-4" d="M41,233.5c0,3-4.25,5.5-9.5,5.5s-9.5-2.46-9.5-5.5"/><path class="cls-4" d="M60,233.5c0,3-4.25,5.5-9.5,5.5s-9.5-2.46-9.5-5.5"/><path class="cls-4" d="M79,233.5c0,3-4.25,5.5-9.5,5.5s-9.5-2.46-9.5-5.5"/><path class="cls-4" d="M98,233.5c0,3-4.25,5.5-9.5,5.5s-9.5-2.46-9.5-5.5"/><path class="cls-4" d="M117,233.5c0,3-4.25,5.5-9.5,5.5s-9.5-2.46-9.5-5.5"/><path class="cls-4" d="M136,233.5c0,3-4.25,5.5-9.5,5.5s-9.5-2.46-9.5-5.5"/><path class="cls-4" d="M155,233.5c0,3-4.25,5.5-9.5,5.5s-9.5-2.46-9.5-5.5"/><path class="cls-4" d="M174,233.5c0,3-4.25,5.5-9.5,5.5s-9.5-2.46-9.5-5.5"/><path class="cls-4" d="M193,233.5c0,3-4.25,5.5-9.5,5.5s-9.5-2.46-9.5-5.5"/><path class="cls-4" d="M212,233.5c0,3-4.25,5.5-9.5,5.5s-9.5-2.46-9.5-5.5"/><path class="cls-4" d="M231,233.5c0,3-4.25,5.5-9.5,5.5s-9.5-2.46-9.5-5.5"/><path class="cls-4" d="M240.5,239c-5.25,0-9.5-2.46-9.5-5.5"/><path class="cls-4" d="M269,233.5c0,3-4.25,5.5-9.5,5.5"/><path class="cls-4" d="M288,233.5c0,3-4.25,5.5-9.5,5.5s-9.5-2.46-9.5-5.5"/><path class="cls-4" d="M41,248.5c0,3-4.25,5.5-9.5,5.5s-9.5-2.46-9.5-5.5"/><path class="cls-4" d="M60,248.5c0,3-4.25,5.5-9.5,5.5s-9.5-2.46-9.5-5.5"/><path class="cls-4" d="M79,248.5c0,3-4.25,5.5-9.5,5.5s-9.5-2.46-9.5-5.5"/><path class="cls-4" d="M98,248.5c0,3-4.25,5.5-9.5,5.5s-9.5-2.46-9.5-5.5"/><path class="cls-4" d="M117,248.5c0,3-4.25,5.5-9.5,5.5s-9.5-2.46-9.5-5.5"/><path class="cls-4" d="M136,248.5c0,3-4.25,5.5-9.5,5.5s-9.5-2.46-9.5-5.5"/><path class="cls-4" d="M155,248.5c0,3-4.25,5.5-9.5,5.5s-9.5-2.46-9.5-5.5"/><path class="cls-4" d="M174,248.5c0,3-4.25,5.5-9.5,5.5s-9.5-2.46-9.5-5.5"/><path class="cls-4" d="M193,248.5c0,3-4.25,5.5-9.5,5.5s-9.5-2.46-9.5-5.5"/><path class="cls-4" d="M212,248.5c0,3-4.25,5.5-9.5,5.5s-9.5-2.46-9.5-5.5"/><path class="cls-4" d="M231,248.5c0,3-4.25,5.5-9.5,5.5s-9.5-2.46-9.5-5.5"/><path class="cls-4" d="M250,248.5c0,3-4.25,5.5-9.5,5.5s-9.5-2.46-9.5-5.5"/><path class="cls-4" d="M269,248.5c0,3-4.25,5.5-9.5,5.5s-9.5-2.46-9.5-5.5"/><path class="cls-4" d="M288,248.5c0,3-4.25,5.5-9.5,5.5s-9.5-2.46-9.5-5.5"/><path class="cls-4" d="M41,263.5c0,3-4.25,5.5-9.5,5.5s-9.5-2.46-9.5-5.5"/><path class="cls-4" d="M60,263.5c0,3-4.25,5.5-9.5,5.5s-9.5-2.46-9.5-5.5"/><path class="cls-4" d="M79,263.5c0,3-4.25,5.5-9.5,5.5s-9.5-2.46-9.5-5.5"/><path class="cls-4" d="M98,263.5c0,3-4.25,5.5-9.5,5.5s-9.5-2.46-9.5-5.5"/><path class="cls-4" d="M117,263.5c0,3-4.25,5.5-9.5,5.5s-9.5-2.46-9.5-5.5"/><path class="cls-4" d="M136,263.5c0,3-4.25,5.5-9.5,5.5s-9.5-2.46-9.5-5.5"/><path class="cls-4" d="M155,263.5c0,3-4.25,5.5-9.5,5.5s-9.5-2.46-9.5-5.5"/><path class="cls-4" d="M174,263.5c0,3-4.25,5.5-9.5,5.5s-9.5-2.46-9.5-5.5"/><path class="cls-4" d="M193,263.5c0,3-4.25,5.5-9.5,5.5s-9.5-2.46-9.5-5.5"/><path class="cls-4" d="M212,263.5c0,3-4.25,5.5-9.5,5.5s-9.5-2.46-9.5-5.5"/><path class="cls-4" d="M231,263.5c0,3-4.25,5.5-9.5,5.5s-9.5-2.46-9.5-5.5"/><path class="cls-4" d="M250,263.5c0,3-4.25,5.5-9.5,5.5s-9.5-2.46-9.5-5.5"/><path class="cls-4" d="M269,263.5c0,3-4.25,5.5-9.5,5.5s-9.5-2.46-9.5-5.5"/><path class="cls-4" d="M288,263.5c0,3-4.25,5.5-9.5,5.5s-9.5-2.46-9.5-5.5"/><line class="cls-5" x1="247.64" y1="237.25" x2="245.97" y2="248.72"/><path class="cls-5" d="M252.18,233.62v-1.1a.53.53,0,0,0-.53-.53h-2.29a.53.53,0,0,0-.53.53v1.1"/><line class="cls-5" x1="255.04" y1="248.72" x2="253.37" y2="237.25"/><line class="cls-5" x1="246.45" y1="245.14" x2="254.81" y2="245.14"/><line class="cls-5" x1="246.45" y1="245.13" x2="255.04" y2="248.72"/><line class="cls-5" x1="245.96" y1="248.7" x2="254.57" y2="245.15"/><rect class="cls-6" x="245.01" y="248.84" width="10.99" height="3.1" rx="1.55" ry="1.55"/><rect class="cls-6" x="247.16" y="234.15" width="6.45" height="3.1" rx="1.55" ry="1.55"/><line class="cls-7" x1="247.01" y1="241.6" x2="253.73" y2="241.6"/><path class="cls-8" d="M256.23,161.29a4.51,4.51,0,0,0,1.77-3.63v-1.14a.39.39,0,0,0-.39-.39L211,155.9h0a8.73,8.73,0,0,0,4.2,5.57"/><path class="cls-9" d="M237.12,153.21h17.82a1.05,1.05,0,0,0,.91-1.58l-18.35-31.78a1,1,0,0,0-1.09-.51"/><path class="cls-8" d="M237,119.21c-.16,0-.32.11-.4.35l-12.18,32.6c-.17.47,0,1,.39,1h12.34"/><path class="cls-8" d="M237.12,153.21h18.58a.7.7,0,0,0,.6-1l-18.82-32.6a.69.69,0,0,0-.58-.35"/><path class="cls-8" d="M80.23,68.29A4.51,4.51,0,0,0,82,64.67V63.53a.39.39,0,0,0-.39-.39L35,62.9h0a8.73,8.73,0,0,0,4.2,5.57"/><path class="cls-9" d="M61.12,60.21H78.95a1.05,1.05,0,0,0,.91-1.58L61.51,26.85a1,1,0,0,0-1.09-.51"/><path class="cls-8" d="M61,26.21c-.16,0-.32.11-.4.35L48.39,59.16c-.17.47,0,1,.39,1H61.12"/><path class="cls-8" d="M61.12,60.21H79.71a.7.7,0,0,0,.6-1L61.49,26.56a.69.69,0,0,0-.58-.35"/><line class="cls-5" x1="51.64" y1="118.25" x2="49.97" y2="129.72"/><path class="cls-5" d="M56.18,114.62v-1.1a.53.53,0,0,0-.53-.53H53.36a.53.53,0,0,0-.53.53v1.1"/><line class="cls-5" x1="59.04" y1="129.72" x2="57.37" y2="118.25"/><line class="cls-5" x1="50.45" y1="126.14" x2="58.81" y2="126.14"/><line class="cls-5" x1="50.45" y1="126.13" x2="59.04" y2="129.72"/><line class="cls-5" x1="49.96" y1="129.7" x2="58.57" y2="126.15"/><rect class="cls-6" x="49.01" y="129.84" width="10.99" height="3.1" rx="1.55" ry="1.55"/><rect class="cls-6" x="51.16" y="115.15" width="6.45" height="3.1" rx="1.55" ry="1.55"/><line class="cls-7" x1="51.01" y1="122.6" x2="57.73" y2="122.6"/><line class="cls-5" x1="176.64" y1="58.25" x2="174.97" y2="69.72"/><path class="cls-5" d="M181.18,54.62v-1.1a.53.53,0,0,0-.53-.53h-2.29a.53.53,0,0,0-.53.53v1.1"/><line class="cls-5" x1="184.04" y1="69.72" x2="182.37" y2="58.25"/><line class="cls-5" x1="175.45" y1="66.14" x2="183.81" y2="66.14"/><line class="cls-5" x1="175.45" y1="66.13" x2="184.04" y2="69.72"/><line class="cls-5" x1="174.96" y1="69.7" x2="183.57" y2="66.15"/><rect class="cls-6" x="174.01" y="69.84" width="10.99" height="3.1" rx="1.55" ry="1.55"/><rect class="cls-6" x="176.16" y="55.15" width="6.45" height="3.1" rx="1.55" ry="1.55"/><line class="cls-7" x1="176.01" y1="62.6" x2="182.73" y2="62.6"/><g class="cls-10"><path class="cls-11" d="M133.75,234A14.25,14.25,0,1,0,148,248.25,14.25,14.25,0,0,0,133.75,234Zm0,23a8.72,8.72,0,1,1,8.72-8.72A8.72,8.72,0,0,1,133.75,257Z"/><polygon class="cls-6" points="147.47 252.12 141.92 250.63 140.15 253.86 144.55 257.55 147.47 252.12"/><polygon class="cls-6" points="138.16 240.97 141.04 236 145.53 240.23 140.82 243.52 138.16 240.97"/><polygon class="cls-6" points="125.82 245.17 120.42 243.2 123.81 238.04 127.87 242.1 125.82 245.17"/><polygon class="cls-6" points="128.72 255.11 125.42 259.82 121.32 255.21 126.29 252.34 128.72 255.11"/></g><g class="cls-12"><path class="cls-11" d="M244.75,52A14.25,14.25,0,1,0,259,66.25,14.25,14.25,0,0,0,244.75,52Zm0,23a8.72,8.72,0,1,1,8.72-8.72A8.72,8.72,0,0,1,244.75,75Z"/><polygon class="cls-6" points="258.47 70.12 252.92 68.63 251.15 71.86 255.55 75.55 258.47 70.12"/><polygon class="cls-6" points="249.16 58.98 252.04 54 256.53 58.23 251.82 61.52 249.16 58.98"/><polygon class="cls-6" points="236.82 63.17 231.42 61.2 234.81 56.04 238.87 60.1 236.82 63.17"/><polygon class="cls-6" points="239.72 73.11 236.42 77.82 232.32 73.21 237.29 70.34 239.72 73.11"/></g></g><text class="cls-13" transform="translate(90.18 297.53)">MAINTENCANCE</text><polygon class="cls-14" points="221.02 217.02 90 217.02 90 86 221.02 86 186 152 221.02 217.02"/><rect class="cls-15" x="90" y="86" width="81" height="131"/><path class="cls-8" d="M95.23,221.29A4.51,4.51,0,0,0,97,217.67v-1.14a.39.39,0,0,0-.39-.39L50,215.9h0a8.73,8.73,0,0,0,4.2,5.57"/><path class="cls-8" d="M76.12,213.21H93.95a1.05,1.05,0,0,0,.91-1.58L76.51,179.85a1,1,0,0,0-1.09-.51"/><path class="cls-8" d="M76,179.21c-.16,0-.32.11-.4.35l-12.18,32.6c-.17.47,0,1,.39,1H76.12"/><path class="cls-8" d="M76.12,213.21H94.71a.7.7,0,0,0,.6-1l-18.82-32.6a.69.69,0,0,0-.58-.35"/></g></g></svg>