<svg xmlns="http://www.w3.org/2000/svg" xmlns:xlink="http://www.w3.org/1999/xlink" viewBox="0 0 310 446.23"><defs><style>.cls-1,.cls-12,.cls-14,.cls-5{fill:none;}.cls-10,.cls-16,.cls-2{fill:#fff;}.cls-3{font-size:18px;fill:#414042;font-family:SanFranciscoDisplay-Semibold, San Francisco Display;font-weight:700;letter-spacing:0.1em;}.cls-4{clip-path:url(#clip-path);}.cls-10,.cls-11,.cls-12,.cls-13,.cls-14,.cls-16,.cls-5{stroke:#ccc;}.cls-12,.cls-13,.cls-14,.cls-16,.cls-5{stroke-miterlimit:10;}.cls-10,.cls-11,.cls-5{stroke-width:2px;}.cls-6{clip-path:url(#clip-path-2);}.cls-7{fill:#fcc062;}.cls-8{fill:#cee4f5;}.cls-9{fill:#722c36;}.cls-10,.cls-11{stroke-linejoin:round;}.cls-11{fill:#f7df75;}.cls-13{fill:#ccc;}.cls-14{stroke-linecap:round;}.cls-15{clip-path:url(#clip-path-3);}.cls-17{clip-path:url(#clip-path-4);}</style><clipPath id="clip-path"><rect class="cls-1" x="38" y="125.23" width="240" height="240" transform="translate(-87.23 403.23) rotate(-90)"/></clipPath><clipPath id="clip-path-2"><polygon class="cls-1" points="67 202.87 67 297.97 251.62 266.27 251.62 229.28 67 202.87"/></clipPath><clipPath id="clip-path-3"><polygon class="cls-1" points="75 351.23 71.5 328.73 106.5 322.73 109 351.23 92.5 349.73 90.5 342.73 86 351.23 75 351.23"/></clipPath><clipPath id="clip-path-4"><polygon class="cls-1" points="230 165.23 226.5 142.73 261.5 136.73 264 165.23 247.5 163.73 245.5 156.73 241 165.23 230 165.23"/></clipPath></defs><title>Card 5</title><g id="Layer_2" data-name="Layer 2"><g id="Services_Icon" data-name="Services Icon"><rect class="cls-2" y="104.23" width="310" height="342"/><text class="cls-3" transform="translate(121.18 405.76)">PRICING</text><g class="cls-4"><path class="cls-2" d="M7,180c12.24.08,12.2,6.08,24.44,6.16s12.28-5.92,24.52-5.84,12.2,6.08,24.44,6.16,12.28-5.92,24.52-5.84,12.2,6.08,24.44,6.16,12.28-5.92,24.52-5.84,12.2,6.08,24.45,6.16,12.28-5.92,24.53-5.84,12.2,6.08,24.45,6.16,12.28-5.92,24.53-5.84,12.21,6.08,24.45,6.16,12.29-5.92,24.53-5.84"/><path class="cls-5" d="M7,180c12.24.08,12.2,6.08,24.44,6.16s12.28-5.92,24.52-5.84,12.2,6.08,24.44,6.16,12.28-5.92,24.52-5.84,12.2,6.08,24.44,6.16,12.28-5.92,24.52-5.84,12.2,6.08,24.45,6.16,12.28-5.92,24.53-5.84,12.2,6.08,24.45,6.16,12.28-5.92,24.53-5.84,12.21,6.08,24.45,6.16,12.29-5.92,24.53-5.84"/><path class="cls-2" d="M7,191.94c12.24.08,12.2,6.08,24.44,6.16s12.28-5.92,24.52-5.84,12.2,6.08,24.44,6.16,12.28-5.92,24.52-5.84,12.2,6.08,24.44,6.16,12.28-5.92,24.52-5.84,12.2,6.08,24.45,6.16,12.28-5.92,24.53-5.84,12.2,6.08,24.45,6.16,12.28-5.92,24.53-5.84,12.21,6.08,24.45,6.16,12.29-5.92,24.53-5.84"/><path class="cls-5" d="M7,191.94c12.24.08,12.2,6.08,24.44,6.16s12.28-5.92,24.52-5.84,12.2,6.08,24.44,6.16,12.28-5.92,24.52-5.84,12.2,6.08,24.44,6.16,12.28-5.92,24.52-5.84,12.2,6.08,24.45,6.16,12.28-5.92,24.53-5.84,12.2,6.08,24.45,6.16,12.28-5.92,24.53-5.84,12.21,6.08,24.45,6.16,12.29-5.92,24.53-5.84"/><path class="cls-2" d="M6.89,203.88C19.13,204,19.09,210,31.34,210s12.28-5.92,24.52-5.84,12.2,6.08,24.44,6.16,12.28-5.92,24.52-5.84,12.2,6.08,24.44,6.16,12.28-5.92,24.52-5.84,12.2,6.08,24.45,6.16,12.28-5.92,24.53-5.84,12.2,6.08,24.45,6.16,12.28-5.92,24.53-5.84,12.21,6.08,24.45,6.16,12.29-5.92,24.53-5.84"/><path class="cls-5" d="M6.89,203.88C19.13,204,19.09,210,31.34,210s12.28-5.92,24.52-5.84,12.2,6.08,24.44,6.16,12.28-5.92,24.52-5.84,12.2,6.08,24.44,6.16,12.28-5.92,24.52-5.84,12.2,6.08,24.45,6.16,12.28-5.92,24.53-5.84,12.2,6.08,24.45,6.16,12.28-5.92,24.53-5.84,12.21,6.08,24.45,6.16,12.29-5.92,24.53-5.84"/><path class="cls-2" d="M6.82,215.82c12.24.08,12.2,6.08,24.44,6.16s12.28-5.92,24.52-5.84,12.2,6.08,24.44,6.16,12.28-5.92,24.52-5.84,12.2,6.08,24.44,6.16,12.28-5.92,24.52-5.84,12.2,6.08,24.45,6.16,12.28-5.92,24.53-5.84,12.2,6.08,24.45,6.16,12.28-5.92,24.53-5.84,12.21,6.08,24.45,6.16,12.29-5.92,24.53-5.84"/><path class="cls-5" d="M6.82,215.82c12.24.08,12.2,6.08,24.44,6.16s12.28-5.92,24.52-5.84,12.2,6.08,24.44,6.16,12.28-5.92,24.52-5.84,12.2,6.08,24.44,6.16,12.28-5.92,24.52-5.84,12.2,6.08,24.45,6.16,12.28-5.92,24.53-5.84,12.2,6.08,24.45,6.16,12.28-5.92,24.53-5.84,12.21,6.08,24.45,6.16,12.29-5.92,24.53-5.84"/><path class="cls-2" d="M6.74,227.76c12.24.08,12.2,6.08,24.44,6.16s12.28-5.92,24.52-5.84,12.2,6.08,24.44,6.16,12.28-5.92,24.52-5.84,12.2,6.08,24.44,6.16,12.28-5.92,24.52-5.84,12.2,6.08,24.45,6.16,12.28-5.92,24.53-5.84,12.2,6.08,24.45,6.16,12.28-5.92,24.53-5.84,12.21,6.08,24.45,6.16,12.29-5.92,24.53-5.84"/><path class="cls-5" d="M6.74,227.76c12.24.08,12.2,6.08,24.44,6.16s12.28-5.92,24.52-5.84,12.2,6.08,24.44,6.16,12.28-5.92,24.52-5.84,12.2,6.08,24.44,6.16,12.28-5.92,24.52-5.84,12.2,6.08,24.45,6.16,12.28-5.92,24.53-5.84,12.2,6.08,24.45,6.16,12.28-5.92,24.53-5.84,12.21,6.08,24.45,6.16,12.29-5.92,24.53-5.84"/><path class="cls-2" d="M6.66,239.7c12.24.08,12.2,6.08,24.44,6.16s12.28-5.92,24.52-5.84,12.2,6.08,24.44,6.16,12.28-5.92,24.52-5.84,12.2,6.08,24.44,6.16,12.28-5.92,24.52-5.84,12.2,6.08,24.45,6.16,12.28-5.92,24.53-5.84,12.2,6.08,24.45,6.16,12.28-5.92,24.53-5.84,12.21,6.08,24.45,6.16,12.29-5.92,24.53-5.84"/><path class="cls-5" d="M6.66,239.7c12.24.08,12.2,6.08,24.44,6.16s12.28-5.92,24.52-5.84,12.2,6.08,24.44,6.16,12.28-5.92,24.52-5.84,12.2,6.08,24.44,6.16,12.28-5.92,24.52-5.84,12.2,6.08,24.45,6.16,12.28-5.92,24.53-5.84,12.2,6.08,24.45,6.16,12.28-5.92,24.53-5.84,12.21,6.08,24.45,6.16,12.29-5.92,24.53-5.84"/><path class="cls-2" d="M6.59,251.64c12.24.08,12.2,6.08,24.44,6.16s12.28-5.92,24.52-5.84S67.76,258,80,258.13s12.28-5.92,24.52-5.84,12.2,6.08,24.44,6.16,12.28-5.92,24.52-5.84,12.2,6.08,24.45,6.16,12.28-5.92,24.53-5.84,12.2,6.08,24.45,6.16,12.28-5.92,24.53-5.84,12.21,6.08,24.45,6.16,12.29-5.92,24.53-5.84"/><path class="cls-5" d="M6.59,251.64c12.24.08,12.2,6.08,24.44,6.16s12.28-5.92,24.52-5.84S67.76,258,80,258.13s12.28-5.92,24.52-5.84,12.2,6.08,24.44,6.16,12.28-5.92,24.52-5.84,12.2,6.08,24.45,6.16,12.28-5.92,24.53-5.84,12.2,6.08,24.45,6.16,12.28-5.92,24.53-5.84,12.21,6.08,24.45,6.16,12.29-5.92,24.53-5.84"/><path class="cls-2" d="M6.51,263.58c12.24.08,12.2,6.08,24.44,6.16s12.28-5.92,24.52-5.84,12.2,6.08,24.44,6.16,12.28-5.92,24.52-5.84,12.2,6.08,24.44,6.16,12.28-5.92,24.52-5.84,12.2,6.08,24.45,6.16,12.28-5.92,24.53-5.84,12.2,6.08,24.45,6.16,12.28-5.92,24.53-5.84,12.21,6.08,24.45,6.16,12.29-5.92,24.53-5.84"/><path class="cls-5" d="M6.51,263.58c12.24.08,12.2,6.08,24.44,6.16s12.28-5.92,24.52-5.84,12.2,6.08,24.44,6.16,12.28-5.92,24.52-5.84,12.2,6.08,24.44,6.16,12.28-5.92,24.52-5.84,12.2,6.08,24.45,6.16,12.28-5.92,24.53-5.84,12.2,6.08,24.45,6.16,12.28-5.92,24.53-5.84,12.21,6.08,24.45,6.16,12.29-5.92,24.53-5.84"/><path class="cls-2" d="M6.43,275.52c12.24.08,12.2,6.08,24.44,6.16s12.28-5.92,24.52-5.84,12.2,6.08,24.44,6.16,12.28-5.92,24.52-5.84,12.2,6.08,24.44,6.16,12.28-5.92,24.52-5.84,12.2,6.08,24.45,6.16,12.28-5.92,24.53-5.84,12.2,6.08,24.45,6.16,12.28-5.92,24.53-5.84,12.21,6.08,24.45,6.16,12.29-5.92,24.53-5.84"/><path class="cls-5" d="M6.43,275.52c12.24.08,12.2,6.08,24.44,6.16s12.28-5.92,24.52-5.84,12.2,6.08,24.44,6.16,12.28-5.92,24.52-5.84,12.2,6.08,24.44,6.16,12.28-5.92,24.52-5.84,12.2,6.08,24.45,6.16,12.28-5.92,24.53-5.84,12.2,6.08,24.45,6.16,12.28-5.92,24.53-5.84,12.21,6.08,24.45,6.16,12.29-5.92,24.53-5.84"/><path class="cls-2" d="M6.36,287.46c12.24.08,12.2,6.08,24.44,6.16s12.28-5.92,24.52-5.84,12.2,6.08,24.44,6.16,12.28-5.92,24.52-5.84,12.2,6.08,24.44,6.16,12.28-5.92,24.52-5.84,12.2,6.08,24.45,6.16,12.28-5.92,24.53-5.84,12.2,6.08,24.45,6.16S239,289,251.2,289.08s12.21,6.08,24.45,6.16,12.29-5.92,24.53-5.84"/><path class="cls-5" d="M6.36,287.46c12.24.08,12.2,6.08,24.44,6.16s12.28-5.92,24.52-5.84,12.2,6.08,24.44,6.16,12.28-5.92,24.52-5.84,12.2,6.08,24.44,6.16,12.28-5.92,24.52-5.84,12.2,6.08,24.45,6.16,12.28-5.92,24.53-5.84,12.2,6.08,24.45,6.16S239,289,251.2,289.08s12.21,6.08,24.45,6.16,12.29-5.92,24.53-5.84"/><path class="cls-2" d="M6.28,299.4c12.24.08,12.2,6.08,24.44,6.16s12.28-5.92,24.52-5.84,12.2,6.08,24.44,6.16S92,300,104.21,300s12.2,6.08,24.44,6.16,12.28-5.92,24.52-5.84,12.2,6.08,24.45,6.16,12.28-5.92,24.53-5.84,12.2,6.08,24.45,6.16,12.28-5.92,24.53-5.84,12.21,6.08,24.45,6.16,12.29-5.92,24.53-5.84"/><path class="cls-5" d="M6.28,299.4c12.24.08,12.2,6.08,24.44,6.16s12.28-5.92,24.52-5.84,12.2,6.08,24.44,6.16S92,300,104.21,300s12.2,6.08,24.44,6.16,12.28-5.92,24.52-5.84,12.2,6.08,24.45,6.16,12.28-5.92,24.53-5.84,12.2,6.08,24.45,6.16,12.28-5.92,24.53-5.84,12.21,6.08,24.45,6.16,12.29-5.92,24.53-5.84"/><path class="cls-2" d="M6.21,311.34c12.24.08,12.2,6.08,24.44,6.16s12.28-5.92,24.52-5.84,12.2,6.08,24.44,6.16,12.28-5.92,24.52-5.84,12.2,6.08,24.44,6.16,12.28-5.92,24.52-5.84,12.2,6.08,24.45,6.16,12.28-5.92,24.53-5.84,12.2,6.08,24.45,6.16,12.28-5.92,24.53-5.84,12.21,6.08,24.45,6.16,12.29-5.92,24.53-5.84"/><path class="cls-5" d="M6.21,311.34c12.24.08,12.2,6.08,24.44,6.16s12.28-5.92,24.52-5.84,12.2,6.08,24.44,6.16,12.28-5.92,24.52-5.84,12.2,6.08,24.44,6.16,12.28-5.92,24.52-5.84,12.2,6.08,24.45,6.16,12.28-5.92,24.53-5.84,12.2,6.08,24.45,6.16,12.28-5.92,24.53-5.84,12.21,6.08,24.45,6.16,12.29-5.92,24.53-5.84"/><path class="cls-2" d="M6.13,323.28c12.24.08,12.2,6.08,24.44,6.16s12.28-5.92,24.52-5.84,12.2,6.08,24.44,6.16,12.28-5.92,24.52-5.84,12.2,6.08,24.44,6.16,12.28-5.92,24.52-5.84,12.2,6.08,24.45,6.16,12.28-5.92,24.53-5.84,12.2,6.08,24.45,6.16,12.28-5.92,24.53-5.84,12.21,6.08,24.45,6.16,12.29-5.92,24.53-5.84"/><path class="cls-5" d="M6.13,323.28c12.24.08,12.2,6.08,24.44,6.16s12.28-5.92,24.52-5.84,12.2,6.08,24.44,6.16,12.28-5.92,24.52-5.84,12.2,6.08,24.44,6.16,12.28-5.92,24.52-5.84,12.2,6.08,24.45,6.16,12.28-5.92,24.53-5.84,12.2,6.08,24.45,6.16,12.28-5.92,24.53-5.84,12.21,6.08,24.45,6.16,12.29-5.92,24.53-5.84"/><path class="cls-2" d="M6.05,335.22c12.24.08,12.2,6.08,24.44,6.16s12.28-5.92,24.52-5.84,12.2,6.08,24.44,6.16,12.28-5.92,24.52-5.84,12.2,6.08,24.44,6.16,12.28-5.92,24.52-5.84,12.2,6.08,24.45,6.16,12.28-5.92,24.53-5.84,12.2,6.08,24.45,6.16,12.28-5.92,24.53-5.84,12.21,6.08,24.45,6.16,12.29-5.92,24.53-5.84"/><path class="cls-5" d="M6.05,335.22c12.24.08,12.2,6.08,24.44,6.16s12.28-5.92,24.52-5.84,12.2,6.08,24.44,6.16,12.28-5.92,24.52-5.84,12.2,6.08,24.44,6.16,12.28-5.92,24.52-5.84,12.2,6.08,24.45,6.16,12.28-5.92,24.53-5.84,12.2,6.08,24.45,6.16,12.28-5.92,24.53-5.84,12.21,6.08,24.45,6.16,12.29-5.92,24.53-5.84"/><path class="cls-2" d="M6,347.16c12.24.08,12.2,6.08,24.44,6.16s12.28-5.92,24.52-5.84,12.2,6.08,24.44,6.16,12.28-5.92,24.52-5.84,12.2,6.08,24.44,6.16,12.28-5.92,24.52-5.84,12.2,6.08,24.45,6.16,12.28-5.92,24.53-5.84,12.2,6.08,24.45,6.16,12.28-5.92,24.53-5.84,12.21,6.08,24.45,6.16,12.29-5.92,24.53-5.84"/><path class="cls-5" d="M6,347.16c12.24.08,12.2,6.08,24.44,6.16s12.28-5.92,24.52-5.84,12.2,6.08,24.44,6.16,12.28-5.92,24.52-5.84,12.2,6.08,24.44,6.16,12.28-5.92,24.52-5.84,12.2,6.08,24.45,6.16,12.28-5.92,24.53-5.84,12.2,6.08,24.45,6.16,12.28-5.92,24.53-5.84,12.21,6.08,24.45,6.16,12.29-5.92,24.53-5.84"/><path class="cls-2" d="M5.9,359.1c12.24.08,12.2,6.08,24.44,6.16s12.28-5.92,24.52-5.84,12.2,6.08,24.44,6.16,12.28-5.92,24.52-5.84,12.2,6.08,24.44,6.16,12.28-5.92,24.52-5.84,12.2,6.08,24.45,6.16,12.28-5.92,24.53-5.84,12.2,6.08,24.45,6.16,12.28-5.92,24.53-5.84,12.21,6.08,24.45,6.16S287.48,361,299.73,361"/><path class="cls-5" d="M5.9,359.1c12.24.08,12.2,6.08,24.44,6.16s12.28-5.92,24.52-5.84,12.2,6.08,24.44,6.16,12.28-5.92,24.52-5.84,12.2,6.08,24.44,6.16,12.28-5.92,24.52-5.84,12.2,6.08,24.45,6.16,12.28-5.92,24.53-5.84,12.2,6.08,24.45,6.16,12.28-5.92,24.53-5.84,12.21,6.08,24.45,6.16S287.48,361,299.73,361"/><path class="cls-2" d="M7,1c12.24.08,12.2,6.08,24.44,6.16S43.77,1.24,56,1.32s12.2,6.08,24.44,6.16S92.74,1.57,105,1.65s12.2,6.08,24.44,6.16S141.7,1.89,153.94,2s12.2,6.08,24.45,6.16,12.28-5.92,24.53-5.84,12.2,6.08,24.45,6.16,12.28-5.92,24.53-5.84S264.1,8.7,276.34,8.78s12.29-5.92,24.53-5.84"/><path class="cls-5" d="M7,1c12.24.08,12.2,6.08,24.44,6.16S43.77,1.24,56,1.32s12.2,6.08,24.44,6.16S92.74,1.57,105,1.65s12.2,6.08,24.44,6.16S141.7,1.89,153.94,2s12.2,6.08,24.45,6.16,12.28-5.92,24.53-5.84,12.2,6.08,24.45,6.16,12.28-5.92,24.53-5.84S264.1,8.7,276.34,8.78s12.29-5.92,24.53-5.84"/><path class="cls-2" d="M7,12.94C19.21,13,19.17,19,31.41,19.1s12.28-5.92,24.52-5.84,12.2,6.08,24.44,6.16,12.28-5.92,24.52-5.84,12.2,6.08,24.44,6.16,12.28-5.92,24.52-5.84,12.2,6.08,24.45,6.16,12.28-5.92,24.53-5.84,12.2,6.08,24.45,6.16,12.28-5.92,24.53-5.84,12.21,6.08,24.45,6.16,12.29-5.92,24.53-5.84"/><path class="cls-5" d="M7,12.94C19.21,13,19.17,19,31.41,19.1s12.28-5.92,24.52-5.84,12.2,6.08,24.44,6.16,12.28-5.92,24.52-5.84,12.2,6.08,24.44,6.16,12.28-5.92,24.52-5.84,12.2,6.08,24.45,6.16,12.28-5.92,24.53-5.84,12.2,6.08,24.45,6.16,12.28-5.92,24.53-5.84,12.21,6.08,24.45,6.16,12.29-5.92,24.53-5.84"/><path class="cls-2" d="M6.89,24.88C19.13,25,19.09,31,31.34,31s12.28-5.92,24.52-5.84,12.2,6.08,24.44,6.16,12.28-5.92,24.52-5.84,12.2,6.08,24.44,6.16,12.28-5.92,24.52-5.84S166,31.93,178.24,32s12.28-5.92,24.53-5.84,12.2,6.08,24.45,6.16,12.28-5.92,24.53-5.84,12.21,6.08,24.45,6.16,12.29-5.92,24.53-5.84"/><path class="cls-5" d="M6.89,24.88C19.13,25,19.09,31,31.34,31s12.28-5.92,24.52-5.84,12.2,6.08,24.44,6.16,12.28-5.92,24.52-5.84,12.2,6.08,24.44,6.16,12.28-5.92,24.52-5.84S166,31.93,178.24,32s12.28-5.92,24.53-5.84,12.2,6.08,24.45,6.16,12.28-5.92,24.53-5.84,12.21,6.08,24.45,6.16,12.29-5.92,24.53-5.84"/><path class="cls-2" d="M6.82,36.82C19.06,36.9,19,42.9,31.26,43s12.28-5.92,24.52-5.84S68,43.23,80.23,43.31s12.28-5.92,24.52-5.84,12.2,6.08,24.44,6.16,12.28-5.92,24.52-5.84,12.2,6.08,24.45,6.16,12.28-5.92,24.53-5.84,12.2,6.08,24.45,6.16,12.28-5.92,24.53-5.84,12.21,6.08,24.45,6.16,12.29-5.92,24.53-5.84"/><path class="cls-5" d="M6.82,36.82C19.06,36.9,19,42.9,31.26,43s12.28-5.92,24.52-5.84S68,43.23,80.23,43.31s12.28-5.92,24.52-5.84,12.2,6.08,24.44,6.16,12.28-5.92,24.52-5.84,12.2,6.08,24.45,6.16,12.28-5.92,24.53-5.84,12.2,6.08,24.45,6.16,12.28-5.92,24.53-5.84,12.21,6.08,24.45,6.16,12.29-5.92,24.53-5.84"/><path class="cls-2" d="M6.74,48.76c12.24.08,12.2,6.08,24.44,6.16S43.47,49,55.71,49.08s12.2,6.08,24.44,6.16,12.28-5.92,24.52-5.84,12.2,6.08,24.44,6.16,12.28-5.92,24.52-5.84,12.2,6.08,24.45,6.16,12.28-5.92,24.53-5.84,12.2,6.08,24.45,6.16,12.28-5.92,24.53-5.84,12.21,6.08,24.45,6.16,12.29-5.92,24.53-5.84"/><path class="cls-5" d="M6.74,48.76c12.24.08,12.2,6.08,24.44,6.16S43.47,49,55.71,49.08s12.2,6.08,24.44,6.16,12.28-5.92,24.52-5.84,12.2,6.08,24.44,6.16,12.28-5.92,24.52-5.84,12.2,6.08,24.45,6.16,12.28-5.92,24.53-5.84,12.2,6.08,24.45,6.16,12.28-5.92,24.53-5.84,12.21,6.08,24.45,6.16,12.29-5.92,24.53-5.84"/><path class="cls-2" d="M6.66,60.7c12.24.08,12.2,6.08,24.44,6.16S43.39,60.94,55.63,61s12.2,6.08,24.44,6.16,12.28-5.92,24.52-5.84,12.2,6.08,24.44,6.16,12.28-5.92,24.52-5.84,12.2,6.08,24.45,6.16,12.28-5.92,24.53-5.84,12.2,6.08,24.45,6.16,12.28-5.92,24.53-5.84S263.71,68.4,276,68.48s12.29-5.92,24.53-5.84"/><path class="cls-5" d="M6.66,60.7c12.24.08,12.2,6.08,24.44,6.16S43.39,60.94,55.63,61s12.2,6.08,24.44,6.16,12.28-5.92,24.52-5.84,12.2,6.08,24.44,6.16,12.28-5.92,24.52-5.84,12.2,6.08,24.45,6.16,12.28-5.92,24.53-5.84,12.2,6.08,24.45,6.16,12.28-5.92,24.53-5.84S263.71,68.4,276,68.48s12.29-5.92,24.53-5.84"/><path class="cls-2" d="M6.59,72.64c12.24.08,12.2,6.08,24.44,6.16S43.31,72.88,55.55,73,67.76,79,80,79.13s12.28-5.92,24.52-5.84,12.2,6.08,24.44,6.16,12.28-5.92,24.52-5.84,12.2,6.08,24.45,6.16,12.28-5.92,24.53-5.84,12.2,6.08,24.45,6.16,12.28-5.92,24.53-5.84,12.21,6.08,24.45,6.16,12.29-5.92,24.53-5.84"/><path class="cls-5" d="M6.59,72.64c12.24.08,12.2,6.08,24.44,6.16S43.31,72.88,55.55,73,67.76,79,80,79.13s12.28-5.92,24.52-5.84,12.2,6.08,24.44,6.16,12.28-5.92,24.52-5.84,12.2,6.08,24.45,6.16,12.28-5.92,24.53-5.84,12.2,6.08,24.45,6.16,12.28-5.92,24.53-5.84,12.21,6.08,24.45,6.16,12.29-5.92,24.53-5.84"/><path class="cls-2" d="M6.51,84.58c12.24.08,12.2,6.08,24.44,6.16s12.28-5.92,24.52-5.84S67.68,91,79.92,91.07s12.28-5.92,24.52-5.84,12.2,6.08,24.44,6.16,12.28-5.92,24.52-5.84,12.2,6.08,24.45,6.16,12.28-5.92,24.53-5.84S214.59,92,226.83,92s12.28-5.92,24.53-5.84,12.21,6.08,24.45,6.16,12.29-5.92,24.53-5.84"/><path class="cls-5" d="M6.51,84.58c12.24.08,12.2,6.08,24.44,6.16s12.28-5.92,24.52-5.84S67.68,91,79.92,91.07s12.28-5.92,24.52-5.84,12.2,6.08,24.44,6.16,12.28-5.92,24.52-5.84,12.2,6.08,24.45,6.16,12.28-5.92,24.53-5.84S214.59,92,226.83,92s12.28-5.92,24.53-5.84,12.21,6.08,24.45,6.16,12.29-5.92,24.53-5.84"/><path class="cls-2" d="M6.43,96.52c12.24.08,12.2,6.08,24.44,6.16s12.28-5.92,24.52-5.84,12.2,6.08,24.44,6.16,12.28-5.92,24.52-5.84,12.2,6.08,24.44,6.16,12.28-5.92,24.52-5.84,12.2,6.08,24.45,6.16,12.28-5.92,24.53-5.84,12.2,6.08,24.45,6.16,12.28-5.92,24.53-5.84,12.21,6.08,24.45,6.16,12.29-5.92,24.53-5.84"/><path class="cls-5" d="M6.43,96.52c12.24.08,12.2,6.08,24.44,6.16s12.28-5.92,24.52-5.84,12.2,6.08,24.44,6.16,12.28-5.92,24.52-5.84,12.2,6.08,24.44,6.16,12.28-5.92,24.52-5.84,12.2,6.08,24.45,6.16,12.28-5.92,24.53-5.84,12.2,6.08,24.45,6.16,12.28-5.92,24.53-5.84,12.21,6.08,24.45,6.16,12.29-5.92,24.53-5.84"/><path class="cls-2" d="M6.36,108.46c12.24.08,12.2,6.08,24.44,6.16s12.28-5.92,24.52-5.84,12.2,6.08,24.44,6.16,12.28-5.92,24.52-5.84,12.2,6.08,24.44,6.16,12.28-5.92,24.52-5.84,12.2,6.08,24.45,6.16,12.28-5.92,24.53-5.84,12.2,6.08,24.45,6.16S239,110,251.2,110.08s12.21,6.08,24.45,6.16,12.29-5.92,24.53-5.84"/><path class="cls-5" d="M6.36,108.46c12.24.08,12.2,6.08,24.44,6.16s12.28-5.92,24.52-5.84,12.2,6.08,24.44,6.16,12.28-5.92,24.52-5.84,12.2,6.08,24.44,6.16,12.28-5.92,24.52-5.84,12.2,6.08,24.45,6.16,12.28-5.92,24.53-5.84,12.2,6.08,24.45,6.16S239,110,251.2,110.08s12.21,6.08,24.45,6.16,12.29-5.92,24.53-5.84"/><path class="cls-2" d="M6.28,120.4c12.24.08,12.2,6.08,24.44,6.16s12.28-5.92,24.52-5.84,12.2,6.08,24.44,6.16S92,121,104.21,121s12.2,6.08,24.44,6.16,12.28-5.92,24.52-5.84,12.2,6.08,24.45,6.16,12.28-5.92,24.53-5.84,12.2,6.08,24.45,6.16,12.28-5.92,24.53-5.84,12.21,6.08,24.45,6.16,12.29-5.92,24.53-5.84"/><path class="cls-5" d="M6.28,120.4c12.24.08,12.2,6.08,24.44,6.16s12.28-5.92,24.52-5.84,12.2,6.08,24.44,6.16S92,121,104.21,121s12.2,6.08,24.44,6.16,12.28-5.92,24.52-5.84,12.2,6.08,24.45,6.16,12.28-5.92,24.53-5.84,12.2,6.08,24.45,6.16,12.28-5.92,24.53-5.84,12.21,6.08,24.45,6.16,12.29-5.92,24.53-5.84"/><path class="cls-2" d="M6.21,132.34c12.24.08,12.2,6.08,24.44,6.16s12.28-5.92,24.52-5.84,12.2,6.08,24.44,6.16,12.28-5.92,24.52-5.84,12.2,6.08,24.44,6.16,12.28-5.92,24.52-5.84,12.2,6.08,24.45,6.16,12.28-5.92,24.53-5.84,12.2,6.08,24.45,6.16,12.28-5.92,24.53-5.84,12.21,6.08,24.45,6.16,12.29-5.92,24.53-5.84"/><path class="cls-5" d="M6.21,132.34c12.24.08,12.2,6.08,24.44,6.16s12.28-5.92,24.52-5.84,12.2,6.08,24.44,6.16,12.28-5.92,24.52-5.84,12.2,6.08,24.44,6.16,12.28-5.92,24.52-5.84,12.2,6.08,24.45,6.16,12.28-5.92,24.53-5.84,12.2,6.08,24.45,6.16,12.28-5.92,24.53-5.84,12.21,6.08,24.45,6.16,12.29-5.92,24.53-5.84"/><path class="cls-2" d="M6.13,144.28c12.24.08,12.2,6.08,24.44,6.16s12.28-5.92,24.52-5.84,12.2,6.08,24.44,6.16,12.28-5.92,24.52-5.84,12.2,6.08,24.44,6.16,12.28-5.92,24.52-5.84,12.2,6.08,24.45,6.16,12.28-5.92,24.53-5.84,12.2,6.08,24.45,6.16,12.28-5.92,24.53-5.84,12.21,6.08,24.45,6.16,12.29-5.92,24.53-5.84"/><path class="cls-5" d="M6.13,144.28c12.24.08,12.2,6.08,24.44,6.16s12.28-5.92,24.52-5.84,12.2,6.08,24.44,6.16,12.28-5.92,24.52-5.84,12.2,6.08,24.44,6.16,12.28-5.92,24.52-5.84,12.2,6.08,24.45,6.16,12.28-5.92,24.53-5.84,12.2,6.08,24.45,6.16,12.28-5.92,24.53-5.84,12.21,6.08,24.45,6.16,12.29-5.92,24.53-5.84"/><path class="cls-2" d="M6.05,156.22c12.24.08,12.2,6.08,24.44,6.16s12.28-5.92,24.52-5.84,12.2,6.08,24.44,6.16,12.28-5.92,24.52-5.84,12.2,6.08,24.44,6.16,12.28-5.92,24.52-5.84,12.2,6.08,24.45,6.16,12.28-5.92,24.53-5.84,12.2,6.08,24.45,6.16,12.28-5.92,24.53-5.84,12.21,6.08,24.45,6.16,12.29-5.92,24.53-5.84"/><path class="cls-5" d="M6.05,156.22c12.24.08,12.2,6.08,24.44,6.16s12.28-5.92,24.52-5.84,12.2,6.08,24.44,6.16,12.28-5.92,24.52-5.84,12.2,6.08,24.44,6.16,12.28-5.92,24.52-5.84,12.2,6.08,24.45,6.16,12.28-5.92,24.53-5.84,12.2,6.08,24.45,6.16,12.28-5.92,24.53-5.84,12.21,6.08,24.45,6.16,12.29-5.92,24.53-5.84"/><path class="cls-2" d="M6,168.16c12.24.08,12.2,6.08,24.44,6.16s12.28-5.92,24.52-5.84,12.2,6.08,24.44,6.16,12.28-5.92,24.52-5.84,12.2,6.08,24.44,6.16,12.28-5.92,24.52-5.84,12.2,6.08,24.45,6.16,12.28-5.92,24.53-5.84,12.2,6.08,24.45,6.16,12.28-5.92,24.53-5.84,12.21,6.08,24.45,6.16,12.29-5.92,24.53-5.84"/><path class="cls-5" d="M6,168.16c12.24.08,12.2,6.08,24.44,6.16s12.28-5.92,24.52-5.84,12.2,6.08,24.44,6.16,12.28-5.92,24.52-5.84,12.2,6.08,24.44,6.16,12.28-5.92,24.52-5.84,12.2,6.08,24.45,6.16,12.28-5.92,24.53-5.84,12.2,6.08,24.45,6.16,12.28-5.92,24.53-5.84,12.21,6.08,24.45,6.16,12.29-5.92,24.53-5.84"/><path class="cls-2" d="M5.9,180.1c12.24.08,12.2,6.08,24.44,6.16s12.28-5.92,24.52-5.84,12.2,6.08,24.44,6.16,12.28-5.92,24.52-5.84,12.2,6.08,24.44,6.16,12.28-5.92,24.52-5.84,12.2,6.08,24.45,6.16,12.28-5.92,24.53-5.84,12.2,6.08,24.45,6.16,12.28-5.92,24.53-5.84,12.21,6.08,24.45,6.16S287.48,182,299.73,182"/><path class="cls-5" d="M5.9,180.1c12.24.08,12.2,6.08,24.44,6.16s12.28-5.92,24.52-5.84,12.2,6.08,24.44,6.16,12.28-5.92,24.52-5.84,12.2,6.08,24.44,6.16,12.28-5.92,24.52-5.84,12.2,6.08,24.45,6.16,12.28-5.92,24.53-5.84,12.2,6.08,24.45,6.16,12.28-5.92,24.53-5.84,12.21,6.08,24.45,6.16S287.48,182,299.73,182"/><g class="cls-6"><rect class="cls-7" x="-5.22" y="210.74" width="212.59" height="68.16" transform="translate(-143.74 345.9) rotate(-90)"/><rect class="cls-8" x="111.63" y="210.74" width="212.59" height="68.16" transform="translate(-26.9 462.74) rotate(-90)"/><rect class="cls-9" x="51.71" y="216.82" width="212.59" height="56" transform="translate(-86.82 402.82) rotate(-90)"/></g><path class="cls-10" d="M86.23,298.52A4.51,4.51,0,0,0,88,294.9v-1.14a.39.39,0,0,0-.39-.39L41,293.13h0a8.73,8.73,0,0,0,4.2,5.57"/><path class="cls-11" d="M67.12,290.44H84.95a1.05,1.05,0,0,0,.91-1.58L67.51,257.08a1,1,0,0,0-1.09-.51"/><path class="cls-10" d="M67,256.44c-.16,0-.32.11-.4.35l-12.18,32.6c-.17.47,0,1,.39,1H67.12"/><path class="cls-10" d="M67.12,290.44H85.71a.7.7,0,0,0,.6-1l-18.82-32.6a.69.69,0,0,0-.58-.35"/><path class="cls-10" d="M272.23,326.52A4.51,4.51,0,0,0,274,322.9v-1.14a.39.39,0,0,0-.39-.39L227,321.13h0a8.73,8.73,0,0,0,4.2,5.57"/><path class="cls-11" d="M253.12,318.44h17.82a1.05,1.05,0,0,0,.91-1.58l-18.35-31.78a1,1,0,0,0-1.09-.51"/><path class="cls-10" d="M253,284.44c-.16,0-.32.11-.4.35l-12.18,32.6c-.17.47,0,1,.39,1h12.34"/><path class="cls-10" d="M253.12,318.44h18.58a.7.7,0,0,0,.6-1l-18.82-32.6a.69.69,0,0,0-.58-.35"/><path class="cls-10" d="M212.23,161.52A4.51,4.51,0,0,0,214,157.9v-1.14a.39.39,0,0,0-.39-.39L167,156.13h0a8.73,8.73,0,0,0,4.2,5.57"/><path class="cls-11" d="M193.12,153.44h17.82a1.05,1.05,0,0,0,.91-1.58l-18.35-31.78a1,1,0,0,0-1.09-.51"/><path class="cls-10" d="M193,119.44c-.16,0-.32.11-.4.35l-12.18,32.6c-.17.47,0,1,.39,1h12.34"/><path class="cls-10" d="M193.12,153.44h18.58a.7.7,0,0,0,.6-1l-18.82-32.6a.69.69,0,0,0-.58-.35"/><line class="cls-12" x1="236.64" y1="205.48" x2="234.97" y2="216.95"/><path class="cls-12" d="M241.18,201.85v-1.1a.53.53,0,0,0-.53-.53h-2.29a.53.53,0,0,0-.53.53v1.1"/><line class="cls-12" x1="244.04" y1="216.95" x2="242.37" y2="205.48"/><line class="cls-12" x1="235.45" y1="213.37" x2="243.81" y2="213.37"/><line class="cls-12" x1="235.45" y1="213.36" x2="244.04" y2="216.95"/><line class="cls-12" x1="234.96" y1="216.93" x2="243.57" y2="213.38"/><rect class="cls-13" x="234.01" y="217.07" width="10.99" height="3.1" rx="1.55" ry="1.55"/><rect class="cls-13" x="236.16" y="202.38" width="6.45" height="3.1" rx="1.55" ry="1.55"/><line class="cls-14" x1="236.01" y1="209.83" x2="242.73" y2="209.83"/><line class="cls-12" x1="89.64" y1="133.48" x2="87.97" y2="144.95"/><path class="cls-12" d="M94.18,129.85v-1.1a.53.53,0,0,0-.53-.53H91.36a.53.53,0,0,0-.53.53v1.1"/><line class="cls-12" x1="97.04" y1="144.95" x2="95.37" y2="133.48"/><line class="cls-12" x1="88.45" y1="141.37" x2="96.81" y2="141.37"/><line class="cls-12" x1="88.45" y1="141.36" x2="97.04" y2="144.95"/><line class="cls-12" x1="87.96" y1="144.93" x2="96.57" y2="141.38"/><rect class="cls-13" x="87.01" y="145.07" width="10.99" height="3.1" rx="1.55" ry="1.55"/><rect class="cls-13" x="89.16" y="130.38" width="6.45" height="3.1" rx="1.55" ry="1.55"/><line class="cls-14" x1="89.01" y1="137.83" x2="95.73" y2="137.83"/><g class="cls-15"><path class="cls-16" d="M92.75,331.23A14.25,14.25,0,1,0,107,345.48,14.25,14.25,0,0,0,92.75,331.23Zm0,23a8.72,8.72,0,1,1,8.72-8.72A8.72,8.72,0,0,1,92.75,354.2Z"/><polygon class="cls-13" points="106.47 349.35 100.92 347.86 99.15 351.09 103.55 354.78 106.47 349.35"/><polygon class="cls-13" points="97.17 338.2 100.04 333.23 104.53 337.46 99.83 340.75 97.17 338.2"/><polygon class="cls-13" points="84.82 342.4 79.42 340.43 82.81 335.27 86.87 339.33 84.82 342.4"/><polygon class="cls-13" points="87.72 352.34 84.42 357.05 80.32 352.44 85.29 349.57 87.72 352.34"/></g><g class="cls-17"><path class="cls-16" d="M247.75,145.23A14.25,14.25,0,1,0,262,159.48,14.25,14.25,0,0,0,247.75,145.23Zm0,23a8.72,8.72,0,1,1,8.72-8.72A8.72,8.72,0,0,1,247.75,168.2Z"/><polygon class="cls-13" points="261.47 163.35 255.92 161.86 254.15 165.09 258.55 168.78 261.47 163.35"/><polygon class="cls-13" points="252.16 152.21 255.04 147.23 259.53 151.46 254.82 154.75 252.16 152.21"/><polygon class="cls-13" points="239.82 156.4 234.42 154.43 237.81 149.27 241.87 153.33 239.82 156.4"/><polygon class="cls-13" points="242.72 166.34 239.42 171.05 235.32 166.44 240.29 163.57 242.72 166.34"/></g><line class="cls-12" x1="250.64" y1="330.48" x2="248.97" y2="341.95"/><path class="cls-12" d="M255.18,326.85v-1.1a.53.53,0,0,0-.53-.53h-2.29a.53.53,0,0,0-.53.53v1.1"/><line class="cls-12" x1="258.04" y1="341.95" x2="256.37" y2="330.48"/><line class="cls-12" x1="249.45" y1="338.37" x2="257.81" y2="338.37"/><line class="cls-12" x1="249.45" y1="338.36" x2="258.04" y2="341.95"/><line class="cls-12" x1="248.96" y1="341.93" x2="257.57" y2="338.38"/><rect class="cls-13" x="248.01" y="342.07" width="10.99" height="3.1" rx="1.55" ry="1.55"/><rect class="cls-13" x="250.16" y="327.38" width="6.45" height="3.1" rx="1.55" ry="1.55"/><line class="cls-14" x1="250.01" y1="334.83" x2="256.73" y2="334.83"/></g></g></g></svg>