<svg xmlns="http://www.w3.org/2000/svg" viewBox="0 0 185.35 40.04"><defs><style>.cls-1{fill:#333;}.cls-2{fill:#fff;}.cls-3,.cls-4,.cls-6,.cls-7,.cls-8{fill:none;stroke-linecap:round;stroke-miterlimit:10;}.cls-3,.cls-4{stroke:#333;}.cls-3{stroke-width:0.48px;}.cls-4,.cls-8{stroke-width:0.48px;}.cls-5{fill:#3b312f;}.cls-6,.cls-7,.cls-8{stroke:#3b312f;}.cls-6{stroke-width:0.36px;}.cls-7{stroke-width:0.38px;}</style></defs><title>Header + Footer Logo_1</title><g id="Layer_2" data-name="Layer 2"><g id="Layer_1-2" data-name="Layer 1"><path class="cls-1" d="M9.35,32.72S9,16.4,9,14.5c0,0-.76,0-.76-1.9s-.15-7.4,0-8.73c.19-1.71,2.09-1.71,2.28,0v9.87a.74.74,0,0,1-.76.76s-.38,4.93.38,6.07,1.14-3,2.28-6.45C12.92,12.51,16.18,5,17.32,5c0,0-2.66,6.83-3.42,8.73S11.63,21,11.63,22.48V35Z"/><path class="cls-1" d="M1.16,24.94a.15.15,0,0,1-.25-.15c.19-.52.85-2.13,1.23-3.45A14,14,0,0,0,2.52,16c0-2.28,1.14-4.18,1.52-3.42a26.14,26.14,0,0,1,2.66,7.21c.76,3.8,3,12.15,4.55,14.42l1.14,3h-1.9s-2.66-6.83-3.42-9.87S4.42,16.78,4,16.78s-.38,0-.38,2.28a7.86,7.86,0,0,1-1.14,4.18A10.71,10.71,0,0,1,1.16,24.94Z"/><path class="cls-2" d="M37.91,37.47l-25.84.08a4.84,4.84,0,0,1-.48-5.29c1.09-2.17,4.51-3.9,4.51-5"/><path class="cls-1" d="M56.55,18.41q0-1.24-.12-2.49l1.71.06c.56,0,1.13,0,1.71,0q1.42,0,2.53,0t1.49-.07a3.47,3.47,0,0,0-.08.81,4.68,4.68,0,0,0,0,.48c0,.12,0,.24.06.38l-1.22-.08-1.29-.08-1.12-.06-.71,0q-.08,1.06-.09,2.1t0,2.1l2.26-.06,2.11-.1c0,.22-.06.38-.08.5a3.34,3.34,0,0,0,0,.37,1.79,1.79,0,0,0,0,.32q0,.16.07.47-2.19-.17-4.37-.17v1q0,1.6,0,2.84t.12,2.43a6.18,6.18,0,0,0-.71,0H57.14a6.15,6.15,0,0,0-.71,0q.08-1.19.12-2.43t0-2.84V21.25Q56.58,19.65,56.55,18.41Z"/><path class="cls-1" d="M71.14,23.07v.79q0,1.6,0,2.84t.12,2.43a6.17,6.17,0,0,0-.71,0H68.85a6.16,6.16,0,0,0-.71,0q.08-1.19.12-2.43t0-2.84V21.25q0-1.6,0-2.84t-.12-2.49l.71.07q.39,0,.87,0t1.18,0q.66,0,1.64,0,.73,0,1.25,0a7.38,7.38,0,0,1,.89.12,3.19,3.19,0,0,1,.65.2,3.35,3.35,0,0,1,.53.3,3,3,0,0,1,1.25,2.54,3.36,3.36,0,0,1-.77,2.29,4.2,4.2,0,0,1-2.21,1.25q.92,1.63,2,3.26t2.12,3.22c-.29,0-.58,0-.87,0H75.63c-.29,0-.58,0-.87,0l-3.44-6.06ZM74,18.19a1.53,1.53,0,0,0-.53-.76,2,2,0,0,0-.92-.34A10.37,10.37,0,0,0,71.2,17q-.06,2.61-.06,5.23l.22,0h.2a2.61,2.61,0,0,0,1.94-.68,2.84,2.84,0,0,0,.67-2.07A4.24,4.24,0,0,0,74,18.19Z"/><path class="cls-1" d="M81.74,18.41q0-1.24-.1-2.49l1.71.06c.56,0,1.13,0,1.71,0q1.42,0,2.53,0t1.49-.07a3.47,3.47,0,0,0-.08.81,4.68,4.68,0,0,0,0,.48c0,.12,0,.24.06.38l-1.22-.08-1.29-.08-1.12-.06-.71,0q-.08,1.06-.09,2.1t0,2.1l2.26-.06L89,21.4c0,.22-.06.38-.08.5a3.34,3.34,0,0,0,0,.37,1.79,1.79,0,0,0,0,.32q0,.16.07.47-2.19-.17-4.37-.17,0,.62,0,1.23t0,1.23q0,1.25.06,2.4,1.1,0,2.19-.06t2.21-.19c0,.14,0,.27-.06.38a6.23,6.23,0,0,0,0,1,1.42,1.42,0,0,0,.06.29l-1.28,0H82l-.37,0q.07-1.19.1-2.43t0-2.84V21.25Q81.77,19.65,81.74,18.41Z"/><path class="cls-1" d="M93.64,17.52q0-.9-.06-1.6a4,4,0,0,0,1.73,0l4.14,4.58q2,2.25,4.2,4.58V21.54q0-.94,0-1.86t0-1.68q0-.77,0-1.33a6,6,0,0,0-.07-.75,4,4,0,0,0,1.73,0q-.1,1.75-.15,3.16t-.1,2.66q0,1.25,0,2.47t0,2.61v2.31q-.38,0-.79,0a6.55,6.55,0,0,0-.75,0q-4-4.61-8.4-9.29,0,.56,0,1.12t0,1.13v2.23q0,1.15,0,2t0,1.37q0,.56,0,.91c0,.24,0,.43,0,.57a2.83,2.83,0,0,0-.46,0h-.44c-.29,0-.59,0-.88,0a10.64,10.64,0,0,0,.1-1.1q.06-.94.13-2.3t.12-2.94q0-1.59,0-3T93.64,17.52Z"/><path class="cls-1" d="M120.52,27.78a4.66,4.66,0,0,0-.15.82,8.65,8.65,0,0,1-3.92.79,8.85,8.85,0,0,1-3-.47,6.32,6.32,0,0,1-2.23-1.33,5.7,5.7,0,0,1-1.39-2,6.63,6.63,0,0,1-.48-2.54,8.27,8.27,0,0,1,.63-3.39,6.19,6.19,0,0,1,1.67-2.27,6.66,6.66,0,0,1,2.43-1.28,10.34,10.34,0,0,1,2.9-.4,7.69,7.69,0,0,1,1.06.08q.56.08,1.08.2a8.88,8.88,0,0,1,1,.3,4.94,4.94,0,0,1,.8.37,6,6,0,0,0-.3,1,7.54,7.54,0,0,0-.14,1h-.27a4.74,4.74,0,0,0-1.5-1.32,3.91,3.91,0,0,0-1.81-.39,3.79,3.79,0,0,0-1.55.35,4.16,4.16,0,0,0-1.41,1.06,5.44,5.44,0,0,0-1,1.82,7.9,7.9,0,0,0-.39,2.64,7,7,0,0,0,.4,2.53,5,5,0,0,0,1,1.71,4,4,0,0,0,1.46,1,4.64,4.64,0,0,0,1.64.31,4.32,4.32,0,0,0,.94-.11,6.09,6.09,0,0,0,.94-.29,5,5,0,0,0,.88-.45,3.9,3.9,0,0,0,.72-.6l.25.15Q120.63,27.36,120.52,27.78Z"/><path class="cls-1" d="M132.36,22.72l-1.46,0-1.46,0-1.46.06v1.1q0,1.6,0,2.84t.12,2.43a6.17,6.17,0,0,0-.71,0h-1.73a6.16,6.16,0,0,0-.71,0q.08-1.19.12-2.43t0-2.84V21.25q0-1.6,0-2.84T125,15.92l.71.07q.39,0,.87,0c.32,0,.61,0,.87,0l.71-.07q-.1,1.25-.12,2.47t0,2.82l1.2,0h3.43l1.21,0q0-1.6,0-2.82t-.12-2.47l.71.07c.26,0,.54,0,.87,0s.61,0,.87,0l.71-.07q-.08,1.25-.12,2.49t0,2.84v2.62q0,1.6,0,2.84t.12,2.43a6.16,6.16,0,0,0-.71,0h-1.73a6.17,6.17,0,0,0-.71,0q.08-1.19.12-2.43t0-2.84v-1.1Z"/><path class="cls-1" d="M149.26,18.41q0-1.24-.13-2.49l.71.07q.39,0,.87,0,.83,0,1.73,0t1.73,0a6.69,6.69,0,0,1,1.58.17,3.7,3.7,0,0,1,1.23.53,2.37,2.37,0,0,1,.8.92A3,3,0,0,1,158,18.9a2.66,2.66,0,0,1-.33,1.36,3.29,3.29,0,0,1-.8.94,3.88,3.88,0,0,1-1,.59,5.29,5.29,0,0,1-1,.29v0a4.22,4.22,0,0,1,1,.2,3.89,3.89,0,0,1,1.13.57,3.39,3.39,0,0,1,.91,1,2.74,2.74,0,0,1,.38,1.47,3.84,3.84,0,0,1-.37,1.77,3.36,3.36,0,0,1-1,1.19,3.77,3.77,0,0,1-1.43.64,7.51,7.51,0,0,1-1.67.18l-1.43,0-1.39,0H150a7.89,7.89,0,0,0-.87,0q.09-1.19.13-2.43t0-2.84V21.25Q149.3,19.65,149.26,18.41Zm5.84,0a1.77,1.77,0,0,0-.36-.71,1.86,1.86,0,0,0-.63-.48,2.24,2.24,0,0,0-1-.18h-.59l-.36,0q0,.71-.06,1.44t0,1.23c0,.35,0,.68,0,1s0,.64,0,1H153a2.18,2.18,0,0,0,.8-.15,2.09,2.09,0,0,0,.7-.45,2.25,2.25,0,0,0,.5-.76,2.79,2.79,0,0,0,.19-1.08A3.53,3.53,0,0,0,155.1,18.39Zm-.37,5.08a2.26,2.26,0,0,0-1.76-.66h-.83c0,.27,0,.55,0,.84s0,.63,0,1,0,.62,0,.94,0,.63,0,.94,0,.59,0,.85,0,.47,0,.63l.5,0h.56a2,2,0,0,0,.81-.17,1.92,1.92,0,0,0,.67-.51,2.57,2.57,0,0,0,.46-.82,3.29,3.29,0,0,0,.17-1.12A2.89,2.89,0,0,0,154.73,23.47Z"/><path class="cls-1" d="M173.08,29.13q-.46,0-.87,0h-1.63q-.41,0-.82,0l-.63-1.92q-.33-1-.69-2l-1.23,0H165l-1,0q-.38,1-.71,2t-.6,1.92a2.78,2.78,0,0,0-.45,0h-.91a3.57,3.57,0,0,0-.5,0q.23-.5.62-1.38t.85-2l1-2.39,1.06-2.59,1-2.58q.51-1.27.93-2.37l.37.07a2.29,2.29,0,0,0,.73,0l.37-.07,1.32,3.5q.7,1.86,1.41,3.66t1.38,3.41Q172.53,28,173.08,29.13Zm-6.81-9.59q-.5,1.15-.94,2.28t-.87,2.3H168l-.84-2.3Q166.74,20.69,166.28,19.54Z"/><path class="cls-1" d="M181.41,20.43q.38-.7.75-1.47t.71-1.55l.67-1.49L184,16l.45,0,.45,0,.47-.07q-.33.54-.82,1.41l-1,1.89q-.56,1-1.12,2.09t-1,2q0,.46,0,.93c0,.31,0,.63,0,1q0,1,0,1.94t.16,2q-.4,0-.82,0H179q-.41,0-.82,0,0-.88.13-1.81a17.72,17.72,0,0,0,.1-1.85c0-.29,0-.59,0-.89s0-.6,0-.89q-.48-1-1.11-2.14l-1.21-2.3q-.59-1.11-1.08-2l-.72-1.31.87.07.87,0,.86,0,.86-.07q.33.71.74,1.58l.82,1.69q.4.83.75,1.5t.56,1h0A14.54,14.54,0,0,0,181.41,20.43Z"/><path class="cls-1" d="M98.73,36.38a1.37,1.37,0,0,1-1,1.39l1,2.16h-.63l-1-2H95.94v2h-.55v-5h1.77A1.42,1.42,0,0,1,98.73,36.38Zm-1.67,1c.73,0,1.11-.36,1.11-1a1,1,0,0,0-1.08-1H95.94v2Z"/><path class="cls-1" d="M103.53,39.93h-3v-5h3v.5h-2.41v1.71h2.28v.5h-2.28v1.82h2.41Z"/><path class="cls-1" d="M104.81,39.93l1.8-5h.54l1.8,5h-.59l-.53-1.56h-1.92l-.53,1.56Zm2.05-4.34-.8,2.32h1.61l-.8-2.32Z"/><path class="cls-1" d="M113.36,39.93h-2.91v-5H111v4.52h2.37Z"/><path class="cls-1" d="M120.07,39.93h-3v-5h3v.5h-2.41v1.71h2.28v.5h-2.28v1.82h2.41Z"/><path class="cls-1" d="M122,38.6c0,.5.47.94,1.29.94s1.21-.36,1.21-.94-.28-.7-.87-.85l-.87-.23a1.34,1.34,0,0,1-1.16-1.3,1.73,1.73,0,0,1,3.4,0h-.55c0-.49-.42-.9-1.16-.9s-1.13.32-1.13.89c0,.39.24.67.75.8l.85.23c.79.21,1.31.56,1.31,1.35,0,1-.82,1.47-1.84,1.47-1.3,0-1.75-.8-1.78-1.44Z"/><path class="cls-1" d="M127.85,39.93V35.41h-1.56v-.5h3.66v.5h-1.56v4.52Z"/><path class="cls-1" d="M130.45,39.93l1.8-5h.54l1.8,5H134l-.53-1.56h-1.92L131,39.93Zm2.05-4.34-.8,2.32h1.61l-.8-2.32Z"/><path class="cls-1" d="M136.65,39.93V35.41h-1.56v-.5h3.66v.5h-1.56v4.52Z"/><path class="cls-1" d="M143.17,39.93h-3v-5h3v.5h-2.41v1.71H143v.5h-2.28v1.82h2.41Z"/><line class="cls-3" x1="88.84" y1="37.41" x2="56.82" y2="37.41"/><line class="cls-4" x1="184.29" y1="37.41" x2="150.02" y2="37.41"/><path class="cls-2" d="M15.83,27.63a2.85,2.85,0,0,0-2.79-3c-.56,0-4.46.64-6.26.76-.15,0-.52-.12-.48-.36s.9-.46,1-.48c.5-.16,5.16-2.38,5.16-2.38a1.08,1.08,0,0,0,.38-.29"/><path class="cls-5" d="M35.92,28.55c0-.76-.76-12.91-.76-13.66,0-.38,1.14,0,1.14-1.52,0,0-1.09-10.63-1.14-11C35.09,1.81,34.59.65,33.45,1s-1,1.11-.95,1.71c.19,1.33.76,10.25.76,10.63s.38,1.52,1.14,1.52c.38,0,.38,9.87.38,9.87Z"/><path class="cls-1" d="M28.25,9.82a.26.26,0,0,0-.44,0c-.51,1.07-2.36,4.81-3.66,5.79-1.52,1.14-2.66,2.28-3.8,2.28l1.9-1.9a17.52,17.52,0,0,0,3.42-5.69c.38-1.52,1.14-3.8,1.52-3.8s1.52-.76,2.66,2.28,3.26,9.15,3.8,11c.76,2.66,2.28,8.73,2.28,8.73H34.4s-2.28-9.49-4.18-14.42A21.71,21.71,0,0,0,28.25,9.82Z"/><path class="cls-1" d="M38.77,28.74s1.52-6.45,1.9-9.49-.38-7.21-.38-9.11,0-5.31,1.14-6.83a6.57,6.57,0,0,1,1.9-1.9A9.52,9.52,0,0,0,41.8,4.83a28,28,0,0,0,0,8A21.82,21.82,0,0,1,42.18,20c-.39,2.74-1.52,8.73-1.52,8.73Z"/><path class="cls-1" d="M40.48,28.55s5.69-10.63,6.45-12.15,2.7-6,3.8-8.35a3.8,3.8,0,0,1,.38-.76c.26-.28-.38,1.14-.76,1.9s-3.42,8.73-3.42,8.73L42,28.55Z"/><path class="cls-6" d="M9.26,2.57s-.1-1.16.66-1.16"/><line class="cls-6" x1="33.64" y1="0.18" x2="33.64" y2="1.32"/><rect class="cls-1" x="33.13" y="0.93" width="2.76" height="13.78" rx="1.38" ry="1.38" transform="translate(-0.53 2.89) rotate(-4.76)"/><rect class="cls-1" x="8.14" y="2.43" width="2.56" height="12.17" rx="1.28" ry="1.28"/><path class="cls-1" d="M7,25.24a.22.22,0,0,1-.1-.42l5.47-2.44a1,1,0,0,0,.36-.26c.83-.94,3.09-3.57,6.31-2.49,2.28.76,3.85,4.6,1.52,7.59-1.33,1.71-1.2,3.52,2.28,1.9,2.85-1.33,8-1.14,10.63-1.14,2.37,0,6.39.38,7.59.38a11.47,11.47,0,0,0,3.42-1.14l-.38,1.52L46.36,28s-2.28,1.9-2.28,2.28c0,0,.76.76,2.28-1.14l.38,1.14.76-.76v1.9L49,30.64a7.72,7.72,0,0,0-.38,1.9c0,1.2-2.28,1.9-3.8,2.28a19.83,19.83,0,0,0-6.45,2.66H12.2a5,5,0,0,1-.38-5.31c1.09-2.17,3.8-3.8,3.8-4.93A2.64,2.64,0,0,0,13,24.56C12.42,24.56,8.71,25.13,7,25.24Z"/><line class="cls-7" x1="50.52" y1="37.41" x2="52.44" y2="37.41"/><line class="cls-8" x1="43" y1="37.41" x2="49.02" y2="37.41"/><line class="cls-8" x1="0.24" y1="37.41" x2="43" y2="37.41"/><line class="cls-8" x1="12.73" y1="38.99" x2="46.74" y2="38.99"/><line class="cls-8" x1="5.36" y1="38.99" x2="11.07" y2="38.99"/></g></g></svg>