<?xml version="1.0" encoding="utf-8"?>
<!-- Generator: Adobe Illustrator 21.0.2, SVG Export Plug-In . SVG Version: 6.00 Build 0)  -->
<svg version="1.1" id="Layer_1" xmlns="http://www.w3.org/2000/svg" xmlns:xlink="http://www.w3.org/1999/xlink" x="0px" y="0px"
	 viewBox="0 0 14 26" style="enable-background:new 0 0 14 26;" xml:space="preserve">
<style type="text/css">
	.st0{fill:none;enable-background:new    ;}
	.st1{fill:#333333;}
</style>
<path class="st0" d="z"/>
<g>
	<g>
		<path class="st1" d="M13.5,0l-3.4,0C6.3,0,3.9,2.5,3.9,6.4v2.9H0.5C0.2,9.3,0,9.5,0,9.8v4.3c0,0.3,0.2,0.5,0.5,0.5h3.4v10.7
			c0,0.3,0.2,0.5,0.5,0.5h4.4c0.3,0,0.5-0.2,0.5-0.5V14.6h3.9c0.3,0,0.5-0.2,0.5-0.5l0-4.3c0-0.1-0.1-0.3-0.2-0.4
			c-0.1-0.1-0.2-0.2-0.4-0.2H9.4V6.8C9.4,5.6,9.7,5,11.2,5l2.3,0C13.8,5,14,4.8,14,4.5v-4C14,0.2,13.8,0,13.5,0z"/>
	</g>
	<g>
	</g>
	<g>
	</g>
	<g>
	</g>
	<g>
	</g>
	<g>
	</g>
	<g>
	</g>
	<g>
	</g>
	<g>
	</g>
	<g>
	</g>
	<g>
	</g>
	<g>
	</g>
	<g>
	</g>
	<g>
	</g>
	<g>
	</g>
	<g>
	</g>
</g>
</svg>
