<svg xmlns="http://www.w3.org/2000/svg" viewBox="0 0 98 27"><defs><style>.cls-1{fill:#712d37;}.cls-2{fill:#fff;}</style></defs><title>SUMBIT button</title><g id="Layer_2" data-name="Layer 2"><g id="Home_Page" data-name="Home Page"><rect class="cls-1" width="98" height="27" rx="5" ry="5"/><path class="cls-2" d="M23.08,15.56c.09.92.87,1.74,2.4,1.74,1.35,0,2.24-.67,2.24-1.74,0-.84-.52-1.3-1.62-1.59l-1.61-.43a2.5,2.5,0,0,1-2.15-2.41c0-1.71,1.52-2.65,3.16-2.65s3.12.83,3.16,2.6h-1a1.9,1.9,0,0,0-2.16-1.67c-1.22,0-2.11.59-2.11,1.65,0,.73.44,1.24,1.39,1.48l1.58.43c1.46.4,2.43,1,2.43,2.52,0,1.8-1.52,2.74-3.42,2.74-2.42,0-3.26-1.5-3.3-2.67Z"/><path class="cls-2" d="M32.88,14.8a2.46,2.46,0,1,0,4.93,0V8.71h1V14.8a3.27,3.27,0,0,1-3.48,3.43,3.29,3.29,0,0,1-3.48-3.46V8.71h1Z"/><path class="cls-2" d="M42.47,18V8.71h1l3.21,7.47h0l3.2-7.47h1V18h-.92V11h0l-2.78,6.32H46.2L43.42,11h0v7Z"/><path class="cls-2" d="M54.61,8.71H58A2.28,2.28,0,0,1,60.58,11a2,2,0,0,1-1.5,2.08v0a2.18,2.18,0,0,1,2,2.31c0,1.68-1.31,2.6-3.23,2.6H54.61Zm1,4.07H57.2c1.5,0,2.34-.45,2.34-1.61s-.73-1.54-1.7-1.54H55.63Zm0,4.33H57.4c1.54,0,2.68-.29,2.68-1.65,0-1.2-.87-1.76-2.07-1.76H55.63Z"/><path class="cls-2" d="M64.33,18V8.71h1V18Z"/><path class="cls-2" d="M71,18V9.63h-2.9V8.71h6.81v.92H72V18Z"/></g></g></svg>