<svg xmlns="http://www.w3.org/2000/svg" xmlns:xlink="http://www.w3.org/1999/xlink" viewBox="0 0 1300.5 650"><defs><style>.cls-1,.cls-19,.cls-21,.cls-25,.cls-28,.cls-34,.cls-37,.cls-39,.cls-42,.cls-49,.cls-50,.cls-54,.cls-55,.cls-56,.cls-63,.cls-72,.cls-74{fill:none;}.cls-2{clip-path:url(#clip-path);}.cls-3{clip-path:url(#clip-path-2);}.cls-4{fill:#414042;}.cls-5{clip-path:url(#clip-path-3);}.cls-6{clip-path:url(#clip-path-4);}.cls-7{clip-path:url(#clip-path-5);}.cls-8{clip-path:url(#clip-path-6);}.cls-9{clip-path:url(#clip-path-7);}.cls-10{clip-path:url(#clip-path-8);}.cls-11{clip-path:url(#clip-path-9);}.cls-12{clip-path:url(#clip-path-10);}.cls-13{clip-path:url(#clip-path-11);}.cls-14{clip-path:url(#clip-path-12);}.cls-15{clip-path:url(#clip-path-13);}.cls-16{clip-path:url(#clip-path-14);}.cls-17{fill:#c3dbac;}.cls-18,.cls-27,.cls-77{fill:#b9d1ef;}.cls-19,.cls-23,.cls-24,.cls-27,.cls-28,.cls-30,.cls-32,.cls-33,.cls-35,.cls-42,.cls-43,.cls-45,.cls-49,.cls-51,.cls-77{stroke:#414042;}.cls-19,.cls-21,.cls-25,.cls-26,.cls-27,.cls-33,.cls-34,.cls-37,.cls-39,.cls-40,.cls-41,.cls-42,.cls-43,.cls-45,.cls-50,.cls-52,.cls-53,.cls-55,.cls-59,.cls-60,.cls-63,.cls-67,.cls-68,.cls-70,.cls-72{stroke-linecap:round;}.cls-19,.cls-21,.cls-28,.cls-32,.cls-33,.cls-34,.cls-35,.cls-44,.cls-46,.cls-48,.cls-50,.cls-55,.cls-56,.cls-60,.cls-63,.cls-69,.cls-72,.cls-74{stroke-miterlimit:10;}.cls-19,.cls-21,.cls-23,.cls-24,.cls-25,.cls-26,.cls-27,.cls-28,.cls-30,.cls-32,.cls-33,.cls-34,.cls-35,.cls-37,.cls-39,.cls-40,.cls-41,.cls-42,.cls-43,.cls-44,.cls-45,.cls-46,.cls-48,.cls-49,.cls-50,.cls-51,.cls-52,.cls-53,.cls-54,.cls-55,.cls-56,.cls-59,.cls-60,.cls-63,.cls-64,.cls-65,.cls-66,.cls-67,.cls-68,.cls-69,.cls-70,.cls-71,.cls-72,.cls-74,.cls-77{stroke-width:0.75px;}.cls-20{fill:#84c69f;}.cls-21{stroke:#414141;}.cls-22,.cls-69{fill:#c8dfae;}.cls-23,.cls-26,.cls-31,.cls-32,.cls-33,.cls-40,.cls-45,.cls-48,.cls-52,.cls-64,.cls-71{fill:#fff;}.cls-23,.cls-24,.cls-25,.cls-26,.cls-27,.cls-30,.cls-37,.cls-39,.cls-40,.cls-41,.cls-42,.cls-43,.cls-45,.cls-49,.cls-51,.cls-52,.cls-53,.cls-54,.cls-59,.cls-64,.cls-65,.cls-66,.cls-67,.cls-68,.cls-70,.cls-71,.cls-77{stroke-linejoin:round;}.cls-24,.cls-36,.cls-43,.cls-44,.cls-46{fill:url(#New_Pattern_2);}.cls-25,.cls-26,.cls-53,.cls-71,.cls-72{stroke:#4d4d4d;}.cls-29,.cls-51,.cls-60{fill:#fcc062;}.cls-30,.cls-35,.cls-78{fill:#722c36;}.cls-34{stroke:#00468b;}.cls-37,.cls-48,.cls-52,.cls-56,.cls-59,.cls-60,.cls-63,.cls-64,.cls-65,.cls-66,.cls-67,.cls-68,.cls-69,.cls-70{stroke:#333;}.cls-38{fill:#fbb03b;}.cls-39,.cls-40,.cls-54{stroke:#000;}.cls-41,.cls-59{fill:#8eb9db;}.cls-41{stroke:#8eb9db;}.cls-43,.cls-44{opacity:0.5;}.cls-44,.cls-46{stroke:url(#New_Pattern_3);}.cls-47{fill:url(#New_Pattern_3);}.cls-50{stroke:#024b87;}.cls-53,.cls-70{fill:#e6e7e8;}.cls-55{stroke:#b9d1ef;}.cls-57{fill:url(#New_Pattern_2-21);}.cls-58{fill:url(#New_Pattern_2-23);}.cls-61{fill:#333;}.cls-62{fill:url(#New_Pattern_2-25);}.cls-65{fill:url(#New_Pattern_2-27);}.cls-66{fill:url(#New_Pattern_2-29);}.cls-67{fill:url(#New_Pattern_2-31);}.cls-68{fill:url(#New_Pattern_2-33);}.cls-73{opacity:0.75;fill:url(#New_Gradient_Swatch);}.cls-74{stroke:#020202;}.cls-75{fill:url(#linear-gradient);}.cls-76{fill:url(#linear-gradient-2);}.cls-79{fill:#87c4b3;}.cls-80{fill:#193057;}.cls-81{fill:#00468b;}</style><clipPath id="clip-path"><circle class="cls-1" cx="4.5" cy="8" r="1"/></clipPath><clipPath id="clip-path-2"><rect class="cls-1" x="1.5" y="5" width="6" height="8"/></clipPath><clipPath id="clip-path-3"><circle class="cls-1" cx="1.5" cy="8" r="1"/></clipPath><clipPath id="clip-path-4"><rect class="cls-1" x="-1.5" y="5" width="6" height="8"/></clipPath><clipPath id="clip-path-5"><circle class="cls-1" cx="6" cy="4" r="1"/></clipPath><clipPath id="clip-path-6"><rect class="cls-1" x="3" y="1" width="6" height="8"/></clipPath><clipPath id="clip-path-7"><circle class="cls-1" cx="3" cy="4" r="1"/></clipPath><clipPath id="clip-path-8"><rect class="cls-1" y="1" width="6" height="8"/></clipPath><clipPath id="clip-path-9"><circle class="cls-1" cy="4" r="1"/></clipPath><clipPath id="clip-path-10"><rect class="cls-1" x="-3" y="1" width="6" height="8"/></clipPath><clipPath id="clip-path-11"><circle class="cls-1" cx="4.5" r="1"/></clipPath><clipPath id="clip-path-12"><rect class="cls-1" x="1.5" y="-3" width="6" height="8"/></clipPath><clipPath id="clip-path-13"><circle class="cls-1" cx="1.5" r="1"/></clipPath><clipPath id="clip-path-14"><rect class="cls-1" x="-1.5" y="-3" width="6" height="8"/></clipPath><pattern id="New_Pattern_2" data-name="New Pattern 2" width="6" height="8" patternTransform="translate(3 6)" patternUnits="userSpaceOnUse" viewBox="0 0 6 8"><rect class="cls-1" width="6" height="8"/><g class="cls-2"><g class="cls-3"><circle class="cls-4" cx="6" cy="5" r="1"/><circle class="cls-4" cx="3" cy="5" r="1"/></g></g><g class="cls-5"><g class="cls-6"><circle class="cls-4" cx="3" cy="5" r="1"/><circle class="cls-4" cy="5" r="1"/></g></g><g class="cls-7"><g class="cls-8"><circle class="cls-4" cx="6" cy="5" r="1"/><circle class="cls-4" cx="3" cy="5" r="1"/><circle class="cls-4" cx="4.5" cy="1" r="1"/></g></g><g class="cls-9"><g class="cls-10"><circle class="cls-4" cx="4.5" cy="9" r="1"/><circle class="cls-4" cx="1.5" cy="9" r="1"/><circle class="cls-4" cx="6" cy="5" r="1"/><circle class="cls-4" cx="3" cy="5" r="1"/><circle class="cls-4" cy="5" r="1"/><circle class="cls-4" cx="4.5" cy="1" r="1"/><circle class="cls-4" cx="1.5" cy="1" r="1"/></g></g><g class="cls-11"><g class="cls-12"><circle class="cls-4" cx="3" cy="5" r="1"/><circle class="cls-4" cy="5" r="1"/><circle class="cls-4" cx="1.5" cy="1" r="1"/></g></g><g class="cls-13"><g class="cls-14"><circle class="cls-4" cx="6" cy="5" r="1"/><circle class="cls-4" cx="3" cy="5" r="1"/><circle class="cls-4" cx="4.5" cy="1" r="1"/><circle class="cls-4" cx="1.5" cy="1" r="1"/></g></g><g class="cls-15"><g class="cls-16"><circle class="cls-4" cx="3" cy="5" r="1"/><circle class="cls-4" cy="5" r="1"/><circle class="cls-4" cx="4.5" cy="1" r="1"/><circle class="cls-4" cx="1.5" cy="1" r="1"/></g></g></pattern><pattern id="New_Pattern_3" data-name="New Pattern 3" width="8" height="8" patternTransform="translate(3 6)" patternUnits="userSpaceOnUse" viewBox="0 0 8 8"><rect class="cls-1" width="8" height="8"/><circle class="cls-4" cx="6" cy="8" r="1"/><circle class="cls-4" cx="2" cy="8" r="1"/><circle class="cls-4" cx="8" cy="4" r="1"/><circle class="cls-4" cx="4" cy="4" r="1"/><circle class="cls-4" cy="4" r="1"/><circle class="cls-4" cx="6" r="1"/><circle class="cls-4" cx="2" r="1"/></pattern><pattern id="New_Pattern_2-21" data-name="New Pattern 2" width="6" height="8" patternTransform="translate(-6.91 16.68) scale(0.43 0.53)" patternUnits="userSpaceOnUse" viewBox="0 0 6 8"><rect class="cls-1" width="6" height="8"/><g class="cls-2"><g class="cls-3"><circle class="cls-4" cx="6" cy="5" r="1"/><circle class="cls-4" cx="3" cy="5" r="1"/></g></g><g class="cls-5"><g class="cls-6"><circle class="cls-4" cx="3" cy="5" r="1"/><circle class="cls-4" cy="5" r="1"/></g></g><g class="cls-7"><g class="cls-8"><circle class="cls-4" cx="6" cy="5" r="1"/><circle class="cls-4" cx="3" cy="5" r="1"/><circle class="cls-4" cx="4.5" cy="1" r="1"/></g></g><g class="cls-9"><g class="cls-10"><circle class="cls-4" cx="4.5" cy="9" r="1"/><circle class="cls-4" cx="1.5" cy="9" r="1"/><circle class="cls-4" cx="6" cy="5" r="1"/><circle class="cls-4" cx="3" cy="5" r="1"/><circle class="cls-4" cy="5" r="1"/><circle class="cls-4" cx="4.5" cy="1" r="1"/><circle class="cls-4" cx="1.5" cy="1" r="1"/></g></g><g class="cls-11"><g class="cls-12"><circle class="cls-4" cx="3" cy="5" r="1"/><circle class="cls-4" cy="5" r="1"/><circle class="cls-4" cx="1.5" cy="1" r="1"/></g></g><g class="cls-13"><g class="cls-14"><circle class="cls-4" cx="6" cy="5" r="1"/><circle class="cls-4" cx="3" cy="5" r="1"/><circle class="cls-4" cx="4.5" cy="1" r="1"/><circle class="cls-4" cx="1.5" cy="1" r="1"/></g></g><g class="cls-15"><g class="cls-16"><circle class="cls-4" cx="3" cy="5" r="1"/><circle class="cls-4" cy="5" r="1"/><circle class="cls-4" cx="4.5" cy="1" r="1"/><circle class="cls-4" cx="1.5" cy="1" r="1"/></g></g></pattern><pattern id="New_Pattern_2-23" data-name="New Pattern 2" width="6" height="8" patternTransform="translate(-3.06 10.32) scale(0.59)" patternUnits="userSpaceOnUse" viewBox="0 0 6 8"><rect class="cls-1" width="6" height="8"/><g class="cls-2"><g class="cls-3"><circle class="cls-4" cx="6" cy="5" r="1"/><circle class="cls-4" cx="3" cy="5" r="1"/></g></g><g class="cls-5"><g class="cls-6"><circle class="cls-4" cx="3" cy="5" r="1"/><circle class="cls-4" cy="5" r="1"/></g></g><g class="cls-7"><g class="cls-8"><circle class="cls-4" cx="6" cy="5" r="1"/><circle class="cls-4" cx="3" cy="5" r="1"/><circle class="cls-4" cx="4.5" cy="1" r="1"/></g></g><g class="cls-9"><g class="cls-10"><circle class="cls-4" cx="4.5" cy="9" r="1"/><circle class="cls-4" cx="1.5" cy="9" r="1"/><circle class="cls-4" cx="6" cy="5" r="1"/><circle class="cls-4" cx="3" cy="5" r="1"/><circle class="cls-4" cy="5" r="1"/><circle class="cls-4" cx="4.5" cy="1" r="1"/><circle class="cls-4" cx="1.5" cy="1" r="1"/></g></g><g class="cls-11"><g class="cls-12"><circle class="cls-4" cx="3" cy="5" r="1"/><circle class="cls-4" cy="5" r="1"/><circle class="cls-4" cx="1.5" cy="1" r="1"/></g></g><g class="cls-13"><g class="cls-14"><circle class="cls-4" cx="6" cy="5" r="1"/><circle class="cls-4" cx="3" cy="5" r="1"/><circle class="cls-4" cx="4.5" cy="1" r="1"/><circle class="cls-4" cx="1.5" cy="1" r="1"/></g></g><g class="cls-15"><g class="cls-16"><circle class="cls-4" cx="3" cy="5" r="1"/><circle class="cls-4" cy="5" r="1"/><circle class="cls-4" cx="4.5" cy="1" r="1"/><circle class="cls-4" cx="1.5" cy="1" r="1"/></g></g></pattern><pattern id="New_Pattern_2-25" data-name="New Pattern 2" width="6" height="8" patternTransform="translate(-3.36 10.38) scale(0.68 0.64)" patternUnits="userSpaceOnUse" viewBox="0 0 6 8"><rect class="cls-1" width="6" height="8"/><g class="cls-2"><g class="cls-3"><circle class="cls-4" cx="6" cy="5" r="1"/><circle class="cls-4" cx="3" cy="5" r="1"/></g></g><g class="cls-5"><g class="cls-6"><circle class="cls-4" cx="3" cy="5" r="1"/><circle class="cls-4" cy="5" r="1"/></g></g><g class="cls-7"><g class="cls-8"><circle class="cls-4" cx="6" cy="5" r="1"/><circle class="cls-4" cx="3" cy="5" r="1"/><circle class="cls-4" cx="4.5" cy="1" r="1"/></g></g><g class="cls-9"><g class="cls-10"><circle class="cls-4" cx="4.5" cy="9" r="1"/><circle class="cls-4" cx="1.5" cy="9" r="1"/><circle class="cls-4" cx="6" cy="5" r="1"/><circle class="cls-4" cx="3" cy="5" r="1"/><circle class="cls-4" cy="5" r="1"/><circle class="cls-4" cx="4.5" cy="1" r="1"/><circle class="cls-4" cx="1.5" cy="1" r="1"/></g></g><g class="cls-11"><g class="cls-12"><circle class="cls-4" cx="3" cy="5" r="1"/><circle class="cls-4" cy="5" r="1"/><circle class="cls-4" cx="1.5" cy="1" r="1"/></g></g><g class="cls-13"><g class="cls-14"><circle class="cls-4" cx="6" cy="5" r="1"/><circle class="cls-4" cx="3" cy="5" r="1"/><circle class="cls-4" cx="4.5" cy="1" r="1"/><circle class="cls-4" cx="1.5" cy="1" r="1"/></g></g><g class="cls-15"><g class="cls-16"><circle class="cls-4" cx="3" cy="5" r="1"/><circle class="cls-4" cy="5" r="1"/><circle class="cls-4" cx="4.5" cy="1" r="1"/><circle class="cls-4" cx="1.5" cy="1" r="1"/></g></g></pattern><pattern id="New_Pattern_2-27" data-name="New Pattern 2" width="6" height="8" patternTransform="translate(-10.25 13.67) scale(0.44 0.51)" patternUnits="userSpaceOnUse" viewBox="0 0 6 8"><rect class="cls-1" width="6" height="8"/><g class="cls-2"><g class="cls-3"><circle class="cls-4" cx="6" cy="5" r="1"/><circle class="cls-4" cx="3" cy="5" r="1"/></g></g><g class="cls-5"><g class="cls-6"><circle class="cls-4" cx="3" cy="5" r="1"/><circle class="cls-4" cy="5" r="1"/></g></g><g class="cls-7"><g class="cls-8"><circle class="cls-4" cx="6" cy="5" r="1"/><circle class="cls-4" cx="3" cy="5" r="1"/><circle class="cls-4" cx="4.5" cy="1" r="1"/></g></g><g class="cls-9"><g class="cls-10"><circle class="cls-4" cx="4.5" cy="9" r="1"/><circle class="cls-4" cx="1.5" cy="9" r="1"/><circle class="cls-4" cx="6" cy="5" r="1"/><circle class="cls-4" cx="3" cy="5" r="1"/><circle class="cls-4" cy="5" r="1"/><circle class="cls-4" cx="4.5" cy="1" r="1"/><circle class="cls-4" cx="1.5" cy="1" r="1"/></g></g><g class="cls-11"><g class="cls-12"><circle class="cls-4" cx="3" cy="5" r="1"/><circle class="cls-4" cy="5" r="1"/><circle class="cls-4" cx="1.5" cy="1" r="1"/></g></g><g class="cls-13"><g class="cls-14"><circle class="cls-4" cx="6" cy="5" r="1"/><circle class="cls-4" cx="3" cy="5" r="1"/><circle class="cls-4" cx="4.5" cy="1" r="1"/><circle class="cls-4" cx="1.5" cy="1" r="1"/></g></g><g class="cls-15"><g class="cls-16"><circle class="cls-4" cx="3" cy="5" r="1"/><circle class="cls-4" cy="5" r="1"/><circle class="cls-4" cx="4.5" cy="1" r="1"/><circle class="cls-4" cx="1.5" cy="1" r="1"/></g></g></pattern><pattern id="New_Pattern_2-29" data-name="New Pattern 2" width="6" height="8" patternTransform="translate(-9.66 15.41) scale(0.44 0.55)" patternUnits="userSpaceOnUse" viewBox="0 0 6 8"><rect class="cls-1" width="6" height="8"/><g class="cls-2"><g class="cls-3"><circle class="cls-4" cx="6" cy="5" r="1"/><circle class="cls-4" cx="3" cy="5" r="1"/></g></g><g class="cls-5"><g class="cls-6"><circle class="cls-4" cx="3" cy="5" r="1"/><circle class="cls-4" cy="5" r="1"/></g></g><g class="cls-7"><g class="cls-8"><circle class="cls-4" cx="6" cy="5" r="1"/><circle class="cls-4" cx="3" cy="5" r="1"/><circle class="cls-4" cx="4.5" cy="1" r="1"/></g></g><g class="cls-9"><g class="cls-10"><circle class="cls-4" cx="4.5" cy="9" r="1"/><circle class="cls-4" cx="1.5" cy="9" r="1"/><circle class="cls-4" cx="6" cy="5" r="1"/><circle class="cls-4" cx="3" cy="5" r="1"/><circle class="cls-4" cy="5" r="1"/><circle class="cls-4" cx="4.5" cy="1" r="1"/><circle class="cls-4" cx="1.5" cy="1" r="1"/></g></g><g class="cls-11"><g class="cls-12"><circle class="cls-4" cx="3" cy="5" r="1"/><circle class="cls-4" cy="5" r="1"/><circle class="cls-4" cx="1.5" cy="1" r="1"/></g></g><g class="cls-13"><g class="cls-14"><circle class="cls-4" cx="6" cy="5" r="1"/><circle class="cls-4" cx="3" cy="5" r="1"/><circle class="cls-4" cx="4.5" cy="1" r="1"/><circle class="cls-4" cx="1.5" cy="1" r="1"/></g></g><g class="cls-15"><g class="cls-16"><circle class="cls-4" cx="3" cy="5" r="1"/><circle class="cls-4" cy="5" r="1"/><circle class="cls-4" cx="4.5" cy="1" r="1"/><circle class="cls-4" cx="1.5" cy="1" r="1"/></g></g></pattern><pattern id="New_Pattern_2-31" data-name="New Pattern 2" width="6" height="8" patternTransform="translate(-5.07 7.2) scale(0.65)" patternUnits="userSpaceOnUse" viewBox="0 0 6 8"><rect class="cls-1" width="6" height="8"/><g class="cls-2"><g class="cls-3"><circle class="cls-4" cx="6" cy="5" r="1"/><circle class="cls-4" cx="3" cy="5" r="1"/></g></g><g class="cls-5"><g class="cls-6"><circle class="cls-4" cx="3" cy="5" r="1"/><circle class="cls-4" cy="5" r="1"/></g></g><g class="cls-7"><g class="cls-8"><circle class="cls-4" cx="6" cy="5" r="1"/><circle class="cls-4" cx="3" cy="5" r="1"/><circle class="cls-4" cx="4.5" cy="1" r="1"/></g></g><g class="cls-9"><g class="cls-10"><circle class="cls-4" cx="4.5" cy="9" r="1"/><circle class="cls-4" cx="1.5" cy="9" r="1"/><circle class="cls-4" cx="6" cy="5" r="1"/><circle class="cls-4" cx="3" cy="5" r="1"/><circle class="cls-4" cy="5" r="1"/><circle class="cls-4" cx="4.5" cy="1" r="1"/><circle class="cls-4" cx="1.5" cy="1" r="1"/></g></g><g class="cls-11"><g class="cls-12"><circle class="cls-4" cx="3" cy="5" r="1"/><circle class="cls-4" cy="5" r="1"/><circle class="cls-4" cx="1.5" cy="1" r="1"/></g></g><g class="cls-13"><g class="cls-14"><circle class="cls-4" cx="6" cy="5" r="1"/><circle class="cls-4" cx="3" cy="5" r="1"/><circle class="cls-4" cx="4.5" cy="1" r="1"/><circle class="cls-4" cx="1.5" cy="1" r="1"/></g></g><g class="cls-15"><g class="cls-16"><circle class="cls-4" cx="3" cy="5" r="1"/><circle class="cls-4" cy="5" r="1"/><circle class="cls-4" cx="4.5" cy="1" r="1"/><circle class="cls-4" cx="1.5" cy="1" r="1"/></g></g></pattern><pattern id="New_Pattern_2-33" data-name="New Pattern 2" width="6" height="8" patternTransform="translate(20.46 7.2) scale(0.65)" patternUnits="userSpaceOnUse" viewBox="0 0 6 8"><rect class="cls-1" width="6" height="8"/><g class="cls-2"><g class="cls-3"><circle class="cls-4" cx="6" cy="5" r="1"/><circle class="cls-4" cx="3" cy="5" r="1"/></g></g><g class="cls-5"><g class="cls-6"><circle class="cls-4" cx="3" cy="5" r="1"/><circle class="cls-4" cy="5" r="1"/></g></g><g class="cls-7"><g class="cls-8"><circle class="cls-4" cx="6" cy="5" r="1"/><circle class="cls-4" cx="3" cy="5" r="1"/><circle class="cls-4" cx="4.5" cy="1" r="1"/></g></g><g class="cls-9"><g class="cls-10"><circle class="cls-4" cx="4.5" cy="9" r="1"/><circle class="cls-4" cx="1.5" cy="9" r="1"/><circle class="cls-4" cx="6" cy="5" r="1"/><circle class="cls-4" cx="3" cy="5" r="1"/><circle class="cls-4" cy="5" r="1"/><circle class="cls-4" cx="4.5" cy="1" r="1"/><circle class="cls-4" cx="1.5" cy="1" r="1"/></g></g><g class="cls-11"><g class="cls-12"><circle class="cls-4" cx="3" cy="5" r="1"/><circle class="cls-4" cy="5" r="1"/><circle class="cls-4" cx="1.5" cy="1" r="1"/></g></g><g class="cls-13"><g class="cls-14"><circle class="cls-4" cx="6" cy="5" r="1"/><circle class="cls-4" cx="3" cy="5" r="1"/><circle class="cls-4" cx="4.5" cy="1" r="1"/><circle class="cls-4" cx="1.5" cy="1" r="1"/></g></g><g class="cls-15"><g class="cls-16"><circle class="cls-4" cx="3" cy="5" r="1"/><circle class="cls-4" cy="5" r="1"/><circle class="cls-4" cx="4.5" cy="1" r="1"/><circle class="cls-4" cx="1.5" cy="1" r="1"/></g></g></pattern><linearGradient id="New_Gradient_Swatch" x1="921.9" y1="547.61" x2="925.9" y2="415.72" gradientUnits="userSpaceOnUse"><stop offset="0.17" stop-color="#1b1464"/><stop offset="0.66" stop-color="#f25b45"/><stop offset="0.7" stop-color="#f46d43"/><stop offset="0.78" stop-color="#f78a3f"/><stop offset="0.85" stop-color="#f99f3d"/><stop offset="0.93" stop-color="#fbac3b"/><stop offset="1" stop-color="#fbb03b"/></linearGradient><linearGradient id="linear-gradient" y1="325" x2="26" y2="325" gradientUnits="userSpaceOnUse"><stop offset="0.69" stop-color="#fff"/><stop offset="0.72" stop-color="#fff" stop-opacity="0.98"/><stop offset="0.76" stop-color="#fff" stop-opacity="0.93"/><stop offset="0.8" stop-color="#fff" stop-opacity="0.84"/><stop offset="0.84" stop-color="#fff" stop-opacity="0.71"/><stop offset="0.89" stop-color="#fff" stop-opacity="0.55"/><stop offset="0.93" stop-color="#fff" stop-opacity="0.35"/><stop offset="0.98" stop-color="#fff" stop-opacity="0.12"/><stop offset="1" stop-color="#fff" stop-opacity="0"/></linearGradient><linearGradient id="linear-gradient-2" x1="1361.5" y1="325" x2="1387.5" y2="325" gradientTransform="matrix(1, 0, 0, -1, -87, 650)" xlink:href="#linear-gradient"/></defs><title>Home</title><g id="Layer_2" data-name="Layer 2"><g id="Home_Page" data-name="Home Page"><path class="cls-17" d="M1228.8,388.69c8.83-2.3,30-6.39,30.14-6.42,8.47-1.5,17.44-2.89,26.78-4.18l.25,0c1.58-.22,3.88-.43,5.48-.64l-.17,28.85h-32.72l-77-.67"/><path class="cls-18" d="M230.68,131.81H227.3A17.57,17.57,0,0,0,193,126.49a11.71,11.71,0,1,0-3.52,22.88h41.21A8.36,8.36,0,0,0,239,141v-.9A8.36,8.36,0,0,0,230.68,131.81Z"/><path class="cls-18" d="M485.21,247h-3.38a17.57,17.57,0,0,0-34.31-5.31A11.71,11.71,0,1,0,444,264.58h41.21a8.36,8.36,0,0,0,8.33-8.33v-.9A8.36,8.36,0,0,0,485.21,247Z"/><path class="cls-18" d="M999,270.51s-7.65-1.77-7.06-10.6,7.06-10,7.06-10,7.65-2.35,11.19,1.77c0,0,5.3-10,14.72-2.35,0,0,4.1-9.42,14.72-9.42,11.19,0,14.72,10,14.72,10s9.42-5.3,12.36,3.53c0,0,7.06-1.18,8.24,3.53,0,0,2.94-5.3,8.24-5.3s8.24,3.53,8.24,7.06c0,0,5.3-1.77,7.65-.59a5.66,5.66,0,0,1,3.53,5.3c0,2.35-1.18,6.48-3.53,7.65S999,270.51,999,270.51Z"/><line class="cls-19" x1="1015.48" y1="271.68" x2="1018.42" y2="271.68"/><line class="cls-19" x1="1022.54" y1="271.68" x2="1029.02" y2="271.68"/><line class="cls-19" x1="1032.55" y1="271.68" x2="1064.93" y2="271.68"/><line class="cls-19" x1="1068.47" y1="271.68" x2="1071.69" y2="271.68"/><path class="cls-19" d="M1058.45,276.39h8.24"/><line class="cls-19" x1="863.46" y1="373.18" x2="869.94" y2="373.18"/><line class="cls-19" x1="873.47" y1="373.18" x2="905.85" y2="373.18"/><line class="cls-19" x1="453.95" y1="265.92" x2="456.89" y2="265.92"/><line class="cls-19" x1="185.99" y1="150" x2="196.47" y2="150"/><line class="cls-19" x1="202.65" y1="150" x2="226.85" y2="150"/><line class="cls-19" x1="208.39" y1="155.22" x2="211.33" y2="155.22"/><line class="cls-19" x1="214.75" y1="155.22" x2="231.24" y2="155.22"/><line class="cls-20" x1="1232.92" y1="404.24" x2="1232.92" y2="370.37"/><path class="cls-20" d="M1252.21,405.35"/><line class="cls-19" x1="462.22" y1="265.92" x2="486.41" y2="265.92"/><path class="cls-18" d="M1152,132.87h-3.38a17.57,17.57,0,0,0-34.31-5.31,11.71,11.71,0,1,0-3.52,22.88H1152a8.36,8.36,0,0,0,8.33-8.33v-.9A8.36,8.36,0,0,0,1152,132.87Z"/><line class="cls-21" x1="1107.29" y1="151.06" x2="1117.76" y2="151.06"/><line class="cls-21" x1="1123.94" y1="151.06" x2="1148.14" y2="151.06"/><line class="cls-21" x1="1129.68" y1="156.28" x2="1132.63" y2="156.28"/><line class="cls-21" x1="1136.04" y1="156.28" x2="1152.53" y2="156.28"/><path class="cls-22" d="M323.81,428.84c-7.9-2.3-10.11-2.26-10.27-2.29-7.57-1.5-15.59-2.89-23.94-4.18l-.22,0c-92-14.18-282.87-16.07-282.87-16.07v44.28H289.72l17.66.17v-4.84l8.47.32"/><polygon class="cls-23" points="93.05 413.03 93.05 451.16 56.74 451.16 56.74 413.17 93.05 413.03"/><polygon class="cls-23" points="11.34 413.18 56.93 413.28 75.06 389.96 29.33 389.86 11.73 412.61 11.34 413.18"/><polygon class="cls-23" points="56.81 413.03 56.81 451.16 12.05 451.16 12.05 413.17 56.81 413.03"/><polygon class="cls-23" points="74.93 390.05 56.81 413.03 93.05 413.03 74.93 390.05"/><path class="cls-19" d="M36.14,413.89"/><path class="cls-19" d="M36.14,413.89"/><polygon class="cls-24" points="11.34 413.18 56.93 413.28 75.06 389.96 29.33 389.86 11.73 412.61 11.34 413.18"/><rect class="cls-18" x="40" y="419.8" width="6.63" height="14.59" transform="translate(86.63 854.19) rotate(-180)"/><g id="window"><polyline class="cls-25" points="37.72 435.4 37.72 419.81 46.62 419.81 46.62 438.27 37.01 438.27"/><line class="cls-25" x1="43.06" y1="435.4" x2="35.22" y2="435.4"/></g><line class="cls-26" x1="46.5" y1="426.28" x2="38.1" y2="426.28"/><line class="cls-26" x1="41.84" y1="426.28" x2="41.84" y2="419.76"/><path class="cls-27" d="M68.61,408.69a6.56,6.56,0,0,1,13.12,0Z"/><rect class="cls-18" x="66.05" y="419.09" width="22.03" height="23.54" transform="translate(154.13 861.73) rotate(-180)"/><line class="cls-28" x1="81.54" y1="419.26" x2="81.54" y2="444.67"/><line class="cls-28" x1="70.63" y1="419.26" x2="70.63" y2="440.89"/><path class="cls-29" d="M70.67,419.54H64.53L64,443.7h6.62s-2.45-10.3-5.29-15C65.34,428.73,70,429.49,70.67,419.54Z"/><path class="cls-29" d="M81.77,419.54h6.14l.53,24.16H81.81s2.45-10.3,5.29-15C87.1,428.73,82.48,429.49,81.77,419.54Z"/><rect class="cls-19" x="63.92" y="419.26" width="24.13" height="26.24"/><rect class="cls-18" x="24" y="419.8" width="6.63" height="14.59" transform="translate(54.63 854.19) rotate(-180)"/><g id="window-2" data-name="window"><polyline class="cls-25" points="21.72 435.4 21.72 419.81 30.62 419.81 30.62 438.27 21 438.27"/><line class="cls-25" x1="27.06" y1="435.4" x2="19.22" y2="435.4"/></g><line class="cls-26" x1="30.5" y1="426.28" x2="22.1" y2="426.28"/><line class="cls-26" x1="25.84" y1="426.28" x2="25.84" y2="419.76"/><path class="cls-30" d="M416.49,444.81c.3-.76-39.35-82.78-39.35-82.78l-38.89,83.38"/><polygon class="cls-31" points="372.58 371.27 406.39 445.47 337.92 445.47 372.58 371.27"/><path class="cls-32" d="M1233.94,390.22h-8.07a.54.54,0,0,1-.52-.67l.84-3.34,2.36-9.41.75-3a.54.54,0,0,1,1,0l4.12,15.74A.54.54,0,0,1,1233.94,390.22Z"/><line class="cls-33" x1="1229.9" y1="392.03" x2="1229.9" y2="394.71"/><line class="cls-19" x1="1227.33" y1="381.63" x2="1228.89" y2="381.63"/><line class="cls-19" x1="1229.56" y1="386.21" x2="1226.18" y2="386.21"/><rect class="cls-18" x="368.29" y="396.93" width="7.89" height="14.89"/><rect class="cls-18" x="368.29" y="438.07" width="7.89" height="3.58"/><rect class="cls-18" x="381.97" y="438.07" width="6.57" height="3.58"/><rect class="cls-18" x="381.97" y="417.46" width="6.57" height="18.05"/><polygon class="cls-18" points="382.42 414.17 382.42 401.14 387.64 414.17 382.42 414.17"/><polygon class="cls-18" points="364.6 412.35 364.6 399.32 359.38 412.35 364.6 412.35"/><rect class="cls-18" x="368.29" y="417.29" width="7.89" height="15.95"/><line class="cls-34" x1="494.81" y1="439.08" x2="512.49" y2="439.08"/><path class="cls-35" d="M577.29,432.24c-2.91-1.11-9.92-.43-9.92-.43-32.09,5-43.65,28.72-43.65,28.72h21.9c0-.91-5.47-5.47-5.47-5.47C562.83,430.89,577.29,432.24,577.29,432.24Z"/><rect class="cls-36" x="593.81" y="405.18" width="9.44" height="68.43"/><path class="cls-37" d="M324.28,238.42"/><circle class="cls-38" cx="928.21" cy="387.22" r="36.58"/><polyline class="cls-39" points="1187.42 320.85 1181.12 320.85 1182.57 325.21 1256.65 325.21 1258.58 320.85 1195.16 320.85"/><line class="cls-39" x1="1258.58" y1="339.36" x2="1180.64" y2="339.36"/><line class="cls-39" x1="1197.58" y1="336.64" x2="1260.07" y2="336.64"/><path class="cls-40" d="M1176.28,332.64l5.81,7.08V405h23.72V367.9A13.79,13.79,0,0,1,1219.37,355c7,0,12.83,5.9,13.56,12.94v36.77l-26.71.37h50.44V339.71l5.81-7.08Z"/><line class="cls-39" x1="1232.92" y1="405.58" x2="1232.92" y2="370.37"/><path class="cls-39" d="M1201.62,400.66c0-4.57,0-10.7,0-16.39"/><path class="cls-39" d="M1201.57,383.36"/><path class="cls-39" d="M1201.57,378.34c0,1.28,0,2.62,0,4"/><path class="cls-39" d="M1201.57,378.34"/><path class="cls-39" d="M1202.17,365.25a15.84,15.84,0,0,0-.52,3.6c0,1.53-.07,4.22-.08,7.49"/><path class="cls-39" d="M1204.56,360.11a18.18,18.18,0,0,1,13.58-7.64"/><path class="cls-39" d="M1221.88,352.6q-.85-.12-1.72-.16"/><path class="cls-39" d="M1222.36,352.68"/><path class="cls-39" d="M1237.23,386.17c0-7.07,0-14,0-17.33-.08-7.66-6.26-14.18-13.76-15.94"/><path class="cls-39" d="M1237.23,387.12"/><path class="cls-39" d="M1237.23,388.68"/><path class="cls-39" d="M1237.2,405s0-7,0-16.35"/><line class="cls-39" x1="1190.32" y1="364.94" x2="1181.61" y2="364.94"/><line class="cls-39" x1="1194.14" y1="364.94" x2="1192.2" y2="364.94"/><line class="cls-39" x1="1193.65" y1="383.07" x2="1186.39" y2="383.07"/><line class="cls-39" x1="1185" y1="383.06" x2="1182.57" y2="383.06"/><line class="cls-39" x1="1192.74" y1="370.77" x2="1182.57" y2="370.77"/><line class="cls-39" x1="1192.74" y1="374.88" x2="1182.09" y2="374.88"/><line class="cls-39" x1="1192.74" y1="393.8" x2="1180.63" y2="393.8"/><line class="cls-39" x1="1190.81" y1="395.97" x2="1178.7" y2="395.97"/><line class="cls-39" x1="1182.57" y1="325.21" x2="1182.57" y2="333.92"/><line class="cls-39" x1="1256.65" y1="325.21" x2="1256.65" y2="333.92"/><line class="cls-39" x1="1182.57" y1="336.64" x2="1192.26" y2="336.64"/><line class="cls-39" x1="1190.32" y1="350.09" x2="1180.15" y2="350.09"/><line class="cls-39" x1="1193.23" y1="354.2" x2="1182.57" y2="354.2"/><line class="cls-39" x1="1190.8" y1="343.72" x2="1182.09" y2="343.72"/><line class="cls-39" x1="1193.71" y1="343.72" x2="1207.29" y2="343.72"/><line class="cls-39" x1="1259.91" y1="366.58" x2="1248.42" y2="366.58"/><line class="cls-39" x1="1247.45" y1="364.94" x2="1256.16" y2="364.94"/><line class="cls-39" x1="1243.63" y1="364.94" x2="1245.57" y2="364.94"/><line class="cls-39" x1="1244.12" y1="383.07" x2="1251.38" y2="383.07"/><line class="cls-39" x1="1252.77" y1="383.06" x2="1255.19" y2="383.06"/><line class="cls-39" x1="1245.03" y1="370.77" x2="1255.19" y2="370.77"/><line class="cls-39" x1="1245.03" y1="374.88" x2="1255.68" y2="374.88"/><line class="cls-39" x1="1245.03" y1="393.8" x2="1257.14" y2="393.8"/><line class="cls-39" x1="1246.95" y1="395.97" x2="1259.07" y2="395.97"/><line class="cls-39" x1="1246.48" y1="350.09" x2="1256.65" y2="350.09"/><line class="cls-39" x1="1245.51" y1="354.2" x2="1256.16" y2="354.2"/><line class="cls-39" x1="1246.96" y1="343.72" x2="1255.68" y2="343.72"/><line class="cls-39" x1="1242.23" y1="343.72" x2="1244.17" y2="343.72"/><path class="cls-41" d="M1202.91,376.92"/><path class="cls-41" d="M1199,376.92"/><path class="cls-41" d="M1199,382.86"/><path class="cls-41" d="M1216.84,401.43"/><rect class="cls-39" x="1184.45" y="327.38" width="8.77" height="5.33"/><line class="cls-39" x1="1188.91" y1="330.21" x2="1181.12" y2="330.21"/><rect class="cls-39" x="1245.03" y="327.38" width="9.16" height="5.33" transform="translate(2499.22 660.1) rotate(180)"/><line class="cls-39" x1="1248.95" y1="329.89" x2="1258.1" y2="329.89"/><path class="cls-40" d="M530.49,485.95"/><rect class="cls-18" x="776.91" y="409.65" width="5.67" height="12.76"/><rect class="cls-18" x="776.91" y="440.17" width="5.67" height="22.07"/><rect class="cls-42" x="593.9" y="403.77" width="47.99" height="69.8"/><polyline class="cls-42" points="640.41 389.61 692.25 343.99 715.76 343.99 752.55 378.82"/><path class="cls-43" d="M640.13,389.88,692,344.27H716.4l36.53,35s-1.66,4.94-5.87,4.89v5.26"/><path class="cls-44" d="M643.79,276.64,614,339.81h63.15l-29.76-63.17A2,2,0,0,0,643.79,276.64Z"/><rect class="cls-18" x="709.55" y="409.65" width="5.67" height="12.76"/><rect class="cls-18" x="732.75" y="409.65" width="5.67" height="12.76"/><rect class="cls-18" x="732.75" y="440.17" width="5.67" height="22.07"/><rect class="cls-18" x="710.47" y="440.17" width="5.67" height="22.07"/><rect class="cls-18" x="686.89" y="440.17" width="5.67" height="22.07"/><rect class="cls-18" x="686.13" y="409.65" width="5.67" height="12.76"/><path class="cls-43" d="M589.69,384.13v19.64h56.41V384.13h0a6.29,6.29,0,0,1-5.65-3.52l-23.77-39.35a1.42,1.42,0,0,0-2.65,0l-19.25,39.63a5.62,5.62,0,0,1-5.09,3.24Z"/><path class="cls-42" d="M589.69,384.13v19.64h56.41V384.13h0a6.29,6.29,0,0,1-5.65-3.52l-23.77-39.35a1.42,1.42,0,0,0-2.65,0l-19.25,39.63a5.62,5.62,0,0,1-5.09,3.24Z"/><rect class="cls-45" x="610.24" y="353.48" width="70.73" height="25.52"/><rect class="cls-45" x="606.87" y="339.97" width="77.46" height="13.51"/><path class="cls-42" d="M643.79,276.64,614,339.81h63.15l-29.76-63.17A2,2,0,0,0,643.79,276.64Z"/><path class="cls-45" d="M646.15,304.39l-7.23,11a.35.35,0,0,0,.29.54h14.45a.35.35,0,0,0,.29-.54l-7.23-11A.35.35,0,0,0,646.15,304.39Z"/><rect class="cls-45" x="641.39" y="315.95" width="10.1" height="14.26"/><line class="cls-42" x1="676.62" y1="389.52" x2="747.77" y2="389.52"/><path class="cls-45" d="M711.69,356.06l-7.23,11a.35.35,0,0,0,.29.54h14.45a.35.35,0,0,0,.29-.54l-7.23-11A.35.35,0,0,0,711.69,356.06Z"/><rect class="cls-45" x="706.93" y="367.62" width="10.1" height="14.26"/><path class="cls-43" d="M703.86,292.18l-11,28a.35.35,0,0,0,.33.48h22a.35.35,0,0,0,.33-.48l-11-28A.35.35,0,0,0,703.86,292.18Z"/><rect class="cls-43" x="694.51" y="321.37" width="19.37" height="22.52"/><path class="cls-42" d="M703.86,292.18l-11,28a.35.35,0,0,0,.33.48h22a.35.35,0,0,0,.33-.48l-11-28A.35.35,0,0,0,703.86,292.18Z"/><rect class="cls-42" x="694.51" y="321.37" width="19.37" height="22.52"/><polyline class="cls-42" points="694.66 422.39 694.66 409.4 686.44 409.4 686.44 424.79 695.32 424.79"/><line class="cls-42" x1="689.73" y1="422.39" x2="696.96" y2="422.39"/><polyline class="cls-42" points="718.24 422.39 718.24 409.4 710.01 409.4 710.01 424.79 718.89 424.79"/><line class="cls-42" x1="713.3" y1="422.39" x2="720.54" y2="422.39"/><polyline class="cls-42" points="740.97 422.39 740.97 409.4 732.75 409.4 732.75 424.79 741.63 424.79"/><line class="cls-42" x1="736.04" y1="422.39" x2="743.27" y2="422.39"/><polyline class="cls-42" points="694.66 462.17 694.66 440.17 686.44 440.17 686.44 464.57 695.32 464.57"/><line class="cls-42" x1="689.73" y1="462.17" x2="696.96" y2="462.17"/><polyline class="cls-42" points="718.24 462.17 718.24 440.17 710.01 440.17 710.01 464.57 718.89 464.57"/><line class="cls-42" x1="713.3" y1="462.17" x2="720.54" y2="462.17"/><polyline class="cls-42" points="740.97 462.17 740.97 440.17 732.75 440.17 732.75 464.57 741.63 464.57"/><line class="cls-42" x1="736.04" y1="462.17" x2="743.27" y2="462.17"/><line class="cls-42" x1="746.18" y1="372.3" x2="755.27" y2="372.3"/><rect class="cls-42" x="751.27" y="403.77" width="47.99" height="69.8"/><path class="cls-43" d="M747.06,384.13v19.64h56.41V384.13h0a6.29,6.29,0,0,1-5.65-3.52l-21.94-44.83a1.42,1.42,0,0,0-2.65,0l-21.08,45.11a5.62,5.62,0,0,1-5.09,3.24Z"/><path class="cls-42" d="M747.06,384.13v19.64h56.41V384.13h0a6.29,6.29,0,0,1-5.65-3.52l-21.94-44.83a1.42,1.42,0,0,0-2.65,0l-21.08,45.11a5.62,5.62,0,0,1-5.09,3.24Z"/><polyline class="cls-42" points="785.59 422.39 785.59 409.4 777.37 409.4 777.37 424.79 786.25 424.79"/><line class="cls-42" x1="780.66" y1="422.39" x2="787.9" y2="422.39"/><polyline class="cls-42" points="785.59 462.17 785.59 440.17 777.37 440.17 777.37 464.57 786.25 464.57"/><line class="cls-42" x1="780.66" y1="462.17" x2="787.9" y2="462.17"/><circle class="cls-28" cx="654.23" cy="411.77"/><polyline class="cls-45" points="599.16 422.39 599.16 409.4 593.78 409.4 593.78 424.79 599.82 424.79"/><line class="cls-45" x1="594.23" y1="422.39" x2="601.47" y2="422.39"/><polyline class="cls-45" points="599.16 462.17 599.16 440.17 593.78 440.17 593.78 464.57 599.82 464.57"/><line class="cls-45" x1="594.23" y1="462.17" x2="601.47" y2="462.17"/><path class="cls-46" d="M643,279.95l24.44,59.86h9.69L647.25,276.3C646.6,274.9,643.7,278.55,643,279.95Z"/><path class="cls-47" d="M700.7,297.29l8.5,23.4h6l-10.34-27.05C704.25,292.24,701.36,295.89,700.7,297.29Z"/><path class="cls-47" d="M708.46,321l.74,23.4h4.22l-.75-27.05C712,316,709.12,319.61,708.46,321Z"/><path class="cls-47" d="M770.37,339l18.7,43.76h9.09l-21.09-45.59C775.88,335.8,774.49,333.51,770.37,339Z"/><path class="cls-47" d="M794.12,385.84l.43,17.93H804l-.52-19.64C802.29,382.73,795.3,384.45,794.12,385.84Z"/><rect class="cls-48" x="615.24" y="379.75" width="60.73" height="93.82"/><rect class="cls-18" x="640.06" y="428.79" width="7.09" height="19.85"/><polyline class="cls-42" points="650.65 448.44 650.65 428.16 640.13 428.16 640.13 451.64 652.48 451.64"/><line class="cls-42" x1="644.76" y1="448.8" x2="654.02" y2="448.8"/><rect class="cls-18" x="640.06" y="389.8" width="7.09" height="14.89"/><polyline class="cls-42" points="650.65 404.14 650.65 389.88 640.13 389.88 640.13 406.77 651.5 406.77"/><line class="cls-42" x1="644.34" y1="404.15" x2="653.6" y2="404.15"/><line class="cls-28" x1="622.34" y1="416.94" x2="632.97" y2="416.94"/><line class="cls-28" x1="626.59" y1="419.57" x2="639.35" y2="419.57"/><line class="cls-28" x1="624.46" y1="422.4" x2="639.35" y2="422.4"/><line class="cls-28" x1="622.34" y1="419.57" x2="625.17" y2="419.57"/><line class="cls-28" x1="633.68" y1="416.93" x2="637.22" y2="416.93"/><line class="cls-28" x1="652.11" y1="462.31" x2="662.74" y2="462.31"/><line class="cls-28" x1="656.36" y1="464.94" x2="669.12" y2="464.94"/><line class="cls-28" x1="654.23" y1="467.77" x2="669.12" y2="467.77"/><line class="cls-28" x1="652.11" y1="464.94" x2="654.94" y2="464.94"/><line class="cls-28" x1="663.45" y1="462.3" x2="666.99" y2="462.3"/><path class="cls-42" d="M1289.58,406.43H1170.94c-15.72,0-28.58,3.86-28.58,8.58v6.09c0,1.07-3.69,4.15-10.14,4.15h-12c-12.91,0-18.44,2.21-18.44,6.37h0c0,4.72,1,8.58,16.72,8.58h173"/><path class="cls-28" d="M593.78,440.91c-11.16-11.41-26.4-9.1-26.4-9.1-32.09,5-43.65,28.72-43.65,28.72h21.9c0-.91-4.56-5.47-4.56-5.47H528.4"/><path class="cls-28" d="M575.74,432.24s-15.51,1.82-35.59,22.81"/><path class="cls-28" d="M551.86,419.19c-25.26,8.11-38.63,25.37-38.63,25.37v15.51h10"/><path class="cls-28" d="M593.53,416.27a89.21,89.21,0,0,0-41.67,2.92"/><polyline class="cls-28" points="499.09 442.27 501.63 442.27 514.14 442.27"/><line class="cls-28" x1="500.91" y1="461.89" x2="500.91" y2="442.73"/><path class="cls-28" d="M530.29,451.63c-.18-.23,13,.23,13.26,0"/><line class="cls-28" x1="532.4" y1="449.14" x2="546.01" y2="449.32"/><line class="cls-28" x1="535.01" y1="446.68" x2="548.69" y2="446.97"/><line class="cls-28" x1="538.01" y1="444.19" x2="551.45" y2="444.7"/><line class="cls-28" x1="541.56" y1="441.65" x2="554.67" y2="442.27"/><line class="cls-28" x1="544.29" y1="439.93" x2="557.23" y2="440.5"/><line class="cls-28" x1="547.69" y1="438.07" x2="559.94" y2="438.79"/><line class="cls-28" x1="551.8" y1="436.17" x2="562.83" y2="437.12"/><line class="cls-28" x1="556.67" y1="434.36" x2="565.64" y2="435.69"/><line class="cls-28" x1="562.14" y1="433.12" x2="568.28" y2="434.36"/><rect class="cls-23" x="504.17" y="434.43" width="5.73" height="5.73"/><path class="cls-49" d="M504.17,440.16"/><polygon class="cls-28" points="502.74 434.43 511.33 434.43 509.9 433 504.17 433 502.74 434.43"/><line class="cls-19" x1="117.69" y1="420.6" x2="117.83" y2="420.6"/><line class="cls-19" x1="117.69" y1="420.6" x2="117.69" y2="450.18"/><path class="cls-19" d="M101.24,420.56"/><path class="cls-19" d="M101.24,420.56"/><path class="cls-19" d="M93,420.54"/><path class="cls-19" d="M93,420.54"/><circle cx="69.64" cy="441.97" r="1.16" transform="translate(-311.87 208.22) rotate(-49.55)"/><path class="cls-32" d="M270,420h-7a.54.54,0,0,1-.53-.66l.74-3.21,2.09-9.09.61-2.63a.54.54,0,0,1,1,0l3.58,14.93A.54.54,0,0,1,270,420Z"/><line class="cls-33" x1="266.45" y1="421.75" x2="266.45" y2="424.34"/><line class="cls-19" x1="264.17" y1="411.71" x2="265.55" y2="411.71"/><line class="cls-19" x1="266.14" y1="416.14" x2="263.15" y2="416.14"/><path class="cls-32" d="M305.66,444.32H295.51a.54.54,0,0,1-.53-.65l1.08-5.16,2.87-13.65,1-4.84a.54.54,0,0,1,1.05,0l5.18,23.66A.54.54,0,0,1,305.66,444.32Z"/><line class="cls-33" x1="300.59" y1="446.94" x2="300.59" y2="450.83"/><line class="cls-19" x1="297.47" y1="431.86" x2="299.36" y2="431.86"/><line class="cls-19" x1="300.17" y1="438.51" x2="296.07" y2="438.51"/><line class="cls-19" x1="504.17" y1="431.47" x2="509.9" y2="431.47"/><line class="cls-50" x1="560.85" y1="452.83" x2="565.42" y2="452.83"/><line class="cls-50" x1="567.95" y1="452.83" x2="585.55" y2="452.83"/><line class="cls-34" x1="897.35" y1="465.25" x2="927.47" y2="465.25"/><line class="cls-34" x1="934.77" y1="465.25" x2="945.72" y2="465.25"/><line class="cls-34" x1="951.19" y1="465.25" x2="956.67" y2="465.25"/><line class="cls-34" x1="921.08" y1="447.55" x2="932.94" y2="447.55"/><line class="cls-34" x1="918.8" y1="454.55" x2="932.48" y2="454.55"/><line class="cls-34" x1="941.61" y1="454.55" x2="950.73" y2="454.55"/><line class="cls-50" x1="1141.33" y1="449.09" x2="1153.2" y2="449.09"/><line class="cls-50" x1="1173.27" y1="449.09" x2="1186.96" y2="449.09"/><line class="cls-50" x1="1196.08" y1="449.09" x2="1205.21" y2="449.09"/><line class="cls-34" x1="254.81" y1="508.06" x2="265.76" y2="508.06"/><line class="cls-34" x1="273.97" y1="508.06" x2="289.48" y2="508.06"/><line class="cls-34" x1="814.39" y1="583.03" x2="821.69" y2="583.03"/><line class="cls-34" x1="832.64" y1="583.03" x2="897.43" y2="583.03"/><line class="cls-34" x1="306.25" y1="569.84" x2="316.29" y2="569.84"/><line class="cls-34" x1="322.67" y1="569.84" x2="328.15" y2="569.84"/><line class="cls-34" x1="975.08" y1="562.94" x2="988.34" y2="562.94"/><line class="cls-34" x1="995.48" y1="562.94" x2="998.55" y2="562.94"/><line class="cls-34" x1="919.13" y1="509.19" x2="930.99" y2="509.19"/><line class="cls-34" x1="937.38" y1="509.19" x2="940.12" y2="509.19"/><line class="cls-34" x1="1003.65" y1="562.94" x2="1006.71" y2="562.94"/><line class="cls-34" x1="913.63" y1="501.05" x2="925.49" y2="501.05"/><line class="cls-34" x1="931.88" y1="501.05" x2="934.62" y2="501.05"/><line class="cls-34" x1="939.18" y1="501.05" x2="941.92" y2="501.05"/><line class="cls-34" x1="942.93" y1="580.8" x2="967.42" y2="580.8"/><line class="cls-34" x1="972.52" y1="580.8" x2="975.59" y2="580.8"/><line class="cls-34" x1="980.69" y1="580.8" x2="1001.1" y2="580.8"/><line class="cls-34" x1="1006.2" y1="580.8" x2="1009.26" y2="580.8"/><line class="cls-34" x1="37.71" y1="521.03" x2="49.57" y2="521.03"/><line class="cls-34" x1="53.22" y1="521.03" x2="57.79" y2="521.03"/><line class="cls-34" x1="62.35" y1="521.03" x2="70.56" y2="521.03"/><line class="cls-34" x1="63.26" y1="531.07" x2="67.82" y2="531.07"/><line class="cls-34" x1="72.39" y1="531.07" x2="94.28" y2="531.07"/><line class="cls-34" x1="713.99" y1="541.61" x2="728.59" y2="541.61"/><line class="cls-34" x1="724.02" y1="550.73" x2="727.67" y2="550.73"/><line class="cls-34" x1="121.66" y1="521.03" x2="128.96" y2="521.03"/><line class="cls-50" x1="1010.79" y1="570.22" x2="1022.01" y2="570.22"/><line class="cls-50" x1="1025.08" y1="570.22" x2="1028.14" y2="570.22"/><line class="cls-50" x1="1030.18" y1="570.22" x2="1043.44" y2="570.22"/><line class="cls-34" x1="465.41" y1="564.14" x2="487.31" y2="564.14"/><line class="cls-34" x1="491.88" y1="564.14" x2="494.61" y2="564.14"/><line class="cls-34" x1="499.18" y1="564.14" x2="517.43" y2="564.14"/><line class="cls-34" x1="521.99" y1="564.14" x2="524.73" y2="564.14"/><line class="cls-34" x1="526.09" y1="557.13" x2="536.13" y2="557.13"/><line class="cls-34" x1="538.87" y1="557.13" x2="541.61" y2="557.13"/><line class="cls-34" x1="543.43" y1="557.13" x2="555.29" y2="557.13"/><line class="cls-34" x1="621.14" y1="588.08" x2="643.04" y2="588.08"/><line class="cls-34" x1="647.6" y1="588.08" x2="650.34" y2="588.08"/><line class="cls-34" x1="654.9" y1="588.08" x2="673.15" y2="588.08"/><line class="cls-34" x1="879.76" y1="474.04" x2="916.85" y2="474.04"/><line class="cls-34" x1="924.15" y1="474.04" x2="935.1" y2="474.04"/><line class="cls-34" x1="940.57" y1="474.04" x2="946.05" y2="474.04"/><line class="cls-34" x1="948.96" y1="474.04" x2="959.91" y2="474.04"/><line class="cls-34" x1="889.55" y1="481.58" x2="926.64" y2="481.58"/><line class="cls-34" x1="933.94" y1="481.58" x2="944.89" y2="481.58"/><line class="cls-34" x1="950.37" y1="481.58" x2="955.84" y2="481.58"/><line class="cls-34" x1="958.75" y1="481.58" x2="969.7" y2="481.58"/><line class="cls-34" x1="889.14" y1="491.01" x2="911.04" y2="491.01"/><line class="cls-34" x1="915.6" y1="491.01" x2="918.34" y2="491.01"/><line class="cls-34" x1="922.9" y1="491.01" x2="941.15" y2="491.01"/><line class="cls-34" x1="945.72" y1="491.01" x2="948.45" y2="491.01"/><line class="cls-34" x1="132.56" y1="584.07" x2="157.05" y2="584.07"/><line class="cls-34" x1="162.15" y1="584.07" x2="165.21" y2="584.07"/><line class="cls-34" x1="170.31" y1="584.07" x2="190.72" y2="584.07"/><line class="cls-34" x1="195.82" y1="584.07" x2="198.88" y2="584.07"/><line class="cls-34" x1="200.41" y1="576.23" x2="211.64" y2="576.23"/><line class="cls-19" x1="503.65" y1="451.56" x2="503.65" y2="460.82"/><path class="cls-42" d="M144.2,423"/><polyline class="cls-49" points="357.47 363.54 360.8 357.64 379.11 357.64 421.33 445.41 424.36 445.41 424.36 447.38 428.6 447.38 428.6 450.71 307.38 450.71 307.38 444.96 315.56 444.96 347.94 381.7"/><line class="cls-42" x1="419.67" y1="445.41" x2="315.85" y2="445.41"/><line class="cls-42" x1="366.41" y1="444.36" x2="351.38" y2="444.36"/><rect class="cls-49" x="382.3" y="417.46" width="7.67" height="17.89" transform="translate(772.27 852.8) rotate(-180)"/><rect class="cls-49" x="381.82" y="437.92" width="8.15" height="5.61" transform="translate(771.79 881.45) rotate(-180)"/><rect class="cls-49" x="368.99" y="417.46" width="9.39" height="17.89" transform="translate(747.36 852.8) rotate(-180)"/><rect class="cls-49" x="368.41" y="437.92" width="9.97" height="5.61" transform="translate(746.78 881.45) rotate(-180)"/><rect class="cls-51" x="353.05" y="417.46" width="12.04" height="26.07" transform="translate(718.13 860.99) rotate(-180)"/><line class="cls-49" x1="407.06" y1="445.41" x2="372.88" y2="371.18"/><polygon class="cls-49" points="382.42 414.17 382.42 397.5 389.09 414.17 382.42 414.17"/><polyline class="cls-42" points="378.38 412.08 378.38 396.01 368.29 396.01 368.29 410.9"/><polyline class="cls-42" points="364.88 410.92 364.88 395.19 364.63 395.1 355.63 413.9 380.2 413.9"/><line class="cls-42" x1="361.73" y1="412.03" x2="380.2" y2="412.03"/><circle class="cls-4" cx="361.99" cy="431.96" r="1.28"/><path class="cls-28" d="M597.2,502.91H792.86c12,0,21.77-3.23,21.77-7.19V481.81c0-4-9.8-7.19-21.77-7.19H602.12c-12,0-21.77,3.23-21.77,7.19v3.71c0,.9-2.95,4.64-7.86,4.64l-9,.23c-9.83,0-14,1.85-14,5.33h0c0,4,9.8,7.19,21.77,7.19H766.88"/><polygon class="cls-52" points="1174.75 417.51 1159.07 417.51 1166.91 381.67 1174.75 417.51"/><line class="cls-37" x1="1166.91" y1="398.79" x2="1166.91" y2="425.35"/><line class="cls-37" x1="1166.71" y1="406.81" x2="1165.29" y2="404.5"/><line class="cls-37" x1="1166.91" y1="411.56" x2="1170.04" y2="406.4"/><line class="cls-37" x1="1166.71" y1="414.89" x2="1163.58" y2="409.73"/><line class="cls-42" x1="1132.21" y1="425.24" x2="1206.71" y2="425.24"/><polygon class="cls-45" points="294.97 443.73 279.3 443.73 287.13 407.89 294.97 443.73"/><line class="cls-42" x1="287.13" y1="425.01" x2="287.13" y2="451.57"/><line class="cls-42" x1="286.93" y1="433.03" x2="285.51" y2="430.72"/><line class="cls-42" x1="287.13" y1="437.79" x2="290.26" y2="432.63"/><line class="cls-42" x1="286.93" y1="441.12" x2="283.8" y2="435.96"/><path class="cls-37" d="M838.15,437.55v-57c61.16,34.26,164.13,34.95,228.28.8a.57.57,0,0,1,.85.41v55.78"/><path class="cls-37" d="M799.5,400.63c18.41-4.89,34.33-14.19,38.65-20.07"/><line class="cls-37" x1="799.26" y1="412.55" x2="1142.86" y2="412.55"/><line class="cls-37" x1="799.47" y1="417.06" x2="1141.95" y2="417.06"/><line class="cls-37" x1="822.02" y1="392.01" x2="822.02" y2="412.55"/><line class="cls-37" x1="805.66" y1="399" x2="805.66" y2="412.55"/><path class="cls-37" d="M789.09,412.55"/><path class="cls-37" d="M789.09,402.54"/><line class="cls-37" x1="854.62" y1="389.88" x2="854.62" y2="410.75"/><line class="cls-37" x1="838.26" y1="396.96" x2="838.26" y2="406.97"/><line class="cls-37" x1="870.98" y1="395.4" x2="870.98" y2="410.75"/><line class="cls-37" x1="887.55" y1="400.55" x2="887.55" y2="410.57"/><line class="cls-37" x1="920.27" y1="405.41" x2="920.27" y2="410.75"/><line class="cls-37" x1="903.91" y1="404.66" x2="903.91" y2="412.6"/><line class="cls-37" x1="936.84" y1="406.97" x2="936.84" y2="410.8"/><line class="cls-37" x1="969.77" y1="407.54" x2="969.77" y2="411.98"/><line class="cls-37" x1="953.2" y1="406.97" x2="953.2" y2="411.98"/><line class="cls-37" x1="1002.48" y1="402.2" x2="1002.48" y2="412.64"/><line class="cls-37" x1="986.13" y1="405.56" x2="986.13" y2="412.22"/><line class="cls-37" x1="1019.06" y1="399.85" x2="1019.06" y2="411.98"/><line class="cls-37" x1="1051.77" y1="389.88" x2="1051.77" y2="411.97"/><line class="cls-37" x1="1035.41" y1="394.86" x2="1035.41" y2="411.97"/><path class="cls-37" d="M1067.67,437.55v-57c24,13.46,57.54,23.74,89.6,26.76"/><line class="cls-37" x1="1083.36" y1="389.1" x2="1083.36" y2="411.79"/><line class="cls-37" x1="1099.72" y1="394.61" x2="1099.72" y2="411.79"/><line class="cls-37" x1="1116.29" y1="399.3" x2="1116.29" y2="411.35"/><line class="cls-37" x1="1149" y1="406.19" x2="1149" y2="408.97"/><line class="cls-37" x1="1132.65" y1="403.87" x2="1132.65" y2="411.82"/><line class="cls-39" x1="1192.74" y1="385.37" x2="1182.57" y2="385.37"/><line class="cls-39" x1="1192.74" y1="389.48" x2="1182.09" y2="389.48"/><line class="cls-39" x1="1190.8" y1="358.31" x2="1182.09" y2="358.31"/><line class="cls-39" x1="1193.71" y1="358.31" x2="1191.77" y2="358.31"/><line class="cls-39" x1="1192.74" y1="346.6" x2="1182.09" y2="346.6"/><line class="cls-39" x1="1211.05" y1="343.72" x2="1239.22" y2="343.72"/><line class="cls-39" x1="1245.03" y1="357.09" x2="1255.19" y2="357.09"/><line class="cls-39" x1="1245.03" y1="362.11" x2="1255.68" y2="362.11"/><line class="cls-39" x1="1247.45" y1="378.63" x2="1256.16" y2="378.63"/><line class="cls-39" x1="1243.63" y1="378.63" x2="1245.57" y2="378.63"/><line class="cls-39" x1="1246.48" y1="385.68" x2="1256.65" y2="385.68"/><line class="cls-39" x1="1245.51" y1="389.79" x2="1256.16" y2="389.79"/><line class="cls-34" x1="806.66" y1="513.53" x2="816.7" y2="513.53"/><line class="cls-34" x1="823.08" y1="513.53" x2="828.56" y2="513.53"/><line class="cls-34" x1="816.7" y1="523.57" x2="823.08" y2="523.57"/><line class="cls-34" x1="827.65" y1="523.57" x2="833.12" y2="523.57"/><line class="cls-34" x1="632.97" y1="527.76" x2="657.46" y2="527.76"/><line class="cls-34" x1="662.56" y1="527.76" x2="665.62" y2="527.76"/><line class="cls-34" x1="670.72" y1="527.76" x2="691.13" y2="527.76"/><line class="cls-34" x1="696.23" y1="527.76" x2="699.29" y2="527.76"/><line class="cls-34" x1="700.83" y1="519.92" x2="712.05" y2="519.92"/><line class="cls-34" x1="573.66" y1="527.76" x2="598.15" y2="527.76"/><line class="cls-34" x1="603.25" y1="527.76" x2="606.31" y2="527.76"/><line class="cls-34" x1="611.41" y1="527.76" x2="631.82" y2="527.76"/><line class="cls-34" x1="636.92" y1="527.76" x2="639.98" y2="527.76"/><line class="cls-42" x1="575.78" y1="489.72" x2="788.52" y2="489.72"/><rect class="cls-47" x="789.09" y="405.18" width="10.18" height="68.43"/><line class="cls-19" x1="597.85" y1="384.68" x2="614.03" y2="384.68"/><line class="cls-19" x1="755.16" y1="384.68" x2="793.82" y2="384.68"/><polygon class="cls-45" points="492.21 453.13 476.53 453.13 484.37 417.29 492.21 453.13"/><line class="cls-42" x1="484.37" y1="434.42" x2="484.37" y2="460.97"/><line class="cls-42" x1="484.17" y1="442.43" x2="482.74" y2="440.12"/><line class="cls-42" x1="484.37" y1="447.19" x2="487.5" y2="442.03"/><line class="cls-42" x1="484.17" y1="450.52" x2="481.04" y2="445.36"/><path class="cls-17" d="M1194.4,413.62a5.5,5.5,0,0,1,3.14,10,3.54,3.54,0,0,0,.58-1.95,3.6,3.6,0,0,0-3.59-3.59h-1.8a7.12,7.12,0,0,0-1.06-3.75A5.43,5.43,0,0,1,1194.4,413.62Z"/><path class="cls-17" d="M1198.12,421.69a3.54,3.54,0,0,1-.58,1.95,5.5,5.5,0,0,1-6.89-.48,7.15,7.15,0,0,0,2.08-5.05h1.8A3.6,3.6,0,0,1,1198.12,421.69Z"/><path class="cls-20" d="M1197.54,423.64a3.57,3.57,0,0,1-.48.59,3.06,3.06,0,0,1-.42.36,6.09,6.09,0,0,1-6.77-.74,6.82,6.82,0,0,0,.78-.69,5.5,5.5,0,0,0,6.89.48Z"/><path class="cls-20" d="M1196.64,424.58a3.53,3.53,0,0,1-2.11.7h-.72A6,6,0,0,0,1196.64,424.58Z"/><path class="cls-20" d="M1193.81,425.28h-8.26a7.15,7.15,0,0,0,4.32-1.44A6.06,6.06,0,0,0,1193.81,425.28Z"/><path class="cls-17" d="M1192.73,418.1H1189a5.49,5.49,0,0,1,2.68-3.75A7.12,7.12,0,0,1,1192.73,418.1Z"/><path class="cls-17" d="M1189,418.1h3.74a7.15,7.15,0,0,1-2.08,5.05,5.48,5.48,0,0,1-1.76-4A5.34,5.34,0,0,1,1189,418.1Z"/><path class="cls-17" d="M1191.2,413.66a6.14,6.14,0,0,1,.48.69,5.49,5.49,0,0,0-2.68,3.75h-1.19A6.1,6.1,0,0,1,1191.2,413.66Z"/><path class="cls-17" d="M1185.55,410.92a7.16,7.16,0,0,1,5.64,2.74,6.1,6.1,0,0,0-3.39,4.44h-6a4.8,4.8,0,0,0-3.12-2.23A7.18,7.18,0,0,1,1185.55,410.92Z"/><path class="cls-17" d="M1188.9,419.12a5.48,5.48,0,0,0,1.76,4,6.82,6.82,0,0,1-.78.69,6.08,6.08,0,0,1-2.16-4.66,6,6,0,0,1,.1-1.08H1189A5.34,5.34,0,0,0,1188.9,419.12Z"/><path class="cls-17" d="M1187.71,419.18a6.08,6.08,0,0,0,2.16,4.66,7.18,7.18,0,0,1-8.63,0,4.8,4.8,0,0,0,.61-5.74h6A6,6,0,0,0,1187.71,419.18Z"/><path class="cls-20" d="M1185.55,425.28h-6.9a4.76,4.76,0,0,0,2.58-1.44A7.13,7.13,0,0,0,1185.55,425.28Z"/><path class="cls-17" d="M1181.85,418.1a4.8,4.8,0,0,1-.61,5.74l-.33-.27a4.67,4.67,0,0,0,.32-5.47Z"/><path class="cls-17" d="M1181.85,418.1h-.62a4.67,4.67,0,0,0-2.58-2,2.45,2.45,0,0,1,.08-.28A4.8,4.8,0,0,1,1181.85,418.1Z"/><path class="cls-17" d="M1181.23,418.1a4.67,4.67,0,0,1-.32,5.47,7.15,7.15,0,0,1-2.53-5.47Z"/><path class="cls-17" d="M1181.24,423.84a4.76,4.76,0,0,1-2.58,1.44h-1.36a4.66,4.66,0,0,0,3.61-1.71Z"/><path class="cls-17" d="M1181.23,418.1h-2.85a7,7,0,0,1,.27-2A4.67,4.67,0,0,1,1181.23,418.1Z"/><path class="cls-17" d="M1180.91,423.57a4.66,4.66,0,0,1-3.61,1.71h-.37a3.61,3.61,0,0,1-3.22-3.57,3.6,3.6,0,0,1,3.59-3.59h1.08A7.15,7.15,0,0,0,1180.91,423.57Z"/><path class="cls-17" d="M1178.73,415.87a2.45,2.45,0,0,0-.08.28,4.65,4.65,0,0,0-1.35-.2,4.57,4.57,0,0,0-1.72.33,4.74,4.74,0,0,1,2.16-.51A4.8,4.8,0,0,1,1178.73,415.87Z"/><path class="cls-17" d="M1177.29,425.28h1.36a4.83,4.83,0,0,1-2.13-.06l.4,0h.37Z"/><path class="cls-17" d="M1178.64,416.14a7,7,0,0,0-.27,2h-1.08a3.59,3.59,0,0,0-.37,7.16l-.4,0h0a4.8,4.8,0,0,1-.94-8.94,4.57,4.57,0,0,1,1.72-.33A4.65,4.65,0,0,1,1178.64,416.14Z"/><path class="cls-17" d="M1177.07,425.27h0Z"/><path class="cls-28" d="M1176.51,425.21a4.67,4.67,0,0,1-.94-8.94,4.57,4.57,0,0,1,1.72-.33,4.65,4.65,0,0,1,1.35.2"/><path class="cls-28" d="M1176.93,425.26l-.4,0"/><path class="cls-28" d="M1177.29,425.28h-.22"/><path class="cls-28" d="M1178.64,416.14a2.45,2.45,0,0,1,.08-.28,7.18,7.18,0,0,1,12.47-2.2"/><path class="cls-28" d="M1191.2,413.66a6.1,6.1,0,1,1,2.61,11.62"/><path class="cls-28" d="M1177.29,425.28h-.37"/><path class="cls-28" d="M1196.64,424.58a3.53,3.53,0,0,1-2.11.7h-9"/><line class="cls-53" x1="1185.78" y1="419.3" x2="1185.78" y2="424.98"/><line class="cls-53" x1="1185.58" y1="424.96" x2="1184.14" y2="422.64"/><line class="cls-53" x1="1178.65" y1="422.8" x2="1178.63" y2="425.37"/><path class="cls-53" d="M1178.43,425.35"/><line class="cls-53" x1="1193.73" y1="422.84" x2="1193.26" y2="425.37"/><path class="cls-53" d="M1193.07,425.32"/><line class="cls-54" x1="379.11" y1="357.64" x2="377.14" y2="362.03"/><polygon class="cls-54" points="356.31 376.34 349.45 388.34 349.45 359.83 356.31 359.83 356.31 376.34"/><line class="cls-54" x1="356.3" y1="356.95" x2="349.14" y2="356.95"/><path class="cls-36" d="M376.47,358.55H360.63l-3.16,5,0,13.26-8.15,13.83c-.22.36-2.06,2.07-2,1.65l.27-10.19-31.73,62.28,21.72.83L378,358.55Z"/><path class="cls-47" d="M609.85,365.71,604,382.46H595l12-27.34C608.11,353.73,610.24,353.48,609.85,365.71Z"/><path class="cls-47" d="M599,385.52l-.43,17.93h-9.44l.52-19.64C590.84,382.41,597.82,384.13,599,385.52Z"/><rect class="cls-18" x="594.69" y="410.31" width="1.68" height="11.18"/><rect class="cls-18" x="594.65" y="441.09" width="1.71" height="20.18"/><rect class="cls-18" x="658.4" y="359.17" width="5.89" height="11.08"/><rect class="cls-18" x="624.72" y="358.93" width="5.84" height="11.33"/><polyline class="cls-42" points="666.88 370.25 666.88 359.11 658.65 359.11 658.65 372.3 667.53 372.3"/><line class="cls-42" x1="661.94" y1="370.25" x2="669.18" y2="370.25"/><polyline class="cls-42" points="633.2 370.25 633.2 359.11 624.97 359.11 624.97 372.3 633.85 372.3"/><line class="cls-42" x1="628.26" y1="370.25" x2="635.5" y2="370.25"/><rect class="cls-18" x="707.73" y="368.52" width="6.72" height="12.39"/><line class="cls-42" x1="706.93" y1="374.75" x2="717.04" y2="374.75"/><rect class="cls-18" x="642.24" y="316.89" width="6.72" height="12.39"/><line class="cls-45" x1="641.39" y1="323.08" x2="651.5" y2="323.08"/><circle class="cls-20" cx="695.17" cy="478.41" r="10.09"/><line class="cls-55" x1="807.57" y1="511.71" x2="817.61" y2="511.71"/><line class="cls-55" x1="824" y1="511.71" x2="829.47" y2="511.71"/><line class="cls-55" x1="817.61" y1="521.75" x2="824" y2="521.75"/><line class="cls-55" x1="828.56" y1="521.75" x2="834.03" y2="521.75"/><ellipse class="cls-22" cx="612.11" cy="480.9" rx="16.4" ry="8.14"/><path class="cls-17" d="M696.21,482.9a6.09,6.09,0,0,1-1.15,3.56A45.51,45.51,0,0,1,679.22,489a46,46,0,0,1-15.53-2.47c6.86-2.24,11.28-5.81,11.28-9.82h15.09A6.16,6.16,0,0,1,696.21,482.9Z"/><path class="cls-17" d="M695.06,486.45a6.08,6.08,0,0,1-5,2.59H679.22A45.51,45.51,0,0,0,695.06,486.45Z"/><path class="cls-17" d="M679.22,489H646.67a55.8,55.8,0,0,0,17-2.47A46,46,0,0,0,679.22,489Z"/><path class="cls-17" d="M675,476.75H655.54c1.37-3.37,6.47-6.18,13.38-7.59C672.71,471.25,675,473.89,675,476.75Z"/><path class="cls-17" d="M655.54,476.75H675c0,4-4.42,7.58-11.28,9.82-5.22-1.91-8.54-4.77-8.54-8A4.67,4.67,0,0,1,655.54,476.75Z"/><path class="cls-17" d="M646.67,464.46c9,0,17.07,1.84,22.25,4.69-6.91,1.42-12,4.23-13.38,7.59H629.61a24.2,24.2,0,0,0-10.18-3.34C622.78,468.24,633.7,464.46,646.67,464.46Z"/><path class="cls-17" d="M655.16,478.6c0,3.2,3.31,6.06,8.54,8a55.8,55.8,0,0,1-17,2.47,54.14,54.14,0,0,1-18.32-2.92c2.59-1.38,4.16-3.14,4.16-5.06,0-1.59-1.06-3.06-2.9-4.3h25.93A4.67,4.67,0,0,0,655.16,478.6Z"/><path class="cls-17" d="M646.67,489H614.11c5.73,0,10.86-1.14,14.24-2.92A54.14,54.14,0,0,0,646.67,489Z"/><path class="cls-17" d="M629.61,476.75c1.84,1.24,2.9,2.72,2.9,4.3,0,1.92-1.57,3.69-4.16,5.06-6.11-2.25-10-5.61-10-9.36Z"/><path class="cls-17" d="M629.61,476.75H618.36a6,6,0,0,1,1.08-3.34A24.2,24.2,0,0,1,629.61,476.75Z"/><path class="cls-17" d="M628.35,486.12C625,487.9,619.85,489,614.11,489a33.93,33.93,0,0,1-12.74-2.23,6.14,6.14,0,0,1,4.73-10.06h12.26C618.36,480.51,622.24,483.87,628.35,486.12Z"/><path class="cls-17" d="M614.11,489h-8a6.13,6.13,0,0,1-4.73-2.23A33.93,33.93,0,0,0,614.11,489Z"/><path class="cls-28" d="M614.11,489a33.93,33.93,0,0,1-12.74-2.23c-3.5-1.45-5.66-3.5-5.66-5.76,0-4.41,8.24-8,18.4-8a39.89,39.89,0,0,1,5.32.34"/><path class="cls-28" d="M619.44,473.41c3.34-5.17,14.27-8.95,27.23-8.95,9,0,17.07,1.84,22.25,4.69"/><path class="cls-28" d="M668.92,469.16a51.21,51.21,0,0,1,10.3-1c13.29,0,24.06,4.68,24.06,10.45,0,3.13-3.18,5.95-8.22,7.86A45.51,45.51,0,0,1,679.22,489"/><path class="cls-28" d="M614.11,489h-8a6.13,6.13,0,0,1-4.73-2.23"/><path class="cls-28" d="M695.06,486.45a6.08,6.08,0,0,1-5,2.59h-43.4"/><line class="cls-53" x1="647.56" y1="478.81" x2="647.56" y2="488.53"/><line class="cls-53" x1="646.76" y1="488.5" x2="641.09" y2="484.52"/><line class="cls-53" x1="619.46" y1="484.79" x2="619.37" y2="489.2"/><path class="cls-53" d="M618.57,489.17"/><line class="cls-53" x1="678.92" y1="484.86" x2="677.07" y2="489.19"/><path class="cls-53" d="M676.3,489.1"/><ellipse class="cls-22" cx="694.37" cy="478.51" rx="10.88" ry="10.03"/><path class="cls-17" d="M696.17,476.75a6.14,6.14,0,0,1,4.34,10.48,6.08,6.08,0,0,1-.67.58h0a10.43,10.43,0,0,1-11.62-1.26,12.27,12.27,0,0,0,4.9-9.82Z"/><path class="cls-17" d="M699.82,487.83a6.08,6.08,0,0,1-3.65,1.21h-1.23A10.37,10.37,0,0,0,699.82,487.83Z"/><path class="cls-17" d="M694.94,489H680.81a12.24,12.24,0,0,0,7.39-2.47A10.39,10.39,0,0,0,694.94,489Z"/><path class="cls-17" d="M693.1,476.75h-8.44a10.43,10.43,0,0,1,5.81-7.59A12.24,12.24,0,0,1,693.1,476.75Z"/><path class="cls-17" d="M684.66,476.75h8.44a12.27,12.27,0,0,1-4.9,9.82,10.4,10.4,0,0,1-3.71-8A10.13,10.13,0,0,1,684.66,476.75Z"/><path class="cls-17" d="M680.81,464.46a12.27,12.27,0,0,1,9.66,4.69,10.43,10.43,0,0,0-5.81,7.59H673.41a8,8,0,0,0-4.42-3.34A12.28,12.28,0,0,1,680.81,464.46Z"/><path class="cls-17" d="M684.5,478.6a10.4,10.4,0,0,0,3.71,8,12.28,12.28,0,0,1-15.34-.45,8,8,0,0,0,.55-9.36h11.26A10.13,10.13,0,0,0,684.5,478.6Z"/><path class="cls-17" d="M680.81,489H666.68a8,8,0,0,0,6.18-2.92A12.23,12.23,0,0,0,680.81,489Z"/><path class="cls-17" d="M673.41,476.75a8,8,0,0,1-.55,9.36,12.24,12.24,0,0,1-4.34-9.36Z"/><path class="cls-17" d="M673.41,476.75h-4.89a12,12,0,0,1,.47-3.34A8,8,0,0,1,673.41,476.75Z"/><path class="cls-17" d="M672.86,486.12a8,8,0,0,1-6.18,2.92h-.38l-.25,0a6.14,6.14,0,0,1-3.71-10.45,6.1,6.1,0,0,1,4.34-1.81h1.84A12.24,12.24,0,0,0,672.86,486.12Z"/><path class="cls-17" d="M666.3,489h0Z"/><path class="cls-28" d="M666.05,489a8,8,0,0,1,.63-15.95,7.76,7.76,0,0,1,2.31.34"/><path class="cls-28" d="M666.68,489h-.38"/><path class="cls-28" d="M669,473.41a12.28,12.28,0,0,1,21.48-4.25"/><path class="cls-28" d="M699.82,487.83a10.37,10.37,0,0,1-4.88,1.21"/><path class="cls-28" d="M690.47,469.16a10.44,10.44,0,0,1,9.37,18.66"/><path class="cls-28" d="M699.84,487.82h0a6.08,6.08,0,0,1-3.65,1.21H680.81"/><path class="cls-28" d="M666.68,489h-.38l-.25,0"/><line class="cls-53" x1="681.2" y1="478.81" x2="681.2" y2="488.53"/><line class="cls-53" x1="680.85" y1="488.5" x2="678.39" y2="484.52"/><line class="cls-53" x1="669" y1="484.79" x2="668.96" y2="489.2"/><path class="cls-53" d="M668.61,489.17"/><line class="cls-53" x1="694.81" y1="484.86" x2="694.01" y2="489.19"/><path class="cls-53" d="M693.67,489.1"/><line class="cls-34" x1="998.75" y1="478.38" x2="1012.01" y2="478.38"/><line class="cls-34" x1="1019.16" y1="478.38" x2="1022.22" y2="478.38"/><line class="cls-34" x1="1027.32" y1="478.38" x2="1030.38" y2="478.38"/><line class="cls-55" x1="815.31" y1="581.2" x2="822.61" y2="581.2"/><line class="cls-55" x1="833.56" y1="581.2" x2="898.34" y2="581.2"/><line class="cls-55" x1="561.77" y1="451.91" x2="566.33" y2="451.91"/><line class="cls-55" x1="568.87" y1="451.91" x2="586.46" y2="451.91"/><line class="cls-55" x1="975.99" y1="561.12" x2="989.25" y2="561.12"/><line class="cls-55" x1="996.4" y1="561.12" x2="999.46" y2="561.12"/><line class="cls-55" x1="1004.56" y1="561.12" x2="1007.62" y2="561.12"/><line class="cls-55" x1="943.85" y1="578.97" x2="968.34" y2="578.97"/><line class="cls-55" x1="973.44" y1="578.97" x2="976.5" y2="578.97"/><line class="cls-55" x1="981.6" y1="578.97" x2="1002.01" y2="578.97"/><line class="cls-55" x1="1007.11" y1="578.97" x2="1010.17" y2="578.97"/><line class="cls-55" x1="1011.7" y1="568.39" x2="1022.93" y2="568.39"/><line class="cls-55" x1="1025.99" y1="568.39" x2="1029.05" y2="568.39"/><line class="cls-55" x1="1031.09" y1="568.39" x2="1044.36" y2="568.39"/><g id="_Group_" data-name="&lt;Group&gt;"><path class="cls-19" d="M433.74,491.9"/><path class="cls-19" d="M455.83,468.84"/><path class="cls-19" d="M455.83,468.84H18.53c-12.37,0-11.55-2-11.55-4.54V451.88c-.48-1.63-.82-.88,11.55-.88H450.76c12.37,0,22.5,2,22.5,4.53v2.34c0,.47,2.16,2.24,5.89,2.76a14.38,14.38,0,0,0,2.24.16l61.31.15c10.17,0,14.52,1.17,14.52,3.36,0,1.25-2.54,2.38-6.61,3.2-3.82.77-61,1.27-66.73,1.32Z"/><path class="cls-19" d="M436.62,488.58"/><path class="cls-19" d="M436.62,494.73"/></g><line class="cls-50" x1="528.99" y1="477.23" x2="533.55" y2="477.23"/><line class="cls-50" x1="537" y1="477.23" x2="554.59" y2="477.23"/><line class="cls-55" x1="530.83" y1="476.32" x2="535.39" y2="476.32"/><line class="cls-55" x1="537.93" y1="476.32" x2="555.52" y2="476.32"/><line class="cls-56" x1="111.44" y1="400.31" x2="111.44" y2="451.2"/><polygon class="cls-57" points="204.03 389.92 216.35 389.62 246.75 355.01 235.16 356.43 204.03 389.92"/><polyline class="cls-52" points="112.13 400.31 220.36 400.16 220 450.16 112.2 450.35"/><polygon class="cls-58" points="214.47 400.3 130.48 400 181.31 355.01 211.7 355.62 224.2 367.68 202.55 390.2 214.47 400.3"/><polygon class="cls-52" points="217.09 449.96 217.61 389.32 246.72 355.38 273.7 396.08 273.18 449.4 217.09 449.96"/><path class="cls-59" d="M222.23,369.19"/><polyline class="cls-60" points="199.32 440.05 199.32 412.04 184.58 412.04 184.58 440.05"/><circle class="cls-61" cx="195.85" cy="430.2" r="1.72"/><polygon class="cls-56" points="203.73 389.92 217.42 389.62 246.23 355.01 234.95 356.43 203.73 389.92"/><line class="cls-56" x1="132.18" y1="400.16" x2="132.18" y2="451.39"/><polyline class="cls-37" points="209.28 443.14 209.28 440.05 121.16 440.05 121.16 443.66"/><polyline class="cls-37" points="213.9 446.75 213.9 443.66 116.86 443.66 116.86 446.75"/><line class="cls-37" x1="203.73" y1="438.79" x2="204.34" y2="401.52"/><polygon class="cls-62" points="112.24 400.31 130.17 399.88 180.77 355.01 174.79 355.38 112.24 400.31"/><line class="cls-37" x1="178.34" y1="438.79" x2="178.94" y2="401.52"/><polyline class="cls-63" points="244.41 404.13 244.41 376.95 232.29 376.95 232.29 404.13"/><ellipse class="cls-63" cx="241.56" cy="394.57" rx="1.41" ry="1.67"/><polyline class="cls-63" points="244.41 404.13 244.41 376.95 256.53 376.95 256.53 404.13"/><ellipse class="cls-63" cx="247.26" cy="394.57" rx="1.41" ry="1.67"/><line class="cls-37" x1="217.14" y1="390.04" x2="273.89" y2="390.1"/><line class="cls-37" x1="220.36" y1="388.67" x2="220.36" y2="403.98"/><line class="cls-37" x1="225.23" y1="388.67" x2="225.23" y2="403.98"/><line class="cls-37" x1="230.09" y1="388.67" x2="230.09" y2="403.98"/><line class="cls-37" x1="234.96" y1="388.67" x2="234.96" y2="403.98"/><line class="cls-37" x1="239.83" y1="388.67" x2="239.83" y2="403.98"/><line class="cls-37" x1="244.69" y1="388.67" x2="244.69" y2="403.98"/><line class="cls-37" x1="249.56" y1="388.67" x2="249.56" y2="403.98"/><line class="cls-37" x1="254.43" y1="388.67" x2="254.43" y2="403.98"/><line class="cls-37" x1="259.29" y1="388.67" x2="259.29" y2="403.98"/><line class="cls-37" x1="264.16" y1="388.67" x2="264.16" y2="403.98"/><line class="cls-37" x1="269.02" y1="388.67" x2="269.02" y2="403.98"/><line class="cls-37" x1="215.71" y1="404.08" x2="273.04" y2="404.14"/><line class="cls-37" x1="273.86" y1="388.67" x2="273.86" y2="403.98"/><line class="cls-37" x1="218.21" y1="388.67" x2="218.21" y2="403.98"/><line class="cls-37" x1="217.22" y1="390.04" x2="273.97" y2="390.1"/><line class="cls-37" x1="222.51" y1="388.67" x2="222.51" y2="403.98"/><line class="cls-37" x1="227.37" y1="388.67" x2="227.37" y2="403.98"/><line class="cls-37" x1="232.24" y1="388.67" x2="232.24" y2="403.98"/><line class="cls-37" x1="237.11" y1="388.67" x2="237.11" y2="403.98"/><line class="cls-37" x1="241.97" y1="388.67" x2="241.97" y2="403.98"/><line class="cls-37" x1="246.84" y1="388.67" x2="246.84" y2="403.98"/><line class="cls-37" x1="251.71" y1="388.67" x2="251.71" y2="403.98"/><line class="cls-37" x1="256.57" y1="388.67" x2="256.57" y2="403.98"/><line class="cls-37" x1="261.44" y1="388.67" x2="261.44" y2="403.98"/><line class="cls-37" x1="266.31" y1="388.67" x2="266.31" y2="403.98"/><line class="cls-37" x1="271.17" y1="388.67" x2="271.17" y2="403.98"/><line class="cls-37" x1="217.34" y1="404.08" x2="273.64" y2="404.14"/><polygon class="cls-31" points="177.13 373.6 184.35 373.6 184.35 388 177.13 373.6"/><path class="cls-64" d="M190.7,361.48l-6.55,11.33a.35.35,0,0,0,.3.53h13.1a.35.35,0,0,0,.3-.53l-6.55-11.33A.35.35,0,0,0,190.7,361.48Z"/><polygon class="cls-65" points="177.15 373.42 183.84 373.1 190.95 361.17 184.48 362.52 177.15 373.42"/><g id="window-3" data-name="window"><polyline class="cls-52" points="197.83 386.51 197.83 373.55 184.65 373.55 184.65 388.89 198.88 388.89"/><line class="cls-52" x1="188.12" y1="386.51" x2="199.71" y2="386.51"/></g><line class="cls-52" x1="184.82" y1="378.92" x2="197.27" y2="378.92"/><line class="cls-52" x1="191.73" y1="378.92" x2="191.73" y2="373.5"/><rect class="cls-18" x="185.25" y="373.27" width="10.59" height="13.37"/><g id="window-4" data-name="window"><polyline class="cls-37" points="197.83 386.51 197.83 373.55 184.65 373.55 184.65 388.89 198.88 388.89"/><line class="cls-37" x1="188.12" y1="386.51" x2="199.71" y2="386.51"/></g><line class="cls-37" x1="184.82" y1="378.92" x2="197.27" y2="378.92"/><line class="cls-37" x1="191.73" y1="378.92" x2="191.73" y2="373.5"/><line class="cls-66" x1="177.15" y1="373.42" x2="182.95" y2="386.49"/><rect class="cls-18" x="230.87" y="415.25" width="26.2" height="18.58"/><rect class="cls-37" x="231.51" y="414.38" width="27.95" height="22"/><line class="cls-37" x1="239.98" y1="436.38" x2="239.98" y2="414.38"/><line class="cls-37" x1="251.07" y1="436.37" x2="251.07" y2="414.37"/><line class="cls-37" x1="231.24" y1="421.77" x2="239.75" y2="421.77"/><line class="cls-37" x1="250.78" y1="421.98" x2="259.46" y2="421.98"/><line class="cls-37" x1="253.76" y1="414.38" x2="253.76" y2="421.77"/><line class="cls-37" x1="256.86" y1="414.38" x2="256.86" y2="421.77"/><line class="cls-37" x1="234.34" y1="414.38" x2="234.34" y2="421.77"/><line class="cls-37" x1="237.44" y1="414.38" x2="237.44" y2="421.77"/><line class="cls-37" x1="231.24" y1="418.27" x2="239.75" y2="418.27"/><line class="cls-37" x1="250.78" y1="418.48" x2="259.46" y2="418.48"/><rect class="cls-18" x="138.66" y="411.38" width="33.94" height="16.07"/><rect class="cls-37" x="138.4" y="412.04" width="36.16" height="17.62"/><line class="cls-37" x1="148.03" y1="429.66" x2="148.03" y2="412.04"/><line class="cls-37" x1="163.71" y1="429.66" x2="163.71" y2="412.04"/><line class="cls-37" x1="138.05" y1="417.96" x2="147.68" y2="417.96"/><line class="cls-37" x1="163.32" y1="418.13" x2="172.6" y2="418.13"/><line class="cls-67" x1="142.87" y1="412.04" x2="142.87" y2="418.13"/><line class="cls-68" x1="168.95" y1="412.04" x2="168.95" y2="418.13"/><rect class="cls-18" x="116.86" y="412.4" width="6.44" height="15.03"/><g id="window-5" data-name="window"><polyline class="cls-37" points="125.57 427.43 125.57 412.42 116.99 412.42 116.99 430.2 126.25 430.2"/><line class="cls-37" x1="120.42" y1="427.43" x2="127.97" y2="427.43"/></g><line class="cls-52" x1="117.1" y1="418.64" x2="125.21" y2="418.64"/><line class="cls-52" x1="121.6" y1="418.64" x2="121.6" y2="412.37"/><polyline class="cls-37" points="217.09 449.81 217.09 446.72 112.13 446.72 112.13 449.81"/><ellipse class="cls-69" cx="138.36" cy="446.34" rx="4.82" ry="4.44"/><ellipse class="cls-22" cx="127.36" cy="447.27" rx="4.82" ry="3.52"/><path class="cls-22" d="M141.88,448.22v.11a2.66,2.66,0,0,1-1,2.06,4.62,4.62,0,0,1-5.27-.49,5.43,5.43,0,0,0,2.17-4.35h1.42A2.67,2.67,0,0,1,141.88,448.22Z"/><path class="cls-22" d="M140.9,450.4a2.64,2.64,0,0,1-1.68.6h-.6A4.56,4.56,0,0,0,140.9,450.4Z"/><path class="cls-22" d="M138.62,451h-6.26a5.42,5.42,0,0,0,3.27-1.09A4.59,4.59,0,0,0,138.62,451Z"/><path class="cls-22" d="M137.8,445.56h-3.74a4.62,4.62,0,0,1,2.57-3.36A5.42,5.42,0,0,1,137.8,445.56Z"/><path class="cls-22" d="M134.07,445.56h3.74a5.43,5.43,0,0,1-2.17,4.35,4.6,4.6,0,0,1-1.64-3.53A4.49,4.49,0,0,1,134.07,445.56Z"/><path class="cls-22" d="M132.36,440.12a5.43,5.43,0,0,1,4.28,2.08,4.62,4.62,0,0,0-2.57,3.36h-5a3.52,3.52,0,0,0-2-1.48A5.44,5.44,0,0,1,132.36,440.12Z"/><path class="cls-22" d="M134,446.38a4.6,4.6,0,0,0,1.64,3.53,5.44,5.44,0,0,1-6.79-.2,3.54,3.54,0,0,0,.24-4.15h5A4.49,4.49,0,0,0,134,446.38Z"/><path class="cls-22" d="M132.36,451H126.1a3.53,3.53,0,0,0,2.74-1.3A5.41,5.41,0,0,0,132.36,451Z"/><path class="cls-22" d="M129.08,445.56a3.54,3.54,0,0,1-.24,4.15,5.42,5.42,0,0,1-1.92-4.15Z"/><path class="cls-22" d="M129.08,445.56h-2.16a5.33,5.33,0,0,1,.21-1.48A3.52,3.52,0,0,1,129.08,445.56Z"/><path class="cls-22" d="M128.84,449.71a3.53,3.53,0,0,1-2.74,1.3l-.36,0-.13,0a2.67,2.67,0,0,1-2.23-2.63v-.11a2.67,2.67,0,0,1,2.66-2.66h.87A5.42,5.42,0,0,0,128.84,449.71Z"/><path class="cls-22" d="M126.1,451H126l-.3,0Z"/><path class="cls-56" d="M125.62,451a3.54,3.54,0,0,1,.49-7,3.44,3.44,0,0,1,1,.15"/><path class="cls-56" d="M126.1,451l-.36,0"/><path class="cls-56" d="M127.13,444.08a5.44,5.44,0,0,1,9.51-1.88"/><path class="cls-56" d="M136.64,442.2a4.62,4.62,0,0,1,4.26,8.2"/><path class="cls-56" d="M126.1,451H126l-.3,0-.13,0"/><path class="cls-56" d="M140.9,450.4a2.64,2.64,0,0,1-1.68.6h-6.86"/><line class="cls-70" x1="132.53" y1="446.47" x2="132.53" y2="450.78"/><line class="cls-70" x1="132.38" y1="450.76" x2="131.29" y2="449"/><line class="cls-70" x1="127.13" y1="449.12" x2="127.11" y2="451.07"/><path class="cls-70" d="M127,451.06"/><line class="cls-70" x1="138.56" y1="449.15" x2="138.2" y2="451.07"/><path class="cls-70" d="M138.05,451"/><line class="cls-56" x1="202.72" y1="390.28" x2="213.61" y2="399.58"/><polyline class="cls-56" points="224.2 367.68 211.7 355.01 181.31 355.01"/><polyline class="cls-56" points="111.44 400.05 175.34 355.01 181.37 355.01 129.79 400.05"/><ellipse class="cls-22" cx="220.92" cy="446.01" rx="6.3" ry="3.13"/><path class="cls-17" d="M253.24,445.87v1.81a1.73,1.73,0,0,1,0,.29h0a17,17,0,0,1-6.5,1.16,17.67,17.67,0,0,1-6-.95c2.63-.86,4.34-2.23,4.34-3.77h6.7A1.46,1.46,0,0,1,253.24,445.87Z"/><path class="cls-17" d="M253.21,448a1.47,1.47,0,0,1-1.43,1.16h-5.07A17,17,0,0,0,253.21,448Z"/><path class="cls-17" d="M246.71,449.14H234.2a21.44,21.44,0,0,0,6.54-.95A17.67,17.67,0,0,0,246.71,449.14Z"/><path class="cls-17" d="M245.08,444.42h-7.47c.53-1.29,2.49-2.37,5.14-2.92C244.21,442.3,245.08,443.32,245.08,444.42Z"/><path class="cls-17" d="M237.61,444.42h7.47c0,1.54-1.7,2.91-4.34,3.77-2-.73-3.28-1.83-3.28-3.07A1.79,1.79,0,0,1,237.61,444.42Z"/><path class="cls-17" d="M234.2,439.69a18.51,18.51,0,0,1,8.55,1.8c-2.65.55-4.61,1.62-5.14,2.92h-10a9.3,9.3,0,0,0-3.91-1.28C225,441.15,229.22,439.69,234.2,439.69Z"/><path class="cls-17" d="M237.46,445.13c0,1.23,1.27,2.33,3.28,3.07a21.44,21.44,0,0,1-6.54.95,20.81,20.81,0,0,1-7-1.12c1-.53,1.6-1.21,1.6-1.95a2.11,2.11,0,0,0-1.12-1.65h10A1.79,1.79,0,0,0,237.46,445.13Z"/><path class="cls-17" d="M234.2,449.14H221.69a12.21,12.21,0,0,0,5.47-1.12A20.81,20.81,0,0,0,234.2,449.14Z"/><path class="cls-17" d="M227.64,444.42a2.11,2.11,0,0,1,1.12,1.65c0,.74-.6,1.42-1.6,1.95-2.35-.86-3.84-2.16-3.84-3.6Z"/><path class="cls-17" d="M227.64,444.42h-4.32a2.3,2.3,0,0,1,.41-1.28A9.3,9.3,0,0,1,227.64,444.42Z"/><path class="cls-17" d="M227.16,448a13.91,13.91,0,0,1-10.86,0,1.39,1.39,0,0,1,0-.37v-1.81a1.46,1.46,0,0,1,1.45-1.45h5.62C223.32,445.86,224.81,447.15,227.16,448Z"/><path class="cls-17" d="M221.69,449.14h-4a1.46,1.46,0,0,1-1.4-1.08A12.31,12.31,0,0,0,221.69,449.14Z"/><path class="cls-28" d="M221.69,449.14a12.31,12.31,0,0,1-5.39-1.08c-1-.54-1.68-1.23-1.68-2,0-1.7,3.17-3.07,7.07-3.07a15.33,15.33,0,0,1,2,.13"/><path class="cls-28" d="M223.73,443.13c1.28-2,5.48-3.44,10.47-3.44a18.51,18.51,0,0,1,8.55,1.8"/><path class="cls-28" d="M253.21,448a17,17,0,0,1-6.5,1.16"/><path class="cls-28" d="M242.75,441.5a19.68,19.68,0,0,1,4-.39c5.11,0,9.25,1.8,9.25,4,0,1.12-1,2.13-2.75,2.85"/><path class="cls-28" d="M253.21,448h0a1.47,1.47,0,0,1-1.43,1.16H234.2"/><path class="cls-28" d="M221.69,449.14h-4a1.46,1.46,0,0,1-1.4-1.08"/><line class="cls-53" x1="234.54" y1="445.21" x2="234.54" y2="448.95"/><line class="cls-53" x1="234.23" y1="448.93" x2="232.05" y2="447.4"/><line class="cls-53" x1="223.74" y1="447.51" x2="223.71" y2="449.2"/><path class="cls-53" d="M223.4,449.19"/><line class="cls-53" x1="246.59" y1="447.53" x2="245.88" y2="449.2"/><path class="cls-53" d="M245.58,449.17"/><ellipse class="cls-22" cx="252.53" cy="445.1" rx="4.18" ry="3.85"/><path class="cls-17" d="M255.58,445.87v1.81a1.29,1.29,0,0,1,0,.32,4,4,0,0,1-5.39.19,4.72,4.72,0,0,0,1.88-3.77h2.09A1.46,1.46,0,0,1,255.58,445.87Z"/><path class="cls-17" d="M255.55,448a1.45,1.45,0,0,1-1.42,1.14h-1.38A4,4,0,0,0,255.55,448Z"/><path class="cls-17" d="M252.75,449.14h-5.43a4.7,4.7,0,0,0,2.84-.95A4,4,0,0,0,252.75,449.14Z"/><path class="cls-17" d="M252,444.42H248.8A4,4,0,0,1,251,441.5,4.7,4.7,0,0,1,252,444.42Z"/><path class="cls-17" d="M248.8,444.42H252a4.72,4.72,0,0,1-1.88,3.77,4,4,0,0,1-1.42-3.07A3.89,3.89,0,0,1,248.8,444.42Z"/><path class="cls-17" d="M247.32,439.69a4.71,4.71,0,0,1,3.71,1.8,4,4,0,0,0-2.23,2.92h-4.33a3.05,3.05,0,0,0-1.7-1.28A4.72,4.72,0,0,1,247.32,439.69Z"/><path class="cls-17" d="M248.74,445.13a4,4,0,0,0,1.42,3.07,4.72,4.72,0,0,1-5.9-.17,3.07,3.07,0,0,0,.21-3.6h4.33A3.89,3.89,0,0,0,248.74,445.13Z"/><path class="cls-17" d="M247.32,449.14h-5.43a3.07,3.07,0,0,0,2.38-1.12A4.7,4.7,0,0,0,247.32,449.14Z"/><path class="cls-17" d="M244.47,444.42a3.07,3.07,0,0,1-.21,3.6,4.7,4.7,0,0,1-1.67-3.6Z"/><path class="cls-17" d="M244.47,444.42H242.6a4.63,4.63,0,0,1,.18-1.28A3.05,3.05,0,0,1,244.47,444.42Z"/><path class="cls-17" d="M244.26,448a3.07,3.07,0,0,1-4.68.09,1.43,1.43,0,0,1-.06-.42v-1.81a1.46,1.46,0,0,1,1.45-1.45h1.62A4.7,4.7,0,0,0,244.26,448Z"/><path class="cls-17" d="M241.89,449.14H241a1.46,1.46,0,0,1-1.39-1A3.06,3.06,0,0,0,241.89,449.14Z"/><path class="cls-28" d="M241.89,449.14a3.07,3.07,0,1,1,0-6.14,3,3,0,0,1,.89.13"/><path class="cls-28" d="M242.78,443.13A4.72,4.72,0,0,1,251,441.5"/><path class="cls-28" d="M251,441.5a4,4,0,1,1,1.72,7.64"/><path class="cls-28" d="M241.89,449.14H241a1.46,1.46,0,0,1-1.39-1"/><path class="cls-28" d="M255.55,448a1.45,1.45,0,0,1-1.42,1.14h-6.81"/><line class="cls-53" x1="247.47" y1="445.21" x2="247.47" y2="448.95"/><line class="cls-53" x1="247.33" y1="448.93" x2="246.39" y2="447.4"/><line class="cls-53" x1="242.78" y1="447.51" x2="242.76" y2="449.2"/><path class="cls-53" d="M242.63,449.19"/><line class="cls-53" x1="252.7" y1="447.53" x2="252.39" y2="449.2"/><path class="cls-53" d="M252.26,449.17"/><ellipse class="cls-22" cx="43.92" cy="448.01" rx="6.3" ry="3.13"/><path class="cls-17" d="M76.24,447.87v1.81a1.73,1.73,0,0,1,0,.29h0a17,17,0,0,1-6.5,1.16,17.69,17.69,0,0,1-6-.95c2.63-.86,4.34-2.23,4.34-3.77h6.71A1.46,1.46,0,0,1,76.24,447.87Z"/><path class="cls-17" d="M76.21,450a1.47,1.47,0,0,1-1.43,1.16H69.71A17,17,0,0,0,76.21,450Z"/><path class="cls-17" d="M69.71,451.14H57.2a21.44,21.44,0,0,0,6.54-.95A17.69,17.69,0,0,0,69.71,451.14Z"/><path class="cls-17" d="M68.08,446.42H60.61c.53-1.29,2.49-2.37,5.14-2.92C67.21,444.3,68.08,445.32,68.08,446.42Z"/><path class="cls-17" d="M60.61,446.42h7.47c0,1.54-1.7,2.91-4.34,3.77-2-.73-3.28-1.83-3.28-3.07A1.79,1.79,0,0,1,60.61,446.42Z"/><path class="cls-17" d="M57.2,441.7a18.51,18.51,0,0,1,8.55,1.8c-2.65.55-4.61,1.62-5.14,2.92h-10a9.3,9.3,0,0,0-3.91-1.28C48,443.15,52.22,441.7,57.2,441.7Z"/><path class="cls-17" d="M60.46,447.13c0,1.23,1.27,2.33,3.28,3.07a21.44,21.44,0,0,1-6.54.95,20.76,20.76,0,0,1-7-1.12c1-.53,1.6-1.21,1.6-1.95a2.11,2.11,0,0,0-1.12-1.65h10A1.79,1.79,0,0,0,60.46,447.13Z"/><path class="cls-17" d="M57.2,451.14H44.69A12.21,12.21,0,0,0,50.16,450,20.76,20.76,0,0,0,57.2,451.14Z"/><path class="cls-17" d="M50.64,446.42a2.11,2.11,0,0,1,1.12,1.65c0,.74-.6,1.42-1.6,1.95-2.35-.86-3.84-2.16-3.84-3.6Z"/><path class="cls-17" d="M50.64,446.42H46.32a2.3,2.3,0,0,1,.41-1.28A9.3,9.3,0,0,1,50.64,446.42Z"/><path class="cls-17" d="M50.16,450a12.21,12.21,0,0,1-5.47,1.12,12.31,12.31,0,0,1-5.39-1.08,1.39,1.39,0,0,1,0-.37v-1.81a1.46,1.46,0,0,1,1.45-1.45h5.62C46.32,447.86,47.81,449.15,50.16,450Z"/><path class="cls-17" d="M44.69,451.14h-4a1.46,1.46,0,0,1-1.4-1.08A12.31,12.31,0,0,0,44.69,451.14Z"/><path class="cls-28" d="M44.69,451.14a12.31,12.31,0,0,1-5.39-1.08c-1-.54-1.68-1.23-1.68-2,0-1.7,3.17-3.07,7.07-3.07a15.33,15.33,0,0,1,2,.13"/><path class="cls-28" d="M46.73,445.13c1.28-2,5.48-3.44,10.47-3.44a18.51,18.51,0,0,1,8.55,1.8"/><path class="cls-28" d="M76.21,450a17,17,0,0,1-6.5,1.16"/><path class="cls-28" d="M65.75,443.5a19.76,19.76,0,0,1,4-.39c5.11,0,9.25,1.8,9.25,4,0,1.12-1,2.13-2.75,2.85"/><path class="cls-28" d="M44.69,451.14h-4a1.46,1.46,0,0,1-1.4-1.08"/><path class="cls-28" d="M76.21,450a1.47,1.47,0,0,1-1.43,1.16H57.2"/><line class="cls-53" x1="57.54" y1="447.21" x2="57.54" y2="450.95"/><line class="cls-53" x1="57.23" y1="450.93" x2="55.05" y2="449.4"/><line class="cls-53" x1="46.74" y1="449.51" x2="46.71" y2="451.2"/><path class="cls-53" d="M46.4,451.19"/><line class="cls-53" x1="69.59" y1="449.53" x2="68.88" y2="451.2"/><path class="cls-53" d="M68.58,451.17"/><ellipse class="cls-22" cx="75.53" cy="447.1" rx="4.18" ry="3.85"/><path class="cls-17" d="M78.58,447.87v1.81a1.29,1.29,0,0,1,0,.32,4,4,0,0,1-5.39.19A4.72,4.72,0,0,0,75,446.42h2.09A1.46,1.46,0,0,1,78.58,447.87Z"/><path class="cls-17" d="M78.55,450a1.45,1.45,0,0,1-1.42,1.14H75.75A4,4,0,0,0,78.55,450Z"/><path class="cls-17" d="M75.75,451.14H70.32a4.7,4.7,0,0,0,2.84-.95A4,4,0,0,0,75.75,451.14Z"/><path class="cls-17" d="M75,446.42H71.8A4,4,0,0,1,74,443.5,4.7,4.7,0,0,1,75,446.42Z"/><path class="cls-17" d="M71.8,446.42H75a4.72,4.72,0,0,1-1.88,3.77,4,4,0,0,1-1.42-3.07A3.89,3.89,0,0,1,71.8,446.42Z"/><path class="cls-17" d="M70.32,441.7A4.71,4.71,0,0,1,74,443.5a4,4,0,0,0-2.23,2.92H67.47a3.05,3.05,0,0,0-1.7-1.28A4.72,4.72,0,0,1,70.32,441.7Z"/><path class="cls-17" d="M71.74,447.13a4,4,0,0,0,1.42,3.07,4.72,4.72,0,0,1-5.9-.17,3.07,3.07,0,0,0,.21-3.6H71.8A3.89,3.89,0,0,0,71.74,447.13Z"/><path class="cls-17" d="M70.32,451.14H64.89A3.07,3.07,0,0,0,67.26,450,4.7,4.7,0,0,0,70.32,451.14Z"/><path class="cls-17" d="M67.47,446.42a3.07,3.07,0,0,1-.21,3.6,4.7,4.7,0,0,1-1.67-3.6Z"/><path class="cls-17" d="M67.47,446.42H65.6a4.63,4.63,0,0,1,.18-1.28A3.05,3.05,0,0,1,67.47,446.42Z"/><path class="cls-17" d="M67.26,450a3.07,3.07,0,0,1-4.68.09,1.43,1.43,0,0,1-.06-.42v-1.81A1.46,1.46,0,0,1,64,446.42H65.6A4.7,4.7,0,0,0,67.26,450Z"/><path class="cls-17" d="M64.89,451.14H64a1.46,1.46,0,0,1-1.39-1A3.06,3.06,0,0,0,64.89,451.14Z"/><path class="cls-28" d="M64.89,451.14a3.07,3.07,0,1,1,0-6.14,3,3,0,0,1,.89.13"/><path class="cls-28" d="M65.78,445.13A4.72,4.72,0,0,1,74,443.5"/><path class="cls-28" d="M74,443.5a4,4,0,1,1,1.72,7.64"/><path class="cls-28" d="M64.89,451.14H64a1.46,1.46,0,0,1-1.39-1"/><path class="cls-28" d="M78.55,450a1.45,1.45,0,0,1-1.42,1.14H70.32"/><line class="cls-53" x1="70.47" y1="447.21" x2="70.47" y2="450.95"/><line class="cls-53" x1="70.33" y1="450.93" x2="69.39" y2="449.4"/><line class="cls-53" x1="65.78" y1="449.51" x2="65.76" y2="451.2"/><path class="cls-53" d="M65.63,451.19"/><line class="cls-53" x1="75.7" y1="449.53" x2="75.39" y2="451.2"/><path class="cls-53" d="M75.26,451.17"/><polygon class="cls-71" points="115.53 445.86 101.64 445.86 108.59 414.12 115.53 445.86"/><line class="cls-42" x1="108.59" y1="429.28" x2="108.59" y2="450.98"/><line class="cls-42" x1="108.41" y1="436.38" x2="107.15" y2="434.34"/><line class="cls-42" x1="108.59" y1="440.6" x2="111.36" y2="436.03"/><line class="cls-42" x1="108.41" y1="443.55" x2="105.64" y2="438.98"/><line class="cls-34" x1="461.88" y1="439.3" x2="479.56" y2="439.3"/><line class="cls-34" x1="799.47" y1="439.3" x2="823.93" y2="439.3"/><path class="cls-18" d="M905.72,354.88h-3.38A17.57,17.57,0,0,0,868,349.57a11.71,11.71,0,1,0-3.52,22.88h41.21a8.36,8.36,0,0,0,8.33-8.33v-.9A8.36,8.36,0,0,0,905.72,354.88Z"/><path class="cls-34" d="M392,529.35h42.82"/><line class="cls-34" x1="439.73" y1="529.35" x2="443.24" y2="529.35"/><line class="cls-34" x1="446.05" y1="529.35" x2="476.23" y2="529.35"/><line class="cls-28" x1="623.19" y1="458.35" x2="626.84" y2="458.35"/><line class="cls-34" x1="827.58" y1="439.3" x2="833.97" y2="439.3"/><line class="cls-34" x1="838.53" y1="439.3" x2="840.36" y2="439.3"/><line class="cls-34" x1="846.75" y1="439.3" x2="900.58" y2="439.3"/><line class="cls-34" x1="906.97" y1="439.3" x2="922.48" y2="439.3"/><line class="cls-34" x1="926.59" y1="439.3" x2="948.49" y2="439.3"/><line class="cls-34" x1="953.96" y1="439.3" x2="960.35" y2="439.3"/><line class="cls-34" x1="964.91" y1="439.3" x2="966.74" y2="439.3"/><line class="cls-34" x1="973.13" y1="439.3" x2="1026.96" y2="439.3"/><line class="cls-34" x1="1033.35" y1="439.3" x2="1048.86" y2="439.3"/><line class="cls-50" x1="1054.34" y1="439.3" x2="1105" y2="439.3"/><line class="cls-72" x1="471.58" y1="275.13" x2="498.43" y2="275.13"/><line class="cls-72" x1="504.96" y1="275.13" x2="501.33" y2="275.13"/><line class="cls-72" x1="510.76" y1="275.13" x2="561.56" y2="275.13"/><path class="cls-18" d="M482.92,274s-8-5.81,0-15.24,18.87-.73,18.87-.73,2.18-5.81,6.53-6.53,9.43,2.18,9.43,2.18a19.3,19.3,0,0,1,18.14-11.61c13.79,0,19.59,10.16,21,16.69,0,0,10.16-.73,10.89,6.53s-2.9,8.71-2.9,8.71Z"/><line class="cls-50" x1="1246.11" y1="507.06" x2="1260.71" y2="507.06"/><line class="cls-50" x1="1256.15" y1="516.19" x2="1259.8" y2="516.19"/><line class="cls-34" x1="997.54" y1="529.59" x2="1019.44" y2="529.59"/><line class="cls-34" x1="1024" y1="529.59" x2="1026.74" y2="529.59"/><line class="cls-34" x1="1031.3" y1="529.59" x2="1049.55" y2="529.59"/><line class="cls-50" x1="1165.09" y1="478.62" x2="1189.58" y2="478.62"/><line class="cls-50" x1="1194.68" y1="478.62" x2="1197.74" y2="478.62"/><line class="cls-50" x1="1165.26" y1="490.88" x2="1189.75" y2="490.88"/><line class="cls-50" x1="1194.85" y1="490.88" x2="1197.91" y2="490.88"/><line class="cls-50" x1="1202.85" y1="478.62" x2="1223.25" y2="478.62"/><line class="cls-50" x1="1228.36" y1="478.62" x2="1231.42" y2="478.62"/><line class="cls-50" x1="1232.95" y1="470.77" x2="1244.17" y2="470.77"/><line class="cls-50" x1="1105.78" y1="478.62" x2="1130.27" y2="478.62"/><line class="cls-50" x1="1135.37" y1="478.62" x2="1138.43" y2="478.62"/><line class="cls-50" x1="1143.53" y1="478.62" x2="1163.94" y2="478.62"/><line class="cls-19" x1="1169.04" y1="478.62" x2="1172.11" y2="478.62"/><line class="cls-34" x1="960.91" y1="491.15" x2="965.47" y2="491.15"/><line class="cls-34" x1="969.12" y1="491.15" x2="1008.36" y2="491.15"/><line class="cls-50" x1="1160.72" y1="542.8" x2="1209.56" y2="542.8"/><line class="cls-50" x1="1042.44" y1="542.8" x2="1091.28" y2="542.8"/><line class="cls-50" x1="1101.45" y1="542.8" x2="1107.56" y2="542.8"/><line class="cls-50" x1="1117.73" y1="542.8" x2="1158.43" y2="542.8"/><line class="cls-50" x1="1168.61" y1="542.8" x2="1174.71" y2="542.8"/><path class="cls-73" d="M971.28,463.63H948.8c-3.15-.51-7.18-2-6.6-6.15-.44-3.77,5.73-5.28,8.66-5.88h7.67a6.26,6.26,0,1,0,0-12.52H898.75a6.25,6.25,0,0,0-2.13,12.14h-1.13c3.28.42,7.09,2.88,7.09,6.33,0,3.18-4.83,5.52-6.69,6.09H877.24a6.26,6.26,0,0,0,0,12.52h32.35a6.47,6.47,0,0,1,3.3,5.46c0,3.12-3.65,5.43-5.16,6.05h-9.06a6.26,6.26,0,0,0,0,12.52h50.26a6.26,6.26,0,0,0,1.71-12.27c1.33.1,1.89-.1.33-.1h-.73a6.22,6.22,0,0,0-1.24-.14c-2.45-.54-5.48-2.08-5-6.12-.27-3,2.76-4.58,5.17-5.39h22.15a6.26,6.26,0,1,0,0-12.52Z"/><path class="cls-55" d="M584.31,525.85H643"/><line class="cls-55" x1="649.79" y1="525.85" x2="654.6" y2="525.85"/><line class="cls-55" x1="658.45" y1="525.85" x2="699.86" y2="525.85"/><line class="cls-55" x1="702.71" y1="518.01" x2="712.46" y2="518.01"/><path class="cls-55" d="M1124,476.78h50.7"/><line class="cls-55" x1="1179.56" y1="476.78" x2="1184.98" y2="476.78"/><line class="cls-55" x1="1188.41" y1="476.78" x2="1235.07" y2="476.78"/><line class="cls-55" x1="622.66" y1="586.11" x2="628.88" y2="586.11"/><line class="cls-55" x1="633.85" y1="586.11" x2="673.15" y2="586.11"/><path class="cls-45" d="M249.73,171.38S264,170,269,176.91a25.25,25.25,0,0,1,18.17-5.64"/><path class="cls-45" d="M223.27,181.42s14.28-1.36,19.26,5.53a25.25,25.25,0,0,1,18.17-5.64"/><line class="cls-55" x1="715.62" y1="539.1" x2="728.9" y2="539.1"/><path class="cls-45" d="M1178.57,189.45s14.28-1.36,19.26,5.53a25.25,25.25,0,0,1,18.17-5.64"/><path class="cls-45" d="M1152.1,199.48s14.28-1.36,19.26,5.53a25.25,25.25,0,0,1,18.17-5.64"/><line class="cls-34" x1="1070.21" y1="465.25" x2="1074.78" y2="465.25"/><line class="cls-34" x1="1078.43" y1="465.25" x2="1117.66" y2="465.25"/><line class="cls-55" x1="998.45" y1="527.77" x2="1020.35" y2="527.77"/><line class="cls-55" x1="1024.91" y1="527.77" x2="1027.65" y2="527.77"/><line class="cls-55" x1="1032.21" y1="527.77" x2="1050.46" y2="527.77"/><line class="cls-55" x1="1059.13" y1="520.75" x2="1069.17" y2="520.75"/><line class="cls-55" x1="1071.9" y1="520.75" x2="1074.64" y2="520.75"/><line class="cls-55" x1="999.66" y1="476.56" x2="1012.93" y2="476.56"/><line class="cls-55" x1="1020.07" y1="476.56" x2="1023.13" y2="476.56"/><line class="cls-55" x1="1028.23" y1="476.56" x2="1031.29" y2="476.56"/><line class="cls-55" x1="970.03" y1="489.33" x2="1009.27" y2="489.33"/><line class="cls-55" x1="1142.25" y1="447.26" x2="1154.11" y2="447.26"/><line class="cls-55" x1="1174.18" y1="447.26" x2="1187.87" y2="447.26"/><line class="cls-55" x1="1197" y1="447.26" x2="1206.12" y2="447.26"/><line class="cls-55" x1="1233.86" y1="468.95" x2="1245.09" y2="468.95"/><line class="cls-55" x1="1071.13" y1="463.43" x2="1075.69" y2="463.43"/><line class="cls-55" x1="1079.34" y1="463.43" x2="1118.58" y2="463.43"/><line class="cls-55" x1="1247.02" y1="505.24" x2="1261.62" y2="505.24"/><line class="cls-55" x1="1257.06" y1="514.36" x2="1260.71" y2="514.36"/><line class="cls-55" x1="1166.17" y1="489.06" x2="1190.66" y2="489.06"/><line class="cls-55" x1="1195.76" y1="489.06" x2="1198.82" y2="489.06"/><line class="cls-55" x1="34.06" y1="519.2" x2="45.92" y2="519.2"/><line class="cls-55" x1="49.57" y1="519.2" x2="54.14" y2="519.2"/><line class="cls-55" x1="58.7" y1="519.2" x2="66.91" y2="519.2"/><line class="cls-55" x1="59.61" y1="529.24" x2="64.17" y2="529.24"/><line class="cls-55" x1="68.74" y1="529.24" x2="90.63" y2="529.24"/><line class="cls-55" x1="118.01" y1="519.2" x2="125.31" y2="519.2"/><line class="cls-55" x1="249.12" y1="505.96" x2="263.89" y2="505.96"/><line class="cls-55" x1="274.97" y1="505.96" x2="295.89" y2="505.96"/><path class="cls-55" d="M394.27,527.13h37"/><line class="cls-55" x1="437.11" y1="527.46" x2="441.93" y2="527.46"/><line class="cls-55" x1="445.78" y1="527.46" x2="476.23" y2="527.46"/><path class="cls-55" d="M129,582.25H165.9"/><line class="cls-55" x1="170.14" y1="582.25" x2="173.16" y2="582.25"/><line class="cls-55" x1="175.58" y1="582.25" x2="201.57" y2="582.25"/><line class="cls-55" x1="308.66" y1="568.14" x2="310.48" y2="568.14"/><line class="cls-55" x1="314.68" y1="568.14" x2="330.32" y2="568.14"/><line class="cls-55" x1="199.72" y1="573.62" x2="215.36" y2="573.62"/><path class="cls-55" d="M464.57,562.16h27.79"/><line class="cls-55" x1="496.73" y1="562.4" x2="500.35" y2="562.4"/><line class="cls-55" x1="503.24" y1="562.4" x2="526.09" y2="562.4"/><line class="cls-55" x1="526.84" y1="554.19" x2="530.46" y2="554.19"/><line class="cls-55" x1="533.35" y1="554.19" x2="556.21" y2="554.19"/><line class="cls-34" x1="827.58" y1="439.3" x2="833.97" y2="439.3"/><line class="cls-34" x1="419.05" y1="439.3" x2="443.52" y2="439.3"/><line class="cls-34" x1="446.05" y1="439.3" x2="453.04" y2="439.3"/><line class="cls-34" x1="577.73" y1="460.16" x2="588.95" y2="460.16"/><line class="cls-55" x1="579.61" y1="459.17" x2="589.37" y2="459.17"/><path class="cls-34" d="M392,529.35h42.82"/><line class="cls-34" x1="439.73" y1="529.35" x2="443.24" y2="529.35"/><line class="cls-34" x1="446.05" y1="529.35" x2="476.23" y2="529.35"/><path class="cls-55" d="M394.27,527.13h37"/><line class="cls-55" x1="437.11" y1="527.46" x2="441.93" y2="527.46"/><line class="cls-55" x1="445.78" y1="527.46" x2="476.23" y2="527.46"/><path class="cls-34" d="M442.7,486.53h42.82"/><line class="cls-34" x1="490.43" y1="486.53" x2="493.94" y2="486.53"/><line class="cls-34" x1="496.75" y1="486.53" x2="526.94" y2="486.53"/><path class="cls-55" d="M445,485.22h37"/><line class="cls-55" x1="487.82" y1="485.55" x2="492.63" y2="485.55"/><line class="cls-55" x1="496.48" y1="485.55" x2="526.94" y2="485.55"/><line class="cls-74" x1="33.52" y1="227.61" x2="57.72" y2="227.61"/><line class="cls-72" x1="27.66" y1="240.47" x2="54.51" y2="240.47"/><line class="cls-72" x1="61.04" y1="240.47" x2="57.41" y2="240.47"/><line class="cls-72" x1="66.84" y1="240.47" x2="117.64" y2="240.47"/><path class="cls-18" d="M36,239.38s-8-5.81,0-15.24,18.87-.73,18.87-.73,2.18-5.81,6.53-6.53,9.43,2.18,9.43,2.18A19.3,19.3,0,0,1,89,207.45c13.79,0,19.59,10.16,21,16.69,0,0,10.16-.73,10.89,6.53s-2.9,8.71-2.9,8.71Z"/><polygon class="cls-71" points="18.53 444.86 4.64 444.86 11.59 413.12 18.53 444.86"/><line class="cls-42" x1="11.59" y1="428.28" x2="11.59" y2="449.98"/><line class="cls-42" x1="11.41" y1="435.38" x2="10.15" y2="433.34"/><line class="cls-42" x1="11.59" y1="439.6" x2="14.36" y2="435.03"/><line class="cls-42" x1="11.41" y1="442.55" x2="8.64" y2="437.98"/><rect class="cls-75" width="26" height="650"/><rect class="cls-76" x="1274.5" width="26" height="650" transform="translate(2575 650) rotate(-180)"/><path class="cls-49" d="M1183,541.34v-5.76l8.65-5.76v-4.32H1050.43c.72,4.32,2.88,7.21,7.93,8.65s4.32,8.65,4.32,8.65"/><line class="cls-49" x1="1056.19" y1="521.17" x2="1056.19" y2="524.77"/><line class="cls-49" x1="1069.88" y1="521.17" x2="1069.88" y2="524.77"/><line class="cls-49" x1="1077.09" y1="521.17" x2="1077.09" y2="524.77"/><line class="cls-49" x1="1083.57" y1="521.17" x2="1083.57" y2="524.77"/><line class="cls-49" x1="1056.19" y1="521.17" x2="1056.19" y2="524.77"/><line class="cls-49" x1="1069.88" y1="521.17" x2="1069.88" y2="524.77"/><line class="cls-49" x1="1077.09" y1="521.17" x2="1077.09" y2="524.77"/><line class="cls-49" x1="1083.57" y1="521.17" x2="1083.57" y2="524.77"/><line class="cls-49" x1="1062.67" y1="500.27" x2="1062.67" y2="524.77"/><line class="cls-49" x1="1150.58" y1="500.27" x2="1150.58" y2="524.77"/><line class="cls-49" x1="1125.36" y1="500.27" x2="1125.36" y2="524.77"/><polygon class="cls-49" points="1157.07 496.67 1058.35 496.67 1058.35 500.27 1154.19 500.27 1157.07 496.67"/><line class="cls-49" x1="1077.81" y1="455.33" x2="1077.81" y2="495.95"/><line class="cls-49" x1="1113.84" y1="478.65" x2="1113.84" y2="495.95"/><polyline class="cls-49" points="1146.52 524.77 1146.52 505.31 1133.03 505.31 1133.03 524.77"/><line class="cls-49" x1="1139.78" y1="506.03" x2="1139.78" y2="525.49"/><polyline class="cls-49" points="1077.81 478.65 1116.72 478.65 1119.6 475.05 1077.81 475.05"/><line class="cls-49" x1="1103.03" y1="478.65" x2="1103.03" y2="495.95"/><line class="cls-49" x1="1142.66" y1="490.9" x2="1142.66" y2="495.95"/><line class="cls-49" x1="1135.45" y1="490.9" x2="1135.45" y2="495.95"/><line class="cls-49" x1="1128.25" y1="490.9" x2="1128.25" y2="495.95"/><line class="cls-49" x1="1121.76" y1="490.9" x2="1121.76" y2="495.95"/><line class="cls-49" x1="1107.35" y1="490.9" x2="1107.35" y2="495.95"/><line class="cls-49" x1="1103.03" y1="490.18" x2="1145.54" y2="490.18"/><line class="cls-49" x1="1090.78" y1="521.17" x2="1090.78" y2="524.77"/><line class="cls-49" x1="1097.98" y1="521.17" x2="1097.98" y2="524.77"/><line class="cls-49" x1="1104.47" y1="521.17" x2="1104.47" y2="524.77"/><line class="cls-49" x1="1111.67" y1="521.17" x2="1111.67" y2="524.77"/><line class="cls-49" x1="1118.88" y1="521.17" x2="1118.88" y2="524.77"/><line class="cls-49" x1="1153.47" y1="521.17" x2="1153.47" y2="524.77"/><line class="cls-49" x1="1160.67" y1="521.17" x2="1160.67" y2="524.77"/><line class="cls-49" x1="1174.36" y1="521.17" x2="1174.36" y2="524.77"/><line class="cls-49" x1="1181.57" y1="521.17" x2="1181.57" y2="524.77"/><line class="cls-49" x1="1188.77" y1="521.17" x2="1188.77" y2="524.77"/><rect class="cls-77" x="1082.85" y="482.26" width="6.49" height="10.09"/><rect class="cls-77" x="1092.94" y="482.26" width="6.49" height="10.09"/><line class="cls-49" x1="1082.85" y1="488.74" x2="1088.62" y2="488.74"/><line class="cls-49" x1="1093.66" y1="488.74" x2="1099.42" y2="488.74"/><line class="cls-49" x1="1167.88" y1="521.17" x2="1167.88" y2="524.77"/><circle class="cls-28" cx="1135.45" cy="516.84" r="0.72"/><circle class="cls-28" cx="1144.1" cy="516.84" r="0.72"/><circle class="cls-30" cx="1077.09" cy="509.64" r="6.67"/><circle class="cls-23" cx="1077.09" cy="509.64" r="4.32"/><ellipse class="cls-23" cx="1078.35" cy="509.82" rx="3.06" ry="3.42"/><circle class="cls-30" cx="1099.42" cy="509.64" r="6.67"/><circle class="cls-23" cx="1099.42" cy="509.64" r="4.32"/><ellipse class="cls-23" cx="1100.68" cy="509.82" rx="3.06" ry="3.42"/><polyline class="cls-78" points="1075.98 456.47 1068.78 459.67 1075.98 463.67"/><polyline class="cls-79" points="1075.98 472.89 1067.61 477.21 1075.98 481.54"/><line class="cls-28" x1="1068.78" y1="477.21" x2="1075.98" y2="477.21"/><path class="cls-18" d="M1076,465.11H1069a.11.11,0,0,0-.08.19l2.7,2.7-2.7,2.7a.11.11,0,0,0,.08.19H1076"/><path class="cls-80" d="M1182.1,534.67l8.65-5.76v-2.5H1052.25c.66,5.27,7.59,6.37,8.84,7.73"/><line class="cls-49" x1="1053.31" y1="520.45" x2="1191.66" y2="520.45"/><rect class="cls-81" x="1073.93" y="465.11" width="2.05" height="5.76"/></g><g id="Trail_Elements" data-name="Trail Elements"><line class="cls-72" x1="900.86" y1="422.45" x2="1140.4" y2="422.45"/></g></g></svg>