<svg xmlns="http://www.w3.org/2000/svg" xmlns:xlink="http://www.w3.org/1999/xlink" viewBox="0 0 1300.5 679.5"><defs><style>.cls-1,.cls-103,.cls-19,.cls-21,.cls-24,.cls-26,.cls-29,.cls-35,.cls-38,.cls-40,.cls-44,.cls-51,.cls-52,.cls-53,.cls-54,.cls-55,.cls-56,.cls-57,.cls-58,.cls-63,.cls-64,.cls-65,.cls-66,.cls-67,.cls-68,.cls-75,.cls-76,.cls-78,.cls-79,.cls-86,.cls-90,.cls-91,.cls-93,.cls-96{fill:none;}.cls-2{clip-path:url(#clip-path);}.cls-3{clip-path:url(#clip-path-2);}.cls-4{fill:#414042;}.cls-5{clip-path:url(#clip-path-3);}.cls-6{clip-path:url(#clip-path-4);}.cls-7{clip-path:url(#clip-path-5);}.cls-8{clip-path:url(#clip-path-6);}.cls-9{clip-path:url(#clip-path-7);}.cls-10{clip-path:url(#clip-path-8);}.cls-11{clip-path:url(#clip-path-9);}.cls-12{clip-path:url(#clip-path-10);}.cls-13{clip-path:url(#clip-path-11);}.cls-14{clip-path:url(#clip-path-12);}.cls-15{clip-path:url(#clip-path-13);}.cls-16{clip-path:url(#clip-path-14);}.cls-17{fill:#c3dbac;}.cls-18,.cls-28,.cls-97{fill:#b9d1ef;}.cls-19,.cls-23,.cls-24,.cls-25,.cls-28,.cls-29,.cls-31,.cls-33,.cls-34,.cls-36,.cls-44,.cls-45,.cls-47,.cls-51,.cls-52,.cls-53,.cls-57,.cls-58,.cls-59,.cls-61,.cls-96,.cls-97,.cls-98{stroke:#414042;}.cls-103,.cls-19,.cls-21,.cls-24,.cls-26,.cls-27,.cls-28,.cls-34,.cls-35,.cls-38,.cls-40,.cls-41,.cls-42,.cls-43,.cls-44,.cls-45,.cls-47,.cls-52,.cls-54,.cls-55,.cls-56,.cls-58,.cls-60,.cls-61,.cls-62,.cls-65,.cls-66,.cls-67,.cls-70,.cls-72,.cls-73,.cls-76,.cls-78,.cls-79,.cls-83,.cls-84,.cls-87,.cls-88,.cls-90,.cls-91{stroke-linecap:round;}.cls-103,.cls-19,.cls-21,.cls-24,.cls-29,.cls-33,.cls-34,.cls-35,.cls-36,.cls-46,.cls-48,.cls-50,.cls-51,.cls-54,.cls-55,.cls-56,.cls-65,.cls-66,.cls-67,.cls-68,.cls-73,.cls-75,.cls-79,.cls-85,.cls-86,.cls-90,.cls-91,.cls-93{stroke-miterlimit:10;}.cls-19,.cls-21,.cls-35,.cls-36,.cls-38,.cls-43,.cls-44,.cls-45,.cls-47,.cls-50,.cls-51,.cls-54,.cls-60,.cls-62,.cls-65,.cls-93,.cls-96,.cls-97{stroke-width:2px;}.cls-20{fill:#84c69f;}.cls-21{stroke:#414141;}.cls-22,.cls-85{fill:#c8dfae;}.cls-23,.cls-27,.cls-32,.cls-33,.cls-34,.cls-41,.cls-43,.cls-47,.cls-50,.cls-60,.cls-61,.cls-70,.cls-80,.cls-89{fill:#fff;}.cls-23,.cls-25,.cls-26,.cls-27,.cls-28,.cls-31,.cls-38,.cls-40,.cls-41,.cls-42,.cls-43,.cls-44,.cls-45,.cls-47,.cls-52,.cls-53,.cls-57,.cls-58,.cls-59,.cls-60,.cls-61,.cls-62,.cls-63,.cls-64,.cls-70,.cls-72,.cls-76,.cls-78,.cls-80,.cls-81,.cls-82,.cls-83,.cls-84,.cls-87,.cls-88,.cls-89,.cls-96,.cls-97,.cls-98{stroke-linejoin:round;}.cls-25,.cls-37,.cls-45,.cls-46,.cls-48{fill:url(#New_Pattern_2);}.cls-103,.cls-26,.cls-27,.cls-62,.cls-88,.cls-89,.cls-90{stroke:#4d4d4d;}.cls-30,.cls-59,.cls-73{fill:#fcc062;}.cls-31,.cls-36,.cls-98,.cls-99{fill:#722c36;}.cls-31,.cls-57,.cls-58,.cls-59,.cls-63{stroke-width:1.4px;}.cls-35,.cls-55,.cls-56{stroke:#00468b;}.cls-38,.cls-50,.cls-60,.cls-68,.cls-70,.cls-72,.cls-73,.cls-75,.cls-76,.cls-78,.cls-79,.cls-80,.cls-81,.cls-82,.cls-83,.cls-84,.cls-85,.cls-86,.cls-87{stroke:#333;}.cls-39{fill:#fbb03b;}.cls-40,.cls-41,.cls-43,.cls-63,.cls-64{stroke:#000;}.cls-42,.cls-72{fill:#8eb9db;}.cls-42{stroke:#8eb9db;}.cls-45,.cls-46{opacity:0.5;}.cls-46,.cls-48{stroke:url(#New_Pattern_3);}.cls-49{fill:url(#New_Pattern_3);}.cls-54,.cls-91{stroke:#024b87;}.cls-55,.cls-66,.cls-75,.cls-78,.cls-90,.cls-91{stroke-width:3px;}.cls-56{stroke-width:2.5px;}.cls-62,.cls-87,.cls-88{fill:#e6e7e8;}.cls-64{stroke-width:1.5px;}.cls-65,.cls-66,.cls-67{stroke:#b9d1ef;}.cls-68,.cls-70,.cls-72,.cls-73,.cls-76,.cls-79,.cls-80,.cls-81,.cls-82,.cls-83,.cls-84{stroke-width:1.4px;}.cls-69{fill:url(#New_Pattern_2-21);}.cls-71{fill:url(#New_Pattern_2-23);}.cls-74{fill:#333;}.cls-77{fill:url(#New_Pattern_2-25);}.cls-81{fill:url(#New_Pattern_2-27);}.cls-82{fill:url(#New_Pattern_2-29);}.cls-83{fill:url(#New_Pattern_2-31);}.cls-84{fill:url(#New_Pattern_2-33);}.cls-92{opacity:0.75;fill:url(#New_Gradient_Swatch);}.cls-93{stroke:#020202;}.cls-94{fill:url(#linear-gradient);}.cls-95{fill:url(#linear-gradient-2);}.cls-100{fill:#87c4b3;}.cls-101{fill:#193057;}.cls-102{fill:#00468b;}.cls-103{stroke-width:1.28px;}</style><clipPath id="clip-path"><circle class="cls-1" cx="4.5" cy="8" r="1"/></clipPath><clipPath id="clip-path-2"><rect class="cls-1" x="1.5" y="5" width="6" height="8"/></clipPath><clipPath id="clip-path-3"><circle class="cls-1" cx="1.5" cy="8" r="1"/></clipPath><clipPath id="clip-path-4"><rect class="cls-1" x="-1.5" y="5" width="6" height="8"/></clipPath><clipPath id="clip-path-5"><circle class="cls-1" cx="6" cy="4" r="1"/></clipPath><clipPath id="clip-path-6"><rect class="cls-1" x="3" y="1" width="6" height="8"/></clipPath><clipPath id="clip-path-7"><circle class="cls-1" cx="3" cy="4" r="1"/></clipPath><clipPath id="clip-path-8"><rect class="cls-1" y="1" width="6" height="8"/></clipPath><clipPath id="clip-path-9"><circle class="cls-1" cy="4" r="1"/></clipPath><clipPath id="clip-path-10"><rect class="cls-1" x="-3" y="1" width="6" height="8"/></clipPath><clipPath id="clip-path-11"><circle class="cls-1" cx="4.5" r="1"/></clipPath><clipPath id="clip-path-12"><rect class="cls-1" x="1.5" y="-3" width="6" height="8"/></clipPath><clipPath id="clip-path-13"><circle class="cls-1" cx="1.5" r="1"/></clipPath><clipPath id="clip-path-14"><rect class="cls-1" x="-1.5" y="-3" width="6" height="8"/></clipPath><pattern id="New_Pattern_2" data-name="New Pattern 2" width="6" height="8" patternTransform="translate(3 6)" patternUnits="userSpaceOnUse" viewBox="0 0 6 8"><rect class="cls-1" width="6" height="8"/><g class="cls-2"><g class="cls-3"><circle class="cls-4" cx="6" cy="5" r="1"/><circle class="cls-4" cx="3" cy="5" r="1"/></g></g><g class="cls-5"><g class="cls-6"><circle class="cls-4" cx="3" cy="5" r="1"/><circle class="cls-4" cy="5" r="1"/></g></g><g class="cls-7"><g class="cls-8"><circle class="cls-4" cx="6" cy="5" r="1"/><circle class="cls-4" cx="3" cy="5" r="1"/><circle class="cls-4" cx="4.5" cy="1" r="1"/></g></g><g class="cls-9"><g class="cls-10"><circle class="cls-4" cx="4.5" cy="9" r="1"/><circle class="cls-4" cx="1.5" cy="9" r="1"/><circle class="cls-4" cx="6" cy="5" r="1"/><circle class="cls-4" cx="3" cy="5" r="1"/><circle class="cls-4" cy="5" r="1"/><circle class="cls-4" cx="4.5" cy="1" r="1"/><circle class="cls-4" cx="1.5" cy="1" r="1"/></g></g><g class="cls-11"><g class="cls-12"><circle class="cls-4" cx="3" cy="5" r="1"/><circle class="cls-4" cy="5" r="1"/><circle class="cls-4" cx="1.5" cy="1" r="1"/></g></g><g class="cls-13"><g class="cls-14"><circle class="cls-4" cx="6" cy="5" r="1"/><circle class="cls-4" cx="3" cy="5" r="1"/><circle class="cls-4" cx="4.5" cy="1" r="1"/><circle class="cls-4" cx="1.5" cy="1" r="1"/></g></g><g class="cls-15"><g class="cls-16"><circle class="cls-4" cx="3" cy="5" r="1"/><circle class="cls-4" cy="5" r="1"/><circle class="cls-4" cx="4.5" cy="1" r="1"/><circle class="cls-4" cx="1.5" cy="1" r="1"/></g></g></pattern><pattern id="New_Pattern_3" data-name="New Pattern 3" width="8" height="8" patternTransform="translate(3 6)" patternUnits="userSpaceOnUse" viewBox="0 0 8 8"><rect class="cls-1" width="8" height="8"/><circle class="cls-4" cx="6" cy="8" r="1"/><circle class="cls-4" cx="2" cy="8" r="1"/><circle class="cls-4" cx="8" cy="4" r="1"/><circle class="cls-4" cx="4" cy="4" r="1"/><circle class="cls-4" cy="4" r="1"/><circle class="cls-4" cx="6" r="1"/><circle class="cls-4" cx="2" r="1"/></pattern><pattern id="New_Pattern_2-21" data-name="New Pattern 2" width="6" height="8" patternTransform="translate(-6.91 16.68) scale(0.43 0.53)" patternUnits="userSpaceOnUse" viewBox="0 0 6 8"><rect class="cls-1" width="6" height="8"/><g class="cls-2"><g class="cls-3"><circle class="cls-4" cx="6" cy="5" r="1"/><circle class="cls-4" cx="3" cy="5" r="1"/></g></g><g class="cls-5"><g class="cls-6"><circle class="cls-4" cx="3" cy="5" r="1"/><circle class="cls-4" cy="5" r="1"/></g></g><g class="cls-7"><g class="cls-8"><circle class="cls-4" cx="6" cy="5" r="1"/><circle class="cls-4" cx="3" cy="5" r="1"/><circle class="cls-4" cx="4.5" cy="1" r="1"/></g></g><g class="cls-9"><g class="cls-10"><circle class="cls-4" cx="4.5" cy="9" r="1"/><circle class="cls-4" cx="1.5" cy="9" r="1"/><circle class="cls-4" cx="6" cy="5" r="1"/><circle class="cls-4" cx="3" cy="5" r="1"/><circle class="cls-4" cy="5" r="1"/><circle class="cls-4" cx="4.5" cy="1" r="1"/><circle class="cls-4" cx="1.5" cy="1" r="1"/></g></g><g class="cls-11"><g class="cls-12"><circle class="cls-4" cx="3" cy="5" r="1"/><circle class="cls-4" cy="5" r="1"/><circle class="cls-4" cx="1.5" cy="1" r="1"/></g></g><g class="cls-13"><g class="cls-14"><circle class="cls-4" cx="6" cy="5" r="1"/><circle class="cls-4" cx="3" cy="5" r="1"/><circle class="cls-4" cx="4.5" cy="1" r="1"/><circle class="cls-4" cx="1.5" cy="1" r="1"/></g></g><g class="cls-15"><g class="cls-16"><circle class="cls-4" cx="3" cy="5" r="1"/><circle class="cls-4" cy="5" r="1"/><circle class="cls-4" cx="4.5" cy="1" r="1"/><circle class="cls-4" cx="1.5" cy="1" r="1"/></g></g></pattern><pattern id="New_Pattern_2-23" data-name="New Pattern 2" width="6" height="8" patternTransform="translate(-3.06 10.32) scale(0.59)" patternUnits="userSpaceOnUse" viewBox="0 0 6 8"><rect class="cls-1" width="6" height="8"/><g class="cls-2"><g class="cls-3"><circle class="cls-4" cx="6" cy="5" r="1"/><circle class="cls-4" cx="3" cy="5" r="1"/></g></g><g class="cls-5"><g class="cls-6"><circle class="cls-4" cx="3" cy="5" r="1"/><circle class="cls-4" cy="5" r="1"/></g></g><g class="cls-7"><g class="cls-8"><circle class="cls-4" cx="6" cy="5" r="1"/><circle class="cls-4" cx="3" cy="5" r="1"/><circle class="cls-4" cx="4.5" cy="1" r="1"/></g></g><g class="cls-9"><g class="cls-10"><circle class="cls-4" cx="4.5" cy="9" r="1"/><circle class="cls-4" cx="1.5" cy="9" r="1"/><circle class="cls-4" cx="6" cy="5" r="1"/><circle class="cls-4" cx="3" cy="5" r="1"/><circle class="cls-4" cy="5" r="1"/><circle class="cls-4" cx="4.5" cy="1" r="1"/><circle class="cls-4" cx="1.5" cy="1" r="1"/></g></g><g class="cls-11"><g class="cls-12"><circle class="cls-4" cx="3" cy="5" r="1"/><circle class="cls-4" cy="5" r="1"/><circle class="cls-4" cx="1.5" cy="1" r="1"/></g></g><g class="cls-13"><g class="cls-14"><circle class="cls-4" cx="6" cy="5" r="1"/><circle class="cls-4" cx="3" cy="5" r="1"/><circle class="cls-4" cx="4.5" cy="1" r="1"/><circle class="cls-4" cx="1.5" cy="1" r="1"/></g></g><g class="cls-15"><g class="cls-16"><circle class="cls-4" cx="3" cy="5" r="1"/><circle class="cls-4" cy="5" r="1"/><circle class="cls-4" cx="4.5" cy="1" r="1"/><circle class="cls-4" cx="1.5" cy="1" r="1"/></g></g></pattern><pattern id="New_Pattern_2-25" data-name="New Pattern 2" width="6" height="8" patternTransform="translate(-3.36 10.38) scale(0.68 0.64)" patternUnits="userSpaceOnUse" viewBox="0 0 6 8"><rect class="cls-1" width="6" height="8"/><g class="cls-2"><g class="cls-3"><circle class="cls-4" cx="6" cy="5" r="1"/><circle class="cls-4" cx="3" cy="5" r="1"/></g></g><g class="cls-5"><g class="cls-6"><circle class="cls-4" cx="3" cy="5" r="1"/><circle class="cls-4" cy="5" r="1"/></g></g><g class="cls-7"><g class="cls-8"><circle class="cls-4" cx="6" cy="5" r="1"/><circle class="cls-4" cx="3" cy="5" r="1"/><circle class="cls-4" cx="4.5" cy="1" r="1"/></g></g><g class="cls-9"><g class="cls-10"><circle class="cls-4" cx="4.5" cy="9" r="1"/><circle class="cls-4" cx="1.5" cy="9" r="1"/><circle class="cls-4" cx="6" cy="5" r="1"/><circle class="cls-4" cx="3" cy="5" r="1"/><circle class="cls-4" cy="5" r="1"/><circle class="cls-4" cx="4.5" cy="1" r="1"/><circle class="cls-4" cx="1.5" cy="1" r="1"/></g></g><g class="cls-11"><g class="cls-12"><circle class="cls-4" cx="3" cy="5" r="1"/><circle class="cls-4" cy="5" r="1"/><circle class="cls-4" cx="1.5" cy="1" r="1"/></g></g><g class="cls-13"><g class="cls-14"><circle class="cls-4" cx="6" cy="5" r="1"/><circle class="cls-4" cx="3" cy="5" r="1"/><circle class="cls-4" cx="4.5" cy="1" r="1"/><circle class="cls-4" cx="1.5" cy="1" r="1"/></g></g><g class="cls-15"><g class="cls-16"><circle class="cls-4" cx="3" cy="5" r="1"/><circle class="cls-4" cy="5" r="1"/><circle class="cls-4" cx="4.5" cy="1" r="1"/><circle class="cls-4" cx="1.5" cy="1" r="1"/></g></g></pattern><pattern id="New_Pattern_2-27" data-name="New Pattern 2" width="6" height="8" patternTransform="translate(-10.25 13.67) scale(0.44 0.51)" patternUnits="userSpaceOnUse" viewBox="0 0 6 8"><rect class="cls-1" width="6" height="8"/><g class="cls-2"><g class="cls-3"><circle class="cls-4" cx="6" cy="5" r="1"/><circle class="cls-4" cx="3" cy="5" r="1"/></g></g><g class="cls-5"><g class="cls-6"><circle class="cls-4" cx="3" cy="5" r="1"/><circle class="cls-4" cy="5" r="1"/></g></g><g class="cls-7"><g class="cls-8"><circle class="cls-4" cx="6" cy="5" r="1"/><circle class="cls-4" cx="3" cy="5" r="1"/><circle class="cls-4" cx="4.5" cy="1" r="1"/></g></g><g class="cls-9"><g class="cls-10"><circle class="cls-4" cx="4.5" cy="9" r="1"/><circle class="cls-4" cx="1.5" cy="9" r="1"/><circle class="cls-4" cx="6" cy="5" r="1"/><circle class="cls-4" cx="3" cy="5" r="1"/><circle class="cls-4" cy="5" r="1"/><circle class="cls-4" cx="4.5" cy="1" r="1"/><circle class="cls-4" cx="1.5" cy="1" r="1"/></g></g><g class="cls-11"><g class="cls-12"><circle class="cls-4" cx="3" cy="5" r="1"/><circle class="cls-4" cy="5" r="1"/><circle class="cls-4" cx="1.5" cy="1" r="1"/></g></g><g class="cls-13"><g class="cls-14"><circle class="cls-4" cx="6" cy="5" r="1"/><circle class="cls-4" cx="3" cy="5" r="1"/><circle class="cls-4" cx="4.5" cy="1" r="1"/><circle class="cls-4" cx="1.5" cy="1" r="1"/></g></g><g class="cls-15"><g class="cls-16"><circle class="cls-4" cx="3" cy="5" r="1"/><circle class="cls-4" cy="5" r="1"/><circle class="cls-4" cx="4.5" cy="1" r="1"/><circle class="cls-4" cx="1.5" cy="1" r="1"/></g></g></pattern><pattern id="New_Pattern_2-29" data-name="New Pattern 2" width="6" height="8" patternTransform="translate(-9.66 15.41) scale(0.44 0.55)" patternUnits="userSpaceOnUse" viewBox="0 0 6 8"><rect class="cls-1" width="6" height="8"/><g class="cls-2"><g class="cls-3"><circle class="cls-4" cx="6" cy="5" r="1"/><circle class="cls-4" cx="3" cy="5" r="1"/></g></g><g class="cls-5"><g class="cls-6"><circle class="cls-4" cx="3" cy="5" r="1"/><circle class="cls-4" cy="5" r="1"/></g></g><g class="cls-7"><g class="cls-8"><circle class="cls-4" cx="6" cy="5" r="1"/><circle class="cls-4" cx="3" cy="5" r="1"/><circle class="cls-4" cx="4.5" cy="1" r="1"/></g></g><g class="cls-9"><g class="cls-10"><circle class="cls-4" cx="4.5" cy="9" r="1"/><circle class="cls-4" cx="1.5" cy="9" r="1"/><circle class="cls-4" cx="6" cy="5" r="1"/><circle class="cls-4" cx="3" cy="5" r="1"/><circle class="cls-4" cy="5" r="1"/><circle class="cls-4" cx="4.5" cy="1" r="1"/><circle class="cls-4" cx="1.5" cy="1" r="1"/></g></g><g class="cls-11"><g class="cls-12"><circle class="cls-4" cx="3" cy="5" r="1"/><circle class="cls-4" cy="5" r="1"/><circle class="cls-4" cx="1.5" cy="1" r="1"/></g></g><g class="cls-13"><g class="cls-14"><circle class="cls-4" cx="6" cy="5" r="1"/><circle class="cls-4" cx="3" cy="5" r="1"/><circle class="cls-4" cx="4.5" cy="1" r="1"/><circle class="cls-4" cx="1.5" cy="1" r="1"/></g></g><g class="cls-15"><g class="cls-16"><circle class="cls-4" cx="3" cy="5" r="1"/><circle class="cls-4" cy="5" r="1"/><circle class="cls-4" cx="4.5" cy="1" r="1"/><circle class="cls-4" cx="1.5" cy="1" r="1"/></g></g></pattern><pattern id="New_Pattern_2-31" data-name="New Pattern 2" width="6" height="8" patternTransform="translate(-5.07 7.2) scale(0.65)" patternUnits="userSpaceOnUse" viewBox="0 0 6 8"><rect class="cls-1" width="6" height="8"/><g class="cls-2"><g class="cls-3"><circle class="cls-4" cx="6" cy="5" r="1"/><circle class="cls-4" cx="3" cy="5" r="1"/></g></g><g class="cls-5"><g class="cls-6"><circle class="cls-4" cx="3" cy="5" r="1"/><circle class="cls-4" cy="5" r="1"/></g></g><g class="cls-7"><g class="cls-8"><circle class="cls-4" cx="6" cy="5" r="1"/><circle class="cls-4" cx="3" cy="5" r="1"/><circle class="cls-4" cx="4.5" cy="1" r="1"/></g></g><g class="cls-9"><g class="cls-10"><circle class="cls-4" cx="4.5" cy="9" r="1"/><circle class="cls-4" cx="1.5" cy="9" r="1"/><circle class="cls-4" cx="6" cy="5" r="1"/><circle class="cls-4" cx="3" cy="5" r="1"/><circle class="cls-4" cy="5" r="1"/><circle class="cls-4" cx="4.5" cy="1" r="1"/><circle class="cls-4" cx="1.5" cy="1" r="1"/></g></g><g class="cls-11"><g class="cls-12"><circle class="cls-4" cx="3" cy="5" r="1"/><circle class="cls-4" cy="5" r="1"/><circle class="cls-4" cx="1.5" cy="1" r="1"/></g></g><g class="cls-13"><g class="cls-14"><circle class="cls-4" cx="6" cy="5" r="1"/><circle class="cls-4" cx="3" cy="5" r="1"/><circle class="cls-4" cx="4.5" cy="1" r="1"/><circle class="cls-4" cx="1.5" cy="1" r="1"/></g></g><g class="cls-15"><g class="cls-16"><circle class="cls-4" cx="3" cy="5" r="1"/><circle class="cls-4" cy="5" r="1"/><circle class="cls-4" cx="4.5" cy="1" r="1"/><circle class="cls-4" cx="1.5" cy="1" r="1"/></g></g></pattern><pattern id="New_Pattern_2-33" data-name="New Pattern 2" width="6" height="8" patternTransform="translate(20.46 7.2) scale(0.65)" patternUnits="userSpaceOnUse" viewBox="0 0 6 8"><rect class="cls-1" width="6" height="8"/><g class="cls-2"><g class="cls-3"><circle class="cls-4" cx="6" cy="5" r="1"/><circle class="cls-4" cx="3" cy="5" r="1"/></g></g><g class="cls-5"><g class="cls-6"><circle class="cls-4" cx="3" cy="5" r="1"/><circle class="cls-4" cy="5" r="1"/></g></g><g class="cls-7"><g class="cls-8"><circle class="cls-4" cx="6" cy="5" r="1"/><circle class="cls-4" cx="3" cy="5" r="1"/><circle class="cls-4" cx="4.5" cy="1" r="1"/></g></g><g class="cls-9"><g class="cls-10"><circle class="cls-4" cx="4.5" cy="9" r="1"/><circle class="cls-4" cx="1.5" cy="9" r="1"/><circle class="cls-4" cx="6" cy="5" r="1"/><circle class="cls-4" cx="3" cy="5" r="1"/><circle class="cls-4" cy="5" r="1"/><circle class="cls-4" cx="4.5" cy="1" r="1"/><circle class="cls-4" cx="1.5" cy="1" r="1"/></g></g><g class="cls-11"><g class="cls-12"><circle class="cls-4" cx="3" cy="5" r="1"/><circle class="cls-4" cy="5" r="1"/><circle class="cls-4" cx="1.5" cy="1" r="1"/></g></g><g class="cls-13"><g class="cls-14"><circle class="cls-4" cx="6" cy="5" r="1"/><circle class="cls-4" cx="3" cy="5" r="1"/><circle class="cls-4" cx="4.5" cy="1" r="1"/><circle class="cls-4" cx="1.5" cy="1" r="1"/></g></g><g class="cls-15"><g class="cls-16"><circle class="cls-4" cx="3" cy="5" r="1"/><circle class="cls-4" cy="5" r="1"/><circle class="cls-4" cx="4.5" cy="1" r="1"/><circle class="cls-4" cx="1.5" cy="1" r="1"/></g></g></pattern><linearGradient id="New_Gradient_Swatch" x1="921.9" y1="562.36" x2="925.9" y2="430.47" gradientUnits="userSpaceOnUse"><stop offset="0.17" stop-color="#1b1464"/><stop offset="0.66" stop-color="#f25b45"/><stop offset="0.7" stop-color="#f46d43"/><stop offset="0.78" stop-color="#f78a3f"/><stop offset="0.85" stop-color="#f99f3d"/><stop offset="0.93" stop-color="#fbac3b"/><stop offset="1" stop-color="#fbb03b"/></linearGradient><linearGradient id="linear-gradient" y1="354.5" x2="26" y2="354.5" gradientUnits="userSpaceOnUse"><stop offset="0.69" stop-color="#fff"/><stop offset="0.72" stop-color="#fff" stop-opacity="0.98"/><stop offset="0.76" stop-color="#fff" stop-opacity="0.93"/><stop offset="0.8" stop-color="#fff" stop-opacity="0.84"/><stop offset="0.84" stop-color="#fff" stop-opacity="0.71"/><stop offset="0.89" stop-color="#fff" stop-opacity="0.55"/><stop offset="0.93" stop-color="#fff" stop-opacity="0.35"/><stop offset="0.98" stop-color="#fff" stop-opacity="0.12"/><stop offset="1" stop-color="#fff" stop-opacity="0"/></linearGradient><linearGradient id="linear-gradient-2" x1="1361.5" y1="325" x2="1387.5" y2="325" gradientTransform="matrix(1, 0, 0, -1, -87, 650)" xlink:href="#linear-gradient"/></defs><title>home</title><g id="Layer_2" data-name="Layer 2"><g id="Home_Page" data-name="Home Page"><path class="cls-17" d="M1228.8,403.44c8.83-2.3,30-6.39,30.14-6.42,8.47-1.5,17.44-2.89,26.78-4.18l.25,0c1.58-.22,3.88-.43,5.48-.64l-.17,28.85h-32.72l-77-.67"/><path class="cls-18" d="M230.68,146.56H227.3A17.57,17.57,0,0,0,193,141.24a11.71,11.71,0,1,0-3.52,22.88h41.21a8.36,8.36,0,0,0,8.33-8.33v-.9A8.36,8.36,0,0,0,230.68,146.56Z"/><path class="cls-18" d="M485.21,261.76h-3.38a17.57,17.57,0,0,0-34.31-5.31A11.71,11.71,0,1,0,444,279.33h41.21a8.36,8.36,0,0,0,8.33-8.33v-.9A8.36,8.36,0,0,0,485.21,261.76Z"/><path class="cls-18" d="M999,285.26s-7.65-1.77-7.06-10.6,7.06-10,7.06-10,7.65-2.35,11.19,1.77c0,0,5.3-10,14.72-2.35,0,0,4.1-9.42,14.72-9.42,11.19,0,14.72,10,14.72,10s9.42-5.3,12.36,3.53c0,0,7.06-1.18,8.24,3.53,0,0,2.94-5.3,8.24-5.3s8.24,3.53,8.24,7.06c0,0,5.3-1.77,7.65-.59a5.66,5.66,0,0,1,3.53,5.3c0,2.35-1.18,6.48-3.53,7.65S999,285.26,999,285.26Z"/><line class="cls-19" x1="1015.48" y1="286.43" x2="1018.42" y2="286.43"/><line class="cls-19" x1="1022.54" y1="286.43" x2="1029.02" y2="286.43"/><line class="cls-19" x1="1032.55" y1="286.43" x2="1064.93" y2="286.43"/><line class="cls-19" x1="1068.47" y1="286.43" x2="1071.69" y2="286.43"/><path class="cls-19" d="M1058.45,291.14h8.24"/><line class="cls-19" x1="863.46" y1="387.93" x2="869.94" y2="387.93"/><line class="cls-19" x1="873.47" y1="387.93" x2="905.85" y2="387.93"/><line class="cls-19" x1="453.95" y1="280.67" x2="456.89" y2="280.67"/><line class="cls-19" x1="185.99" y1="164.75" x2="196.47" y2="164.75"/><line class="cls-19" x1="202.65" y1="164.75" x2="226.85" y2="164.75"/><line class="cls-19" x1="208.39" y1="169.97" x2="211.33" y2="169.97"/><line class="cls-19" x1="214.75" y1="169.97" x2="231.24" y2="169.97"/><line class="cls-20" x1="1232.92" y1="418.99" x2="1232.92" y2="385.12"/><path class="cls-20" d="M1252.21,420.1"/><line class="cls-19" x1="462.22" y1="280.67" x2="486.41" y2="280.67"/><path class="cls-18" d="M1152,147.62h-3.38a17.57,17.57,0,0,0-34.31-5.31,11.71,11.71,0,1,0-3.52,22.88H1152a8.36,8.36,0,0,0,8.33-8.33v-.9A8.36,8.36,0,0,0,1152,147.62Z"/><line class="cls-21" x1="1107.29" y1="165.81" x2="1117.76" y2="165.81"/><line class="cls-21" x1="1123.94" y1="165.81" x2="1148.14" y2="165.81"/><line class="cls-21" x1="1129.68" y1="171.03" x2="1132.63" y2="171.03"/><line class="cls-21" x1="1136.04" y1="171.03" x2="1152.53" y2="171.03"/><path class="cls-22" d="M323.81,443.59c-7.9-2.3-10.11-2.26-10.27-2.29-7.57-1.5-15.59-2.89-23.94-4.18l-.22,0C197.34,422.9,6.51,421,6.51,421v44.28H289.72l17.66.17v-4.84l8.47.32"/><polygon class="cls-23" points="93.05 427.78 93.05 465.91 56.74 465.91 56.74 427.92 93.05 427.78"/><polygon class="cls-23" points="11.34 427.93 56.93 428.03 75.06 404.71 29.33 404.61 11.73 427.36 11.34 427.93"/><polygon class="cls-23" points="56.81 427.78 56.81 465.91 12.05 465.91 12.05 427.92 56.81 427.78"/><polygon class="cls-23" points="74.93 404.8 56.81 427.78 93.05 427.78 74.93 404.8"/><path class="cls-24" d="M36.14,428.64"/><path class="cls-24" d="M36.14,428.64"/><polygon class="cls-25" points="11.34 427.93 56.93 428.03 75.06 404.71 29.33 404.61 11.73 427.36 11.34 427.93"/><rect class="cls-18" x="40" y="434.55" width="6.63" height="14.59" transform="translate(86.63 883.69) rotate(-180)"/><g id="window"><polyline class="cls-26" points="37.72 450.15 37.72 434.56 46.62 434.56 46.62 453.02 37.01 453.02"/><line class="cls-26" x1="43.06" y1="450.15" x2="35.22" y2="450.15"/></g><line class="cls-27" x1="46.5" y1="441.03" x2="38.1" y2="441.03"/><line class="cls-27" x1="41.84" y1="441.03" x2="41.84" y2="434.51"/><path class="cls-28" d="M68.61,423.44a6.56,6.56,0,1,1,13.12,0Z"/><rect class="cls-18" x="66.05" y="433.84" width="22.03" height="23.54" transform="translate(154.13 891.23) rotate(-180)"/><line class="cls-29" x1="81.54" y1="434.01" x2="81.54" y2="459.42"/><line class="cls-29" x1="70.63" y1="434.01" x2="70.63" y2="455.64"/><path class="cls-30" d="M70.67,434.29H64.53L64,458.45h6.62s-2.45-10.3-5.29-15C65.34,443.48,70,444.24,70.67,434.29Z"/><path class="cls-30" d="M81.77,434.29h6.14l.53,24.16H81.81s2.45-10.3,5.29-15C87.1,443.48,82.48,444.24,81.77,434.29Z"/><rect class="cls-24" x="63.92" y="434.01" width="24.13" height="26.24"/><rect class="cls-18" x="24" y="434.55" width="6.63" height="14.59" transform="translate(54.63 883.69) rotate(-180)"/><g id="window-2" data-name="window"><polyline class="cls-26" points="21.72 450.15 21.72 434.56 30.62 434.56 30.62 453.02 21 453.02"/><line class="cls-26" x1="27.06" y1="450.15" x2="19.22" y2="450.15"/></g><line class="cls-27" x1="30.5" y1="441.03" x2="22.1" y2="441.03"/><line class="cls-27" x1="25.84" y1="441.03" x2="25.84" y2="434.51"/><path class="cls-31" d="M416.49,459.56c.3-.76-39.35-82.78-39.35-82.78l-38.89,83.38"/><polygon class="cls-32" points="372.58 386.02 406.39 460.22 337.92 460.22 372.58 386.02"/><path class="cls-33" d="M1233.94,405h-8.07a.54.54,0,0,1-.52-.67l.84-3.34,2.36-9.41.75-3a.54.54,0,0,1,1,0l4.12,15.74A.54.54,0,0,1,1233.94,405Z"/><line class="cls-34" x1="1229.9" y1="406.78" x2="1229.9" y2="409.46"/><line class="cls-24" x1="1227.33" y1="396.38" x2="1228.89" y2="396.38"/><line class="cls-24" x1="1229.56" y1="400.96" x2="1226.18" y2="400.96"/><rect class="cls-18" x="368.29" y="411.68" width="7.89" height="14.89"/><rect class="cls-18" x="368.29" y="452.82" width="7.89" height="3.58"/><rect class="cls-18" x="381.97" y="452.82" width="6.57" height="3.58"/><rect class="cls-18" x="381.97" y="432.21" width="6.57" height="18.05"/><polygon class="cls-18" points="382.42 428.92 382.42 415.89 387.64 428.92 382.42 428.92"/><polygon class="cls-18" points="364.6 427.1 364.6 414.07 359.38 427.1 364.6 427.1"/><rect class="cls-18" x="368.29" y="432.04" width="7.89" height="15.95"/><line class="cls-35" x1="494.81" y1="453.83" x2="512.49" y2="453.83"/><path class="cls-36" d="M577.29,447c-2.91-1.11-9.92-.43-9.92-.43-32.09,5-43.65,28.72-43.65,28.72h21.9c0-.91-5.47-5.47-5.47-5.47C562.83,445.64,577.29,447,577.29,447Z"/><rect class="cls-37" x="593.81" y="419.93" width="9.44" height="68.43"/><path class="cls-38" d="M324.28,253.17"/><circle class="cls-39" cx="928.21" cy="401.97" r="36.58"/><polyline class="cls-40" points="1187.42 335.6 1181.12 335.6 1182.57 339.96 1256.65 339.96 1258.58 335.6 1195.16 335.6"/><line class="cls-40" x1="1258.58" y1="354.11" x2="1180.64" y2="354.11"/><line class="cls-40" x1="1197.58" y1="351.39" x2="1260.07" y2="351.39"/><path class="cls-41" d="M1176.28,347.39l5.81,7.08v65.32h23.72V382.65a13.79,13.79,0,0,1,13.56-12.94c7,0,12.83,5.9,13.56,12.94v36.77l-26.71.37h50.44V354.46l5.81-7.08Z"/><line class="cls-40" x1="1232.92" y1="420.33" x2="1232.92" y2="385.12"/><path class="cls-40" d="M1201.62,415.41c0-4.57,0-10.7,0-16.39"/><path class="cls-40" d="M1201.57,398.11"/><path class="cls-40" d="M1201.57,393.09c0,1.28,0,2.62,0,4"/><path class="cls-40" d="M1201.57,393.09"/><path class="cls-40" d="M1202.17,380a15.84,15.84,0,0,0-.52,3.6c0,1.53-.07,4.22-.08,7.49"/><path class="cls-40" d="M1204.56,374.86a18.18,18.18,0,0,1,13.58-7.64"/><path class="cls-40" d="M1221.88,367.35q-.85-.12-1.72-.16"/><path class="cls-40" d="M1222.36,367.43"/><path class="cls-40" d="M1237.23,400.92c0-7.07,0-14,0-17.33-.08-7.66-6.26-14.18-13.76-15.94"/><path class="cls-40" d="M1237.23,401.87"/><path class="cls-40" d="M1237.23,403.43"/><path class="cls-40" d="M1237.2,419.79s0-7,0-16.35"/><line class="cls-40" x1="1190.32" y1="379.69" x2="1181.61" y2="379.69"/><line class="cls-40" x1="1194.14" y1="379.69" x2="1192.2" y2="379.69"/><line class="cls-40" x1="1193.65" y1="397.82" x2="1186.39" y2="397.82"/><line class="cls-40" x1="1185" y1="397.81" x2="1182.57" y2="397.81"/><line class="cls-40" x1="1192.74" y1="385.52" x2="1182.57" y2="385.52"/><line class="cls-40" x1="1192.74" y1="389.63" x2="1182.09" y2="389.63"/><line class="cls-40" x1="1192.74" y1="408.55" x2="1180.63" y2="408.55"/><line class="cls-40" x1="1190.81" y1="410.72" x2="1178.7" y2="410.72"/><line class="cls-40" x1="1182.57" y1="339.96" x2="1182.57" y2="348.67"/><line class="cls-40" x1="1256.65" y1="339.96" x2="1256.65" y2="348.67"/><line class="cls-40" x1="1182.57" y1="351.39" x2="1192.26" y2="351.39"/><line class="cls-40" x1="1190.32" y1="364.84" x2="1180.15" y2="364.84"/><line class="cls-40" x1="1193.23" y1="368.95" x2="1182.57" y2="368.95"/><line class="cls-40" x1="1190.8" y1="358.47" x2="1182.09" y2="358.47"/><line class="cls-40" x1="1193.71" y1="358.47" x2="1207.29" y2="358.47"/><line class="cls-40" x1="1259.91" y1="381.33" x2="1248.42" y2="381.33"/><line class="cls-40" x1="1247.45" y1="379.69" x2="1256.16" y2="379.69"/><line class="cls-40" x1="1243.63" y1="379.69" x2="1245.57" y2="379.69"/><line class="cls-40" x1="1244.12" y1="397.82" x2="1251.38" y2="397.82"/><line class="cls-40" x1="1252.77" y1="397.81" x2="1255.19" y2="397.81"/><line class="cls-40" x1="1245.03" y1="385.52" x2="1255.19" y2="385.52"/><line class="cls-40" x1="1245.03" y1="389.63" x2="1255.68" y2="389.63"/><line class="cls-40" x1="1245.03" y1="408.55" x2="1257.14" y2="408.55"/><line class="cls-40" x1="1246.95" y1="410.72" x2="1259.07" y2="410.72"/><line class="cls-40" x1="1246.48" y1="364.84" x2="1256.65" y2="364.84"/><line class="cls-40" x1="1245.51" y1="368.95" x2="1256.16" y2="368.95"/><line class="cls-40" x1="1246.96" y1="358.47" x2="1255.68" y2="358.47"/><line class="cls-40" x1="1242.23" y1="358.47" x2="1244.17" y2="358.47"/><path class="cls-42" d="M1202.91,391.67"/><path class="cls-42" d="M1199,391.67"/><path class="cls-42" d="M1199,397.61"/><path class="cls-42" d="M1216.84,416.18"/><rect class="cls-40" x="1184.45" y="342.13" width="8.77" height="5.33"/><line class="cls-40" x1="1188.91" y1="344.96" x2="1181.12" y2="344.96"/><rect class="cls-40" x="1245.03" y="342.13" width="9.16" height="5.33" transform="translate(2499.22 689.6) rotate(180)"/><line class="cls-40" x1="1248.95" y1="344.64" x2="1258.1" y2="344.64"/><path class="cls-43" d="M530.49,500.7"/><rect class="cls-18" x="776.91" y="424.4" width="5.67" height="12.76"/><rect class="cls-18" x="776.91" y="454.92" width="5.67" height="22.07"/><rect class="cls-44" x="593.9" y="418.52" width="47.99" height="69.8"/><polyline class="cls-44" points="640.41 404.36 692.25 358.74 715.76 358.74 752.55 393.57"/><path class="cls-45" d="M640.13,404.63,692,359H716.4l36.53,35s-1.66,4.94-5.87,4.89v5.26"/><path class="cls-46" d="M643.79,291.39,614,354.56h63.15l-29.76-63.17A2,2,0,0,0,643.79,291.39Z"/><rect class="cls-18" x="709.55" y="424.4" width="5.67" height="12.76"/><rect class="cls-18" x="732.75" y="424.4" width="5.67" height="12.76"/><rect class="cls-18" x="732.75" y="454.92" width="5.67" height="22.07"/><rect class="cls-18" x="710.47" y="454.92" width="5.67" height="22.07"/><rect class="cls-18" x="686.89" y="454.92" width="5.67" height="22.07"/><rect class="cls-18" x="686.13" y="424.4" width="5.67" height="12.76"/><path class="cls-45" d="M589.69,398.88v19.64h56.41V398.88h0a6.29,6.29,0,0,1-5.65-3.52L616.69,356a1.42,1.42,0,0,0-2.65,0l-19.25,39.63a5.62,5.62,0,0,1-5.09,3.24Z"/><path class="cls-44" d="M589.69,398.88v19.64h56.41V398.88h0a6.29,6.29,0,0,1-5.65-3.52L616.69,356a1.42,1.42,0,0,0-2.65,0l-19.25,39.63a5.62,5.62,0,0,1-5.09,3.24Z"/><rect class="cls-47" x="610.24" y="368.23" width="70.73" height="25.52"/><rect class="cls-47" x="606.87" y="354.72" width="77.46" height="13.51"/><path class="cls-44" d="M643.79,291.39,614,354.56h63.15l-29.76-63.17A2,2,0,0,0,643.79,291.39Z"/><path class="cls-47" d="M646.15,319.14l-7.23,11a.35.35,0,0,0,.29.54h14.45a.35.35,0,0,0,.29-.54l-7.23-11A.35.35,0,0,0,646.15,319.14Z"/><rect class="cls-47" x="641.39" y="330.7" width="10.1" height="14.26"/><line class="cls-44" x1="676.62" y1="404.27" x2="747.77" y2="404.27"/><path class="cls-47" d="M711.69,370.81l-7.23,11a.35.35,0,0,0,.29.54h14.45a.35.35,0,0,0,.29-.54l-7.23-11A.35.35,0,0,0,711.69,370.81Z"/><rect class="cls-47" x="706.93" y="382.37" width="10.1" height="14.26"/><path class="cls-45" d="M703.86,306.93l-11,28a.35.35,0,0,0,.33.48h22a.35.35,0,0,0,.33-.48l-11-28A.35.35,0,0,0,703.86,306.93Z"/><rect class="cls-45" x="694.51" y="336.12" width="19.37" height="22.52"/><path class="cls-44" d="M703.86,306.93l-11,28a.35.35,0,0,0,.33.48h22a.35.35,0,0,0,.33-.48l-11-28A.35.35,0,0,0,703.86,306.93Z"/><rect class="cls-44" x="694.51" y="336.12" width="19.37" height="22.52"/><polyline class="cls-44" points="694.66 437.14 694.66 424.15 686.44 424.15 686.44 439.54 695.32 439.54"/><line class="cls-44" x1="689.73" y1="437.14" x2="696.96" y2="437.14"/><polyline class="cls-44" points="718.24 437.14 718.24 424.15 710.01 424.15 710.01 439.54 718.89 439.54"/><line class="cls-44" x1="713.3" y1="437.14" x2="720.54" y2="437.14"/><polyline class="cls-44" points="740.97 437.14 740.97 424.15 732.75 424.15 732.75 439.54 741.63 439.54"/><line class="cls-44" x1="736.04" y1="437.14" x2="743.27" y2="437.14"/><polyline class="cls-44" points="694.66 476.92 694.66 454.92 686.44 454.92 686.44 479.32 695.32 479.32"/><line class="cls-44" x1="689.73" y1="476.92" x2="696.96" y2="476.92"/><polyline class="cls-44" points="718.24 476.92 718.24 454.92 710.01 454.92 710.01 479.32 718.89 479.32"/><line class="cls-44" x1="713.3" y1="476.92" x2="720.54" y2="476.92"/><polyline class="cls-44" points="740.97 476.92 740.97 454.92 732.75 454.92 732.75 479.32 741.63 479.32"/><line class="cls-44" x1="736.04" y1="476.92" x2="743.27" y2="476.92"/><line class="cls-44" x1="746.18" y1="387.05" x2="755.27" y2="387.05"/><rect class="cls-44" x="751.27" y="418.52" width="47.99" height="69.8"/><path class="cls-45" d="M747.06,398.88v19.64h56.41V398.88h0a6.29,6.29,0,0,1-5.65-3.52l-21.94-44.83a1.42,1.42,0,0,0-2.65,0l-21.08,45.11a5.62,5.62,0,0,1-5.09,3.24Z"/><path class="cls-44" d="M747.06,398.88v19.64h56.41V398.88h0a6.29,6.29,0,0,1-5.65-3.52l-21.94-44.83a1.42,1.42,0,0,0-2.65,0l-21.08,45.11a5.62,5.62,0,0,1-5.09,3.24Z"/><polyline class="cls-44" points="785.59 437.14 785.59 424.15 777.37 424.15 777.37 439.54 786.25 439.54"/><line class="cls-44" x1="780.66" y1="437.14" x2="787.9" y2="437.14"/><polyline class="cls-44" points="785.59 476.92 785.59 454.92 777.37 454.92 777.37 479.32 786.25 479.32"/><line class="cls-44" x1="780.66" y1="476.92" x2="787.9" y2="476.92"/><circle class="cls-29" cx="654.23" cy="426.52"/><polyline class="cls-47" points="599.16 437.14 599.16 424.15 593.78 424.15 593.78 439.54 599.82 439.54"/><line class="cls-47" x1="594.23" y1="437.14" x2="601.47" y2="437.14"/><polyline class="cls-47" points="599.16 476.92 599.16 454.92 593.78 454.92 593.78 479.32 599.82 479.32"/><line class="cls-47" x1="594.23" y1="476.92" x2="601.47" y2="476.92"/><path class="cls-48" d="M643,294.7l24.44,59.86h9.69L647.25,291C646.6,289.65,643.7,293.3,643,294.7Z"/><path class="cls-49" d="M700.7,312l8.5,23.4h6l-10.34-27.05C704.25,307,701.36,310.64,700.7,312Z"/><path class="cls-49" d="M708.46,335.76l.74,23.4h4.22l-.75-27.05C712,330.71,709.12,334.36,708.46,335.76Z"/><path class="cls-49" d="M770.37,353.77l18.7,43.76h9.09l-21.09-45.59C775.88,350.55,774.49,348.26,770.37,353.77Z"/><path class="cls-49" d="M794.12,400.59l.43,17.93H804l-.52-19.64C802.29,397.48,795.3,399.2,794.12,400.59Z"/><rect class="cls-50" x="615.24" y="394.5" width="60.73" height="93.82"/><rect class="cls-18" x="640.06" y="443.54" width="7.09" height="19.85"/><polyline class="cls-44" points="650.65 463.19 650.65 442.91 640.13 442.91 640.13 466.39 652.48 466.39"/><line class="cls-44" x1="644.76" y1="463.55" x2="654.02" y2="463.55"/><rect class="cls-18" x="640.06" y="404.55" width="7.09" height="14.89"/><polyline class="cls-44" points="650.65 418.89 650.65 404.63 640.13 404.63 640.13 421.52 651.5 421.52"/><line class="cls-44" x1="644.34" y1="418.9" x2="653.6" y2="418.9"/><line class="cls-51" x1="622.34" y1="431.69" x2="632.97" y2="431.69"/><line class="cls-51" x1="626.59" y1="434.32" x2="639.35" y2="434.32"/><line class="cls-51" x1="624.46" y1="437.15" x2="639.35" y2="437.15"/><line class="cls-51" x1="622.34" y1="434.32" x2="625.17" y2="434.32"/><line class="cls-51" x1="633.68" y1="431.68" x2="637.22" y2="431.68"/><line class="cls-51" x1="652.11" y1="477.06" x2="662.74" y2="477.06"/><line class="cls-51" x1="656.36" y1="479.69" x2="669.12" y2="479.69"/><line class="cls-51" x1="654.23" y1="482.52" x2="669.12" y2="482.52"/><line class="cls-51" x1="652.11" y1="479.69" x2="654.94" y2="479.69"/><line class="cls-51" x1="663.45" y1="477.05" x2="666.99" y2="477.05"/><path class="cls-52" d="M1289.58,421.18H1170.94c-15.72,0-28.58,3.86-28.58,8.58v6.09c0,1.07-3.69,4.15-10.14,4.15h-12c-12.91,0-18.44,2.21-18.44,6.37h0c0,4.72,1,8.58,16.72,8.58h173"/><path class="cls-51" d="M593.78,455.66c-11.16-11.41-26.4-9.1-26.4-9.1-32.09,5-43.65,28.72-43.65,28.72h21.9c0-.91-4.56-5.47-4.56-5.47H528.4"/><path class="cls-51" d="M575.74,447s-15.51,1.82-35.59,22.81"/><path class="cls-51" d="M551.86,433.94c-25.26,8.11-38.63,25.37-38.63,25.37v15.51h10"/><path class="cls-51" d="M593.53,431a89.21,89.21,0,0,0-41.67,2.92"/><polyline class="cls-51" points="499.09 457.02 501.63 457.02 514.14 457.02"/><line class="cls-51" x1="500.91" y1="476.64" x2="500.91" y2="457.48"/><path class="cls-29" d="M530.29,466.38c-.18-.23,13,.23,13.26,0"/><line class="cls-29" x1="532.4" y1="463.89" x2="546.01" y2="464.07"/><line class="cls-29" x1="535.01" y1="461.43" x2="548.69" y2="461.72"/><line class="cls-29" x1="538.01" y1="458.94" x2="551.45" y2="459.45"/><line class="cls-29" x1="541.56" y1="456.4" x2="554.67" y2="457.02"/><line class="cls-29" x1="544.29" y1="454.68" x2="557.23" y2="455.25"/><line class="cls-29" x1="547.69" y1="452.82" x2="559.94" y2="453.54"/><line class="cls-29" x1="551.8" y1="450.92" x2="562.83" y2="451.87"/><line class="cls-29" x1="556.67" y1="449.11" x2="565.64" y2="450.44"/><line class="cls-29" x1="562.14" y1="447.87" x2="568.28" y2="449.11"/><rect class="cls-23" x="504.17" y="449.18" width="5.73" height="5.73"/><path class="cls-53" d="M504.17,454.91"/><polygon class="cls-29" points="502.74 449.18 511.33 449.18 509.9 447.75 504.17 447.75 502.74 449.18"/><line class="cls-19" x1="117.69" y1="435.35" x2="117.83" y2="435.35"/><line class="cls-19" x1="117.69" y1="435.35" x2="117.69" y2="464.93"/><path class="cls-19" d="M101.24,435.31"/><path class="cls-19" d="M101.24,435.31"/><path class="cls-19" d="M93,435.29"/><path class="cls-19" d="M93,435.29"/><circle cx="69.64" cy="456.72" r="1.16" transform="translate(-323.09 213.4) rotate(-49.55)"/><path class="cls-33" d="M270,434.76h-7a.54.54,0,0,1-.53-.66l.74-3.21,2.09-9.09.61-2.63a.54.54,0,0,1,1,0l3.58,14.93A.54.54,0,0,1,270,434.76Z"/><line class="cls-34" x1="266.45" y1="436.5" x2="266.45" y2="439.09"/><line class="cls-24" x1="264.17" y1="426.46" x2="265.55" y2="426.46"/><line class="cls-24" x1="266.14" y1="430.89" x2="263.15" y2="430.89"/><path class="cls-33" d="M305.66,459.07H295.51a.54.54,0,0,1-.53-.65l1.08-5.16,2.87-13.65,1-4.84a.54.54,0,0,1,1.05,0l5.18,23.66A.54.54,0,0,1,305.66,459.07Z"/><line class="cls-34" x1="300.59" y1="461.69" x2="300.59" y2="465.58"/><line class="cls-24" x1="297.47" y1="446.61" x2="299.36" y2="446.61"/><line class="cls-24" x1="300.17" y1="453.26" x2="296.07" y2="453.26"/><line class="cls-24" x1="504.17" y1="446.22" x2="509.9" y2="446.22"/><line class="cls-54" x1="560.85" y1="467.58" x2="565.42" y2="467.58"/><line class="cls-54" x1="567.95" y1="467.58" x2="585.55" y2="467.58"/><line class="cls-35" x1="897.35" y1="480" x2="927.47" y2="480"/><line class="cls-35" x1="934.77" y1="480" x2="945.72" y2="480"/><line class="cls-35" x1="951.19" y1="480" x2="956.67" y2="480"/><line class="cls-35" x1="921.08" y1="462.3" x2="932.94" y2="462.3"/><line class="cls-35" x1="918.8" y1="469.3" x2="932.48" y2="469.3"/><line class="cls-35" x1="941.61" y1="469.3" x2="950.73" y2="469.3"/><line class="cls-54" x1="1141.33" y1="463.84" x2="1153.2" y2="463.84"/><line class="cls-54" x1="1173.27" y1="463.84" x2="1186.96" y2="463.84"/><line class="cls-54" x1="1196.08" y1="463.84" x2="1205.21" y2="463.84"/><line class="cls-55" x1="254.81" y1="522.81" x2="265.76" y2="522.81"/><line class="cls-55" x1="273.97" y1="522.81" x2="289.48" y2="522.81"/><line class="cls-55" x1="814.39" y1="597.78" x2="821.69" y2="597.78"/><line class="cls-55" x1="832.64" y1="597.78" x2="897.43" y2="597.78"/><line class="cls-55" x1="306.25" y1="584.59" x2="316.29" y2="584.59"/><line class="cls-55" x1="322.67" y1="584.59" x2="328.15" y2="584.59"/><line class="cls-55" x1="975.08" y1="577.69" x2="988.34" y2="577.69"/><line class="cls-55" x1="995.48" y1="577.69" x2="998.55" y2="577.69"/><line class="cls-55" x1="919.13" y1="523.94" x2="930.99" y2="523.94"/><line class="cls-55" x1="937.38" y1="523.94" x2="940.12" y2="523.94"/><line class="cls-55" x1="1003.65" y1="577.69" x2="1006.71" y2="577.69"/><line class="cls-55" x1="913.63" y1="515.8" x2="925.49" y2="515.8"/><line class="cls-55" x1="931.88" y1="515.8" x2="934.62" y2="515.8"/><line class="cls-55" x1="939.18" y1="515.8" x2="941.92" y2="515.8"/><line class="cls-55" x1="942.93" y1="595.55" x2="967.42" y2="595.55"/><line class="cls-55" x1="972.52" y1="595.55" x2="975.59" y2="595.55"/><line class="cls-55" x1="980.69" y1="595.55" x2="1001.1" y2="595.55"/><line class="cls-55" x1="1006.2" y1="595.55" x2="1009.26" y2="595.55"/><line class="cls-55" x1="37.71" y1="535.78" x2="49.57" y2="535.78"/><line class="cls-55" x1="53.22" y1="535.78" x2="57.79" y2="535.78"/><line class="cls-55" x1="62.35" y1="535.78" x2="70.56" y2="535.78"/><line class="cls-55" x1="63.26" y1="545.82" x2="67.82" y2="545.82"/><line class="cls-55" x1="72.39" y1="545.82" x2="94.28" y2="545.82"/><line class="cls-55" x1="713.99" y1="556.36" x2="728.59" y2="556.36"/><line class="cls-55" x1="724.02" y1="565.48" x2="727.67" y2="565.48"/><line class="cls-55" x1="121.66" y1="535.78" x2="128.96" y2="535.78"/><line class="cls-54" x1="1010.79" y1="584.97" x2="1022.01" y2="584.97"/><line class="cls-54" x1="1025.08" y1="584.97" x2="1028.14" y2="584.97"/><line class="cls-54" x1="1030.18" y1="584.97" x2="1043.44" y2="584.97"/><line class="cls-55" x1="465.41" y1="578.89" x2="487.31" y2="578.89"/><line class="cls-55" x1="491.88" y1="578.89" x2="494.61" y2="578.89"/><line class="cls-55" x1="499.18" y1="578.89" x2="517.43" y2="578.89"/><line class="cls-55" x1="521.99" y1="578.89" x2="524.73" y2="578.89"/><line class="cls-55" x1="526.09" y1="571.88" x2="536.13" y2="571.88"/><line class="cls-55" x1="538.87" y1="571.88" x2="541.61" y2="571.88"/><line class="cls-55" x1="543.43" y1="571.88" x2="555.29" y2="571.88"/><line class="cls-55" x1="621.14" y1="602.83" x2="643.04" y2="602.83"/><line class="cls-55" x1="647.6" y1="602.83" x2="650.34" y2="602.83"/><line class="cls-55" x1="654.9" y1="602.83" x2="673.15" y2="602.83"/><line class="cls-35" x1="879.76" y1="488.79" x2="916.85" y2="488.79"/><line class="cls-35" x1="924.15" y1="488.79" x2="935.1" y2="488.79"/><line class="cls-35" x1="940.57" y1="488.79" x2="946.05" y2="488.79"/><line class="cls-35" x1="948.96" y1="488.79" x2="959.91" y2="488.79"/><line class="cls-56" x1="889.55" y1="496.33" x2="926.64" y2="496.33"/><line class="cls-56" x1="933.94" y1="496.33" x2="944.89" y2="496.33"/><line class="cls-56" x1="950.37" y1="496.33" x2="955.84" y2="496.33"/><line class="cls-56" x1="958.75" y1="496.33" x2="969.7" y2="496.33"/><line class="cls-55" x1="889.14" y1="505.76" x2="911.04" y2="505.76"/><line class="cls-55" x1="915.6" y1="505.76" x2="918.34" y2="505.76"/><line class="cls-55" x1="922.9" y1="505.76" x2="941.15" y2="505.76"/><line class="cls-55" x1="945.72" y1="505.76" x2="948.45" y2="505.76"/><line class="cls-55" x1="132.56" y1="598.82" x2="157.05" y2="598.82"/><line class="cls-55" x1="162.15" y1="598.82" x2="165.21" y2="598.82"/><line class="cls-55" x1="170.31" y1="598.82" x2="190.72" y2="598.82"/><line class="cls-55" x1="195.82" y1="598.82" x2="198.88" y2="598.82"/><line class="cls-55" x1="200.41" y1="590.98" x2="211.64" y2="590.98"/><line class="cls-19" x1="503.65" y1="466.31" x2="503.65" y2="475.57"/><path class="cls-44" d="M144.2,437.76"/><polyline class="cls-57" points="357.47 378.29 360.8 372.39 379.11 372.39 421.33 460.16 424.36 460.16 424.36 462.13 428.6 462.13 428.6 465.46 307.38 465.46 307.38 459.71 315.56 459.71 347.94 396.45"/><line class="cls-58" x1="419.67" y1="460.16" x2="315.85" y2="460.16"/><line class="cls-58" x1="366.41" y1="459.11" x2="351.38" y2="459.11"/><rect class="cls-57" x="382.3" y="432.21" width="7.67" height="17.89" transform="translate(772.27 882.3) rotate(-180)"/><rect class="cls-57" x="381.82" y="452.67" width="8.15" height="5.61" transform="translate(771.79 910.95) rotate(-180)"/><rect class="cls-57" x="368.99" y="432.21" width="9.39" height="17.89" transform="translate(747.36 882.3) rotate(-180)"/><rect class="cls-57" x="368.41" y="452.67" width="9.97" height="5.61" transform="translate(746.78 910.95) rotate(-180)"/><rect class="cls-59" x="353.05" y="432.21" width="12.04" height="26.07" transform="translate(718.13 890.49) rotate(-180)"/><line class="cls-57" x1="407.06" y1="460.16" x2="372.88" y2="385.93"/><polygon class="cls-57" points="382.42 428.92 382.42 412.25 389.09 428.92 382.42 428.92"/><polyline class="cls-58" points="378.38 426.83 378.38 410.76 368.29 410.76 368.29 425.65"/><polyline class="cls-58" points="364.88 425.67 364.88 409.94 364.63 409.85 355.63 428.65 380.2 428.65"/><line class="cls-58" x1="361.73" y1="426.78" x2="380.2" y2="426.78"/><circle class="cls-4" cx="361.99" cy="446.71" r="1.28"/><path class="cls-29" d="M597.2,517.66H792.86c12,0,21.77-3.23,21.77-7.19V496.56c0-4-9.8-7.19-21.77-7.19H602.12c-12,0-21.77,3.23-21.77,7.19v3.71c0,.9-2.95,4.64-7.86,4.64l-9,.23c-9.83,0-14,1.85-14,5.33h0c0,4,9.8,7.19,21.77,7.19H766.88"/><polygon class="cls-60" points="1174.75 432.26 1159.07 432.26 1166.91 396.42 1174.75 432.26"/><line class="cls-38" x1="1166.91" y1="413.54" x2="1166.91" y2="440.1"/><line class="cls-38" x1="1166.71" y1="421.56" x2="1165.29" y2="419.25"/><line class="cls-38" x1="1166.91" y1="426.31" x2="1170.04" y2="421.15"/><line class="cls-38" x1="1166.71" y1="429.64" x2="1163.58" y2="424.48"/><line class="cls-52" x1="1132.21" y1="439.99" x2="1206.71" y2="439.99"/><polygon class="cls-61" points="294.97 458.48 279.3 458.48 287.13 422.64 294.97 458.48"/><line class="cls-52" x1="287.13" y1="439.76" x2="287.13" y2="466.32"/><line class="cls-52" x1="286.93" y1="447.78" x2="285.51" y2="445.47"/><line class="cls-52" x1="287.13" y1="452.54" x2="290.26" y2="447.38"/><line class="cls-52" x1="286.93" y1="455.87" x2="283.8" y2="450.71"/><path class="cls-38" d="M838.15,452.3v-57c61.16,34.26,164.13,34.95,228.28.8a.57.57,0,0,1,.85.41V452.3"/><path class="cls-38" d="M799.5,415.38c18.41-4.89,34.33-14.19,38.65-20.07"/><line class="cls-38" x1="799.26" y1="427.3" x2="1142.86" y2="427.3"/><line class="cls-38" x1="799.47" y1="431.81" x2="1141.95" y2="431.81"/><line class="cls-38" x1="822.02" y1="406.76" x2="822.02" y2="427.3"/><line class="cls-38" x1="805.66" y1="413.75" x2="805.66" y2="427.3"/><path class="cls-38" d="M789.09,427.3"/><path class="cls-38" d="M789.09,417.29"/><line class="cls-38" x1="854.62" y1="404.63" x2="854.62" y2="425.5"/><line class="cls-38" x1="838.26" y1="411.71" x2="838.26" y2="421.72"/><line class="cls-38" x1="870.98" y1="410.15" x2="870.98" y2="425.5"/><line class="cls-38" x1="887.55" y1="415.3" x2="887.55" y2="425.32"/><line class="cls-38" x1="920.27" y1="420.16" x2="920.27" y2="425.5"/><line class="cls-38" x1="903.91" y1="419.41" x2="903.91" y2="427.35"/><line class="cls-38" x1="936.84" y1="421.72" x2="936.84" y2="425.55"/><line class="cls-38" x1="969.77" y1="422.29" x2="969.77" y2="426.73"/><line class="cls-38" x1="953.2" y1="421.72" x2="953.2" y2="426.73"/><line class="cls-38" x1="1002.48" y1="416.95" x2="1002.48" y2="427.39"/><line class="cls-38" x1="986.13" y1="420.31" x2="986.13" y2="426.97"/><line class="cls-38" x1="1019.06" y1="414.6" x2="1019.06" y2="426.73"/><line class="cls-38" x1="1051.77" y1="404.63" x2="1051.77" y2="426.72"/><line class="cls-38" x1="1035.41" y1="409.61" x2="1035.41" y2="426.72"/><path class="cls-38" d="M1067.67,452.3v-57c24,13.46,57.54,23.74,89.6,26.76"/><line class="cls-38" x1="1083.36" y1="403.85" x2="1083.36" y2="426.54"/><line class="cls-38" x1="1099.72" y1="409.36" x2="1099.72" y2="426.54"/><line class="cls-38" x1="1116.29" y1="414.05" x2="1116.29" y2="426.1"/><line class="cls-38" x1="1149" y1="420.94" x2="1149" y2="423.72"/><line class="cls-38" x1="1132.65" y1="418.62" x2="1132.65" y2="426.57"/><line class="cls-40" x1="1192.74" y1="400.12" x2="1182.57" y2="400.12"/><line class="cls-40" x1="1192.74" y1="404.23" x2="1182.09" y2="404.23"/><line class="cls-40" x1="1190.8" y1="373.06" x2="1182.09" y2="373.06"/><line class="cls-40" x1="1193.71" y1="373.06" x2="1191.77" y2="373.06"/><line class="cls-40" x1="1192.74" y1="361.35" x2="1182.09" y2="361.35"/><line class="cls-40" x1="1211.05" y1="358.47" x2="1239.22" y2="358.47"/><line class="cls-40" x1="1245.03" y1="371.84" x2="1255.19" y2="371.84"/><line class="cls-40" x1="1245.03" y1="376.86" x2="1255.68" y2="376.86"/><line class="cls-40" x1="1247.45" y1="393.38" x2="1256.16" y2="393.38"/><line class="cls-40" x1="1243.63" y1="393.38" x2="1245.57" y2="393.38"/><line class="cls-40" x1="1246.48" y1="400.43" x2="1256.65" y2="400.43"/><line class="cls-40" x1="1245.51" y1="404.54" x2="1256.16" y2="404.54"/><line class="cls-55" x1="806.66" y1="528.28" x2="816.7" y2="528.28"/><line class="cls-55" x1="823.08" y1="528.28" x2="828.56" y2="528.28"/><line class="cls-55" x1="816.7" y1="538.32" x2="823.08" y2="538.32"/><line class="cls-55" x1="827.65" y1="538.32" x2="833.12" y2="538.32"/><line class="cls-55" x1="632.97" y1="542.51" x2="657.46" y2="542.51"/><line class="cls-55" x1="662.56" y1="542.51" x2="665.62" y2="542.51"/><line class="cls-55" x1="670.72" y1="542.51" x2="691.13" y2="542.51"/><line class="cls-55" x1="696.23" y1="542.51" x2="699.29" y2="542.51"/><line class="cls-55" x1="700.83" y1="534.67" x2="712.05" y2="534.67"/><line class="cls-55" x1="573.66" y1="542.51" x2="598.15" y2="542.51"/><line class="cls-55" x1="603.25" y1="542.51" x2="606.31" y2="542.51"/><line class="cls-55" x1="611.41" y1="542.51" x2="631.82" y2="542.51"/><line class="cls-55" x1="636.92" y1="542.51" x2="639.98" y2="542.51"/><line class="cls-52" x1="575.78" y1="504.47" x2="788.52" y2="504.47"/><rect class="cls-49" x="789.09" y="419.93" width="10.18" height="68.43"/><line class="cls-19" x1="597.85" y1="399.43" x2="614.03" y2="399.43"/><line class="cls-19" x1="755.16" y1="399.43" x2="793.82" y2="399.43"/><polygon class="cls-61" points="492.21 467.88 476.53 467.88 484.37 432.04 492.21 467.88"/><line class="cls-52" x1="484.37" y1="449.17" x2="484.37" y2="475.72"/><line class="cls-52" x1="484.17" y1="457.18" x2="482.74" y2="454.87"/><line class="cls-52" x1="484.37" y1="461.94" x2="487.5" y2="456.78"/><line class="cls-52" x1="484.17" y1="465.27" x2="481.04" y2="460.11"/><path class="cls-17" d="M1194.4,428.37a5.5,5.5,0,0,1,3.14,10,3.54,3.54,0,0,0,.58-1.95,3.6,3.6,0,0,0-3.59-3.59h-1.8a7.12,7.12,0,0,0-1.06-3.75A5.43,5.43,0,0,1,1194.4,428.37Z"/><path class="cls-17" d="M1198.12,436.44a3.54,3.54,0,0,1-.58,1.95,5.5,5.5,0,0,1-6.89-.48,7.15,7.15,0,0,0,2.08-5.05h1.8A3.6,3.6,0,0,1,1198.12,436.44Z"/><path class="cls-20" d="M1197.54,438.39a3.57,3.57,0,0,1-.48.59,3.06,3.06,0,0,1-.42.36,6.09,6.09,0,0,1-6.77-.74,6.82,6.82,0,0,0,.78-.69,5.5,5.5,0,0,0,6.89.48Z"/><path class="cls-20" d="M1196.64,439.33a3.53,3.53,0,0,1-2.11.7h-.72A6,6,0,0,0,1196.64,439.33Z"/><path class="cls-20" d="M1193.81,440h-8.26a7.15,7.15,0,0,0,4.32-1.44A6.06,6.06,0,0,0,1193.81,440Z"/><path class="cls-17" d="M1192.73,432.85H1189a5.49,5.49,0,0,1,2.68-3.75A7.12,7.12,0,0,1,1192.73,432.85Z"/><path class="cls-17" d="M1189,432.85h3.74a7.15,7.15,0,0,1-2.08,5.05,5.48,5.48,0,0,1-1.76-4A5.34,5.34,0,0,1,1189,432.85Z"/><path class="cls-17" d="M1191.2,428.41a6.14,6.14,0,0,1,.48.69,5.49,5.49,0,0,0-2.68,3.75h-1.19A6.1,6.1,0,0,1,1191.2,428.41Z"/><path class="cls-17" d="M1185.55,425.67a7.16,7.16,0,0,1,5.64,2.74,6.1,6.1,0,0,0-3.39,4.44h-6a4.8,4.8,0,0,0-3.12-2.23A7.18,7.18,0,0,1,1185.55,425.67Z"/><path class="cls-17" d="M1188.9,433.87a5.48,5.48,0,0,0,1.76,4,6.82,6.82,0,0,1-.78.69,6.08,6.08,0,0,1-2.16-4.66,6,6,0,0,1,.1-1.08H1189A5.34,5.34,0,0,0,1188.9,433.87Z"/><path class="cls-17" d="M1187.71,433.93a6.08,6.08,0,0,0,2.16,4.66,7.18,7.18,0,0,1-8.63,0,4.8,4.8,0,0,0,.61-5.74h6A6,6,0,0,0,1187.71,433.93Z"/><path class="cls-20" d="M1185.55,440h-6.9a4.76,4.76,0,0,0,2.58-1.44A7.13,7.13,0,0,0,1185.55,440Z"/><path class="cls-17" d="M1181.85,432.85a4.8,4.8,0,0,1-.61,5.74l-.33-.27a4.67,4.67,0,0,0,.32-5.47Z"/><path class="cls-17" d="M1181.85,432.85h-.62a4.67,4.67,0,0,0-2.58-2,2.45,2.45,0,0,1,.08-.28A4.8,4.8,0,0,1,1181.85,432.85Z"/><path class="cls-17" d="M1181.23,432.85a4.67,4.67,0,0,1-.32,5.47,7.15,7.15,0,0,1-2.53-5.47Z"/><path class="cls-17" d="M1181.24,438.59a4.76,4.76,0,0,1-2.58,1.44h-1.36a4.66,4.66,0,0,0,3.61-1.71Z"/><path class="cls-17" d="M1181.23,432.85h-2.85a7,7,0,0,1,.27-2A4.67,4.67,0,0,1,1181.23,432.85Z"/><path class="cls-17" d="M1180.91,438.32a4.66,4.66,0,0,1-3.61,1.71h-.37a3.61,3.61,0,0,1-3.22-3.57,3.6,3.6,0,0,1,3.59-3.59h1.08A7.15,7.15,0,0,0,1180.91,438.32Z"/><path class="cls-17" d="M1178.73,430.62a2.45,2.45,0,0,0-.08.28,4.65,4.65,0,0,0-1.35-.2,4.57,4.57,0,0,0-1.72.33,4.74,4.74,0,0,1,2.16-.51A4.8,4.8,0,0,1,1178.73,430.62Z"/><path class="cls-17" d="M1177.29,440h1.36a4.83,4.83,0,0,1-2.13-.06l.4,0h.37Z"/><path class="cls-17" d="M1178.64,430.89a7,7,0,0,0-.27,2h-1.08a3.59,3.59,0,0,0-.37,7.16l-.4,0h0a4.8,4.8,0,0,1-.94-8.94,4.57,4.57,0,0,1,1.72-.33A4.65,4.65,0,0,1,1178.64,430.89Z"/><path class="cls-17" d="M1177.07,440h0Z"/><path class="cls-51" d="M1176.51,440a4.67,4.67,0,0,1-.94-8.94,4.57,4.57,0,0,1,1.72-.33,4.65,4.65,0,0,1,1.35.2"/><path class="cls-51" d="M1176.93,440l-.4,0"/><path class="cls-51" d="M1177.29,440h-.22"/><path class="cls-51" d="M1178.64,430.89a2.45,2.45,0,0,1,.08-.28,7.18,7.18,0,0,1,12.47-2.2"/><path class="cls-51" d="M1191.2,428.41a6.1,6.1,0,1,1,2.61,11.62"/><path class="cls-51" d="M1177.29,440h-.37"/><path class="cls-51" d="M1196.64,439.33a3.53,3.53,0,0,1-2.11.7h-9"/><line class="cls-62" x1="1185.78" y1="434.05" x2="1185.78" y2="439.73"/><line class="cls-62" x1="1185.58" y1="439.71" x2="1184.14" y2="437.39"/><line class="cls-62" x1="1178.65" y1="437.55" x2="1178.63" y2="440.12"/><path class="cls-62" d="M1178.43,440.1"/><line class="cls-62" x1="1193.73" y1="437.59" x2="1193.26" y2="440.12"/><path class="cls-62" d="M1193.07,440.07"/><line class="cls-63" x1="379.11" y1="372.39" x2="377.14" y2="376.78"/><polygon class="cls-63" points="356.31 391.09 349.45 403.09 349.45 374.58 356.31 374.58 356.31 391.09"/><line class="cls-64" x1="356.3" y1="371.7" x2="349.14" y2="371.7"/><path class="cls-37" d="M376.47,373.3H360.63l-3.16,5,0,13.26-8.15,13.83c-.22.36-2.06,2.07-2,1.65l.27-10.19-31.73,62.28,21.72.83L378,373.3Z"/><path class="cls-49" d="M609.85,380.46,604,397.21H595l12-27.34C608.11,368.48,610.24,368.23,609.85,380.46Z"/><path class="cls-49" d="M599,400.27l-.43,17.93h-9.44l.52-19.64C590.84,397.16,597.82,398.88,599,400.27Z"/><rect class="cls-18" x="594.69" y="425.06" width="1.68" height="11.18"/><rect class="cls-18" x="594.65" y="455.84" width="1.71" height="20.18"/><rect class="cls-18" x="658.4" y="373.92" width="5.89" height="11.08"/><rect class="cls-18" x="624.72" y="373.68" width="5.84" height="11.33"/><polyline class="cls-44" points="666.88 385 666.88 373.86 658.65 373.86 658.65 387.05 667.53 387.05"/><line class="cls-44" x1="661.94" y1="385" x2="669.18" y2="385"/><polyline class="cls-44" points="633.2 385 633.2 373.86 624.97 373.86 624.97 387.05 633.85 387.05"/><line class="cls-44" x1="628.26" y1="385" x2="635.5" y2="385"/><rect class="cls-18" x="707.73" y="383.27" width="6.72" height="12.39"/><line class="cls-44" x1="706.93" y1="389.5" x2="717.04" y2="389.5"/><rect class="cls-18" x="642.24" y="331.64" width="6.72" height="12.39"/><line class="cls-47" x1="641.39" y1="337.83" x2="651.5" y2="337.83"/><circle class="cls-20" cx="695.17" cy="493.16" r="10.09"/><line class="cls-65" x1="807.57" y1="526.46" x2="817.61" y2="526.46"/><line class="cls-65" x1="824" y1="526.46" x2="829.47" y2="526.46"/><line class="cls-65" x1="817.61" y1="536.5" x2="824" y2="536.5"/><line class="cls-65" x1="828.56" y1="536.5" x2="834.03" y2="536.5"/><ellipse class="cls-22" cx="612.11" cy="495.65" rx="16.4" ry="8.14"/><path class="cls-17" d="M696.21,497.65a6.09,6.09,0,0,1-1.15,3.56,45.51,45.51,0,0,1-15.84,2.59,46,46,0,0,1-15.53-2.47c6.86-2.24,11.28-5.81,11.28-9.82h15.09A6.16,6.16,0,0,1,696.21,497.65Z"/><path class="cls-17" d="M695.06,501.2a6.08,6.08,0,0,1-5,2.59H679.22A45.51,45.51,0,0,0,695.06,501.2Z"/><path class="cls-17" d="M679.22,503.79H646.67a55.8,55.8,0,0,0,17-2.47A46,46,0,0,0,679.22,503.79Z"/><path class="cls-17" d="M675,491.5H655.54c1.37-3.37,6.47-6.18,13.38-7.59C672.71,486,675,488.64,675,491.5Z"/><path class="cls-17" d="M655.54,491.5H675c0,4-4.42,7.58-11.28,9.82-5.22-1.91-8.54-4.77-8.54-8A4.67,4.67,0,0,1,655.54,491.5Z"/><path class="cls-17" d="M646.67,479.21c9,0,17.07,1.84,22.25,4.69-6.91,1.42-12,4.23-13.38,7.59H629.61a24.2,24.2,0,0,0-10.18-3.34C622.78,483,633.7,479.21,646.67,479.21Z"/><path class="cls-17" d="M655.16,493.35c0,3.2,3.31,6.06,8.54,8a55.8,55.8,0,0,1-17,2.47,54.14,54.14,0,0,1-18.32-2.92c2.59-1.38,4.16-3.14,4.16-5.06,0-1.59-1.06-3.06-2.9-4.3h25.93A4.67,4.67,0,0,0,655.16,493.35Z"/><path class="cls-17" d="M646.67,503.79H614.11c5.73,0,10.86-1.14,14.24-2.92A54.14,54.14,0,0,0,646.67,503.79Z"/><path class="cls-17" d="M629.61,491.5c1.84,1.24,2.9,2.72,2.9,4.3,0,1.92-1.57,3.69-4.16,5.06-6.11-2.25-10-5.61-10-9.36Z"/><path class="cls-17" d="M629.61,491.5H618.36a6,6,0,0,1,1.08-3.34A24.2,24.2,0,0,1,629.61,491.5Z"/><path class="cls-17" d="M628.35,500.87c-3.38,1.79-8.51,2.92-14.24,2.92a33.93,33.93,0,0,1-12.74-2.23,6.14,6.14,0,0,1,4.73-10.06h12.26C618.36,495.26,622.24,498.62,628.35,500.87Z"/><path class="cls-17" d="M614.11,503.79h-8a6.13,6.13,0,0,1-4.73-2.23A33.93,33.93,0,0,0,614.11,503.79Z"/><path class="cls-51" d="M614.11,503.79a33.93,33.93,0,0,1-12.74-2.23c-3.5-1.45-5.66-3.5-5.66-5.76,0-4.41,8.24-8,18.4-8a39.89,39.89,0,0,1,5.32.34"/><path class="cls-51" d="M619.44,488.16c3.34-5.17,14.27-8.95,27.23-8.95,9,0,17.07,1.84,22.25,4.69"/><path class="cls-51" d="M668.92,483.91a51.21,51.21,0,0,1,10.3-1c13.29,0,24.06,4.68,24.06,10.45,0,3.13-3.18,5.95-8.22,7.86a45.51,45.51,0,0,1-15.84,2.59"/><path class="cls-51" d="M614.11,503.79h-8a6.13,6.13,0,0,1-4.73-2.23"/><path class="cls-51" d="M695.06,501.2a6.08,6.08,0,0,1-5,2.59h-43.4"/><line class="cls-62" x1="647.56" y1="493.56" x2="647.56" y2="503.28"/><line class="cls-62" x1="646.76" y1="503.25" x2="641.09" y2="499.27"/><line class="cls-62" x1="619.46" y1="499.54" x2="619.37" y2="503.95"/><path class="cls-62" d="M618.57,503.92"/><line class="cls-62" x1="678.92" y1="499.61" x2="677.07" y2="503.94"/><path class="cls-62" d="M676.3,503.85"/><ellipse class="cls-22" cx="694.37" cy="493.26" rx="10.88" ry="10.03"/><path class="cls-17" d="M696.17,491.5A6.14,6.14,0,0,1,700.51,502a6.08,6.08,0,0,1-.67.58h0a10.43,10.43,0,0,1-11.62-1.26,12.27,12.27,0,0,0,4.9-9.82Z"/><path class="cls-17" d="M699.82,502.58a6.08,6.08,0,0,1-3.65,1.21h-1.23A10.37,10.37,0,0,0,699.82,502.58Z"/><path class="cls-17" d="M694.94,503.79H680.81a12.24,12.24,0,0,0,7.39-2.47A10.39,10.39,0,0,0,694.94,503.79Z"/><path class="cls-17" d="M693.1,491.5h-8.44a10.43,10.43,0,0,1,5.81-7.59A12.24,12.24,0,0,1,693.1,491.5Z"/><path class="cls-17" d="M684.66,491.5h8.44a12.27,12.27,0,0,1-4.9,9.82,10.4,10.4,0,0,1-3.71-8A10.13,10.13,0,0,1,684.66,491.5Z"/><path class="cls-17" d="M680.81,479.21a12.27,12.27,0,0,1,9.66,4.69,10.43,10.43,0,0,0-5.81,7.59H673.41a8,8,0,0,0-4.42-3.34A12.28,12.28,0,0,1,680.81,479.21Z"/><path class="cls-17" d="M684.5,493.35a10.4,10.4,0,0,0,3.71,8,12.28,12.28,0,0,1-15.34-.45,8,8,0,0,0,.55-9.36h11.26A10.13,10.13,0,0,0,684.5,493.35Z"/><path class="cls-17" d="M680.81,503.79H666.68a8,8,0,0,0,6.18-2.92A12.23,12.23,0,0,0,680.81,503.79Z"/><path class="cls-17" d="M673.41,491.5a8,8,0,0,1-.55,9.36,12.24,12.24,0,0,1-4.34-9.36Z"/><path class="cls-17" d="M673.41,491.5h-4.89a12,12,0,0,1,.47-3.34A8,8,0,0,1,673.41,491.5Z"/><path class="cls-17" d="M672.86,500.87a8,8,0,0,1-6.18,2.92h-.38l-.25,0a6.14,6.14,0,0,1-3.71-10.45,6.1,6.1,0,0,1,4.34-1.81h1.84A12.24,12.24,0,0,0,672.86,500.87Z"/><path class="cls-17" d="M666.3,503.78h0Z"/><path class="cls-51" d="M666.05,503.76a8,8,0,0,1,.63-15.95,7.76,7.76,0,0,1,2.31.34"/><path class="cls-51" d="M666.68,503.79h-.38"/><path class="cls-51" d="M669,488.16a12.28,12.28,0,0,1,21.48-4.25"/><path class="cls-51" d="M699.82,502.58a10.37,10.37,0,0,1-4.88,1.21"/><path class="cls-51" d="M690.47,483.91a10.44,10.44,0,0,1,9.37,18.66"/><path class="cls-51" d="M699.84,502.57h0a6.08,6.08,0,0,1-3.65,1.21H680.81"/><path class="cls-51" d="M666.68,503.79h-.38l-.25,0"/><line class="cls-62" x1="681.2" y1="493.56" x2="681.2" y2="503.28"/><line class="cls-62" x1="680.85" y1="503.25" x2="678.39" y2="499.27"/><line class="cls-62" x1="669" y1="499.54" x2="668.96" y2="503.95"/><path class="cls-62" d="M668.61,503.92"/><line class="cls-62" x1="694.81" y1="499.61" x2="694.01" y2="503.94"/><path class="cls-62" d="M693.67,503.85"/><line class="cls-55" x1="998.75" y1="493.13" x2="1012.01" y2="493.13"/><line class="cls-55" x1="1019.16" y1="493.13" x2="1022.22" y2="493.13"/><line class="cls-55" x1="1027.32" y1="493.13" x2="1030.38" y2="493.13"/><line class="cls-66" x1="815.31" y1="595.95" x2="822.61" y2="595.95"/><line class="cls-66" x1="833.56" y1="595.95" x2="898.34" y2="595.95"/><line class="cls-67" x1="561.77" y1="466.66" x2="566.33" y2="466.66"/><line class="cls-67" x1="568.87" y1="466.66" x2="586.46" y2="466.66"/><line class="cls-65" x1="975.99" y1="575.87" x2="989.25" y2="575.87"/><line class="cls-65" x1="996.4" y1="575.87" x2="999.46" y2="575.87"/><line class="cls-65" x1="1004.56" y1="575.87" x2="1007.62" y2="575.87"/><line class="cls-65" x1="943.85" y1="593.72" x2="968.34" y2="593.72"/><line class="cls-65" x1="973.44" y1="593.72" x2="976.5" y2="593.72"/><line class="cls-65" x1="981.6" y1="593.72" x2="1002.01" y2="593.72"/><line class="cls-65" x1="1007.11" y1="593.72" x2="1010.17" y2="593.72"/><line class="cls-65" x1="1011.7" y1="583.14" x2="1022.93" y2="583.14"/><line class="cls-65" x1="1025.99" y1="583.14" x2="1029.05" y2="583.14"/><line class="cls-65" x1="1031.09" y1="583.14" x2="1044.36" y2="583.14"/><g id="_Group_" data-name="&lt;Group&gt;"><path class="cls-19" d="M433.74,506.65"/><path class="cls-24" d="M455.83,483.59"/><path class="cls-24" d="M455.83,483.59H18.53c-12.37,0-11.55-2-11.55-4.54V466.63c-.48-1.63-.82-.88,11.55-.88H450.76c12.37,0,22.5,2,22.5,4.53v2.34c0,.47,2.16,2.24,5.89,2.76a14.38,14.38,0,0,0,2.24.16l61.31.15c10.17,0,14.52,1.17,14.52,3.36,0,1.25-2.54,2.38-6.61,3.2-3.82.77-61,1.27-66.73,1.32Z"/><path class="cls-24" d="M436.62,503.33"/><path class="cls-24" d="M436.62,509.48"/></g><line class="cls-54" x1="528.99" y1="491.98" x2="533.55" y2="491.98"/><line class="cls-54" x1="537" y1="491.98" x2="554.59" y2="491.98"/><line class="cls-67" x1="530.83" y1="491.07" x2="535.39" y2="491.07"/><line class="cls-67" x1="537.93" y1="491.07" x2="555.52" y2="491.07"/><line class="cls-68" x1="111.44" y1="415.06" x2="111.44" y2="465.95"/><polygon class="cls-69" points="204.03 404.67 216.35 404.37 246.75 369.76 235.16 371.18 204.03 404.67"/><polyline class="cls-70" points="112.13 415.06 220.36 414.91 220 464.91 112.2 465.1"/><polygon class="cls-71" points="214.47 415.05 130.48 414.75 181.31 369.76 211.7 370.37 224.2 382.43 202.55 404.95 214.47 415.05"/><polygon class="cls-70" points="217.09 464.71 217.61 404.07 246.72 370.13 273.7 410.83 273.18 464.15 217.09 464.71"/><path class="cls-72" d="M222.23,383.94"/><polyline class="cls-73" points="199.32 454.8 199.32 426.79 184.58 426.79 184.58 454.8"/><circle class="cls-74" cx="195.85" cy="444.95" r="1.72"/><polygon class="cls-68" points="203.73 404.67 217.42 404.37 246.23 369.76 234.95 371.18 203.73 404.67"/><line class="cls-75" x1="132.18" y1="414.91" x2="132.18" y2="466.14"/><polyline class="cls-76" points="209.28 457.89 209.28 454.8 121.16 454.8 121.16 458.41"/><polyline class="cls-76" points="213.9 461.5 213.9 458.41 116.86 458.41 116.86 461.5"/><line class="cls-76" x1="203.73" y1="453.54" x2="204.34" y2="416.27"/><polygon class="cls-77" points="112.24 415.06 130.17 414.63 180.77 369.76 174.79 370.13 112.24 415.06"/><line class="cls-78" x1="178.34" y1="453.54" x2="178.94" y2="416.27"/><polyline class="cls-79" points="244.41 418.88 244.41 391.7 232.29 391.7 232.29 418.88"/><ellipse class="cls-79" cx="241.56" cy="409.32" rx="1.41" ry="1.67"/><polyline class="cls-79" points="244.41 418.88 244.41 391.7 256.53 391.7 256.53 418.88"/><ellipse class="cls-79" cx="247.26" cy="409.32" rx="1.41" ry="1.67"/><line class="cls-76" x1="217.14" y1="404.79" x2="273.89" y2="404.85"/><line class="cls-76" x1="220.36" y1="403.42" x2="220.36" y2="418.73"/><line class="cls-76" x1="225.23" y1="403.42" x2="225.23" y2="418.73"/><line class="cls-76" x1="230.09" y1="403.42" x2="230.09" y2="418.73"/><line class="cls-76" x1="234.96" y1="403.42" x2="234.96" y2="418.73"/><line class="cls-76" x1="239.83" y1="403.42" x2="239.83" y2="418.73"/><line class="cls-76" x1="244.69" y1="403.42" x2="244.69" y2="418.73"/><line class="cls-76" x1="249.56" y1="403.42" x2="249.56" y2="418.73"/><line class="cls-76" x1="254.43" y1="403.42" x2="254.43" y2="418.73"/><line class="cls-76" x1="259.29" y1="403.42" x2="259.29" y2="418.73"/><line class="cls-76" x1="264.16" y1="403.42" x2="264.16" y2="418.73"/><line class="cls-76" x1="269.02" y1="403.42" x2="269.02" y2="418.73"/><line class="cls-76" x1="215.71" y1="418.83" x2="273.04" y2="418.89"/><line class="cls-76" x1="273.86" y1="403.42" x2="273.86" y2="418.73"/><line class="cls-76" x1="218.21" y1="403.42" x2="218.21" y2="418.73"/><line class="cls-76" x1="217.22" y1="404.79" x2="273.97" y2="404.85"/><line class="cls-76" x1="222.51" y1="403.42" x2="222.51" y2="418.73"/><line class="cls-76" x1="227.37" y1="403.42" x2="227.37" y2="418.73"/><line class="cls-76" x1="232.24" y1="403.42" x2="232.24" y2="418.73"/><line class="cls-76" x1="237.11" y1="403.42" x2="237.11" y2="418.73"/><line class="cls-76" x1="241.97" y1="403.42" x2="241.97" y2="418.73"/><line class="cls-76" x1="246.84" y1="403.42" x2="246.84" y2="418.73"/><line class="cls-76" x1="251.71" y1="403.42" x2="251.71" y2="418.73"/><line class="cls-76" x1="256.57" y1="403.42" x2="256.57" y2="418.73"/><line class="cls-76" x1="261.44" y1="403.42" x2="261.44" y2="418.73"/><line class="cls-76" x1="266.31" y1="403.42" x2="266.31" y2="418.73"/><line class="cls-76" x1="271.17" y1="403.42" x2="271.17" y2="418.73"/><line class="cls-76" x1="217.34" y1="418.83" x2="273.64" y2="418.89"/><polygon class="cls-32" points="177.13 388.35 184.35 388.35 184.35 402.75 177.13 388.35"/><path class="cls-80" d="M190.7,376.23l-6.55,11.33a.35.35,0,0,0,.3.53h13.1a.35.35,0,0,0,.3-.53l-6.55-11.33A.35.35,0,0,0,190.7,376.23Z"/><polygon class="cls-81" points="177.15 388.17 183.84 387.85 190.95 375.92 184.48 377.27 177.15 388.17"/><g id="window-3" data-name="window"><polyline class="cls-70" points="197.83 401.26 197.83 388.3 184.65 388.3 184.65 403.64 198.88 403.64"/><line class="cls-70" x1="188.12" y1="401.26" x2="199.71" y2="401.26"/></g><line class="cls-70" x1="184.82" y1="393.67" x2="197.27" y2="393.67"/><line class="cls-70" x1="191.73" y1="393.67" x2="191.73" y2="388.25"/><rect class="cls-18" x="185.25" y="388.02" width="10.59" height="13.37"/><g id="window-4" data-name="window"><polyline class="cls-76" points="197.83 401.26 197.83 388.3 184.65 388.3 184.65 403.64 198.88 403.64"/><line class="cls-76" x1="188.12" y1="401.26" x2="199.71" y2="401.26"/></g><line class="cls-76" x1="184.82" y1="393.67" x2="197.27" y2="393.67"/><line class="cls-76" x1="191.73" y1="393.67" x2="191.73" y2="388.25"/><line class="cls-82" x1="177.15" y1="388.17" x2="182.95" y2="401.24"/><rect class="cls-18" x="230.87" y="430" width="26.2" height="18.58"/><rect class="cls-76" x="231.51" y="429.13" width="27.95" height="22"/><line class="cls-76" x1="239.98" y1="451.13" x2="239.98" y2="429.13"/><line class="cls-76" x1="251.07" y1="451.12" x2="251.07" y2="429.12"/><line class="cls-76" x1="231.24" y1="436.52" x2="239.75" y2="436.52"/><line class="cls-76" x1="250.78" y1="436.73" x2="259.46" y2="436.73"/><line class="cls-76" x1="253.76" y1="429.13" x2="253.76" y2="436.52"/><line class="cls-76" x1="256.86" y1="429.13" x2="256.86" y2="436.52"/><line class="cls-76" x1="234.34" y1="429.13" x2="234.34" y2="436.52"/><line class="cls-76" x1="237.44" y1="429.13" x2="237.44" y2="436.52"/><line class="cls-76" x1="231.24" y1="433.02" x2="239.75" y2="433.02"/><line class="cls-76" x1="250.78" y1="433.23" x2="259.46" y2="433.23"/><rect class="cls-18" x="138.66" y="426.13" width="33.94" height="16.07"/><rect class="cls-76" x="138.4" y="426.79" width="36.16" height="17.62"/><line class="cls-76" x1="148.03" y1="444.41" x2="148.03" y2="426.79"/><line class="cls-76" x1="163.71" y1="444.41" x2="163.71" y2="426.79"/><line class="cls-76" x1="138.05" y1="432.71" x2="147.68" y2="432.71"/><line class="cls-76" x1="163.32" y1="432.88" x2="172.6" y2="432.88"/><line class="cls-83" x1="142.87" y1="426.79" x2="142.87" y2="432.88"/><line class="cls-84" x1="168.95" y1="426.79" x2="168.95" y2="432.88"/><rect class="cls-18" x="116.86" y="427.15" width="6.44" height="15.03"/><g id="window-5" data-name="window"><polyline class="cls-76" points="125.57 442.18 125.57 427.17 116.99 427.17 116.99 444.95 126.25 444.95"/><line class="cls-76" x1="120.42" y1="442.18" x2="127.97" y2="442.18"/></g><line class="cls-70" x1="117.1" y1="433.39" x2="125.21" y2="433.39"/><line class="cls-70" x1="121.6" y1="433.39" x2="121.6" y2="427.12"/><polyline class="cls-76" points="217.09 464.56 217.09 461.47 112.13 461.47 112.13 464.56"/><ellipse class="cls-85" cx="138.36" cy="461.09" rx="4.82" ry="4.44"/><ellipse class="cls-22" cx="127.36" cy="462.02" rx="4.82" ry="3.52"/><path class="cls-22" d="M141.88,463v.11a2.66,2.66,0,0,1-1,2.06,4.62,4.62,0,0,1-5.27-.49,5.43,5.43,0,0,0,2.17-4.35h1.42A2.67,2.67,0,0,1,141.88,463Z"/><path class="cls-22" d="M140.9,465.15a2.64,2.64,0,0,1-1.68.6h-.6A4.56,4.56,0,0,0,140.9,465.15Z"/><path class="cls-22" d="M138.62,465.75h-6.26a5.42,5.42,0,0,0,3.27-1.09A4.59,4.59,0,0,0,138.62,465.75Z"/><path class="cls-22" d="M137.8,460.31h-3.74a4.62,4.62,0,0,1,2.57-3.36A5.42,5.42,0,0,1,137.8,460.31Z"/><path class="cls-22" d="M134.07,460.31h3.74a5.43,5.43,0,0,1-2.17,4.35,4.6,4.6,0,0,1-1.64-3.53A4.49,4.49,0,0,1,134.07,460.31Z"/><path class="cls-22" d="M132.36,454.87a5.43,5.43,0,0,1,4.28,2.08,4.62,4.62,0,0,0-2.57,3.36h-5a3.52,3.52,0,0,0-2-1.48A5.44,5.44,0,0,1,132.36,454.87Z"/><path class="cls-22" d="M134,461.13a4.6,4.6,0,0,0,1.64,3.53,5.44,5.44,0,0,1-6.79-.2,3.54,3.54,0,0,0,.24-4.15h5A4.49,4.49,0,0,0,134,461.13Z"/><path class="cls-22" d="M132.36,465.75H126.1a3.53,3.53,0,0,0,2.74-1.3A5.41,5.41,0,0,0,132.36,465.75Z"/><path class="cls-22" d="M129.08,460.31a3.54,3.54,0,0,1-.24,4.15,5.42,5.42,0,0,1-1.92-4.15Z"/><path class="cls-22" d="M129.08,460.31h-2.16a5.33,5.33,0,0,1,.21-1.48A3.52,3.52,0,0,1,129.08,460.31Z"/><path class="cls-22" d="M128.84,464.46a3.53,3.53,0,0,1-2.74,1.3l-.36,0-.13,0a2.67,2.67,0,0,1-2.23-2.63V463a2.67,2.67,0,0,1,2.66-2.66h.87A5.42,5.42,0,0,0,128.84,464.46Z"/><path class="cls-22" d="M126.1,465.75H126l-.3,0Z"/><path class="cls-86" d="M125.62,465.72a3.54,3.54,0,0,1,.49-7,3.44,3.44,0,0,1,1,.15"/><path class="cls-86" d="M126.1,465.75l-.36,0"/><path class="cls-86" d="M127.13,458.83a5.44,5.44,0,0,1,9.51-1.88"/><path class="cls-86" d="M136.64,456.95a4.62,4.62,0,0,1,4.26,8.2"/><path class="cls-86" d="M126.1,465.75H126l-.3,0-.13,0"/><path class="cls-86" d="M140.9,465.15a2.64,2.64,0,0,1-1.68.6h-6.86"/><line class="cls-87" x1="132.53" y1="461.22" x2="132.53" y2="465.53"/><line class="cls-87" x1="132.38" y1="465.51" x2="131.29" y2="463.75"/><line class="cls-87" x1="127.13" y1="463.87" x2="127.11" y2="465.82"/><path class="cls-87" d="M127,465.81"/><line class="cls-87" x1="138.56" y1="463.9" x2="138.2" y2="465.82"/><path class="cls-87" d="M138.05,465.78"/><line class="cls-86" x1="202.72" y1="405.03" x2="213.61" y2="414.33"/><polyline class="cls-86" points="224.2 382.43 211.7 369.76 181.31 369.76"/><polyline class="cls-86" points="111.44 414.8 175.34 369.76 181.37 369.76 129.79 414.8"/><ellipse class="cls-22" cx="220.92" cy="460.76" rx="6.3" ry="3.13"/><path class="cls-17" d="M253.24,460.62v1.81a1.73,1.73,0,0,1,0,.29h0a17,17,0,0,1-6.5,1.16,17.67,17.67,0,0,1-6-.95c2.63-.86,4.34-2.23,4.34-3.77h6.7A1.46,1.46,0,0,1,253.24,460.62Z"/><path class="cls-17" d="M246.71,463.89a17,17,0,0,0,6.5-1.16,1.47,1.47,0,0,1-1.43,1.16Z"/><path class="cls-17" d="M234.2,463.89a21.44,21.44,0,0,0,6.54-.95,17.67,17.67,0,0,0,6,.95Z"/><path class="cls-17" d="M245.08,459.17h-7.47c.53-1.29,2.49-2.37,5.14-2.92C244.21,457.05,245.08,458.07,245.08,459.17Z"/><path class="cls-17" d="M237.61,459.17h7.47c0,1.54-1.7,2.91-4.34,3.77-2-.73-3.28-1.83-3.28-3.07A1.79,1.79,0,0,1,237.61,459.17Z"/><path class="cls-17" d="M237.46,459.88c0,1.23,1.27,2.33,3.28,3.07a21.44,21.44,0,0,1-6.54.95,20.81,20.81,0,0,1-7-1.12c1-.53,1.6-1.21,1.6-1.95a2.11,2.11,0,0,0-1.12-1.65h10A1.79,1.79,0,0,0,237.46,459.88Z"/><path class="cls-17" d="M227.64,459.17a9.3,9.3,0,0,0-3.91-1.28c1.28-2,5.48-3.44,10.47-3.44a18.51,18.51,0,0,1,8.55,1.8c-2.65.55-4.61,1.62-5.14,2.92Z"/><path class="cls-17" d="M234.2,463.89H221.69a12.21,12.21,0,0,0,5.47-1.12A20.81,20.81,0,0,0,234.2,463.89Z"/><path class="cls-17" d="M227.64,459.17a2.11,2.11,0,0,1,1.12,1.65c0,.74-.6,1.42-1.6,1.95-2.35-.86-3.84-2.16-3.84-3.6Z"/><path class="cls-17" d="M223.32,459.17a2.3,2.3,0,0,1,.41-1.28,9.3,9.3,0,0,1,3.91,1.28Z"/><path class="cls-17" d="M217.7,463.89a1.46,1.46,0,0,1-1.4-1.08,12.31,12.31,0,0,0,5.39,1.08Z"/><path class="cls-17" d="M216.25,462.44v-1.81a1.46,1.46,0,0,1,1.45-1.45h5.62c0,1.44,1.49,2.73,3.84,3.6a13.91,13.91,0,0,1-10.86,0A1.39,1.39,0,0,1,216.25,462.44Z"/><path class="cls-29" d="M221.69,463.89a12.31,12.31,0,0,1-5.39-1.08c-1-.54-1.68-1.23-1.68-2,0-1.7,3.17-3.07,7.07-3.07a15.33,15.33,0,0,1,2,.13"/><path class="cls-29" d="M223.73,457.88c1.28-2,5.48-3.44,10.47-3.44a18.51,18.51,0,0,1,8.55,1.8"/><path class="cls-29" d="M253.21,462.73a17,17,0,0,1-6.5,1.16"/><path class="cls-29" d="M242.75,456.25a19.68,19.68,0,0,1,4-.39c5.11,0,9.25,1.8,9.25,4,0,1.12-1,2.13-2.75,2.85"/><path class="cls-29" d="M253.21,462.73h0a1.47,1.47,0,0,1-1.43,1.16H234.2"/><path class="cls-29" d="M221.69,463.89h-4a1.46,1.46,0,0,1-1.4-1.08"/><line class="cls-88" x1="234.54" y1="459.96" x2="234.54" y2="463.7"/><line class="cls-88" x1="234.23" y1="463.68" x2="232.05" y2="462.15"/><line class="cls-88" x1="223.74" y1="462.26" x2="223.71" y2="463.95"/><path class="cls-88" d="M223.4,463.94"/><line class="cls-88" x1="246.59" y1="462.28" x2="245.88" y2="463.95"/><path class="cls-88" d="M245.58,463.92"/><ellipse class="cls-22" cx="252.53" cy="459.85" rx="4.18" ry="3.85"/><path class="cls-17" d="M255.58,460.62v1.81a1.29,1.29,0,0,1,0,.32,4,4,0,0,1-5.39.19,4.72,4.72,0,0,0,1.88-3.77h2.09A1.46,1.46,0,0,1,255.58,460.62Z"/><path class="cls-17" d="M254.13,463.89h-1.38a4,4,0,0,0,2.8-1.14A1.45,1.45,0,0,1,254.13,463.89Z"/><path class="cls-17" d="M252.75,463.89h-5.43a4.7,4.7,0,0,0,2.84-.95A4,4,0,0,0,252.75,463.89Z"/><path class="cls-17" d="M252,459.17H248.8a4,4,0,0,1,2.23-2.92A4.7,4.7,0,0,1,252,459.17Z"/><path class="cls-17" d="M248.8,459.17H252a4.72,4.72,0,0,1-1.88,3.77,4,4,0,0,1-1.42-3.07A3.89,3.89,0,0,1,248.8,459.17Z"/><path class="cls-17" d="M248.74,459.88a4,4,0,0,0,1.42,3.07,4.72,4.72,0,0,1-5.9-.17,3.07,3.07,0,0,0,.21-3.6h4.33A3.89,3.89,0,0,0,248.74,459.88Z"/><path class="cls-17" d="M248.8,459.17h-4.33a3.05,3.05,0,0,0-1.7-1.28,4.72,4.72,0,0,1,8.26-1.63A4,4,0,0,0,248.8,459.17Z"/><path class="cls-17" d="M247.32,463.89h-5.43a3.07,3.07,0,0,0,2.38-1.12A4.7,4.7,0,0,0,247.32,463.89Z"/><path class="cls-17" d="M244.47,459.17a3.07,3.07,0,0,1-.21,3.6,4.7,4.7,0,0,1-1.67-3.6Z"/><path class="cls-17" d="M244.47,459.17H242.6a4.63,4.63,0,0,1,.18-1.28A3.05,3.05,0,0,1,244.47,459.17Z"/><path class="cls-17" d="M241,463.89a1.46,1.46,0,0,1-1.39-1,3.06,3.06,0,0,0,2.3,1Z"/><path class="cls-17" d="M239.53,462.44v-1.81a1.46,1.46,0,0,1,1.45-1.45h1.62a4.7,4.7,0,0,0,1.67,3.6,3.07,3.07,0,0,1-4.68.09A1.43,1.43,0,0,1,239.53,462.44Z"/><path class="cls-29" d="M241.89,463.89a3.07,3.07,0,1,1,0-6.14,3,3,0,0,1,.89.13"/><path class="cls-29" d="M242.78,457.88a4.72,4.72,0,0,1,8.26-1.63"/><path class="cls-29" d="M251,456.25a4,4,0,1,1,1.72,7.64"/><path class="cls-29" d="M241.89,463.89H241a1.46,1.46,0,0,1-1.39-1"/><path class="cls-29" d="M255.55,462.75a1.45,1.45,0,0,1-1.42,1.14h-6.81"/><line class="cls-88" x1="247.47" y1="459.96" x2="247.47" y2="463.7"/><line class="cls-88" x1="247.33" y1="463.68" x2="246.39" y2="462.15"/><line class="cls-88" x1="242.78" y1="462.26" x2="242.76" y2="463.95"/><path class="cls-88" d="M242.63,463.94"/><line class="cls-88" x1="252.7" y1="462.28" x2="252.39" y2="463.95"/><path class="cls-88" d="M252.26,463.92"/><ellipse class="cls-22" cx="43.92" cy="462.76" rx="6.3" ry="3.13"/><path class="cls-17" d="M76.24,462.62v1.81a1.73,1.73,0,0,1,0,.29h0a17,17,0,0,1-6.5,1.16,17.69,17.69,0,0,1-6-.95c2.63-.86,4.34-2.23,4.34-3.77h6.71A1.46,1.46,0,0,1,76.24,462.62Z"/><path class="cls-17" d="M76.21,464.73a1.47,1.47,0,0,1-1.43,1.16H69.71A17,17,0,0,0,76.21,464.73Z"/><path class="cls-17" d="M69.71,465.89H57.2a21.44,21.44,0,0,0,6.54-.95A17.69,17.69,0,0,0,69.71,465.89Z"/><path class="cls-17" d="M68.08,461.17H60.61c.53-1.29,2.49-2.37,5.14-2.92C67.21,459.05,68.08,460.07,68.08,461.17Z"/><path class="cls-17" d="M60.61,461.17h7.47c0,1.54-1.7,2.91-4.34,3.77-2-.73-3.28-1.83-3.28-3.07A1.79,1.79,0,0,1,60.61,461.17Z"/><path class="cls-17" d="M57.2,456.45a18.51,18.51,0,0,1,8.55,1.8c-2.65.55-4.61,1.62-5.14,2.92h-10a9.3,9.3,0,0,0-3.91-1.28C48,457.9,52.22,456.45,57.2,456.45Z"/><path class="cls-17" d="M60.46,461.88c0,1.23,1.27,2.33,3.28,3.07a21.44,21.44,0,0,1-6.54.95,20.76,20.76,0,0,1-7-1.12c1-.53,1.6-1.21,1.6-1.95a2.11,2.11,0,0,0-1.12-1.65h10A1.79,1.79,0,0,0,60.46,461.88Z"/><path class="cls-17" d="M57.2,465.89H44.69a12.21,12.21,0,0,0,5.47-1.12A20.76,20.76,0,0,0,57.2,465.89Z"/><path class="cls-17" d="M50.64,461.17a2.11,2.11,0,0,1,1.12,1.65c0,.74-.6,1.42-1.6,1.95-2.35-.86-3.84-2.16-3.84-3.6Z"/><path class="cls-17" d="M50.64,461.17H46.32a2.3,2.3,0,0,1,.41-1.28A9.3,9.3,0,0,1,50.64,461.17Z"/><path class="cls-17" d="M50.16,464.77a12.21,12.21,0,0,1-5.47,1.12,12.31,12.31,0,0,1-5.39-1.08,1.39,1.39,0,0,1,0-.37v-1.81a1.46,1.46,0,0,1,1.45-1.45h5.62C46.32,462.61,47.81,463.9,50.16,464.77Z"/><path class="cls-17" d="M44.69,465.89h-4a1.46,1.46,0,0,1-1.4-1.08A12.31,12.31,0,0,0,44.69,465.89Z"/><path class="cls-29" d="M44.69,465.89a12.31,12.31,0,0,1-5.39-1.08c-1-.54-1.68-1.23-1.68-2,0-1.7,3.17-3.07,7.07-3.07a15.33,15.33,0,0,1,2,.13"/><path class="cls-29" d="M46.73,459.88c1.28-2,5.48-3.44,10.47-3.44a18.51,18.51,0,0,1,8.55,1.8"/><path class="cls-29" d="M76.21,464.73a17,17,0,0,1-6.5,1.16"/><path class="cls-29" d="M65.75,458.25a19.76,19.76,0,0,1,4-.39c5.11,0,9.25,1.8,9.25,4,0,1.12-1,2.13-2.75,2.85"/><path class="cls-29" d="M44.69,465.89h-4a1.46,1.46,0,0,1-1.4-1.08"/><path class="cls-29" d="M76.21,464.73a1.47,1.47,0,0,1-1.43,1.16H57.2"/><line class="cls-88" x1="57.54" y1="461.96" x2="57.54" y2="465.7"/><line class="cls-88" x1="57.23" y1="465.68" x2="55.05" y2="464.15"/><line class="cls-88" x1="46.74" y1="464.26" x2="46.71" y2="465.95"/><path class="cls-88" d="M46.4,465.94"/><line class="cls-88" x1="69.59" y1="464.28" x2="68.88" y2="465.95"/><path class="cls-88" d="M68.58,465.92"/><ellipse class="cls-22" cx="75.53" cy="461.85" rx="4.18" ry="3.85"/><path class="cls-17" d="M78.58,462.62v1.81a1.29,1.29,0,0,1,0,.32,4,4,0,0,1-5.39.19A4.72,4.72,0,0,0,75,461.17h2.09A1.46,1.46,0,0,1,78.58,462.62Z"/><path class="cls-17" d="M78.55,464.76a1.45,1.45,0,0,1-1.42,1.14H75.75A4,4,0,0,0,78.55,464.76Z"/><path class="cls-17" d="M75.75,465.89H70.32a4.7,4.7,0,0,0,2.84-.95A4,4,0,0,0,75.75,465.89Z"/><path class="cls-17" d="M75,461.17H71.8A4,4,0,0,1,74,458.25,4.7,4.7,0,0,1,75,461.17Z"/><path class="cls-17" d="M71.8,461.17H75a4.72,4.72,0,0,1-1.88,3.77,4,4,0,0,1-1.42-3.07A3.89,3.89,0,0,1,71.8,461.17Z"/><path class="cls-17" d="M70.32,456.45a4.71,4.71,0,0,1,3.71,1.8,4,4,0,0,0-2.23,2.92H67.47a3.05,3.05,0,0,0-1.7-1.28A4.72,4.72,0,0,1,70.32,456.45Z"/><path class="cls-17" d="M71.74,461.88a4,4,0,0,0,1.42,3.07,4.72,4.72,0,0,1-5.9-.17,3.07,3.07,0,0,0,.21-3.6H71.8A3.89,3.89,0,0,0,71.74,461.88Z"/><path class="cls-17" d="M70.32,465.89H64.89a3.07,3.07,0,0,0,2.38-1.12A4.7,4.7,0,0,0,70.32,465.89Z"/><path class="cls-17" d="M67.47,461.17a3.07,3.07,0,0,1-.21,3.6,4.7,4.7,0,0,1-1.67-3.6Z"/><path class="cls-17" d="M67.47,461.17H65.6a4.63,4.63,0,0,1,.18-1.28A3.05,3.05,0,0,1,67.47,461.17Z"/><path class="cls-17" d="M67.26,464.77a3.07,3.07,0,0,1-4.68.09,1.43,1.43,0,0,1-.06-.42v-1.81A1.46,1.46,0,0,1,64,461.17H65.6A4.7,4.7,0,0,0,67.26,464.77Z"/><path class="cls-17" d="M64.89,465.89H64a1.46,1.46,0,0,1-1.39-1A3.06,3.06,0,0,0,64.89,465.89Z"/><path class="cls-29" d="M64.89,465.89a3.07,3.07,0,1,1,0-6.14,3,3,0,0,1,.89.13"/><path class="cls-29" d="M65.78,459.88A4.72,4.72,0,0,1,74,458.25"/><path class="cls-29" d="M74,458.25a4,4,0,1,1,1.72,7.64"/><path class="cls-29" d="M64.89,465.89H64a1.46,1.46,0,0,1-1.39-1"/><path class="cls-29" d="M78.55,464.76a1.45,1.45,0,0,1-1.42,1.14H70.32"/><line class="cls-88" x1="70.47" y1="461.96" x2="70.47" y2="465.7"/><line class="cls-88" x1="70.33" y1="465.68" x2="69.39" y2="464.15"/><line class="cls-88" x1="65.78" y1="464.26" x2="65.76" y2="465.95"/><path class="cls-88" d="M65.63,465.94"/><line class="cls-88" x1="75.7" y1="464.28" x2="75.39" y2="465.95"/><path class="cls-88" d="M75.26,465.92"/><polygon class="cls-89" points="115.53 460.61 101.64 460.61 108.59 428.87 115.53 460.61"/><line class="cls-52" x1="108.59" y1="444.03" x2="108.59" y2="465.73"/><line class="cls-52" x1="108.41" y1="451.13" x2="107.15" y2="449.09"/><line class="cls-52" x1="108.59" y1="455.35" x2="111.36" y2="450.78"/><line class="cls-52" x1="108.41" y1="458.3" x2="105.64" y2="453.73"/><line class="cls-35" x1="461.88" y1="454.05" x2="479.56" y2="454.05"/><line class="cls-35" x1="799.47" y1="454.05" x2="823.93" y2="454.05"/><path class="cls-18" d="M905.72,369.63h-3.38A17.57,17.57,0,0,0,868,364.32a11.71,11.71,0,1,0-3.52,22.88h41.21a8.36,8.36,0,0,0,8.33-8.33V378A8.36,8.36,0,0,0,905.72,369.63Z"/><path class="cls-55" d="M392,544.1h42.82"/><line class="cls-55" x1="439.73" y1="544.1" x2="443.24" y2="544.1"/><line class="cls-55" x1="446.05" y1="544.1" x2="476.23" y2="544.1"/><line class="cls-51" x1="623.19" y1="473.1" x2="626.84" y2="473.1"/><line class="cls-35" x1="827.58" y1="454.05" x2="833.97" y2="454.05"/><line class="cls-35" x1="838.53" y1="454.05" x2="840.36" y2="454.05"/><line class="cls-35" x1="846.75" y1="454.05" x2="900.58" y2="454.05"/><line class="cls-35" x1="906.97" y1="454.05" x2="922.48" y2="454.05"/><line class="cls-35" x1="926.59" y1="454.05" x2="948.49" y2="454.05"/><line class="cls-35" x1="953.96" y1="454.05" x2="960.35" y2="454.05"/><line class="cls-35" x1="964.91" y1="454.05" x2="966.74" y2="454.05"/><line class="cls-35" x1="973.13" y1="454.05" x2="1026.96" y2="454.05"/><line class="cls-35" x1="1033.35" y1="454.05" x2="1048.86" y2="454.05"/><line class="cls-54" x1="1054.34" y1="454.05" x2="1105" y2="454.05"/><line class="cls-90" x1="471.58" y1="289.88" x2="498.43" y2="289.88"/><line class="cls-90" x1="504.96" y1="289.88" x2="501.33" y2="289.88"/><line class="cls-90" x1="510.76" y1="289.88" x2="561.56" y2="289.88"/><path class="cls-18" d="M482.92,288.79s-8-5.81,0-15.24,18.87-.73,18.87-.73,2.18-5.81,6.53-6.53,9.43,2.18,9.43,2.18a19.3,19.3,0,0,1,18.14-11.61c13.79,0,19.59,10.16,21,16.69,0,0,10.16-.73,10.89,6.53s-2.9,8.71-2.9,8.71Z"/><line class="cls-91" x1="1246.11" y1="521.81" x2="1260.71" y2="521.81"/><line class="cls-91" x1="1256.15" y1="530.94" x2="1259.8" y2="530.94"/><line class="cls-55" x1="997.54" y1="544.34" x2="1019.44" y2="544.34"/><line class="cls-55" x1="1024" y1="544.34" x2="1026.74" y2="544.34"/><line class="cls-55" x1="1031.3" y1="544.34" x2="1049.55" y2="544.34"/><line class="cls-54" x1="1165.09" y1="493.37" x2="1189.58" y2="493.37"/><line class="cls-54" x1="1194.68" y1="493.37" x2="1197.74" y2="493.37"/><line class="cls-91" x1="1165.26" y1="505.63" x2="1189.75" y2="505.63"/><line class="cls-91" x1="1194.85" y1="505.63" x2="1197.91" y2="505.63"/><line class="cls-54" x1="1202.85" y1="493.37" x2="1223.25" y2="493.37"/><line class="cls-54" x1="1228.36" y1="493.37" x2="1231.42" y2="493.37"/><line class="cls-54" x1="1232.95" y1="485.52" x2="1244.17" y2="485.52"/><line class="cls-54" x1="1105.78" y1="493.37" x2="1130.27" y2="493.37"/><line class="cls-54" x1="1135.37" y1="493.37" x2="1138.43" y2="493.37"/><line class="cls-54" x1="1143.53" y1="493.37" x2="1163.94" y2="493.37"/><line class="cls-19" x1="1169.04" y1="493.37" x2="1172.11" y2="493.37"/><line class="cls-35" x1="960.91" y1="505.9" x2="965.47" y2="505.9"/><line class="cls-35" x1="969.12" y1="505.9" x2="1008.36" y2="505.9"/><line class="cls-54" x1="1160.72" y1="557.55" x2="1209.56" y2="557.55"/><line class="cls-54" x1="1042.44" y1="557.55" x2="1091.28" y2="557.55"/><line class="cls-54" x1="1101.45" y1="557.55" x2="1107.56" y2="557.55"/><line class="cls-54" x1="1117.73" y1="557.55" x2="1158.43" y2="557.55"/><line class="cls-54" x1="1168.61" y1="557.55" x2="1174.71" y2="557.55"/><path class="cls-92" d="M971.28,478.38H948.8c-3.15-.51-7.18-2-6.6-6.15-.44-3.77,5.73-5.28,8.66-5.88h7.67a6.26,6.26,0,1,0,0-12.52H898.75A6.25,6.25,0,0,0,896.62,466h-1.13c3.28.42,7.09,2.88,7.09,6.33,0,3.18-4.83,5.52-6.69,6.09H877.24a6.26,6.26,0,0,0,0,12.52h32.35a6.47,6.47,0,0,1,3.3,5.46c0,3.12-3.65,5.43-5.16,6.05h-9.06a6.26,6.26,0,0,0,0,12.52h50.26a6.26,6.26,0,0,0,1.71-12.27c1.33.1,1.89-.1.33-.1h-.73a6.22,6.22,0,0,0-1.24-.14c-2.45-.54-5.48-2.08-5-6.12-.27-3,2.76-4.58,5.17-5.39h22.15a6.26,6.26,0,1,0,0-12.52Z"/><path class="cls-65" d="M584.31,540.6H643"/><line class="cls-65" x1="649.79" y1="540.6" x2="654.6" y2="540.6"/><line class="cls-65" x1="658.45" y1="540.6" x2="699.86" y2="540.6"/><line class="cls-65" x1="702.71" y1="532.76" x2="712.46" y2="532.76"/><path class="cls-65" d="M1124,491.53h50.7"/><line class="cls-65" x1="1179.56" y1="491.53" x2="1184.98" y2="491.53"/><line class="cls-65" x1="1188.41" y1="491.53" x2="1235.07" y2="491.53"/><line class="cls-65" x1="622.66" y1="600.86" x2="628.88" y2="600.86"/><line class="cls-65" x1="633.85" y1="600.86" x2="673.15" y2="600.86"/><path class="cls-47" d="M249.73,186.13S264,184.77,269,191.66A25.25,25.25,0,0,1,287.16,186"/><path class="cls-47" d="M223.27,196.17s14.28-1.36,19.26,5.53a25.25,25.25,0,0,1,18.17-5.64"/><line class="cls-65" x1="715.62" y1="553.85" x2="728.9" y2="553.85"/><path class="cls-47" d="M1178.57,204.2s14.28-1.36,19.26,5.53a25.25,25.25,0,0,1,18.17-5.64"/><path class="cls-47" d="M1152.1,214.23s14.28-1.36,19.26,5.53a25.25,25.25,0,0,1,18.17-5.64"/><line class="cls-35" x1="1070.21" y1="480" x2="1074.78" y2="480"/><line class="cls-35" x1="1078.43" y1="480" x2="1117.66" y2="480"/><line class="cls-65" x1="998.45" y1="542.52" x2="1020.35" y2="542.52"/><line class="cls-65" x1="1024.91" y1="542.52" x2="1027.65" y2="542.52"/><line class="cls-65" x1="1032.21" y1="542.52" x2="1050.46" y2="542.52"/><line class="cls-65" x1="1059.13" y1="535.5" x2="1069.17" y2="535.5"/><line class="cls-65" x1="1071.9" y1="535.5" x2="1074.64" y2="535.5"/><line class="cls-65" x1="999.66" y1="491.31" x2="1012.93" y2="491.31"/><line class="cls-65" x1="1020.07" y1="491.31" x2="1023.13" y2="491.31"/><line class="cls-65" x1="1028.23" y1="491.31" x2="1031.29" y2="491.31"/><line class="cls-65" x1="970.03" y1="504.08" x2="1009.27" y2="504.08"/><line class="cls-65" x1="1142.25" y1="462.01" x2="1154.11" y2="462.01"/><line class="cls-65" x1="1174.18" y1="462.01" x2="1187.87" y2="462.01"/><line class="cls-65" x1="1197" y1="462.01" x2="1206.12" y2="462.01"/><line class="cls-65" x1="1233.86" y1="483.7" x2="1245.09" y2="483.7"/><line class="cls-65" x1="1071.13" y1="478.18" x2="1075.69" y2="478.18"/><line class="cls-65" x1="1079.34" y1="478.18" x2="1118.58" y2="478.18"/><line class="cls-65" x1="1247.02" y1="519.99" x2="1261.62" y2="519.99"/><line class="cls-65" x1="1257.06" y1="529.11" x2="1260.71" y2="529.11"/><line class="cls-65" x1="1166.17" y1="503.81" x2="1190.66" y2="503.81"/><line class="cls-65" x1="1195.76" y1="503.81" x2="1198.82" y2="503.81"/><line class="cls-65" x1="34.06" y1="533.95" x2="45.92" y2="533.95"/><line class="cls-65" x1="49.57" y1="533.95" x2="54.14" y2="533.95"/><line class="cls-65" x1="58.7" y1="533.95" x2="66.91" y2="533.95"/><line class="cls-65" x1="59.61" y1="543.99" x2="64.17" y2="543.99"/><line class="cls-65" x1="68.74" y1="543.99" x2="90.63" y2="543.99"/><line class="cls-65" x1="118.01" y1="533.95" x2="125.31" y2="533.95"/><line class="cls-65" x1="249.12" y1="520.71" x2="263.89" y2="520.71"/><line class="cls-65" x1="274.97" y1="520.71" x2="295.89" y2="520.71"/><path class="cls-65" d="M394.27,541.88h37"/><line class="cls-65" x1="437.11" y1="542.21" x2="441.93" y2="542.21"/><line class="cls-65" x1="445.78" y1="542.21" x2="476.23" y2="542.21"/><path class="cls-65" d="M129,597H165.9"/><line class="cls-65" x1="170.14" y1="597" x2="173.16" y2="597"/><line class="cls-65" x1="175.58" y1="597" x2="201.57" y2="597"/><line class="cls-65" x1="308.66" y1="582.89" x2="310.48" y2="582.89"/><line class="cls-65" x1="314.68" y1="582.89" x2="330.32" y2="582.89"/><line class="cls-65" x1="199.72" y1="588.37" x2="215.36" y2="588.37"/><path class="cls-65" d="M464.57,576.91h27.79"/><line class="cls-65" x1="496.73" y1="577.15" x2="500.35" y2="577.15"/><line class="cls-65" x1="503.24" y1="577.15" x2="526.09" y2="577.15"/><line class="cls-65" x1="526.84" y1="568.94" x2="530.46" y2="568.94"/><line class="cls-65" x1="533.35" y1="568.94" x2="556.21" y2="568.94"/><line class="cls-35" x1="827.58" y1="454.05" x2="833.97" y2="454.05"/><line class="cls-35" x1="419.05" y1="454.05" x2="443.52" y2="454.05"/><line class="cls-35" x1="446.05" y1="454.05" x2="453.04" y2="454.05"/><line class="cls-35" x1="577.73" y1="474.91" x2="588.95" y2="474.91"/><line class="cls-67" x1="579.61" y1="473.92" x2="589.37" y2="473.92"/><path class="cls-55" d="M392,544.1h42.82"/><line class="cls-55" x1="439.73" y1="544.1" x2="443.24" y2="544.1"/><line class="cls-55" x1="446.05" y1="544.1" x2="476.23" y2="544.1"/><path class="cls-65" d="M394.27,541.88h37"/><line class="cls-65" x1="437.11" y1="542.21" x2="441.93" y2="542.21"/><line class="cls-65" x1="445.78" y1="542.21" x2="476.23" y2="542.21"/><path class="cls-35" d="M442.7,501.28h42.82"/><line class="cls-35" x1="490.43" y1="501.28" x2="493.94" y2="501.28"/><line class="cls-35" x1="496.75" y1="501.28" x2="526.94" y2="501.28"/><path class="cls-67" d="M445,500h37"/><line class="cls-67" x1="487.82" y1="500.3" x2="492.63" y2="500.3"/><line class="cls-67" x1="496.48" y1="500.3" x2="526.94" y2="500.3"/><line class="cls-93" x1="33.52" y1="242.36" x2="57.72" y2="242.36"/><line class="cls-90" x1="27.66" y1="255.22" x2="54.51" y2="255.22"/><line class="cls-90" x1="61.04" y1="255.22" x2="57.41" y2="255.22"/><line class="cls-90" x1="66.84" y1="255.22" x2="117.64" y2="255.22"/><path class="cls-18" d="M36,254.13s-8-5.81,0-15.24,18.87-.73,18.87-.73,2.18-5.81,6.53-6.53,9.43,2.18,9.43,2.18A19.3,19.3,0,0,1,89,222.2c13.79,0,19.59,10.16,21,16.69,0,0,10.16-.73,10.89,6.53s-2.9,8.71-2.9,8.71Z"/><polygon class="cls-89" points="18.53 459.61 4.64 459.61 11.59 427.87 18.53 459.61"/><line class="cls-52" x1="11.59" y1="443.03" x2="11.59" y2="464.73"/><line class="cls-52" x1="11.41" y1="450.13" x2="10.15" y2="448.09"/><line class="cls-52" x1="11.59" y1="454.35" x2="14.36" y2="449.78"/><line class="cls-52" x1="11.41" y1="457.3" x2="8.64" y2="452.73"/><rect class="cls-94" y="29.5" width="26" height="650"/><rect class="cls-95" x="1274.5" width="26" height="650" transform="translate(2575 650) rotate(-180)"/><path class="cls-96" d="M1183,556.09v-5.76l8.65-5.76v-4.32H1050.43c.72,4.32,2.88,7.21,7.93,8.65s4.32,8.65,4.32,8.65"/><line class="cls-96" x1="1056.19" y1="535.92" x2="1056.19" y2="539.52"/><line class="cls-96" x1="1069.88" y1="535.92" x2="1069.88" y2="539.52"/><line class="cls-96" x1="1077.09" y1="535.92" x2="1077.09" y2="539.52"/><line class="cls-96" x1="1083.57" y1="535.92" x2="1083.57" y2="539.52"/><line class="cls-96" x1="1056.19" y1="535.92" x2="1056.19" y2="539.52"/><line class="cls-96" x1="1069.88" y1="535.92" x2="1069.88" y2="539.52"/><line class="cls-96" x1="1077.09" y1="535.92" x2="1077.09" y2="539.52"/><line class="cls-96" x1="1083.57" y1="535.92" x2="1083.57" y2="539.52"/><line class="cls-96" x1="1062.67" y1="515.02" x2="1062.67" y2="539.52"/><line class="cls-96" x1="1150.58" y1="515.02" x2="1150.58" y2="539.52"/><line class="cls-96" x1="1125.36" y1="515.02" x2="1125.36" y2="539.52"/><polygon class="cls-96" points="1157.07 511.42 1058.35 511.42 1058.35 515.02 1154.19 515.02 1157.07 511.42"/><line class="cls-96" x1="1077.81" y1="470.08" x2="1077.81" y2="510.7"/><line class="cls-96" x1="1113.84" y1="493.4" x2="1113.84" y2="510.7"/><polyline class="cls-96" points="1146.52 539.52 1146.52 520.06 1133.03 520.06 1133.03 539.52"/><line class="cls-96" x1="1139.78" y1="520.78" x2="1139.78" y2="540.24"/><polyline class="cls-96" points="1077.81 493.4 1116.72 493.4 1119.6 489.8 1077.81 489.8"/><line class="cls-96" x1="1103.03" y1="493.4" x2="1103.03" y2="510.7"/><line class="cls-96" x1="1142.66" y1="505.65" x2="1142.66" y2="510.7"/><line class="cls-96" x1="1135.45" y1="505.65" x2="1135.45" y2="510.7"/><line class="cls-96" x1="1128.25" y1="505.65" x2="1128.25" y2="510.7"/><line class="cls-96" x1="1121.76" y1="505.65" x2="1121.76" y2="510.7"/><line class="cls-96" x1="1107.35" y1="505.65" x2="1107.35" y2="510.7"/><line class="cls-96" x1="1103.03" y1="504.93" x2="1145.54" y2="504.93"/><line class="cls-96" x1="1090.78" y1="535.92" x2="1090.78" y2="539.52"/><line class="cls-96" x1="1097.98" y1="535.92" x2="1097.98" y2="539.52"/><line class="cls-96" x1="1104.47" y1="535.92" x2="1104.47" y2="539.52"/><line class="cls-96" x1="1111.67" y1="535.92" x2="1111.67" y2="539.52"/><line class="cls-96" x1="1118.88" y1="535.92" x2="1118.88" y2="539.52"/><line class="cls-96" x1="1153.47" y1="535.92" x2="1153.47" y2="539.52"/><line class="cls-96" x1="1160.67" y1="535.92" x2="1160.67" y2="539.52"/><line class="cls-96" x1="1174.36" y1="535.92" x2="1174.36" y2="539.52"/><line class="cls-96" x1="1181.57" y1="535.92" x2="1181.57" y2="539.52"/><line class="cls-96" x1="1188.77" y1="535.92" x2="1188.77" y2="539.52"/><rect class="cls-97" x="1082.85" y="497.01" width="6.49" height="10.09"/><rect class="cls-97" x="1092.94" y="497.01" width="6.49" height="10.09"/><line class="cls-96" x1="1082.85" y1="503.49" x2="1088.62" y2="503.49"/><line class="cls-96" x1="1093.66" y1="503.49" x2="1099.42" y2="503.49"/><line class="cls-96" x1="1167.88" y1="535.92" x2="1167.88" y2="539.52"/><circle class="cls-29" cx="1135.45" cy="531.59" r="0.72"/><circle class="cls-29" cx="1144.1" cy="531.59" r="0.72"/><circle class="cls-98" cx="1077.09" cy="524.39" r="6.67"/><circle class="cls-23" cx="1077.09" cy="524.39" r="4.32"/><ellipse class="cls-23" cx="1078.35" cy="524.57" rx="3.06" ry="3.42"/><circle class="cls-98" cx="1099.42" cy="524.39" r="6.67"/><circle class="cls-23" cx="1099.42" cy="524.39" r="4.32"/><ellipse class="cls-23" cx="1100.68" cy="524.57" rx="3.06" ry="3.42"/><polyline class="cls-99" points="1075.98 471.22 1068.78 474.42 1075.98 478.42"/><polyline class="cls-100" points="1075.98 487.64 1067.61 491.96 1075.98 496.29"/><line class="cls-29" x1="1068.78" y1="491.96" x2="1075.98" y2="491.96"/><path class="cls-18" d="M1076,479.86H1069a.11.11,0,0,0-.08.19l2.7,2.7-2.7,2.7a.11.11,0,0,0,.08.19H1076"/><path class="cls-101" d="M1182.1,549.42l8.65-5.76v-2.5H1052.25c.66,5.27,7.59,6.37,8.84,7.73"/><line class="cls-96" x1="1053.31" y1="535.2" x2="1191.66" y2="535.2"/><rect class="cls-102" x="1073.93" y="479.86" width="2.05" height="5.76"/></g><g id="Trail_Elements" data-name="Trail Elements"><line class="cls-103" x1="900.86" y1="437.2" x2="1140.4" y2="437.2"/></g></g></svg>