<svg xmlns="http://www.w3.org/2000/svg" xmlns:xlink="http://www.w3.org/1999/xlink" viewBox="0 0 263.98 232.48"><defs><style>.cls-1,.cls-3,.cls-4,.cls-6,.cls-7{fill:none;}.cls-2{clip-path:url(#clip-path);}.cls-11,.cls-3,.cls-4,.cls-5,.cls-6,.cls-7,.cls-8,.cls-9{stroke:#ccc;}.cls-3,.cls-6{stroke-linecap:round;}.cls-11,.cls-3,.cls-4,.cls-5,.cls-6{stroke-miterlimit:10;}.cls-3{stroke-width:1.98px;}.cls-5{fill:#ccc;}.cls-7,.cls-8,.cls-9{stroke-linejoin:round;stroke-width:2px;}.cls-8{fill:#f7df75;}.cls-11,.cls-9{fill:#fff;}.cls-10{clip-path:url(#clip-path-2);}.cls-12{clip-path:url(#clip-path-3);}.cls-13{clip-path:url(#clip-path-4);}.cls-14{fill:#cee4f5;}.cls-15{fill:#fcc062;}</style><clipPath id="clip-path" transform="translate(0 -5.51)"><rect class="cls-1" x="10.99" width="240" height="240" transform="translate(10.99 250.99) rotate(-90)"/></clipPath><clipPath id="clip-path-2" transform="translate(0 -5.51)"><polygon class="cls-1" points="91.99 222 88.49 199.5 123.49 193.5 125.99 222 109.49 220.5 107.49 213.5 102.99 222 91.99 222"/></clipPath><clipPath id="clip-path-3" transform="translate(0 -5.51)"><polygon class="cls-1" points="200.99 41 197.49 18.5 232.49 12.5 234.99 43 218.49 39.5 215.99 42 210.99 43 200.99 41"/></clipPath><clipPath id="clip-path-4" transform="translate(0 -5.51)"><polygon class="cls-1" points="61.99 63.76 210.62 63.76 175.23 120.38 210.62 177 61.99 177 61.99 63.76"/></clipPath></defs><title>ConciergeIllustration</title><g id="Layer_2" data-name="Layer 2"><g id="Services_Icon" data-name="Services Icon"><g class="cls-2"><path class="cls-3" d="M19.71,6.5c0,3-4.19,5.5-9.36,5.5S1,9.54,1,6.5" transform="translate(0 -5.51)"/><path class="cls-3" d="M38.42,6.5c0,3-4.19,5.5-9.36,5.5s-9.36-2.46-9.36-5.5" transform="translate(0 -5.51)"/><path class="cls-3" d="M57.14,6.5c0,3-4.19,5.5-9.36,5.5s-9.36-2.46-9.36-5.5" transform="translate(0 -5.51)"/><path class="cls-3" d="M75.85,6.5c0,3-4.19,5.5-9.36,5.5s-9.36-2.46-9.36-5.5" transform="translate(0 -5.51)"/><path class="cls-3" d="M94.56,6.5c0,3-4.19,5.5-9.36,5.5s-9.36-2.46-9.36-5.5" transform="translate(0 -5.51)"/><path class="cls-3" d="M113.28,6.5c0,3-4.19,5.5-9.36,5.5s-9.36-2.46-9.36-5.5" transform="translate(0 -5.51)"/><path class="cls-3" d="M132,6.5c0,3-4.19,5.5-9.36,5.5s-9.36-2.46-9.36-5.5" transform="translate(0 -5.51)"/><path class="cls-3" d="M150.71,6.5c0,3-4.19,5.5-9.36,5.5S132,9.54,132,6.5" transform="translate(0 -5.51)"/><path class="cls-3" d="M169.42,6.5c0,3-4.19,5.5-9.36,5.5s-9.36-2.46-9.36-5.5" transform="translate(0 -5.51)"/><path class="cls-3" d="M188.14,6.5c0,3-4.19,5.5-9.36,5.5s-9.36-2.46-9.36-5.5" transform="translate(0 -5.51)"/><path class="cls-3" d="M206.85,6.5c0,3-4.19,5.5-9.36,5.5s-9.36-2.46-9.36-5.5" transform="translate(0 -5.51)"/><path class="cls-3" d="M225.56,6.5c0,3-4.19,5.5-9.36,5.5s-9.36-2.46-9.36-5.5" transform="translate(0 -5.51)"/><path class="cls-3" d="M244.28,6.5c0,3-4.19,5.5-9.36,5.5s-9.36-2.46-9.36-5.5" transform="translate(0 -5.51)"/><path class="cls-3" d="M263,6.5c0,3-4.19,5.5-9.36,5.5s-9.36-2.46-9.36-5.5" transform="translate(0 -5.51)"/><path class="cls-3" d="M19.71,21.5c0,3-4.19,5.5-9.36,5.5S1,24.54,1,21.5" transform="translate(0 -5.51)"/><path class="cls-3" d="M38.42,21.5c0,3-4.19,5.5-9.36,5.5s-9.36-2.46-9.36-5.5" transform="translate(0 -5.51)"/><path class="cls-3" d="M57.14,21.5c0,3-4.19,5.5-9.36,5.5s-9.36-2.46-9.36-5.5" transform="translate(0 -5.51)"/><path class="cls-3" d="M75.85,21.5c0,3-4.19,5.5-9.36,5.5s-9.36-2.46-9.36-5.5" transform="translate(0 -5.51)"/><path class="cls-3" d="M94.56,21.5c0,3-4.19,5.5-9.36,5.5s-9.36-2.46-9.36-5.5" transform="translate(0 -5.51)"/><path class="cls-3" d="M113.28,21.5c0,3-4.19,5.5-9.36,5.5s-9.36-2.46-9.36-5.5" transform="translate(0 -5.51)"/><path class="cls-3" d="M132,21.5c0,3-4.19,5.5-9.36,5.5s-9.36-2.46-9.36-5.5" transform="translate(0 -5.51)"/><path class="cls-3" d="M150.71,21.5c0,3-4.19,5.5-9.36,5.5S132,24.54,132,21.5" transform="translate(0 -5.51)"/><path class="cls-3" d="M169.42,21.5c0,3-4.19,5.5-9.36,5.5s-9.36-2.46-9.36-5.5" transform="translate(0 -5.51)"/><path class="cls-3" d="M188.14,21.5c0,3-4.19,5.5-9.36,5.5s-9.36-2.46-9.36-5.5" transform="translate(0 -5.51)"/><path class="cls-3" d="M206.85,21.5c0,3-4.19,5.5-9.36,5.5s-9.36-2.46-9.36-5.5" transform="translate(0 -5.51)"/><path class="cls-3" d="M225.56,21.5c0,3-4.19,5.5-9.36,5.5s-9.36-2.46-9.36-5.5" transform="translate(0 -5.51)"/><path class="cls-3" d="M244.28,21.5c0,3-4.19,5.5-9.36,5.5s-9.36-2.46-9.36-5.5" transform="translate(0 -5.51)"/><path class="cls-3" d="M263,21.5c0,3-4.19,5.5-9.36,5.5s-9.36-2.46-9.36-5.5" transform="translate(0 -5.51)"/><path class="cls-3" d="M19.71,36.5c0,3-4.19,5.5-9.36,5.5S1,39.54,1,36.5" transform="translate(0 -5.51)"/><path class="cls-3" d="M38.42,36.5c0,3-4.19,5.5-9.36,5.5s-9.36-2.46-9.36-5.5" transform="translate(0 -5.51)"/><path class="cls-3" d="M57.14,36.5c0,3-4.19,5.5-9.36,5.5s-9.36-2.46-9.36-5.5" transform="translate(0 -5.51)"/><path class="cls-3" d="M75.85,36.5c0,3-4.19,5.5-9.36,5.5s-9.36-2.46-9.36-5.5" transform="translate(0 -5.51)"/><path class="cls-3" d="M94.56,36.5c0,3-4.19,5.5-9.36,5.5s-9.36-2.46-9.36-5.5" transform="translate(0 -5.51)"/><path class="cls-3" d="M113.28,36.5c0,3-4.19,5.5-9.36,5.5s-9.36-2.46-9.36-5.5" transform="translate(0 -5.51)"/><path class="cls-3" d="M132,36.5c0,3-4.19,5.5-9.36,5.5s-9.36-2.46-9.36-5.5" transform="translate(0 -5.51)"/><path class="cls-3" d="M150.71,36.5c0,3-4.19,5.5-9.36,5.5S132,39.54,132,36.5" transform="translate(0 -5.51)"/><path class="cls-3" d="M169.42,36.5c0,3-4.19,5.5-9.36,5.5s-9.36-2.46-9.36-5.5" transform="translate(0 -5.51)"/><path class="cls-3" d="M188.14,36.5c0,3-4.19,5.5-9.36,5.5s-9.36-2.46-9.36-5.5" transform="translate(0 -5.51)"/><path class="cls-3" d="M206.85,36.5c0,3-4.19,5.5-9.36,5.5s-9.36-2.46-9.36-5.5" transform="translate(0 -5.51)"/><path class="cls-3" d="M225.56,36.5c0,3-4.19,5.5-9.36,5.5s-9.36-2.46-9.36-5.5" transform="translate(0 -5.51)"/><path class="cls-3" d="M244.28,36.5c0,3-4.19,5.5-9.36,5.5s-9.36-2.46-9.36-5.5" transform="translate(0 -5.51)"/><path class="cls-3" d="M263,36.5c0,3-4.19,5.5-9.36,5.5s-9.36-2.46-9.36-5.5" transform="translate(0 -5.51)"/><path class="cls-3" d="M19.71,51.5c0,3-4.19,5.5-9.36,5.5S1,54.54,1,51.5" transform="translate(0 -5.51)"/><path class="cls-3" d="M38.42,51.5c0,3-4.19,5.5-9.36,5.5s-9.36-2.46-9.36-5.5" transform="translate(0 -5.51)"/><path class="cls-3" d="M57.14,51.5c0,3-4.19,5.5-9.36,5.5s-9.36-2.46-9.36-5.5" transform="translate(0 -5.51)"/><path class="cls-3" d="M75.85,51.5c0,3-4.19,5.5-9.36,5.5s-9.36-2.46-9.36-5.5" transform="translate(0 -5.51)"/><path class="cls-3" d="M94.56,51.5c0,3-4.19,5.5-9.36,5.5s-9.36-2.46-9.36-5.5" transform="translate(0 -5.51)"/><path class="cls-3" d="M113.28,51.5c0,3-4.19,5.5-9.36,5.5s-9.36-2.46-9.36-5.5" transform="translate(0 -5.51)"/><path class="cls-3" d="M132,51.5c0,3-4.19,5.5-9.36,5.5s-9.36-2.46-9.36-5.5" transform="translate(0 -5.51)"/><path class="cls-3" d="M150.71,51.5c0,3-4.19,5.5-9.36,5.5S132,54.54,132,51.5" transform="translate(0 -5.51)"/><path class="cls-3" d="M169.42,51.5c0,3-4.19,5.5-9.36,5.5s-9.36-2.46-9.36-5.5" transform="translate(0 -5.51)"/><path class="cls-3" d="M188.14,51.5c0,3-4.19,5.5-9.36,5.5s-9.36-2.46-9.36-5.5" transform="translate(0 -5.51)"/><path class="cls-3" d="M206.85,51.5c0,3-4.19,5.5-9.36,5.5s-9.36-2.46-9.36-5.5" transform="translate(0 -5.51)"/><path class="cls-3" d="M225.56,51.5c0,3-4.19,5.5-9.36,5.5s-9.36-2.46-9.36-5.5" transform="translate(0 -5.51)"/><path class="cls-3" d="M244.28,51.5c0,3-4.19,5.5-9.36,5.5s-9.36-2.46-9.36-5.5" transform="translate(0 -5.51)"/><path class="cls-3" d="M263,51.5c0,3-4.19,5.5-9.36,5.5s-9.36-2.46-9.36-5.5" transform="translate(0 -5.51)"/><path class="cls-3" d="M19.71,66.5c0,3-4.19,5.5-9.36,5.5S1,69.54,1,66.5" transform="translate(0 -5.51)"/><path class="cls-3" d="M38.42,66.5c0,3-4.19,5.5-9.36,5.5s-9.36-2.46-9.36-5.5" transform="translate(0 -5.51)"/><path class="cls-3" d="M57.14,66.5c0,3-4.19,5.5-9.36,5.5s-9.36-2.46-9.36-5.5" transform="translate(0 -5.51)"/><path class="cls-3" d="M75.85,66.5c0,3-4.19,5.5-9.36,5.5s-9.36-2.46-9.36-5.5" transform="translate(0 -5.51)"/><path class="cls-3" d="M94.56,66.5c0,3-4.19,5.5-9.36,5.5s-9.36-2.46-9.36-5.5" transform="translate(0 -5.51)"/><path class="cls-3" d="M113.28,66.5c0,3-4.19,5.5-9.36,5.5s-9.36-2.46-9.36-5.5" transform="translate(0 -5.51)"/><path class="cls-3" d="M132,66.5c0,3-4.19,5.5-9.36,5.5s-9.36-2.46-9.36-5.5" transform="translate(0 -5.51)"/><path class="cls-3" d="M150.71,66.5c0,3-4.19,5.5-9.36,5.5S132,69.54,132,66.5" transform="translate(0 -5.51)"/><path class="cls-3" d="M169.42,66.5c0,3-4.19,5.5-9.36,5.5s-9.36-2.46-9.36-5.5" transform="translate(0 -5.51)"/><path class="cls-3" d="M188.14,66.5c0,3-4.19,5.5-9.36,5.5s-9.36-2.46-9.36-5.5" transform="translate(0 -5.51)"/><path class="cls-3" d="M206.85,66.5c0,3-4.19,5.5-9.36,5.5s-9.36-2.46-9.36-5.5" transform="translate(0 -5.51)"/><path class="cls-3" d="M225.56,66.5c0,3-4.19,5.5-9.36,5.5s-9.36-2.46-9.36-5.5" transform="translate(0 -5.51)"/><path class="cls-3" d="M244.28,66.5c0,3-4.19,5.5-9.36,5.5s-9.36-2.46-9.36-5.5" transform="translate(0 -5.51)"/><path class="cls-3" d="M263,66.5c0,3-4.19,5.5-9.36,5.5s-9.36-2.46-9.36-5.5" transform="translate(0 -5.51)"/><path class="cls-3" d="M19.71,81.5c0,3-4.19,5.5-9.36,5.5S1,84.54,1,81.5" transform="translate(0 -5.51)"/><path class="cls-3" d="M38.42,81.5c0,3-4.19,5.5-9.36,5.5s-9.36-2.46-9.36-5.5" transform="translate(0 -5.51)"/><path class="cls-3" d="M57.14,81.5c0,3-4.19,5.5-9.36,5.5s-9.36-2.46-9.36-5.5" transform="translate(0 -5.51)"/><path class="cls-3" d="M75.85,81.5c0,3-4.19,5.5-9.36,5.5s-9.36-2.46-9.36-5.5" transform="translate(0 -5.51)"/><path class="cls-3" d="M94.56,81.5c0,3-4.19,5.5-9.36,5.5s-9.36-2.46-9.36-5.5" transform="translate(0 -5.51)"/><path class="cls-3" d="M113.28,81.5c0,3-4.19,5.5-9.36,5.5s-9.36-2.46-9.36-5.5" transform="translate(0 -5.51)"/><path class="cls-3" d="M132,81.5c0,3-4.19,5.5-9.36,5.5s-9.36-2.46-9.36-5.5" transform="translate(0 -5.51)"/><path class="cls-3" d="M150.71,81.5c0,3-4.19,5.5-9.36,5.5S132,84.54,132,81.5" transform="translate(0 -5.51)"/><path class="cls-3" d="M169.42,81.5c0,3-4.19,5.5-9.36,5.5s-9.36-2.46-9.36-5.5" transform="translate(0 -5.51)"/><path class="cls-3" d="M188.14,81.5c0,3-4.19,5.5-9.36,5.5s-9.36-2.46-9.36-5.5" transform="translate(0 -5.51)"/><path class="cls-3" d="M206.85,81.5c0,3-4.19,5.5-9.36,5.5s-9.36-2.46-9.36-5.5" transform="translate(0 -5.51)"/><path class="cls-3" d="M225.56,81.5c0,3-4.19,5.5-9.36,5.5s-9.36-2.46-9.36-5.5" transform="translate(0 -5.51)"/><path class="cls-3" d="M244.28,81.5c0,3-4.19,5.5-9.36,5.5s-9.36-2.46-9.36-5.5" transform="translate(0 -5.51)"/><path class="cls-3" d="M263,81.5c0,3-4.19,5.5-9.36,5.5s-9.36-2.46-9.36-5.5" transform="translate(0 -5.51)"/><path class="cls-3" d="M19.71,96.5c0,3-4.19,5.5-9.36,5.5S1,99.54,1,96.5" transform="translate(0 -5.51)"/><path class="cls-3" d="M38.42,96.5c0,3-4.19,5.5-9.36,5.5s-9.36-2.46-9.36-5.5" transform="translate(0 -5.51)"/><path class="cls-3" d="M57.14,96.5c0,3-4.19,5.5-9.36,5.5s-9.36-2.46-9.36-5.5" transform="translate(0 -5.51)"/><path class="cls-3" d="M75.85,96.5c0,3-4.19,5.5-9.36,5.5s-9.36-2.46-9.36-5.5" transform="translate(0 -5.51)"/><path class="cls-3" d="M94.56,96.5c0,3-4.19,5.5-9.36,5.5s-9.36-2.46-9.36-5.5" transform="translate(0 -5.51)"/><path class="cls-3" d="M113.28,96.5c0,3-4.19,5.5-9.36,5.5s-9.36-2.46-9.36-5.5" transform="translate(0 -5.51)"/><path class="cls-3" d="M132,96.5c0,3-4.19,5.5-9.36,5.5s-9.36-2.46-9.36-5.5" transform="translate(0 -5.51)"/><path class="cls-3" d="M150.71,96.5c0,3-4.19,5.5-9.36,5.5S132,99.54,132,96.5" transform="translate(0 -5.51)"/><path class="cls-3" d="M169.42,96.5c0,3-4.19,5.5-9.36,5.5s-9.36-2.46-9.36-5.5" transform="translate(0 -5.51)"/><path class="cls-3" d="M188.14,96.5c0,3-4.19,5.5-9.36,5.5s-9.36-2.46-9.36-5.5" transform="translate(0 -5.51)"/><path class="cls-3" d="M206.85,96.5c0,3-4.19,5.5-9.36,5.5s-9.36-2.46-9.36-5.5" transform="translate(0 -5.51)"/><path class="cls-3" d="M225.56,96.5c0,3-4.19,5.5-9.36,5.5s-9.36-2.46-9.36-5.5" transform="translate(0 -5.51)"/><path class="cls-3" d="M244.28,96.5c0,3-4.19,5.5-9.36,5.5s-9.36-2.46-9.36-5.5" transform="translate(0 -5.51)"/><path class="cls-3" d="M263,96.5c0,3-4.19,5.5-9.36,5.5s-9.36-2.46-9.36-5.5" transform="translate(0 -5.51)"/><path class="cls-3" d="M19.71,111.5c0,3-4.19,5.5-9.36,5.5S1,114.54,1,111.5" transform="translate(0 -5.51)"/><path class="cls-3" d="M38.42,111.5c0,3-4.19,5.5-9.36,5.5s-9.36-2.46-9.36-5.5" transform="translate(0 -5.51)"/><path class="cls-3" d="M57.14,111.5c0,3-4.19,5.5-9.36,5.5s-9.36-2.46-9.36-5.5" transform="translate(0 -5.51)"/><path class="cls-3" d="M75.85,111.5c0,3-4.19,5.5-9.36,5.5s-9.36-2.46-9.36-5.5" transform="translate(0 -5.51)"/><path class="cls-3" d="M94.56,111.5c0,3-4.19,5.5-9.36,5.5s-9.36-2.46-9.36-5.5" transform="translate(0 -5.51)"/><path class="cls-3" d="M113.28,111.5c0,3-4.19,5.5-9.36,5.5s-9.36-2.46-9.36-5.5" transform="translate(0 -5.51)"/><path class="cls-3" d="M132,111.5c0,3-4.19,5.5-9.36,5.5s-9.36-2.46-9.36-5.5" transform="translate(0 -5.51)"/><path class="cls-3" d="M150.71,111.5c0,3-4.19,5.5-9.36,5.5s-9.36-2.46-9.36-5.5" transform="translate(0 -5.51)"/><path class="cls-3" d="M169.42,111.5c0,3-4.19,5.5-9.36,5.5s-9.36-2.46-9.36-5.5" transform="translate(0 -5.51)"/><path class="cls-3" d="M188.14,111.5c0,3-4.19,5.5-9.36,5.5s-9.36-2.46-9.36-5.5" transform="translate(0 -5.51)"/><path class="cls-3" d="M206.85,111.5c0,3-4.19,5.5-9.36,5.5s-9.36-2.46-9.36-5.5" transform="translate(0 -5.51)"/><path class="cls-3" d="M225.56,111.5c0,3-4.19,5.5-9.36,5.5s-9.36-2.46-9.36-5.5" transform="translate(0 -5.51)"/><path class="cls-3" d="M244.28,111.5c0,3-4.19,5.5-9.36,5.5s-9.36-2.46-9.36-5.5" transform="translate(0 -5.51)"/><path class="cls-3" d="M263,111.5c0,3-4.19,5.5-9.36,5.5s-9.36-2.46-9.36-5.5" transform="translate(0 -5.51)"/><path class="cls-3" d="M19.71,126.5c0,3-4.19,5.5-9.36,5.5S1,129.54,1,126.5" transform="translate(0 -5.51)"/><path class="cls-3" d="M38.42,126.5c0,3-4.19,5.5-9.36,5.5s-9.36-2.46-9.36-5.5" transform="translate(0 -5.51)"/><path class="cls-3" d="M57.14,126.5c0,3-4.19,5.5-9.36,5.5s-9.36-2.46-9.36-5.5" transform="translate(0 -5.51)"/><path class="cls-3" d="M75.85,126.5c0,3-4.19,5.5-9.36,5.5s-9.36-2.46-9.36-5.5" transform="translate(0 -5.51)"/><path class="cls-3" d="M94.56,126.5c0,3-4.19,5.5-9.36,5.5s-9.36-2.46-9.36-5.5" transform="translate(0 -5.51)"/><path class="cls-3" d="M113.28,126.5c0,3-4.19,5.5-9.36,5.5s-9.36-2.46-9.36-5.5" transform="translate(0 -5.51)"/><path class="cls-3" d="M132,126.5c0,3-4.19,5.5-9.36,5.5s-9.36-2.46-9.36-5.5" transform="translate(0 -5.51)"/><path class="cls-3" d="M150.71,126.5c0,3-4.19,5.5-9.36,5.5s-9.36-2.46-9.36-5.5" transform="translate(0 -5.51)"/><path class="cls-3" d="M169.42,126.5c0,3-4.19,5.5-9.36,5.5s-9.36-2.46-9.36-5.5" transform="translate(0 -5.51)"/><path class="cls-3" d="M188.14,126.5c0,3-4.19,5.5-9.36,5.5s-9.36-2.46-9.36-5.5" transform="translate(0 -5.51)"/><path class="cls-3" d="M206.85,126.5c0,3-4.19,5.5-9.36,5.5s-9.36-2.46-9.36-5.5" transform="translate(0 -5.51)"/><path class="cls-3" d="M225.56,126.5c0,3-4.19,5.5-9.36,5.5s-9.36-2.46-9.36-5.5" transform="translate(0 -5.51)"/><path class="cls-3" d="M244.28,126.5c0,3-4.19,5.5-9.36,5.5s-9.36-2.46-9.36-5.5" transform="translate(0 -5.51)"/><path class="cls-3" d="M263,126.5c0,3-4.19,5.5-9.36,5.5s-9.36-2.46-9.36-5.5" transform="translate(0 -5.51)"/><path class="cls-3" d="M19.71,141.5c0,3-4.19,5.5-9.36,5.5S1,144.54,1,141.5" transform="translate(0 -5.51)"/><path class="cls-3" d="M38.42,141.5c0,3-4.19,5.5-9.36,5.5s-9.36-2.46-9.36-5.5" transform="translate(0 -5.51)"/><path class="cls-3" d="M57.14,141.5c0,3-4.19,5.5-9.36,5.5s-9.36-2.46-9.36-5.5" transform="translate(0 -5.51)"/><path class="cls-3" d="M75.85,141.5c0,3-4.19,5.5-9.36,5.5s-9.36-2.46-9.36-5.5" transform="translate(0 -5.51)"/><path class="cls-3" d="M94.56,141.5c0,3-4.19,5.5-9.36,5.5s-9.36-2.46-9.36-5.5" transform="translate(0 -5.51)"/><path class="cls-3" d="M113.28,141.5c0,3-4.19,5.5-9.36,5.5s-9.36-2.46-9.36-5.5" transform="translate(0 -5.51)"/><path class="cls-3" d="M132,141.5c0,3-4.19,5.5-9.36,5.5s-9.36-2.46-9.36-5.5" transform="translate(0 -5.51)"/><path class="cls-3" d="M150.71,141.5c0,3-4.19,5.5-9.36,5.5s-9.36-2.46-9.36-5.5" transform="translate(0 -5.51)"/><path class="cls-3" d="M169.42,141.5c0,3-4.19,5.5-9.36,5.5s-9.36-2.46-9.36-5.5" transform="translate(0 -5.51)"/><path class="cls-3" d="M188.14,141.5c0,3-4.19,5.5-9.36,5.5s-9.36-2.46-9.36-5.5" transform="translate(0 -5.51)"/><path class="cls-3" d="M206.85,141.5c0,3-4.19,5.5-9.36,5.5s-9.36-2.46-9.36-5.5" transform="translate(0 -5.51)"/><path class="cls-3" d="M225.56,141.5c0,3-4.19,5.5-9.36,5.5s-9.36-2.46-9.36-5.5" transform="translate(0 -5.51)"/><path class="cls-3" d="M244.28,141.5c0,3-4.19,5.5-9.36,5.5s-9.36-2.46-9.36-5.5" transform="translate(0 -5.51)"/><path class="cls-3" d="M263,141.5c0,3-4.19,5.5-9.36,5.5s-9.36-2.46-9.36-5.5" transform="translate(0 -5.51)"/><path class="cls-3" d="M19.71,156.5c0,3-4.19,5.5-9.36,5.5S1,159.54,1,156.5" transform="translate(0 -5.51)"/><path class="cls-3" d="M38.42,156.5c0,3-4.19,5.5-9.36,5.5s-9.36-2.46-9.36-5.5" transform="translate(0 -5.51)"/><path class="cls-3" d="M57.14,156.5c0,3-4.19,5.5-9.36,5.5s-9.36-2.46-9.36-5.5" transform="translate(0 -5.51)"/><path class="cls-3" d="M75.85,156.5c0,3-4.19,5.5-9.36,5.5s-9.36-2.46-9.36-5.5" transform="translate(0 -5.51)"/><path class="cls-3" d="M94.56,156.5c0,3-4.19,5.5-9.36,5.5s-9.36-2.46-9.36-5.5" transform="translate(0 -5.51)"/><path class="cls-3" d="M113.28,156.5c0,3-4.19,5.5-9.36,5.5s-9.36-2.46-9.36-5.5" transform="translate(0 -5.51)"/><path class="cls-3" d="M132,156.5c0,3-4.19,5.5-9.36,5.5s-9.36-2.46-9.36-5.5" transform="translate(0 -5.51)"/><path class="cls-3" d="M150.71,156.5c0,3-4.19,5.5-9.36,5.5s-9.36-2.46-9.36-5.5" transform="translate(0 -5.51)"/><path class="cls-3" d="M169.42,156.5c0,3-4.19,5.5-9.36,5.5s-9.36-2.46-9.36-5.5" transform="translate(0 -5.51)"/><path class="cls-3" d="M188.14,156.5c0,3-4.19,5.5-9.36,5.5s-9.36-2.46-9.36-5.5" transform="translate(0 -5.51)"/><path class="cls-3" d="M206.85,156.5c0,3-4.19,5.5-9.36,5.5s-9.36-2.46-9.36-5.5" transform="translate(0 -5.51)"/><path class="cls-3" d="M225.56,156.5c0,3-4.19,5.5-9.36,5.5s-9.36-2.46-9.36-5.5" transform="translate(0 -5.51)"/><path class="cls-3" d="M244.28,156.5c0,3-4.19,5.5-9.36,5.5s-9.36-2.46-9.36-5.5" transform="translate(0 -5.51)"/><path class="cls-3" d="M263,156.5c0,3-4.19,5.5-9.36,5.5s-9.36-2.46-9.36-5.5" transform="translate(0 -5.51)"/><path class="cls-3" d="M19.71,171.5c0,3-4.19,5.5-9.36,5.5S1,174.54,1,171.5" transform="translate(0 -5.51)"/><path class="cls-3" d="M38.42,171.5c0,3-4.19,5.5-9.36,5.5s-9.36-2.46-9.36-5.5" transform="translate(0 -5.51)"/><path class="cls-3" d="M57.14,171.5c0,3-4.19,5.5-9.36,5.5s-9.36-2.46-9.36-5.5" transform="translate(0 -5.51)"/><path class="cls-3" d="M75.85,171.5c0,3-4.19,5.5-9.36,5.5s-9.36-2.46-9.36-5.5" transform="translate(0 -5.51)"/><path class="cls-3" d="M94.56,171.5c0,3-4.19,5.5-9.36,5.5s-9.36-2.46-9.36-5.5" transform="translate(0 -5.51)"/><path class="cls-3" d="M113.28,171.5c0,3-4.19,5.5-9.36,5.5s-9.36-2.46-9.36-5.5" transform="translate(0 -5.51)"/><path class="cls-3" d="M132,171.5c0,3-4.19,5.5-9.36,5.5s-9.36-2.46-9.36-5.5" transform="translate(0 -5.51)"/><path class="cls-3" d="M150.71,171.5c0,3-4.19,5.5-9.36,5.5s-9.36-2.46-9.36-5.5" transform="translate(0 -5.51)"/><path class="cls-3" d="M169.42,171.5c0,3-4.19,5.5-9.36,5.5s-9.36-2.46-9.36-5.5" transform="translate(0 -5.51)"/><path class="cls-3" d="M188.14,171.5c0,3-4.19,5.5-9.36,5.5s-9.36-2.46-9.36-5.5" transform="translate(0 -5.51)"/><path class="cls-3" d="M206.85,171.5c0,3-4.19,5.5-9.36,5.5s-9.36-2.46-9.36-5.5" transform="translate(0 -5.51)"/><path class="cls-3" d="M225.56,171.5c0,3-4.19,5.5-9.36,5.5s-9.36-2.46-9.36-5.5" transform="translate(0 -5.51)"/><path class="cls-3" d="M244.28,171.5c0,3-4.19,5.5-9.36,5.5s-9.36-2.46-9.36-5.5" transform="translate(0 -5.51)"/><path class="cls-3" d="M263,171.5c0,3-4.19,5.5-9.36,5.5s-9.36-2.46-9.36-5.5" transform="translate(0 -5.51)"/><path class="cls-3" d="M19.71,186.5c0,3-4.19,5.5-9.36,5.5S1,189.54,1,186.5" transform="translate(0 -5.51)"/><path class="cls-3" d="M38.42,186.5c0,3-4.19,5.5-9.36,5.5s-9.36-2.46-9.36-5.5" transform="translate(0 -5.51)"/><path class="cls-3" d="M57.14,186.5c0,3-4.19,5.5-9.36,5.5s-9.36-2.46-9.36-5.5" transform="translate(0 -5.51)"/><path class="cls-3" d="M75.85,186.5c0,3-4.19,5.5-9.36,5.5s-9.36-2.46-9.36-5.5" transform="translate(0 -5.51)"/><path class="cls-3" d="M94.56,186.5c0,3-4.19,5.5-9.36,5.5s-9.36-2.46-9.36-5.5" transform="translate(0 -5.51)"/><path class="cls-3" d="M113.28,186.5c0,3-4.19,5.5-9.36,5.5s-9.36-2.46-9.36-5.5" transform="translate(0 -5.51)"/><path class="cls-3" d="M132,186.5c0,3-4.19,5.5-9.36,5.5s-9.36-2.46-9.36-5.5" transform="translate(0 -5.51)"/><path class="cls-3" d="M150.71,186.5c0,3-4.19,5.5-9.36,5.5s-9.36-2.46-9.36-5.5" transform="translate(0 -5.51)"/><path class="cls-3" d="M169.42,186.5c0,3-4.19,5.5-9.36,5.5s-9.36-2.46-9.36-5.5" transform="translate(0 -5.51)"/><path class="cls-3" d="M188.14,186.5c0,3-4.19,5.5-9.36,5.5s-9.36-2.46-9.36-5.5" transform="translate(0 -5.51)"/><path class="cls-3" d="M206.85,186.5c0,3-4.19,5.5-9.36,5.5s-9.36-2.46-9.36-5.5" transform="translate(0 -5.51)"/><path class="cls-3" d="M225.56,186.5c0,3-4.19,5.5-9.36,5.5s-9.36-2.46-9.36-5.5" transform="translate(0 -5.51)"/><path class="cls-3" d="M244.28,186.5c0,3-4.19,5.5-9.36,5.5s-9.36-2.46-9.36-5.5" transform="translate(0 -5.51)"/><path class="cls-3" d="M263,186.5c0,3-4.19,5.5-9.36,5.5s-9.36-2.46-9.36-5.5" transform="translate(0 -5.51)"/><path class="cls-3" d="M19.71,201.5c0,3-4.19,5.5-9.36,5.5S1,204.54,1,201.5" transform="translate(0 -5.51)"/><path class="cls-3" d="M38.42,201.5c0,3-4.19,5.5-9.36,5.5s-9.36-2.46-9.36-5.5" transform="translate(0 -5.51)"/><path class="cls-3" d="M57.14,201.5c0,3-4.19,5.5-9.36,5.5s-9.36-2.46-9.36-5.5" transform="translate(0 -5.51)"/><path class="cls-3" d="M75.85,201.5c0,3-4.19,5.5-9.36,5.5s-9.36-2.46-9.36-5.5" transform="translate(0 -5.51)"/><path class="cls-3" d="M94.56,201.5c0,3-4.19,5.5-9.36,5.5s-9.36-2.46-9.36-5.5" transform="translate(0 -5.51)"/><path class="cls-3" d="M113.28,201.5c0,3-4.19,5.5-9.36,5.5s-9.36-2.46-9.36-5.5" transform="translate(0 -5.51)"/><path class="cls-3" d="M132,201.5c0,3-4.19,5.5-9.36,5.5s-9.36-2.46-9.36-5.5" transform="translate(0 -5.51)"/><path class="cls-3" d="M150.71,201.5c0,3-4.19,5.5-9.36,5.5s-9.36-2.46-9.36-5.5" transform="translate(0 -5.51)"/><path class="cls-3" d="M169.42,201.5c0,3-4.19,5.5-9.36,5.5s-9.36-2.46-9.36-5.5" transform="translate(0 -5.51)"/><path class="cls-3" d="M188.14,201.5c0,3-4.19,5.5-9.36,5.5s-9.36-2.46-9.36-5.5" transform="translate(0 -5.51)"/><path class="cls-3" d="M206.85,201.5c0,3-4.19,5.5-9.36,5.5s-9.36-2.46-9.36-5.5" transform="translate(0 -5.51)"/><path class="cls-3" d="M216.21,207c-5.17,0-9.36-2.46-9.36-5.5" transform="translate(0 -5.51)"/><path class="cls-3" d="M244.28,201.5c0,3-4.19,5.5-9.36,5.5" transform="translate(0 -5.51)"/><path class="cls-3" d="M263,201.5c0,3-4.19,5.5-9.36,5.5s-9.36-2.46-9.36-5.5" transform="translate(0 -5.51)"/><path class="cls-3" d="M19.71,216.5c0,3-4.19,5.5-9.36,5.5S1,219.54,1,216.5" transform="translate(0 -5.51)"/><path class="cls-3" d="M38.42,216.5c0,3-4.19,5.5-9.36,5.5s-9.36-2.46-9.36-5.5" transform="translate(0 -5.51)"/><path class="cls-3" d="M57.14,216.5c0,3-4.19,5.5-9.36,5.5s-9.36-2.46-9.36-5.5" transform="translate(0 -5.51)"/><path class="cls-3" d="M75.85,216.5c0,3-4.19,5.5-9.36,5.5s-9.36-2.46-9.36-5.5" transform="translate(0 -5.51)"/><path class="cls-3" d="M94.56,216.5c0,3-4.19,5.5-9.36,5.5s-9.36-2.46-9.36-5.5" transform="translate(0 -5.51)"/><path class="cls-3" d="M113.28,216.5c0,3-4.19,5.5-9.36,5.5s-9.36-2.46-9.36-5.5" transform="translate(0 -5.51)"/><path class="cls-3" d="M132,216.5c0,3-4.19,5.5-9.36,5.5s-9.36-2.46-9.36-5.5" transform="translate(0 -5.51)"/><path class="cls-3" d="M150.71,216.5c0,3-4.19,5.5-9.36,5.5s-9.36-2.46-9.36-5.5" transform="translate(0 -5.51)"/><path class="cls-3" d="M169.42,216.5c0,3-4.19,5.5-9.36,5.5s-9.36-2.46-9.36-5.5" transform="translate(0 -5.51)"/><path class="cls-3" d="M188.14,216.5c0,3-4.19,5.5-9.36,5.5s-9.36-2.46-9.36-5.5" transform="translate(0 -5.51)"/><path class="cls-3" d="M206.85,216.5c0,3-4.19,5.5-9.36,5.5s-9.36-2.46-9.36-5.5" transform="translate(0 -5.51)"/><path class="cls-3" d="M225.56,216.5c0,3-4.19,5.5-9.36,5.5s-9.36-2.46-9.36-5.5" transform="translate(0 -5.51)"/><path class="cls-3" d="M244.28,216.5c0,3-4.19,5.5-9.36,5.5s-9.36-2.46-9.36-5.5" transform="translate(0 -5.51)"/><path class="cls-3" d="M263,216.5c0,3-4.19,5.5-9.36,5.5s-9.36-2.46-9.36-5.5" transform="translate(0 -5.51)"/><path class="cls-3" d="M19.71,231.5c0,3-4.19,5.5-9.36,5.5S1,234.54,1,231.5" transform="translate(0 -5.51)"/><path class="cls-3" d="M38.42,231.5c0,3-4.19,5.5-9.36,5.5s-9.36-2.46-9.36-5.5" transform="translate(0 -5.51)"/><path class="cls-3" d="M57.14,231.5c0,3-4.19,5.5-9.36,5.5s-9.36-2.46-9.36-5.5" transform="translate(0 -5.51)"/><path class="cls-3" d="M75.85,231.5c0,3-4.19,5.5-9.36,5.5s-9.36-2.46-9.36-5.5" transform="translate(0 -5.51)"/><path class="cls-3" d="M94.56,231.5c0,3-4.19,5.5-9.36,5.5s-9.36-2.46-9.36-5.5" transform="translate(0 -5.51)"/><path class="cls-3" d="M113.28,231.5c0,3-4.19,5.5-9.36,5.5s-9.36-2.46-9.36-5.5" transform="translate(0 -5.51)"/><path class="cls-3" d="M132,231.5c0,3-4.19,5.5-9.36,5.5s-9.36-2.46-9.36-5.5" transform="translate(0 -5.51)"/><path class="cls-3" d="M150.71,231.5c0,3-4.19,5.5-9.36,5.5s-9.36-2.46-9.36-5.5" transform="translate(0 -5.51)"/><path class="cls-3" d="M169.42,231.5c0,3-4.19,5.5-9.36,5.5s-9.36-2.46-9.36-5.5" transform="translate(0 -5.51)"/><path class="cls-3" d="M188.14,231.5c0,3-4.19,5.5-9.36,5.5s-9.36-2.46-9.36-5.5" transform="translate(0 -5.51)"/><path class="cls-3" d="M206.85,231.5c0,3-4.19,5.5-9.36,5.5s-9.36-2.46-9.36-5.5" transform="translate(0 -5.51)"/><path class="cls-3" d="M225.56,231.5c0,3-4.19,5.5-9.36,5.5s-9.36-2.46-9.36-5.5" transform="translate(0 -5.51)"/><path class="cls-3" d="M244.28,231.5c0,3-4.19,5.5-9.36,5.5s-9.36-2.46-9.36-5.5" transform="translate(0 -5.51)"/><path class="cls-3" d="M263,231.5c0,3-4.19,5.5-9.36,5.5s-9.36-2.46-9.36-5.5" transform="translate(0 -5.51)"/><line class="cls-4" x1="223.63" y1="199.75" x2="221.96" y2="211.21"/><path class="cls-4" d="M228.17,201.62v-1.1a.53.53,0,0,0-.53-.53h-2.29a.53.53,0,0,0-.53.53v1.1" transform="translate(0 -5.51)"/><line class="cls-4" x1="231.04" y1="211.21" x2="229.37" y2="199.75"/><line class="cls-4" x1="222.44" y1="207.63" x2="230.8" y2="207.63"/><line class="cls-4" x1="222.44" y1="207.63" x2="231.04" y2="211.21"/><line class="cls-4" x1="221.96" y1="211.19" x2="230.57" y2="207.64"/><rect class="cls-5" x="221.01" y="211.33" width="10.99" height="3.1" rx="1.55" ry="1.55"/><rect class="cls-5" x="223.16" y="196.64" width="6.45" height="3.1" rx="1.55" ry="1.55"/><line class="cls-6" x1="223" y1="204.1" x2="229.72" y2="204.1"/><path class="cls-7" d="M238.23,129.29a4.51,4.51,0,0,0,1.77-3.63v-1.14a.39.39,0,0,0-.39-.39L193,123.9h0a8.73,8.73,0,0,0,4.2,5.57" transform="translate(0 -5.51)"/><path class="cls-8" d="M219.12,121.21h17.82a1.05,1.05,0,0,0,.91-1.58L219.5,87.85a1,1,0,0,0-1.09-.51" transform="translate(0 -5.51)"/><path class="cls-9" d="M219,87.21c-.16,0-.32.11-.4.35l-12.18,32.6c-.17.47,0,1,.39,1h12.34" transform="translate(0 -5.51)"/><path class="cls-9" d="M219.12,121.21H237.7a.7.7,0,0,0,.6-1l-18.82-32.6a.69.69,0,0,0-.58-.35" transform="translate(0 -5.51)"/><path class="cls-7" d="M56.23,55.29A4.51,4.51,0,0,0,58,51.67V50.53a.39.39,0,0,0-.39-.39L11,49.9h0a8.73,8.73,0,0,0,4.2,5.57" transform="translate(0 -5.51)"/><path class="cls-8" d="M37.12,47.21H54.94a1.05,1.05,0,0,0,.91-1.58L37.5,13.85a1,1,0,0,0-1.09-.51" transform="translate(0 -5.51)"/><path class="cls-9" d="M37,13.21c-.16,0-.32.11-.4.35L24.39,46.16c-.17.47,0,1,.39,1H37.12" transform="translate(0 -5.51)"/><path class="cls-9" d="M37.12,47.21H55.7a.7.7,0,0,0,.6-1L37.48,13.56a.69.69,0,0,0-.58-.35" transform="translate(0 -5.51)"/><line class="cls-4" x1="27.63" y1="80.75" x2="25.96" y2="92.21"/><path class="cls-4" d="M32.17,82.62v-1.1a.53.53,0,0,0-.53-.53H29.36a.53.53,0,0,0-.53.53v1.1" transform="translate(0 -5.51)"/><line class="cls-4" x1="35.04" y1="92.21" x2="33.37" y2="80.75"/><line class="cls-4" x1="26.44" y1="88.63" x2="34.8" y2="88.63"/><line class="cls-4" x1="26.44" y1="88.63" x2="35.04" y2="92.21"/><line class="cls-4" x1="25.96" y1="92.19" x2="34.57" y2="88.64"/><rect class="cls-5" x="25.01" y="92.33" width="10.99" height="3.1" rx="1.55" ry="1.55"/><rect class="cls-5" x="27.16" y="77.64" width="6.45" height="3.1" rx="1.55" ry="1.55"/><line class="cls-6" x1="27" y1="85.1" x2="33.72" y2="85.1"/><line class="cls-4" x1="152.63" y1="20.75" x2="150.96" y2="32.21"/><path class="cls-4" d="M157.17,22.62v-1.1a.53.53,0,0,0-.53-.53h-2.29a.53.53,0,0,0-.53.53v1.1" transform="translate(0 -5.51)"/><line class="cls-4" x1="160.04" y1="32.21" x2="158.37" y2="20.75"/><line class="cls-4" x1="151.44" y1="28.63" x2="159.8" y2="28.63"/><line class="cls-4" x1="151.44" y1="28.63" x2="160.04" y2="32.21"/><line class="cls-4" x1="150.96" y1="32.19" x2="159.57" y2="28.64"/><rect class="cls-5" x="150.01" y="32.33" width="10.99" height="3.1" rx="1.55" ry="1.55"/><rect class="cls-5" x="152.16" y="17.64" width="6.45" height="3.1" rx="1.55" ry="1.55"/><line class="cls-6" x1="152" y1="25.1" x2="158.72" y2="25.1"/><g class="cls-10"><path class="cls-11" d="M109.74,202A14.25,14.25,0,1,0,124,216.25,14.25,14.25,0,0,0,109.74,202Zm0,23a8.72,8.72,0,1,1,8.72-8.72A8.72,8.72,0,0,1,109.74,225Z" transform="translate(0 -5.51)"/><polygon class="cls-5" points="123.46 214.61 117.91 213.12 116.14 216.35 120.54 220.04 123.46 214.61"/><polygon class="cls-5" points="114.16 203.47 117.03 198.49 121.52 202.72 116.82 206.01 114.16 203.47"/><polygon class="cls-5" points="101.81 207.66 96.42 205.69 99.8 200.53 103.86 204.59 101.81 207.66"/><polygon class="cls-5" points="104.71 217.6 101.42 222.31 97.31 217.71 102.28 214.84 104.71 217.6"/></g><g class="cls-12"><path class="cls-11" d="M218.74,21A14.25,14.25,0,1,0,233,35.25,14.25,14.25,0,0,0,218.74,21Zm0,23a8.72,8.72,0,1,1,8.72-8.72A8.72,8.72,0,0,1,218.74,44Z" transform="translate(0 -5.51)"/><polygon class="cls-5" points="232.46 33.61 226.91 32.12 225.14 35.35 229.54 39.04 232.46 33.61"/><polygon class="cls-5" points="223.16 22.47 226.03 17.49 230.52 21.72 225.82 25.02 223.16 22.47"/><polygon class="cls-5" points="210.81 26.66 205.41 24.69 208.8 19.54 212.86 23.59 210.81 26.66"/><polygon class="cls-5" points="213.71 36.6 210.42 41.31 206.31 36.71 211.28 33.84 213.71 36.6"/></g><path class="cls-7" d="M66.23,189.29A4.51,4.51,0,0,0,68,185.67v-1.14a.39.39,0,0,0-.39-.39L21,183.9h0a8.73,8.73,0,0,0,4.2,5.57" transform="translate(0 -5.51)"/><path class="cls-9" d="M47.12,181.21H64.94a1.05,1.05,0,0,0,.91-1.58L47.5,147.85a1,1,0,0,0-1.09-.51" transform="translate(0 -5.51)"/><path class="cls-9" d="M47,147.21c-.16,0-.32.11-.4.35l-12.18,32.6c-.17.47,0,1,.39,1H47.12" transform="translate(0 -5.51)"/><path class="cls-9" d="M47.12,181.21H65.7a.7.7,0,0,0,.6-1l-18.82-32.6a.69.69,0,0,0-.58-.35" transform="translate(0 -5.51)"/><g class="cls-13"><rect class="cls-14" x="51.38" y="44.1" width="176.93" height="28.31"/><rect class="cls-14" x="51.38" y="157.34" width="176.93" height="28.31"/><rect class="cls-15" x="51.38" y="72.41" width="176.93" height="84.93"/></g></g></g></g></svg>