<svg xmlns="http://www.w3.org/2000/svg" xmlns:xlink="http://www.w3.org/1999/xlink" viewBox="0 0 259.88 246.31"><defs><style>.cls-1,.cls-4,.cls-6{fill:none;}.cls-2{clip-path:url(#clip-path);}.cls-10,.cls-3,.cls-7{fill:#fff;}.cls-10,.cls-3,.cls-4,.cls-5,.cls-6,.cls-7,.cls-8{stroke:#ccc;}.cls-10,.cls-3,.cls-4,.cls-5,.cls-6{stroke-miterlimit:10;}.cls-3{stroke-width:2.04px;}.cls-5{fill:#ccc;}.cls-6{stroke-linecap:round;}.cls-7,.cls-8{stroke-linejoin:round;stroke-width:2px;}.cls-8{fill:#f7df75;}.cls-9{clip-path:url(#clip-path-2);}.cls-11{fill:#fcc062;}.cls-12{fill:#cee4f5;}.cls-13{fill:#722c36;}.cls-14{clip-path:url(#clip-path-3);}</style><clipPath id="clip-path"><rect class="cls-1" x="10.31" y="6.79" width="240" height="240" transform="translate(3.51 257.1) rotate(-90)"/></clipPath><clipPath id="clip-path-2"><polyline class="cls-1" points="61.31 229.79 58.31 223.79 45.31 220.79 43.31 227.79 38.31 231.79 31.81 200.29 66.81 194.29 69.31 229.79 65.58 227.76"/></clipPath><clipPath id="clip-path-3"><polyline class="cls-1" points="233.31 50.79 230.31 44.79 217.31 41.79 215.31 48.79 210.31 52.79 203.81 21.29 238.81 15.29 241.31 50.79 237.58 48.76"/></clipPath></defs><title>InsuranceIllustration</title><g id="Layer_2" data-name="Layer 2"><g id="Services_Icon" data-name="Services Icon"><g class="cls-2"><path class="cls-3" d="M187.64,87.63a7.13,7.13,0,0,1,14.25-.13"/><path class="cls-3" d="M187.64,87.63a7.13,7.13,0,0,1-14.25.13"/><path class="cls-3" d="M159.15,87.9a7.13,7.13,0,0,1,14.25-.13"/><path class="cls-3" d="M159.15,87.9A7.13,7.13,0,0,1,144.9,88"/><path class="cls-3" d="M130.66,88.16A7.13,7.13,0,0,1,144.9,88"/><path class="cls-3" d="M130.66,88.16a7.13,7.13,0,0,1-14.25.13"/><path class="cls-3" d="M102.17,88.43a7.13,7.13,0,0,1,14.25-.13"/><path class="cls-3" d="M102.17,88.43a7.13,7.13,0,0,1-14.25.13"/><path class="cls-3" d="M244.62,87.1A7.13,7.13,0,0,1,258.86,87"/><path class="cls-3" d="M244.62,87.1a7.13,7.13,0,0,1-14.25.13"/><path class="cls-3" d="M216.13,87.37a7.13,7.13,0,0,1,14.25-.13"/><path class="cls-3" d="M216.13,87.37a7.13,7.13,0,0,1-14.25.13"/><path class="cls-3" d="M73.21,88.7a7.13,7.13,0,0,1,14.25-.13"/><path class="cls-3" d="M73.21,88.7A7.13,7.13,0,0,1,59,88.83"/><path class="cls-3" d="M44.72,89A7.13,7.13,0,0,1,59,88.83"/><path class="cls-3" d="M44.72,89a7.13,7.13,0,0,1-14.25.13"/><path class="cls-3" d="M16.23,89.23a7,7,0,0,1,7.06-6.94,7,7,0,0,1,7.19,6.81"/><path class="cls-3" d="M16.23,89.23a7,7,0,0,1-7.06,6.94A7,7,0,0,1,2,89.36"/><path class="cls-3" d="M187.51,74a7.13,7.13,0,0,1,14.25-.13"/><path class="cls-3" d="M187.51,74a7.13,7.13,0,0,1-14.25.13"/><path class="cls-3" d="M159,74.22a7.13,7.13,0,0,1,14.25-.13"/><path class="cls-3" d="M159,74.22a7.13,7.13,0,0,1-14.25.13"/><path class="cls-3" d="M130.53,74.49a7.13,7.13,0,0,1,14.25-.13"/><path class="cls-3" d="M130.53,74.49a7.13,7.13,0,0,1-14.25.13"/><path class="cls-3" d="M102,74.75a7.13,7.13,0,0,1,14.25-.13"/><path class="cls-3" d="M102,74.75a7.13,7.13,0,0,1-14.25.13"/><path class="cls-3" d="M244.49,73.43a7.13,7.13,0,0,1,14.25-.13"/><path class="cls-3" d="M244.49,73.43a7.13,7.13,0,0,1-14.25.13"/><path class="cls-3" d="M216,73.69a7.13,7.13,0,0,1,14.25-.13"/><path class="cls-3" d="M216,73.69a7.13,7.13,0,0,1-14.25.13"/><path class="cls-3" d="M73.08,75a7.13,7.13,0,0,1,14.25-.13"/><path class="cls-3" d="M73.08,75a7.13,7.13,0,0,1-14.25.13"/><path class="cls-3" d="M44.59,75.29a7.13,7.13,0,0,1,14.25-.13"/><path class="cls-3" d="M44.59,75.29a7.13,7.13,0,0,1-14.25.13"/><path class="cls-3" d="M16.1,75.55a7,7,0,0,1,7.06-6.94,7,7,0,0,1,7.19,6.81"/><path class="cls-3" d="M16.1,75.55A7,7,0,0,1,9,82.49a7,7,0,0,1-7.19-6.81"/><path class="cls-3" d="M187.38,60.28a7.13,7.13,0,0,1,14.25-.13"/><path class="cls-3" d="M187.38,60.28a7.13,7.13,0,0,1-14.25.13"/><path class="cls-3" d="M158.89,60.55a7.13,7.13,0,0,1,14.25-.13"/><path class="cls-3" d="M158.89,60.55a7.13,7.13,0,0,1-14.25.13"/><path class="cls-3" d="M130.4,60.81a7.13,7.13,0,0,1,14.25-.13"/><path class="cls-3" d="M130.4,60.81a7.13,7.13,0,0,1-14.25.13"/><path class="cls-3" d="M101.91,61.08a7.13,7.13,0,0,1,14.25-.13"/><path class="cls-3" d="M101.91,61.08a7.13,7.13,0,0,1-14.25.13"/><path class="cls-3" d="M244.36,59.75a7.13,7.13,0,0,1,14.25-.13"/><path class="cls-3" d="M244.36,59.75a7.13,7.13,0,0,1-14.25.13"/><path class="cls-3" d="M215.87,60a7.13,7.13,0,0,1,14.25-.13"/><path class="cls-3" d="M215.87,60a7.13,7.13,0,0,1-14.25.13"/><path class="cls-3" d="M73,61.35a7.13,7.13,0,0,1,14.25-.13"/><path class="cls-3" d="M73,61.35a7.13,7.13,0,0,1-14.25.13"/><path class="cls-3" d="M44.46,61.61a7.13,7.13,0,0,1,14.25-.13"/><path class="cls-3" d="M44.46,61.61a7.13,7.13,0,0,1-14.25.13"/><path class="cls-3" d="M16,61.88A7,7,0,0,1,23,54.94a7,7,0,0,1,7.19,6.81"/><path class="cls-3" d="M16,61.88a7,7,0,0,1-7.06,6.94A7,7,0,0,1,1.73,62"/><path class="cls-3" d="M187.26,46.61a7.13,7.13,0,0,1,14.25-.13"/><path class="cls-3" d="M187.26,46.61a7.13,7.13,0,0,1-14.25.13"/><path class="cls-3" d="M158.77,46.88A7.13,7.13,0,0,1,173,46.74"/><path class="cls-3" d="M158.77,46.88a7.13,7.13,0,0,1-14.25.13"/><path class="cls-3" d="M130.28,47.14A7.13,7.13,0,0,1,144.52,47"/><path class="cls-3" d="M130.28,47.14a7.13,7.13,0,0,1-14.25.13"/><path class="cls-3" d="M101.79,47.4A7.13,7.13,0,0,1,116,47.27"/><path class="cls-3" d="M101.79,47.4a7.13,7.13,0,0,1-14.25.13"/><path class="cls-3" d="M244.24,46.08a7.13,7.13,0,0,1,14.25-.13"/><path class="cls-3" d="M244.24,46.08a7.13,7.13,0,0,1-14.25.13"/><path class="cls-3" d="M215.75,46.35A7.13,7.13,0,0,1,230,46.21"/><path class="cls-3" d="M215.75,46.35a7.13,7.13,0,0,1-14.25.13"/><path class="cls-3" d="M72.82,47.67a7.13,7.13,0,0,1,14.25-.13"/><path class="cls-3" d="M72.82,47.67a7.13,7.13,0,0,1-14.25.13"/><path class="cls-3" d="M44.33,47.94a7.13,7.13,0,0,1,14.25-.13"/><path class="cls-3" d="M44.33,47.94a7.13,7.13,0,0,1-14.25.13"/><path class="cls-3" d="M15.84,48.2a7,7,0,0,1,7.06-6.94,7,7,0,0,1,7.19,6.81"/><path class="cls-3" d="M15.84,48.2a7,7,0,0,1-7.06,6.94A7,7,0,0,1,1.6,48.34"/><path class="cls-3" d="M187.13,32.94a7.13,7.13,0,0,1,14.25-.13"/><path class="cls-3" d="M187.13,32.94a7.13,7.13,0,0,1-14.25.13"/><path class="cls-3" d="M158.64,33.2a7.13,7.13,0,0,1,14.25-.13"/><path class="cls-3" d="M158.64,33.2a7.13,7.13,0,0,1-14.25.13"/><path class="cls-3" d="M130.15,33.47a7.13,7.13,0,0,1,14.25-.13"/><path class="cls-3" d="M130.15,33.47a7.13,7.13,0,0,1-14.25.13"/><path class="cls-3" d="M101.66,33.73a7.13,7.13,0,0,1,14.25-.13"/><path class="cls-3" d="M101.66,33.73a7.13,7.13,0,0,1-14.25.13"/><path class="cls-3" d="M244.11,32.41a7.13,7.13,0,0,1,14.25-.13"/><path class="cls-3" d="M244.11,32.41a7.13,7.13,0,0,1-14.25.13"/><path class="cls-3" d="M215.62,32.67a7.13,7.13,0,0,1,14.25-.13"/><path class="cls-3" d="M215.62,32.67a7.13,7.13,0,0,1-14.25.13"/><path class="cls-3" d="M72.7,34a7.13,7.13,0,0,1,14.25-.13"/><path class="cls-3" d="M72.7,34a7.13,7.13,0,0,1-14.25.13"/><path class="cls-3" d="M44.21,34.26a7.13,7.13,0,0,1,14.25-.13"/><path class="cls-3" d="M44.21,34.26A7.13,7.13,0,0,1,30,34.4"/><path class="cls-3" d="M15.72,34.53a7,7,0,0,1,7.06-6.94A7,7,0,0,1,30,34.4"/><path class="cls-3" d="M15.72,34.53a7,7,0,0,1-7.06,6.94,7,7,0,0,1-7.19-6.81"/><path class="cls-3" d="M187,19.26a7.13,7.13,0,0,1,14.25-.13"/><path class="cls-3" d="M187,19.26a7.13,7.13,0,0,1-14.25.13"/><path class="cls-3" d="M158.51,19.53a7.13,7.13,0,0,1,14.25-.13"/><path class="cls-3" d="M158.51,19.53a7.13,7.13,0,0,1-14.25.13"/><path class="cls-3" d="M130,19.79a7.13,7.13,0,0,1,14.25-.13"/><path class="cls-3" d="M130,19.79a7.13,7.13,0,0,1-14.25.13"/><path class="cls-3" d="M101.53,20.06a7.13,7.13,0,0,1,14.25-.13"/><path class="cls-3" d="M101.53,20.06a7.13,7.13,0,0,1-14.25.13"/><path class="cls-3" d="M244,18.73a7.13,7.13,0,0,1,14.25-.13"/><path class="cls-3" d="M244,18.73a7.13,7.13,0,0,1-14.25.13"/><path class="cls-3" d="M215.49,19a7.13,7.13,0,0,1,14.25-.13"/><path class="cls-3" d="M215.49,19a7.13,7.13,0,0,1-14.25.13"/><path class="cls-3" d="M72.57,20.33a7.13,7.13,0,0,1,14.25-.13"/><path class="cls-3" d="M72.57,20.33a7.13,7.13,0,0,1-14.25.13"/><path class="cls-3" d="M44.08,20.59a7.13,7.13,0,0,1,14.25-.13"/><path class="cls-3" d="M44.08,20.59a7.13,7.13,0,0,1-14.25.13"/><path class="cls-3" d="M15.59,20.86a7,7,0,0,1,7.06-6.94,7,7,0,0,1,7.19,6.81"/><path class="cls-3" d="M15.59,20.86A7,7,0,0,1,8.53,27.8,7,7,0,0,1,1.34,21"/><path class="cls-3" d="M187.6,196.81a7.13,7.13,0,0,1,14.25-.13"/><path class="cls-3" d="M187.6,196.81a7.13,7.13,0,0,1-14.25.13"/><path class="cls-3" d="M159.11,197.07a7.13,7.13,0,0,1,14.25-.13"/><path class="cls-3" d="M159.11,197.07a7.13,7.13,0,0,1-14.25.13"/><path class="cls-3" d="M130.62,197.34a7.13,7.13,0,0,1,14.25-.13"/><path class="cls-3" d="M130.62,197.34a7.13,7.13,0,0,1-14.25.13"/><path class="cls-3" d="M102.13,197.6a7.13,7.13,0,0,1,14.25-.13"/><path class="cls-3" d="M102.13,197.6a7.13,7.13,0,0,1-14.25.13"/><path class="cls-3" d="M244.58,196.28a7.13,7.13,0,0,1,14.25-.13"/><path class="cls-3" d="M244.58,196.28a7.13,7.13,0,0,1-14.25.13"/><path class="cls-3" d="M216.09,196.55a7.13,7.13,0,0,1,14.25-.13"/><path class="cls-3" d="M216.09,196.55a7.13,7.13,0,0,1-14.25.13"/><path class="cls-3" d="M73.17,197.87a7.13,7.13,0,0,1,14.25-.13"/><path class="cls-3" d="M73.17,197.87a7.13,7.13,0,0,1-14.25.13"/><path class="cls-3" d="M44.68,198.14A7.13,7.13,0,0,1,58.92,198"/><path class="cls-3" d="M44.68,198.14a7.13,7.13,0,0,1-14.25.13"/><path class="cls-3" d="M16.19,198.4a7,7,0,0,1,7.06-6.94,7,7,0,0,1,7.19,6.81"/><path class="cls-3" d="M16.19,198.4a7,7,0,0,1-7.06,6.94,7,7,0,0,1-7.19-6.81"/><path class="cls-3" d="M187.47,183.14a7.13,7.13,0,0,1,14.25-.13"/><path class="cls-3" d="M187.47,183.14a7.13,7.13,0,0,1-14.25.13"/><path class="cls-3" d="M159,183.4a7.13,7.13,0,0,1,14.25-.13"/><path class="cls-3" d="M159,183.4a7.13,7.13,0,0,1-14.25.13"/><path class="cls-3" d="M130.49,183.67a7.13,7.13,0,0,1,14.25-.13"/><path class="cls-3" d="M130.49,183.67a7.13,7.13,0,0,1-14.25.13"/><path class="cls-3" d="M102,183.93a7.13,7.13,0,0,1,14.25-.13"/><path class="cls-3" d="M102,183.93a7.13,7.13,0,0,1-14.25.13"/><path class="cls-3" d="M244.45,182.61a7.13,7.13,0,0,1,14.25-.13"/><path class="cls-3" d="M244.45,182.61a7.13,7.13,0,0,1-14.25.13"/><path class="cls-3" d="M216,182.87a7.13,7.13,0,0,1,14.25-.13"/><path class="cls-3" d="M216,182.87a7.13,7.13,0,0,1-14.25.13"/><path class="cls-3" d="M73,184.2a7.13,7.13,0,0,1,14.25-.13"/><path class="cls-3" d="M73,184.2a7.13,7.13,0,0,1-14.25.13"/><path class="cls-3" d="M44.55,184.46a7.13,7.13,0,0,1,14.25-.13"/><path class="cls-3" d="M44.55,184.46a7.13,7.13,0,0,1-14.25.13"/><path class="cls-3" d="M16.06,184.73a7,7,0,0,1,7.06-6.94,7,7,0,0,1,7.19,6.81"/><path class="cls-3" d="M16.06,184.73A7,7,0,0,1,9,191.67a7,7,0,0,1-7.19-6.81"/><path class="cls-3" d="M187.35,169.46a7.13,7.13,0,0,1,14.25-.13"/><path class="cls-3" d="M187.35,169.46a7.13,7.13,0,0,1-14.25.13"/><path class="cls-3" d="M158.86,169.73a7.13,7.13,0,0,1,14.25-.13"/><path class="cls-3" d="M158.86,169.73a7.13,7.13,0,0,1-14.25.13"/><path class="cls-3" d="M130.37,170a7.13,7.13,0,0,1,14.25-.13"/><path class="cls-3" d="M130.37,170a7.13,7.13,0,0,1-14.25.13"/><path class="cls-3" d="M101.88,170.26a7.13,7.13,0,0,1,14.25-.13"/><path class="cls-3" d="M101.88,170.26a7.13,7.13,0,0,1-14.25.13"/><path class="cls-3" d="M244.33,168.93a7.13,7.13,0,0,1,14.25-.13"/><path class="cls-3" d="M244.33,168.93a7.13,7.13,0,0,1-14.25.13"/><path class="cls-3" d="M215.84,169.2a7.13,7.13,0,0,1,14.25-.13"/><path class="cls-3" d="M215.84,169.2a7.13,7.13,0,0,1-14.25.13"/><path class="cls-3" d="M72.91,170.53a7.13,7.13,0,0,1,14.25-.13"/><path class="cls-3" d="M72.91,170.53a7.13,7.13,0,0,1-14.25.13"/><path class="cls-3" d="M44.42,170.79a7.13,7.13,0,0,1,14.25-.13"/><path class="cls-3" d="M44.42,170.79a7.13,7.13,0,0,1-14.25.13"/><path class="cls-3" d="M15.93,171.06A7,7,0,0,1,23,164.11a7,7,0,0,1,7.19,6.81"/><path class="cls-3" d="M15.93,171.06A7,7,0,0,1,8.88,178a7,7,0,0,1-7.19-6.81"/><path class="cls-3" d="M187.22,155.79a7.13,7.13,0,0,1,14.25-.13"/><path class="cls-3" d="M187.22,155.79a7.13,7.13,0,0,1-14.25.13"/><path class="cls-3" d="M158.73,156.05a7.13,7.13,0,0,1,14.25-.13"/><path class="cls-3" d="M158.73,156.05a7.13,7.13,0,0,1-14.25.13"/><path class="cls-3" d="M130.24,156.32a7.13,7.13,0,0,1,14.25-.13"/><path class="cls-3" d="M130.24,156.32a7.13,7.13,0,0,1-14.25.13"/><path class="cls-3" d="M101.75,156.58a7.13,7.13,0,0,1,14.25-.13"/><path class="cls-3" d="M101.75,156.58a7.13,7.13,0,0,1-14.25.13"/><path class="cls-3" d="M244.2,155.26a7.13,7.13,0,0,1,14.25-.13"/><path class="cls-3" d="M244.2,155.26a7.13,7.13,0,0,1-14.25.13"/><path class="cls-3" d="M215.71,155.52a7.13,7.13,0,0,1,14.25-.13"/><path class="cls-3" d="M215.71,155.52a7.13,7.13,0,0,1-14.25.13"/><path class="cls-3" d="M72.79,156.85A7.13,7.13,0,0,1,87,156.72"/><path class="cls-3" d="M72.79,156.85a7.13,7.13,0,0,1-14.25.13"/><path class="cls-3" d="M44.3,157.12A7.13,7.13,0,0,1,58.54,157"/><path class="cls-3" d="M44.3,157.12a7.13,7.13,0,0,1-14.25.13"/><path class="cls-3" d="M15.81,157.38a7,7,0,0,1,7.06-6.94,7,7,0,0,1,7.19,6.81"/><path class="cls-3" d="M15.81,157.38a7,7,0,0,1-7.06,6.94,7,7,0,0,1-7.19-6.81"/><path class="cls-3" d="M187.09,142.11a7.13,7.13,0,0,1,14.25-.13"/><path class="cls-3" d="M187.09,142.11a7.13,7.13,0,0,1-14.25.13"/><path class="cls-3" d="M158.6,142.38a7.13,7.13,0,0,1,14.25-.13"/><path class="cls-3" d="M158.6,142.38a7.13,7.13,0,0,1-14.25.13"/><path class="cls-3" d="M130.11,142.64a7.13,7.13,0,0,1,14.25-.13"/><path class="cls-3" d="M130.11,142.64a7.13,7.13,0,0,1-14.25.13"/><path class="cls-3" d="M101.62,142.91a7.13,7.13,0,0,1,14.25-.13"/><path class="cls-3" d="M101.62,142.91a7.13,7.13,0,0,1-14.25.13"/><path class="cls-3" d="M244.07,141.58a7.13,7.13,0,0,1,14.25-.13"/><path class="cls-3" d="M244.07,141.58a7.13,7.13,0,0,1-14.25.13"/><path class="cls-3" d="M215.58,141.85a7.13,7.13,0,0,1,14.25-.13"/><path class="cls-3" d="M215.58,141.85a7.13,7.13,0,0,1-14.25.13"/><path class="cls-3" d="M72.66,143.18A7.13,7.13,0,0,1,86.91,143"/><path class="cls-3" d="M72.66,143.18a7.13,7.13,0,0,1-14.25.13"/><path class="cls-3" d="M44.17,143.44a7.13,7.13,0,0,1,14.25-.13"/><path class="cls-3" d="M44.17,143.44a7.13,7.13,0,0,1-14.25.13"/><path class="cls-3" d="M15.68,143.71a7,7,0,0,1,7.06-6.94,7,7,0,0,1,7.19,6.81"/><path class="cls-3" d="M15.68,143.71a7,7,0,0,1-7.06,6.94,7,7,0,0,1-7.19-6.81"/><path class="cls-3" d="M187,128.44a7.13,7.13,0,0,1,14.25-.13"/><path class="cls-3" d="M187,128.44a7.13,7.13,0,0,1-14.25.13"/><path class="cls-3" d="M158.48,128.7a7.13,7.13,0,0,1,14.25-.13"/><path class="cls-3" d="M158.48,128.7a7.13,7.13,0,0,1-14.25.13"/><path class="cls-3" d="M130,129a7.13,7.13,0,0,1,14.25-.13"/><path class="cls-3" d="M130,129a7.13,7.13,0,0,1-14.25.13"/><path class="cls-3" d="M101.5,129.23a7.13,7.13,0,0,1,14.25-.13"/><path class="cls-3" d="M101.5,129.23a7.13,7.13,0,0,1-14.25.13"/><path class="cls-3" d="M243.95,127.91a7.13,7.13,0,0,1,14.25-.13"/><path class="cls-3" d="M243.95,127.91a7.13,7.13,0,0,1-14.25.13"/><path class="cls-3" d="M215.46,128.17A7.13,7.13,0,0,1,229.7,128"/><path class="cls-3" d="M215.46,128.17a7.13,7.13,0,0,1-14.25.13"/><path class="cls-3" d="M72.53,129.5a7.13,7.13,0,0,1,14.25-.13"/><path class="cls-3" d="M72.53,129.5a7.13,7.13,0,0,1-14.25.13"/><path class="cls-3" d="M44,129.77a7.13,7.13,0,0,1,14.25-.13"/><path class="cls-3" d="M44,129.77a7.13,7.13,0,0,1-14.25.13"/><path class="cls-3" d="M15.55,130a7,7,0,0,1,7.06-6.94,7,7,0,0,1,7.19,6.81"/><path class="cls-3" d="M15.55,130A7,7,0,0,1,8.49,137a7,7,0,0,1-7.19-6.81"/><path class="cls-3" d="M186.84,114.77a7.13,7.13,0,0,1,14.25-.13"/><path class="cls-3" d="M186.84,114.77a7.13,7.13,0,0,1-14.25.13"/><path class="cls-3" d="M158.35,115a7.13,7.13,0,0,1,14.25-.13"/><path class="cls-3" d="M158.35,115a7.13,7.13,0,0,1-14.25.13"/><path class="cls-3" d="M129.86,115.3a7.13,7.13,0,0,1,14.25-.13"/><path class="cls-3" d="M129.86,115.3a7.13,7.13,0,0,1-14.25.13"/><path class="cls-3" d="M101.37,115.56a7.13,7.13,0,0,1,14.25-.13"/><path class="cls-3" d="M101.37,115.56a7.13,7.13,0,0,1-14.25.13"/><path class="cls-3" d="M243.82,114.24a7.13,7.13,0,0,1,14.25-.13"/><path class="cls-3" d="M243.82,114.24a7.13,7.13,0,0,1-14.25.13"/><path class="cls-3" d="M215.33,114.5a7.13,7.13,0,0,1,14.25-.13"/><path class="cls-3" d="M215.33,114.5a7.13,7.13,0,0,1-14.25.13"/><path class="cls-3" d="M72.41,115.83a7.13,7.13,0,0,1,14.25-.13"/><path class="cls-3" d="M72.41,115.83a7.13,7.13,0,0,1-14.25.13"/><path class="cls-3" d="M43.92,116.09A7.13,7.13,0,0,1,58.16,116"/><path class="cls-3" d="M43.92,116.09a7.13,7.13,0,0,1-14.25.13"/><path class="cls-3" d="M15.43,116.36a7,7,0,0,1,7.06-6.94,7,7,0,0,1,7.19,6.81"/><path class="cls-3" d="M15.43,116.36a7,7,0,0,1-7.06,6.94,7,7,0,0,1-7.19-6.81"/><path class="cls-3" d="M186.71,101.09A7.13,7.13,0,0,1,201,101"/><path class="cls-3" d="M186.71,101.09a7.13,7.13,0,0,1-14.25.13"/><path class="cls-3" d="M158.22,101.36a7.13,7.13,0,0,1,14.25-.13"/><path class="cls-3" d="M158.22,101.36a7.13,7.13,0,0,1-14.25.13"/><path class="cls-3" d="M129.73,101.62a7.13,7.13,0,0,1,14.25-.13"/><path class="cls-3" d="M129.73,101.62a7.13,7.13,0,0,1-14.25.13"/><path class="cls-3" d="M101.24,101.89a7.13,7.13,0,0,1,14.25-.13"/><path class="cls-3" d="M101.24,101.89A7.13,7.13,0,0,1,87,102"/><path class="cls-3" d="M243.69,100.56a7.13,7.13,0,0,1,14.25-.13"/><path class="cls-3" d="M243.69,100.56a7.13,7.13,0,0,1-14.25.13"/><path class="cls-3" d="M215.2,100.83a7.13,7.13,0,0,1,14.25-.13"/><path class="cls-3" d="M215.2,100.83A7.13,7.13,0,0,1,201,101"/><path class="cls-3" d="M72.28,102.16A7.13,7.13,0,0,1,86.52,102"/><path class="cls-3" d="M72.28,102.16a7.13,7.13,0,0,1-14.25.13"/><path class="cls-3" d="M43.79,102.42A7.13,7.13,0,0,1,58,102.29"/><path class="cls-3" d="M43.79,102.42a7.13,7.13,0,0,1-14.25.13"/><path class="cls-3" d="M15.3,102.69a7,7,0,0,1,7.06-6.94,7,7,0,0,1,7.19,6.81"/><path class="cls-3" d="M15.3,102.69a7,7,0,0,1-7.06,6.94,7,7,0,0,1-7.19-6.81"/><path class="cls-3" d="M186.93,236.76a7.13,7.13,0,0,1,14.25-.13"/><path class="cls-3" d="M186.93,236.76a7.13,7.13,0,0,1-14.25.13"/><path class="cls-3" d="M158.44,237a7.13,7.13,0,0,1,14.25-.13"/><path class="cls-3" d="M158.44,237a7.13,7.13,0,0,1-14.25.13"/><path class="cls-3" d="M129.95,237.29a7.13,7.13,0,0,1,14.25-.13"/><path class="cls-3" d="M129.95,237.29a7.13,7.13,0,0,1-14.25.13"/><path class="cls-3" d="M101.46,237.55a7.13,7.13,0,0,1,14.25-.13"/><path class="cls-3" d="M101.46,237.55a7.13,7.13,0,0,1-14.25.13"/><path class="cls-3" d="M243.91,236.23a7.13,7.13,0,0,1,14.25-.13"/><path class="cls-3" d="M243.91,236.23a7.13,7.13,0,0,1-14.25.13"/><path class="cls-3" d="M215.42,236.49a7.13,7.13,0,0,1,14.25-.13"/><path class="cls-3" d="M215.42,236.49a7.13,7.13,0,0,1-14.25.13"/><path class="cls-3" d="M72.5,237.82a7.13,7.13,0,0,1,14.25-.13"/><path class="cls-3" d="M72.5,237.82a7.13,7.13,0,0,1-14.25.13"/><path class="cls-3" d="M44,238.09A7.13,7.13,0,0,1,58.25,238"/><path class="cls-3" d="M44,238.09a7.13,7.13,0,0,1-14.25.13"/><path class="cls-3" d="M15.52,238.35a7,7,0,0,1,7.06-6.94,7,7,0,0,1,7.19,6.81"/><path class="cls-3" d="M15.52,238.35a7,7,0,0,1-7.06,6.94,7,7,0,0,1-7.19-6.81"/><path class="cls-3" d="M186.8,223.08A7.13,7.13,0,0,1,201,223"/><path class="cls-3" d="M186.8,223.08a7.13,7.13,0,0,1-14.25.13"/><path class="cls-3" d="M158.31,223.35a7.13,7.13,0,0,1,14.25-.13"/><path class="cls-3" d="M158.31,223.35a7.13,7.13,0,0,1-14.25.13"/><path class="cls-3" d="M129.82,223.61a7.13,7.13,0,0,1,14.25-.13"/><path class="cls-3" d="M129.82,223.61a7.13,7.13,0,0,1-14.25.13"/><path class="cls-3" d="M101.33,223.88a7.13,7.13,0,0,1,14.25-.13"/><path class="cls-3" d="M101.33,223.88a7.13,7.13,0,0,1-14.25.13"/><path class="cls-3" d="M243.78,222.55a7.13,7.13,0,0,1,14.25-.13"/><path class="cls-3" d="M243.78,222.55a7.13,7.13,0,0,1-14.25.13"/><path class="cls-3" d="M215.29,222.82a7.13,7.13,0,0,1,14.25-.13"/><path class="cls-3" d="M215.29,222.82A7.13,7.13,0,0,1,201,223"/><path class="cls-3" d="M72.37,224.15A7.13,7.13,0,0,1,86.62,224"/><path class="cls-3" d="M72.37,224.15a7.13,7.13,0,0,1-14.25.13"/><path class="cls-3" d="M43.88,224.41a7.13,7.13,0,0,1,14.25-.13"/><path class="cls-3" d="M43.88,224.41a7.13,7.13,0,0,1-14.25.13"/><path class="cls-3" d="M15.39,224.68a7,7,0,0,1,7.06-6.94,7,7,0,0,1,7.19,6.81"/><path class="cls-3" d="M15.39,224.68a7,7,0,0,1-7.06,6.94,7,7,0,0,1-7.19-6.81"/><path class="cls-3" d="M186.68,209.41a7.13,7.13,0,0,1,14.25-.13"/><path class="cls-3" d="M186.68,209.41a7.13,7.13,0,0,1-14.25.13"/><path class="cls-3" d="M158.19,209.67a7.13,7.13,0,0,1,14.25-.13"/><path class="cls-3" d="M158.19,209.67a7.13,7.13,0,0,1-14.25.13"/><path class="cls-3" d="M129.7,209.94a7.13,7.13,0,0,1,14.25-.13"/><path class="cls-3" d="M129.7,209.94a7.13,7.13,0,0,1-14.25.13"/><path class="cls-3" d="M101.21,210.2a7.13,7.13,0,0,1,14.25-.13"/><path class="cls-3" d="M101.21,210.2a7.13,7.13,0,0,1-14.25.13"/><path class="cls-3" d="M243.66,208.88a7.13,7.13,0,0,1,14.25-.13"/><path class="cls-3" d="M243.66,208.88a7.13,7.13,0,0,1-14.25.13"/><path class="cls-3" d="M215.17,209.14a7.13,7.13,0,0,1,14.25-.13"/><path class="cls-3" d="M215.17,209.14a7.13,7.13,0,0,1-14.25.13"/><path class="cls-3" d="M72.24,210.47a7.13,7.13,0,0,1,14.25-.13"/><path class="cls-3" d="M72.24,210.47a7.13,7.13,0,0,1-14.25.13"/><path class="cls-3" d="M43.75,210.74A7.13,7.13,0,0,1,58,210.61"/><path class="cls-3" d="M43.75,210.74a7.13,7.13,0,0,1-14.25.13"/><path class="cls-3" d="M15.26,211a7,7,0,0,1,7.06-6.94,7,7,0,0,1,7.19,6.81"/><path class="cls-3" d="M15.26,211a7,7,0,0,1-7.06,6.94A7,7,0,0,1,1,211.14"/><line class="cls-4" x1="146.95" y1="214.05" x2="145.28" y2="225.51"/><path class="cls-4" d="M151.49,210.42v-1.1a.53.53,0,0,0-.53-.53h-2.29a.53.53,0,0,0-.53.53v1.1"/><line class="cls-4" x1="154.35" y1="225.51" x2="152.68" y2="214.05"/><line class="cls-4" x1="145.76" y1="221.93" x2="154.11" y2="221.93"/><line class="cls-4" x1="145.76" y1="221.93" x2="154.35" y2="225.51"/><line class="cls-4" x1="145.27" y1="225.49" x2="153.88" y2="221.95"/><rect class="cls-5" x="144.32" y="225.63" width="10.99" height="3.1" rx="1.55" ry="1.55"/><rect class="cls-5" x="146.47" y="210.94" width="6.45" height="3.1" rx="1.55" ry="1.55"/><line class="cls-6" x1="146.32" y1="218.4" x2="153.03" y2="218.4"/><path class="cls-7" d="M184.54,43.09a4.51,4.51,0,0,0,1.77-3.63V38.32a.39.39,0,0,0-.39-.39l-46.61-.23h0a8.73,8.73,0,0,0,4.2,5.57"/><path class="cls-8" d="M165.43,35h17.82a1.05,1.05,0,0,0,.91-1.58L165.82,1.64a1,1,0,0,0-1.09-.51"/><path class="cls-7" d="M165.29,1c-.16,0-.32.11-.4.35L152.7,34c-.17.47,0,1,.39,1h12.34"/><path class="cls-7" d="M165.43,35H184a.7.7,0,0,0,.6-1L165.79,1.35a.69.69,0,0,0-.58-.35"/><line class="cls-4" x1="63.95" y1="26.05" x2="62.28" y2="37.51"/><path class="cls-4" d="M68.49,22.42v-1.1a.53.53,0,0,0-.53-.53H65.67a.53.53,0,0,0-.53.53v1.1"/><line class="cls-4" x1="71.35" y1="37.51" x2="69.68" y2="26.05"/><line class="cls-4" x1="62.76" y1="33.93" x2="71.11" y2="33.93"/><line class="cls-4" x1="62.76" y1="33.93" x2="71.35" y2="37.51"/><line class="cls-4" x1="62.27" y1="37.49" x2="70.88" y2="33.95"/><rect class="cls-5" x="61.32" y="37.63" width="10.99" height="3.1" rx="1.55" ry="1.55"/><rect class="cls-5" x="63.47" y="22.94" width="6.45" height="3.1" rx="1.55" ry="1.55"/><line class="cls-6" x1="63.32" y1="30.4" x2="70.03" y2="30.4"/><g class="cls-9"><path class="cls-10" d="M53.06,202.79A14.25,14.25,0,1,0,67.31,217,14.25,14.25,0,0,0,53.06,202.79Zm0,23A8.72,8.72,0,1,1,61.78,217,8.72,8.72,0,0,1,53.06,225.76Z"/><polygon class="cls-5" points="66.77 220.91 61.23 219.43 59.46 222.66 63.85 226.35 66.77 220.91"/><polygon class="cls-5" points="57.47 209.77 60.34 204.8 64.84 209.02 60.13 212.32 57.47 209.77"/><polygon class="cls-5" points="45.13 213.96 39.73 212 43.11 206.84 47.17 210.9 45.13 213.96"/><polygon class="cls-5" points="48.03 223.91 44.73 228.61 40.62 224.01 45.6 221.14 48.03 223.91"/></g><rect class="cls-11" x="63.31" y="62.29" width="131" height="26.41"/><rect class="cls-12" x="63.31" y="88.13" width="131" height="26.41"/><rect class="cls-13" x="63.31" y="115.12" width="131" height="26.41"/><rect class="cls-12" x="63.31" y="140.96" width="131" height="26.41"/><rect class="cls-11" x="63.31" y="167.38" width="131" height="26.41"/><path class="cls-7" d="M227.54,195.09a4.51,4.51,0,0,0,1.77-3.63v-1.14a.39.39,0,0,0-.39-.39l-46.61-.23h0a8.73,8.73,0,0,0,4.2,5.57"/><path class="cls-8" d="M208.43,187h17.82a1.05,1.05,0,0,0,.91-1.58l-18.35-31.78a1,1,0,0,0-1.09-.51"/><path class="cls-7" d="M208.29,153c-.16,0-.32.11-.4.35L195.7,186c-.17.47,0,1,.39,1h12.34"/><path class="cls-7" d="M208.43,187H227a.7.7,0,0,0,.6-1l-18.82-32.6a.69.69,0,0,0-.58-.35"/><path class="cls-7" d="M60.31,140.79c2,0,10,0,11-6.33v-1.14a.39.39,0,0,0-.39-.39l-46.61-.23h0a8.73,8.73,0,0,0,4.2,5.57"/><path class="cls-8" d="M50.43,130H68.25a1.05,1.05,0,0,0,.91-1.58L50.82,96.64a1,1,0,0,0-1.09-.51"/><path class="cls-7" d="M50.29,96c-.16,0-.32.11-.4.35L37.7,129c-.17.47,0,1,.39,1H50.43"/><path class="cls-7" d="M50.43,130H69a.7.7,0,0,0,.6-1L50.79,96.35a.69.69,0,0,0-.58-.35"/></g><g class="cls-14"><path class="cls-10" d="M225.06,23.79A14.25,14.25,0,1,0,239.31,38,14.25,14.25,0,0,0,225.06,23.79Zm0,23A8.72,8.72,0,1,1,233.78,38,8.72,8.72,0,0,1,225.06,46.76Z"/><polygon class="cls-5" points="238.77 41.91 233.23 40.42 231.46 43.66 235.85 47.35 238.77 41.91"/><polygon class="cls-5" points="229.47 30.77 232.34 25.8 236.84 30.02 232.13 33.32 229.47 30.77"/><polygon class="cls-5" points="217.13 34.96 211.73 33 215.11 27.84 219.17 31.9 217.13 34.96"/><polygon class="cls-5" points="220.03 44.91 216.73 49.61 212.62 45.01 217.6 42.14 220.03 44.91"/></g><line class="cls-4" x1="215.95" y1="94.05" x2="214.28" y2="105.51"/><path class="cls-4" d="M220.49,90.42v-1.1a.53.53,0,0,0-.53-.53h-2.29a.53.53,0,0,0-.53.53v1.1"/><line class="cls-4" x1="223.35" y1="105.51" x2="221.68" y2="94.05"/><line class="cls-4" x1="214.76" y1="101.93" x2="223.11" y2="101.93"/><line class="cls-4" x1="214.76" y1="101.93" x2="223.35" y2="105.51"/><line class="cls-4" x1="214.27" y1="105.49" x2="222.88" y2="101.95"/><rect class="cls-5" x="213.32" y="105.63" width="10.99" height="3.1" rx="1.55" ry="1.55"/><rect class="cls-5" x="215.47" y="90.94" width="6.45" height="3.1" rx="1.55" ry="1.55"/><line class="cls-6" x1="215.32" y1="98.4" x2="222.03" y2="98.4"/></g></g></svg>