<svg xmlns="http://www.w3.org/2000/svg" viewBox="0 0 237 236.8"><defs><style>.cls-1{fill:#fff;}.cls-1,.cls-17,.cls-18,.cls-20,.cls-26,.cls-27,.cls-28,.cls-3,.cls-4,.cls-5{stroke:#3b312f;}.cls-1,.cls-10,.cls-11,.cls-12,.cls-13,.cls-15,.cls-16,.cls-17,.cls-18,.cls-19,.cls-2,.cls-20,.cls-21,.cls-22,.cls-23,.cls-26,.cls-28,.cls-3,.cls-4,.cls-5,.cls-6,.cls-7,.cls-8{stroke-miterlimit:10;}.cls-1,.cls-10,.cls-11,.cls-12,.cls-13,.cls-17,.cls-18,.cls-19,.cls-2,.cls-27,.cls-3,.cls-4{stroke-width:2px;}.cls-2{fill:#f7df75;stroke:#f7df75;}.cls-10,.cls-11,.cls-12,.cls-13,.cls-15,.cls-16,.cls-17,.cls-19,.cls-20,.cls-22,.cls-23,.cls-24,.cls-27,.cls-28,.cls-3,.cls-8{fill:none;}.cls-4{fill:#e6e6e6;}.cls-18,.cls-5{fill:#3b312f;}.cls-6{fill:#4d4d4d;stroke:#4d4d4d;}.cls-7{fill:#414042;}.cls-10,.cls-12,.cls-15,.cls-21,.cls-22,.cls-23,.cls-7,.cls-8{stroke:#414042;}.cls-12,.cls-17,.cls-18,.cls-19,.cls-8{stroke-linecap:round;}.cls-20,.cls-8{stroke-width:3px;}.cls-9{fill:#b9d1ef;}.cls-11{stroke:#0c0c0c;}.cls-13,.cls-16{stroke:#475979;}.cls-14{fill:#712d37;}.cls-15,.cls-16{stroke-width:1.5px;}.cls-19{stroke:#000;}.cls-21{fill:#cee4f5;}.cls-23{stroke-width:0.5px;}.cls-25{fill:#fcc062;}.cls-26{fill:#722c36;}.cls-27{stroke-linejoin:round;}</style></defs><title>Trail illustration 6</title><g id="Layer_2" data-name="Layer 2"><g id="Trail_Elements" data-name="Trail Elements"><path class="cls-1" d="M86.24,125.9a2.6,2.6,0,0,0,1-2.09v-.66a.22.22,0,0,0-.22-.22l-26.88-.14h0A5,5,0,0,0,62.58,126"/><path class="cls-2" d="M75.22,121.23H85.5a.61.61,0,0,0,.52-.91L75.44,102a.6.6,0,0,0-.63-.29"/><path class="cls-3" d="M75.14,101.63c-.09,0-.18.06-.23.2l-7,18.8c-.1.27,0,.6.22.6h7.12"/><path class="cls-4" d="M75.22,121.23H85.94a.4.4,0,0,0,.35-.6l-10.85-18.8a.4.4,0,0,0-.34-.2"/><line class="cls-3" x1="75.09" y1="102.4" x2="75.09" y2="122.81"/><circle class="cls-5" cx="104.95" cy="155.92" r="3.16" transform="translate(-51.9 52.36) rotate(-22.62)"/><rect class="cls-5" x="103.28" y="164.55" width="2.91" height="12.25" rx="0.88" ry="0.88" transform="translate(-70.23 268.09) rotate(-87.57)"/><rect class="cls-5" x="108.47" y="169.5" width="2.91" height="9.72" rx="0.88" ry="0.88" transform="translate(-3.69 2.38) rotate(-1.22)"/><rect class="cls-5" x="103.55" y="168.64" width="2.91" height="12.25" rx="0.88" ry="0.88" transform="matrix(0.39, -0.92, 0.92, 0.39, -96.96, 202.72)"/><rect class="cls-6" x="107.26" y="174.83" width="2.91" height="4.3" rx="0.88" ry="0.88" transform="translate(-3.74 2.35) rotate(-1.22)"/><rect class="cls-5" x="108.76" y="158.48" width="2.95" height="12.17" rx="1.02" ry="1.02" transform="translate(-86.45 188.08) rotate(-63)"/><rect class="cls-5" x="92.09" y="162.67" width="17.29" height="7.59" rx="2.64" ry="2.64" transform="translate(-82.28 232.53) rotate(-78.67)"/><circle class="cls-5" cx="129.87" cy="158.85" r="3.16"/><rect class="cls-5" x="129.61" y="170.94" width="12.25" height="2.91" rx="0.88" ry="0.88" transform="translate(-60.23 73.69) rotate(-25.05)"/><rect class="cls-5" x="130.47" y="173.01" width="2.91" height="7.41" rx="0.88" ry="0.88" transform="translate(-55.38 60.32) rotate(-21.4)"/><rect class="cls-7" x="131.77" y="174.46" width="11.27" height="2.91" rx="0.88" ry="0.88" transform="translate(-84.48 151.55) rotate(-45.74)"/><rect class="cls-5" x="122.22" y="167.4" width="12.17" height="2.95" rx="1.02" ry="1.02" transform="translate(-83.46 157.2) rotate(-49.62)"/><rect class="cls-5" x="134.02" y="158.31" width="7.59" height="17.29" rx="2.64" ry="2.64" transform="translate(-69.74 105.43) rotate(-33.95)"/><circle class="cls-5" cx="157.28" cy="163.43" r="2.19" transform="translate(-64.28 211.98) rotate(-58.46)"/><rect class="cls-5" x="154.83" y="169.32" width="2.02" height="8.5" rx="0.7" ry="0.7" transform="translate(-34.2 308.82) rotate(-83.52)"/><rect class="cls-5" x="147.48" y="175.36" width="8.5" height="2.02" rx="0.7" ry="0.7" transform="translate(-48.58 294.72) rotate(-79.87)"/><rect class="cls-6" x="150.97" y="175.31" width="8.5" height="2.02" rx="0.7" ry="0.7" transform="translate(-38.53 43.5) rotate(-14.21)"/><rect class="cls-6" x="150.01" y="177.19" width="4.56" height="2.02" rx="0.7" ry="0.7" transform="translate(-49.92 296.78) rotate(-79.87)"/><rect class="cls-5" x="148.51" y="167.76" width="8.44" height="2.05" rx="0.71" ry="0.71" transform="translate(-44.86 55.77) rotate(-18.09)"/><rect class="cls-5" x="156.4" y="165.1" width="5.26" height="11.99" rx="1.83" ry="1.83" transform="translate(-7.05 6.84) rotate(-2.41)"/><line class="cls-8" x1="16.87" y1="114.75" x2="47.66" y2="114.75"/><line class="cls-8" x1="50.3" y1="114.75" x2="51.62" y2="114.75"/><line class="cls-8" x1="54.25" y1="114.75" x2="57.33" y2="114.75"/><path class="cls-9" d="M147.33,75.45h-1.19A6.22,6.22,0,0,0,134,73.57a4.15,4.15,0,1,0-1.25,8.11h14.59a3,3,0,0,0,3-3V78.4A3,3,0,0,0,147.33,75.45Z"/><rect class="cls-10" x="104.62" y="111.6" width="2.37" height="15.13"/><path class="cls-9" d="M5.38,114.09s-4.84-3.52,0-9.24,11.44-.44,11.44-.44,1.32-3.52,4-4,5.72,1.32,5.72,1.32a11.7,11.7,0,0,1,11-7,12.64,12.64,0,0,1,12.76,10.12s6.16-.44,6.6,4-1.76,5.28-1.76,5.28Z"/><path class="cls-11" d="M165.12,88.14"/><line class="cls-12" x1="131.66" y1="82" x2="135.21" y2="82"/><rect class="cls-10" x="104.62" y="106.63" width="11.63" height="1.48"/><line class="cls-10" x1="110.43" y1="106.63" x2="110.43" y2="81.7"/><circle class="cls-13" cx="110.42" cy="79.96" r="0.56"/><polygon class="cls-14" points="102.69 84.53 108.91 80.94 108.91 88.12 102.69 84.53"/><polygon class="cls-10" points="140.09 115.34 140.09 111.6 137.73 111.6 137.73 115.34 137.73 117.41 137.73 126.73 140.09 126.73 140.09 117.41 140.09 115.34"/><polygon class="cls-10" points="173.2 115.34 173.2 111.6 170.84 111.6 170.84 115.34 170.84 117.41 170.84 126.73 173.2 126.73 173.2 117.41 173.2 115.34"/><polygon class="cls-10" points="206.31 115.34 206.31 111.6 203.95 111.6 203.95 115.34 203.95 117.41 203.95 126.73 206.31 126.73 206.31 117.41 206.31 115.34"/><polygon class="cls-15" points="127.44 117.41 127.44 117.27 125.96 117.27 125.96 117.41 125.96 126.73 127.44 126.73 127.44 117.41"/><polygon class="cls-15" points="148.15 117.41 148.15 117.27 146.67 117.27 146.67 117.41 146.67 126.73 148.15 126.73 148.15 117.41"/><polygon class="cls-10" points="168.86 117.41 168.86 117.27 167.38 117.27 167.38 117.41 167.38 126.73 168.86 126.73 168.86 117.41"/><polygon class="cls-15" points="189.57 117.41 189.57 117.27 188.09 117.27 188.09 117.41 188.09 126.73 189.57 126.73 189.57 117.41"/><polygon class="cls-15" points="210.28 117.41 210.28 117.27 208.8 117.27 208.8 117.41 208.8 126.73 210.28 126.73 210.28 117.41"/><line class="cls-10" x1="173.2" y1="115.34" x2="203.95" y2="115.34"/><line class="cls-10" x1="140.09" y1="115.34" x2="170.84" y2="115.34"/><polyline class="cls-15" points="137.73 117.41 127.44 117.41 125.96 117.41 124.03 117.41 124.03 115.34 137.73 115.34"/><polyline class="cls-15" points="170.84 117.41 168.86 117.41 167.38 117.41 148.15 117.41 146.67 117.41 140.09 117.41"/><polyline class="cls-15" points="203.95 117.41 189.57 117.41 188.09 117.41 173.2 117.41"/><polyline class="cls-15" points="206.31 115.34 232.22 115.34 232.22 117.41 210.28 117.41 208.8 117.41 206.31 117.41"/><polygon class="cls-15" points="132.38 114.25 132.38 115.09 125.74 115.09 125.74 114.25 129.06 114.25 132.38 114.25"/><polygon class="cls-10" points="129.06 108.53 101.55 108.53 101.55 111.83 129.06 111.83 236 111.83 236 108.53 129.06 108.53"/><line class="cls-15" x1="129.06" y1="111.83" x2="129.06" y2="114.25"/><line class="cls-15" x1="129.06" y1="100.01" x2="129.06" y2="108.53"/><circle class="cls-16" cx="129.04" cy="99.02" r="0.32"/><polygon class="cls-14" points="124.63 101.63 128.19 99.58 128.19 103.68 124.63 101.63"/><path class="cls-17" d="M148.37,169.92s-11.73-33.84-16.49-39.62"/><path class="cls-17" d="M148.19,165.9h1.07a.53.53,0,0,1,.52.43,2.17,2.17,0,0,1,0,.7.8.8,0,0,1-.65.66l-1,.19"/><line class="cls-18" x1="144.21" y1="173.81" x2="149.84" y2="174.25"/><path class="cls-19" d="M125.85,173.37"/><line class="cls-17" x1="82.4" y1="176" x2="92.8" y2="173.2"/><line class="cls-20" x1="94.87" y1="174.82" x2="102.34" y2="175.52"/><line class="cls-17" x1="111.93" y1="172.78" x2="123.3" y2="173.25"/><path class="cls-21" d="M77.91,157.54a29.44,29.44,0,0,1,4.58.49c1.5.3,2.43.7,2.43,1.17,0,.74-2.43,1.36-5.82,1.59-.95.06-1.91.09-2.86.09a36.19,36.19,0,0,1-5.37-.36c-2-.31-3.31-.79-3.31-1.32s1.08-.94,2.81-1.24a27.87,27.87,0,0,1,3-.35"/><path class="cls-22" d="M75.79,159.08a21.68,21.68,0,0,1,2.12-3.33c.29-.4.63-.84,1-1.29,5.59-6.87,19.75-19.47,50.76-24.16"/><path class="cls-22" d="M70.12,157.14c1.27-.15,2.55-.24,3.84-.29.76,0,1.54,0,2.35,0s1.76,0,2.59.06a45.25,45.25,0,0,1,4.53.4,12.42,12.42,0,0,1,4.26,1.17.9.9,0,0,1,.52.68c0,.73-1.73,1.37-4.44,1.8"/><path class="cls-22" d="M65.08,159.86c-.78-.36-.88-1-.21-1.4l.21-.11a8.67,8.67,0,0,1,2.13-.73"/><path class="cls-22" d="M78.37,161.37q-1,0-2,0a54.31,54.31,0,0,1-6-.31,28.74,28.74,0,0,1-3.14-.51"/><circle class="cls-23" cx="74.94" cy="158.53" r="0.84"/><line class="cls-23" x1="74.1" y1="158.53" x2="75.78" y2="158.53"/><rect class="cls-24" width="236.8" height="236.8"/><line class="cls-12" x1="61.93" y1="83.5" x2="61.93" y2="78.53"/><line class="cls-12" x1="40.3" y1="69.46" x2="39.07" y2="69.46"/><path class="cls-25" d="M53.19,60.1a11.16,11.16,0,0,1,8.74-4.39h.15a11.21,11.21,0,0,1,11.2,11.2,11.21,11.21,0,0,1-11.2,11.21,11.2,11.2,0,0,1-10.91-8.66,11.15,11.15,0,0,1,2-9.36Z"/><line class="cls-17" x1="82.49" y1="69.46" x2="83.52" y2="69.46"/><line class="cls-17" x1="81.63" y1="69.46" x2="82.49" y2="69.46"/><line class="cls-17" x1="78.39" y1="69.46" x2="79.34" y2="69.46"/><line class="cls-17" x1="72.99" y1="69.46" x2="78.39" y2="69.46"/><line class="cls-17" x1="75.82" y1="82.72" x2="77.43" y2="84.34"/><line class="cls-17" x1="74.32" y1="56.87" x2="77.41" y2="53.77"/><line class="cls-17" x1="73.63" y1="80.54" x2="75.82" y2="82.72"/><line class="cls-17" x1="71.41" y1="69.46" x2="72.99" y2="69.46"/><line class="cls-17" x1="71.02" y1="60.16" x2="71.94" y2="59.24"/><line class="cls-17" x1="68.9" y1="75.81" x2="71.78" y2="78.69"/><line class="cls-17" x1="68.7" y1="75.61" x2="68.9" y2="75.81"/><line class="cls-17" x1="61.93" y1="88.06" x2="61.93" y2="90.63"/><line class="cls-17" x1="61.93" y1="86.02" x2="61.93" y2="88.06"/><line class="cls-17" x1="61.93" y1="47.77" x2="61.93" y2="55.72"/><line class="cls-17" x1="55.33" y1="75.85" x2="55.58" y2="75.61"/><line class="cls-17" x1="51.33" y1="79.85" x2="55.33" y2="75.85"/><line class="cls-17" x1="49.96" y1="56.87" x2="53.19" y2="60.1"/><line class="cls-17" x1="51.18" y1="69.46" x2="52.86" y2="69.46"/><line class="cls-17" x1="43.04" y1="69.46" x2="51.18" y2="69.46"/><line class="cls-17" x1="48.3" y1="82.86" x2="49.96" y2="81.22"/><line class="cls-17" x1="46.69" y1="53.61" x2="48.58" y2="55.49"/><line class="cls-17" x1="46.8" y1="84.34" x2="48.3" y2="82.86"/><line class="cls-17" x1="46.5" y1="53.41" x2="46.69" y2="53.61"/><line class="cls-12" x1="137.15" y1="82" x2="138.12" y2="82"/><line class="cls-12" x1="140.06" y1="82" x2="142.33" y2="82"/><path class="cls-9" d="M160.59,81.59h-1.2a6.22,6.22,0,0,0-12.16-1.88,4.15,4.15,0,1,0-1.23,8.1h14.6a3,3,0,0,0,3-3v-.32A3,3,0,0,0,160.59,81.59Z"/><path class="cls-12" d="M155.74,88.14h4.53"/><line class="cls-12" x1="145.88" y1="88.14" x2="152.67" y2="88.14"/><line class="cls-12" x1="18.19" y1="127.06" x2="28.74" y2="127.06"/><line class="cls-12" x1="31.38" y1="127.06" x2="34.46" y2="127.06"/><line class="cls-12" x1="36.66" y1="127.06" x2="37.54" y2="127.06"/><line class="cls-12" x1="40.62" y1="127.06" x2="66.57" y2="127.06"/><line class="cls-12" x1="69.65" y1="127.06" x2="77.13" y2="127.06"/><line class="cls-12" x1="79.11" y1="127.06" x2="89.66" y2="127.06"/><line class="cls-12" x1="92.3" y1="127.06" x2="95.38" y2="127.06"/><line class="cls-12" x1="97.58" y1="127.06" x2="98.46" y2="127.06"/><line class="cls-12" x1="101.54" y1="127.06" x2="127.49" y2="127.06"/><line class="cls-12" x1="130.57" y1="127.06" x2="138.04" y2="127.06"/><line class="cls-12" x1="140.68" y1="127.06" x2="166.63" y2="127.06"/><line class="cls-12" x1="172.79" y1="127.06" x2="174.99" y2="127.06"/><line class="cls-12" x1="176.75" y1="127.06" x2="195.66" y2="127.06"/><line class="cls-12" x1="208.19" y1="127.06" x2="210.83" y2="127.06"/><line class="cls-12" x1="213.03" y1="127.06" x2="222.71" y2="127.06"/><line class="cls-12" x1="203.97" y1="127.06" x2="206" y2="127.06"/><line class="cls-12" x1="200.28" y1="127.06" x2="202.6" y2="127.06"/><line class="cls-17" x1="78.32" y1="184.8" x2="97.63" y2="184.8"/><line class="cls-17" x1="102.89" y1="184.8" x2="108.16" y2="184.8"/><line class="cls-17" x1="111.67" y1="184.8" x2="134.49" y2="184.8"/><line class="cls-17" x1="138.05" y1="184.8" x2="144.02" y2="184.8"/><line class="cls-17" x1="146.64" y1="184.8" x2="148.27" y2="184.8"/><line class="cls-17" x1="151.34" y1="184.8" x2="158.4" y2="184.8"/><path class="cls-26" d="M81.9,181.44a8.41,8.41,0,0,1-.58-3.08v-2a.7.7,0,0,1,.7-.7l83.52-.42h0a15.85,15.85,0,0,1-2.7,5.75"/><path class="cls-27" d="M84.48,184.86a8.07,8.07,0,0,1-3.16-6.5v-2a.7.7,0,0,1,.7-.7l83.52-.42h0a15.65,15.65,0,0,1-7.52,10"/><path class="cls-28" d="M110.67,184.73l-.23.19a3.85,3.85,0,0,0-2.89,0c-1.72.6-6.25,4.68-6.25,4.68s-1.27,1.9,0,2.9a2,2,0,0,0,2.27.36l6.47-5"/><path class="cls-18" d="M126.86,171.56l-16.19,13.17-.23.19a3.85,3.85,0,0,0-2.89,0c-1.54.54-5.33,3.86-6.11,4.56a1.24,1.24,0,0,0-.27.34,2.22,2.22,0,0,0,.13,2.69,3,3,0,0,0,1.9.29c.13,0,.36.07.47,0l6.36-4.87"/><path class="cls-17" d="M115.2,167.2l-7.73,7.13"/><line class="cls-17" x1="97.6" y1="192.91" x2="104.87" y2="192.91"/><line class="cls-17" x1="47.31" y1="136.98" x2="10.7" y2="136.98"/><line class="cls-17" x1="52.19" y1="136.98" x2="56.26" y2="136.98"/><line class="cls-12" x1="59.52" y1="136.98" x2="86.37" y2="136.98"/><line class="cls-12" x1="92.87" y1="136.98" x2="102.64" y2="136.98"/><line class="cls-12" x1="107.52" y1="136.98" x2="112.4" y2="136.98"/><line class="cls-12" x1="119.72" y1="136.98" x2="130.3" y2="136.98"/><line class="cls-12" x1="148.2" y1="136.98" x2="160.4" y2="136.98"/><line class="cls-12" x1="168.54" y1="136.98" x2="176.67" y2="136.98"/><line class="cls-17" x1="34.7" y1="148.58" x2="44.46" y2="148.58"/><line class="cls-17" x1="51.79" y1="148.58" x2="65.62" y2="148.58"/><line class="cls-12" x1="74.57" y1="148.58" x2="77.82" y2="148.58"/><line class="cls-12" x1="109.55" y1="148.58" x2="116.06" y2="148.58"/><line class="cls-12" x1="125.82" y1="148.58" x2="183.58" y2="148.58"/><line class="cls-17" x1="24.94" y1="158.35" x2="33.89" y2="158.35"/><line class="cls-17" x1="39.58" y1="158.35" x2="44.46" y2="158.35"/><line class="cls-12" x1="72.94" y1="158.35" x2="83.52" y2="158.35"/><line class="cls-12" x1="89.22" y1="158.35" x2="91.66" y2="158.35"/><line class="cls-12" x1="95.72" y1="158.35" x2="98.16" y2="158.35"/><line class="cls-12" x1="112.81" y1="158.35" x2="132.34" y2="158.35"/><line class="cls-12" x1="142.91" y1="158.35" x2="159.18" y2="158.35"/><line class="cls-12" x1="163.25" y1="158.35" x2="165.69" y2="158.35"/><line class="cls-17" x1="33.89" y1="171.79" x2="39.58" y2="171.79"/><line class="cls-17" x1="43.66" y1="171.79" x2="48.54" y2="171.79"/><line class="cls-17" x1="61.55" y1="184.8" x2="72.13" y2="184.8"/><line class="cls-18" x1="138.84" y1="171.79" x2="151.86" y2="171.79"/><line class="cls-12" x1="203.72" y1="136.89" x2="212.67" y2="136.89"/><line class="cls-12" x1="215.11" y1="136.89" x2="217.55" y2="136.89"/><line class="cls-12" x1="219.18" y1="136.89" x2="229.76" y2="136.89"/><line class="cls-12" x1="188.44" y1="158.58" x2="201.46" y2="158.58"/><line class="cls-12" x1="197.39" y1="170.79" x2="200.65" y2="170.79"/><line class="cls-12" x1="186" y1="170.79" x2="192.51" y2="170.79"/><line class="cls-17" x1="123.5" y1="194.18" x2="133.26" y2="194.18"/><line class="cls-17" x1="140.59" y1="194.18" x2="154.42" y2="194.18"/><line class="cls-17" x1="163.37" y1="194.18" x2="166.62" y2="194.18"/><line class="cls-8" x1="188.8" y1="69.95" x2="217.26" y2="69.95"/><line class="cls-8" x1="219.9" y1="69.95" x2="221.22" y2="69.95"/><line class="cls-8" x1="223.85" y1="69.95" x2="226.93" y2="69.95"/><path class="cls-9" d="M184.93,69.29s-3.9-2.71,0-7.11,9.23-.34,9.23-.34,1.06-2.71,3.19-3a8.66,8.66,0,0,1,4.61,1,9.47,9.47,0,0,1,8.87-5.41,10.07,10.07,0,0,1,10.29,7.78s5-.34,5.32,3S225,69.29,225,69.29Z"/></g></g></svg>