<svg xmlns="http://www.w3.org/2000/svg" xmlns:xlink="http://www.w3.org/1999/xlink" viewBox="0 0 238 236.8"><defs><style>.cls-1,.cls-10,.cls-13,.cls-14,.cls-15,.cls-7,.cls-8,.cls-9{fill:none;}.cls-1{stroke:#4d4d4d;}.cls-1,.cls-10,.cls-13,.cls-14,.cls-15,.cls-2,.cls-5,.cls-6,.cls-7,.cls-8{stroke-linecap:round;stroke-miterlimit:10;stroke-width:2px;}.cls-2,.cls-5{fill:#fff;}.cls-2,.cls-7{stroke:#000;}.cls-3{fill:#193057;}.cls-4{fill:#722c36;}.cls-5,.cls-6,.cls-8{stroke:#231f20;}.cls-6{fill:#e6e7e8;}.cls-10{stroke:#28160c;}.cls-11{opacity:0.74;fill:url(#New_Gradient_Swatch);}.cls-12{fill:#cee3f6;}.cls-13{stroke:#020202;}.cls-14{stroke:#0c0c0c;}.cls-15{stroke:#414042;}.cls-16{fill:#f7931e;}.cls-17{fill:#cee4f5;}</style><linearGradient id="New_Gradient_Swatch" x1="103.84" y1="137.05" x2="104.65" y2="110.45" gradientUnits="userSpaceOnUse"><stop offset="0.17" stop-color="#1b1464"/><stop offset="0.66" stop-color="#f25b45"/><stop offset="0.7" stop-color="#f46d43"/><stop offset="0.78" stop-color="#f78a3f"/><stop offset="0.85" stop-color="#f99f3d"/><stop offset="0.93" stop-color="#fbac3b"/><stop offset="1" stop-color="#fbb03b"/></linearGradient></defs><title>Trail illustration 2</title><g id="Layer_2" data-name="Layer 2"><g id="Trail_Elements" data-name="Trail Elements"><line class="cls-1" x1="2.46" y1="169.87" x2="237" y2="169.87"/><line class="cls-1" x1="1" y1="161.75" x2="235.54" y2="161.75"/><line class="cls-1" x1="19.4" y1="199.72" x2="215.4" y2="199.72"/><line class="cls-1" x1="1.29" y1="161.75" x2="1.29" y2="169.87"/><line class="cls-1" x1="19.64" y1="161.75" x2="19.64" y2="169.87"/><line class="cls-1" x1="37.99" y1="161.75" x2="37.99" y2="169.87"/><line class="cls-1" x1="56.35" y1="161.75" x2="56.35" y2="169.87"/><line class="cls-1" x1="74.7" y1="161.75" x2="74.7" y2="169.87"/><line class="cls-1" x1="93.06" y1="161.75" x2="93.06" y2="169.87"/><line class="cls-1" x1="111.41" y1="161.75" x2="111.41" y2="169.87"/><line class="cls-1" x1="129.77" y1="161.75" x2="129.77" y2="169.87"/><line class="cls-1" x1="148.12" y1="161.75" x2="148.12" y2="169.87"/><line class="cls-1" x1="166.48" y1="161.75" x2="166.48" y2="169.87"/><line class="cls-1" x1="184.83" y1="161.75" x2="184.83" y2="169.87"/><line class="cls-1" x1="203.18" y1="161.75" x2="203.18" y2="169.87"/><line class="cls-1" x1="221.54" y1="161.75" x2="221.54" y2="169.87"/><line class="cls-1" x1="1.8" y1="184.76" x2="6.32" y2="184.76"/><line class="cls-1" x1="34.21" y1="184.76" x2="43.5" y2="184.76"/><line class="cls-1" x1="76.42" y1="184.76" x2="85.72" y2="184.76"/><line class="cls-1" x1="118.64" y1="184.76" x2="127.93" y2="184.76"/><path class="cls-2" d="M144.38,179.65h-3l0-12,5.51-4.69a4.57,4.57,0,0,0,.87-1l6.06-9.34a4.51,4.51,0,0,1,3.8-2.05l13.44.05"/><path class="cls-2" d="M178.57,150.65l8.37,0a3.52,3.52,0,0,1,3.11,1.9l4.12,8,19.41,6.79a6.14,6.14,0,0,1,4.11,5.82l0,6.77-5.14,0"/><path class="cls-3" d="M158.42,143.13V140.2a2.57,2.57,0,0,1,2.57-2.55l5.85,0a2.57,2.57,0,0,1,2.55,2.57v2.92"/><path class="cls-3" d="M177.92,143.2v-2.92a2.57,2.57,0,0,1,2.57-2.55l5.85,0a2.57,2.57,0,0,1,2.55,2.57v2.92"/><path class="cls-3" d="M166.74,136.87v-2.58c0-1.24,1.53-2.25,3.39-2.24l7.73,0c1.86,0,3.38,1,3.37,2.27v2.58"/><polygon class="cls-4" points="174.88 163.47 174.81 179.35 213.39 179.51 213.42 171.34 192.12 163.54 174.88 163.47"/><polygon class="cls-4" points="172.73 163.91 172.67 179.77 144.38 179.66 144.42 169.8 150.88 163.82 172.73 163.91"/><circle class="cls-5" cx="156.39" cy="177.56" r="7.62" transform="translate(-21.8 333.23) rotate(-89.77)"/><circle class="cls-6" cx="156.39" cy="177.56" r="2.79" transform="translate(-21.8 333.23) rotate(-89.77)"/><circle class="cls-5" cx="200.54" cy="177.74" r="7.62" transform="translate(21.99 377.55) rotate(-89.77)"/><circle class="cls-6" cx="200.54" cy="177.74" r="2.79" transform="translate(21.99 377.55) rotate(-89.77)"/><path class="cls-7" d="M178.57,150.65"/><path class="cls-7" d="M176.22,150.64"/><line class="cls-7" x1="173.51" y1="150.63" x2="176.22" y2="150.64"/><path class="cls-7" d="M173.51,150.63"/><path class="cls-7" d="M171.11,150.62"/><line class="cls-8" x1="154.81" y1="145.41" x2="190.38" y2="145.55"/><path class="cls-9" d="M159.31,145.43"/><line class="cls-7" x1="159.29" y1="150.57" x2="159.31" y2="145.43"/><line class="cls-7" x1="186.07" y1="151.11" x2="186.09" y2="145.96"/><path class="cls-8" d="M156.53,142.31v-3.37a3,3,0,0,1,3-2.94l6.74,0a3,3,0,0,1,2.94,3v3.37"/><path class="cls-8" d="M176.25,142.39V139a3,3,0,0,1,3-2.94l6.74,0a3,3,0,0,1,2.94,3v3.37"/><path class="cls-8" d="M164.27,136v-3c0-1.43,1.77-2.59,3.91-2.58l8.91,0c2.15,0,3.9,1.19,3.89,2.62v3"/><line class="cls-7" x1="167.96" y1="179.75" x2="188.96" y2="179.84"/><line class="cls-7" x1="176.15" y1="167.78" x2="180" y2="167.8"/><line class="cls-7" x1="166.72" y1="167.74" x2="170.58" y2="167.76"/><line class="cls-10" x1="138.87" y1="94.14" x2="159.49" y2="94.14"/><line class="cls-10" x1="164.51" y1="94.14" x2="161.72" y2="94.14"/><line class="cls-10" x1="168.97" y1="94.14" x2="207.98" y2="94.14"/><line class="cls-10" x1="211.33" y1="94.14" x2="213" y2="94.14"/><path class="cls-11" d="M48.57,112.12a4.18,4.18,0,0,0,0,5.14h37s2.57,2.57,0,5.14H69.14s-2.57,2.57,0,4.63h14.4a5.29,5.29,0,0,1,0,5.14H78.91s-1.54,2.57,0,4.11h27.77s1-2.57-.51-3.6H98.45s-2.06-2.06,0-5.14h29.83s2.06-3.09,0-5.14H113.37a4.18,4.18,0,0,1,0-5.14h46.8s3.09-3.6-.51-5.14Z"/><path class="cls-12" d="M10.48,74.88S3.71,73.32,4.23,65.5s6.25-8.86,6.25-8.86,6.77-2.08,9.9,1.56c0,0,4.69-8.86,13-2.08,0,0,3.63-8.34,13-8.34,9.9,0,13,8.86,13,8.86S67.8,52,70.41,59.77c0,0,6.25-1,7.3,3.13,0,0,2.61-4.69,7.3-4.69s7.3,3.13,7.3,6.25c0,0,4.69-1.56,6.77-.52a5,5,0,0,1,3.13,4.69c0,2.08-1,5.73-3.13,6.77S10.48,74.88,10.48,74.88Z"/><line class="cls-13" x1="31.33" y1="75.92" x2="37.06" y2="75.92"/><line class="cls-13" x1="40.18" y1="75.92" x2="68.84" y2="75.92"/><line class="cls-13" x1="58.87" y1="75.92" x2="62.44" y2="75.92"/><path class="cls-14" d="M66.67,81.13h0Z"/><path class="cls-12" d="M145.28,93.3s-6.13-4.46,0-11.7S159.77,81,159.77,81s1.67-4.46,5-5S172,77.69,172,77.69A14.82,14.82,0,0,1,186,68.78c10.59,0,15,7.8,16.16,12.82,0,0,7.8-.56,8.36,5s-2.23,6.69-2.23,6.69Z"/><line class="cls-10" x1="3.4" y1="112.35" x2="25.27" y2="112.35"/><line class="cls-10" x1="44.56" y1="112.35" x2="22.44" y2="112.35"/><line class="cls-10" x1="49.76" y1="112.35" x2="52.36" y2="112.35"/><line class="cls-10" x1="55.61" y1="112.35" x2="73.18" y2="112.35"/><line class="cls-10" x1="78.38" y1="112.35" x2="90.09" y2="112.35"/><line class="cls-10" x1="94.64" y1="112.35" x2="98.54" y2="112.35"/><line class="cls-10" x1="102.45" y1="112.35" x2="104.4" y2="112.35"/><line class="cls-10" x1="108.95" y1="112.35" x2="127.81" y2="112.35"/><line class="cls-10" x1="131.07" y1="112.35" x2="134.97" y2="112.35"/><line class="cls-10" x1="138.22" y1="112.35" x2="140.17" y2="112.35"/><line class="cls-10" x1="170.09" y1="112.35" x2="145.38" y2="112.35"/><line class="cls-10" x1="175.95" y1="112.35" x2="191.56" y2="112.35"/><line class="cls-10" x1="195.46" y1="112.35" x2="200.02" y2="112.35"/><line class="cls-10" x1="203.27" y1="112.35" x2="204.57" y2="112.35"/><line class="cls-10" x1="209.12" y1="112.35" x2="233.8" y2="112.35"/><line class="cls-14" x1="59.84" y1="119.83" x2="63.09" y2="119.83"/><line class="cls-14" x1="65.7" y1="119.83" x2="87.16" y2="119.83"/><line class="cls-14" x1="92.36" y1="119.83" x2="100.17" y2="119.83"/><line class="cls-14" x1="104.07" y1="119.83" x2="107.98" y2="119.83"/><line class="cls-14" x1="113.83" y1="119.83" x2="122.29" y2="119.83"/><line class="cls-14" x1="136.6" y1="119.83" x2="146.35" y2="119.83"/><line class="cls-14" x1="152.86" y1="119.83" x2="159.36" y2="119.83"/><line class="cls-15" x1="59.52" y1="126.01" x2="70.57" y2="126.01"/><line class="cls-15" x1="77.73" y1="126.01" x2="80.33" y2="126.01"/><line class="cls-15" x1="105.7" y1="126.01" x2="110.9" y2="126.01"/><line class="cls-15" x1="118.71" y1="126.01" x2="164.89" y2="126.01"/><line class="cls-15" x1="38.05" y1="131.21" x2="45.21" y2="131.21"/><line class="cls-15" x1="49.76" y1="131.21" x2="53.66" y2="131.21"/><line class="cls-15" x1="76.43" y1="131.21" x2="84.88" y2="131.21"/><line class="cls-15" x1="89.44" y1="131.21" x2="91.39" y2="131.21"/><line class="cls-15" x1="94.64" y1="131.21" x2="96.59" y2="131.21"/><line class="cls-15" x1="108.3" y1="131.21" x2="123.91" y2="131.21"/><line class="cls-15" x1="127.16" y1="131.21" x2="129.12" y2="131.21"/><line class="cls-15" x1="132.37" y1="131.21" x2="145.38" y2="131.21"/><line class="cls-15" x1="148.63" y1="131.21" x2="150.58" y2="131.21"/><line class="cls-15" x1="45.21" y1="138.37" x2="49.76" y2="138.37"/><line class="cls-15" x1="53.01" y1="138.37" x2="56.91" y2="138.37"/><line class="cls-15" x1="67.32" y1="144.87" x2="75.78" y2="144.87"/><line class="cls-15" x1="78.38" y1="144.87" x2="81.63" y2="144.87"/><line class="cls-15" x1="84.88" y1="144.87" x2="90.74" y2="144.87"/><line class="cls-15" x1="85.53" y1="152.03" x2="88.79" y2="152.03"/><line class="cls-15" x1="92.04" y1="152.03" x2="107.65" y2="152.03"/><line class="cls-15" x1="129.12" y1="138.37" x2="139.52" y2="138.37"/><line class="cls-15" x1="136.27" y1="144.87" x2="138.87" y2="144.87"/><line class="cls-15" x1="127.16" y1="144.87" x2="132.37" y2="144.87"/><line class="cls-15" x1="209.77" y1="135.76" x2="216.93" y2="135.76"/><line class="cls-15" x1="218.88" y1="135.76" x2="220.83" y2="135.76"/><line class="cls-15" x1="222.13" y1="135.76" x2="230.59" y2="135.76"/><path class="cls-16" d="M70,112a36.19,36.19,0,1,1,72.38,0"/><rect class="cls-9" x="48.75" y="111.2" width="112.83" height="44"/><line class="cls-1" x1="166.37" y1="186.56" x2="177.68" y2="186.56"/><line class="cls-1" x1="215.49" y1="186.56" x2="226.8" y2="186.56"/><rect class="cls-9" x="0.2" width="236.8" height="236.8"/><line class="cls-15" x1="13.72" y1="123.27" x2="22.18" y2="123.27"/><line class="cls-15" x1="24.78" y1="123.27" x2="28.03" y2="123.27"/><line class="cls-15" x1="31.28" y1="123.27" x2="37.14" y2="123.27"/><path class="cls-17" d="M152.2,163.2l4.62-7.9a2.83,2.83,0,0,1,2.83-1.7H186a2.83,2.83,0,0,1,2.83,1.7l4.16,7.9"/><line class="cls-7" x1="160.56" y1="174.11" x2="183.59" y2="174.21"/><line class="cls-7" x1="190.56" y1="174.24" x2="211.45" y2="174.32"/></g></g></svg>