<svg xmlns="http://www.w3.org/2000/svg" viewBox="0 0 236.8 236.8"><defs><style>.cls-1,.cls-2{fill:#fcc062;}.cls-1,.cls-11,.cls-3{stroke:#414042;}.cls-1,.cls-10,.cls-11,.cls-13,.cls-14,.cls-15,.cls-16,.cls-21,.cls-3,.cls-5,.cls-6,.cls-8{stroke-linecap:round;}.cls-1,.cls-10,.cls-11,.cls-12,.cls-15,.cls-21,.cls-3,.cls-4,.cls-6,.cls-8,.cls-9{stroke-miterlimit:10;}.cls-1,.cls-10,.cls-13,.cls-14,.cls-15,.cls-16,.cls-21,.cls-3,.cls-4,.cls-5,.cls-8,.cls-9{stroke-width:2px;}.cls-10,.cls-11,.cls-16,.cls-18,.cls-21,.cls-3,.cls-4,.cls-5,.cls-6,.cls-8{fill:none;}.cls-12,.cls-13,.cls-14,.cls-15,.cls-4,.cls-5,.cls-6,.cls-8,.cls-9{stroke:#3b312f;}.cls-13,.cls-14,.cls-16,.cls-5{stroke-linejoin:round;}.cls-11,.cls-6{stroke-width:3px;}.cls-7{fill:#cee3f6;}.cls-9{fill:#193057;}.cls-10{stroke:#4d4d4d;}.cls-12{fill:#3b312f;}.cls-13,.cls-19{fill:#fff;}.cls-14{fill:#e6e7e8;}.cls-15,.cls-20{fill:#722c36;}.cls-16,.cls-21{stroke:#fff;}.cls-17{fill:#414042;}</style></defs><title>Trail illustration 5</title><g id="Layer_2" data-name="Layer 2"><g id="Trail_Elements" data-name="Trail Elements"><line class="cls-1" x1="143.93" y1="80.7" x2="143.93" y2="75.73"/><line class="cls-1" x1="122.3" y1="66.66" x2="121.07" y2="66.66"/><path class="cls-2" d="M135.19,57.3a11.16,11.16,0,0,1,8.74-4.39h.15a11.21,11.21,0,0,1,11.21,11.2,11,11,0,0,1-.3,2.55,11.2,11.2,0,0,1-21.82,0,11.15,11.15,0,0,1,2-9.36Z"/><line class="cls-3" x1="164.49" y1="66.66" x2="165.52" y2="66.66"/><line class="cls-3" x1="163.63" y1="66.66" x2="164.49" y2="66.66"/><line class="cls-3" x1="160.39" y1="66.66" x2="161.34" y2="66.66"/><line class="cls-3" x1="155" y1="66.66" x2="160.39" y2="66.66"/><line class="cls-3" x1="157.81" y1="79.92" x2="159.43" y2="81.54"/><line class="cls-3" x1="156.31" y1="54.07" x2="159.41" y2="50.98"/><line class="cls-3" x1="155.63" y1="77.74" x2="157.81" y2="79.92"/><line class="cls-3" x1="153.42" y1="66.66" x2="155" y2="66.66"/><line class="cls-3" x1="153.03" y1="57.36" x2="153.94" y2="56.44"/><line class="cls-3" x1="150.9" y1="73.01" x2="153.78" y2="75.89"/><line class="cls-3" x1="150.7" y1="72.81" x2="150.9" y2="73.01"/><line class="cls-3" x1="143.93" y1="85.26" x2="143.93" y2="87.83"/><line class="cls-3" x1="143.93" y1="83.22" x2="143.93" y2="85.26"/><line class="cls-3" x1="143.93" y1="44.97" x2="143.93" y2="52.92"/><line class="cls-3" x1="137.34" y1="73.05" x2="137.58" y2="72.81"/><line class="cls-3" x1="133.33" y1="77.06" x2="137.34" y2="73.05"/><line class="cls-3" x1="131.96" y1="54.07" x2="135.19" y2="57.3"/><line class="cls-3" x1="133.18" y1="66.66" x2="134.86" y2="66.66"/><line class="cls-3" x1="125.05" y1="66.66" x2="133.18" y2="66.66"/><line class="cls-3" x1="130.3" y1="80.06" x2="131.96" y2="78.42"/><line class="cls-3" x1="128.69" y1="50.8" x2="130.58" y2="52.69"/><line class="cls-3" x1="128.8" y1="81.54" x2="130.3" y2="80.06"/><line class="cls-3" x1="128.5" y1="50.61" x2="128.69" y2="50.8"/><path class="cls-4" d="M173.24,157.78a6.11,6.11,0,0,1,.48-12.21,5.94,5.94,0,0,1,1.77.26"/><path class="cls-4" d="M173.72,157.8h-.29"/><path class="cls-4" d="M175.49,145.83a9.4,9.4,0,0,1,16.45-3.26"/><path class="cls-4" d="M199.09,156.87a7.93,7.93,0,0,1-3.74.93"/><path class="cls-4" d="M191.93,142.58a8,8,0,0,1,7.17,14.29"/><path class="cls-4" d="M199.11,156.86h0a4.66,4.66,0,0,1-2.79.93H184.54"/><path class="cls-4" d="M173.72,157.8h-.48"/><line class="cls-5" x1="184.83" y1="149.97" x2="184.83" y2="157.41"/><line class="cls-5" x1="184.57" y1="157.38" x2="182.68" y2="154.34"/><line class="cls-5" x1="175.49" y1="154.55" x2="175.46" y2="157.92"/><path class="cls-5" d="M175.2,157.9"/><line class="cls-5" x1="195.25" y1="154.6" x2="194.64" y2="157.92"/><path class="cls-5" d="M194.38,157.85"/><line class="cls-6" x1="11.81" y1="113.54" x2="28.66" y2="113.54"/><line class="cls-6" x1="34.36" y1="113.54" x2="32.09" y2="113.54"/><line class="cls-6" x1="38.01" y1="113.54" x2="69.89" y2="113.54"/><path class="cls-7" d="M18.65,112.86s-5-3.64,0-9.56,11.84-.46,11.84-.46,1.37-3.64,4.1-4.1,5.92,1.37,5.92,1.37A12.11,12.11,0,0,1,51.9,92.82a13.09,13.09,0,0,1,13.21,10.48s6.38-.46,6.83,4.1-1.82,5.47-1.82,5.47Z"/><line class="cls-8" x1="8.35" y1="157.94" x2="231.6" y2="157.94"/><path class="cls-4" d="M200,115.91v8.93a3.73,3.73,0,0,1-3.95,3.45h0a3.73,3.73,0,0,1-3.95-3.45V116"/><path class="cls-9" d="M207.86,115.91v8.93a3.73,3.73,0,0,1-3.95,3.45h0a3.73,3.73,0,0,1-3.95-3.45V116"/><path class="cls-4" d="M215.75,115.91v8.93a3.73,3.73,0,0,1-3.95,3.45h0a3.73,3.73,0,0,1-3.95-3.45V116"/><path class="cls-9" d="M223.64,115.91v8.93a3.73,3.73,0,0,1-3.95,3.45h0a3.73,3.73,0,0,1-3.95-3.45V116"/><path class="cls-4" d="M231.53,115.91v8.93a3.73,3.73,0,0,1-3.95,3.45h0a3.73,3.73,0,0,1-3.95-3.45V116"/><line class="cls-10" x1="191.59" y1="137.16" x2="231.53" y2="137.16"/><line class="cls-8" x1="191.59" y1="123.93" x2="231.53" y2="123.93"/><path class="cls-10" d="M203.92,144.32"/><line class="cls-8" x1="7.26" y1="173.1" x2="231.6" y2="173.1"/><line class="cls-8" x1="5.86" y1="167.91" x2="230.21" y2="167.91"/><line class="cls-8" x1="26" y1="192.21" x2="215.56" y2="192.21"/><line class="cls-8" x1="12.99" y1="167.91" x2="12.99" y2="173.1"/><line class="cls-8" x1="29.91" y1="167.91" x2="29.91" y2="173.1"/><line class="cls-8" x1="46.83" y1="167.91" x2="46.83" y2="173.1"/><line class="cls-8" x1="62.15" y1="167.91" x2="62.15" y2="173.1"/><line class="cls-10" x1="77.46" y1="167.91" x2="77.46" y2="173.1"/><line class="cls-10" x1="92.78" y1="167.91" x2="92.78" y2="173.1"/><line class="cls-10" x1="108.1" y1="167.91" x2="108.1" y2="173.1"/><line class="cls-10" x1="123.42" y1="167.91" x2="123.42" y2="173.1"/><line class="cls-10" x1="138.73" y1="167.91" x2="138.73" y2="173.1"/><line class="cls-10" x1="154.05" y1="167.91" x2="154.05" y2="173.1"/><line class="cls-10" x1="169.37" y1="167.91" x2="169.37" y2="173.1"/><line class="cls-10" x1="184.69" y1="167.91" x2="184.69" y2="173.1"/><line class="cls-10" x1="200" y1="167.91" x2="200" y2="173.1"/><line class="cls-10" x1="212" y1="167.91" x2="212" y2="173.1"/><line class="cls-10" x1="223.94" y1="167.91" x2="223.94" y2="173.1"/><line class="cls-8" x1="9.97" y1="182.6" x2="17.72" y2="182.6"/><line class="cls-8" x1="43.67" y1="182.6" x2="51.42" y2="182.6"/><line class="cls-10" x1="78.9" y1="182.6" x2="86.65" y2="182.6"/><line class="cls-10" x1="114.13" y1="182.6" x2="121.88" y2="182.6"/><line class="cls-10" x1="147.83" y1="182.6" x2="155.58" y2="182.6"/><line class="cls-10" x1="183.06" y1="182.6" x2="190.81" y2="182.6"/><line class="cls-10" x1="225.37" y1="182.6" x2="230.07" y2="182.6"/><line class="cls-4" x1="16.33" y1="150.34" x2="16.33" y2="158.24"/><line class="cls-11" x1="137.21" y1="86.52" x2="154.06" y2="86.52"/><line class="cls-11" x1="158.16" y1="86.52" x2="155.89" y2="86.52"/><line class="cls-11" x1="161.81" y1="86.52" x2="193.69" y2="86.52"/><line class="cls-11" x1="196.42" y1="86.52" x2="197.79" y2="86.52"/><line class="cls-11" x1="200.52" y1="86.52" x2="203.71" y2="86.52"/><path class="cls-7" d="M142.45,85.84s-5-3.64,0-9.56,11.84-.46,11.84-.46,1.37-3.64,4.1-4.1,5.92,1.37,5.92,1.37A12.11,12.11,0,0,1,175.7,65.8a13.09,13.09,0,0,1,13.21,10.48s6.38-.46,6.83,4.1-1.82,5.47-1.82,5.47Z"/><path class="cls-4" d="M112.87,154.59c-1.76-1.29-1.73-2-2.5-4.08-1.13-3-4.54-11.81-4.33-12.45,1.15,0,2.64,0,3.79,0"/><path class="cls-4" d="M94.41,138.33H88.58"/><line class="cls-4" x1="91.41" y1="139.14" x2="96.83" y2="152.67"/><polyline class="cls-4" points="106.99 141.97 92.37 141.97 86.27 154.57 94.93 154.57"/><line class="cls-4" x1="108.01" y1="144.27" x2="99.26" y2="152.94"/><circle class="cls-4" cx="97.37" cy="154.84" r="2.44"/><circle class="cls-4" cx="85.73" cy="154.57" r="8.93"/><circle class="cls-4" cx="112.8" cy="154.57" r="8.93"/><circle class="cls-12" cx="103.82" cy="123.6" r="3.14"/><rect class="cls-12" x="96.54" y="130.97" width="2.89" height="12.18" rx="1.45" ry="1.45" transform="translate(263.65 106.33) rotate(115.05)"/><rect class="cls-12" x="99.44" y="137.5" width="2.89" height="12.18" rx="1.45" ry="1.45" transform="translate(142.42 314.11) rotate(-158.6)"/><rect class="cls-12" x="95.22" y="134.82" width="2.89" height="12.18" rx="1.45" ry="1.45" transform="translate(264.24 174.37) rotate(135.74)"/><rect class="cls-12" x="96.35" y="141.95" width="2.89" height="12.18" rx="1.45" ry="1.45" transform="translate(134.83 321.57) rotate(-158.6)"/><rect class="cls-12" x="103.9" y="127.5" width="2.93" height="12.1" rx="1.47" ry="1.47" transform="translate(272.16 167.03) rotate(139.62)"/><rect class="cls-12" x="92.15" y="123.07" width="7.54" height="17.19" rx="3.77" ry="3.77" transform="translate(101.97 294.45) rotate(-146.05)"/><path class="cls-4" d="M147.64,157.95c-1.22-.9-1.2-1.42-1.74-2.83-.78-2-3.15-8.19-3-8.64.8,0,1.83,0,2.63,0"/><path class="cls-4" d="M134.84,146.68h-4"/><line class="cls-4" x1="132.76" y1="147.23" x2="136.51" y2="156.62"/><polyline class="cls-4" points="143.56 149.2 133.42 149.2 129.19 157.94 135.2 157.94"/><line class="cls-4" x1="144.26" y1="150.79" x2="138.2" y2="156.81"/><circle class="cls-4" cx="136.89" cy="158.12" r="1.69"/><circle class="cls-4" cx="128.82" cy="157.93" r="6.19"/><circle class="cls-4" cx="147.59" cy="157.93" r="6.19"/><circle class="cls-12" cx="141.36" cy="136.46" r="2.18"/><rect class="cls-12" x="136.31" y="141.57" width="2.01" height="8.45" rx="1" ry="1" transform="translate(327.54 83.13) rotate(115.05)"/><rect class="cls-12" x="138.33" y="146.1" width="2.01" height="8.45" rx="1" ry="1" transform="translate(214.19 341.13) rotate(-158.6)"/><rect class="cls-12" x="135.4" y="144.24" width="2.01" height="8.45" rx="1" ry="1" transform="translate(337.7 159.61) rotate(135.74)"/><rect class="cls-12" x="136.18" y="149.19" width="2.01" height="8.45" rx="1" ry="1" transform="translate(208.93 346.31) rotate(-158.6)"/><rect class="cls-12" x="141.42" y="139.17" width="2.03" height="8.39" rx="1.02" ry="1.02" transform="matrix(-0.76, 0.65, -0.65, -0.76, 343.82, 160.3)"/><rect class="cls-12" x="133.27" y="136.09" width="5.23" height="11.92" rx="2.61" ry="2.61" transform="translate(169.28 335.77) rotate(-146.05)"/><polygon class="cls-13" points="72.06 146.32 51.35 146.32 61.7 98.98 72.06 146.32"/><line class="cls-14" x1="61.71" y1="121.6" x2="61.71" y2="156.68"/><line class="cls-14" x1="61.44" y1="132.19" x2="59.55" y2="129.14"/><line class="cls-14" x1="61.71" y1="138.47" x2="65.84" y2="131.65"/><line class="cls-14" x1="61.44" y1="142.87" x2="57.31" y2="136.05"/><rect class="cls-15" x="16.33" y="136.95" width="30.58" height="12.82"/><line class="cls-16" x1="18" y1="145.83" x2="45.2" y2="145.83"/><line class="cls-8" x1="46.91" y1="149.77" x2="46.91" y2="157.66"/><rect class="cls-17" x="218.43" y="133.36" width="2.29" height="4.01" rx="1.15" ry="1.15"/><rect class="cls-17" x="221.86" y="131.64" width="2.29" height="5.73" rx="1.15" ry="1.15"/><rect class="cls-18" width="236.8" height="236.8"/><rect class="cls-19" x="192.02" y="137.51" width="39.58" height="20.47"/><rect class="cls-20" x="196.03" y="141.52" width="32.55" height="12.82"/><line class="cls-21" x1="220.68" y1="145.47" x2="203.92" y2="145.47"/><line class="cls-21" x1="216.74" y1="150.21" x2="207.86" y2="150.21"/><rect class="cls-8" x="191.59" y="116.37" width="39.95" height="41.58"/></g></g></svg>