<svg xmlns="http://www.w3.org/2000/svg" viewBox="0 0 236.8 236.8"><defs><style>.cls-1,.cls-2{fill:#fcc062;}.cls-1,.cls-10,.cls-3,.cls-5,.cls-6,.cls-9{stroke:#414042;}.cls-1,.cls-10,.cls-13,.cls-15,.cls-3{stroke-linecap:round;}.cls-1,.cls-10,.cls-13,.cls-14,.cls-15,.cls-3,.cls-5,.cls-6,.cls-7,.cls-8,.cls-9{stroke-linejoin:round;}.cls-1,.cls-13,.cls-14,.cls-15,.cls-3,.cls-5,.cls-6,.cls-7,.cls-8,.cls-9{stroke-width:2px;}.cls-10,.cls-11,.cls-13,.cls-14,.cls-15,.cls-3,.cls-5{fill:none;}.cls-4{fill:#cee3f6;}.cls-6,.cls-7{fill:#fff;}.cls-15,.cls-7{stroke:#fff;}.cls-8{fill:#f7df75;stroke:#f7df75;}.cls-9{fill:#712d37;}.cls-10{stroke-width:3px;}.cls-12{fill:#cee4f5;}.cls-13,.cls-14{stroke:#4d4d4d;}</style></defs><title>Trail illustration 4</title><g id="Layer_2" data-name="Layer 2"><g id="Trail_Elements" data-name="Trail Elements"><line class="cls-1" x1="94.87" y1="120.32" x2="94.87" y2="116.27"/><line class="cls-1" x1="77.24" y1="108.88" x2="76.24" y2="108.88"/><path class="cls-2" d="M89.49,114.09a9.07,9.07,0,0,1-3.39-5.21,9.09,9.09,0,0,1,1.64-7.63,9.09,9.09,0,0,1,7.12-3.57H95a9.13,9.13,0,0,1,9.13,9.13,9,9,0,0,1-.24,2.08,9.12,9.12,0,0,1-14.39,5.21Z"/><line class="cls-3" x1="111.62" y1="108.88" x2="112.46" y2="108.88"/><line class="cls-3" x1="110.92" y1="108.88" x2="111.62" y2="108.88"/><line class="cls-3" x1="108.28" y1="108.88" x2="109.05" y2="108.88"/><line class="cls-3" x1="103.89" y1="108.88" x2="108.28" y2="108.88"/><line class="cls-3" x1="106.18" y1="119.69" x2="107.5" y2="121.01"/><line class="cls-3" x1="104.96" y1="98.63" x2="107.48" y2="96.1"/><line class="cls-3" x1="104.4" y1="117.91" x2="106.18" y2="119.69"/><line class="cls-3" x1="102.6" y1="108.88" x2="103.89" y2="108.88"/><line class="cls-3" x1="102.28" y1="101.3" x2="103.03" y2="100.56"/><line class="cls-3" x1="100.55" y1="114.06" x2="102.9" y2="116.41"/><line class="cls-3" x1="100.38" y1="113.89" x2="100.55" y2="114.06"/><line class="cls-3" x1="94.87" y1="124.03" x2="94.87" y2="126.13"/><line class="cls-3" x1="94.87" y1="122.37" x2="94.87" y2="124.03"/><line class="cls-3" x1="94.87" y1="91.21" x2="94.87" y2="97.68"/><line class="cls-3" x1="89.49" y1="114.09" x2="89.7" y2="113.89"/><line class="cls-3" x1="86.23" y1="117.35" x2="89.49" y2="114.09"/><line class="cls-3" x1="85.12" y1="98.63" x2="87.75" y2="101.25"/><line class="cls-3" x1="86.11" y1="108.88" x2="87.48" y2="108.88"/><line class="cls-3" x1="79.48" y1="108.88" x2="86.11" y2="108.88"/><line class="cls-3" x1="83.76" y1="119.8" x2="85.12" y2="118.47"/><line class="cls-3" x1="82.45" y1="95.96" x2="83.99" y2="97.5"/><line class="cls-3" x1="82.54" y1="121.01" x2="83.76" y2="119.8"/><line class="cls-3" x1="82.3" y1="95.81" x2="82.45" y2="95.96"/><path class="cls-4" d="M62.54,123.2s-3.48-2.53,0-6.65,8.23-.32,8.23-.32.95-2.53,2.85-2.85a7.44,7.44,0,0,1,4.12.95,8.42,8.42,0,0,1,7.91-5.07,9.1,9.1,0,0,1,9.18,7.28s4.43-.32,4.75,2.85-1.27,3.8-1.27,3.8Z"/><rect class="cls-5" x="48.79" y="72.46" width="134.88" height="102.85"/><path class="cls-6" d="M153.15,160.2a4.37,4.37,0,0,0,1.71-3.52v-1.1a.38.38,0,0,0-.38-.38L109.24,155h0a8.48,8.48,0,0,0,4.08,5.41"/><path class="cls-7" d="M134,145.53H123.21c-.49,0-.8-.85-.55-1.53l11.15-30.86c.14-.4.41-.56.66-.5"/><path class="cls-8" d="M134.6,152.35h17.3a1,1,0,0,0,.88-1.53L135,120a1,1,0,0,0-1.06-.5"/><path class="cls-5" d="M134.46,119.34c-.15,0-.31.11-.39.34l-11.83,31.65c-.17.45,0,1,.38,1h12"/><path class="cls-9" d="M134.6,152.35h18a.68.68,0,0,0,.59-1L135,119.68a.67.67,0,0,0-.57-.34"/><line class="cls-5" x1="134.38" y1="117.63" x2="134.38" y2="155.01"/><line class="cls-3" x1="78.83" y1="162.04" x2="48.85" y2="162.04"/><line class="cls-3" x1="83.12" y1="162.04" x2="85.27" y2="162.04"/><line class="cls-3" x1="87.95" y1="162.04" x2="102.44" y2="162.04"/><line class="cls-3" x1="106.73" y1="162.04" x2="116.39" y2="162.04"/><line class="cls-3" x1="120.15" y1="162.04" x2="123.37" y2="162.04"/><line class="cls-3" x1="126.59" y1="162.04" x2="128.2" y2="162.04"/><line class="cls-3" x1="131.96" y1="162.04" x2="147.52" y2="162.04"/><line class="cls-3" x1="150.2" y1="162.04" x2="153.42" y2="162.04"/><line class="cls-3" x1="156.1" y1="162.04" x2="157.71" y2="162.04"/><line class="cls-3" x1="182.4" y1="162.04" x2="162.01" y2="162.04"/><line class="cls-3" x1="88.22" y1="168.22" x2="64.07" y2="168.22"/><line class="cls-3" x1="91.44" y1="168.22" x2="94.12" y2="168.22"/><line class="cls-3" x1="96.27" y1="168.22" x2="113.98" y2="168.22"/><line class="cls-3" x1="118.27" y1="168.22" x2="124.71" y2="168.22"/><line class="cls-3" x1="127.93" y1="168.22" x2="131.15" y2="168.22"/><line class="cls-3" x1="135.98" y1="168.22" x2="142.96" y2="168.22"/><line class="cls-3" x1="154.76" y1="168.22" x2="162.81" y2="168.22"/><line class="cls-3" x1="168.18" y1="168.22" x2="173.54" y2="168.22"/><line class="cls-3" x1="58.9" y1="123.68" x2="70.61" y2="123.68"/><line class="cls-3" x1="73.46" y1="123.68" x2="71.88" y2="123.68"/><line class="cls-3" x1="75.99" y1="123.68" x2="98.16" y2="123.68"/><line class="cls-3" x1="100.06" y1="123.68" x2="101.01" y2="123.68"/><line class="cls-3" x1="102.9" y1="123.68" x2="105.12" y2="123.68"/><path class="cls-4" d="M141,109.13s-3.48-2.53,0-6.65,8.23-.32,8.23-.32.95-2.53,2.85-2.85a7.44,7.44,0,0,1,4.12.95,8.42,8.42,0,0,1,7.91-5.07,9.1,9.1,0,0,1,9.18,7.28s4.43-.32,4.75,2.85-1.27,3.8-1.27,3.8Z"/><line class="cls-3" x1="137.39" y1="109.61" x2="149.1" y2="109.61"/><line class="cls-3" x1="151.95" y1="109.61" x2="150.37" y2="109.61"/><line class="cls-3" x1="154.48" y1="109.61" x2="176.65" y2="109.61"/><line class="cls-3" x1="178.55" y1="109.61" x2="179.5" y2="109.61"/><line class="cls-3" x1="181.39" y1="109.61" x2="183.61" y2="109.61"/><polyline class="cls-10" points="188.05 64.68 226.14 40 226.14 200.12"/><line class="cls-10" x1="184.35" y1="68.08" x2="48.1" y2="68.08"/><rect class="cls-11" width="236.8" height="236.8"/><polygon class="cls-12" points="13.41 125.1 29.59 125.1 29.59 182.66 13.41 190.63 13.41 125.1"/><polygon class="cls-4" points="33.53 125.88 44.59 125.94 44.15 175.6 33.81 180.36 33.53 125.88"/><path class="cls-4" d="M33.05,63.76l11.45,6.11.36,52-11.09-.13a.47.47,0,0,1-.45-.47Z"/><polygon class="cls-12" points="13.3 50.21 29.59 60.77 29.59 121.7 13.3 121.7 13.3 50.21"/><polygon class="cls-5" points="9.6 47.66 44.62 69.86 44.62 177.69 9.6 196.71 9.6 47.66"/><line class="cls-5" x1="9.6" y1="125.17" x2="44.62" y2="125.17"/><line class="cls-5" x1="30.35" y1="60.42" x2="30.35" y2="185.53"/><path class="cls-13" d="M41.44,156.3"/><path class="cls-14" d="M41.44,150.88"/><line class="cls-15" x1="41.44" y1="143.81" x2="41.44" y2="150.88"/><line class="cls-15" x1="41.44" y1="137.46" x2="41.44" y2="140.37"/><polyline class="cls-15" points="36.26 129.36 41.44 129.36 41.44 134.93"/><line class="cls-15" x1="27.37" y1="142.96" x2="27.37" y2="148.08"/><polyline class="cls-15" points="20.71 128.51 27.37 128.51 27.37 139.52"/><line class="cls-10" x1="12.56" y1="45.11" x2="43.29" y2="65.11"/><line class="cls-15" x1="41.44" y1="85.94" x2="41.44" y2="93.01"/><polyline class="cls-15" points="36.26 68.94 41.44 71.49 41.44 82.5"/><line class="cls-15" x1="27.37" y1="77.43" x2="27.37" y2="84.5"/><line class="cls-15" x1="27.37" y1="71.08" x2="27.37" y2="73.99"/><polyline class="cls-15" points="22.19 59.57 27.37 62.98 27.37 68.55"/><polyline class="cls-5" points="29.14 183.05 11.82 192.46 11.82 125.64"/><path class="cls-5" d="M32.55,181.19"/><line class="cls-5" x1="31.87" y1="121.76" x2="43.21" y2="121.76"/><polyline class="cls-5" points="28.43 121.76 11.82 121.76 11.82 121.7 11.82 51.91"/><path class="cls-5" d="M32.57,181.17"/><polyline class="cls-5" points="32.57 126.1 32.57 181.17 32.58 181.18 42.24 175.93"/><path class="cls-5" d="M32.57,126.1"/><line class="cls-5" x1="32.57" y1="64.68" x2="32.57" y2="122.63"/><polygon class="cls-4" points="218.52 125.1 202.34 125.1 202.34 182.66 218.52 190.63 218.52 125.1"/><polygon class="cls-4" points="198.4 125.88 187.34 125.94 187.78 175.6 198.12 180.36 198.4 125.88"/><path class="cls-4" d="M198.88,63.76l-11.45,6.11-.36,52,11.09-.13a.47.47,0,0,0,.45-.47Z"/><polygon class="cls-4" points="218.63 50.21 202.34 60.77 202.34 121.7 218.63 121.7 218.63 50.21"/><polygon class="cls-5" points="222.33 47.66 187.31 69.86 187.31 177.69 222.33 196.71 222.33 47.66"/><line class="cls-5" x1="222.33" y1="125.17" x2="187.31" y2="125.17"/><line class="cls-5" x1="201.58" y1="60.42" x2="201.58" y2="185.53"/><path class="cls-13" d="M190.49,156.3"/><path class="cls-14" d="M190.49,150.88"/><line class="cls-15" x1="190.49" y1="143.81" x2="190.49" y2="150.88"/><line class="cls-15" x1="190.49" y1="137.46" x2="190.49" y2="140.37"/><polyline class="cls-15" points="195.67 129.36 190.49 129.36 190.49 134.93"/><line class="cls-15" x1="204.56" y1="142.96" x2="204.56" y2="148.08"/><polyline class="cls-15" points="211.22 128.51 204.56 128.51 204.56 139.52"/><line class="cls-15" x1="190.49" y1="85.94" x2="190.49" y2="93.01"/><polyline class="cls-15" points="195.67 68.94 190.49 71.49 190.49 82.5"/><line class="cls-15" x1="204.56" y1="77.43" x2="204.56" y2="84.5"/><line class="cls-15" x1="204.56" y1="71.08" x2="204.56" y2="73.99"/><polyline class="cls-15" points="209.74 59.57 204.56 62.98 204.56 68.55"/><polyline class="cls-5" points="202.79 183.05 220.11 192.46 220.11 125.64"/><path class="cls-5" d="M199.38,181.19"/><line class="cls-5" x1="200.06" y1="121.76" x2="188.72" y2="121.76"/><polyline class="cls-5" points="203.5 121.76 220.11 121.76 220.11 121.7 220.11 51.91"/><path class="cls-5" d="M199.36,181.17"/><polyline class="cls-5" points="199.36 126.1 199.36 181.17 199.35 181.18 189.69 175.93"/><path class="cls-5" d="M199.36,126.1"/><line class="cls-5" x1="199.36" y1="64.68" x2="199.36" y2="122.63"/></g></g></svg>