<svg xmlns="http://www.w3.org/2000/svg" viewBox="0 0 139.54 150.63"><defs><style>.cls-1{fill:#e6e6e6;}.cls-2{fill:#fff;}.cls-3{fill:#fbb03b;}.cls-4,.cls-6{fill:#cee3f6;}.cls-5{fill:#722c36;}.cls-10,.cls-11,.cls-6,.cls-7,.cls-9{stroke:#333;}.cls-6,.cls-7{stroke-linecap:round;stroke-linejoin:round;stroke-width:1.13px;}.cls-10,.cls-11,.cls-7{fill:none;}.cls-8,.cls-9{fill:#333;}.cls-10,.cls-11,.cls-9{stroke-miterlimit:10;}.cls-10{stroke-width:1.28px;}.cls-11{stroke-width:1.15px;}</style></defs><title>PricingPageIllustration</title><g id="Layer_2" data-name="Layer 2"><g id="Layer_1-2" data-name="Layer 1"><g id="Layer_2-2" data-name="Layer 2"><g id="Layer_1-2-2" data-name="Layer 1-2"><path class="cls-1" d="M113.9,57.51l5.93-32.2c0-.45-.54-.82-.87-.55l-15.31,10.7-.43-8.68c.07-.21-.14-.33-.32-.44a.55.55,0,0,0-.59,0L82.73,37.39a.64.64,0,0,0-.33.5.55.55,0,0,0,.26.52l9.43,6.06,11.44,7.34,9.43,6a.76.76,0,0,0,.52.1A.47.47,0,0,0,113.9,57.51ZM98,30.06l4.24-2.34.23,5.61L100.8,34l-.35-2.61L98,32.09Zm18.2,3.49L116,30.69l-2.13.92.13-2.06,4.52-3.16L117.39,33Z"/><rect class="cls-2" x="53.55" y="12.13" width="54.85" height="46.59" transform="matrix(0.32, -0.95, 0.95, 0.32, 21.72, 101.01)"/><path class="cls-1" d="M113.24,16,67,.54a.27.27,0,0,0-.36.13l0,.06-18.37,55a.27.27,0,0,0,.13.36l.06,0L94.68,71.59a.27.27,0,0,0,.36-.13l0-.06,18.37-55a.27.27,0,0,0-.13-.36Zm-25,46.06L59.34,52.4l.35-1L88.62,61Zm8.92-5.88L55.64,42.31,68.44,4,110,17.87Z"/><circle class="cls-3" cx="73.56" cy="12.98" r="3.4" transform="translate(37.95 78.64) rotate(-71.53)"/><path class="cls-4" d="M94.66,52.71,92.5,20c-.06-.44-.73-.66-.95-.32L79.33,33.88l-2.59-8.35c0-.22-.22-.28-.41-.35a.55.55,0,0,0-.57.13L59.5,40.86a.64.64,0,0,0-.19.57.55.55,0,0,0,.38.44l34.15,11.4a.76.76,0,0,0,.54,0A.47.47,0,0,0,94.66,52.71ZM72.51,30,76,26.67,77.63,32,76.2,33.15l-1-2.44L73,32ZM91,28.92l-.88-2.72-1.83,1.39-.38-2,3.61-4.17.5,6.7Z"/><path class="cls-5" d="M139.45,26.23,98.23,0C98,0,97.92,0,97.89.12L93,7.77l2.75.92,3.1-4.87,37,23.42L114.23,61.35l-12-7.6L99.9,60.68l7,4.46-.63.95-6.86-4.4-2.34,7L108,75.61c.19.06.32,0,.35-.09l31-49C139.61,26.39,139.55,26.27,139.45,26.23Z"/></g></g><g id="Layer_2-3" data-name="Layer 2"><g id="Layer_1-2-3" data-name="Layer 1-2"><path class="cls-6" d="M95,75.77c-12.89,12.45-31.09,6.81-31.09,6.81S44.35,129.92,95,149.66c0,0,47.8-15.22,33.39-65.59,0,0-25.58,2.22-33.39-8.39"/><path class="cls-2" d="M95.65,140.11s-31-16.77-24.28-46.64c0,0,8.39,3.88,24.28-4.19A27,27,0,0,0,119,93.46s5.32,34.72-23.33,46.64"/><path class="cls-7" d="M75.25,122s-8.39-10-3.88-28.51c0,0,8.39,3.88,24.28-4.19A27,27,0,0,0,119,93.48s4.19,16.88-3.88,29.89"/><line class="cls-7" x1="79.11" y1="130.9" x2="81.42" y2="128.62"/><line class="cls-7" x1="88.31" y1="138.37" x2="90.14" y2="135.51"/><line class="cls-7" x1="100.54" y1="138.37" x2="99.34" y2="135.51"/><line class="cls-7" x1="110.39" y1="131.66" x2="108.17" y2="129.16"/><path class="cls-8" d="M84.18,107.7a1.34,1.34,0,0,0,.57-.19l1.24-.86v14.44a.9.9,0,0,0,.86.94h17.38a.9.9,0,0,0,.94-.86s0-.06,0-.09V106.65l1.13.86a1.34,1.34,0,0,0,.57.19.86.86,0,0,0,.75-.38,1,1,0,0,0-.19-1.32l-11.3-7.8a1,1,0,0,0-1,0l-11.28,7.74a.86.86,0,0,0-.19,1.32C83.62,107.51,83.91,107.7,84.18,107.7Zm3.61-2.37,7.69-5.22,7.69,5.22v14.82H87.9Z"/><polygon class="cls-3" points="87.89 105.33 95.59 100.11 103.28 105.33 103.28 120.15 87.89 120.15 87.89 105.33"/></g></g><g id="Layer_2-4" data-name="Layer 2"><g id="Layer_1-2-4" data-name="Layer 1-2"><rect class="cls-5" y="39.09" width="84.76" height="111.54" rx="3.6" ry="3.6"/><polyline class="cls-2" points="55.74 138.29 13.9 138.29 13.9 41.23 71.25 41.23 71.25 122.1"/><path class="cls-9" d="M22.17,41.14c0-2.48,2.31-4.46,5.28-4.46H33.4A1.58,1.58,0,0,0,35,35.16s0-.08,0-.11a7.76,7.76,0,1,1,15.53,0,1.58,1.58,0,0,0,1.53,1.63h6.1c3,0,5.28,2,5.28,4.46v8.09H22.17Z"/><path class="cls-8" d="M23,82.56a2.38,2.38,0,0,0,1-.33l2.18-1.45v25.1a1.58,1.58,0,0,0,1.51,1.65H57.8A1.58,1.58,0,0,0,59.45,106s0-.1,0-.15V80.77l2,1.49a2.38,2.38,0,0,0,1,.33,1.5,1.5,0,0,0,1.32-.66,1.77,1.77,0,0,0-.33-2.31L43.8,66.08a1.79,1.79,0,0,0-1.81,0L22.17,79.62a1.48,1.48,0,0,0-.33,2.31C21.84,82.26,22.33,82.56,23,82.56Zm6.33-4.09,13.38-9.08,13.38,9.08v25.76H29.3Z"/><circle class="cls-2" cx="42.64" cy="35.03" r="2.48"/><path class="cls-8" d="M22.17,41.14c0-2.48,2.31-4.46,5.28-4.46H33.4A1.58,1.58,0,0,0,35,35.16s0-.08,0-.11a7.76,7.76,0,1,1,15.53,0,1.58,1.58,0,0,0,1.53,1.63h6.1c3,0,5.28,2,5.28,4.46v8.09H22.17ZM64.93,52.37a1.58,1.58,0,0,0,1.65-1.51s0-.1,0-.15V42.46h4v78.1H56.68A1.58,1.58,0,0,0,55,122.07s0,.1,0,.15v13.87H14.57V42.46h4.29v8.26a1.58,1.58,0,0,0,1.51,1.65H64.93ZM68.23,124l-9.73,9.75V124Zm5.49-84.89H66.26A8.5,8.5,0,0,0,58,33.38H53.54a11,11,0,0,0-21.8,0H27.28c-4,0-7.43,2.48-8.26,5.78H11.24v98.59a1.58,1.58,0,0,0,1.51,1.65H56.68a1,1,0,0,0,.66-.17c.17-.17.33-.17.5-.33l15.53-15.53h0a1.51,1.51,0,0,0,.5-1.16V42.46"/><polygon class="cls-3" points="29.26 78.46 42.65 69.38 56.02 78.46 56.02 104.23 29.26 104.23 29.26 78.46"/></g></g><rect class="cls-2" x="17.21" y="60.47" width="46.82" height="52.21"/><g id="Layer_2-5" data-name="Layer 2"><g id="Layer_1-2-5" data-name="Layer 1-2"><line class="cls-10" x1="44.63" y1="62.94" x2="61.89" y2="62.94"/><line class="cls-10" x1="44.63" y1="67.26" x2="54.13" y2="67.26"/><path class="cls-5" d="M37.62,62.37a.55.55,0,0,0-.32.16L29,70.87,25,67.6a.55.55,0,0,0-.82.72l.07.07.05,0L28.67,72a.55.55,0,0,0,.73,0l8.68-8.69a.55.55,0,0,0-.45-.94Z"/></g></g><g id="Layer_2-6" data-name="Layer 2"><g id="Layer_1-2-6" data-name="Layer 1-2"><line class="cls-10" x1="45.03" y1="85.2" x2="63.03" y2="85.2"/><line class="cls-10" x1="45.03" y1="89.87" x2="54.93" y2="89.87"/><path class="cls-3" d="M34.72,93.24a.7.7,0,0,1-.5-.2l-9.88-9.88a.71.71,0,0,1,1-1L35.22,92a.7.7,0,0,1-.5,1.2Z"/><path class="cls-3" d="M24.84,93.24a.7.7,0,0,1-.5-1.2l9.88-9.88a.7.7,0,0,1,1,1L25.34,93A.7.7,0,0,1,24.84,93.24Z"/></g></g><g id="Layer_2-7" data-name="Layer 2"><g id="Layer_1-2-7" data-name="Layer 1-2"><path class="cls-5" d="M38.11,104.07a.56.56,0,0,0-.33.17l-8.56,8.56-4.07-3.36a.56.56,0,0,0-.84.74l.08.07.06,0L28.91,114a.56.56,0,0,0,.75,0L38.57,105a.56.56,0,0,0-.46-1Z"/><line class="cls-10" x1="45.3" y1="105.1" x2="63.03" y2="105.1"/><line class="cls-10" x1="45.3" y1="109.1" x2="63.03" y2="109.1"/><line class="cls-11" x1="45.3" y1="113.52" x2="59.48" y2="113.52"/></g></g></g></g></svg>