<svg xmlns="http://www.w3.org/2000/svg" xmlns:xlink="http://www.w3.org/1999/xlink" viewBox="0 0 156.11 158.92"><defs><style>.cls-1,.cls-19,.cls-22,.cls-25,.cls-27,.cls-28,.cls-31,.cls-34,.cls-35,.cls-36,.cls-37,.cls-42,.cls-43,.cls-44,.cls-45,.cls-46,.cls-50,.cls-51,.cls-53,.cls-54,.cls-55,.cls-56,.cls-57,.cls-60{fill:none;}.cls-2{clip-path:url(#clip-path);}.cls-3{clip-path:url(#clip-path-2);}.cls-4{fill:#414042;}.cls-5{clip-path:url(#clip-path-3);}.cls-6{clip-path:url(#clip-path-4);}.cls-7{clip-path:url(#clip-path-5);}.cls-8{clip-path:url(#clip-path-6);}.cls-9{clip-path:url(#clip-path-7);}.cls-10{clip-path:url(#clip-path-8);}.cls-11{clip-path:url(#clip-path-9);}.cls-12{clip-path:url(#clip-path-10);}.cls-13{clip-path:url(#clip-path-11);}.cls-14{clip-path:url(#clip-path-12);}.cls-15{clip-path:url(#clip-path-13);}.cls-16{clip-path:url(#clip-path-14);}.cls-17,.cls-23,.cls-29,.cls-49,.cls-59{fill:#fff;}.cls-17,.cls-19,.cls-20,.cls-24,.cls-25,.cls-28,.cls-35,.cls-43,.cls-51{stroke:#414042;}.cls-17,.cls-20,.cls-22,.cls-23,.cls-24,.cls-28,.cls-29,.cls-31,.cls-32,.cls-33,.cls-34,.cls-36,.cls-40,.cls-43,.cls-49,.cls-58,.cls-60{stroke-linejoin:round;}.cls-17,.cls-19,.cls-20,.cls-22,.cls-23,.cls-24,.cls-25{stroke-width:0.65px;}.cls-18,.cls-33{fill:#e6e6e6;}.cls-19,.cls-22,.cls-23,.cls-24,.cls-28,.cls-29,.cls-31,.cls-32,.cls-33,.cls-34,.cls-35,.cls-42,.cls-43,.cls-44,.cls-45,.cls-46,.cls-50,.cls-51,.cls-56,.cls-57,.cls-58,.cls-60{stroke-linecap:round;}.cls-19,.cls-25,.cls-27,.cls-35,.cls-37,.cls-38,.cls-42,.cls-44,.cls-45,.cls-46,.cls-50,.cls-51,.cls-53,.cls-54,.cls-55,.cls-56,.cls-57{stroke-miterlimit:10;}.cls-20{fill:url(#New_Pattern_2);}.cls-21,.cls-24{fill:#b9d1ef;}.cls-22,.cls-23,.cls-42,.cls-56,.cls-57{stroke:#4d4d4d;}.cls-26{fill:#fcc062;}.cls-27,.cls-44,.cls-45,.cls-46,.cls-49,.cls-50,.cls-53,.cls-58,.cls-60{stroke:#333;}.cls-27{stroke-width:0.85px;}.cls-28,.cls-29,.cls-31,.cls-32,.cls-33,.cls-36,.cls-37,.cls-38{stroke-width:0.7px;}.cls-29,.cls-31,.cls-32,.cls-33,.cls-34,.cls-36,.cls-37,.cls-38,.cls-40{stroke:#3b312f;}.cls-30{fill:#b9d0ed;}.cls-32{fill:#722c35;}.cls-34,.cls-35{stroke-width:1.4px;}.cls-38{fill:#f8ae48;}.cls-39{fill:#3b312f;}.cls-40{stroke-width:0.98px;fill:url(#New_Pattern_2-3);}.cls-41{fill:#999;}.cls-42{stroke-width:0.92px;}.cls-43{stroke-width:1.08px;}.cls-44,.cls-57{stroke-width:1.04px;}.cls-45{stroke-width:1.19px;}.cls-46{stroke-width:1.2px;}.cls-47,.cls-48{font-size:12.74px;font-family:MyriadPro-Regular, Myriad Pro;}.cls-47{fill:#231f20;}.cls-48{opacity:0.75;fill:#bad9da;}.cls-49,.cls-50{stroke-width:1.03px;}.cls-51{stroke-width:2.93px;}.cls-52{fill:#712d37;}.cls-53{stroke-width:1.23px;}.cls-54,.cls-55{stroke:#000;}.cls-54{stroke-width:0.45px;}.cls-55{stroke-width:0.62px;}.cls-56{stroke-width:0.87px;}.cls-58{fill:#fbb03b;}.cls-58,.cls-60{stroke-width:1.34px;}</style><clipPath id="clip-path"><circle class="cls-1" cx="4.5" cy="8" r="1"/></clipPath><clipPath id="clip-path-2"><rect class="cls-1" x="1.5" y="5" width="6" height="8"/></clipPath><clipPath id="clip-path-3"><circle class="cls-1" cx="1.5" cy="8" r="1"/></clipPath><clipPath id="clip-path-4"><rect class="cls-1" x="-1.5" y="5" width="6" height="8"/></clipPath><clipPath id="clip-path-5"><circle class="cls-1" cx="6" cy="4" r="1"/></clipPath><clipPath id="clip-path-6"><rect class="cls-1" x="3" y="1" width="6" height="8"/></clipPath><clipPath id="clip-path-7"><circle class="cls-1" cx="3" cy="4" r="1"/></clipPath><clipPath id="clip-path-8"><rect class="cls-1" y="1" width="6" height="8"/></clipPath><clipPath id="clip-path-9"><circle class="cls-1" cy="4" r="1"/></clipPath><clipPath id="clip-path-10"><rect class="cls-1" x="-3" y="1" width="6" height="8"/></clipPath><clipPath id="clip-path-11"><circle class="cls-1" cx="4.5" r="1"/></clipPath><clipPath id="clip-path-12"><rect class="cls-1" x="1.5" y="-3" width="6" height="8"/></clipPath><clipPath id="clip-path-13"><circle class="cls-1" cx="1.5" r="1"/></clipPath><clipPath id="clip-path-14"><rect class="cls-1" x="-1.5" y="-3" width="6" height="8"/></clipPath><pattern id="New_Pattern_2" data-name="New Pattern 2" width="6" height="8" patternTransform="matrix(-0.65, 0, 0, 0.65, 22.53, 5.76)" patternUnits="userSpaceOnUse" viewBox="0 0 6 8"><rect class="cls-1" width="6" height="8"/><g class="cls-2"><g class="cls-3"><circle class="cls-4" cx="6" cy="5" r="1"/><circle class="cls-4" cx="3" cy="5" r="1"/></g></g><g class="cls-5"><g class="cls-6"><circle class="cls-4" cx="3" cy="5" r="1"/><circle class="cls-4" cy="5" r="1"/></g></g><g class="cls-7"><g class="cls-8"><circle class="cls-4" cx="6" cy="5" r="1"/><circle class="cls-4" cx="3" cy="5" r="1"/><circle class="cls-4" cx="4.5" cy="1" r="1"/></g></g><g class="cls-9"><g class="cls-10"><circle class="cls-4" cx="4.5" cy="9" r="1"/><circle class="cls-4" cx="1.5" cy="9" r="1"/><circle class="cls-4" cx="6" cy="5" r="1"/><circle class="cls-4" cx="3" cy="5" r="1"/><circle class="cls-4" cy="5" r="1"/><circle class="cls-4" cx="4.5" cy="1" r="1"/><circle class="cls-4" cx="1.5" cy="1" r="1"/></g></g><g class="cls-11"><g class="cls-12"><circle class="cls-4" cx="3" cy="5" r="1"/><circle class="cls-4" cy="5" r="1"/><circle class="cls-4" cx="1.5" cy="1" r="1"/></g></g><g class="cls-13"><g class="cls-14"><circle class="cls-4" cx="6" cy="5" r="1"/><circle class="cls-4" cx="3" cy="5" r="1"/><circle class="cls-4" cx="4.5" cy="1" r="1"/><circle class="cls-4" cx="1.5" cy="1" r="1"/></g></g><g class="cls-15"><g class="cls-16"><circle class="cls-4" cx="3" cy="5" r="1"/><circle class="cls-4" cy="5" r="1"/><circle class="cls-4" cx="4.5" cy="1" r="1"/><circle class="cls-4" cx="1.5" cy="1" r="1"/></g></g></pattern><pattern id="New_Pattern_2-3" data-name="New Pattern 2" width="6" height="8" patternTransform="matrix(-0.7, 0, 0, 0.7, 2.74, -1.01)" patternUnits="userSpaceOnUse" viewBox="0 0 6 8"><rect class="cls-1" width="6" height="8"/><g class="cls-2"><g class="cls-3"><circle class="cls-4" cx="6" cy="5" r="1"/><circle class="cls-4" cx="3" cy="5" r="1"/></g></g><g class="cls-5"><g class="cls-6"><circle class="cls-4" cx="3" cy="5" r="1"/><circle class="cls-4" cy="5" r="1"/></g></g><g class="cls-7"><g class="cls-8"><circle class="cls-4" cx="6" cy="5" r="1"/><circle class="cls-4" cx="3" cy="5" r="1"/><circle class="cls-4" cx="4.5" cy="1" r="1"/></g></g><g class="cls-9"><g class="cls-10"><circle class="cls-4" cx="4.5" cy="9" r="1"/><circle class="cls-4" cx="1.5" cy="9" r="1"/><circle class="cls-4" cx="6" cy="5" r="1"/><circle class="cls-4" cx="3" cy="5" r="1"/><circle class="cls-4" cy="5" r="1"/><circle class="cls-4" cx="4.5" cy="1" r="1"/><circle class="cls-4" cx="1.5" cy="1" r="1"/></g></g><g class="cls-11"><g class="cls-12"><circle class="cls-4" cx="3" cy="5" r="1"/><circle class="cls-4" cy="5" r="1"/><circle class="cls-4" cx="1.5" cy="1" r="1"/></g></g><g class="cls-13"><g class="cls-14"><circle class="cls-4" cx="6" cy="5" r="1"/><circle class="cls-4" cx="3" cy="5" r="1"/><circle class="cls-4" cx="4.5" cy="1" r="1"/><circle class="cls-4" cx="1.5" cy="1" r="1"/></g></g><g class="cls-15"><g class="cls-16"><circle class="cls-4" cx="3" cy="5" r="1"/><circle class="cls-4" cy="5" r="1"/><circle class="cls-4" cx="4.5" cy="1" r="1"/><circle class="cls-4" cx="1.5" cy="1" r="1"/></g></g></pattern></defs><title>premium</title><g id="Layer_2" data-name="Layer 2"><g id="Home_Page" data-name="Home Page"><polygon class="cls-17" points="35.34 133.71 35.34 158.41 58.86 158.41 58.86 133.8 35.34 133.71"/><polygon class="cls-18" points="88.27 133.81 58.74 133.88 47 118.77 76.62 118.7 88.02 133.44 88.27 133.81"/><polygon class="cls-17" points="58.81 133.71 58.81 158.41 87.81 158.41 87.81 133.8 58.81 133.71"/><polygon class="cls-17" points="47.08 118.83 58.81 133.71 35.34 133.71 47.08 118.83"/><path class="cls-19" d="M72.2,134.27"/><path class="cls-19" d="M72.2,134.27"/><polygon class="cls-20" points="88.27 133.81 58.74 133.88 47 118.77 76.62 118.7 88.02 133.44 88.27 133.81"/><rect class="cls-21" x="65.41" y="138.1" width="4.29" height="9.45"/><g id="window"><polyline class="cls-22" points="71.18 148.2 71.18 138.11 65.42 138.11 65.42 150.06 71.64 150.06"/><line class="cls-22" x1="67.72" y1="148.2" x2="72.8" y2="148.2"/></g><line class="cls-23" x1="65.49" y1="142.29" x2="70.94" y2="142.29"/><line class="cls-23" x1="68.52" y1="142.29" x2="68.52" y2="138.07"/><path class="cls-24" d="M51.17,130.9a4.25,4.25,0,0,0-8.5,0Z"/><rect class="cls-21" x="38.56" y="137.64" width="14.27" height="15.25"/><line class="cls-25" x1="42.79" y1="137.75" x2="42.79" y2="154.2"/><line class="cls-25" x1="49.87" y1="137.75" x2="49.87" y2="151.76"/><path class="cls-26" d="M49.84,137.93h4l.34,15.65H49.87s1.58-6.67,3.43-9.69C53.29,143.88,50.3,144.37,49.84,137.93Z"/><path class="cls-26" d="M42.65,137.93h-4l-.34,15.65h4.29S41,146.9,39.2,143.88C39.2,143.88,42.19,144.37,42.65,137.93Z"/><rect class="cls-19" x="38.58" y="137.75" width="15.63" height="17"/><rect class="cls-21" x="75.77" y="138.1" width="4.29" height="9.45"/><g id="window-2" data-name="window"><polyline class="cls-22" points="81.55 148.2 81.55 138.11 75.78 138.11 75.78 150.06 82.01 150.06"/><line class="cls-22" x1="78.09" y1="148.2" x2="83.16" y2="148.2"/></g><line class="cls-23" x1="75.86" y1="142.29" x2="81.3" y2="142.29"/><line class="cls-23" x1="78.88" y1="142.29" x2="78.88" y2="138.07"/></g><g id="Services_Icon" data-name="Services Icon"><line class="cls-27" x1="13.78" y1="158.5" x2="142.78" y2="158.5"/></g><g id="Our_Story_Illustration" data-name="Our Story Illustration"><path class="cls-28" d="M107.53,145.86"/><polyline class="cls-29" points="69.3 114.37 65.29 114.37 65.29 112.02 67.95 112.02 85.29 91 103.68 110.64 118.55 110.7 118.17 158.28 98.63 158.28 65.06 158.28 65.06 132.69 69.07 132.69"/><rect class="cls-30" x="72.22" y="118.75" width="24.5" height="9.75" transform="translate(168.93 247.26) rotate(-180)"/><rect class="cls-31" x="72.22" y="118.3" width="25.39" height="11.68"/><line class="cls-31" x1="89.91" y1="129.98" x2="89.91" y2="118.3"/><line class="cls-31" x1="79.84" y1="129.98" x2="79.84" y2="118.29"/><line class="cls-31" x1="97.85" y1="122.22" x2="90.12" y2="122.22"/><line class="cls-31" x1="80.1" y1="122.33" x2="72.22" y2="122.33"/><line class="cls-31" x1="77.39" y1="118.3" x2="77.39" y2="122.22"/><line class="cls-31" x1="74.57" y1="118.3" x2="74.57" y2="122.22"/><line class="cls-31" x1="95.03" y1="118.3" x2="95.03" y2="122.22"/><line class="cls-31" x1="92.21" y1="118.3" x2="92.21" y2="122.22"/><line class="cls-31" x1="97.85" y1="120.36" x2="90.12" y2="120.36"/><line class="cls-31" x1="80.1" y1="120.47" x2="72.22" y2="120.47"/><polyline class="cls-31" points="94.84 101.09 103.13 110.61 118.55 110.61 118.55 114.65 64.86 114.65 64.86 112.01 67.9 112.01 76.69 101.36"/><polyline class="cls-31" points="94.7 100.98 85.29 111.25 77.05 101.26"/><path class="cls-28" d="M85.46,114.65"/><line class="cls-31" x1="102.7" y1="137.41" x2="102.7" y2="158.15"/><line class="cls-31" x1="102.7" y1="114.65" x2="102.7" y2="132.26"/><line class="cls-28" x1="78.7" y1="137.46" x2="78.7" y2="158.15"/><line class="cls-28" x1="118.23" y1="127.21" x2="65.05" y2="127.26"/><polyline class="cls-32" points="72.35 137.46 118.23 137.46 118.23 132.48 63.91 132.48 60.66 137.46 67.87 137.46"/><path class="cls-28" d="M72.35,137.46"/><line class="cls-31" x1="116.04" y1="126.7" x2="116.04" y2="132.56"/><line class="cls-31" x1="114.15" y1="126.7" x2="114.15" y2="132.56"/><line class="cls-31" x1="112.26" y1="126.7" x2="112.26" y2="132.56"/><line class="cls-31" x1="110.37" y1="126.7" x2="110.37" y2="132.56"/><line class="cls-31" x1="108.48" y1="126.7" x2="108.48" y2="132.56"/><line class="cls-31" x1="106.59" y1="126.7" x2="106.59" y2="132.56"/><line class="cls-31" x1="104.7" y1="126.7" x2="104.7" y2="132.56"/><line class="cls-31" x1="102.81" y1="126.7" x2="102.81" y2="132.56"/><line class="cls-31" x1="100.92" y1="126.7" x2="100.92" y2="132.56"/><line class="cls-31" x1="99.02" y1="126.7" x2="99.02" y2="132.56"/><line class="cls-31" x1="97.13" y1="126.7" x2="97.13" y2="132.56"/><line class="cls-31" x1="95.24" y1="126.7" x2="95.24" y2="132.56"/><line class="cls-31" x1="93.35" y1="126.7" x2="93.35" y2="132.56"/><line class="cls-31" x1="91.46" y1="126.7" x2="91.46" y2="132.56"/><line class="cls-31" x1="89.57" y1="126.7" x2="89.57" y2="132.56"/><line class="cls-31" x1="87.68" y1="126.7" x2="87.68" y2="132.56"/><line class="cls-31" x1="85.79" y1="132.56" x2="85.79" y2="126.7"/><line class="cls-31" x1="83.9" y1="126.7" x2="83.9" y2="132.56"/><line class="cls-31" x1="82.01" y1="126.7" x2="82.01" y2="132.56"/><line class="cls-31" x1="80.12" y1="126.7" x2="80.12" y2="132.56"/><line class="cls-31" x1="78.22" y1="126.7" x2="78.22" y2="132.56"/><line class="cls-31" x1="76.33" y1="126.7" x2="76.33" y2="132.56"/><line class="cls-31" x1="74.44" y1="126.7" x2="74.44" y2="132.56"/><line class="cls-31" x1="72.55" y1="126.7" x2="72.55" y2="132.56"/><line class="cls-31" x1="70.66" y1="126.7" x2="70.66" y2="132.56"/><line class="cls-31" x1="68.77" y1="126.7" x2="68.77" y2="132.56"/><line class="cls-31" x1="66.88" y1="126.7" x2="66.88" y2="132.56"/><polygon class="cls-33" points="119.8 112.19 104.67 112.02 85.46 91.28 99.3 92.07 119.8 112.19"/><rect class="cls-30" x="107.89" y="142.37" width="3.53" height="8.23"/><g id="window-3" data-name="window"><polyline class="cls-31" points="112.74 151.16 112.74 142.37 107.72 142.37 107.72 152.78 113.15 152.78"/><line class="cls-31" x1="109.73" y1="151.16" x2="114.15" y2="151.16"/></g><line class="cls-31" x1="107.79" y1="146.02" x2="112.53" y2="146.02"/><line class="cls-31" x1="110.42" y1="146.02" x2="110.42" y2="142.34"/><rect class="cls-30" x="68.18" y="142.37" width="3.53" height="8.23"/><g id="window-4" data-name="window"><polyline class="cls-31" points="73.03 151.16 73.03 142.37 68.01 142.37 68.01 152.78 73.43 152.78"/><line class="cls-31" x1="70.02" y1="151.16" x2="74.43" y2="151.16"/></g><line class="cls-31" x1="68.07" y1="146.02" x2="72.82" y2="146.02"/><line class="cls-31" x1="70.71" y1="146.02" x2="70.71" y2="142.34"/><path class="cls-28" d="M85.82,115.64"/><line class="cls-34" x1="85.09" y1="114.9" x2="85.09" y2="132.19"/><line class="cls-31" x1="85.09" y1="91.37" x2="85.09" y2="113.8"/><line class="cls-35" x1="65.23" y1="114.54" x2="118.19" y2="114.54"/><rect class="cls-30" x="107.89" y="117.36" width="3.53" height="8.23"/><g id="window-5" data-name="window"><polyline class="cls-31" points="112.74 126.16 112.74 117.37 107.72 117.37 107.72 127.77 113.15 127.77"/><line class="cls-31" x1="109.73" y1="126.15" x2="114.15" y2="126.15"/></g><line class="cls-31" x1="107.79" y1="121.01" x2="112.53" y2="121.01"/><line class="cls-31" x1="110.42" y1="121.01" x2="110.42" y2="117.34"/><rect class="cls-36" x="83.41" y="139.32" width="14.57" height="18.75" transform="translate(181.39 297.4) rotate(-180)"/><rect class="cls-36" x="83.41" y="156.67" width="14.57" height="1.4" transform="translate(181.39 314.75) rotate(-180)"/><rect class="cls-36" x="84.53" y="154.99" width="12.33" height="1.4" transform="translate(181.39 311.39) rotate(-180)"/><rect class="cls-37" x="87.61" y="141.26" width="6.72" height="13.45" transform="translate(181.95 295.98) rotate(-180)"/><rect class="cls-38" x="90.13" y="142.67" width="1.68" height="3.36" transform="translate(181.95 288.69) rotate(-180)"/><rect class="cls-38" x="90.13" y="147.71" width="1.68" height="3.36" transform="translate(181.95 298.78) rotate(-180)"/><circle class="cls-39" cx="93.21" cy="150.23" r="0.56"/><rect class="cls-33" x="64.87" y="111.6" width="53.87" height="3.5" transform="translate(183.61 226.7) rotate(-180)"/><polygon class="cls-40" points="119.1 111.5 103.97 111.33 85.46 91.29 99.3 92.08 119.1 111.5"/><line class="cls-34" x1="65.12" y1="114.54" x2="65.12" y2="131.95"/><path class="cls-41" d="M5.42,63.39s-4.74-3.45,0-9.06,11.21-.43,11.21-.43,1.29-3.45,3.88-3.88,5.61,1.29,5.61,1.29a11.47,11.47,0,0,1,10.78-6.9,12.4,12.4,0,0,1,12.51,9.92s6-.43,6.47,3.88-1.73,5.18-1.73,5.18Z"/><line class="cls-42" x1="0.46" y1="64.03" x2="16.42" y2="64.03"/><line class="cls-42" x1="23.39" y1="64.03" x2="18.14" y2="64.03"/><line class="cls-42" x1="25.23" y1="64.03" x2="52.24" y2="64.03"/><path class="cls-43" d="M126.65,122.09"/><path class="cls-43" d="M100.06,126"/><path class="cls-43" d="M80.42,98.42"/><path class="cls-43" d="M82,103.08"/><path class="cls-43" d="M79.68,102"/><path class="cls-43" d="M75.14,99.73"/><line class="cls-44" x1="97.28" y1="22.68" x2="89.44" y2="30.31"/><line class="cls-44" x1="88.36" y1="31.31" x2="87.28" y2="32.3"/><line class="cls-44" x1="86.21" y1="33.29" x2="85.13" y2="34.29"/><line class="cls-45" x1="106.98" y1="22.65" x2="97.83" y2="31.54"/><line class="cls-45" x1="96.68" y1="32.6" x2="95.52" y2="33.66"/><line class="cls-45" x1="94.37" y1="34.72" x2="93.22" y2="35.78"/><line class="cls-46" x1="117.75" y1="22.63" x2="106.86" y2="33.17"/><line class="cls-46" x1="105.61" y1="34.32" x2="104.35" y2="35.47"/><line class="cls-46" x1="103.1" y1="36.62" x2="101.84" y2="37.76"/><line class="cls-44" x1="128.81" y1="22.49" x2="117.65" y2="33.43"/><line class="cls-44" x1="116.39" y1="34.59" x2="115.14" y2="35.75"/><line class="cls-44" x1="113.88" y1="36.92" x2="112.63" y2="38.08"/><text class="cls-47" transform="translate(110.74 33.04) scale(1.16 1)">*</text><text class="cls-48" transform="translate(111.97 34.16) scale(1.16 1)">*</text><text class="cls-47" transform="translate(135.72 80.17) scale(1.16 1)">*</text><text class="cls-48" transform="translate(136.96 81.28) scale(1.16 1)">*</text><text class="cls-47" transform="translate(136.46 15.79) scale(1.16 1)">*</text><text class="cls-48" transform="translate(137.7 16.91) scale(1.16 1)">*</text><text class="cls-47" transform="translate(8.33 84.22) scale(1.16 1)">*</text><text class="cls-48" transform="translate(9.56 85.33) scale(1.16 1)">*</text><text class="cls-47" transform="translate(138.24 48.91) scale(1.16 1)">*</text><text class="cls-48" transform="translate(139.47 50.03) scale(1.16 1)">*</text><text class="cls-47" transform="translate(66.42 30.2) scale(1.16 1)">*</text><text class="cls-48" transform="translate(67.65 31.32) scale(1.16 1)">*</text><line class="cls-44" x1="139.52" y1="22.57" x2="122.86" y2="38.89"/><line class="cls-44" x1="121.29" y1="40.35" x2="119.71" y2="41.81"/><line class="cls-44" x1="118.14" y1="43.26" x2="116.57" y2="44.72"/><path class="cls-49" d="M27.81,92.69c0-6.34,5.65-11.48,12.62-11.48s12.62,5.14,12.62,11.48h.65c0-6.34,5.65-11.48,12.62-11.48s12.62,5.14,12.62,11.48h.65c0-6.34,5.65-11.48,12.62-11.48s12.62,5.14,12.62,11.48h.65c0-6.34,5.65-11.48,12.62-11.48s12.62,5.14,12.62,11.48l.26-.29c0-26-23.18-49.45-51.77-49.45S27.42,66.39,27.42,92.4Z"/><line class="cls-50" x1="79.19" y1="43.24" x2="79.19" y2="99.54"/><path class="cls-51" d="M79.19,99.54v13.22c0,3.25,2.9,5.89,6.47,5.89h0c3.57,0,6.47-2.64,6.47-5.89v-2.41"/><path class="cls-52" d="M104.82,92.4s4.11-37.67-24.48-48.86l-1.15-.29c28.59,0,51.77,23.44,51.77,49.45l-.26.29c0-6.34-5.65-11.48-12.62-11.48S105.47,86.64,105.47,93h-.65Z"/><path class="cls-52" d="M66.06,80.62c-7,0-12.62,5.14-12.62,11.48l-.12.29s-4.11-38.85,24.48-50h1.15V92.2l-.26-.1c0-6.34-5.65-11.48-12.62-11.48"/><path class="cls-53" d="M104.82,93s4.11-38.85-24.48-50"/><path class="cls-53" d="M53.57,93S49.46,54.13,78,42.95"/><line class="cls-50" x1="79.19" y1="39.91" x2="79.19" y2="41.38"/><path d="M127,57.3c6.4,1.83,13.58.3,18.19-4.56.25-.26-.15-.67-.4-.4-4.47,4.71-11.44,6.18-17.64,4.42a.28.28,0,0,0-.15.55Z"/><path d="M132.38,62c4.61-.1,8.81-.66,12.13-4.17.25-.27-.15-.67-.4-.4-3.21,3.4-7.29,3.9-11.73,4a.28.28,0,0,0,0,.57Z"/><path d="M145.63,56.94a4.87,4.87,0,0,1,6.38,0c.28.23.68-.17.4-.4a5.45,5.45,0,0,0-7.18,0c-.28.24.12.64.4.4Z"/><path d="M153,58.14a4.72,4.72,0,0,1,.08,2.15c-.38,1.89-2.11,2.51-3.86,2.57-.36,0-.37.58,0,.57,1.83-.06,3.69-.69,4.3-2.58a5.14,5.14,0,0,0,0-2.87.28.28,0,0,0-.55.15Z"/><path d="M147.64,59.14a1.44,1.44,0,0,1-.91,1.1S146.5,59,147.64,59.14Z"/><path d="M147.35,59.14c0-.07-.07.21-.1.28a1.31,1.31,0,0,1-.66.58l.42.17a.57.57,0,0,1,.63-.74c.36,0,.36-.55,0-.57a1.13,1.13,0,0,0-1.18,1.46.29.29,0,0,0,.42.17,1.75,1.75,0,0,0,1-1.35C148,58.78,147.4,58.78,147.35,59.14Z"/><path d="M147.12,62.9a1.44,1.44,0,0,1-1.22.74S146.09,62.42,147.12,62.9Z"/><path d="M146.88,62.76a1.19,1.19,0,0,1-1,.6l.27.36c.08-.49.37-.74.87-.54.34.14.48-.41.15-.55a1.11,1.11,0,0,0-1.57.93c0,.16.07.38.27.36a1.78,1.78,0,0,0,1.47-.88C147.53,62.72,147,62.43,146.88,62.76Z"/><path d="M142.88,62.9a1.44,1.44,0,0,1-1.22.74S141.84,62.42,142.88,62.9Z"/><path d="M142.63,62.76a1.19,1.19,0,0,1-1,.6l.27.36c.08-.49.37-.74.87-.54.34.14.48-.41.15-.55a1.11,1.11,0,0,0-1.57.93c0,.16.07.38.27.36a1.78,1.78,0,0,0,1.47-.88C143.28,62.72,142.79,62.43,142.63,62.76Z"/><path class="cls-54" d="M146,51.67s8.25-4.39,9.84,6"/><path class="cls-41" d="M94.76,20.54s-5.57-3.73,0-9.8,13.17-.47,13.17-.47,1.52-3.73,4.56-4.2,6.58,1.4,6.58,1.4S122.11,0,131.74,0s13.68,6.53,14.69,10.73c0,0,7.09-.47,7.6,4.2s-2,5.6-2,5.6Z"/><path d="M18.3,24.54c9,2.35,19.06.55,25.78-6,.36-.35-.19-.89-.55-.55-6.51,6.31-16.37,8-25,5.77a.39.39,0,0,0-.21.74Z"/><path d="M17.36,31.18c9,2.35,19.06.55,25.78-6,.36-.35-.19-.89-.55-.55-6.51,6.31-16.37,8-25,5.77a.39.39,0,0,0-.21.74Z"/><path d="M44.73,24.05a7.4,7.4,0,0,1,9.15.06c.4.3.78-.37.39-.67a8.14,8.14,0,0,0-10.09.06c-.39.3.16.85.55.55Z"/><path d="M55.14,25.61a5.69,5.69,0,0,1,.1,2.82c-.58,2.57-3.16,3.27-5.49,3.34-.5,0-.5.79,0,.77,2.48-.07,5.2-.8,6.09-3.39a6.29,6.29,0,0,0,0-3.74c-.14-.47-.89-.27-.74.21Z"/><path d="M46.05,26.92a1.9,1.9,0,0,1-1.28,1.44S44.45,26.78,46.05,26.92Z"/><path d="M45.33,31.83a2,2,0,0,1-1.73,1A1.19,1.19,0,0,1,45.33,31.83Z"/><path d="M39.3,31.83a2,2,0,0,1-1.73,1A1.19,1.19,0,0,1,39.3,31.83Z"/><path class="cls-55" d="M45.33,17.16s11.7-5.73,14,7.78"/><line class="cls-56" x1="92.14" y1="21.24" x2="105.52" y2="21.24"/><line class="cls-57" x1="115.87" y1="21.24" x2="109.7" y2="21.24"/><line class="cls-57" x1="118.02" y1="21.24" x2="149.74" y2="21.24"/><path class="cls-58" d="M113.43,114c-7.35,7.08-17.68,3.93-17.68,3.93S84.68,144.83,113.43,156c0,0,27.18-8.66,19-37.3,0,0-14.54,1.26-19-4.72"/><path class="cls-59" d="M113.81,150.57s-17.64-9.5-13.81-26.52c0,0,4.79,2.21,13.81-2.44a15.36,15.36,0,0,0,13.26,2.44s3,19.73-13.26,26.52"/><path class="cls-60" d="M102.2,140.26s-4.72-5.67-2.2-16.21c0,0,4.79,2.21,13.81-2.44a15.36,15.36,0,0,0,13.26,2.44s2.36,9.6-2.2,17"/><polyline class="cls-60" points="108.66 132.86 113.4 139.27 119.36 129.87"/><line class="cls-60" x1="104.4" y1="145.34" x2="105.71" y2="144.03"/><line class="cls-60" x1="109.63" y1="149.57" x2="110.68" y2="147.95"/><line class="cls-60" x1="116.59" y1="149.57" x2="115.91" y2="147.95"/><line class="cls-60" x1="122.18" y1="145.76" x2="120.93" y2="144.34"/></g></g></svg>