<svg xmlns="http://www.w3.org/2000/svg" xmlns:xlink="http://www.w3.org/1999/xlink" viewBox="0 0 250.85 259.95"><defs><style>.cls-1,.cls-4,.cls-6{fill:none;}.cls-2{clip-path:url(#clip-path);}.cls-10,.cls-3,.cls-7{fill:#fff;}.cls-10,.cls-3,.cls-4,.cls-5,.cls-6,.cls-7,.cls-8{stroke:#ccc;}.cls-10,.cls-3,.cls-4,.cls-5,.cls-6{stroke-miterlimit:10;}.cls-3,.cls-7,.cls-8{stroke-width:2px;}.cls-5{fill:#ccc;}.cls-6{stroke-linecap:round;}.cls-7,.cls-8{stroke-linejoin:round;}.cls-8{fill:#f7df75;}.cls-9{clip-path:url(#clip-path-2);}.cls-11{fill:#fcc062;}.cls-12{fill:#cee4f5;}.cls-13{fill:#722c36;}</style><clipPath id="clip-path"><rect class="cls-1" x="6.76" y="6.79" width="240" height="240" transform="translate(-0.04 253.55) rotate(-90)"/></clipPath><clipPath id="clip-path-2"><polyline class="cls-1" points="58.76 229.79 55.76 223.79 42.76 220.79 40.76 227.79 35.76 231.79 29.26 200.29 64.26 194.29 66.76 229.79 63.03 227.76"/></clipPath></defs><title>InsuranceIllustrations</title><g id="Layer_2" data-name="Layer 2"><g id="Services_Icon" data-name="Services Icon"><g class="cls-2"><path class="cls-3" d="M181.1,87.67a6.88,6.88,0,1,1,13.75-.13"/><path class="cls-3" d="M181.1,87.67a6.88,6.88,0,1,1-13.75.13"/><path class="cls-3" d="M153.6,87.93a6.88,6.88,0,1,1,13.75-.13"/><path class="cls-3" d="M153.6,87.93a6.88,6.88,0,1,1-13.75.13"/><path class="cls-3" d="M126.1,88.18a6.88,6.88,0,0,1,13.75-.13"/><path class="cls-3" d="M126.1,88.18a6.88,6.88,0,1,1-13.75.13"/><path class="cls-3" d="M98.6,88.44a6.88,6.88,0,1,1,13.75-.13"/><path class="cls-3" d="M98.6,88.44a6.88,6.88,0,0,1-13.75.13"/><path class="cls-3" d="M236.1,87.16A6.88,6.88,0,1,1,249.85,87"/><path class="cls-3" d="M236.1,87.16a6.88,6.88,0,0,1-13.75.13"/><path class="cls-3" d="M208.6,87.42a6.88,6.88,0,0,1,13.75-.13"/><path class="cls-3" d="M208.6,87.42a6.88,6.88,0,1,1-13.75.13"/><path class="cls-3" d="M70.64,88.7a6.88,6.88,0,0,1,13.75-.13"/><path class="cls-3" d="M70.64,88.7a6.88,6.88,0,1,1-13.75.13"/><path class="cls-3" d="M43.14,89a6.88,6.88,0,1,1,13.75-.13"/><path class="cls-3" d="M43.14,89a6.88,6.88,0,1,1-13.75.13"/><path class="cls-3" d="M15.64,89.21a6.88,6.88,0,0,1,13.75-.13"/><path class="cls-3" d="M15.64,89.21a6.88,6.88,0,0,1-13.75.13"/><path class="cls-3" d="M181,74a6.88,6.88,0,1,1,13.75-.13"/><path class="cls-3" d="M181,74a6.88,6.88,0,1,1-13.75.13"/><path class="cls-3" d="M153.47,74.25a6.88,6.88,0,0,1,13.75-.13"/><path class="cls-3" d="M153.47,74.25a6.88,6.88,0,1,1-13.75.13"/><path class="cls-3" d="M126,74.51a6.88,6.88,0,1,1,13.75-.13"/><path class="cls-3" d="M126,74.51a6.88,6.88,0,1,1-13.75.13"/><path class="cls-3" d="M98.47,74.76a6.88,6.88,0,1,1,13.75-.13"/><path class="cls-3" d="M98.47,74.76a6.88,6.88,0,1,1-13.75.13"/><path class="cls-3" d="M236,73.49a6.88,6.88,0,1,1,13.75-.13"/><path class="cls-3" d="M236,73.49a6.88,6.88,0,1,1-13.75.13"/><path class="cls-3" d="M208.47,73.74a6.88,6.88,0,1,1,13.75-.13"/><path class="cls-3" d="M208.47,73.74a6.88,6.88,0,1,1-13.75.13"/><path class="cls-3" d="M70.51,75a6.88,6.88,0,1,1,13.75-.13"/><path class="cls-3" d="M70.51,75a6.88,6.88,0,0,1-13.75.13"/><path class="cls-3" d="M43,75.28a6.88,6.88,0,0,1,13.75-.13"/><path class="cls-3" d="M43,75.28a6.88,6.88,0,1,1-13.75.13"/><path class="cls-3" d="M15.51,75.54a6.88,6.88,0,1,1,13.75-.13"/><path class="cls-3" d="M15.51,75.54a6.88,6.88,0,1,1-13.75.13"/><path class="cls-3" d="M180.84,60.32a6.88,6.88,0,0,1,13.75-.13"/><path class="cls-3" d="M180.84,60.32a6.88,6.88,0,1,1-13.75.13"/><path class="cls-3" d="M153.34,60.58a6.88,6.88,0,1,1,13.75-.13"/><path class="cls-3" d="M153.34,60.58a6.88,6.88,0,1,1-13.75.13"/><path class="cls-3" d="M125.84,60.84a6.88,6.88,0,1,1,13.75-.13"/><path class="cls-3" d="M125.84,60.84a6.88,6.88,0,1,1-13.75.13"/><path class="cls-3" d="M98.34,61.09A6.88,6.88,0,0,1,112.09,61"/><path class="cls-3" d="M98.34,61.09a6.88,6.88,0,1,1-13.75.13"/><path class="cls-3" d="M235.84,59.81a6.88,6.88,0,1,1,13.75-.13"/><path class="cls-3" d="M235.84,59.81a6.88,6.88,0,1,1-13.75.13"/><path class="cls-3" d="M208.34,60.07a6.88,6.88,0,1,1,13.75-.13"/><path class="cls-3" d="M208.34,60.07a6.88,6.88,0,0,1-13.75.13"/><path class="cls-3" d="M70.39,61.35a6.88,6.88,0,1,1,13.75-.13"/><path class="cls-3" d="M70.39,61.35a6.88,6.88,0,0,1-13.75.13"/><path class="cls-3" d="M42.89,61.61a6.88,6.88,0,0,1,13.75-.13"/><path class="cls-3" d="M42.89,61.61a6.88,6.88,0,1,1-13.75.13"/><path class="cls-3" d="M15.39,61.86a6.88,6.88,0,0,1,13.75-.13"/><path class="cls-3" d="M15.39,61.86A6.88,6.88,0,1,1,1.64,62"/><path class="cls-3" d="M180.71,46.65a6.88,6.88,0,1,1,13.75-.13"/><path class="cls-3" d="M180.71,46.65a6.88,6.88,0,1,1-13.75.13"/><path class="cls-3" d="M153.21,46.91A6.88,6.88,0,1,1,167,46.78"/><path class="cls-3" d="M153.21,46.91a6.88,6.88,0,1,1-13.75.13"/><path class="cls-3" d="M125.71,47.16A6.88,6.88,0,0,1,139.46,47"/><path class="cls-3" d="M125.71,47.16a6.88,6.88,0,1,1-13.75.13"/><path class="cls-3" d="M98.21,47.42A6.88,6.88,0,1,1,112,47.29"/><path class="cls-3" d="M98.21,47.42a6.88,6.88,0,0,1-13.75.13"/><path class="cls-3" d="M235.72,46.14A6.88,6.88,0,1,1,249.47,46"/><path class="cls-3" d="M235.72,46.14a6.88,6.88,0,0,1-13.75.13"/><path class="cls-3" d="M208.22,46.39A6.88,6.88,0,1,1,222,46.27"/><path class="cls-3" d="M208.22,46.39a6.88,6.88,0,1,1-13.75.13"/><path class="cls-3" d="M70.26,47.68A6.88,6.88,0,0,1,84,47.55"/><path class="cls-3" d="M70.26,47.68a6.88,6.88,0,0,1-13.75.13"/><path class="cls-3" d="M42.76,47.93a6.88,6.88,0,1,1,13.75-.13"/><path class="cls-3" d="M42.76,47.93A6.88,6.88,0,0,1,29,48.06"/><path class="cls-3" d="M15.26,48.19A6.88,6.88,0,0,1,29,48.06"/><path class="cls-3" d="M15.26,48.19a6.88,6.88,0,1,1-13.75.13"/><path class="cls-3" d="M180.59,33a6.88,6.88,0,1,1,13.75-.13"/><path class="cls-3" d="M180.59,33a6.88,6.88,0,0,1-13.75.13"/><path class="cls-3" d="M153.09,33.23a6.88,6.88,0,0,1,13.75-.13"/><path class="cls-3" d="M153.09,33.23a6.88,6.88,0,1,1-13.75.13"/><path class="cls-3" d="M125.59,33.49a6.88,6.88,0,1,1,13.75-.13"/><path class="cls-3" d="M125.59,33.49a6.88,6.88,0,1,1-13.75.13"/><path class="cls-3" d="M98.09,33.74a6.88,6.88,0,0,1,13.75-.13"/><path class="cls-3" d="M98.09,33.74a6.88,6.88,0,1,1-13.75.13"/><path class="cls-3" d="M235.59,32.46a6.88,6.88,0,1,1,13.75-.13"/><path class="cls-3" d="M235.59,32.46a6.88,6.88,0,1,1-13.75.13"/><path class="cls-3" d="M208.09,32.72a6.88,6.88,0,1,1,13.75-.13"/><path class="cls-3" d="M208.09,32.72a6.88,6.88,0,1,1-13.75.13"/><path class="cls-3" d="M70.13,34a6.88,6.88,0,1,1,13.75-.13"/><path class="cls-3" d="M70.13,34a6.88,6.88,0,1,1-13.75.13"/><path class="cls-3" d="M42.63,34.26a6.88,6.88,0,0,1,13.75-.13"/><path class="cls-3" d="M42.63,34.26a6.88,6.88,0,0,1-13.75.13"/><path class="cls-3" d="M15.13,34.51a6.88,6.88,0,0,1,13.75-.13"/><path class="cls-3" d="M15.13,34.51a6.88,6.88,0,1,1-13.75.13"/><path class="cls-3" d="M180.46,19.3a6.88,6.88,0,1,1,13.75-.13"/><path class="cls-3" d="M180.46,19.3a6.88,6.88,0,1,1-13.75.13"/><path class="cls-3" d="M153,19.56a6.88,6.88,0,1,1,13.75-.13"/><path class="cls-3" d="M153,19.56a6.88,6.88,0,1,1-13.75.13"/><path class="cls-3" d="M125.46,19.81a6.88,6.88,0,1,1,13.75-.13"/><path class="cls-3" d="M125.46,19.81a6.88,6.88,0,1,1-13.75.13"/><path class="cls-3" d="M98,20.07a6.88,6.88,0,0,1,13.75-.13"/><path class="cls-3" d="M98,20.07a6.88,6.88,0,0,1-13.75.13"/><path class="cls-3" d="M235.46,18.79a6.88,6.88,0,1,1,13.75-.13"/><path class="cls-3" d="M235.46,18.79a6.88,6.88,0,1,1-13.75.13"/><path class="cls-3" d="M208,19a6.88,6.88,0,1,1,13.75-.13"/><path class="cls-3" d="M208,19a6.88,6.88,0,0,1-13.75.13"/><path class="cls-3" d="M70,20.33a6.88,6.88,0,0,1,13.75-.13"/><path class="cls-3" d="M70,20.33a6.88,6.88,0,1,1-13.75.13"/><path class="cls-3" d="M42.5,20.58a6.88,6.88,0,1,1,13.75-.13"/><path class="cls-3" d="M42.5,20.58a6.88,6.88,0,0,1-13.75.13"/><path class="cls-3" d="M15,20.84a6.88,6.88,0,1,1,13.75-.13"/><path class="cls-3" d="M15,20.84A6.88,6.88,0,1,1,1.25,21"/><path class="cls-3" d="M181.1,196.85a6.88,6.88,0,1,1,13.75-.13"/><path class="cls-3" d="M181.1,196.85a6.88,6.88,0,1,1-13.75.13"/><path class="cls-3" d="M153.6,197.11a6.88,6.88,0,0,1,13.75-.13"/><path class="cls-3" d="M153.6,197.11a6.88,6.88,0,0,1-13.75.13"/><path class="cls-3" d="M126.1,197.36a6.88,6.88,0,0,1,13.75-.13"/><path class="cls-3" d="M126.1,197.36a6.88,6.88,0,1,1-13.75.13"/><path class="cls-3" d="M98.6,197.62a6.88,6.88,0,1,1,13.75-.13"/><path class="cls-3" d="M98.6,197.62a6.88,6.88,0,1,1-13.75.13"/><path class="cls-3" d="M236.1,196.34a6.88,6.88,0,0,1,13.75-.13"/><path class="cls-3" d="M236.1,196.34a6.88,6.88,0,0,1-13.75.13"/><path class="cls-3" d="M208.6,196.59a6.88,6.88,0,1,1,13.75-.13"/><path class="cls-3" d="M208.6,196.59a6.88,6.88,0,1,1-13.75.13"/><path class="cls-3" d="M70.64,197.88a6.88,6.88,0,0,1,13.75-.13"/><path class="cls-3" d="M70.64,197.88a6.88,6.88,0,0,1-13.75.13"/><path class="cls-3" d="M43.14,198.13A6.88,6.88,0,0,1,56.89,198"/><path class="cls-3" d="M43.14,198.13a6.88,6.88,0,0,1-13.75.13"/><path class="cls-3" d="M15.64,198.39a6.88,6.88,0,0,1,13.75-.13"/><path class="cls-3" d="M15.64,198.39a6.88,6.88,0,1,1-13.75.13"/><path class="cls-3" d="M181,183.18a6.88,6.88,0,0,1,13.75-.13"/><path class="cls-3" d="M181,183.18a6.88,6.88,0,1,1-13.75.13"/><path class="cls-3" d="M153.47,183.43a6.88,6.88,0,0,1,13.75-.13"/><path class="cls-3" d="M153.47,183.43a6.88,6.88,0,1,1-13.75.13"/><path class="cls-3" d="M126,183.69a6.88,6.88,0,0,1,13.75-.13"/><path class="cls-3" d="M126,183.69a6.88,6.88,0,1,1-13.75.13"/><path class="cls-3" d="M98.47,183.94a6.88,6.88,0,1,1,13.75-.13"/><path class="cls-3" d="M98.47,183.94a6.88,6.88,0,0,1-13.75.13"/><path class="cls-3" d="M236,182.66a6.88,6.88,0,1,1,13.75-.13"/><path class="cls-3" d="M236,182.66a6.88,6.88,0,1,1-13.75.13"/><path class="cls-3" d="M208.47,182.92a6.88,6.88,0,0,1,13.75-.13"/><path class="cls-3" d="M208.47,182.92a6.88,6.88,0,0,1-13.75.13"/><path class="cls-3" d="M70.51,184.2a6.88,6.88,0,0,1,13.75-.13"/><path class="cls-3" d="M70.51,184.2a6.88,6.88,0,1,1-13.75.13"/><path class="cls-3" d="M43,184.46a6.88,6.88,0,0,1,13.75-.13"/><path class="cls-3" d="M43,184.46a6.88,6.88,0,1,1-13.75.13"/><path class="cls-3" d="M15.51,184.71a6.88,6.88,0,0,1,13.75-.13"/><path class="cls-3" d="M15.51,184.71a6.88,6.88,0,0,1-13.75.13"/><path class="cls-3" d="M180.84,169.5a6.88,6.88,0,0,1,13.75-.13"/><path class="cls-3" d="M180.84,169.5a6.88,6.88,0,1,1-13.75.13"/><path class="cls-3" d="M153.34,169.76a6.88,6.88,0,1,1,13.75-.13"/><path class="cls-3" d="M153.34,169.76a6.88,6.88,0,1,1-13.75.13"/><path class="cls-3" d="M125.84,170a6.88,6.88,0,1,1,13.75-.13"/><path class="cls-3" d="M125.84,170a6.88,6.88,0,0,1-13.75.13"/><path class="cls-3" d="M98.34,170.27a6.88,6.88,0,0,1,13.75-.13"/><path class="cls-3" d="M98.34,170.27a6.88,6.88,0,0,1-13.75.13"/><path class="cls-3" d="M235.84,169a6.88,6.88,0,0,1,13.75-.13"/><path class="cls-3" d="M235.84,169a6.88,6.88,0,1,1-13.75.13"/><path class="cls-3" d="M208.34,169.25a6.88,6.88,0,0,1,13.75-.13"/><path class="cls-3" d="M208.34,169.25a6.88,6.88,0,1,1-13.75.13"/><path class="cls-3" d="M70.39,170.53a6.88,6.88,0,0,1,13.75-.13"/><path class="cls-3" d="M70.39,170.53a6.88,6.88,0,0,1-13.75.13"/><path class="cls-3" d="M42.89,170.78a6.88,6.88,0,1,1,13.75-.13"/><path class="cls-3" d="M42.89,170.78a6.88,6.88,0,0,1-13.75.13"/><path class="cls-3" d="M15.39,171a6.88,6.88,0,0,1,13.75-.13"/><path class="cls-3" d="M15.39,171a6.88,6.88,0,0,1-13.75.13"/><path class="cls-3" d="M180.71,155.83a6.88,6.88,0,1,1,13.75-.13"/><path class="cls-3" d="M180.71,155.83A6.88,6.88,0,1,1,167,156"/><path class="cls-3" d="M153.21,156.08A6.88,6.88,0,0,1,167,156"/><path class="cls-3" d="M153.21,156.08a6.88,6.88,0,0,1-13.75.13"/><path class="cls-3" d="M125.71,156.34a6.88,6.88,0,0,1,13.75-.13"/><path class="cls-3" d="M125.71,156.34a6.88,6.88,0,0,1-13.75.13"/><path class="cls-3" d="M98.21,156.59a6.88,6.88,0,1,1,13.75-.13"/><path class="cls-3" d="M98.21,156.59a6.88,6.88,0,1,1-13.75.13"/><path class="cls-3" d="M235.72,155.32a6.88,6.88,0,0,1,13.75-.13"/><path class="cls-3" d="M235.72,155.32a6.88,6.88,0,0,1-13.75.13"/><path class="cls-3" d="M208.22,155.57a6.88,6.88,0,1,1,13.75-.13"/><path class="cls-3" d="M208.22,155.57a6.88,6.88,0,1,1-13.75.13"/><path class="cls-3" d="M70.26,156.85A6.88,6.88,0,1,1,84,156.73"/><path class="cls-3" d="M70.26,156.85a6.88,6.88,0,0,1-13.75.13"/><path class="cls-3" d="M42.76,157.11A6.88,6.88,0,0,1,56.51,157"/><path class="cls-3" d="M42.76,157.11a6.88,6.88,0,0,1-13.75.13"/><path class="cls-3" d="M15.26,157.37A6.88,6.88,0,0,1,29,157.24"/><path class="cls-3" d="M15.26,157.37a6.88,6.88,0,1,1-13.75.13"/><path class="cls-3" d="M180.59,142.15a6.88,6.88,0,0,1,13.75-.13"/><path class="cls-3" d="M180.59,142.15a6.88,6.88,0,0,1-13.75.13"/><path class="cls-3" d="M153.09,142.41a6.88,6.88,0,0,1,13.75-.13"/><path class="cls-3" d="M153.09,142.41a6.88,6.88,0,1,1-13.75.13"/><path class="cls-3" d="M125.59,142.66a6.88,6.88,0,0,1,13.75-.13"/><path class="cls-3" d="M125.59,142.66a6.88,6.88,0,1,1-13.75.13"/><path class="cls-3" d="M98.09,142.92a6.88,6.88,0,1,1,13.75-.13"/><path class="cls-3" d="M98.09,142.92a6.88,6.88,0,0,1-13.75.13"/><path class="cls-3" d="M235.59,141.64a6.88,6.88,0,1,1,13.75-.13"/><path class="cls-3" d="M235.59,141.64a6.88,6.88,0,1,1-13.75.13"/><path class="cls-3" d="M208.09,141.9a6.88,6.88,0,0,1,13.75-.13"/><path class="cls-3" d="M208.09,141.9a6.88,6.88,0,1,1-13.75.13"/><path class="cls-3" d="M70.13,143.18a6.88,6.88,0,0,1,13.75-.13"/><path class="cls-3" d="M70.13,143.18a6.88,6.88,0,1,1-13.75.13"/><path class="cls-3" d="M42.63,143.44a6.88,6.88,0,0,1,13.75-.13"/><path class="cls-3" d="M42.63,143.44a6.88,6.88,0,1,1-13.75.13"/><path class="cls-3" d="M15.13,143.69a6.88,6.88,0,0,1,13.75-.13"/><path class="cls-3" d="M15.13,143.69a6.88,6.88,0,0,1-13.75.13"/><path class="cls-3" d="M180.46,128.48a6.88,6.88,0,0,1,13.75-.13"/><path class="cls-3" d="M180.46,128.48a6.88,6.88,0,1,1-13.75.13"/><path class="cls-3" d="M153,128.73a6.88,6.88,0,1,1,13.75-.13"/><path class="cls-3" d="M153,128.73a6.88,6.88,0,1,1-13.75.13"/><path class="cls-3" d="M125.46,129a6.88,6.88,0,1,1,13.75-.13"/><path class="cls-3" d="M125.46,129a6.88,6.88,0,0,1-13.75.13"/><path class="cls-3" d="M98,129.25a6.88,6.88,0,0,1,13.75-.13"/><path class="cls-3" d="M98,129.25a6.88,6.88,0,0,1-13.75.13"/><path class="cls-3" d="M235.46,128a6.88,6.88,0,0,1,13.75-.13"/><path class="cls-3" d="M235.46,128a6.88,6.88,0,0,1-13.75.13"/><path class="cls-3" d="M208,128.22a6.88,6.88,0,0,1,13.75-.13"/><path class="cls-3" d="M208,128.22a6.88,6.88,0,1,1-13.75.13"/><path class="cls-3" d="M70,129.51a6.88,6.88,0,0,1,13.75-.13"/><path class="cls-3" d="M70,129.51a6.88,6.88,0,0,1-13.75.13"/><path class="cls-3" d="M42.5,129.76a6.88,6.88,0,1,1,13.75-.13"/><path class="cls-3" d="M42.5,129.76a6.88,6.88,0,0,1-13.75.13"/><path class="cls-3" d="M15,130a6.88,6.88,0,1,1,13.75-.13"/><path class="cls-3" d="M15,130a6.88,6.88,0,0,1-13.75.13"/><path class="cls-3" d="M180.33,114.8a6.88,6.88,0,1,1,13.75-.13"/><path class="cls-3" d="M180.33,114.8a6.88,6.88,0,1,1-13.75.13"/><path class="cls-3" d="M152.83,115.06a6.88,6.88,0,0,1,13.75-.13"/><path class="cls-3" d="M152.83,115.06a6.88,6.88,0,0,1-13.75.13"/><path class="cls-3" d="M125.33,115.32a6.88,6.88,0,0,1,13.75-.13"/><path class="cls-3" d="M125.33,115.32a6.88,6.88,0,0,1-13.75.13"/><path class="cls-3" d="M97.83,115.57a6.88,6.88,0,0,1,13.75-.13"/><path class="cls-3" d="M97.83,115.57a6.88,6.88,0,1,1-13.75.13"/><path class="cls-3" d="M235.33,114.29a6.88,6.88,0,0,1,13.75-.13"/><path class="cls-3" d="M235.33,114.29a6.88,6.88,0,1,1-13.75.13"/><path class="cls-3" d="M207.83,114.55a6.88,6.88,0,0,1,13.75-.13"/><path class="cls-3" d="M207.83,114.55a6.88,6.88,0,1,1-13.75.13"/><path class="cls-3" d="M69.88,115.83a6.88,6.88,0,1,1,13.75-.13"/><path class="cls-3" d="M69.88,115.83a6.88,6.88,0,0,1-13.75.13"/><path class="cls-3" d="M42.38,116.09A6.88,6.88,0,0,1,56.13,116"/><path class="cls-3" d="M42.38,116.09a6.88,6.88,0,0,1-13.75.13"/><path class="cls-3" d="M14.88,116.34a6.88,6.88,0,0,1,13.75-.13"/><path class="cls-3" d="M14.88,116.34a6.88,6.88,0,0,1-13.75.13"/><path class="cls-3" d="M180.21,101.13A6.88,6.88,0,1,1,194,101"/><path class="cls-3" d="M180.21,101.13a6.88,6.88,0,0,1-13.75.13"/><path class="cls-3" d="M152.71,101.39a6.88,6.88,0,1,1,13.75-.13"/><path class="cls-3" d="M152.71,101.39a6.88,6.88,0,1,1-13.75.13"/><path class="cls-3" d="M125.21,101.64a6.88,6.88,0,0,1,13.75-.13"/><path class="cls-3" d="M125.21,101.64a6.88,6.88,0,1,1-13.75.13"/><path class="cls-3" d="M97.71,101.9a6.88,6.88,0,0,1,13.75-.13"/><path class="cls-3" d="M97.71,101.9A6.88,6.88,0,0,1,84,102"/><path class="cls-3" d="M235.21,100.62a6.88,6.88,0,1,1,13.75-.13"/><path class="cls-3" d="M235.21,100.62a6.88,6.88,0,1,1-13.75.13"/><path class="cls-3" d="M207.71,100.88a6.88,6.88,0,1,1,13.75-.13"/><path class="cls-3" d="M207.71,100.88A6.88,6.88,0,1,1,194,101"/><path class="cls-3" d="M69.75,102.16A6.88,6.88,0,1,1,83.5,102"/><path class="cls-3" d="M69.75,102.16a6.88,6.88,0,0,1-13.75.13"/><path class="cls-3" d="M42.25,102.41A6.88,6.88,0,0,1,56,102.29"/><path class="cls-3" d="M42.25,102.41a6.88,6.88,0,1,1-13.75.13"/><path class="cls-3" d="M14.75,102.67a6.88,6.88,0,0,1,13.75-.13"/><path class="cls-3" d="M14.75,102.67A6.88,6.88,0,0,1,1,102.8"/><path class="cls-3" d="M180.59,250.47a6.88,6.88,0,1,1,13.75-.13"/><path class="cls-3" d="M180.59,250.47a6.88,6.88,0,0,1-13.75.13"/><path class="cls-3" d="M153.09,250.73a6.88,6.88,0,0,1,13.75-.13"/><path class="cls-3" d="M153.09,250.73a6.88,6.88,0,0,1-13.75.13"/><path class="cls-3" d="M125.59,251a6.88,6.88,0,0,1,13.75-.13"/><path class="cls-3" d="M125.59,251a6.88,6.88,0,1,1-13.75.13"/><path class="cls-3" d="M98.09,251.24a6.88,6.88,0,0,1,13.75-.13"/><path class="cls-3" d="M98.09,251.24a6.88,6.88,0,1,1-13.75.13"/><path class="cls-3" d="M235.59,250a6.88,6.88,0,0,1,13.75-.13"/><path class="cls-3" d="M235.59,250a6.88,6.88,0,1,1-13.75.13"/><path class="cls-3" d="M208.09,250.22a6.88,6.88,0,1,1,13.75-.13"/><path class="cls-3" d="M208.09,250.22a6.88,6.88,0,1,1-13.75.13"/><path class="cls-3" d="M70.13,251.5a6.88,6.88,0,0,1,13.75-.13"/><path class="cls-3" d="M70.13,251.5a6.88,6.88,0,0,1-13.75.13"/><path class="cls-3" d="M42.63,251.75a6.88,6.88,0,0,1,13.75-.13"/><path class="cls-3" d="M42.63,251.75a6.88,6.88,0,0,1-13.75.13"/><path class="cls-3" d="M15.13,252a6.88,6.88,0,0,1,13.75-.13"/><path class="cls-3" d="M15.13,252a6.88,6.88,0,1,1-13.75.13"/><path class="cls-3" d="M180.46,236.8a6.88,6.88,0,0,1,13.75-.13"/><path class="cls-3" d="M180.46,236.8a6.88,6.88,0,1,1-13.75.13"/><path class="cls-3" d="M153,237.05a6.88,6.88,0,0,1,13.75-.13"/><path class="cls-3" d="M153,237.05a6.88,6.88,0,1,1-13.75.13"/><path class="cls-3" d="M125.46,237.31a6.88,6.88,0,0,1,13.75-.13"/><path class="cls-3" d="M125.46,237.31a6.88,6.88,0,0,1-13.75.13"/><path class="cls-3" d="M98,237.56a6.88,6.88,0,1,1,13.75-.13"/><path class="cls-3" d="M98,237.56a6.88,6.88,0,0,1-13.75.13"/><path class="cls-3" d="M235.46,236.29a6.88,6.88,0,1,1,13.75-.13"/><path class="cls-3" d="M235.46,236.29a6.88,6.88,0,1,1-13.75.13"/><path class="cls-3" d="M208,236.54a6.88,6.88,0,0,1,13.75-.13"/><path class="cls-3" d="M208,236.54a6.88,6.88,0,0,1-13.75.13"/><path class="cls-3" d="M70,237.82a6.88,6.88,0,0,1,13.75-.13"/><path class="cls-3" d="M70,237.82a6.88,6.88,0,1,1-13.75.13"/><path class="cls-3" d="M42.5,238.08A6.88,6.88,0,0,1,56.25,238"/><path class="cls-3" d="M42.5,238.08a6.88,6.88,0,1,1-13.75.13"/><path class="cls-3" d="M15,238.34a6.88,6.88,0,0,1,13.75-.13"/><path class="cls-3" d="M15,238.34a6.88,6.88,0,0,1-13.75.13"/><path class="cls-3" d="M180.33,223.12a6.88,6.88,0,0,1,13.75-.13"/><path class="cls-3" d="M180.33,223.12a6.88,6.88,0,1,1-13.75.13"/><path class="cls-3" d="M152.83,223.38a6.88,6.88,0,1,1,13.75-.13"/><path class="cls-3" d="M152.83,223.38a6.88,6.88,0,0,1-13.75.13"/><path class="cls-3" d="M125.33,223.63a6.88,6.88,0,1,1,13.75-.13"/><path class="cls-3" d="M125.33,223.63a6.88,6.88,0,1,1-13.75.13"/><path class="cls-3" d="M97.83,223.89a6.88,6.88,0,0,1,13.75-.13"/><path class="cls-3" d="M97.83,223.89a6.88,6.88,0,0,1-13.75.13"/><path class="cls-3" d="M235.33,222.61a6.88,6.88,0,0,1,13.75-.13"/><path class="cls-3" d="M235.33,222.61a6.88,6.88,0,1,1-13.75.13"/><path class="cls-3" d="M207.83,222.87a6.88,6.88,0,0,1,13.75-.13"/><path class="cls-3" d="M207.83,222.87a6.88,6.88,0,1,1-13.75.13"/><path class="cls-3" d="M69.88,224.15A6.88,6.88,0,0,1,83.63,224"/><path class="cls-3" d="M69.88,224.15a6.88,6.88,0,0,1-13.75.13"/><path class="cls-3" d="M42.38,224.41a6.88,6.88,0,1,1,13.75-.13"/><path class="cls-3" d="M42.38,224.41a6.88,6.88,0,0,1-13.75.13"/><path class="cls-3" d="M14.88,224.66a6.88,6.88,0,1,1,13.75-.13"/><path class="cls-3" d="M14.88,224.66a6.88,6.88,0,0,1-13.75.13"/><path class="cls-3" d="M180.21,209.45a6.88,6.88,0,1,1,13.75-.13"/><path class="cls-3" d="M180.21,209.45a6.88,6.88,0,0,1-13.75.13"/><path class="cls-3" d="M152.71,209.7a6.88,6.88,0,0,1,13.75-.13"/><path class="cls-3" d="M152.71,209.7a6.88,6.88,0,1,1-13.75.13"/><path class="cls-3" d="M125.21,210a6.88,6.88,0,0,1,13.75-.13"/><path class="cls-3" d="M125.21,210a6.88,6.88,0,0,1-13.75.13"/><path class="cls-3" d="M97.71,210.22a6.88,6.88,0,0,1,13.75-.13"/><path class="cls-3" d="M97.71,210.22a6.88,6.88,0,1,1-13.75.13"/><path class="cls-3" d="M235.21,208.94a6.88,6.88,0,0,1,13.75-.13"/><path class="cls-3" d="M235.21,208.94a6.88,6.88,0,1,1-13.75.13"/><path class="cls-3" d="M207.71,209.19a6.88,6.88,0,1,1,13.75-.13"/><path class="cls-3" d="M207.71,209.19a6.88,6.88,0,1,1-13.75.13"/><path class="cls-3" d="M69.75,210.48a6.88,6.88,0,1,1,13.75-.13"/><path class="cls-3" d="M69.75,210.48A6.88,6.88,0,0,1,56,210.6"/><path class="cls-3" d="M42.25,210.73A6.88,6.88,0,0,1,56,210.6"/><path class="cls-3" d="M42.25,210.73a6.88,6.88,0,0,1-13.75.13"/><path class="cls-3" d="M14.75,211a6.88,6.88,0,0,1,13.75-.13"/><path class="cls-3" d="M14.75,211A6.88,6.88,0,1,1,1,211.11"/><line class="cls-4" x1="143.4" y1="214.05" x2="141.73" y2="225.51"/><path class="cls-4" d="M147.94,210.42v-1.1a.53.53,0,0,0-.53-.53h-2.29a.53.53,0,0,0-.53.53v1.1"/><line class="cls-4" x1="150.8" y1="225.51" x2="149.13" y2="214.05"/><line class="cls-4" x1="142.2" y1="221.93" x2="150.56" y2="221.93"/><line class="cls-4" x1="142.2" y1="221.93" x2="150.8" y2="225.51"/><line class="cls-4" x1="141.72" y1="225.49" x2="150.33" y2="221.95"/><rect class="cls-5" x="140.77" y="225.63" width="10.99" height="3.1" rx="1.55" ry="1.55"/><rect class="cls-5" x="142.92" y="210.94" width="6.45" height="3.1" rx="1.55" ry="1.55"/><line class="cls-6" x1="142.77" y1="218.4" x2="149.48" y2="218.4"/><path class="cls-7" d="M181,43.09a4.51,4.51,0,0,0,1.77-3.63V38.32a.39.39,0,0,0-.39-.39l-46.61-.23h0a8.73,8.73,0,0,0,4.2,5.57"/><path class="cls-8" d="M161.88,35H179.7a1.05,1.05,0,0,0,.91-1.58L162.26,1.64a1,1,0,0,0-1.09-.51"/><path class="cls-7" d="M161.74,1c-.16,0-.32.11-.4.35L149.15,34c-.17.47,0,1,.39,1h12.34"/><path class="cls-7" d="M161.88,35h18.58a.7.7,0,0,0,.6-1L162.24,1.35a.69.69,0,0,0-.58-.35"/><line class="cls-4" x1="212.4" y1="94.05" x2="210.73" y2="105.51"/><path class="cls-4" d="M216.94,90.42v-1.1a.53.53,0,0,0-.53-.53h-2.29a.53.53,0,0,0-.53.53v1.1"/><line class="cls-4" x1="219.8" y1="105.51" x2="218.13" y2="94.05"/><line class="cls-4" x1="211.2" y1="101.93" x2="219.56" y2="101.93"/><line class="cls-4" x1="211.2" y1="101.93" x2="219.8" y2="105.51"/><line class="cls-4" x1="210.72" y1="105.49" x2="219.33" y2="101.95"/><rect class="cls-5" x="209.77" y="105.63" width="10.99" height="3.1" rx="1.55" ry="1.55"/><rect class="cls-5" x="211.92" y="90.94" width="6.45" height="3.1" rx="1.55" ry="1.55"/><line class="cls-6" x1="211.77" y1="98.4" x2="218.48" y2="98.4"/><line class="cls-4" x1="60.4" y1="26.05" x2="58.73" y2="37.51"/><path class="cls-4" d="M64.94,22.42v-1.1a.53.53,0,0,0-.53-.53H62.12a.53.53,0,0,0-.53.53v1.1"/><line class="cls-4" x1="67.8" y1="37.51" x2="66.13" y2="26.05"/><line class="cls-4" x1="59.2" y1="33.93" x2="67.56" y2="33.93"/><line class="cls-4" x1="59.2" y1="33.93" x2="67.8" y2="37.51"/><line class="cls-4" x1="58.72" y1="37.49" x2="67.33" y2="33.95"/><rect class="cls-5" x="57.77" y="37.63" width="10.99" height="3.1" rx="1.55" ry="1.55"/><rect class="cls-5" x="59.92" y="22.94" width="6.45" height="3.1" rx="1.55" ry="1.55"/><line class="cls-6" x1="59.77" y1="30.4" x2="66.48" y2="30.4"/><g class="cls-9"><path class="cls-10" d="M50.51,202.79A14.25,14.25,0,1,0,64.76,217,14.25,14.25,0,0,0,50.51,202.79Zm0,23A8.72,8.72,0,1,1,59.23,217,8.72,8.72,0,0,1,50.51,225.76Z"/><polygon class="cls-5" points="64.22 220.91 58.68 219.43 56.9 222.66 61.3 226.35 64.22 220.91"/><polygon class="cls-5" points="54.92 209.77 57.79 204.8 62.29 209.02 57.58 212.32 54.92 209.77"/><polygon class="cls-5" points="42.58 213.96 37.18 212 40.56 206.84 44.62 210.9 42.58 213.96"/><polygon class="cls-5" points="45.48 223.91 42.18 228.61 38.07 224.01 43.05 221.14 45.48 223.91"/></g><rect class="cls-11" x="59.76" y="62.29" width="131" height="26.41"/><rect class="cls-12" x="59.76" y="88.13" width="131" height="26.41"/><rect class="cls-13" x="59.76" y="115.12" width="131" height="26.41"/><rect class="cls-12" x="59.76" y="140.96" width="131" height="26.41"/><rect class="cls-11" x="59.76" y="167.38" width="131" height="26.41"/><path class="cls-7" d="M224,195.09a4.51,4.51,0,0,0,1.77-3.63v-1.14a.39.39,0,0,0-.39-.39l-46.61-.23h0a8.73,8.73,0,0,0,4.2,5.57"/><path class="cls-8" d="M204.88,187H222.7a1.05,1.05,0,0,0,.91-1.58l-18.35-31.78a1,1,0,0,0-1.09-.51"/><path class="cls-7" d="M204.74,153c-.16,0-.32.11-.4.35L192.15,186c-.17.47,0,1,.39,1h12.34"/><path class="cls-7" d="M204.88,187h18.58a.7.7,0,0,0,.6-1l-18.82-32.6a.69.69,0,0,0-.58-.35"/><path class="cls-7" d="M56.76,140.79c2,0,10,0,11-6.33v-1.14a.39.39,0,0,0-.39-.39l-46.61-.23h0a8.73,8.73,0,0,0,4.2,5.57"/><path class="cls-8" d="M46.88,130H64.7a1.05,1.05,0,0,0,.91-1.58L47.26,96.64a1,1,0,0,0-1.09-.51"/><path class="cls-7" d="M46.74,96c-.16,0-.32.11-.4.35L34.15,129c-.17.47,0,1,.39,1H46.88"/><path class="cls-7" d="M46.88,130H65.46a.7.7,0,0,0,.6-1L47.24,96.35a.69.69,0,0,0-.58-.35"/></g></g></g></svg>