<svg xmlns="http://www.w3.org/2000/svg" xmlns:xlink="http://www.w3.org/1999/xlink" viewBox="0 0 268 244.79"><defs><style>.cls-1,.cls-3,.cls-4,.cls-6{fill:none;}.cls-2{clip-path:url(#clip-path);}.cls-10,.cls-3,.cls-4,.cls-5,.cls-6,.cls-7,.cls-8{stroke:#ccc;}.cls-3,.cls-6{stroke-linecap:round;}.cls-10,.cls-3,.cls-4,.cls-5,.cls-6{stroke-miterlimit:10;}.cls-3,.cls-7,.cls-8{stroke-width:2px;}.cls-5{fill:#ccc;}.cls-10,.cls-7{fill:#fff;}.cls-7,.cls-8{stroke-linejoin:round;}.cls-8{fill:#f7df75;}.cls-9{clip-path:url(#clip-path-2);}.cls-11{clip-path:url(#clip-path-3);}.cls-12{fill:#fcc062;}.cls-13{fill:#722c36;}</style><clipPath id="clip-path"><rect class="cls-1" x="14" y="6.79" width="240" height="240" transform="translate(7.21 260.79) rotate(-90)"/></clipPath><clipPath id="clip-path-2"><polygon class="cls-1" points="95 228.79 91.5 206.29 126.5 200.29 129 228.79 112.5 227.29 110.5 220.29 106 228.79 95 228.79"/></clipPath><clipPath id="clip-path-3"><polygon class="cls-1" points="206 46.79 202.5 24.29 237.5 18.29 240 48.79 223.5 45.29 221 47.79 216 48.79 206 46.79"/></clipPath></defs><title>MaintenanceIllustration</title><g id="Layer_2" data-name="Layer 2"><g id="Services_Icon" data-name="Services Icon"><g class="cls-2"><path class="cls-3" d="M20,13.29c0,3-4.25,5.5-9.5,5.5S1,16.33,1,13.29"/><path class="cls-3" d="M39,13.29c0,3-4.25,5.5-9.5,5.5S20,16.33,20,13.29"/><path class="cls-3" d="M58,13.29c0,3-4.25,5.5-9.5,5.5S39,16.33,39,13.29"/><path class="cls-3" d="M77,13.29c0,3-4.25,5.5-9.5,5.5S58,16.33,58,13.29"/><path class="cls-3" d="M96,13.29c0,3-4.25,5.5-9.5,5.5S77,16.33,77,13.29"/><path class="cls-3" d="M115,13.29c0,3-4.25,5.5-9.5,5.5S96,16.33,96,13.29"/><path class="cls-3" d="M134,13.29c0,3-4.25,5.5-9.5,5.5s-9.5-2.46-9.5-5.5"/><path class="cls-3" d="M153,13.29c0,3-4.25,5.5-9.5,5.5s-9.5-2.46-9.5-5.5"/><path class="cls-3" d="M172,13.29c0,3-4.25,5.5-9.5,5.5s-9.5-2.46-9.5-5.5"/><path class="cls-3" d="M191,13.29c0,3-4.25,5.5-9.5,5.5s-9.5-2.46-9.5-5.5"/><path class="cls-3" d="M210,13.29c0,3-4.25,5.5-9.5,5.5s-9.5-2.46-9.5-5.5"/><path class="cls-3" d="M229,13.29c0,3-4.25,5.5-9.5,5.5s-9.5-2.46-9.5-5.5"/><path class="cls-3" d="M248,13.29c0,3-4.25,5.5-9.5,5.5s-9.5-2.46-9.5-5.5"/><path class="cls-3" d="M267,13.29c0,3-4.25,5.5-9.5,5.5s-9.5-2.46-9.5-5.5"/><path class="cls-3" d="M20,28.29c0,3-4.25,5.5-9.5,5.5S1,31.33,1,28.29"/><path class="cls-3" d="M39,28.29c0,3-4.25,5.5-9.5,5.5S20,31.33,20,28.29"/><path class="cls-3" d="M58,28.29c0,3-4.25,5.5-9.5,5.5S39,31.33,39,28.29"/><path class="cls-3" d="M77,28.29c0,3-4.25,5.5-9.5,5.5S58,31.33,58,28.29"/><path class="cls-3" d="M96,28.29c0,3-4.25,5.5-9.5,5.5S77,31.33,77,28.29"/><path class="cls-3" d="M115,28.29c0,3-4.25,5.5-9.5,5.5S96,31.33,96,28.29"/><path class="cls-3" d="M134,28.29c0,3-4.25,5.5-9.5,5.5s-9.5-2.46-9.5-5.5"/><path class="cls-3" d="M153,28.29c0,3-4.25,5.5-9.5,5.5s-9.5-2.46-9.5-5.5"/><path class="cls-3" d="M172,28.29c0,3-4.25,5.5-9.5,5.5s-9.5-2.46-9.5-5.5"/><path class="cls-3" d="M191,28.29c0,3-4.25,5.5-9.5,5.5s-9.5-2.46-9.5-5.5"/><path class="cls-3" d="M210,28.29c0,3-4.25,5.5-9.5,5.5s-9.5-2.46-9.5-5.5"/><path class="cls-3" d="M229,28.29c0,3-4.25,5.5-9.5,5.5s-9.5-2.46-9.5-5.5"/><path class="cls-3" d="M248,28.29c0,3-4.25,5.5-9.5,5.5s-9.5-2.46-9.5-5.5"/><path class="cls-3" d="M267,28.29c0,3-4.25,5.5-9.5,5.5s-9.5-2.46-9.5-5.5"/><path class="cls-3" d="M20,43.29c0,3-4.25,5.5-9.5,5.5S1,46.33,1,43.29"/><path class="cls-3" d="M39,43.29c0,3-4.25,5.5-9.5,5.5S20,46.33,20,43.29"/><path class="cls-3" d="M58,43.29c0,3-4.25,5.5-9.5,5.5S39,46.33,39,43.29"/><path class="cls-3" d="M77,43.29c0,3-4.25,5.5-9.5,5.5S58,46.33,58,43.29"/><path class="cls-3" d="M96,43.29c0,3-4.25,5.5-9.5,5.5S77,46.33,77,43.29"/><path class="cls-3" d="M115,43.29c0,3-4.25,5.5-9.5,5.5S96,46.33,96,43.29"/><path class="cls-3" d="M134,43.29c0,3-4.25,5.5-9.5,5.5s-9.5-2.46-9.5-5.5"/><path class="cls-3" d="M153,43.29c0,3-4.25,5.5-9.5,5.5s-9.5-2.46-9.5-5.5"/><path class="cls-3" d="M172,43.29c0,3-4.25,5.5-9.5,5.5s-9.5-2.46-9.5-5.5"/><path class="cls-3" d="M191,43.29c0,3-4.25,5.5-9.5,5.5s-9.5-2.46-9.5-5.5"/><path class="cls-3" d="M210,43.29c0,3-4.25,5.5-9.5,5.5s-9.5-2.46-9.5-5.5"/><path class="cls-3" d="M229,43.29c0,3-4.25,5.5-9.5,5.5s-9.5-2.46-9.5-5.5"/><path class="cls-3" d="M248,43.29c0,3-4.25,5.5-9.5,5.5s-9.5-2.46-9.5-5.5"/><path class="cls-3" d="M267,43.29c0,3-4.25,5.5-9.5,5.5s-9.5-2.46-9.5-5.5"/><path class="cls-3" d="M20,58.29c0,3-4.25,5.5-9.5,5.5S1,61.33,1,58.29"/><path class="cls-3" d="M39,58.29c0,3-4.25,5.5-9.5,5.5S20,61.33,20,58.29"/><path class="cls-3" d="M58,58.29c0,3-4.25,5.5-9.5,5.5S39,61.33,39,58.29"/><path class="cls-3" d="M77,58.29c0,3-4.25,5.5-9.5,5.5S58,61.33,58,58.29"/><path class="cls-3" d="M96,58.29c0,3-4.25,5.5-9.5,5.5S77,61.33,77,58.29"/><path class="cls-3" d="M115,58.29c0,3-4.25,5.5-9.5,5.5S96,61.33,96,58.29"/><path class="cls-3" d="M134,58.29c0,3-4.25,5.5-9.5,5.5s-9.5-2.46-9.5-5.5"/><path class="cls-3" d="M153,58.29c0,3-4.25,5.5-9.5,5.5s-9.5-2.46-9.5-5.5"/><path class="cls-3" d="M172,58.29c0,3-4.25,5.5-9.5,5.5s-9.5-2.46-9.5-5.5"/><path class="cls-3" d="M191,58.29c0,3-4.25,5.5-9.5,5.5s-9.5-2.46-9.5-5.5"/><path class="cls-3" d="M210,58.29c0,3-4.25,5.5-9.5,5.5s-9.5-2.46-9.5-5.5"/><path class="cls-3" d="M229,58.29c0,3-4.25,5.5-9.5,5.5s-9.5-2.46-9.5-5.5"/><path class="cls-3" d="M248,58.29c0,3-4.25,5.5-9.5,5.5s-9.5-2.46-9.5-5.5"/><path class="cls-3" d="M267,58.29c0,3-4.25,5.5-9.5,5.5s-9.5-2.46-9.5-5.5"/><path class="cls-3" d="M20,73.29c0,3-4.25,5.5-9.5,5.5S1,76.33,1,73.29"/><path class="cls-3" d="M39,73.29c0,3-4.25,5.5-9.5,5.5S20,76.33,20,73.29"/><path class="cls-3" d="M58,73.29c0,3-4.25,5.5-9.5,5.5S39,76.33,39,73.29"/><path class="cls-3" d="M77,73.29c0,3-4.25,5.5-9.5,5.5S58,76.33,58,73.29"/><path class="cls-3" d="M96,73.29c0,3-4.25,5.5-9.5,5.5S77,76.33,77,73.29"/><path class="cls-3" d="M115,73.29c0,3-4.25,5.5-9.5,5.5S96,76.33,96,73.29"/><path class="cls-3" d="M134,73.29c0,3-4.25,5.5-9.5,5.5s-9.5-2.46-9.5-5.5"/><path class="cls-3" d="M153,73.29c0,3-4.25,5.5-9.5,5.5s-9.5-2.46-9.5-5.5"/><path class="cls-3" d="M172,73.29c0,3-4.25,5.5-9.5,5.5s-9.5-2.46-9.5-5.5"/><path class="cls-3" d="M191,73.29c0,3-4.25,5.5-9.5,5.5s-9.5-2.46-9.5-5.5"/><path class="cls-3" d="M210,73.29c0,3-4.25,5.5-9.5,5.5s-9.5-2.46-9.5-5.5"/><path class="cls-3" d="M229,73.29c0,3-4.25,5.5-9.5,5.5s-9.5-2.46-9.5-5.5"/><path class="cls-3" d="M248,73.29c0,3-4.25,5.5-9.5,5.5s-9.5-2.46-9.5-5.5"/><path class="cls-3" d="M267,73.29c0,3-4.25,5.5-9.5,5.5s-9.5-2.46-9.5-5.5"/><path class="cls-3" d="M20,88.29c0,3-4.25,5.5-9.5,5.5S1,91.33,1,88.29"/><path class="cls-3" d="M39,88.29c0,3-4.25,5.5-9.5,5.5S20,91.33,20,88.29"/><path class="cls-3" d="M58,88.29c0,3-4.25,5.5-9.5,5.5S39,91.33,39,88.29"/><path class="cls-3" d="M77,88.29c0,3-4.25,5.5-9.5,5.5S58,91.33,58,88.29"/><path class="cls-3" d="M96,88.29c0,3-4.25,5.5-9.5,5.5S77,91.33,77,88.29"/><path class="cls-3" d="M115,88.29c0,3-4.25,5.5-9.5,5.5S96,91.33,96,88.29"/><path class="cls-3" d="M134,88.29c0,3-4.25,5.5-9.5,5.5s-9.5-2.46-9.5-5.5"/><path class="cls-3" d="M153,88.29c0,3-4.25,5.5-9.5,5.5s-9.5-2.46-9.5-5.5"/><path class="cls-3" d="M172,88.29c0,3-4.25,5.5-9.5,5.5s-9.5-2.46-9.5-5.5"/><path class="cls-3" d="M191,88.29c0,3-4.25,5.5-9.5,5.5s-9.5-2.46-9.5-5.5"/><path class="cls-3" d="M210,88.29c0,3-4.25,5.5-9.5,5.5s-9.5-2.46-9.5-5.5"/><path class="cls-3" d="M229,88.29c0,3-4.25,5.5-9.5,5.5s-9.5-2.46-9.5-5.5"/><path class="cls-3" d="M248,88.29c0,3-4.25,5.5-9.5,5.5s-9.5-2.46-9.5-5.5"/><path class="cls-3" d="M267,88.29c0,3-4.25,5.5-9.5,5.5s-9.5-2.46-9.5-5.5"/><path class="cls-3" d="M20,103.29c0,3-4.25,5.5-9.5,5.5S1,106.33,1,103.29"/><path class="cls-3" d="M39,103.29c0,3-4.25,5.5-9.5,5.5s-9.5-2.46-9.5-5.5"/><path class="cls-3" d="M58,103.29c0,3-4.25,5.5-9.5,5.5s-9.5-2.46-9.5-5.5"/><path class="cls-3" d="M77,103.29c0,3-4.25,5.5-9.5,5.5s-9.5-2.46-9.5-5.5"/><path class="cls-3" d="M96,103.29c0,3-4.25,5.5-9.5,5.5s-9.5-2.46-9.5-5.5"/><path class="cls-3" d="M115,103.29c0,3-4.25,5.5-9.5,5.5s-9.5-2.46-9.5-5.5"/><path class="cls-3" d="M134,103.29c0,3-4.25,5.5-9.5,5.5s-9.5-2.46-9.5-5.5"/><path class="cls-3" d="M153,103.29c0,3-4.25,5.5-9.5,5.5s-9.5-2.46-9.5-5.5"/><path class="cls-3" d="M172,103.29c0,3-4.25,5.5-9.5,5.5s-9.5-2.46-9.5-5.5"/><path class="cls-3" d="M191,103.29c0,3-4.25,5.5-9.5,5.5s-9.5-2.46-9.5-5.5"/><path class="cls-3" d="M210,103.29c0,3-4.25,5.5-9.5,5.5s-9.5-2.46-9.5-5.5"/><path class="cls-3" d="M229,103.29c0,3-4.25,5.5-9.5,5.5s-9.5-2.46-9.5-5.5"/><path class="cls-3" d="M248,103.29c0,3-4.25,5.5-9.5,5.5s-9.5-2.46-9.5-5.5"/><path class="cls-3" d="M267,103.29c0,3-4.25,5.5-9.5,5.5s-9.5-2.46-9.5-5.5"/><path class="cls-3" d="M20,118.29c0,3-4.25,5.5-9.5,5.5S1,121.33,1,118.29"/><path class="cls-3" d="M39,118.29c0,3-4.25,5.5-9.5,5.5s-9.5-2.46-9.5-5.5"/><path class="cls-3" d="M58,118.29c0,3-4.25,5.5-9.5,5.5s-9.5-2.46-9.5-5.5"/><path class="cls-3" d="M77,118.29c0,3-4.25,5.5-9.5,5.5s-9.5-2.46-9.5-5.5"/><path class="cls-3" d="M96,118.29c0,3-4.25,5.5-9.5,5.5s-9.5-2.46-9.5-5.5"/><path class="cls-3" d="M115,118.29c0,3-4.25,5.5-9.5,5.5s-9.5-2.46-9.5-5.5"/><path class="cls-3" d="M134,118.29c0,3-4.25,5.5-9.5,5.5s-9.5-2.46-9.5-5.5"/><path class="cls-3" d="M153,118.29c0,3-4.25,5.5-9.5,5.5s-9.5-2.46-9.5-5.5"/><path class="cls-3" d="M172,118.29c0,3-4.25,5.5-9.5,5.5s-9.5-2.46-9.5-5.5"/><path class="cls-3" d="M191,118.29c0,3-4.25,5.5-9.5,5.5s-9.5-2.46-9.5-5.5"/><path class="cls-3" d="M210,118.29c0,3-4.25,5.5-9.5,5.5s-9.5-2.46-9.5-5.5"/><path class="cls-3" d="M229,118.29c0,3-4.25,5.5-9.5,5.5s-9.5-2.46-9.5-5.5"/><path class="cls-3" d="M248,118.29c0,3-4.25,5.5-9.5,5.5s-9.5-2.46-9.5-5.5"/><path class="cls-3" d="M267,118.29c0,3-4.25,5.5-9.5,5.5s-9.5-2.46-9.5-5.5"/><path class="cls-3" d="M20,133.29c0,3-4.25,5.5-9.5,5.5S1,136.33,1,133.29"/><path class="cls-3" d="M39,133.29c0,3-4.25,5.5-9.5,5.5s-9.5-2.46-9.5-5.5"/><path class="cls-3" d="M58,133.29c0,3-4.25,5.5-9.5,5.5s-9.5-2.46-9.5-5.5"/><path class="cls-3" d="M77,133.29c0,3-4.25,5.5-9.5,5.5s-9.5-2.46-9.5-5.5"/><path class="cls-3" d="M96,133.29c0,3-4.25,5.5-9.5,5.5s-9.5-2.46-9.5-5.5"/><path class="cls-3" d="M115,133.29c0,3-4.25,5.5-9.5,5.5s-9.5-2.46-9.5-5.5"/><path class="cls-3" d="M134,133.29c0,3-4.25,5.5-9.5,5.5s-9.5-2.46-9.5-5.5"/><path class="cls-3" d="M153,133.29c0,3-4.25,5.5-9.5,5.5s-9.5-2.46-9.5-5.5"/><path class="cls-3" d="M172,133.29c0,3-4.25,5.5-9.5,5.5s-9.5-2.46-9.5-5.5"/><path class="cls-3" d="M191,133.29c0,3-4.25,5.5-9.5,5.5s-9.5-2.46-9.5-5.5"/><path class="cls-3" d="M210,133.29c0,3-4.25,5.5-9.5,5.5s-9.5-2.46-9.5-5.5"/><path class="cls-3" d="M229,133.29c0,3-4.25,5.5-9.5,5.5s-9.5-2.46-9.5-5.5"/><path class="cls-3" d="M248,133.29c0,3-4.25,5.5-9.5,5.5s-9.5-2.46-9.5-5.5"/><path class="cls-3" d="M267,133.29c0,3-4.25,5.5-9.5,5.5s-9.5-2.46-9.5-5.5"/><path class="cls-3" d="M20,148.29c0,3-4.25,5.5-9.5,5.5S1,151.33,1,148.29"/><path class="cls-3" d="M39,148.29c0,3-4.25,5.5-9.5,5.5s-9.5-2.46-9.5-5.5"/><path class="cls-3" d="M58,148.29c0,3-4.25,5.5-9.5,5.5s-9.5-2.46-9.5-5.5"/><path class="cls-3" d="M77,148.29c0,3-4.25,5.5-9.5,5.5s-9.5-2.46-9.5-5.5"/><path class="cls-3" d="M96,148.29c0,3-4.25,5.5-9.5,5.5s-9.5-2.46-9.5-5.5"/><path class="cls-3" d="M115,148.29c0,3-4.25,5.5-9.5,5.5s-9.5-2.46-9.5-5.5"/><path class="cls-3" d="M134,148.29c0,3-4.25,5.5-9.5,5.5s-9.5-2.46-9.5-5.5"/><path class="cls-3" d="M153,148.29c0,3-4.25,5.5-9.5,5.5s-9.5-2.46-9.5-5.5"/><path class="cls-3" d="M172,148.29c0,3-4.25,5.5-9.5,5.5s-9.5-2.46-9.5-5.5"/><path class="cls-3" d="M191,148.29c0,3-4.25,5.5-9.5,5.5s-9.5-2.46-9.5-5.5"/><path class="cls-3" d="M210,148.29c0,3-4.25,5.5-9.5,5.5s-9.5-2.46-9.5-5.5"/><path class="cls-3" d="M229,148.29c0,3-4.25,5.5-9.5,5.5s-9.5-2.46-9.5-5.5"/><path class="cls-3" d="M248,148.29c0,3-4.25,5.5-9.5,5.5s-9.5-2.46-9.5-5.5"/><path class="cls-3" d="M267,148.29c0,3-4.25,5.5-9.5,5.5s-9.5-2.46-9.5-5.5"/><path class="cls-3" d="M20,163.29c0,3-4.25,5.5-9.5,5.5S1,166.33,1,163.29"/><path class="cls-3" d="M39,163.29c0,3-4.25,5.5-9.5,5.5s-9.5-2.46-9.5-5.5"/><path class="cls-3" d="M58,163.29c0,3-4.25,5.5-9.5,5.5s-9.5-2.46-9.5-5.5"/><path class="cls-3" d="M77,163.29c0,3-4.25,5.5-9.5,5.5s-9.5-2.46-9.5-5.5"/><path class="cls-3" d="M96,163.29c0,3-4.25,5.5-9.5,5.5s-9.5-2.46-9.5-5.5"/><path class="cls-3" d="M115,163.29c0,3-4.25,5.5-9.5,5.5s-9.5-2.46-9.5-5.5"/><path class="cls-3" d="M134,163.29c0,3-4.25,5.5-9.5,5.5s-9.5-2.46-9.5-5.5"/><path class="cls-3" d="M153,163.29c0,3-4.25,5.5-9.5,5.5s-9.5-2.46-9.5-5.5"/><path class="cls-3" d="M172,163.29c0,3-4.25,5.5-9.5,5.5s-9.5-2.46-9.5-5.5"/><path class="cls-3" d="M191,163.29c0,3-4.25,5.5-9.5,5.5s-9.5-2.46-9.5-5.5"/><path class="cls-3" d="M210,163.29c0,3-4.25,5.5-9.5,5.5s-9.5-2.46-9.5-5.5"/><path class="cls-3" d="M229,163.29c0,3-4.25,5.5-9.5,5.5s-9.5-2.46-9.5-5.5"/><path class="cls-3" d="M248,163.29c0,3-4.25,5.5-9.5,5.5s-9.5-2.46-9.5-5.5"/><path class="cls-3" d="M267,163.29c0,3-4.25,5.5-9.5,5.5s-9.5-2.46-9.5-5.5"/><path class="cls-3" d="M20,178.29c0,3-4.25,5.5-9.5,5.5S1,181.33,1,178.29"/><path class="cls-3" d="M39,178.29c0,3-4.25,5.5-9.5,5.5s-9.5-2.46-9.5-5.5"/><path class="cls-3" d="M58,178.29c0,3-4.25,5.5-9.5,5.5s-9.5-2.46-9.5-5.5"/><path class="cls-3" d="M77,178.29c0,3-4.25,5.5-9.5,5.5s-9.5-2.46-9.5-5.5"/><path class="cls-3" d="M96,178.29c0,3-4.25,5.5-9.5,5.5s-9.5-2.46-9.5-5.5"/><path class="cls-3" d="M115,178.29c0,3-4.25,5.5-9.5,5.5s-9.5-2.46-9.5-5.5"/><path class="cls-3" d="M134,178.29c0,3-4.25,5.5-9.5,5.5s-9.5-2.46-9.5-5.5"/><path class="cls-3" d="M153,178.29c0,3-4.25,5.5-9.5,5.5s-9.5-2.46-9.5-5.5"/><path class="cls-3" d="M172,178.29c0,3-4.25,5.5-9.5,5.5s-9.5-2.46-9.5-5.5"/><path class="cls-3" d="M191,178.29c0,3-4.25,5.5-9.5,5.5s-9.5-2.46-9.5-5.5"/><path class="cls-3" d="M210,178.29c0,3-4.25,5.5-9.5,5.5s-9.5-2.46-9.5-5.5"/><path class="cls-3" d="M229,178.29c0,3-4.25,5.5-9.5,5.5s-9.5-2.46-9.5-5.5"/><path class="cls-3" d="M248,178.29c0,3-4.25,5.5-9.5,5.5s-9.5-2.46-9.5-5.5"/><path class="cls-3" d="M267,178.29c0,3-4.25,5.5-9.5,5.5s-9.5-2.46-9.5-5.5"/><path class="cls-3" d="M20,193.29c0,3-4.25,5.5-9.5,5.5S1,196.33,1,193.29"/><path class="cls-3" d="M39,193.29c0,3-4.25,5.5-9.5,5.5s-9.5-2.46-9.5-5.5"/><path class="cls-3" d="M58,193.29c0,3-4.25,5.5-9.5,5.5s-9.5-2.46-9.5-5.5"/><path class="cls-3" d="M77,193.29c0,3-4.25,5.5-9.5,5.5s-9.5-2.46-9.5-5.5"/><path class="cls-3" d="M96,193.29c0,3-4.25,5.5-9.5,5.5s-9.5-2.46-9.5-5.5"/><path class="cls-3" d="M115,193.29c0,3-4.25,5.5-9.5,5.5s-9.5-2.46-9.5-5.5"/><path class="cls-3" d="M134,193.29c0,3-4.25,5.5-9.5,5.5s-9.5-2.46-9.5-5.5"/><path class="cls-3" d="M153,193.29c0,3-4.25,5.5-9.5,5.5s-9.5-2.46-9.5-5.5"/><path class="cls-3" d="M172,193.29c0,3-4.25,5.5-9.5,5.5s-9.5-2.46-9.5-5.5"/><path class="cls-3" d="M191,193.29c0,3-4.25,5.5-9.5,5.5s-9.5-2.46-9.5-5.5"/><path class="cls-3" d="M210,193.29c0,3-4.25,5.5-9.5,5.5s-9.5-2.46-9.5-5.5"/><path class="cls-3" d="M229,193.29c0,3-4.25,5.5-9.5,5.5s-9.5-2.46-9.5-5.5"/><path class="cls-3" d="M248,193.29c0,3-4.25,5.5-9.5,5.5s-9.5-2.46-9.5-5.5"/><path class="cls-3" d="M267,193.29c0,3-4.25,5.5-9.5,5.5s-9.5-2.46-9.5-5.5"/><path class="cls-3" d="M20,208.29c0,3-4.25,5.5-9.5,5.5S1,211.33,1,208.29"/><path class="cls-3" d="M39,208.29c0,3-4.25,5.5-9.5,5.5s-9.5-2.46-9.5-5.5"/><path class="cls-3" d="M58,208.29c0,3-4.25,5.5-9.5,5.5s-9.5-2.46-9.5-5.5"/><path class="cls-3" d="M77,208.29c0,3-4.25,5.5-9.5,5.5s-9.5-2.46-9.5-5.5"/><path class="cls-3" d="M96,208.29c0,3-4.25,5.5-9.5,5.5s-9.5-2.46-9.5-5.5"/><path class="cls-3" d="M115,208.29c0,3-4.25,5.5-9.5,5.5s-9.5-2.46-9.5-5.5"/><path class="cls-3" d="M134,208.29c0,3-4.25,5.5-9.5,5.5s-9.5-2.46-9.5-5.5"/><path class="cls-3" d="M153,208.29c0,3-4.25,5.5-9.5,5.5s-9.5-2.46-9.5-5.5"/><path class="cls-3" d="M172,208.29c0,3-4.25,5.5-9.5,5.5s-9.5-2.46-9.5-5.5"/><path class="cls-3" d="M191,208.29c0,3-4.25,5.5-9.5,5.5s-9.5-2.46-9.5-5.5"/><path class="cls-3" d="M210,208.29c0,3-4.25,5.5-9.5,5.5s-9.5-2.46-9.5-5.5"/><path class="cls-3" d="M219.5,213.79c-5.25,0-9.5-2.46-9.5-5.5"/><path class="cls-3" d="M248,208.29c0,3-4.25,5.5-9.5,5.5"/><path class="cls-3" d="M267,208.29c0,3-4.25,5.5-9.5,5.5s-9.5-2.46-9.5-5.5"/><path class="cls-3" d="M20,223.29c0,3-4.25,5.5-9.5,5.5S1,226.33,1,223.29"/><path class="cls-3" d="M39,223.29c0,3-4.25,5.5-9.5,5.5s-9.5-2.46-9.5-5.5"/><path class="cls-3" d="M58,223.29c0,3-4.25,5.5-9.5,5.5s-9.5-2.46-9.5-5.5"/><path class="cls-3" d="M77,223.29c0,3-4.25,5.5-9.5,5.5s-9.5-2.46-9.5-5.5"/><path class="cls-3" d="M96,223.29c0,3-4.25,5.5-9.5,5.5s-9.5-2.46-9.5-5.5"/><path class="cls-3" d="M115,223.29c0,3-4.25,5.5-9.5,5.5s-9.5-2.46-9.5-5.5"/><path class="cls-3" d="M134,223.29c0,3-4.25,5.5-9.5,5.5s-9.5-2.46-9.5-5.5"/><path class="cls-3" d="M153,223.29c0,3-4.25,5.5-9.5,5.5s-9.5-2.46-9.5-5.5"/><path class="cls-3" d="M172,223.29c0,3-4.25,5.5-9.5,5.5s-9.5-2.46-9.5-5.5"/><path class="cls-3" d="M191,223.29c0,3-4.25,5.5-9.5,5.5s-9.5-2.46-9.5-5.5"/><path class="cls-3" d="M210,223.29c0,3-4.25,5.5-9.5,5.5s-9.5-2.46-9.5-5.5"/><path class="cls-3" d="M229,223.29c0,3-4.25,5.5-9.5,5.5s-9.5-2.46-9.5-5.5"/><path class="cls-3" d="M248,223.29c0,3-4.25,5.5-9.5,5.5s-9.5-2.46-9.5-5.5"/><path class="cls-3" d="M267,223.29c0,3-4.25,5.5-9.5,5.5s-9.5-2.46-9.5-5.5"/><path class="cls-3" d="M20,238.29c0,3-4.25,5.5-9.5,5.5S1,241.33,1,238.29"/><path class="cls-3" d="M39,238.29c0,3-4.25,5.5-9.5,5.5s-9.5-2.46-9.5-5.5"/><path class="cls-3" d="M58,238.29c0,3-4.25,5.5-9.5,5.5s-9.5-2.46-9.5-5.5"/><path class="cls-3" d="M77,238.29c0,3-4.25,5.5-9.5,5.5s-9.5-2.46-9.5-5.5"/><path class="cls-3" d="M96,238.29c0,3-4.25,5.5-9.5,5.5s-9.5-2.46-9.5-5.5"/><path class="cls-3" d="M115,238.29c0,3-4.25,5.5-9.5,5.5s-9.5-2.46-9.5-5.5"/><path class="cls-3" d="M134,238.29c0,3-4.25,5.5-9.5,5.5s-9.5-2.46-9.5-5.5"/><path class="cls-3" d="M153,238.29c0,3-4.25,5.5-9.5,5.5s-9.5-2.46-9.5-5.5"/><path class="cls-3" d="M172,238.29c0,3-4.25,5.5-9.5,5.5s-9.5-2.46-9.5-5.5"/><path class="cls-3" d="M191,238.29c0,3-4.25,5.5-9.5,5.5s-9.5-2.46-9.5-5.5"/><path class="cls-3" d="M210,238.29c0,3-4.25,5.5-9.5,5.5s-9.5-2.46-9.5-5.5"/><path class="cls-3" d="M229,238.29c0,3-4.25,5.5-9.5,5.5s-9.5-2.46-9.5-5.5"/><path class="cls-3" d="M248,238.29c0,3-4.25,5.5-9.5,5.5s-9.5-2.46-9.5-5.5"/><path class="cls-3" d="M267,238.29c0,3-4.25,5.5-9.5,5.5s-9.5-2.46-9.5-5.5"/><line class="cls-4" x1="226.64" y1="212.05" x2="224.97" y2="223.51"/><path class="cls-4" d="M231.18,208.42v-1.1a.53.53,0,0,0-.53-.53h-2.29a.53.53,0,0,0-.53.53v1.1"/><line class="cls-4" x1="234.04" y1="223.51" x2="232.37" y2="212.05"/><line class="cls-4" x1="225.45" y1="219.93" x2="233.81" y2="219.93"/><line class="cls-4" x1="225.45" y1="219.93" x2="234.04" y2="223.51"/><line class="cls-4" x1="224.96" y1="223.49" x2="233.57" y2="219.95"/><rect class="cls-5" x="224.01" y="223.63" width="10.99" height="3.1" rx="1.55" ry="1.55"/><rect class="cls-5" x="226.16" y="208.94" width="6.45" height="3.1" rx="1.55" ry="1.55"/><line class="cls-6" x1="226.01" y1="216.4" x2="232.73" y2="216.4"/><path class="cls-7" d="M235.23,136.09a4.51,4.51,0,0,0,1.77-3.63v-1.14a.39.39,0,0,0-.39-.39L190,130.7h0a8.73,8.73,0,0,0,4.2,5.57"/><path class="cls-8" d="M216.12,128h17.82a1.05,1.05,0,0,0,.91-1.58L216.51,94.64a1,1,0,0,0-1.09-.51"/><path class="cls-7" d="M216,94c-.16,0-.32.11-.4.35L203.39,127c-.17.47,0,1,.39,1h12.34"/><path class="cls-7" d="M216.12,128h18.58a.7.7,0,0,0,.6-1l-18.82-32.6a.69.69,0,0,0-.58-.35"/><path class="cls-7" d="M59.23,43.09A4.51,4.51,0,0,0,61,39.46V38.32a.39.39,0,0,0-.39-.39L14,37.7h0a8.73,8.73,0,0,0,4.2,5.57"/><path class="cls-8" d="M40.12,35H57.95a1.05,1.05,0,0,0,.91-1.58L40.51,1.64a1,1,0,0,0-1.09-.51"/><path class="cls-7" d="M40,1c-.16,0-.32.11-.4.35L27.39,34c-.17.47,0,1,.39,1H40.12"/><path class="cls-7" d="M40.12,35H58.71a.7.7,0,0,0,.6-1L40.49,1.35A.69.69,0,0,0,39.9,1"/><line class="cls-4" x1="30.64" y1="93.05" x2="28.97" y2="104.51"/><path class="cls-4" d="M35.18,89.42v-1.1a.53.53,0,0,0-.53-.53H32.36a.53.53,0,0,0-.53.53v1.1"/><line class="cls-4" x1="38.04" y1="104.51" x2="36.37" y2="93.05"/><line class="cls-4" x1="29.45" y1="100.93" x2="37.81" y2="100.93"/><line class="cls-4" x1="29.45" y1="100.93" x2="38.04" y2="104.51"/><line class="cls-4" x1="28.96" y1="104.49" x2="37.57" y2="100.95"/><rect class="cls-5" x="28.01" y="104.63" width="10.99" height="3.1" rx="1.55" ry="1.55"/><rect class="cls-5" x="30.16" y="89.94" width="6.45" height="3.1" rx="1.55" ry="1.55"/><line class="cls-6" x1="30.01" y1="97.4" x2="36.73" y2="97.4"/><line class="cls-4" x1="155.64" y1="33.05" x2="153.97" y2="44.51"/><path class="cls-4" d="M160.18,29.42v-1.1a.53.53,0,0,0-.53-.53h-2.29a.53.53,0,0,0-.53.53v1.1"/><line class="cls-4" x1="163.04" y1="44.51" x2="161.37" y2="33.05"/><line class="cls-4" x1="154.45" y1="40.93" x2="162.81" y2="40.93"/><line class="cls-4" x1="154.45" y1="40.93" x2="163.04" y2="44.51"/><line class="cls-4" x1="153.96" y1="44.49" x2="162.57" y2="40.95"/><rect class="cls-5" x="153.01" y="44.63" width="10.99" height="3.1" rx="1.55" ry="1.55"/><rect class="cls-5" x="155.16" y="29.94" width="6.45" height="3.1" rx="1.55" ry="1.55"/><line class="cls-6" x1="155.01" y1="37.4" x2="161.73" y2="37.4"/><g class="cls-9"><path class="cls-10" d="M112.75,208.79A14.25,14.25,0,1,0,127,223,14.25,14.25,0,0,0,112.75,208.79Zm0,23a8.72,8.72,0,1,1,8.72-8.72A8.72,8.72,0,0,1,112.75,231.76Z"/><polygon class="cls-5" points="126.47 226.91 120.92 225.43 119.15 228.66 123.55 232.35 126.47 226.91"/><polygon class="cls-5" points="117.17 215.77 120.04 210.8 124.53 215.02 119.83 218.32 117.17 215.77"/><polygon class="cls-5" points="104.82 219.96 99.42 218 102.81 212.84 106.87 216.9 104.82 219.96"/><polygon class="cls-5" points="107.72 229.91 104.42 234.61 100.32 230.01 105.29 227.14 107.72 229.91"/></g><g class="cls-11"><path class="cls-10" d="M223.75,26.79A14.25,14.25,0,1,0,238,41,14.25,14.25,0,0,0,223.75,26.79Zm0,23A8.72,8.72,0,1,1,232.47,41,8.72,8.72,0,0,1,223.75,49.76Z"/><polygon class="cls-5" points="237.47 44.91 231.92 43.42 230.15 46.66 234.55 50.35 237.47 44.91"/><polygon class="cls-5" points="228.16 33.77 231.04 28.8 235.53 33.02 230.82 36.32 228.16 33.77"/><polygon class="cls-5" points="215.82 37.96 210.42 36 213.81 30.84 217.87 34.9 215.82 37.96"/><polygon class="cls-5" points="218.72 47.91 215.42 52.61 211.32 48.01 216.29 45.14 218.72 47.91"/></g></g><polygon class="cls-12" points="200.02 191.81 69 191.81 69 60.79 200.02 60.79 165 126.79 200.02 191.81"/><rect class="cls-13" x="69" y="60.79" width="81" height="131"/><path class="cls-7" d="M74.23,196.09A4.51,4.51,0,0,0,76,192.46v-1.14a.39.39,0,0,0-.39-.39L29,190.7h0a8.73,8.73,0,0,0,4.2,5.57"/><path class="cls-7" d="M55.12,188H72.95a1.05,1.05,0,0,0,.91-1.58L55.51,154.64a1,1,0,0,0-1.09-.51"/><path class="cls-7" d="M55,154c-.16,0-.32.11-.4.35L42.39,187c-.17.47,0,1,.39,1H55.12"/><path class="cls-7" d="M55.12,188H73.71a.7.7,0,0,0,.6-1l-18.82-32.6a.69.69,0,0,0-.58-.35"/></g></g></svg>