<svg xmlns="http://www.w3.org/2000/svg" xmlns:xlink="http://www.w3.org/1999/xlink" viewBox="0 0 259.06 239.79"><defs><style>.cls-1,.cls-3,.cls-4,.cls-5,.cls-7{fill:none;}.cls-2{clip-path:url(#clip-path);}.cls-10,.cls-11,.cls-13,.cls-3,.cls-4,.cls-5,.cls-6,.cls-7{stroke:#ccc;}.cls-3,.cls-4,.cls-7{stroke-linecap:round;}.cls-13,.cls-3,.cls-4,.cls-5,.cls-6,.cls-7{stroke-miterlimit:10;}.cls-3{stroke-width:1.97px;}.cls-4{stroke-width:2.06px;}.cls-6{fill:#ccc;}.cls-8{fill:#722c36;}.cls-9{fill:#fcc062;}.cls-10,.cls-13{fill:#fff;}.cls-10,.cls-11{stroke-linejoin:round;stroke-width:2px;}.cls-11{fill:#f7df75;}.cls-12{clip-path:url(#clip-path-2);}.cls-14{clip-path:url(#clip-path-3);}</style><clipPath id="clip-path"><rect class="cls-1" x="7.08" y="8.79" width="240" height="240" transform="translate(-1.72 255.87) rotate(-90)"/></clipPath><clipPath id="clip-path-2"><polygon class="cls-1" points="88.08 230.79 84.58 208.29 119.58 202.29 122.08 230.79 105.58 229.29 103.58 222.29 99.08 230.79 88.08 230.79"/></clipPath><clipPath id="clip-path-3"><polygon class="cls-1" points="199.08 48.79 195.58 26.29 230.58 20.29 233.08 48.79 216.58 47.29 214.58 40.29 210.08 48.79 199.08 48.79"/></clipPath></defs><title>StorybookIllustration</title><g id="Layer_2" data-name="Layer 2"><g id="Services_Icon" data-name="Services Icon"><g class="cls-2"><line class="cls-3" x1="8.42" y1="34.31" x2="31.22" y2="34.31"/><line class="cls-3" x1="45.97" y1="34.31" x2="51.33" y2="34.31"/><line class="cls-3" x1="70.16" y1="31.14" x2="112.7" y2="31.14"/><line class="cls-3" x1="130.44" y1="34.31" x2="225.64" y2="34.31"/><line class="cls-3" x1="43.29" y1="40.35" x2="60.72" y2="40.35"/><line class="cls-3" x1="70.1" y1="40.35" x2="74.13" y2="40.35"/><line class="cls-3" x1="80.83" y1="40.35" x2="84.85" y2="40.35"/><line class="cls-3" x1="108.99" y1="40.35" x2="141.17" y2="40.35"/><line class="cls-3" x1="158.6" y1="40.35" x2="185.41" y2="40.35"/><line class="cls-3" x1="192.12" y1="40.35" x2="196.14" y2="40.35"/><line class="cls-3" x1="24.51" y1="56.19" x2="41.95" y2="56.19"/><line class="cls-3" x1="47.31" y1="56.19" x2="54.01" y2="56.19"/><line class="cls-3" x1="60.72" y1="56.19" x2="72.78" y2="56.19"/><line class="cls-3" x1="151.89" y1="48.65" x2="173.35" y2="48.65"/><line class="cls-3" x1="166.64" y1="56.19" x2="172.01" y2="56.19"/><line class="cls-3" x1="147.87" y1="56.19" x2="158.6" y2="56.19"/><line class="cls-3" x1="233.64" y1="40.49" x2="255.09" y2="40.49"/><line class="cls-3" x1="248.39" y1="48.03" x2="253.75" y2="48.03"/><line class="cls-3" x1="229.62" y1="48.03" x2="240.34" y2="48.03"/><line class="cls-3" x1="5.84" y1="5.63" x2="11.4" y2="5.63"/><line class="cls-3" x1="15.86" y1="5.63" x2="52.58" y2="5.63"/><line class="cls-3" x1="61.49" y1="5.63" x2="74.84" y2="5.63"/><line class="cls-3" x1="81.52" y1="5.63" x2="88.2" y2="5.63"/><line class="cls-3" x1="98.21" y1="5.63" x2="112.68" y2="5.63"/><line class="cls-3" x1="137.17" y1="5.63" x2="153.86" y2="5.63"/><line class="cls-3" x1="164.99" y1="5.63" x2="176.12" y2="5.63"/><line class="cls-3" x1="5.28" y1="12.8" x2="24.2" y2="12.8"/><line class="cls-3" x1="36.45" y1="12.8" x2="40.9" y2="12.8"/><line class="cls-3" x1="84.3" y1="12.8" x2="93.21" y2="12.8"/><line class="cls-3" x1="106.56" y1="12.8" x2="185.58" y2="12.8"/><line class="cls-3" x1="34.22" y1="18.84" x2="48.69" y2="18.84"/><line class="cls-3" x1="56.48" y1="18.84" x2="59.82" y2="18.84"/><line class="cls-3" x1="65.38" y1="18.84" x2="68.72" y2="18.84"/><line class="cls-3" x1="88.75" y1="18.84" x2="115.47" y2="18.84"/><line class="cls-3" x1="129.93" y1="18.84" x2="152.19" y2="18.84"/><line class="cls-3" x1="157.76" y1="18.84" x2="161.1" y2="18.84"/><line class="cls-3" x1="124.37" y1="27.14" x2="142.18" y2="27.14"/><line class="cls-3" x1="213.13" y1="5.57" x2="225.37" y2="5.57"/><line class="cls-3" x1="228.71" y1="5.57" x2="232.05" y2="5.57"/><line class="cls-3" x1="234.27" y1="5.57" x2="248.74" y2="5.57"/><line class="cls-3" x1="192.22" y1="18.98" x2="210.03" y2="18.98"/><line class="cls-3" x1="204.46" y1="26.52" x2="208.92" y2="26.52"/><line class="cls-3" x1="188.88" y1="26.52" x2="197.79" y2="26.52"/><line class="cls-3" x1="9.52" y1="65.47" x2="32.31" y2="65.47"/><line class="cls-3" x1="47.06" y1="65.47" x2="52.43" y2="65.47"/><line class="cls-3" x1="71.25" y1="62.3" x2="113.8" y2="62.3"/><line class="cls-3" x1="131.54" y1="65.47" x2="226.73" y2="65.47"/><line class="cls-3" x1="44.38" y1="71.51" x2="61.81" y2="71.51"/><line class="cls-3" x1="71.2" y1="71.51" x2="75.22" y2="71.51"/><line class="cls-3" x1="81.92" y1="71.51" x2="85.95" y2="71.51"/><line class="cls-3" x1="110.08" y1="71.51" x2="142.26" y2="71.51"/><line class="cls-3" x1="159.69" y1="71.51" x2="186.51" y2="71.51"/><line class="cls-3" x1="193.21" y1="71.51" x2="197.24" y2="71.51"/><line class="cls-3" x1="25.61" y1="87.35" x2="43.04" y2="87.35"/><line class="cls-3" x1="48.4" y1="87.35" x2="55.11" y2="87.35"/><line class="cls-3" x1="61.81" y1="87.35" x2="73.88" y2="87.35"/><line class="cls-3" x1="152.99" y1="79.8" x2="174.44" y2="79.8"/><line class="cls-3" x1="167.74" y1="87.35" x2="173.1" y2="87.35"/><line class="cls-3" x1="148.97" y1="87.35" x2="159.69" y2="87.35"/><line class="cls-3" x1="234.73" y1="71.64" x2="256.19" y2="71.64"/><line class="cls-3" x1="249.48" y1="79.19" x2="254.85" y2="79.19"/><line class="cls-3" x1="230.71" y1="79.19" x2="241.44" y2="79.19"/><line class="cls-3" x1="98.1" y1="52.36" x2="115.91" y2="52.36"/><line class="cls-3" x1="213.22" y1="52.48" x2="217.67" y2="52.48"/><line class="cls-3" x1="197.64" y1="52.48" x2="206.54" y2="52.48"/><line class="cls-3" x1="11.41" y1="96.24" x2="34.21" y2="96.24"/><line class="cls-3" x1="48.95" y1="96.24" x2="54.32" y2="96.24"/><line class="cls-3" x1="73.14" y1="93.07" x2="115.69" y2="93.07"/><line class="cls-3" x1="133.43" y1="96.24" x2="228.63" y2="96.24"/><line class="cls-3" x1="46.27" y1="102.28" x2="63.7" y2="102.28"/><line class="cls-3" x1="73.09" y1="102.28" x2="77.11" y2="102.28"/><line class="cls-3" x1="83.82" y1="102.28" x2="87.84" y2="102.28"/><line class="cls-3" x1="111.97" y1="102.28" x2="144.15" y2="102.28"/><line class="cls-3" x1="161.58" y1="102.28" x2="188.4" y2="102.28"/><line class="cls-3" x1="195.11" y1="102.28" x2="199.13" y2="102.28"/><line class="cls-3" x1="27.5" y1="118.12" x2="44.93" y2="118.12"/><line class="cls-3" x1="50.3" y1="118.12" x2="57" y2="118.12"/><line class="cls-3" x1="63.7" y1="118.12" x2="75.77" y2="118.12"/><line class="cls-3" x1="154.88" y1="110.58" x2="176.33" y2="110.58"/><line class="cls-3" x1="169.63" y1="118.12" x2="174.99" y2="118.12"/><line class="cls-3" x1="150.86" y1="118.12" x2="161.58" y2="118.12"/><line class="cls-3" x1="236.63" y1="102.42" x2="258.08" y2="102.42"/><line class="cls-3" x1="251.37" y1="109.96" x2="256.74" y2="109.96"/><line class="cls-3" x1="232.6" y1="109.96" x2="243.33" y2="109.96"/><line class="cls-3" x1="99.99" y1="83.13" x2="117.8" y2="83.13"/><line class="cls-3" x1="215.11" y1="83.25" x2="219.56" y2="83.25"/><line class="cls-3" x1="199.53" y1="83.25" x2="208.43" y2="83.25"/><line class="cls-4" x1="4.16" y1="154.31" x2="26.85" y2="154.31"/><line class="cls-4" x1="41.54" y1="154.31" x2="46.88" y2="154.31"/><line class="cls-4" x1="65.62" y1="151.14" x2="107.97" y2="151.14"/><line class="cls-4" x1="125.63" y1="154.31" x2="220.41" y2="154.31"/><line class="cls-4" x1="38.87" y1="160.35" x2="56.22" y2="160.35"/><line class="cls-4" x1="65.56" y1="160.35" x2="69.57" y2="160.35"/><line class="cls-4" x1="76.24" y1="160.35" x2="80.25" y2="160.35"/><line class="cls-4" x1="104.27" y1="160.35" x2="136.31" y2="160.35"/><line class="cls-4" x1="153.66" y1="160.35" x2="180.36" y2="160.35"/><line class="cls-4" x1="187.03" y1="160.35" x2="191.04" y2="160.35"/><line class="cls-4" x1="20.18" y1="176.19" x2="37.53" y2="176.19"/><line class="cls-4" x1="42.87" y1="176.19" x2="49.54" y2="176.19"/><line class="cls-4" x1="56.22" y1="176.19" x2="68.23" y2="176.19"/><line class="cls-4" x1="146.99" y1="168.65" x2="168.35" y2="168.65"/><line class="cls-4" x1="161.67" y1="176.19" x2="167.01" y2="176.19"/><line class="cls-4" x1="142.98" y1="176.19" x2="153.66" y2="176.19"/><line class="cls-4" x1="228.37" y1="160.49" x2="249.73" y2="160.49"/><line class="cls-4" x1="243.05" y1="168.03" x2="248.39" y2="168.03"/><line class="cls-4" x1="224.36" y1="168.03" x2="235.04" y2="168.03"/><line class="cls-4" x1="11.56" y1="125.63" x2="48.12" y2="125.63"/><line class="cls-4" x1="56.99" y1="125.63" x2="70.28" y2="125.63"/><line class="cls-4" x1="76.93" y1="125.63" x2="83.58" y2="125.63"/><line class="cls-4" x1="93.55" y1="125.63" x2="107.95" y2="125.63"/><line class="cls-4" x1="132.33" y1="125.63" x2="148.95" y2="125.63"/><line class="cls-4" x1="160.03" y1="125.63" x2="171.11" y2="125.63"/><line class="cls-4" x1="1.03" y1="132.8" x2="19.87" y2="132.8"/><line class="cls-4" x1="32.06" y1="132.8" x2="36.49" y2="132.8"/><line class="cls-4" x1="79.7" y1="132.8" x2="88.56" y2="132.8"/><line class="cls-4" x1="101.86" y1="132.8" x2="180.53" y2="132.8"/><line class="cls-4" x1="29.84" y1="138.84" x2="44.24" y2="138.84"/><line class="cls-4" x1="52" y1="138.84" x2="55.32" y2="138.84"/><line class="cls-4" x1="60.86" y1="138.84" x2="64.19" y2="138.84"/><line class="cls-4" x1="84.13" y1="138.84" x2="110.72" y2="138.84"/><line class="cls-4" x1="125.13" y1="138.84" x2="147.29" y2="138.84"/><line class="cls-4" x1="152.83" y1="138.84" x2="156.15" y2="138.84"/><line class="cls-4" x1="119.59" y1="147.14" x2="137.31" y2="147.14"/><line class="cls-4" x1="207.95" y1="125.57" x2="220.14" y2="125.57"/><line class="cls-4" x1="223.46" y1="125.57" x2="226.78" y2="125.57"/><line class="cls-4" x1="229" y1="125.57" x2="243.4" y2="125.57"/><line class="cls-4" x1="187.14" y1="138.98" x2="204.86" y2="138.98"/><line class="cls-4" x1="199.32" y1="146.52" x2="203.76" y2="146.52"/><line class="cls-4" x1="183.81" y1="146.52" x2="192.68" y2="146.52"/><line class="cls-4" x1="5.25" y1="185.47" x2="27.94" y2="185.47"/><line class="cls-4" x1="42.63" y1="185.47" x2="47.96" y2="185.47"/><line class="cls-4" x1="66.71" y1="182.3" x2="109.06" y2="182.3"/><line class="cls-4" x1="126.72" y1="185.47" x2="221.49" y2="185.47"/><line class="cls-4" x1="39.96" y1="191.51" x2="57.31" y2="191.51"/><line class="cls-4" x1="66.65" y1="191.51" x2="70.66" y2="191.51"/><line class="cls-4" x1="77.33" y1="191.51" x2="81.34" y2="191.51"/><line class="cls-4" x1="105.36" y1="191.51" x2="137.4" y2="191.51"/><line class="cls-4" x1="154.75" y1="191.51" x2="181.45" y2="191.51"/><line class="cls-4" x1="188.12" y1="191.51" x2="192.13" y2="191.51"/><line class="cls-4" x1="21.27" y1="207.35" x2="38.62" y2="207.35"/><line class="cls-4" x1="43.96" y1="207.35" x2="50.63" y2="207.35"/><line class="cls-4" x1="57.31" y1="207.35" x2="69.32" y2="207.35"/><line class="cls-4" x1="148.08" y1="199.8" x2="169.44" y2="199.8"/><line class="cls-4" x1="162.76" y1="207.35" x2="168.1" y2="207.35"/><line class="cls-4" x1="144.07" y1="207.35" x2="154.75" y2="207.35"/><line class="cls-4" x1="229.46" y1="191.64" x2="250.82" y2="191.64"/><line class="cls-4" x1="244.14" y1="199.19" x2="249.48" y2="199.19"/><line class="cls-4" x1="225.45" y1="199.19" x2="236.13" y2="199.19"/><line class="cls-4" x1="93.44" y1="172.36" x2="111.17" y2="172.36"/><line class="cls-4" x1="208.04" y1="172.48" x2="212.47" y2="172.48"/><line class="cls-4" x1="192.53" y1="172.48" x2="201.39" y2="172.48"/><line class="cls-4" x1="7.13" y1="216.24" x2="29.83" y2="216.24"/><line class="cls-4" x1="44.51" y1="216.24" x2="49.85" y2="216.24"/><line class="cls-4" x1="68.59" y1="213.07" x2="110.94" y2="213.07"/><line class="cls-4" x1="128.6" y1="216.24" x2="223.38" y2="216.24"/><line class="cls-4" x1="41.84" y1="222.28" x2="59.19" y2="222.28"/><line class="cls-4" x1="68.54" y1="222.28" x2="72.54" y2="222.28"/><line class="cls-4" x1="79.21" y1="222.28" x2="83.22" y2="222.28"/><line class="cls-4" x1="107.25" y1="222.28" x2="139.28" y2="222.28"/><line class="cls-4" x1="156.64" y1="222.28" x2="183.33" y2="222.28"/><line class="cls-4" x1="190.01" y1="222.28" x2="194.01" y2="222.28"/><line class="cls-4" x1="23.15" y1="238.12" x2="40.5" y2="238.12"/><line class="cls-4" x1="45.84" y1="238.12" x2="52.52" y2="238.12"/><line class="cls-4" x1="59.19" y1="238.12" x2="71.21" y2="238.12"/><line class="cls-4" x1="149.96" y1="230.58" x2="171.32" y2="230.58"/><line class="cls-4" x1="164.64" y1="238.12" x2="169.98" y2="238.12"/><line class="cls-4" x1="145.96" y1="238.12" x2="156.64" y2="238.12"/><line class="cls-4" x1="231.34" y1="222.42" x2="252.7" y2="222.42"/><line class="cls-4" x1="246.02" y1="229.96" x2="251.36" y2="229.96"/><line class="cls-4" x1="227.34" y1="229.96" x2="238.02" y2="229.96"/><line class="cls-4" x1="95.32" y1="203.13" x2="113.05" y2="203.13"/><line class="cls-4" x1="209.92" y1="203.25" x2="214.35" y2="203.25"/><line class="cls-4" x1="194.41" y1="203.25" x2="203.27" y2="203.25"/><line class="cls-4" x1="92.9" y1="231.07" x2="121.59" y2="231.07"/><path class="cls-4" d="M92.9,231.07"/><path class="cls-4" d="M86,231.07"/><line class="cls-4" x1="79.23" y1="231.07" x2="86" y2="231.07"/><line class="cls-5" x1="224.72" y1="208.05" x2="223.05" y2="219.51"/><path class="cls-5" d="M229.26,204.42v-1.1a.53.53,0,0,0-.53-.53h-2.29a.53.53,0,0,0-.53.53v1.1"/><line class="cls-5" x1="232.12" y1="219.51" x2="230.45" y2="208.05"/><line class="cls-5" x1="223.53" y1="215.93" x2="231.88" y2="215.93"/><line class="cls-5" x1="223.53" y1="215.93" x2="232.12" y2="219.51"/><line class="cls-5" x1="223.04" y1="219.49" x2="231.65" y2="215.95"/><rect class="cls-6" x="222.09" y="219.63" width="10.99" height="3.1" rx="1.55" ry="1.55"/><rect class="cls-6" x="224.24" y="204.94" width="6.45" height="3.1" rx="1.55" ry="1.55"/><line class="cls-7" x1="224.09" y1="212.4" x2="230.8" y2="212.4"/><rect class="cls-8" x="61.08" y="68.79" width="131.02" height="131.02"/><circle class="cls-9" cx="126.59" cy="134.3" r="20.69"/><path class="cls-10" d="M70.31,200.09a4.51,4.51,0,0,0,1.77-3.63v-1.14a.39.39,0,0,0-.39-.39l-46.61-.23h0a8.73,8.73,0,0,0,4.2,5.57"/><path class="cls-11" d="M51.2,192H69a1.05,1.05,0,0,0,.91-1.58L51.59,158.64a1,1,0,0,0-1.09-.51"/><path class="cls-10" d="M51.06,158c-.16,0-.32.11-.4.35L38.47,191c-.17.47,0,1,.39,1H51.2"/><path class="cls-10" d="M51.2,192H69.78a.7.7,0,0,0,.6-1l-18.82-32.6A.69.69,0,0,0,51,158"/><path class="cls-10" d="M231.31,138.09a4.51,4.51,0,0,0,1.77-3.63v-1.14a.39.39,0,0,0-.39-.39l-46.61-.23h0a8.73,8.73,0,0,0,4.2,5.57"/><path class="cls-11" d="M212.2,130H230a1.05,1.05,0,0,0,.91-1.58L212.59,96.64a1,1,0,0,0-1.09-.51"/><path class="cls-10" d="M212.06,96c-.16,0-.32.11-.4.35L199.47,129c-.17.47,0,1,.39,1H212.2"/><path class="cls-10" d="M212.2,130h18.58a.7.7,0,0,0,.6-1l-18.82-32.6A.69.69,0,0,0,212,96"/><path class="cls-10" d="M55.31,43.09a4.51,4.51,0,0,0,1.77-3.63V38.32a.39.39,0,0,0-.39-.39L10.08,37.7h0a8.73,8.73,0,0,0,4.2,5.57"/><path class="cls-11" d="M36.2,35H54a1.05,1.05,0,0,0,.91-1.58L36.59,1.64a1,1,0,0,0-1.09-.51"/><path class="cls-10" d="M36.06,1c-.16,0-.32.11-.4.35L23.47,34c-.17.47,0,1,.39,1H36.2"/><path class="cls-10" d="M36.2,35H54.78a.7.7,0,0,0,.6-1L36.56,1.35A.69.69,0,0,0,36,1"/><line class="cls-5" x1="38.72" y1="93.05" x2="37.05" y2="104.51"/><path class="cls-5" d="M43.26,89.42v-1.1a.53.53,0,0,0-.53-.53H40.44a.53.53,0,0,0-.53.53v1.1"/><line class="cls-5" x1="46.12" y1="104.51" x2="44.45" y2="93.05"/><line class="cls-5" x1="37.53" y1="100.93" x2="45.88" y2="100.93"/><line class="cls-5" x1="37.53" y1="100.93" x2="46.12" y2="104.51"/><line class="cls-5" x1="37.04" y1="104.49" x2="45.65" y2="100.95"/><rect class="cls-6" x="36.09" y="104.63" width="10.99" height="3.1" rx="1.55" ry="1.55"/><rect class="cls-6" x="38.24" y="89.94" width="6.45" height="3.1" rx="1.55" ry="1.55"/><line class="cls-7" x1="38.09" y1="97.4" x2="44.8" y2="97.4"/><line class="cls-5" x1="155.72" y1="31.05" x2="154.05" y2="42.51"/><path class="cls-5" d="M160.26,27.42v-1.1a.53.53,0,0,0-.53-.53h-2.29a.53.53,0,0,0-.53.53v1.1"/><line class="cls-5" x1="163.12" y1="42.51" x2="161.45" y2="31.05"/><line class="cls-5" x1="154.53" y1="38.93" x2="162.88" y2="38.93"/><line class="cls-5" x1="154.53" y1="38.93" x2="163.12" y2="42.51"/><line class="cls-5" x1="154.04" y1="42.49" x2="162.65" y2="38.95"/><rect class="cls-6" x="153.09" y="42.63" width="10.99" height="3.1" rx="1.55" ry="1.55"/><rect class="cls-6" x="155.24" y="27.94" width="6.45" height="3.1" rx="1.55" ry="1.55"/><line class="cls-7" x1="155.09" y1="35.4" x2="161.8" y2="35.4"/><g class="cls-12"><path class="cls-13" d="M105.83,210.79A14.25,14.25,0,1,0,120.08,225,14.25,14.25,0,0,0,105.83,210.79Zm0,23a8.72,8.72,0,1,1,8.72-8.72A8.72,8.72,0,0,1,105.83,233.76Z"/><polygon class="cls-6" points="119.55 228.91 114 227.43 112.23 230.66 116.63 234.35 119.55 228.91"/><polygon class="cls-6" points="110.24 217.77 113.11 212.8 117.61 217.02 112.9 220.32 110.24 217.77"/><polygon class="cls-6" points="97.9 221.96 92.5 220 95.88 214.84 99.94 218.9 97.9 221.96"/><polygon class="cls-6" points="100.8 231.91 97.5 236.61 93.39 232.01 98.37 229.14 100.8 231.91"/></g><g class="cls-14"><path class="cls-13" d="M216.83,28.79A14.25,14.25,0,1,0,231.08,43,14.25,14.25,0,0,0,216.83,28.79Zm0,23A8.72,8.72,0,1,1,225.55,43,8.72,8.72,0,0,1,216.83,51.76Z"/><polygon class="cls-6" points="230.54 46.91 225 45.42 223.23 48.66 227.63 52.35 230.54 46.91"/><polygon class="cls-6" points="221.24 35.77 224.11 30.8 228.61 35.02 223.9 38.32 221.24 35.77"/><polygon class="cls-6" points="208.9 39.96 203.5 38 206.88 32.84 210.94 36.9 208.9 39.96"/><polygon class="cls-6" points="211.8 49.91 208.5 54.61 204.4 50.01 209.37 47.14 211.8 49.91"/></g></g></g></g></svg>